<svg width="376" height="212" viewBox="0 0 376 212" fill="none" xmlns="http://www.w3.org/2000/svg">
<rect width="376" height="212" fill="#E2E7E9"/>
<g clip-path="url(#clip0_557_209867)">
<path d="M139.974 115.487C139.974 116.036 140.424 116.492 140.974 116.492C141.523 116.492 141.973 116.043 141.973 115.487C141.973 114.932 141.523 114.496 140.974 114.496C140.424 114.496 139.974 114.945 139.974 115.487Z" fill="#191E1E"/>
<path d="M138.478 120.28C139.03 120.28 139.478 119.833 139.478 119.282C139.478 118.731 139.03 118.284 138.478 118.284C137.927 118.284 137.479 118.731 137.479 119.282C137.479 119.833 137.927 120.28 138.478 120.28Z" fill="#191E1E"/>
<path d="M135.99 124.075C136.542 124.075 136.989 123.628 136.989 123.077C136.989 122.526 136.542 122.079 135.99 122.079C135.438 122.079 134.991 122.526 134.991 123.077C134.991 123.628 135.438 124.075 135.99 124.075Z" fill="#191E1E"/>
<path d="M140.974 124.075C141.526 124.075 141.973 123.628 141.973 123.077C141.973 122.526 141.526 122.079 140.974 122.079C140.422 122.079 139.974 122.526 139.974 123.077C139.974 123.628 140.422 124.075 140.974 124.075Z" fill="#191E1E"/>
<path d="M138.478 127.87C139.03 127.87 139.478 127.423 139.478 126.872C139.478 126.32 139.03 125.874 138.478 125.874C137.927 125.874 137.479 126.32 137.479 126.872C137.479 127.423 137.927 127.87 138.478 127.87Z" fill="#191E1E"/>
<path d="M143.469 120.28C144.021 120.28 144.468 119.833 144.468 119.282C144.468 118.731 144.021 118.284 143.469 118.284C142.917 118.284 142.469 118.731 142.469 119.282C142.469 119.833 142.917 120.28 143.469 120.28Z" fill="#191E1E"/>
<path d="M145.964 124.075C146.516 124.075 146.963 123.628 146.963 123.077C146.963 122.526 146.516 122.079 145.964 122.079C145.412 122.079 144.964 122.526 144.964 123.077C144.964 123.628 145.412 124.075 145.964 124.075Z" fill="#191E1E"/>
<path d="M143.469 127.87C144.021 127.87 144.468 127.423 144.468 126.872C144.468 126.32 144.021 125.874 143.469 125.874C142.917 125.874 142.469 126.32 142.469 126.872C142.469 127.423 142.917 127.87 143.469 127.87Z" fill="#191E1E"/>
<path d="M134.991 107.897C134.991 108.446 135.441 108.902 135.99 108.902C136.539 108.902 136.989 108.453 136.989 107.897C136.989 107.342 136.539 106.906 135.99 106.906C135.441 106.906 134.991 107.355 134.991 107.897Z" fill="#191E1E"/>
<path d="M133.495 112.69C134.047 112.69 134.494 112.244 134.494 111.692C134.494 111.141 134.047 110.694 133.495 110.694C132.943 110.694 132.495 111.141 132.495 111.692C132.495 112.244 132.943 112.69 133.495 112.69Z" fill="#191E1E"/>
<path d="M135.99 116.485C136.542 116.485 136.989 116.038 136.989 115.487C136.989 114.936 136.542 114.489 135.99 114.489C135.438 114.489 134.991 114.936 134.991 115.487C134.991 116.038 135.438 116.485 135.99 116.485Z" fill="#191E1E"/>
<path d="M133.495 120.28C134.047 120.28 134.494 119.833 134.494 119.282C134.494 118.731 134.047 118.284 133.495 118.284C132.943 118.284 132.495 118.731 132.495 119.282C132.495 119.833 132.943 120.28 133.495 120.28Z" fill="#191E1E"/>
<path d="M138.478 112.69C139.03 112.69 139.478 112.244 139.478 111.692C139.478 111.141 139.03 110.694 138.478 110.694C137.927 110.694 137.479 111.141 137.479 111.692C137.479 112.244 137.927 112.69 138.478 112.69Z" fill="#191E1E"/>
<path d="M132.495 104.096C132.495 104.644 132.946 105.101 133.495 105.101C134.044 105.101 134.494 104.651 134.494 104.096C134.494 103.54 134.044 103.104 133.495 103.104C132.946 103.104 132.495 103.554 132.495 104.096Z" fill="#191E1E"/>
<path d="M140.974 116.485C141.526 116.485 141.973 116.038 141.973 115.487C141.973 114.936 141.526 114.489 140.974 114.489C140.422 114.489 139.974 114.936 139.974 115.487C139.974 116.038 140.422 116.485 140.974 116.485Z" fill="#191E1E"/>
<path d="M148.459 127.87C149.011 127.87 149.458 127.423 149.458 126.872C149.458 126.32 149.011 125.874 148.459 125.874C147.907 125.874 147.46 126.32 147.46 126.872C147.46 127.423 147.907 127.87 148.459 127.87Z" fill="#191E1E"/>
<path d="M135.99 131.666C136.542 131.666 136.989 131.219 136.989 130.667C136.989 130.116 136.542 129.669 135.99 129.669C135.438 129.669 134.991 130.116 134.991 130.667C134.991 131.219 135.438 131.666 135.99 131.666Z" fill="#191E1E"/>
<path d="M140.974 131.666C141.526 131.666 141.973 131.219 141.973 130.667C141.973 130.116 141.526 129.669 140.974 129.669C140.422 129.669 139.974 130.116 139.974 130.667C139.974 131.219 140.422 131.666 140.974 131.666Z" fill="#191E1E"/>
<path d="M135.99 124.075C136.542 124.075 136.989 123.628 136.989 123.077C136.989 122.526 136.542 122.079 135.99 122.079C135.438 122.079 134.991 122.526 134.991 123.077C134.991 123.628 135.438 124.075 135.99 124.075Z" fill="#191E1E"/>
<path d="M138.478 135.461C139.03 135.461 139.478 135.014 139.478 134.462C139.478 133.911 139.03 133.464 138.478 133.464C137.927 133.464 137.479 133.911 137.479 134.462C137.479 135.014 137.927 135.461 138.478 135.461Z" fill="#191E1E"/>
<path d="M145.964 131.666C146.516 131.666 146.963 131.219 146.963 130.667C146.963 130.116 146.516 129.669 145.964 129.669C145.412 129.669 144.964 130.116 144.964 130.667C144.964 131.219 145.412 131.666 145.964 131.666Z" fill="#191E1E"/>
<path d="M150.954 131.666C151.506 131.666 151.953 131.219 151.953 130.667C151.953 130.116 151.506 129.669 150.954 129.669C150.402 129.669 149.955 130.116 149.955 130.667C149.955 131.219 150.402 131.666 150.954 131.666Z" fill="#191E1E"/>
<path d="M143.469 135.461C144.021 135.461 144.468 135.014 144.468 134.462C144.468 133.911 144.021 133.464 143.469 133.464C142.917 133.464 142.469 133.911 142.469 134.462C142.469 135.014 142.917 135.461 143.469 135.461Z" fill="#191E1E"/>
<path d="M148.459 135.461C149.011 135.461 149.458 135.014 149.458 134.462C149.458 133.911 149.011 133.464 148.459 133.464C147.907 133.464 147.46 133.911 147.46 134.462C147.46 135.014 147.907 135.461 148.459 135.461Z" fill="#191E1E"/>
<path d="M153.443 135.461C153.994 135.461 154.442 135.014 154.442 134.462C154.442 133.911 153.994 133.464 153.443 133.464C152.891 133.464 152.443 133.911 152.443 134.462C152.443 135.014 152.891 135.461 153.443 135.461Z" fill="#191E1E"/>
<path d="M145.964 139.255C146.516 139.255 146.963 138.808 146.963 138.257C146.963 137.706 146.516 137.259 145.964 137.259C145.412 137.259 144.964 137.706 144.964 138.257C144.964 138.808 145.412 139.255 145.964 139.255Z" fill="#191E1E"/>
<path d="M150.954 139.255C151.506 139.255 151.953 138.808 151.953 138.257C151.953 137.706 151.506 137.259 150.954 137.259C150.402 137.259 149.955 137.706 149.955 138.257C149.955 138.808 150.402 139.255 150.954 139.255Z" fill="#191E1E"/>
<path d="M155.938 139.255C156.49 139.255 156.937 138.808 156.937 138.257C156.937 137.706 156.49 137.259 155.938 137.259C155.386 137.259 154.938 137.706 154.938 138.257C154.938 138.808 155.386 139.255 155.938 139.255Z" fill="#191E1E"/>
<path d="M143.469 143.05C144.021 143.05 144.468 142.603 144.468 142.052C144.468 141.501 144.021 141.054 143.469 141.054C142.917 141.054 142.469 141.501 142.469 142.052C142.469 142.603 142.917 143.05 143.469 143.05Z" fill="#191E1E"/>
<path d="M148.459 143.05C149.011 143.05 149.458 142.603 149.458 142.052C149.458 141.501 149.011 141.054 148.459 141.054C147.907 141.054 147.46 141.501 147.46 142.052C147.46 142.603 147.907 143.05 148.459 143.05Z" fill="#191E1E"/>
<path d="M153.443 143.05C153.994 143.05 154.442 142.603 154.442 142.052C154.442 141.501 153.994 141.054 153.443 141.054C152.891 141.054 152.443 141.501 152.443 142.052C152.443 142.603 152.891 143.05 153.443 143.05Z" fill="#191E1E"/>
<path d="M158.433 143.05C158.985 143.05 159.432 142.603 159.432 142.052C159.432 141.501 158.985 141.054 158.433 141.054C157.881 141.054 157.433 141.501 157.433 142.052C157.433 142.603 157.881 143.05 158.433 143.05Z" fill="#191E1E"/>
<path d="M163.416 143.05C163.968 143.05 164.416 142.603 164.416 142.052C164.416 141.501 163.968 141.054 163.416 141.054C162.864 141.054 162.417 141.501 162.417 142.052C162.417 142.603 162.864 143.05 163.416 143.05Z" fill="#191E1E"/>
<path d="M150.954 146.845C151.506 146.845 151.953 146.398 151.953 145.847C151.953 145.296 151.506 144.849 150.954 144.849C150.402 144.849 149.955 145.296 149.955 145.847C149.955 146.398 150.402 146.845 150.954 146.845Z" fill="#191E1E"/>
<path d="M155.938 146.845C156.49 146.845 156.937 146.398 156.937 145.847C156.937 145.296 156.49 144.849 155.938 144.849C155.386 144.849 154.938 145.296 154.938 145.847C154.938 146.398 155.386 146.845 155.938 146.845Z" fill="#191E1E"/>
<path d="M160.928 146.845C161.48 146.845 161.927 146.398 161.927 145.847C161.927 145.296 161.48 144.849 160.928 144.849C160.376 144.849 159.929 145.296 159.929 145.847C159.929 146.398 160.376 146.845 160.928 146.845Z" fill="#191E1E"/>
<path d="M165.918 146.845C166.47 146.845 166.918 146.398 166.918 145.847C166.918 145.296 166.47 144.849 165.918 144.849C165.366 144.849 164.919 145.296 164.919 145.847C164.919 146.398 165.366 146.845 165.918 146.845Z" fill="#191E1E"/>
<path d="M148.459 150.64C149.011 150.64 149.458 150.193 149.458 149.642C149.458 149.091 149.011 148.644 148.459 148.644C147.907 148.644 147.46 149.091 147.46 149.642C147.46 150.193 147.907 150.64 148.459 150.64Z" fill="#191E1E"/>
<path d="M153.443 150.64C153.994 150.64 154.442 150.193 154.442 149.642C154.442 149.091 153.994 148.644 153.443 148.644C152.891 148.644 152.443 149.091 152.443 149.642C152.443 150.193 152.891 150.64 153.443 150.64Z" fill="#191E1E"/>
<path d="M158.433 150.64C158.985 150.64 159.432 150.193 159.432 149.642C159.432 149.091 158.985 148.644 158.433 148.644C157.881 148.644 157.433 149.091 157.433 149.642C157.433 150.193 157.881 150.64 158.433 150.64Z" fill="#191E1E"/>
<path d="M163.416 150.64C163.968 150.64 164.416 150.193 164.416 149.642C164.416 149.091 163.968 148.644 163.416 148.644C162.864 148.644 162.417 149.091 162.417 149.642C162.417 150.193 162.864 150.64 163.416 150.64Z" fill="#191E1E"/>
<path d="M168.407 150.64C168.959 150.64 169.406 150.193 169.406 149.642C169.406 149.091 168.959 148.644 168.407 148.644C167.855 148.644 167.407 149.091 167.407 149.642C167.407 150.193 167.855 150.64 168.407 150.64Z" fill="#191E1E"/>
<path d="M173.397 150.64C173.949 150.64 174.396 150.193 174.396 149.642C174.396 149.091 173.949 148.644 173.397 148.644C172.845 148.644 172.398 149.091 172.398 149.642C172.398 150.193 172.845 150.64 173.397 150.64Z" fill="#191E1E"/>
<path d="M243.227 150.64C243.779 150.64 244.227 150.193 244.227 149.642C244.227 149.091 243.779 148.644 243.227 148.644C242.675 148.644 242.228 149.091 242.228 149.642C242.228 150.193 242.675 150.64 243.227 150.64Z" fill="#191E1E"/>
<path d="M155.938 154.435C156.49 154.435 156.937 153.988 156.937 153.437C156.937 152.885 156.49 152.438 155.938 152.438C155.386 152.438 154.938 152.885 154.938 153.437C154.938 153.988 155.386 154.435 155.938 154.435Z" fill="#191E1E"/>
<path d="M160.928 154.435C161.48 154.435 161.927 153.988 161.927 153.437C161.927 152.885 161.48 152.438 160.928 152.438C160.376 152.438 159.929 152.885 159.929 153.437C159.929 153.988 160.376 154.435 160.928 154.435Z" fill="#191E1E"/>
<path d="M158.433 158.23C158.985 158.23 159.432 157.783 159.432 157.232C159.432 156.68 158.985 156.233 158.433 156.233C157.881 156.233 157.433 156.68 157.433 157.232C157.433 157.783 157.881 158.23 158.433 158.23Z" fill="#191E1E"/>
<path d="M165.918 154.435C166.47 154.435 166.918 153.988 166.918 153.437C166.918 152.885 166.47 152.438 165.918 152.438C165.366 152.438 164.919 152.885 164.919 153.437C164.919 153.988 165.366 154.435 165.918 154.435Z" fill="#191E1E"/>
<path d="M170.902 154.435C171.454 154.435 171.901 153.988 171.901 153.437C171.901 152.885 171.454 152.438 170.902 152.438C170.35 152.438 169.902 152.885 169.902 153.437C169.902 153.988 170.35 154.435 170.902 154.435Z" fill="#191E1E"/>
<path d="M175.892 154.435C176.444 154.435 176.891 153.988 176.891 153.437C176.891 152.885 176.444 152.438 175.892 152.438C175.34 152.438 174.893 152.885 174.893 153.437C174.893 153.988 175.34 154.435 175.892 154.435Z" fill="#191E1E"/>
<path d="M240.732 154.435C241.284 154.435 241.731 153.988 241.731 153.437C241.731 152.885 241.284 152.438 240.732 152.438C240.18 152.438 239.733 152.885 239.733 153.437C239.733 153.988 240.18 154.435 240.732 154.435Z" fill="#191E1E"/>
<path d="M245.722 154.435C246.274 154.435 246.722 153.988 246.722 153.437C246.722 152.885 246.274 152.438 245.722 152.438C245.17 152.438 244.723 152.885 244.723 153.437C244.723 153.988 245.17 154.435 245.722 154.435Z" fill="#191E1E"/>
<path d="M163.416 158.23C163.968 158.23 164.416 157.783 164.416 157.232C164.416 156.68 163.968 156.233 163.416 156.233C162.864 156.233 162.417 156.68 162.417 157.232C162.417 157.783 162.864 158.23 163.416 158.23Z" fill="#191E1E"/>
<path d="M160.921 162.025C161.473 162.025 161.921 161.578 161.921 161.027C161.921 160.475 161.473 160.028 160.921 160.028C160.369 160.028 159.922 160.475 159.922 161.027C159.922 161.578 160.369 162.025 160.921 162.025Z" fill="#191E1E"/>
<path d="M168.407 158.23C168.959 158.23 169.406 157.783 169.406 157.232C169.406 156.68 168.959 156.233 168.407 156.233C167.855 156.233 167.407 156.68 167.407 157.232C167.407 157.783 167.855 158.23 168.407 158.23Z" fill="#191E1E"/>
<path d="M173.397 158.23C173.949 158.23 174.396 157.783 174.396 157.232C174.396 156.68 173.949 156.233 173.397 156.233C172.845 156.233 172.398 156.68 172.398 157.232C172.398 157.783 172.845 158.23 173.397 158.23Z" fill="#191E1E"/>
<path d="M178.381 158.23C178.932 158.23 179.38 157.783 179.38 157.232C179.38 156.68 178.932 156.233 178.381 156.233C177.829 156.233 177.381 156.68 177.381 157.232C177.381 157.783 177.829 158.23 178.381 158.23Z" fill="#191E1E"/>
<path d="M183.371 158.23C183.92 158.23 184.37 157.78 184.37 157.232C184.37 156.683 183.92 156.233 183.371 156.233C182.821 156.233 182.378 156.683 182.378 157.232C182.378 157.78 182.828 158.23 183.371 158.23Z" fill="#191E1E"/>
<path d="M233.253 158.23C233.805 158.23 234.253 157.783 234.253 157.232C234.253 156.68 233.805 156.233 233.253 156.233C232.701 156.233 232.254 156.68 232.254 157.232C232.254 157.783 232.701 158.23 233.253 158.23Z" fill="#191E1E"/>
<path d="M238.244 158.23C238.795 158.23 239.243 157.783 239.243 157.232C239.243 156.68 238.795 156.233 238.244 156.233C237.692 156.233 237.244 156.68 237.244 157.232C237.244 157.783 237.692 158.23 238.244 158.23Z" fill="#191E1E"/>
<path d="M243.227 158.23C243.779 158.23 244.227 157.783 244.227 157.232C244.227 156.68 243.779 156.233 243.227 156.233C242.675 156.233 242.228 156.68 242.228 157.232C242.228 157.783 242.675 158.23 243.227 158.23Z" fill="#191E1E"/>
<path d="M165.918 162.025C166.47 162.025 166.918 161.578 166.918 161.027C166.918 160.475 166.47 160.028 165.918 160.028C165.366 160.028 164.919 160.475 164.919 161.027C164.919 161.578 165.366 162.025 165.918 162.025Z" fill="#191E1E"/>
<path d="M170.902 162.025C171.454 162.025 171.901 161.578 171.901 161.027C171.901 160.475 171.454 160.028 170.902 160.028C170.35 160.028 169.902 160.475 169.902 161.027C169.902 161.578 170.35 162.025 170.902 162.025Z" fill="#191E1E"/>
<path d="M175.892 162.025C176.444 162.025 176.891 161.578 176.891 161.027C176.891 160.475 176.444 160.028 175.892 160.028C175.34 160.028 174.893 160.475 174.893 161.027C174.893 161.578 175.34 162.025 175.892 162.025Z" fill="#191E1E"/>
<path d="M180.882 162.025C181.434 162.025 181.882 161.578 181.882 161.027C181.882 160.475 181.434 160.028 180.882 160.028C180.33 160.028 179.883 160.475 179.883 161.027C179.883 161.578 180.33 162.025 180.882 162.025Z" fill="#191E1E"/>
<path d="M185.866 162.025C186.418 162.025 186.865 161.578 186.865 161.027C186.865 160.475 186.418 160.028 185.866 160.028C185.314 160.028 184.867 160.475 184.867 161.027C184.867 161.578 185.314 162.025 185.866 162.025Z" fill="#191E1E"/>
<path d="M190.856 162.025C191.408 162.025 191.855 161.578 191.855 161.027C191.855 160.475 191.408 160.028 190.856 160.028C190.304 160.028 189.857 160.475 189.857 161.027C189.857 161.578 190.304 162.025 190.856 162.025Z" fill="#191E1E"/>
<path d="M225.768 162.025C226.32 162.025 226.767 161.578 226.767 161.027C226.767 160.475 226.32 160.028 225.768 160.028C225.216 160.028 224.769 160.475 224.769 161.027C224.769 161.578 225.216 162.025 225.768 162.025Z" fill="#191E1E"/>
<path d="M230.758 162.025C231.31 162.025 231.758 161.578 231.758 161.027C231.758 160.475 231.31 160.028 230.758 160.028C230.206 160.028 229.759 160.475 229.759 161.027C229.759 161.578 230.206 162.025 230.758 162.025Z" fill="#191E1E"/>
<path d="M235.748 162.025C236.3 162.025 236.748 161.578 236.748 161.027C236.748 160.475 236.3 160.028 235.748 160.028C235.196 160.028 234.749 160.475 234.749 161.027C234.749 161.578 235.196 162.025 235.748 162.025Z" fill="#191E1E"/>
<path d="M240.732 162.025C241.284 162.025 241.731 161.578 241.731 161.027C241.731 160.475 241.284 160.028 240.732 160.028C240.18 160.028 239.733 160.475 239.733 161.027C239.733 161.578 240.18 162.025 240.732 162.025Z" fill="#191E1E"/>
<path d="M245.722 162.025C246.274 162.025 246.722 161.578 246.722 161.027C246.722 160.475 246.274 160.028 245.722 160.028C245.17 160.028 244.723 160.475 244.723 161.027C244.723 161.578 245.17 162.025 245.722 162.025Z" fill="#191E1E"/>
<path d="M174.396 164.828C174.396 164.279 173.946 163.823 173.397 163.823C172.848 163.823 172.398 164.273 172.398 164.828C172.398 165.384 172.848 165.82 173.397 165.82C173.946 165.82 174.396 165.37 174.396 164.828Z" fill="#191E1E"/>
<path d="M179.38 164.828C179.38 164.279 178.93 163.823 178.381 163.823C177.831 163.823 177.381 164.273 177.381 164.828C177.381 165.384 177.831 165.82 178.381 165.82C178.93 165.82 179.38 165.37 179.38 164.828Z" fill="#191E1E"/>
<path d="M184.37 164.828C184.37 164.279 183.92 163.823 183.371 163.823C182.821 163.823 182.378 164.273 182.378 164.828C182.378 165.384 182.828 165.82 183.371 165.82C183.913 165.82 184.37 165.37 184.37 164.828Z" fill="#191E1E"/>
<path d="M187.362 164.828C187.362 165.377 187.812 165.82 188.368 165.82C188.924 165.82 189.36 165.37 189.36 164.828C189.36 164.286 188.91 163.823 188.368 163.823C187.825 163.823 187.362 164.273 187.362 164.828Z" fill="#191E1E"/>
<path d="M193.345 165.82C193.894 165.82 194.351 165.37 194.351 164.828C194.351 164.286 193.901 163.823 193.345 163.823C192.789 163.823 192.352 164.273 192.352 164.828C192.352 165.384 192.802 165.82 193.345 165.82Z" fill="#191E1E"/>
<path d="M197.335 164.828C197.335 165.377 197.785 165.82 198.341 165.82C198.897 165.82 199.334 165.37 199.334 164.828C199.334 164.286 198.884 163.823 198.341 163.823C197.799 163.823 197.335 164.273 197.335 164.828Z" fill="#191E1E"/>
<path d="M203.325 165.82C203.874 165.82 204.331 165.37 204.331 164.828C204.331 164.286 203.881 163.823 203.325 163.823C202.769 163.823 202.332 164.273 202.332 164.828C202.332 165.384 202.782 165.82 203.325 165.82Z" fill="#191E1E"/>
<path d="M207.316 164.828C207.316 165.377 207.766 165.82 208.315 165.82C208.865 165.82 209.308 165.37 209.308 164.828C209.308 164.286 208.858 163.823 208.315 163.823C207.773 163.823 207.316 164.273 207.316 164.828Z" fill="#191E1E"/>
<path d="M212.3 164.828C212.3 165.377 212.75 165.82 213.299 165.82C213.848 165.82 214.298 165.37 214.298 164.828C214.298 164.286 213.848 163.823 213.299 163.823C212.75 163.823 212.3 164.273 212.3 164.828Z" fill="#191E1E"/>
<path d="M217.29 164.828C217.29 165.377 217.74 165.82 218.289 165.82C218.838 165.82 219.289 165.37 219.289 164.828C219.289 164.286 218.838 163.823 218.289 163.823C217.74 163.823 217.29 164.273 217.29 164.828Z" fill="#191E1E"/>
<path d="M222.28 164.828C222.28 165.377 222.73 165.82 223.279 165.82C223.829 165.82 224.279 165.37 224.279 164.828C224.279 164.286 223.829 163.823 223.279 163.823C222.73 163.823 222.28 164.273 222.28 164.828Z" fill="#191E1E"/>
<path d="M228.263 163.823C227.714 163.823 227.264 164.273 227.264 164.828C227.264 165.384 227.714 165.82 228.263 165.82C228.812 165.82 229.262 165.37 229.262 164.828C229.262 164.286 228.812 163.823 228.263 163.823Z" fill="#191E1E"/>
<path d="M232.254 164.828C232.254 165.377 232.704 165.82 233.253 165.82C233.803 165.82 234.253 165.37 234.253 164.828C234.253 164.286 233.803 163.823 233.253 163.823C232.704 163.823 232.254 164.273 232.254 164.828Z" fill="#191E1E"/>
<path d="M237.244 164.828C237.244 165.377 237.694 165.82 238.244 165.82C238.793 165.82 239.243 165.37 239.243 164.828C239.243 164.286 238.793 163.823 238.244 163.823C237.694 163.823 237.244 164.273 237.244 164.828Z" fill="#191E1E"/>
<path d="M243.227 163.823C242.678 163.823 242.228 164.273 242.228 164.828C242.228 165.384 242.678 165.82 243.227 165.82C243.776 165.82 244.227 165.37 244.227 164.828C244.227 164.286 243.776 163.823 243.227 163.823Z" fill="#191E1E"/>
<path d="M180.882 169.615C181.434 169.615 181.882 169.168 181.882 168.616C181.882 168.065 181.434 167.618 180.882 167.618C180.33 167.618 179.883 168.065 179.883 168.616C179.883 169.168 180.33 169.615 180.882 169.615Z" fill="#191E1E"/>
<path d="M185.866 169.615C186.418 169.615 186.865 169.168 186.865 168.616C186.865 168.065 186.418 167.618 185.866 167.618C185.314 167.618 184.867 168.065 184.867 168.616C184.867 169.168 185.314 169.615 185.866 169.615Z" fill="#191E1E"/>
<path d="M190.856 169.615C191.408 169.615 191.855 169.168 191.855 168.616C191.855 168.065 191.408 167.618 190.856 167.618C190.304 167.618 189.857 168.065 189.857 168.616C189.857 169.168 190.304 169.615 190.856 169.615Z" fill="#191E1E"/>
<path d="M195.84 169.615C196.392 169.615 196.839 169.168 196.839 168.616C196.839 168.065 196.392 167.618 195.84 167.618C195.288 167.618 194.84 168.065 194.84 168.616C194.84 169.168 195.288 169.615 195.84 169.615Z" fill="#191E1E"/>
<path d="M200.83 169.615C201.382 169.615 201.829 169.168 201.829 168.616C201.829 168.065 201.382 167.618 200.83 167.618C200.278 167.618 199.831 168.065 199.831 168.616C199.831 169.168 200.278 169.615 200.83 169.615Z" fill="#191E1E"/>
<path d="M205.82 169.615C206.372 169.615 206.82 169.168 206.82 168.616C206.82 168.065 206.372 167.618 205.82 167.618C205.268 167.618 204.821 168.065 204.821 168.616C204.821 169.168 205.268 169.615 205.82 169.615Z" fill="#191E1E"/>
<path d="M210.804 169.615C211.356 169.615 211.803 169.168 211.803 168.616C211.803 168.065 211.356 167.618 210.804 167.618C210.252 167.618 209.804 168.065 209.804 168.616C209.804 169.168 210.252 169.615 210.804 169.615Z" fill="#191E1E"/>
<path d="M215.794 169.615C216.346 169.615 216.793 169.168 216.793 168.616C216.793 168.065 216.346 167.618 215.794 167.618C215.242 167.618 214.795 168.065 214.795 168.616C214.795 169.168 215.242 169.615 215.794 169.615Z" fill="#191E1E"/>
<path d="M220.784 169.615C221.336 169.615 221.784 169.168 221.784 168.616C221.784 168.065 221.336 167.618 220.784 167.618C220.232 167.618 219.785 168.065 219.785 168.616C219.785 169.168 220.232 169.615 220.784 169.615Z" fill="#191E1E"/>
<path d="M225.768 169.615C226.32 169.615 226.767 169.168 226.767 168.616C226.767 168.065 226.32 167.618 225.768 167.618C225.216 167.618 224.769 168.065 224.769 168.616C224.769 169.168 225.216 169.615 225.768 169.615Z" fill="#191E1E"/>
<path d="M230.758 169.615C231.31 169.615 231.758 169.168 231.758 168.616C231.758 168.065 231.31 167.618 230.758 167.618C230.206 167.618 229.759 168.065 229.759 168.616C229.759 169.168 230.206 169.615 230.758 169.615Z" fill="#191E1E"/>
<path d="M235.748 169.615C236.3 169.615 236.748 169.168 236.748 168.616C236.748 168.065 236.3 167.618 235.748 167.618C235.196 167.618 234.749 168.065 234.749 168.616C234.749 169.168 235.196 169.615 235.748 169.615Z" fill="#191E1E"/>
<path d="M240.732 169.615C241.284 169.615 241.731 169.168 241.731 168.616C241.731 168.065 241.284 167.618 240.732 167.618C240.18 167.618 239.733 168.065 239.733 168.616C239.733 169.168 240.18 169.615 240.732 169.615Z" fill="#191E1E"/>
<path d="M188.361 171.413C187.812 171.413 187.355 171.863 187.355 172.411C187.355 172.96 187.805 173.41 188.361 173.41C188.917 173.41 189.354 172.96 189.354 172.411C189.354 171.863 188.904 171.413 188.361 171.413Z" fill="#191E1E"/>
<path d="M194.351 172.411C194.351 171.863 193.901 171.413 193.345 171.413C192.789 171.413 192.352 171.863 192.352 172.411C192.352 172.96 192.802 173.41 193.345 173.41C193.887 173.41 194.351 172.96 194.351 172.411Z" fill="#191E1E"/>
<path d="M198.341 171.413C197.792 171.413 197.335 171.863 197.335 172.411C197.335 172.96 197.785 173.41 198.341 173.41C198.897 173.41 199.334 172.96 199.334 172.411C199.334 171.863 198.884 171.413 198.341 171.413Z" fill="#191E1E"/>
<path d="M203.325 173.41C203.874 173.41 204.331 172.96 204.331 172.411C204.331 171.863 203.881 171.413 203.325 171.413C202.769 171.413 202.332 171.863 202.332 172.411C202.332 172.96 202.782 173.41 203.325 173.41Z" fill="#191E1E"/>
<path d="M208.315 171.413C207.766 171.413 207.316 171.863 207.316 172.411C207.316 172.96 207.766 173.41 208.315 173.41C208.865 173.41 209.308 172.96 209.308 172.411C209.308 171.863 208.858 171.413 208.315 171.413Z" fill="#191E1E"/>
<path d="M213.299 173.41C213.851 173.41 214.298 172.963 214.298 172.411C214.298 171.86 213.851 171.413 213.299 171.413C212.747 171.413 212.3 171.86 212.3 172.411C212.3 172.963 212.747 173.41 213.299 173.41Z" fill="#191E1E"/>
<path d="M218.289 173.41C218.841 173.41 219.289 172.963 219.289 172.411C219.289 171.86 218.841 171.413 218.289 171.413C217.737 171.413 217.29 171.86 217.29 172.411C217.29 172.963 217.737 173.41 218.289 173.41Z" fill="#191E1E"/>
<path d="M223.279 173.41C223.831 173.41 224.279 172.963 224.279 172.411C224.279 171.86 223.831 171.413 223.279 171.413C222.727 171.413 222.28 171.86 222.28 172.411C222.28 172.963 222.727 173.41 223.279 173.41Z" fill="#191E1E"/>
<path d="M228.263 173.41C228.815 173.41 229.262 172.963 229.262 172.411C229.262 171.86 228.815 171.413 228.263 171.413C227.711 171.413 227.264 171.86 227.264 172.411C227.264 172.963 227.711 173.41 228.263 173.41Z" fill="#191E1E"/>
<path d="M233.253 173.41C233.805 173.41 234.253 172.963 234.253 172.411C234.253 171.86 233.805 171.413 233.253 171.413C232.701 171.413 232.254 171.86 232.254 172.411C232.254 172.963 232.701 173.41 233.253 173.41Z" fill="#191E1E"/>
<path d="M195.84 177.205C196.392 177.205 196.839 176.758 196.839 176.206C196.839 175.655 196.392 175.208 195.84 175.208C195.288 175.208 194.84 175.655 194.84 176.206C194.84 176.758 195.288 177.205 195.84 177.205Z" fill="#191E1E"/>
<path d="M200.83 177.205C201.382 177.205 201.829 176.758 201.829 176.206C201.829 175.655 201.382 175.208 200.83 175.208C200.278 175.208 199.831 175.655 199.831 176.206C199.831 176.758 200.278 177.205 200.83 177.205Z" fill="#191E1E"/>
<path d="M205.82 177.205C206.372 177.205 206.82 176.758 206.82 176.206C206.82 175.655 206.372 175.208 205.82 175.208C205.268 175.208 204.821 175.655 204.821 176.206C204.821 176.758 205.268 177.205 205.82 177.205Z" fill="#191E1E"/>
<path d="M210.804 177.205C211.356 177.205 211.803 176.758 211.803 176.206C211.803 175.655 211.356 175.208 210.804 175.208C210.252 175.208 209.804 175.655 209.804 176.206C209.804 176.758 210.252 177.205 210.804 177.205Z" fill="#191E1E"/>
<path d="M215.794 177.205C216.346 177.205 216.793 176.758 216.793 176.206C216.793 175.655 216.346 175.208 215.794 175.208C215.242 175.208 214.795 175.655 214.795 176.206C214.795 176.758 215.242 177.205 215.794 177.205Z" fill="#191E1E"/>
<path d="M220.784 177.205C221.336 177.205 221.784 176.758 221.784 176.206C221.784 175.655 221.336 175.208 220.784 175.208C220.232 175.208 219.785 175.655 219.785 176.206C219.785 176.758 220.232 177.205 220.784 177.205Z" fill="#191E1E"/>
<path d="M225.768 177.205C226.32 177.205 226.767 176.758 226.767 176.206C226.767 175.655 226.32 175.208 225.768 175.208C225.216 175.208 224.769 175.655 224.769 176.206C224.769 176.758 225.216 177.205 225.768 177.205Z" fill="#191E1E"/>
<path d="M230.758 177.205C231.31 177.205 231.758 176.758 231.758 176.206C231.758 175.655 231.31 175.208 230.758 175.208C230.206 175.208 229.759 175.655 229.759 176.206C229.759 176.758 230.206 177.205 230.758 177.205Z" fill="#191E1E"/>
<path d="M204.324 180.001C204.324 179.453 203.874 179.003 203.318 179.003C202.762 179.003 202.326 179.453 202.326 180.001C202.326 180.55 202.776 181 203.318 181C203.861 181 204.324 180.55 204.324 180.001Z" fill="#191E1E"/>
<path d="M208.315 179.003C207.766 179.003 207.316 179.453 207.316 180.001C207.316 180.55 207.766 181 208.315 181C208.865 181 209.308 180.55 209.308 180.001C209.308 179.453 208.858 179.003 208.315 179.003Z" fill="#191E1E"/>
<path d="M213.299 181C213.851 181 214.298 180.553 214.298 180.001C214.298 179.45 213.851 179.003 213.299 179.003C212.747 179.003 212.3 179.45 212.3 180.001C212.3 180.553 212.747 181 213.299 181Z" fill="#191E1E"/>
<path d="M218.289 181C218.841 181 219.289 180.553 219.289 180.001C219.289 179.45 218.841 179.003 218.289 179.003C217.737 179.003 217.29 179.45 217.29 180.001C217.29 180.553 217.737 181 218.289 181Z" fill="#191E1E"/>
<path d="M223.279 181C223.831 181 224.279 180.553 224.279 180.001C224.279 179.45 223.831 179.003 223.279 179.003C222.727 179.003 222.28 179.45 222.28 180.001C222.28 180.553 222.727 181 223.279 181Z" fill="#191E1E"/>
<path d="M168.407 165.827C168.959 165.827 169.406 165.38 169.406 164.828C169.406 164.277 168.959 163.83 168.407 163.83C167.855 163.83 167.407 164.277 167.407 164.828C167.407 165.38 167.855 165.827 168.407 165.827Z" fill="#191E1E"/>
<path d="M175.885 169.622C176.437 169.622 176.885 169.175 176.885 168.623C176.885 168.072 176.437 167.625 175.885 167.625C175.333 167.625 174.886 168.072 174.886 168.623C174.886 169.175 175.333 169.622 175.885 169.622Z" fill="#191E1E"/>
<path d="M183.371 173.41C183.923 173.41 184.37 172.963 184.37 172.411C184.37 171.86 183.923 171.413 183.371 171.413C182.819 171.413 182.371 171.86 182.371 172.411C182.371 172.963 182.819 173.41 183.371 173.41Z" fill="#191E1E"/>
<path d="M190.856 177.205C191.408 177.205 191.855 176.758 191.855 176.206C191.855 175.655 191.408 175.208 190.856 175.208C190.304 175.208 189.857 175.655 189.857 176.206C189.857 176.758 190.304 177.205 190.856 177.205Z" fill="#191E1E"/>
<path d="M198.335 181C198.887 181 199.334 180.553 199.334 180.001C199.334 179.45 198.887 179.003 198.335 179.003C197.783 179.003 197.335 179.45 197.335 180.001C197.335 180.553 197.783 181 198.335 181Z" fill="#191E1E"/>
<path d="M145.957 146.845C146.509 146.845 146.957 146.398 146.957 145.847C146.957 145.296 146.509 144.849 145.957 144.849C145.405 144.849 144.958 145.296 144.958 145.847C144.958 146.398 145.405 146.845 145.957 146.845Z" fill="#191E1E"/>
<path d="M140.974 139.255C141.526 139.255 141.973 138.808 141.973 138.257C141.973 137.706 141.526 137.259 140.974 137.259C140.422 137.259 139.974 137.706 139.974 138.257C139.974 138.808 140.422 139.255 140.974 139.255Z" fill="#191E1E"/>
<path d="M286.888 39.218C285.3 38.623 283.348 38.504 281.382 38.8411C279.416 39.1982 277.629 40.0114 276.359 41.1287C274.889 42.4113 274.214 44.0377 274.492 45.5848C274.565 45.9881 274.704 46.365 274.896 46.722L233.677 70.7016C224.285 57.7961 212.862 47.0129 200.797 39.8725C190.995 34.0677 181.286 31 172.728 31C167.56 31 162.887 32.1041 158.87 34.2264C158.737 34.2594 158.611 34.3057 158.486 34.3784L143.144 43.2708C143.144 43.2708 143.098 43.3039 143.072 43.3237C140.815 44.6394 138.776 46.2922 137.003 48.2823C131.867 54.0342 129.147 62.3514 129.147 72.328C129.147 87.4483 135.242 105.094 146.315 122.006L146.692 122.562L117.538 139.652C117.492 139.679 117.452 139.712 117.412 139.745C115.281 139.004 112.568 138.806 109.708 139.322C103.745 140.406 99.4434 144.181 100.092 147.758C100.741 151.335 106.101 153.358 112.065 152.273C118.028 151.189 122.33 147.414 121.681 143.837C121.522 142.964 121.079 142.178 120.41 141.517L148.419 125.1C158.022 138.832 170.22 150.475 182.815 157.926C192.577 163.705 202.246 166.752 210.777 166.752C215.873 166.752 220.447 165.675 224.365 163.645C224.464 163.612 224.563 163.579 224.656 163.526L240.481 154.402C240.567 154.356 240.639 154.296 240.712 154.237C248.475 149.536 253.373 140.849 254.24 129.332C255.61 118.244 252.883 101.385 245.107 73.0949L243.803 68.3545L277.298 48.8707C278.39 49.3864 279.721 49.6707 281.177 49.6707C281.865 49.6707 282.586 49.6045 283.314 49.4723C287.716 48.6723 290.747 45.7104 290.204 42.7287C289.926 41.1816 288.715 39.899 286.888 39.218V39.218ZM245.199 145.074C244.107 145.074 243.227 144.188 243.227 143.103C243.227 142.019 244.114 141.133 245.199 141.133C246.285 141.133 247.172 142.019 247.172 143.103C247.172 144.188 246.285 145.074 245.199 145.074ZM245.199 115.249C246.285 115.249 247.172 116.135 247.172 117.22C247.172 118.304 246.285 119.19 245.199 119.19C244.114 119.19 243.227 118.304 243.227 117.22C243.227 116.135 244.114 115.249 245.199 115.249ZM243.227 104.274C243.227 103.19 244.114 102.304 245.199 102.304C246.285 102.304 247.172 103.19 247.172 104.274C247.172 105.359 246.285 106.245 245.199 106.245C244.114 106.245 243.227 105.359 243.227 104.274ZM245.199 128.195C246.285 128.195 247.172 129.08 247.172 130.165C247.172 131.249 246.285 132.135 245.199 132.135C244.114 132.135 243.227 131.249 243.227 130.165C243.227 129.08 244.114 128.195 245.199 128.195ZM247.172 91.3359C247.172 92.4201 246.285 93.3061 245.199 93.3061C244.114 93.3061 243.227 92.4201 243.227 91.3359C243.227 90.2516 244.114 89.3657 245.199 89.3657C246.285 89.3657 247.172 90.2516 247.172 91.3359ZM231.023 72.2487L229.011 73.4189C228.66 73.6239 228.428 73.9412 228.323 74.2982L228.237 74.3511L224.603 81.0154C223.961 82.1989 223.207 83.2699 222.326 84.2418C213.723 71.1975 203.007 60.0175 191.498 52.0243L203.365 45.122C213.742 52.0904 223.246 61.6373 231.029 72.2487H231.023ZM155.382 125.636C154.766 126.059 152.913 125.385 151.172 123.494L154.985 121.259C156.057 123.362 156.01 125.2 155.382 125.636ZM149.432 120.962C148.869 119.791 148.605 118.615 148.757 117.735C148.803 117.451 148.922 117.061 149.2 116.863C149.319 116.783 149.491 116.737 149.697 116.737C150.491 116.737 151.848 117.405 153.178 118.76L149.438 120.955L149.432 120.962ZM184.37 155.301C173.45 148.842 163.317 139.48 154.965 128.809C155.759 128.803 156.5 128.585 157.136 128.142C159.287 126.634 159.426 123.117 157.625 119.705L161.729 117.299C166.845 119.269 176.435 122.694 183.649 124.525C183.662 124.525 183.675 124.532 183.688 124.538C183.96 124.605 184.231 124.677 184.502 124.743C184.893 124.836 185.283 124.935 185.661 125.014C189.003 125.755 192.418 126.138 195.767 126.138C207.303 126.138 218.064 121.636 222.227 111.944C222.101 112.929 221.936 113.881 221.731 114.787C221.605 115.349 221.466 115.884 221.314 116.413C221.095 117.173 220.857 117.907 220.579 118.608C220.553 118.681 220.52 118.747 220.493 118.813C220.314 119.263 220.122 119.699 219.917 120.129C218.746 122.601 217.217 124.671 215.41 126.37C215.377 126.396 215.344 126.429 215.311 126.456C214.848 126.885 214.371 127.282 213.875 127.666C213.107 128.261 212.293 128.796 211.452 129.285C210.844 129.636 210.221 129.96 209.586 130.257C208.818 130.614 208.031 130.932 207.223 131.216C207.071 131.269 206.919 131.328 206.76 131.381C206.039 131.619 205.297 131.837 204.549 132.023C201.545 132.77 198.335 133.107 195.059 133.107C193.775 133.107 192.497 133.054 191.24 132.955C183.708 132.366 177.904 129.795 165.534 126.773C164.025 126.423 162.847 126.257 162.847 126.257C165.964 127.672 169.088 129.305 169.088 129.305C183.622 137.193 205.033 153.721 219.222 153.721C222.148 153.721 224.769 153.02 226.953 151.394C240.077 141.748 232.764 109.273 226.734 87.5541C223.438 92.5193 217.151 94.7077 210.129 94.7077C205.694 94.7077 200.969 93.835 196.515 92.2416C185.654 88.3938 176.19 80.6452 166.183 78.5956C164.383 78.2188 162.728 78.0403 161.213 78.0403C143.528 78.0403 143.449 103.276 158.241 115.792L177.375 105.127L171.901 102.179C167.334 96.1754 164.998 87.9508 165.918 81.67C170.994 82.7873 176.071 85.5376 181.445 88.4401C185.773 90.7871 190.254 93.2069 195.065 94.9589L177.408 105.141L180.571 106.846L199.003 96.2151C202.736 97.2266 206.528 97.7622 210.142 97.7622C216.231 97.7622 221.387 96.2812 225.179 93.5176C225.834 96.0366 226.436 98.463 226.986 100.823L224.179 102.443C222.346 107.355 220.242 111.117 217.932 114C215.569 114.383 213.133 114.522 210.625 114.522C207.488 114.522 204.318 114.172 201.181 113.471C195.542 112.208 187.209 109.352 181.074 107.124L180.578 106.853L161.709 117.312L158.267 115.805L155.885 117.2C153.132 114.046 149.65 112.823 147.446 114.383C146.877 114.78 146.454 115.335 146.149 115.983C137.532 101.557 132.218 86.0004 132.218 72.3545C132.218 53.2474 142.536 42.6626 157.877 42.6626C165.653 42.6626 174.721 45.3865 184.383 51.0987C199.01 59.7531 212.24 73.7032 221.704 88.969C223.855 87.3426 225.794 85.26 227.297 82.503C233.856 106.37 237.84 125.484 236.331 137.702C235.073 154.462 225.119 163.724 210.784 163.724C203.034 163.724 194.006 161.014 184.377 155.321L184.37 155.301ZM229.858 141.517C224.173 140.34 217.488 137.107 210.698 133.232C210.784 133.199 210.87 133.173 210.949 133.127L230.699 121.735C231.579 130.125 231.301 136.723 229.858 141.517ZM282.772 46.4575C279.813 46.993 277.689 45.9815 277.51 45.0361C277.424 44.5799 277.755 43.9848 278.384 43.4295C279.238 42.689 280.528 42.1072 281.931 41.856C282.467 41.7568 283.01 41.7039 283.526 41.7039C284.367 41.7039 285.154 41.8295 285.81 42.0807C286.591 42.3783 287.107 42.8212 287.193 43.2774C287.365 44.2162 285.724 45.922 282.772 46.4575Z" fill="#191E1E"/>
<path d="M248.37 55.1645C254.406 54.0671 258.76 50.2456 258.105 46.6226C257.45 42.9995 252.023 40.9566 245.987 42.0475C239.951 43.145 235.596 46.9664 236.251 50.5894C236.907 54.2125 242.334 56.2554 248.37 55.1645V55.1645Z" fill="#191E1E"/>
<path d="M283.175 61.5846C280.905 60.7318 278.093 60.5466 275.253 61.0557C272.414 61.5714 269.846 62.735 268.019 64.3416C265.981 66.1333 265.068 68.2622 265.452 70.358C265.829 72.4472 267.437 74.1265 269.978 75.0918C271.408 75.6273 273.056 75.905 274.79 75.905C275.809 75.905 276.855 75.8124 277.901 75.6207C280.74 75.105 283.308 73.9414 285.135 72.3348C287.173 70.5431 288.086 68.4076 287.702 66.3184C287.325 64.2292 285.717 62.5499 283.175 61.5846V61.5846ZM283.109 70.0274C281.713 71.2505 279.615 72.1894 277.351 72.5993C275.081 73.0158 272.791 72.877 271.057 72.2224C269.588 71.6671 268.642 70.7877 268.463 69.8093C268.284 68.8308 268.86 67.6738 270.045 66.6358C271.435 65.4127 273.539 64.4804 275.803 64.0705C276.663 63.9119 277.523 63.8325 278.357 63.8325C279.727 63.8325 281.025 64.0441 282.097 64.4474C283.566 65.0027 284.512 65.8821 284.691 66.8606C284.87 67.839 284.294 68.9894 283.109 70.0274Z" fill="#191E1E"/>
<path d="M113.938 132.241C122.204 130.74 127.922 125.411 126.963 120.122C125.996 114.826 118.762 111.871 110.503 113.352C102.236 114.853 96.5181 120.181 97.4844 125.471C98.2786 129.841 103.335 132.624 109.728 132.624C111.079 132.624 112.495 132.499 113.938 132.241V132.241ZM100.496 124.922C99.8604 121.431 104.692 117.517 111.052 116.36C112.29 116.135 113.507 116.029 114.672 116.029C119.504 116.029 123.435 117.854 123.951 120.664C124.587 124.155 119.749 128.069 113.395 129.226C107.048 130.39 101.138 128.406 100.502 124.922H100.496Z" fill="#191E1E"/>
<path d="M91.369 130.799C89.6681 130.158 87.5635 130.013 85.4522 130.396C80.7399 131.256 77.497 134.409 78.0727 137.576C78.3706 139.209 79.6479 140.565 81.5937 141.298C82.6725 141.702 83.9035 141.907 85.2007 141.907C85.9552 141.907 86.7296 141.841 87.5105 141.695C89.6218 141.312 91.5411 140.439 92.9111 139.242C94.473 137.874 95.1944 136.148 94.8966 134.522C94.5988 132.889 93.3148 131.533 91.3756 130.799H91.369ZM90.8793 136.941C89.9395 137.768 88.5099 138.403 86.9546 138.68C85.4059 138.965 83.8373 138.865 82.6659 138.429C81.7526 138.085 81.1768 137.576 81.0775 137.027C80.8525 135.784 82.9041 133.973 85.9949 133.411C86.5839 133.305 87.1796 133.246 87.7488 133.246C88.6753 133.246 89.5556 133.385 90.277 133.662C91.1903 134.006 91.7661 134.515 91.8654 135.064C91.9647 135.613 91.6007 136.3 90.8726 136.941H90.8793Z" fill="#191E1E"/>
<path d="M117.631 105.101C121.211 104.453 123.799 102.185 123.409 100.037C123.018 97.888 119.801 96.6715 116.221 97.326C112.64 97.974 110.053 100.242 110.443 102.39C110.834 104.539 114.05 105.756 117.631 105.101V105.101Z" fill="#191E1E"/>
<path d="M245.206 89.3525C244.114 89.3525 243.234 90.2385 243.234 91.3227C243.234 92.407 244.121 93.2929 245.206 93.2929C246.291 93.2929 247.178 92.407 247.178 91.3227C247.178 90.2385 246.291 89.3525 245.206 89.3525Z" fill="white"/>
<path d="M258.158 89.3525C257.073 89.3525 256.186 90.2385 256.186 91.3227C256.186 92.407 257.073 93.2929 258.158 93.2929C259.244 93.2929 260.13 92.407 260.13 91.3227C260.13 90.2385 259.244 89.3525 258.158 89.3525Z" fill="#191E1E"/>
<path d="M271.117 89.3525C270.031 89.3525 269.145 90.2385 269.145 91.3227C269.145 92.407 270.031 93.2929 271.117 93.2929C272.202 93.2929 273.089 92.407 273.089 91.3227C273.089 90.2385 272.202 89.3525 271.117 89.3525Z" fill="#191E1E"/>
<path d="M284.069 89.3525C282.984 89.3525 282.097 90.2385 282.097 91.3227C282.097 92.407 282.984 93.2929 284.069 93.2929C285.154 93.2929 286.041 92.407 286.041 91.3227C286.041 90.2385 285.154 89.3525 284.069 89.3525Z" fill="#191E1E"/>
<path d="M297.028 93.2929C298.113 93.2929 299 92.407 299 91.3227C299 90.2385 298.113 89.3525 297.028 89.3525C295.942 89.3525 295.055 90.2385 295.055 91.3227C295.055 92.407 295.942 93.2929 297.028 93.2929Z" fill="#191E1E"/>
<path d="M245.206 106.238C246.291 106.238 247.178 105.352 247.178 104.268C247.178 103.183 246.291 102.297 245.206 102.297C244.121 102.297 243.234 103.183 243.234 104.268C243.234 105.352 244.121 106.238 245.206 106.238Z" fill="white"/>
<path d="M245.206 119.183C246.291 119.183 247.178 118.297 247.178 117.213C247.178 116.129 246.291 115.243 245.206 115.243C244.121 115.243 243.234 116.129 243.234 117.213C243.234 118.297 244.121 119.183 245.206 119.183Z" fill="white"/>
<path d="M245.206 132.128C246.291 132.128 247.178 131.242 247.178 130.158C247.178 129.074 246.291 128.188 245.206 128.188C244.121 128.188 243.234 129.074 243.234 130.158C243.234 131.242 244.121 132.128 245.206 132.128Z" fill="white"/>
<path d="M247.172 143.104C247.172 142.019 246.285 141.133 245.199 141.133C244.114 141.133 243.227 142.019 243.227 143.104C243.227 144.188 244.114 145.074 245.199 145.074C246.285 145.074 247.172 144.188 247.172 143.104Z" fill="white"/>
<path d="M258.158 102.297C257.073 102.297 256.186 103.183 256.186 104.268C256.186 105.352 257.073 106.238 258.158 106.238C259.244 106.238 260.13 105.352 260.13 104.268C260.13 103.183 259.244 102.297 258.158 102.297Z" fill="#191E1E"/>
<path d="M258.158 115.243C257.073 115.243 256.186 116.129 256.186 117.213C256.186 118.297 257.073 119.183 258.158 119.183C259.244 119.183 260.13 118.297 260.13 117.213C260.13 116.129 259.244 115.243 258.158 115.243Z" fill="#191E1E"/>
<path d="M258.158 128.188C257.073 128.188 256.186 129.074 256.186 130.158C256.186 131.242 257.073 132.128 258.158 132.128C259.244 132.128 260.13 131.242 260.13 130.158C260.13 129.074 259.244 128.188 258.158 128.188Z" fill="#191E1E"/>
<path d="M258.158 141.133C257.073 141.133 256.186 142.019 256.186 143.104C256.186 144.188 257.073 145.074 258.158 145.074C259.244 145.074 260.13 144.188 260.13 143.104C260.13 142.019 259.244 141.133 258.158 141.133Z" fill="#191E1E"/>
<path d="M271.117 102.297C270.031 102.297 269.145 103.183 269.145 104.268C269.145 105.352 270.031 106.238 271.117 106.238C272.202 106.238 273.089 105.352 273.089 104.268C273.089 103.183 272.202 102.297 271.117 102.297Z" fill="#191E1E"/>
<path d="M271.117 115.243C270.031 115.243 269.145 116.129 269.145 117.213C269.145 118.297 270.031 119.183 271.117 119.183C272.202 119.183 273.089 118.297 273.089 117.213C273.089 116.129 272.202 115.243 271.117 115.243Z" fill="#191E1E"/>
<path d="M271.117 128.188C270.031 128.188 269.145 129.074 269.145 130.158C269.145 131.242 270.031 132.128 271.117 132.128C272.202 132.128 273.089 131.242 273.089 130.158C273.089 129.074 272.202 128.188 271.117 128.188Z" fill="#191E1E"/>
<path d="M271.117 145.074C272.206 145.074 273.089 144.192 273.089 143.104C273.089 142.015 272.206 141.133 271.117 141.133C270.028 141.133 269.145 142.015 269.145 143.104C269.145 144.192 270.028 145.074 271.117 145.074Z" fill="#191E1E"/>
<path d="M284.069 102.297C282.984 102.297 282.097 103.183 282.097 104.268C282.097 105.352 282.984 106.238 284.069 106.238C285.154 106.238 286.041 105.352 286.041 104.268C286.041 103.183 285.154 102.297 284.069 102.297Z" fill="#191E1E"/>
<path d="M284.069 115.243C282.984 115.243 282.097 116.129 282.097 117.213C282.097 118.297 282.984 119.183 284.069 119.183C285.154 119.183 286.041 118.297 286.041 117.213C286.041 116.129 285.154 115.243 284.069 115.243Z" fill="#191E1E"/>
<path d="M284.069 128.188C282.984 128.188 282.097 129.074 282.097 130.158C282.097 131.242 282.984 132.128 284.069 132.128C285.154 132.128 286.041 131.242 286.041 130.158C286.041 129.074 285.154 128.188 284.069 128.188Z" fill="#191E1E"/>
<path d="M284.069 141.133C282.984 141.133 282.097 142.019 282.097 143.104C282.097 144.188 282.984 145.074 284.069 145.074C285.154 145.074 286.041 144.188 286.041 143.104C286.041 142.019 285.154 141.133 284.069 141.133Z" fill="#191E1E"/>
<path d="M297.028 102.297C295.942 102.297 295.055 103.183 295.055 104.268C295.055 105.352 295.942 106.238 297.028 106.238C298.113 106.238 299 105.352 299 104.268C299 103.183 298.113 102.297 297.028 102.297Z" fill="#191E1E"/>
<path d="M297.028 115.243C295.942 115.243 295.055 116.129 295.055 117.213C295.055 118.297 295.942 119.183 297.028 119.183C298.113 119.183 299 118.297 299 117.213C299 116.129 298.113 115.243 297.028 115.243Z" fill="#191E1E"/>
<path d="M297.028 128.188C295.942 128.188 295.055 129.074 295.055 130.158C295.055 131.242 295.942 132.128 297.028 132.128C298.113 132.128 299 131.242 299 130.158C299 129.074 298.113 128.188 297.028 128.188Z" fill="#191E1E"/>
<path d="M297.028 145.074C298.117 145.074 299 144.192 299 143.104C299 142.015 298.117 141.133 297.028 141.133C295.938 141.133 295.055 142.015 295.055 143.104C295.055 144.192 295.938 145.074 297.028 145.074Z" fill="#191E1E"/>
<path d="M118.987 80.5329C119.067 80.5329 119.153 80.5329 119.232 80.513C120.066 80.3742 120.635 79.594 120.503 78.761C120.503 78.728 120.013 75.6603 120.013 71.0521C120.013 54.9599 126.314 42.5172 137.744 36.0182C138.478 35.6016 138.737 34.6694 138.32 33.9356C137.896 33.2017 136.963 32.9438 136.228 33.3604C123.792 40.428 116.949 53.8095 116.949 71.0521C116.949 75.9247 117.459 79.1114 117.478 79.2436C117.598 79.9973 118.253 80.5263 118.987 80.5263V80.5329Z" fill="#191E1E"/>
<path d="M106.366 72.5859C107.213 72.5859 107.902 71.9049 107.902 71.0587C107.902 65.591 108.133 59.8523 109.808 54.9334C110.079 54.1334 109.649 53.2607 108.848 52.9962C108.034 52.7252 107.174 53.1549 106.902 53.9549C105.089 59.2969 104.837 65.3332 104.837 71.0653C104.837 71.9115 105.526 72.5925 106.373 72.5925L106.366 72.5859Z" fill="#191E1E"/>
<path d="M236.324 137.669C237.827 125.451 233.849 106.337 227.29 82.4698C225.788 85.2334 223.849 87.3094 221.698 88.9358C212.233 73.67 199.003 59.7199 184.377 51.0656C174.714 45.3467 165.647 42.6294 157.87 42.6294C142.536 42.6294 132.211 53.2143 132.211 72.3213C132.211 85.9739 137.525 101.531 146.143 115.95C146.447 115.302 146.871 114.747 147.44 114.35C149.65 112.79 153.125 114.013 155.878 117.167L158.261 115.772L161.702 117.279L180.571 106.82H180.565L177.401 105.107L177.374 105.094L158.241 115.758C143.449 103.243 143.528 78.0071 161.212 78.0071C162.728 78.0071 164.383 78.1856 166.183 78.5625C176.183 80.612 185.647 88.3606 196.515 92.2085C200.969 93.8018 205.694 94.6745 210.129 94.6745C217.151 94.6745 223.438 92.4861 226.734 87.521C232.757 109.239 240.07 141.721 226.953 151.361C224.769 152.987 222.148 153.688 219.222 153.688C205.033 153.688 183.622 137.16 169.088 129.272C169.088 129.272 165.971 127.639 162.847 126.224C162.847 126.224 164.032 126.39 165.534 126.74C177.904 129.761 183.708 132.333 191.24 132.922C192.497 133.021 193.775 133.074 195.059 133.074C198.335 133.074 201.545 132.737 204.549 131.989C205.297 131.804 206.039 131.586 206.76 131.348C206.912 131.295 207.064 131.236 207.223 131.183C208.031 130.899 208.818 130.581 209.586 130.224C210.228 129.927 210.85 129.603 211.452 129.252C212.3 128.763 213.107 128.228 213.875 127.632C214.371 127.249 214.848 126.846 215.311 126.423C215.344 126.396 215.377 126.363 215.41 126.337C217.217 124.638 218.746 122.568 219.917 120.095C220.122 119.672 220.314 119.229 220.493 118.78C220.52 118.707 220.553 118.648 220.579 118.575C220.85 117.874 221.095 117.14 221.314 116.38C221.466 115.851 221.612 115.315 221.731 114.753C221.936 113.848 222.101 112.902 222.227 111.911C218.058 121.603 207.303 126.105 195.767 126.105C192.418 126.105 189.003 125.728 185.661 124.981C185.283 124.895 184.893 124.803 184.502 124.71C184.238 124.644 183.966 124.578 183.688 124.505C183.675 124.505 183.662 124.499 183.649 124.492C176.441 122.661 166.845 119.236 161.729 117.266L157.625 119.672C159.426 123.084 159.287 126.601 157.136 128.109C156.5 128.558 155.759 128.77 154.965 128.776C163.317 139.44 173.45 148.809 184.37 155.268C193.993 160.961 203.027 163.671 210.777 163.671C225.113 163.671 235.067 154.409 236.324 137.649V137.669Z" fill="white"/>
<path d="M149.697 116.737C149.491 116.737 149.326 116.776 149.2 116.862C148.922 117.061 148.803 117.444 148.757 117.735C148.611 118.614 148.869 119.785 149.432 120.962L153.171 118.767C151.841 117.411 150.491 116.743 149.69 116.743L149.697 116.737Z" fill="white"/>
<path d="M155.388 125.629C156.017 125.193 156.063 123.355 154.991 121.252L151.179 123.487C152.92 125.378 154.773 126.052 155.388 125.629Z" fill="white"/>
</g>
<defs>
<clipPath id="clip0_557_209867">
<rect width="221" height="150" fill="white" transform="translate(78 31)"/>
</clipPath>
</defs>
</svg>
