<svg width="887" height="431" viewBox="0 0 887 431" fill="none" xmlns="http://www.w3.org/2000/svg">
<g clip-path="url(#clip0_701_2)">
<rect width="887" height="431" fill="white"/>
<circle cx="449" cy="198" r="254" fill="#F4F4F5"/>
<path d="M424.241 322V313.756H425.177L428.237 319.504L431.297 313.756H432.233V322H431.297V315.772L428.237 321.52L425.177 315.772V322H424.241ZM434.711 314.668C434.375 314.668 434.111 314.392 434.111 314.068C434.111 313.756 434.375 313.48 434.711 313.48C435.035 313.48 435.299 313.756 435.299 314.068C435.299 314.392 435.035 314.668 434.711 314.668ZM434.255 322V315.796H435.155V322H434.255ZM441.811 313.612H442.711V322H441.811V320.836C441.343 321.652 440.551 322.144 439.555 322.144C437.923 322.144 436.699 320.8 436.699 318.892C436.699 316.996 437.923 315.652 439.555 315.652C440.551 315.652 441.343 316.144 441.811 316.96V313.612ZM439.723 321.34C440.947 321.34 441.811 320.32 441.811 318.892C441.811 317.464 440.947 316.456 439.723 316.456C438.511 316.456 437.647 317.464 437.647 318.892C437.647 320.32 438.511 321.34 439.723 321.34ZM449.463 313.612H450.363V322H449.463V320.836C448.995 321.652 448.203 322.144 447.207 322.144C445.575 322.144 444.351 320.8 444.351 318.892C444.351 316.996 445.575 315.652 447.207 315.652C448.203 315.652 448.995 316.144 449.463 316.96V313.612ZM447.375 321.34C448.599 321.34 449.463 320.32 449.463 318.892C449.463 317.464 448.599 316.456 447.375 316.456C446.163 316.456 445.299 317.464 445.299 318.892C445.299 320.32 446.163 321.34 447.375 321.34ZM452.267 322V313.612H453.167V322H452.267ZM457.782 321.34C458.514 321.34 459.354 321.016 459.738 320.596L460.29 321.184C459.75 321.772 458.658 322.144 457.794 322.144C456.138 322.144 454.65 320.788 454.65 318.88C454.65 317.032 456.042 315.652 457.71 315.652C459.582 315.652 460.65 317.068 460.65 319.24H455.574C455.706 320.452 456.558 321.34 457.782 321.34ZM457.746 316.456C456.642 316.456 455.754 317.236 455.586 318.436H459.762C459.642 317.32 458.982 316.456 457.746 316.456ZM463.402 322L461.326 315.796H462.286L463.834 320.8L465.526 315.796H466.306L467.998 320.8L469.546 315.796H470.506L468.418 322H467.566L465.922 317.044L464.254 322H463.402ZM474.334 315.652C476.026 315.652 476.854 316.72 476.854 318.22V322H475.954V321.028C475.51 321.76 474.586 322.144 473.77 322.144C472.462 322.144 471.502 321.388 471.502 320.164C471.502 318.928 472.606 318.1 473.938 318.1C474.61 318.1 475.318 318.244 475.954 318.448V318.22C475.954 317.38 475.618 316.42 474.274 316.42C473.65 316.42 473.026 316.696 472.462 316.984L472.102 316.252C472.99 315.808 473.734 315.652 474.334 315.652ZM473.926 321.352C474.742 321.352 475.714 320.932 475.954 320.056V319.108C475.39 318.952 474.754 318.856 474.082 318.856C473.158 318.856 472.378 319.384 472.378 320.128C472.378 320.896 473.05 321.352 473.926 321.352ZM479.677 317.008C480.049 316.18 480.937 315.652 482.077 315.652V316.456C480.673 316.456 479.677 317.32 479.677 318.532V322H478.777V315.796H479.677V317.008ZM486.118 321.34C486.85 321.34 487.69 321.016 488.074 320.596L488.626 321.184C488.086 321.772 486.994 322.144 486.13 322.144C484.474 322.144 482.986 320.788 482.986 318.88C482.986 317.032 484.378 315.652 486.046 315.652C487.918 315.652 488.986 317.068 488.986 319.24H483.91C484.042 320.452 484.894 321.34 486.118 321.34ZM486.082 316.456C484.978 316.456 484.09 317.236 483.922 318.436H488.098C487.978 317.32 487.318 316.456 486.082 316.456Z" fill="#191E1E"/>
<circle cx="182.963" cy="337.963" r="2.96296" fill="#4C7C2C"/>
<circle cx="197.778" cy="337.963" r="2.96296" fill="#4C7C2C"/>
<circle cx="212.593" cy="337.963" r="2.96296" fill="#4C7C2C"/>
<circle cx="227.408" cy="337.963" r="2.96296" fill="#4C7C2C"/>
<circle cx="242.222" cy="337.963" r="2.96296" fill="#4C7C2C"/>
<circle cx="182.963" cy="352.778" r="2.96296" fill="#4C7C2C"/>
<circle cx="197.778" cy="352.778" r="2.96296" fill="#4C7C2C"/>
<circle cx="212.593" cy="352.778" r="2.96296" fill="#4C7C2C"/>
<circle cx="227.408" cy="352.778" r="2.96296" fill="#4C7C2C"/>
<circle cx="242.222" cy="352.778" r="2.96296" fill="#4C7C2C"/>
<circle cx="182.963" cy="367.593" r="2.96296" fill="#4C7C2C"/>
<circle cx="197.778" cy="367.593" r="2.96296" fill="#4C7C2C"/>
<circle cx="212.593" cy="367.593" r="2.96296" fill="#4C7C2C"/>
<circle cx="227.408" cy="367.593" r="2.96296" fill="#4C7C2C"/>
<circle cx="242.222" cy="367.593" r="2.96296" fill="#4C7C2C"/>
<circle cx="182.963" cy="382.407" r="2.96296" fill="#4C7C2C"/>
<circle cx="197.778" cy="382.407" r="2.96296" fill="#4C7C2C"/>
<circle cx="212.593" cy="382.407" r="2.96296" fill="#4C7C2C"/>
<circle cx="227.408" cy="382.407" r="2.96296" fill="#4C7C2C"/>
<circle cx="242.222" cy="382.407" r="2.96296" fill="#4C7C2C"/>
<circle cx="182.963" cy="397.222" r="2.96296" fill="#4C7C2C"/>
<circle cx="257.037" cy="397.222" r="2.96296" transform="rotate(-90 257.037 397.222)" fill="#4C7C2C"/>
<circle cx="197.778" cy="397.222" r="2.96296" fill="#4C7C2C"/>
<circle cx="257.037" cy="382.408" r="2.96296" transform="rotate(-90 257.037 382.408)" fill="#4C7C2C"/>
<circle cx="212.593" cy="397.222" r="2.96296" fill="#4C7C2C"/>
<circle cx="257.037" cy="367.593" r="2.96296" transform="rotate(-90 257.037 367.593)" fill="#4C7C2C"/>
<circle cx="227.408" cy="397.222" r="2.96296" fill="#4C7C2C"/>
<circle cx="257.037" cy="352.778" r="2.96296" transform="rotate(-90 257.037 352.778)" fill="#4C7C2C"/>
<circle cx="242.222" cy="397.222" r="2.96296" fill="#4C7C2C"/>
<circle cx="257.037" cy="337.963" r="2.96296" transform="rotate(-90 257.037 337.963)" fill="#4C7C2C"/>
<rect x="281" y="36" width="350" height="206" stroke="#4C7C2C" stroke-width="3" stroke-linecap="round" stroke-linejoin="round" stroke-dasharray="0.4 10"/>
<rect x="281" y="265" width="350" height="95" stroke="#4C7C2C" stroke-width="3" stroke-linecap="round" stroke-linejoin="round" stroke-dasharray="0.4 10"/>
<rect x="312" y="106" width="288" height="73" fill="white" stroke="#191E1E" stroke-width="2"/>
<rect x="312.156" y="225.657" width="287.977" height="52.223" fill="white" stroke="#191E1E" stroke-width="2"/>
<path d="M391.425 74.4665C390.069 74.4665 389.001 73.9745 388.173 73.1585L388.761 72.4265C389.457 73.1225 390.309 73.6145 391.461 73.6145C392.733 73.6145 393.381 72.9185 393.381 72.1745C393.381 71.2985 392.601 70.9505 391.161 70.6145C389.505 70.2305 388.461 69.7145 388.461 68.2865C388.461 66.9665 389.637 65.9345 391.221 65.9345C392.445 65.9345 393.357 66.4145 394.113 67.1105L393.537 67.8425C392.853 67.1825 392.037 66.7865 391.173 66.7865C390.153 66.7865 389.409 67.4585 389.409 68.2145C389.409 69.0665 390.225 69.3665 391.629 69.7025C393.201 70.0745 394.329 70.6385 394.329 72.0905C394.329 73.3985 393.345 74.4665 391.425 74.4665ZM399.133 67.9865C400.765 67.9865 401.989 69.3305 401.989 71.2265C401.989 73.1345 400.765 74.4785 399.133 74.4785C398.137 74.4785 397.345 73.9865 396.877 73.1705V76.3985H395.977V68.1305H396.877V69.2945C397.345 68.4785 398.137 67.9865 399.133 67.9865ZM398.965 73.6745C400.177 73.6745 401.041 72.6545 401.041 71.2265C401.041 69.7985 400.177 68.7905 398.965 68.7905C397.741 68.7905 396.877 69.7985 396.877 71.2265C396.877 72.6545 397.741 73.6745 398.965 73.6745ZM404.529 69.3425C404.901 68.5145 405.789 67.9865 406.929 67.9865V68.7905C405.525 68.7905 404.529 69.6545 404.529 70.8665V74.3345H403.629V68.1305H404.529V69.3425ZM408.618 67.0025C408.282 67.0025 408.018 66.7265 408.018 66.4025C408.018 66.0905 408.282 65.8145 408.618 65.8145C408.942 65.8145 409.206 66.0905 409.206 66.4025C409.206 66.7265 408.942 67.0025 408.618 67.0025ZM408.162 74.3345V68.1305H409.062V74.3345H408.162ZM413.821 67.9865C415.189 67.9865 416.149 68.9825 416.149 70.3865V74.3345H415.249V70.5065C415.249 69.4985 414.613 68.7905 413.701 68.7905C412.657 68.7905 411.781 69.5225 411.781 70.3865V74.3345H410.881V68.1305H411.781V69.1265C412.141 68.4665 412.945 67.9865 413.821 67.9865ZM422.795 68.1305H423.695V73.6745C423.695 75.2705 422.435 76.3985 420.647 76.3985C419.639 76.3985 418.703 76.0505 418.139 75.5705L418.535 74.8625C419.015 75.3185 419.759 75.5945 420.527 75.5945C421.955 75.5945 422.795 74.8865 422.795 73.6745V72.6665C422.315 73.4225 421.523 73.8785 420.539 73.8785C418.871 73.8785 417.683 72.6545 417.683 70.9265C417.683 69.1985 418.871 67.9865 420.539 67.9865C421.523 67.9865 422.315 68.4425 422.795 69.1985V68.1305ZM420.707 73.0745C421.931 73.0745 422.795 72.1865 422.795 70.9265C422.795 69.6785 421.931 68.7905 420.707 68.7905C419.495 68.7905 418.631 69.6785 418.631 70.9265C418.631 72.1865 419.495 73.0745 420.707 73.0745ZM429.296 74.3345V66.0905H433.076C434.408 66.0905 435.344 66.9425 435.344 68.1425C435.344 69.0185 434.912 69.5225 434.168 69.9545C435.116 70.4345 435.668 71.1785 435.668 72.0785C435.668 73.3985 434.648 74.3345 433.22 74.3345H429.296ZM430.232 69.5825H432.836C433.748 69.5825 434.396 69.0305 434.396 68.2625C434.396 67.4945 433.748 66.9425 432.836 66.9425H430.232V69.5825ZM430.232 73.4825H432.98C434 73.4825 434.72 72.8465 434.72 71.9585C434.72 71.0705 434 70.4345 432.98 70.4345H430.232V73.4825ZM440.14 74.4785C438.4 74.4785 436.924 72.9905 436.924 71.2265C436.924 69.4625 438.4 67.9865 440.14 67.9865C441.88 67.9865 443.344 69.4625 443.344 71.2265C443.344 72.9905 441.88 74.4785 440.14 74.4785ZM440.14 73.6745C441.364 73.6745 442.396 72.5585 442.396 71.2265C442.396 69.9065 441.364 68.7905 440.14 68.7905C438.904 68.7905 437.872 69.9065 437.872 71.2265C437.872 72.5585 438.904 73.6745 440.14 73.6745ZM447.71 74.4785C445.97 74.4785 444.494 72.9905 444.494 71.2265C444.494 69.4625 445.97 67.9865 447.71 67.9865C449.45 67.9865 450.914 69.4625 450.914 71.2265C450.914 72.9905 449.45 74.4785 447.71 74.4785ZM447.71 73.6745C448.934 73.6745 449.966 72.5585 449.966 71.2265C449.966 69.9065 448.934 68.7905 447.71 68.7905C446.474 68.7905 445.442 69.9065 445.442 71.2265C445.442 72.5585 446.474 73.6745 447.71 73.6745ZM455.124 73.4225L455.568 74.0825C455.244 74.3345 454.836 74.4785 454.416 74.4785C453.528 74.4785 452.904 73.8185 452.904 72.8945V68.9345H451.932V68.1305H452.904V66.4265H453.804V68.1305H455.328V68.9345H453.804V72.8945C453.804 73.3505 454.116 73.6745 454.476 73.6745C454.752 73.6745 454.992 73.5665 455.124 73.4225ZM467.066 74.3345L466.238 72.4625H461.642L460.814 74.3345H459.794L463.43 66.0905H464.45L468.086 74.3345H467.066ZM462.026 71.5745H465.854L463.946 67.2425L462.026 71.5745ZM472.621 67.9865C474.253 67.9865 475.477 69.3305 475.477 71.2265C475.477 73.1345 474.253 74.4785 472.621 74.4785C471.625 74.4785 470.833 73.9865 470.365 73.1705V76.3985H469.465V68.1305H470.365V69.2945C470.833 68.4785 471.625 67.9865 472.621 67.9865ZM472.453 73.6745C473.665 73.6745 474.529 72.6545 474.529 71.2265C474.529 69.7985 473.665 68.7905 472.453 68.7905C471.229 68.7905 470.365 69.7985 470.365 71.2265C470.365 72.6545 471.229 73.6745 472.453 73.6745ZM480.273 67.9865C481.905 67.9865 483.129 69.3305 483.129 71.2265C483.129 73.1345 481.905 74.4785 480.273 74.4785C479.277 74.4785 478.485 73.9865 478.017 73.1705V76.3985H477.117V68.1305H478.017V69.2945C478.485 68.4785 479.277 67.9865 480.273 67.9865ZM480.105 73.6745C481.317 73.6745 482.181 72.6545 482.181 71.2265C482.181 69.7985 481.317 68.7905 480.105 68.7905C478.881 68.7905 478.017 69.7985 478.017 71.2265C478.017 72.6545 478.881 73.6745 480.105 73.6745ZM484.685 74.3345V65.9465H485.585V74.3345H484.685ZM487.848 67.0025C487.512 67.0025 487.248 66.7265 487.248 66.4025C487.248 66.0905 487.512 65.8145 487.848 65.8145C488.172 65.8145 488.436 66.0905 488.436 66.4025C488.436 66.7265 488.172 67.0025 487.848 67.0025ZM487.392 74.3345V68.1305H488.292V74.3345H487.392ZM492.98 74.4785C491.24 74.4785 489.764 72.9905 489.764 71.2265C489.764 69.4625 491.24 67.9865 492.98 67.9865C493.82 67.9865 494.6 68.3345 495.188 68.8985L494.564 69.5105C494.156 69.0665 493.592 68.7905 492.98 68.7905C491.744 68.7905 490.712 69.9065 490.712 71.2265C490.712 72.5585 491.744 73.6745 492.98 73.6745C493.604 73.6745 494.18 73.3865 494.6 72.9185L495.224 73.5305C494.636 74.1185 493.844 74.4785 492.98 74.4785ZM499.123 67.9865C500.815 67.9865 501.643 69.0545 501.643 70.5545V74.3345H500.743V73.3625C500.299 74.0945 499.375 74.4785 498.559 74.4785C497.251 74.4785 496.291 73.7225 496.291 72.4985C496.291 71.2625 497.395 70.4345 498.727 70.4345C499.399 70.4345 500.107 70.5785 500.743 70.7825V70.5545C500.743 69.7145 500.407 68.7545 499.063 68.7545C498.439 68.7545 497.815 69.0305 497.251 69.3185L496.891 68.5865C497.779 68.1425 498.523 67.9865 499.123 67.9865ZM498.715 73.6865C499.531 73.6865 500.503 73.2665 500.743 72.3905V71.4425C500.179 71.2865 499.543 71.1905 498.871 71.1905C497.947 71.1905 497.167 71.7185 497.167 72.4625C497.167 73.2305 497.839 73.6865 498.715 73.6865ZM506.206 73.4225L506.65 74.0825C506.326 74.3345 505.918 74.4785 505.498 74.4785C504.61 74.4785 503.986 73.8185 503.986 72.8945V68.9345H503.014V68.1305H503.986V66.4265H504.886V68.1305H506.41V68.9345H504.886V72.8945C504.886 73.3505 505.198 73.6745 505.558 73.6745C505.834 73.6745 506.074 73.5665 506.206 73.4225ZM508.368 67.0025C508.032 67.0025 507.768 66.7265 507.768 66.4025C507.768 66.0905 508.032 65.8145 508.368 65.8145C508.692 65.8145 508.956 66.0905 508.956 66.4025C508.956 66.7265 508.692 67.0025 508.368 67.0025ZM507.912 74.3345V68.1305H508.812V74.3345H507.912ZM513.499 74.4785C511.759 74.4785 510.283 72.9905 510.283 71.2265C510.283 69.4625 511.759 67.9865 513.499 67.9865C515.239 67.9865 516.703 69.4625 516.703 71.2265C516.703 72.9905 515.239 74.4785 513.499 74.4785ZM513.499 73.6745C514.723 73.6745 515.755 72.5585 515.755 71.2265C515.755 69.9065 514.723 68.7905 513.499 68.7905C512.263 68.7905 511.231 69.9065 511.231 71.2265C511.231 72.5585 512.263 73.6745 513.499 73.6745ZM521.141 67.9865C522.509 67.9865 523.469 68.9825 523.469 70.3865V74.3345H522.569V70.5065C522.569 69.4985 521.933 68.7905 521.021 68.7905C519.977 68.7905 519.101 69.5225 519.101 70.3865V74.3345H518.201V68.1305H519.101V69.1265C519.461 68.4665 520.265 67.9865 521.141 67.9865Z" fill="#191E1E"/>
<path d="M301.241 206V197.756H302.729V206H301.241ZM307.788 199.652C309.144 199.652 310.092 200.648 310.092 202.052V206H308.676V202.34C308.676 201.5 308.136 200.9 307.368 200.9C306.6 200.9 305.964 201.416 305.868 202.076V206H304.404V199.796H305.868V200.624C306.252 200.048 306.972 199.652 307.788 199.652ZM315.341 199.652C316.985 199.652 318.185 200.996 318.185 202.892C318.185 204.8 316.985 206.144 315.341 206.144C314.417 206.144 313.673 205.724 313.181 205.016V208.064H311.717V199.796H313.181V200.78C313.673 200.072 314.417 199.652 315.341 199.652ZM314.945 204.896C315.989 204.896 316.733 204.056 316.733 202.892C316.733 201.728 315.989 200.9 314.945 200.9C313.913 200.9 313.193 201.728 313.193 202.892C313.193 204.056 313.913 204.896 314.945 204.896ZM323.709 199.796H325.173V206H323.709V205.172C323.325 205.748 322.605 206.144 321.789 206.144C320.433 206.144 319.485 205.148 319.485 203.744V199.796H320.901V203.456C320.901 204.296 321.441 204.896 322.209 204.896C322.977 204.896 323.613 204.38 323.709 203.72V199.796ZM329.882 204.668L330.302 205.652C329.954 205.952 329.45 206.144 328.982 206.144C327.95 206.144 327.23 205.4 327.23 204.356V201.008H326.33V199.796H327.23V198.092H328.658V199.796H330.062V201.008H328.658V204.176C328.658 204.596 328.922 204.896 329.27 204.896C329.522 204.896 329.75 204.8 329.882 204.668ZM333.731 206.144C332.783 206.144 331.763 205.808 331.019 205.208L331.679 204.188C332.279 204.62 332.975 204.908 333.755 204.908C334.343 204.908 334.751 204.656 334.751 204.272C334.751 203.792 334.211 203.636 333.503 203.444C332.159 203.096 331.307 202.712 331.295 201.608C331.295 200.444 332.255 199.652 333.635 199.652C334.487 199.652 335.339 199.952 336.011 200.396L335.399 201.464C334.811 201.092 334.175 200.9 333.635 200.9C333.119 200.9 332.723 201.104 332.723 201.452C332.723 201.848 333.047 201.968 333.995 202.244C335.039 202.532 336.167 202.892 336.167 204.188C336.167 205.376 335.183 206.144 333.731 206.144Z" fill="#191E1E"/>
<path d="M564.671 206.144C562.319 206.144 560.339 204.188 560.339 201.872C560.339 199.556 562.319 197.612 564.671 197.612C567.011 197.612 568.991 199.556 568.991 201.872C568.991 204.188 567.011 206.144 564.671 206.144ZM564.671 204.776C566.183 204.776 567.455 203.456 567.455 201.872C567.455 200.3 566.183 198.98 564.671 198.98C563.147 198.98 561.863 200.3 561.863 201.872C561.863 203.456 563.147 204.776 564.671 204.776ZM574.518 199.796H575.982V206H574.518V205.172C574.134 205.748 573.414 206.144 572.598 206.144C571.242 206.144 570.294 205.148 570.294 203.744V199.796H571.71V203.456C571.71 204.296 572.25 204.896 573.018 204.896C573.786 204.896 574.422 204.38 574.518 203.72V199.796ZM580.691 204.668L581.111 205.652C580.763 205.952 580.259 206.144 579.791 206.144C578.759 206.144 578.039 205.4 578.039 204.356V201.008H577.139V199.796H578.039V198.092H579.467V199.796H580.871V201.008H579.467V204.176C579.467 204.596 579.731 204.896 580.079 204.896C580.331 204.896 580.559 204.8 580.691 204.668ZM585.907 199.652C587.551 199.652 588.751 200.996 588.751 202.892C588.751 204.8 587.551 206.144 585.907 206.144C584.983 206.144 584.239 205.724 583.747 205.016V208.064H582.283V199.796H583.747V200.78C584.239 200.072 584.983 199.652 585.907 199.652ZM585.511 204.896C586.555 204.896 587.299 204.056 587.299 202.892C587.299 201.728 586.555 200.9 585.511 200.9C584.479 200.9 583.759 201.728 583.759 202.892C583.759 204.056 584.479 204.896 585.511 204.896ZM594.275 199.796H595.739V206H594.275V205.172C593.891 205.748 593.171 206.144 592.355 206.144C590.999 206.144 590.051 205.148 590.051 203.744V199.796H591.467V203.456C591.467 204.296 592.007 204.896 592.775 204.896C593.543 204.896 594.179 204.38 594.275 203.72V199.796ZM600.449 204.668L600.869 205.652C600.521 205.952 600.017 206.144 599.549 206.144C598.517 206.144 597.797 205.4 597.797 204.356V201.008H596.897V199.796H597.797V198.092H599.225V199.796H600.629V201.008H599.225V204.176C599.225 204.596 599.489 204.896 599.837 204.896C600.089 204.896 600.317 204.8 600.449 204.668ZM604.297 206.144C603.349 206.144 602.329 205.808 601.585 205.208L602.245 204.188C602.845 204.62 603.541 204.908 604.321 204.908C604.909 204.908 605.317 204.656 605.317 204.272C605.317 203.792 604.777 203.636 604.069 203.444C602.725 203.096 601.873 202.712 601.861 201.608C601.861 200.444 602.821 199.652 604.201 199.652C605.053 199.652 605.905 199.952 606.577 200.396L605.965 201.464C605.377 201.092 604.741 200.9 604.201 200.9C603.685 200.9 603.289 201.104 603.289 201.452C603.289 201.848 603.613 201.968 604.561 202.244C605.605 202.532 606.733 202.892 606.733 204.188C606.733 205.376 605.749 206.144 604.297 206.144Z" fill="#191E1E"/>
<path d="M414.05 135.774L413.426 134.286H409.442L408.818 135.774H407.15L410.594 127.53H412.262L415.706 135.774H414.05ZM409.982 132.99H412.886L411.434 129.522L409.982 132.99ZM420.409 129.426C422.053 129.426 423.253 130.77 423.253 132.666C423.253 134.574 422.053 135.918 420.409 135.918C419.485 135.918 418.741 135.498 418.249 134.79V137.838H416.785V129.57H418.249V130.554C418.741 129.846 419.485 129.426 420.409 129.426ZM420.013 134.67C421.057 134.67 421.801 133.83 421.801 132.666C421.801 131.502 421.057 130.674 420.013 130.674C418.981 130.674 418.261 131.502 418.261 132.666C418.261 133.83 418.981 134.67 420.013 134.67ZM428.237 129.426C429.881 129.426 431.081 130.77 431.081 132.666C431.081 134.574 429.881 135.918 428.237 135.918C427.313 135.918 426.569 135.498 426.077 134.79V137.838H424.613V129.57H426.077V130.554C426.569 129.846 427.313 129.426 428.237 129.426ZM427.841 134.67C428.885 134.67 429.629 133.83 429.629 132.666C429.629 131.502 428.885 130.674 427.841 130.674C426.809 130.674 426.089 131.502 426.089 132.666C426.089 133.83 426.809 134.67 427.841 134.67ZM432.406 135.774V127.386H433.87V135.774H432.406ZM436.232 128.634C435.764 128.634 435.392 128.238 435.392 127.794C435.392 127.35 435.764 126.966 436.232 126.966C436.688 126.966 437.06 127.35 437.06 127.794C437.06 128.238 436.688 128.634 436.232 128.634ZM435.488 135.774V129.57H436.952V135.774H435.488ZM441.558 135.918C439.77 135.918 438.246 134.43 438.246 132.666C438.246 130.902 439.77 129.426 441.582 129.426C442.518 129.426 443.346 129.822 443.934 130.434L442.95 131.298C442.614 130.926 442.098 130.674 441.57 130.674C440.55 130.674 439.698 131.586 439.698 132.666C439.698 133.758 440.55 134.67 441.57 134.67C442.11 134.67 442.638 134.418 442.986 134.022L443.97 134.874C443.37 135.51 442.542 135.918 441.558 135.918ZM447.82 129.426C449.464 129.426 450.484 130.47 450.484 132.042V135.774H449.056V135.03C448.6 135.606 447.82 135.918 447.1 135.918C445.78 135.918 444.784 135.138 444.784 133.938C444.784 132.714 445.924 131.874 447.316 131.874C447.88 131.874 448.492 131.994 449.056 132.21V132.042C449.056 131.322 448.66 130.626 447.532 130.626C446.944 130.626 446.38 130.83 445.852 131.094L445.348 130.074C446.224 129.642 447.04 129.426 447.82 129.426ZM447.424 134.85C448.132 134.85 448.888 134.49 449.056 133.83V133.134C448.6 132.978 448.084 132.894 447.532 132.894C446.8 132.894 446.212 133.302 446.212 133.89C446.212 134.478 446.728 134.85 447.424 134.85ZM455.166 134.442L455.586 135.426C455.238 135.726 454.734 135.918 454.266 135.918C453.234 135.918 452.514 135.174 452.514 134.13V130.782H451.614V129.57H452.514V127.866H453.942V129.57H455.346V130.782H453.942V133.95C453.942 134.37 454.206 134.67 454.554 134.67C454.806 134.67 455.034 134.574 455.166 134.442ZM457.466 128.634C456.998 128.634 456.626 128.238 456.626 127.794C456.626 127.35 456.998 126.966 457.466 126.966C457.922 126.966 458.294 127.35 458.294 127.794C458.294 128.238 457.922 128.634 457.466 128.634ZM456.722 135.774V129.57H458.186V135.774H456.722ZM462.804 135.918C461.004 135.918 459.48 134.43 459.48 132.666C459.48 130.902 461.004 129.426 462.804 129.426C464.604 129.426 466.128 130.902 466.128 132.666C466.128 134.43 464.604 135.918 462.804 135.918ZM462.804 134.67C463.824 134.67 464.688 133.758 464.688 132.666C464.688 131.586 463.824 130.674 462.804 130.674C461.772 130.674 460.908 131.586 460.908 132.666C460.908 133.758 461.772 134.67 462.804 134.67ZM470.782 129.426C472.138 129.426 473.086 130.422 473.086 131.826V135.774H471.67V132.114C471.67 131.274 471.13 130.674 470.362 130.674C469.594 130.674 468.958 131.19 468.862 131.85V135.774H467.398V129.57H468.862V130.398C469.246 129.822 469.966 129.426 470.782 129.426ZM482.142 135.918C479.79 135.918 477.81 133.962 477.81 131.646C477.81 129.33 479.79 127.386 482.142 127.386C483.354 127.386 484.458 127.902 485.25 128.718L484.182 129.714C483.678 129.126 482.934 128.754 482.142 128.754C480.618 128.754 479.334 130.074 479.334 131.646C479.334 133.23 480.618 134.55 482.142 134.55C482.946 134.55 483.678 134.178 484.194 133.59L485.25 134.574C484.458 135.402 483.354 135.918 482.142 135.918ZM489.359 135.918C487.559 135.918 486.035 134.43 486.035 132.666C486.035 130.902 487.559 129.426 489.359 129.426C491.159 129.426 492.683 130.902 492.683 132.666C492.683 134.43 491.159 135.918 489.359 135.918ZM489.359 134.67C490.379 134.67 491.243 133.758 491.243 132.666C491.243 131.586 490.379 130.674 489.359 130.674C488.327 130.674 487.463 131.586 487.463 132.666C487.463 133.758 488.327 134.67 489.359 134.67ZM495.452 130.77C495.848 129.942 496.652 129.426 497.672 129.426V130.674C496.34 130.674 495.452 131.466 495.452 132.642V135.774H493.988V129.57H495.452V130.77ZM501.649 134.622C502.225 134.622 502.909 134.358 503.257 133.998L504.181 134.958C503.641 135.534 502.561 135.918 501.661 135.918C499.885 135.918 498.421 134.562 498.421 132.654C498.421 130.794 499.813 129.426 501.577 129.426C503.497 129.426 504.613 130.878 504.613 133.17H499.933C500.113 134.022 500.761 134.622 501.649 134.622ZM501.637 130.722C500.821 130.722 500.161 131.238 499.945 132.054H503.209C503.041 131.274 502.513 130.722 501.637 130.722Z" fill="#191E1E"/>
<path d="M437.88 254.824V246.58H441.924C443.352 246.58 444.36 247.444 444.36 248.644C444.36 249.484 443.928 250.072 443.196 250.468C444.144 250.924 444.708 251.68 444.708 252.58C444.708 253.9 443.616 254.824 442.08 254.824H437.88ZM439.368 249.952H441.564C442.296 249.952 442.824 249.52 442.824 248.92C442.824 248.308 442.296 247.876 441.564 247.876H439.368V249.952ZM439.368 253.528H441.78C442.596 253.528 443.172 253.036 443.172 252.352C443.172 251.668 442.596 251.176 441.78 251.176H439.368V253.528ZM446.8 247.684C446.332 247.684 445.96 247.288 445.96 246.844C445.96 246.4 446.332 246.016 446.8 246.016C447.256 246.016 447.628 246.4 447.628 246.844C447.628 247.288 447.256 247.684 446.8 247.684ZM446.056 254.824V248.62H447.52V254.824H446.056ZM452.522 248.476C453.878 248.476 454.826 249.472 454.826 250.876V254.824H453.41V251.164C453.41 250.324 452.87 249.724 452.102 249.724C451.334 249.724 450.698 250.24 450.602 250.9V254.824H449.138V248.62H450.602V249.448C450.986 248.872 451.706 248.476 452.522 248.476ZM461.131 246.436H462.595V254.824H461.131V253.864C460.639 254.56 459.895 254.968 458.983 254.968C457.339 254.968 456.139 253.624 456.139 251.716C456.139 249.82 457.339 248.476 458.983 248.476C459.895 248.476 460.639 248.884 461.131 249.58V246.436ZM459.379 253.72C460.411 253.72 461.131 252.88 461.131 251.716C461.131 250.552 460.411 249.724 459.379 249.724C458.335 249.724 457.591 250.552 457.591 251.716C457.591 252.88 458.335 253.72 459.379 253.72ZM467.135 253.672C467.711 253.672 468.395 253.408 468.743 253.048L469.667 254.008C469.127 254.584 468.047 254.968 467.147 254.968C465.371 254.968 463.907 253.612 463.907 251.704C463.907 249.844 465.299 248.476 467.063 248.476C468.983 248.476 470.099 249.928 470.099 252.22H465.419C465.599 253.072 466.247 253.672 467.135 253.672ZM467.123 249.772C466.307 249.772 465.647 250.288 465.431 251.104H468.695C468.527 250.324 467.999 249.772 467.123 249.772ZM472.868 249.82C473.264 248.992 474.068 248.476 475.088 248.476V249.724C473.756 249.724 472.868 250.516 472.868 251.692V254.824H471.404V248.62H472.868V249.82Z" fill="#191E1E"/>
<g filter="url(#filter0_d_701_2)">
<path d="M367 237.359C366.5 243 357.5 243 357.5 243C357.5 243 348.5 243 348 237.359C348 235.291 348 169.621 348 168.116C349.572 164.022 353.807 163 357.5 163C361.193 163 365.428 164.022 367 168.116C367 171.102 367.183 235.299 367 237.359Z" fill="#18181B"/>
<path d="M365.506 237.227C365.342 239.075 363.805 240.195 361.625 240.86C360.59 241.176 359.551 241.338 358.76 241.42C358.367 241.46 358.043 241.481 357.821 241.49C357.71 241.495 357.625 241.498 357.57 241.499C357.542 241.5 357.523 241.5 357.511 241.5L357.502 241.5H357.501H357.501H357.501H357.499H357.499H357.499H357.498L357.489 241.5C357.477 241.5 357.458 241.5 357.43 241.499C357.375 241.498 357.29 241.495 357.179 241.49C356.957 241.481 356.633 241.46 356.24 241.42C355.449 241.338 354.41 241.176 353.375 240.86C351.219 240.203 349.692 239.1 349.5 237.287L349.5 202.527L349.5 168.41C350.787 165.443 354.025 164.5 357.5 164.5C360.976 164.5 364.213 165.443 365.5 168.411C365.501 169.195 365.506 171.088 365.512 173.769C365.527 180.375 365.553 191.761 365.568 203.087C365.58 211.427 365.586 219.736 365.577 226.089C365.573 229.265 365.565 231.951 365.552 233.905C365.546 234.883 365.539 235.675 365.53 236.252C365.526 236.542 365.521 236.774 365.517 236.946C365.514 237.033 365.512 237.101 365.51 237.153C365.507 237.209 365.506 237.229 365.506 237.227Z" stroke="#18181B" stroke-width="3"/>
</g>
<g filter="url(#filter1_d_701_2)">
<path d="M528 167.641C527.5 162 518.5 162 518.5 162C518.5 162 509.5 162 509 167.641C509 169.709 509 235.379 509 236.884C510.572 240.978 514.807 242 518.5 242C522.193 242 526.428 240.978 528 236.884C528 233.898 528.183 169.701 528 167.641Z" fill="#18181B"/>
<path d="M526.506 167.773C526.342 165.925 524.805 164.805 522.625 164.14C521.59 163.824 520.551 163.662 519.76 163.58C519.367 163.54 519.043 163.519 518.821 163.51C518.71 163.505 518.625 163.502 518.57 163.501C518.542 163.5 518.523 163.5 518.511 163.5L518.502 163.5H518.501H518.501H518.501H518.499H518.499H518.499H518.498L518.489 163.5C518.477 163.5 518.458 163.5 518.43 163.501C518.375 163.502 518.29 163.505 518.179 163.51C517.957 163.519 517.633 163.54 517.24 163.58C516.449 163.662 515.41 163.824 514.375 164.14C512.219 164.797 510.692 165.9 510.5 167.713L510.5 202.473L510.5 236.59C511.787 239.557 515.025 240.5 518.5 240.5C521.976 240.5 525.213 239.557 526.5 236.589C526.501 235.805 526.506 233.912 526.512 231.231C526.527 224.625 526.553 213.239 526.568 201.913C526.58 193.573 526.586 185.264 526.577 178.911C526.573 175.735 526.565 173.049 526.552 171.095C526.546 170.117 526.539 169.325 526.53 168.748C526.526 168.458 526.521 168.226 526.517 168.054C526.514 167.967 526.512 167.899 526.51 167.847C526.507 167.791 526.506 167.771 526.506 167.773Z" stroke="#18181B" stroke-width="3"/>
</g>
<g filter="url(#filter2_d_701_2)">
<path d="M394 237.359C393.5 243 384.5 243 384.5 243C384.5 243 375.5 243 375 237.359C375 235.291 375 169.621 375 168.116C376.572 164.022 380.807 163 384.5 163C388.193 163 392.428 164.022 394 168.116C394 171.102 394.183 235.299 394 237.359Z" fill="#18181B"/>
<path d="M392.506 237.227C392.342 239.075 390.805 240.195 388.625 240.86C387.59 241.176 386.551 241.338 385.76 241.42C385.367 241.46 385.043 241.481 384.821 241.49C384.71 241.495 384.625 241.498 384.57 241.499C384.542 241.5 384.523 241.5 384.511 241.5L384.502 241.5H384.501H384.501H384.501H384.499H384.499H384.499H384.498L384.489 241.5C384.477 241.5 384.458 241.5 384.43 241.499C384.375 241.498 384.29 241.495 384.179 241.49C383.957 241.481 383.633 241.46 383.24 241.42C382.449 241.338 381.41 241.176 380.375 240.86C378.219 240.203 376.692 239.1 376.5 237.287L376.5 202.527L376.5 168.41C377.787 165.443 381.025 164.5 384.5 164.5C387.976 164.5 391.213 165.443 392.5 168.411C392.501 169.195 392.506 171.088 392.512 173.769C392.527 180.375 392.553 191.761 392.568 203.087C392.58 211.427 392.586 219.736 392.577 226.089C392.573 229.265 392.565 231.951 392.552 233.905C392.546 234.883 392.539 235.675 392.53 236.252C392.526 236.542 392.521 236.774 392.517 236.946C392.514 237.033 392.512 237.101 392.51 237.153C392.507 237.209 392.506 237.229 392.506 237.227Z" stroke="#18181B" stroke-width="3"/>
</g>
<g filter="url(#filter3_d_701_2)">
<path d="M555 167.641C554.5 162 545.5 162 545.5 162C545.5 162 536.5 162 536 167.641C536 169.709 536 235.379 536 236.884C537.572 240.978 541.807 242 545.5 242C549.193 242 553.428 240.978 555 236.884C555 233.898 555.183 169.701 555 167.641Z" fill="#18181B"/>
<path d="M553.506 167.773C553.342 165.925 551.805 164.805 549.625 164.14C548.59 163.824 547.551 163.662 546.76 163.58C546.367 163.54 546.043 163.519 545.821 163.51C545.71 163.505 545.625 163.502 545.57 163.501C545.542 163.5 545.523 163.5 545.511 163.5L545.502 163.5H545.501H545.501H545.501H545.499H545.499H545.499H545.498L545.489 163.5C545.477 163.5 545.458 163.5 545.43 163.501C545.375 163.502 545.29 163.505 545.179 163.51C544.957 163.519 544.633 163.54 544.24 163.58C543.449 163.662 542.41 163.824 541.375 164.14C539.219 164.797 537.692 165.9 537.5 167.713L537.5 202.473L537.5 236.59C538.787 239.557 542.025 240.5 545.5 240.5C548.976 240.5 552.213 239.557 553.5 236.589C553.501 235.805 553.506 233.912 553.512 231.231C553.527 224.625 553.553 213.239 553.568 201.913C553.58 193.573 553.586 185.264 553.577 178.911C553.573 175.735 553.565 173.049 553.552 171.095C553.546 170.117 553.539 169.325 553.53 168.748C553.526 168.458 553.521 168.226 553.517 168.054C553.514 167.967 553.512 167.899 553.51 167.847C553.507 167.791 553.506 167.771 553.506 167.773Z" stroke="#18181B" stroke-width="3"/>
</g>
<path d="M365.5 167.5C365.5 168.258 364.957 169.228 363.466 170.091C362.013 170.932 359.907 171.5 357.5 171.5C355.093 171.5 352.987 170.932 351.534 170.091C350.043 169.228 349.5 168.258 349.5 167.5C349.5 166.742 350.043 165.772 351.534 164.909C352.987 164.068 355.093 163.5 357.5 163.5C359.907 163.5 362.013 164.068 363.466 164.909C364.957 165.772 365.5 166.742 365.5 167.5Z" fill="white" stroke="#18181B" stroke-width="3"/>
<path d="M526.5 237.5C526.5 236.742 525.957 235.772 524.466 234.909C523.013 234.068 520.907 233.5 518.5 233.5C516.093 233.5 513.987 234.068 512.534 234.909C511.043 235.772 510.5 236.742 510.5 237.5C510.5 238.258 511.043 239.228 512.534 240.091C513.987 240.932 516.093 241.5 518.5 241.5C520.907 241.5 523.013 240.932 524.466 240.091C525.957 239.228 526.5 238.258 526.5 237.5Z" fill="white" stroke="#18181B" stroke-width="3"/>
<path d="M392.5 167.5C392.5 168.258 391.957 169.228 390.466 170.091C389.013 170.932 386.907 171.5 384.5 171.5C382.093 171.5 379.987 170.932 378.534 170.091C377.043 169.228 376.5 168.258 376.5 167.5C376.5 166.742 377.043 165.772 378.534 164.909C379.987 164.068 382.093 163.5 384.5 163.5C386.907 163.5 389.013 164.068 390.466 164.909C391.957 165.772 392.5 166.742 392.5 167.5Z" fill="white" stroke="#18181B" stroke-width="3"/>
<path d="M553.5 237.5C553.5 236.742 552.957 235.772 551.466 234.909C550.013 234.068 547.907 233.5 545.5 233.5C543.093 233.5 540.987 234.068 539.534 234.909C538.043 235.772 537.5 236.742 537.5 237.5C537.5 238.258 538.043 239.228 539.534 240.091C540.987 240.932 543.093 241.5 545.5 241.5C547.907 241.5 550.013 240.932 551.466 240.091C552.957 239.228 553.5 238.258 553.5 237.5Z" fill="white" stroke="#18181B" stroke-width="3"/>
</g>
<defs>
<filter id="filter0_d_701_2" x="344" y="163" width="27.0811" height="88" filterUnits="userSpaceOnUse" color-interpolation-filters="sRGB">
<feFlood flood-opacity="0" result="BackgroundImageFix"/>
<feColorMatrix in="SourceAlpha" type="matrix" values="0 0 0 0 0 0 0 0 0 0 0 0 0 0 0 0 0 0 127 0" result="hardAlpha"/>
<feOffset dy="4"/>
<feGaussianBlur stdDeviation="2"/>
<feComposite in2="hardAlpha" operator="out"/>
<feColorMatrix type="matrix" values="0 0 0 0 0 0 0 0 0 0 0 0 0 0 0 0 0 0 0.25 0"/>
<feBlend mode="normal" in2="BackgroundImageFix" result="effect1_dropShadow_701_2"/>
<feBlend mode="normal" in="SourceGraphic" in2="effect1_dropShadow_701_2" result="shape"/>
</filter>
<filter id="filter1_d_701_2" x="505" y="162" width="27.0811" height="88" filterUnits="userSpaceOnUse" color-interpolation-filters="sRGB">
<feFlood flood-opacity="0" result="BackgroundImageFix"/>
<feColorMatrix in="SourceAlpha" type="matrix" values="0 0 0 0 0 0 0 0 0 0 0 0 0 0 0 0 0 0 127 0" result="hardAlpha"/>
<feOffset dy="4"/>
<feGaussianBlur stdDeviation="2"/>
<feComposite in2="hardAlpha" operator="out"/>
<feColorMatrix type="matrix" values="0 0 0 0 0 0 0 0 0 0 0 0 0 0 0 0 0 0 0.25 0"/>
<feBlend mode="normal" in2="BackgroundImageFix" result="effect1_dropShadow_701_2"/>
<feBlend mode="normal" in="SourceGraphic" in2="effect1_dropShadow_701_2" result="shape"/>
</filter>
<filter id="filter2_d_701_2" x="371" y="163" width="27.0811" height="88" filterUnits="userSpaceOnUse" color-interpolation-filters="sRGB">
<feFlood flood-opacity="0" result="BackgroundImageFix"/>
<feColorMatrix in="SourceAlpha" type="matrix" values="0 0 0 0 0 0 0 0 0 0 0 0 0 0 0 0 0 0 127 0" result="hardAlpha"/>
<feOffset dy="4"/>
<feGaussianBlur stdDeviation="2"/>
<feComposite in2="hardAlpha" operator="out"/>
<feColorMatrix type="matrix" values="0 0 0 0 0 0 0 0 0 0 0 0 0 0 0 0 0 0 0.25 0"/>
<feBlend mode="normal" in2="BackgroundImageFix" result="effect1_dropShadow_701_2"/>
<feBlend mode="normal" in="SourceGraphic" in2="effect1_dropShadow_701_2" result="shape"/>
</filter>
<filter id="filter3_d_701_2" x="532" y="162" width="27.0811" height="88" filterUnits="userSpaceOnUse" color-interpolation-filters="sRGB">
<feFlood flood-opacity="0" result="BackgroundImageFix"/>
<feColorMatrix in="SourceAlpha" type="matrix" values="0 0 0 0 0 0 0 0 0 0 0 0 0 0 0 0 0 0 127 0" result="hardAlpha"/>
<feOffset dy="4"/>
<feGaussianBlur stdDeviation="2"/>
<feComposite in2="hardAlpha" operator="out"/>
<feColorMatrix type="matrix" values="0 0 0 0 0 0 0 0 0 0 0 0 0 0 0 0 0 0 0.25 0"/>
<feBlend mode="normal" in2="BackgroundImageFix" result="effect1_dropShadow_701_2"/>
<feBlend mode="normal" in="SourceGraphic" in2="effect1_dropShadow_701_2" result="shape"/>
</filter>
<clipPath id="clip0_701_2">
<rect width="887" height="431" fill="white"/>
</clipPath>
</defs>
</svg>
