<svg width="887" height="431" viewBox="0 0 887 431" fill="none" xmlns="http://www.w3.org/2000/svg">
<g clip-path="url(#clip0_517_357655)">
<rect width="887" height="431" fill="white"/>
<circle cx="446" cy="216" r="254" fill="#F4F4F5"/>
<path d="M509.5 255.564C509.5 255.996 509.3 256.567 508.602 257.286C507.899 258.011 506.787 258.783 505.222 259.564C502.098 261.123 497.481 262.57 491.652 263.8C480.019 266.256 463.877 267.787 446 267.787C428.123 267.787 411.981 266.256 400.348 263.8C394.519 262.57 389.902 261.123 386.778 259.564C385.214 258.783 384.101 258.011 383.398 257.286C382.7 256.567 382.5 255.996 382.5 255.564L382.5 217.751L382.5 181.425C387.815 179.509 397.068 178.235 408.165 177.448C419.862 176.619 433.383 176.342 446 176.342C458.617 176.342 472.138 176.619 483.835 177.448C494.932 178.235 504.185 179.509 509.5 181.425V181.443V181.502V181.562V181.623V181.686V181.75V181.815V181.881V181.949V182.018V182.089V182.161V182.234V182.308V182.384V182.461V182.539V182.619V182.699V182.781V182.865V182.949V183.035V183.122V183.21V183.299V183.39V183.482V183.575V183.669V183.764V183.861V183.958V184.057V184.157V184.258V184.361V184.464V184.569V184.675V184.782V184.89V184.999V185.109V185.22V185.333V185.446V185.561V185.676V185.793V185.911V186.03V186.15V186.271V186.393V186.516V186.64V186.765V186.891V187.018V187.146V187.276V187.406V187.537V187.669V187.802V187.936V188.071V188.207V188.344V188.482V188.621V188.76V188.901V189.043V189.185V189.329V189.473V189.618V189.764V189.911V190.059V190.208V190.358V190.508V190.659V190.812V190.965V191.119V191.273V191.429V191.585V191.742V191.9V192.059V192.219V192.379V192.54V192.702V192.865V193.028V193.193V193.358V193.523V193.69V193.857V194.025V194.194V194.363V194.533V194.704V194.876V195.048V195.221V195.394V195.568V195.743V195.919V196.095V196.272V196.45V196.628V196.807V196.986V197.166V197.347V197.528V197.71V197.893V198.076V198.26V198.444V198.629V198.814V199V199.187V199.374V199.561V199.749V199.938V200.127V200.317V200.507V200.698V200.889V201.081V201.274V201.466V201.66V201.853V202.047V202.242V202.437V202.633V202.829V203.025V203.222V203.419V203.617V203.815V204.014V204.213V204.412V204.612V204.812V205.012V205.213V205.414V205.616V205.818V206.02V206.223V206.425V206.629V206.832V207.036V207.24V207.445V207.65V207.855V208.06V208.266V208.472V208.678V208.885V209.092V209.299V209.506V209.713V209.921V210.129V210.337V210.546V210.754V210.963V211.172V211.381V211.591V211.8V212.01V212.22V212.43V212.64V212.851V213.061V213.272V213.483V213.694V213.905V214.116V214.327V214.538V214.75V214.961V215.173V215.385V215.597V215.808V216.02V216.232V216.444V216.656V216.869V217.081V217.293V217.505V217.717V217.929V218.142V218.354V218.566V218.778V218.99V219.202V219.414V219.626V219.838V220.05V220.262V220.474V220.686V220.897V221.109V221.32V221.532V221.743V221.954V222.165V222.376V222.587V222.798V223.008V223.219V223.429V223.639V223.849V224.059V224.269V224.478V224.687V224.896V225.105V225.314V225.522V225.73V225.938V226.146V226.354V226.561V226.768V226.975V227.182V227.388V227.594V227.8V228.005V228.21V228.415V228.62V228.824V229.028V229.232V229.435V229.638V229.841V230.043V230.245V230.447V230.648V230.849V231.049V231.25V231.449V231.649V231.848V232.046V232.244V232.442V232.64V232.837V233.033V233.229V233.425V233.62V233.815V234.009V234.203V234.396V234.589V234.781V234.973V235.165V235.355V235.546V235.736V235.925V236.114V236.302V236.49V236.677V236.864V237.05V237.235V237.42V237.605V237.788V237.972V238.154V238.336V238.518V238.698V238.879V239.058V239.237V239.416V239.593V239.77V239.947V240.122V240.297V240.472V240.645V240.818V240.991V241.162V241.333V241.504V241.673V241.842V242.01V242.177V242.344V242.51V242.675V242.839V243.003V243.166V243.328V243.489V243.65V243.81V243.969V244.127V244.284V244.441V244.596V244.751V244.905V245.058V245.211V245.362V245.513V245.663V245.812V245.96V246.107V246.253V246.398V246.543V246.687V246.829V246.971V247.112V247.252V247.391V247.529V247.666V247.802V247.937V248.072V248.205V248.337V248.468V248.599V248.728V248.856V248.984V249.11V249.235V249.36V249.483V249.605V249.726V249.846V249.965V250.084V250.2V250.316V250.431V250.545V250.657V250.769V250.879V250.989V251.097V251.204V251.31V251.415V251.519V251.621V251.723V251.823V251.922V252.02V252.117V252.212V252.307V252.4V252.492V252.583V252.672V252.761V252.848V252.934V253.018V253.102V253.184V253.265V253.345V253.423V253.501V253.576V253.651V253.724V253.796V253.867V253.937V254.005V254.072V254.137V254.201V254.264V254.326V254.386V254.445V254.502V254.558V254.613V254.666V254.718V254.769V254.818V254.866V254.912V254.957V255.001V255.043V255.083V255.123V255.16V255.197V255.232V255.265V255.297V255.328V255.357V255.384V255.41V255.435V255.458V255.479V255.499V255.518V255.535V255.55V255.564Z" fill="#18181B" stroke="#18181B" stroke-width="3"/>
<path d="M509.5 181.723C509.5 182.154 509.3 182.725 508.602 183.444C507.899 184.17 506.786 184.941 505.222 185.722C502.098 187.281 497.481 188.728 491.652 189.959C480.019 192.415 463.877 193.946 446 193.946C428.123 193.946 411.981 192.415 400.348 189.959C394.519 188.728 389.902 187.281 386.778 185.722C385.213 184.941 384.101 184.17 383.398 183.444C382.7 182.725 382.5 182.154 382.5 181.723C382.5 181.291 382.7 180.721 383.398 180.001C384.101 179.276 385.213 178.504 386.778 177.723C389.902 176.164 394.519 174.718 400.348 173.487C411.981 171.031 428.123 169.5 446 169.5C463.877 169.5 480.019 171.031 491.652 173.487C497.481 174.718 502.098 176.164 505.222 177.723C506.786 178.504 507.899 179.276 508.602 180.001C509.3 180.721 509.5 181.291 509.5 181.723Z" fill="white" stroke="#18181B" stroke-width="3"/>
<path d="M411.713 233V223.382H413.127L416.501 229.668L419.875 223.382H421.289V233H419.875V226.154L416.501 232.44L413.127 226.154V233H411.713ZM426.839 231.936C427.595 231.936 428.477 231.6 428.911 231.152L429.779 232.048C429.135 232.734 427.875 233.168 426.853 233.168C424.837 233.168 423.129 231.586 423.129 229.36C423.129 227.19 424.739 225.594 426.741 225.594C428.953 225.594 430.227 227.274 430.227 229.864H424.529C424.711 231.068 425.593 231.936 426.839 231.936ZM426.797 226.826C425.677 226.826 424.767 227.582 424.543 228.758H428.883C428.729 227.638 428.043 226.826 426.797 226.826ZM434.451 233.168C433.387 233.168 432.225 232.79 431.357 232.09L432.015 231.096C432.785 231.656 433.611 231.978 434.465 231.978C435.277 231.978 435.837 231.6 435.837 231.04C435.837 230.368 435.095 230.158 434.199 229.906C432.533 229.444 431.707 228.968 431.707 227.792C431.693 226.462 432.799 225.594 434.339 225.594C435.277 225.594 436.229 225.916 437.013 226.434L436.397 227.456C435.697 227.022 434.969 226.784 434.339 226.784C433.625 226.784 433.065 227.092 433.065 227.638C433.065 228.198 433.513 228.366 434.731 228.744C435.921 229.094 437.195 229.486 437.195 230.928C437.195 232.3 436.033 233.168 434.451 233.168ZM441.424 233.168C440.36 233.168 439.198 232.79 438.33 232.09L438.988 231.096C439.758 231.656 440.584 231.978 441.438 231.978C442.25 231.978 442.81 231.6 442.81 231.04C442.81 230.368 442.068 230.158 441.172 229.906C439.506 229.444 438.68 228.968 438.68 227.792C438.666 226.462 439.772 225.594 441.312 225.594C442.25 225.594 443.202 225.916 443.986 226.434L443.37 227.456C442.67 227.022 441.942 226.784 441.312 226.784C440.598 226.784 440.038 227.092 440.038 227.638C440.038 228.198 440.486 228.366 441.704 228.744C442.894 229.094 444.168 229.486 444.168 230.928C444.168 232.3 443.006 233.168 441.424 233.168ZM448.817 225.594C450.763 225.594 451.841 226.826 451.841 228.618V233H450.483V232.006C449.951 232.762 448.957 233.168 448.075 233.168C446.535 233.168 445.401 232.272 445.401 230.858C445.401 229.416 446.703 228.45 448.299 228.45C449.013 228.45 449.783 228.604 450.483 228.842V228.618C450.483 227.708 450.063 226.742 448.621 226.742C447.907 226.742 447.207 227.022 446.577 227.344L446.073 226.322C447.109 225.804 448.019 225.594 448.817 225.594ZM448.341 232.076C449.237 232.076 450.245 231.628 450.483 230.732V229.766C449.895 229.584 449.223 229.486 448.509 229.486C447.543 229.486 446.731 230.032 446.731 230.816C446.731 231.6 447.431 232.076 448.341 232.076ZM459.347 225.762H460.733V232.23C460.733 234.092 459.207 235.408 457.065 235.408C455.847 235.408 454.727 235.002 454.041 234.442L454.587 233.406C455.119 233.91 455.987 234.204 456.855 234.204C458.409 234.204 459.347 233.462 459.347 232.202V231.152C458.773 231.978 457.877 232.468 456.785 232.468C454.881 232.468 453.495 231.04 453.495 229.024C453.495 227.008 454.881 225.594 456.785 225.594C457.877 225.594 458.801 226.112 459.347 226.924V225.762ZM457.135 231.264C458.423 231.264 459.347 230.34 459.347 229.024C459.347 227.722 458.423 226.798 457.135 226.798C455.847 226.798 454.937 227.722 454.937 229.024C454.937 230.34 455.847 231.264 457.135 231.264ZM463.486 224.558C463.01 224.558 462.646 224.166 462.646 223.718C462.646 223.284 463.01 222.892 463.486 222.892C463.934 222.892 464.312 223.284 464.312 223.718C464.312 224.166 463.934 224.558 463.486 224.558ZM462.786 233V225.762H464.172V233H462.786ZM469.859 225.594C471.455 225.594 472.575 226.756 472.575 228.394V233H471.217V228.632C471.217 227.554 470.531 226.798 469.551 226.798C468.543 226.798 467.675 227.456 467.563 228.31V233H466.177V225.762H467.563V226.812C467.997 226.098 468.879 225.594 469.859 225.594ZM480.06 225.762H481.446V232.23C481.446 234.092 479.92 235.408 477.778 235.408C476.56 235.408 475.44 235.002 474.754 234.442L475.3 233.406C475.832 233.91 476.7 234.204 477.568 234.204C479.122 234.204 480.06 233.462 480.06 232.202V231.152C479.486 231.978 478.59 232.468 477.498 232.468C475.594 232.468 474.208 231.04 474.208 229.024C474.208 227.008 475.594 225.594 477.498 225.594C478.59 225.594 479.514 226.112 480.06 226.924V225.762ZM477.848 231.264C479.136 231.264 480.06 230.34 480.06 229.024C480.06 227.722 479.136 226.798 477.848 226.798C476.56 226.798 475.65 227.722 475.65 229.024C475.65 230.34 476.56 231.264 477.848 231.264ZM425.071 247V237.382H429.635C431.245 237.382 432.379 238.376 432.379 239.776C432.379 240.784 431.875 241.414 431.007 241.904C432.127 242.45 432.771 243.318 432.771 244.382C432.771 245.922 431.539 247 429.817 247H425.071ZM426.485 241.386H429.285C430.251 241.386 430.937 240.812 430.937 240.014C430.937 239.216 430.251 238.628 429.285 238.628H426.485V241.386ZM426.485 245.754H429.495C430.573 245.754 431.329 245.096 431.329 244.172C431.329 243.248 430.573 242.59 429.495 242.59H426.485V245.754ZM435.955 241.148C436.417 240.196 437.397 239.594 438.643 239.594V240.798C437.145 240.798 436.081 241.624 435.955 242.884V247H434.569V239.762H435.955V241.148ZM443.207 247.168C441.135 247.168 439.385 245.432 439.385 243.374C439.385 241.316 441.135 239.594 443.207 239.594C445.265 239.594 447.001 241.316 447.001 243.374C447.001 245.432 445.265 247.168 443.207 247.168ZM443.207 245.964C444.509 245.964 445.615 244.788 445.615 243.374C445.615 241.974 444.509 240.798 443.207 240.798C441.877 240.798 440.771 241.974 440.771 243.374C440.771 244.788 441.877 245.964 443.207 245.964ZM455.202 239.762L452.08 243.038L455.062 247H453.41L451.142 243.962L449.98 245.138V247H448.608V237.214H449.98V243.458L453.522 239.762H455.202ZM459.665 245.936C460.421 245.936 461.303 245.6 461.737 245.152L462.605 246.048C461.961 246.734 460.701 247.168 459.679 247.168C457.663 247.168 455.955 245.586 455.955 243.36C455.955 241.19 457.565 239.594 459.567 239.594C461.779 239.594 463.053 241.274 463.053 243.864H457.355C457.537 245.068 458.419 245.936 459.665 245.936ZM459.623 240.826C458.503 240.826 457.593 241.582 457.369 242.758H461.709C461.555 241.638 460.869 240.826 459.623 240.826ZM466.115 241.148C466.577 240.196 467.557 239.594 468.803 239.594V240.798C467.305 240.798 466.241 241.624 466.115 242.884V247H464.729V239.762H466.115V241.148Z" fill="white"/>
<path d="M519 217.5C518.172 217.5 517.5 218.172 517.5 219C517.5 219.828 518.172 220.5 519 220.5V217.5ZM660.061 220.061C660.646 219.475 660.646 218.525 660.061 217.939L650.515 208.393C649.929 207.808 648.979 207.808 648.393 208.393C647.808 208.979 647.808 209.929 648.393 210.515L656.879 219L648.393 227.485C647.808 228.071 647.808 229.021 648.393 229.607C648.979 230.192 649.929 230.192 650.515 229.607L660.061 220.061ZM519 220.5H659V217.5H519V220.5Z" fill="#18181B"/>
<path d="M232 217.5C231.172 217.5 230.5 218.172 230.5 219C230.5 219.828 231.172 220.5 232 220.5V217.5ZM374.061 220.061C374.646 219.475 374.646 218.525 374.061 217.939L364.515 208.393C363.929 207.808 362.979 207.808 362.393 208.393C361.808 208.979 361.808 209.929 362.393 210.515L370.879 219L362.393 227.485C361.808 228.071 361.808 229.021 362.393 229.607C362.979 230.192 363.929 230.192 364.515 229.607L374.061 220.061ZM232 220.5L373 220.5V217.5L232 217.5V220.5Z" fill="#18181B"/>
<circle cx="182.963" cy="356.963" r="2.96296" fill="#4C7C2C"/>
<circle cx="197.778" cy="356.963" r="2.96296" fill="#4C7C2C"/>
<circle cx="212.593" cy="356.963" r="2.96296" fill="#4C7C2C"/>
<circle cx="227.407" cy="356.963" r="2.96296" fill="#4C7C2C"/>
<circle cx="242.222" cy="356.963" r="2.96296" fill="#4C7C2C"/>
<circle cx="182.963" cy="371.778" r="2.96296" fill="#4C7C2C"/>
<circle cx="197.778" cy="371.778" r="2.96296" fill="#4C7C2C"/>
<circle cx="212.593" cy="371.778" r="2.96296" fill="#4C7C2C"/>
<circle cx="227.407" cy="371.778" r="2.96296" fill="#4C7C2C"/>
<circle cx="242.222" cy="371.778" r="2.96296" fill="#4C7C2C"/>
<circle cx="182.963" cy="386.593" r="2.96296" fill="#4C7C2C"/>
<circle cx="197.778" cy="386.593" r="2.96296" fill="#4C7C2C"/>
<circle cx="212.593" cy="386.593" r="2.96296" fill="#4C7C2C"/>
<circle cx="227.407" cy="386.593" r="2.96296" fill="#4C7C2C"/>
<circle cx="242.222" cy="386.593" r="2.96296" fill="#4C7C2C"/>
<circle cx="182.963" cy="401.408" r="2.96296" fill="#4C7C2C"/>
<circle cx="197.778" cy="401.408" r="2.96296" fill="#4C7C2C"/>
<circle cx="212.593" cy="401.408" r="2.96296" fill="#4C7C2C"/>
<circle cx="227.407" cy="401.408" r="2.96296" fill="#4C7C2C"/>
<circle cx="242.222" cy="401.408" r="2.96296" fill="#4C7C2C"/>
<circle cx="182.963" cy="416.222" r="2.96296" fill="#4C7C2C"/>
<circle cx="257.037" cy="416.222" r="2.96296" transform="rotate(-90 257.037 416.222)" fill="#4C7C2C"/>
<circle cx="197.778" cy="416.222" r="2.96296" fill="#4C7C2C"/>
<circle cx="257.037" cy="401.407" r="2.96296" transform="rotate(-90 257.037 401.407)" fill="#4C7C2C"/>
<circle cx="212.593" cy="416.222" r="2.96296" fill="#4C7C2C"/>
<circle cx="257.037" cy="386.592" r="2.96296" transform="rotate(-90 257.037 386.592)" fill="#4C7C2C"/>
<circle cx="227.407" cy="416.222" r="2.96296" fill="#4C7C2C"/>
<circle cx="257.037" cy="371.778" r="2.96296" transform="rotate(-90 257.037 371.778)" fill="#4C7C2C"/>
<circle cx="242.222" cy="416.222" r="2.96296" fill="#4C7C2C"/>
<circle cx="257.037" cy="356.963" r="2.96296" transform="rotate(-90 257.037 356.963)" fill="#4C7C2C"/>
<rect x="30" y="152" width="194" height="134" stroke="#98AFAE" stroke-width="3" stroke-linecap="round" stroke-linejoin="round" stroke-dasharray="0.4 10"/>
<rect x="47.7148" y="199.347" width="158.73" height="29.5055" fill="white" stroke="#191E1E" stroke-width="2"/>
<rect x="47.7148" y="238.794" width="158.73" height="29.5055" fill="white" stroke="#191E1E" stroke-width="2"/>
<path d="M62.4251 182.014C61.0691 182.014 60.0011 181.522 59.1731 180.706L59.7611 179.974C60.4571 180.67 61.3091 181.162 62.4611 181.162C63.7331 181.162 64.3811 180.466 64.3811 179.722C64.3811 178.846 63.6011 178.498 62.1611 178.162C60.5051 177.778 59.4611 177.262 59.4611 175.834C59.4611 174.514 60.6371 173.482 62.2211 173.482C63.4451 173.482 64.3571 173.962 65.1131 174.658L64.5371 175.39C63.8531 174.73 63.0371 174.334 62.1731 174.334C61.1531 174.334 60.4091 175.006 60.4091 175.762C60.4091 176.614 61.2251 176.914 62.6291 177.25C64.2011 177.622 65.3291 178.186 65.3291 179.638C65.3291 180.946 64.3451 182.014 62.4251 182.014ZM70.1325 175.534C71.7645 175.534 72.9885 176.878 72.9885 178.774C72.9885 180.682 71.7645 182.026 70.1325 182.026C69.1365 182.026 68.3445 181.534 67.8765 180.718V183.946H66.9765V175.678H67.8765V176.842C68.3445 176.026 69.1365 175.534 70.1325 175.534ZM69.9645 181.222C71.1765 181.222 72.0405 180.202 72.0405 178.774C72.0405 177.346 71.1765 176.338 69.9645 176.338C68.7405 176.338 67.8765 177.346 67.8765 178.774C67.8765 180.202 68.7405 181.222 69.9645 181.222ZM75.5288 176.89C75.9008 176.062 76.7888 175.534 77.9288 175.534V176.338C76.5248 176.338 75.5288 177.202 75.5288 178.414V181.882H74.6288V175.678H75.5288V176.89ZM79.6177 174.55C79.2817 174.55 79.0177 174.274 79.0177 173.95C79.0177 173.638 79.2817 173.362 79.6177 173.362C79.9417 173.362 80.2057 173.638 80.2057 173.95C80.2057 174.274 79.9417 174.55 79.6177 174.55ZM79.1617 181.882V175.678H80.0617V181.882H79.1617ZM84.821 175.534C86.189 175.534 87.149 176.53 87.149 177.934V181.882H86.249V178.054C86.249 177.046 85.613 176.338 84.701 176.338C83.657 176.338 82.781 177.07 82.781 177.934V181.882H81.881V175.678H82.781V176.674C83.141 176.014 83.945 175.534 84.821 175.534ZM93.7946 175.678H94.6946V181.222C94.6946 182.818 93.4346 183.946 91.6466 183.946C90.6386 183.946 89.7026 183.598 89.1386 183.118L89.5346 182.41C90.0146 182.866 90.7586 183.142 91.5266 183.142C92.9546 183.142 93.7946 182.434 93.7946 181.222V180.214C93.3146 180.97 92.5226 181.426 91.5386 181.426C89.8706 181.426 88.6826 180.202 88.6826 178.474C88.6826 176.746 89.8706 175.534 91.5386 175.534C92.5226 175.534 93.3146 175.99 93.7946 176.746V175.678ZM91.7066 180.622C92.9306 180.622 93.7946 179.734 93.7946 178.474C93.7946 177.226 92.9306 176.338 91.7066 176.338C90.4946 176.338 89.6306 177.226 89.6306 178.474C89.6306 179.734 90.4946 180.622 91.7066 180.622ZM100.296 181.882V173.638H104.076C105.408 173.638 106.344 174.49 106.344 175.69C106.344 176.566 105.912 177.07 105.168 177.502C106.116 177.982 106.668 178.726 106.668 179.626C106.668 180.946 105.648 181.882 104.22 181.882H100.296ZM101.232 177.13H103.836C104.748 177.13 105.396 176.578 105.396 175.81C105.396 175.042 104.748 174.49 103.836 174.49H101.232V177.13ZM101.232 181.03H103.98C105 181.03 105.72 180.394 105.72 179.506C105.72 178.618 105 177.982 103.98 177.982H101.232V181.03ZM111.14 182.026C109.4 182.026 107.924 180.538 107.924 178.774C107.924 177.01 109.4 175.534 111.14 175.534C112.88 175.534 114.344 177.01 114.344 178.774C114.344 180.538 112.88 182.026 111.14 182.026ZM111.14 181.222C112.364 181.222 113.396 180.106 113.396 178.774C113.396 177.454 112.364 176.338 111.14 176.338C109.904 176.338 108.872 177.454 108.872 178.774C108.872 180.106 109.904 181.222 111.14 181.222ZM118.71 182.026C116.97 182.026 115.494 180.538 115.494 178.774C115.494 177.01 116.97 175.534 118.71 175.534C120.45 175.534 121.914 177.01 121.914 178.774C121.914 180.538 120.45 182.026 118.71 182.026ZM118.71 181.222C119.934 181.222 120.966 180.106 120.966 178.774C120.966 177.454 119.934 176.338 118.71 176.338C117.474 176.338 116.442 177.454 116.442 178.774C116.442 180.106 117.474 181.222 118.71 181.222ZM126.124 180.97L126.568 181.63C126.244 181.882 125.836 182.026 125.416 182.026C124.528 182.026 123.904 181.366 123.904 180.442V176.482H122.932V175.678H123.904V173.974H124.804V175.678H126.328V176.482H124.804V180.442C124.804 180.898 125.116 181.222 125.476 181.222C125.752 181.222 125.992 181.114 126.124 180.97ZM138.066 181.882L137.238 180.01H132.642L131.814 181.882H130.794L134.43 173.638H135.45L139.086 181.882H138.066ZM133.026 179.122H136.854L134.946 174.79L133.026 179.122ZM143.621 175.534C145.253 175.534 146.477 176.878 146.477 178.774C146.477 180.682 145.253 182.026 143.621 182.026C142.625 182.026 141.833 181.534 141.365 180.718V183.946H140.465V175.678H141.365V176.842C141.833 176.026 142.625 175.534 143.621 175.534ZM143.453 181.222C144.665 181.222 145.529 180.202 145.529 178.774C145.529 177.346 144.665 176.338 143.453 176.338C142.229 176.338 141.365 177.346 141.365 178.774C141.365 180.202 142.229 181.222 143.453 181.222ZM151.273 175.534C152.905 175.534 154.129 176.878 154.129 178.774C154.129 180.682 152.905 182.026 151.273 182.026C150.277 182.026 149.485 181.534 149.017 180.718V183.946H148.117V175.678H149.017V176.842C149.485 176.026 150.277 175.534 151.273 175.534ZM151.105 181.222C152.317 181.222 153.181 180.202 153.181 178.774C153.181 177.346 152.317 176.338 151.105 176.338C149.881 176.338 149.017 177.346 149.017 178.774C149.017 180.202 149.881 181.222 151.105 181.222ZM155.685 181.882V173.494H156.585V181.882H155.685ZM158.848 174.55C158.512 174.55 158.248 174.274 158.248 173.95C158.248 173.638 158.512 173.362 158.848 173.362C159.172 173.362 159.436 173.638 159.436 173.95C159.436 174.274 159.172 174.55 158.848 174.55ZM158.392 181.882V175.678H159.292V181.882H158.392ZM163.98 182.026C162.24 182.026 160.764 180.538 160.764 178.774C160.764 177.01 162.24 175.534 163.98 175.534C164.82 175.534 165.6 175.882 166.188 176.446L165.564 177.058C165.156 176.614 164.592 176.338 163.98 176.338C162.744 176.338 161.712 177.454 161.712 178.774C161.712 180.106 162.744 181.222 163.98 181.222C164.604 181.222 165.18 180.934 165.6 180.466L166.224 181.078C165.636 181.666 164.844 182.026 163.98 182.026ZM170.123 175.534C171.815 175.534 172.643 176.602 172.643 178.102V181.882H171.743V180.91C171.299 181.642 170.375 182.026 169.559 182.026C168.251 182.026 167.291 181.27 167.291 180.046C167.291 178.81 168.395 177.982 169.727 177.982C170.399 177.982 171.107 178.126 171.743 178.33V178.102C171.743 177.262 171.407 176.302 170.063 176.302C169.439 176.302 168.815 176.578 168.251 176.866L167.891 176.134C168.779 175.69 169.523 175.534 170.123 175.534ZM169.715 181.234C170.531 181.234 171.503 180.814 171.743 179.938V178.99C171.179 178.834 170.543 178.738 169.871 178.738C168.947 178.738 168.167 179.266 168.167 180.01C168.167 180.778 168.839 181.234 169.715 181.234ZM177.206 180.97L177.65 181.63C177.326 181.882 176.918 182.026 176.498 182.026C175.61 182.026 174.986 181.366 174.986 180.442V176.482H174.014V175.678H174.986V173.974H175.886V175.678H177.41V176.482H175.886V180.442C175.886 180.898 176.198 181.222 176.558 181.222C176.834 181.222 177.074 181.114 177.206 180.97ZM179.368 174.55C179.032 174.55 178.768 174.274 178.768 173.95C178.768 173.638 179.032 173.362 179.368 173.362C179.692 173.362 179.956 173.638 179.956 173.95C179.956 174.274 179.692 174.55 179.368 174.55ZM178.912 181.882V175.678H179.812V181.882H178.912ZM184.499 182.026C182.759 182.026 181.283 180.538 181.283 178.774C181.283 177.01 182.759 175.534 184.499 175.534C186.239 175.534 187.703 177.01 187.703 178.774C187.703 180.538 186.239 182.026 184.499 182.026ZM184.499 181.222C185.723 181.222 186.755 180.106 186.755 178.774C186.755 177.454 185.723 176.338 184.499 176.338C183.263 176.338 182.231 177.454 182.231 178.774C182.231 180.106 183.263 181.222 184.499 181.222ZM192.141 175.534C193.509 175.534 194.469 176.53 194.469 177.934V181.882H193.569V178.054C193.569 177.046 192.933 176.338 192.021 176.338C190.977 176.338 190.101 177.07 190.101 177.934V181.882H189.201V175.678H190.101V176.674C190.461 176.014 191.265 175.534 192.141 175.534Z" fill="#191E1E"/>
<path d="M70.4057 217.643C68.9897 217.643 67.7897 217.163 66.8777 216.311L67.7417 215.243C68.4977 215.927 69.3737 216.359 70.4537 216.359C71.4737 216.359 72.0017 215.855 72.0017 215.267C72.0017 214.583 71.4137 214.355 70.0937 214.043C68.3897 213.647 67.2017 213.155 67.2017 211.607C67.2017 210.167 68.4257 209.111 70.1657 209.111C71.4737 209.111 72.4577 209.555 73.2857 210.263L72.4697 211.367C71.7497 210.743 70.9217 210.395 70.1057 210.395C69.2777 210.395 68.7137 210.899 68.7137 211.475C68.7137 212.147 69.3257 212.387 70.6337 212.687C72.3497 213.071 73.5017 213.623 73.5017 215.123C73.5017 216.599 72.3737 217.643 70.4057 217.643ZM78.4815 211.163C80.1255 211.163 81.3255 212.507 81.3255 214.403C81.3255 216.311 80.1255 217.655 78.4815 217.655C77.5575 217.655 76.8135 217.235 76.3215 216.527V219.575H74.8575V211.307H76.3215V212.291C76.8135 211.583 77.5575 211.163 78.4815 211.163ZM78.0855 216.407C79.1295 216.407 79.8735 215.567 79.8735 214.403C79.8735 213.239 79.1295 212.411 78.0855 212.411C77.0535 212.411 76.3335 213.239 76.3335 214.403C76.3335 215.567 77.0535 216.407 78.0855 216.407ZM84.1496 212.507C84.5456 211.679 85.3496 211.163 86.3696 211.163V212.411C85.0376 212.411 84.1496 213.203 84.1496 214.379V217.511H82.6856V211.307H84.1496V212.507ZM88.1983 210.371C87.7303 210.371 87.3583 209.975 87.3583 209.531C87.3583 209.087 87.7303 208.703 88.1983 208.703C88.6543 208.703 89.0263 209.087 89.0263 209.531C89.0263 209.975 88.6543 210.371 88.1983 210.371ZM87.4543 217.511V211.307H88.9183V217.511H87.4543ZM93.9203 211.163C95.2763 211.163 96.2243 212.159 96.2243 213.563V217.511H94.8083V213.851C94.8083 213.011 94.2683 212.411 93.5003 212.411C92.7323 212.411 92.0963 212.927 92.0003 213.587V217.511H90.5363V211.307H92.0003V212.135C92.3843 211.559 93.1043 211.163 93.9203 211.163ZM102.434 211.307H103.898V216.851C103.898 218.447 102.554 219.575 100.658 219.575C99.5896 219.575 98.6056 219.227 97.9936 218.747L98.5336 217.679C98.9656 218.075 99.7096 218.327 100.442 218.327C101.666 218.327 102.434 217.739 102.434 216.803V215.999C101.942 216.659 101.198 217.055 100.31 217.055C98.7016 217.055 97.5136 215.831 97.5136 214.103C97.5136 212.375 98.7016 211.163 100.31 211.163C101.186 211.163 101.99 211.571 102.434 212.231V211.307ZM100.73 215.807C101.726 215.807 102.434 215.099 102.434 214.103C102.434 213.119 101.726 212.411 100.73 212.411C99.7456 212.411 99.0376 213.119 99.0376 214.103C99.0376 215.099 99.7456 215.807 100.73 215.807ZM113.003 217.655C110.651 217.655 108.671 215.699 108.671 213.383C108.671 211.067 110.651 209.123 113.003 209.123C114.215 209.123 115.319 209.639 116.111 210.455L115.043 211.451C114.539 210.863 113.795 210.491 113.003 210.491C111.479 210.491 110.195 211.811 110.195 213.383C110.195 214.967 111.479 216.287 113.003 216.287C113.807 216.287 114.539 215.915 115.055 215.327L116.111 216.311C115.319 217.139 114.215 217.655 113.003 217.655ZM117.22 217.511V209.123H118.684V217.511H117.22ZM123.302 217.655C121.502 217.655 119.978 216.167 119.978 214.403C119.978 212.639 121.502 211.163 123.302 211.163C125.102 211.163 126.626 212.639 126.626 214.403C126.626 216.167 125.102 217.655 123.302 217.655ZM123.302 216.407C124.322 216.407 125.186 215.495 125.186 214.403C125.186 213.323 124.322 212.411 123.302 212.411C122.27 212.411 121.406 213.323 121.406 214.403C121.406 215.495 122.27 216.407 123.302 216.407ZM132.096 211.307H133.56V217.511H132.096V216.683C131.712 217.259 130.992 217.655 130.176 217.655C128.82 217.655 127.872 216.659 127.872 215.255V211.307H129.288V214.967C129.288 215.807 129.828 216.407 130.596 216.407C131.364 216.407 132 215.891 132.096 215.231V211.307ZM139.889 209.123H141.353V217.511H139.889V216.551C139.397 217.247 138.653 217.655 137.741 217.655C136.097 217.655 134.897 216.311 134.897 214.403C134.897 212.507 136.097 211.163 137.741 211.163C138.653 211.163 139.397 211.571 139.889 212.267V209.123ZM138.137 216.407C139.169 216.407 139.889 215.567 139.889 214.403C139.889 213.239 139.169 212.411 138.137 212.411C137.093 212.411 136.349 213.239 136.349 214.403C136.349 215.567 137.093 216.407 138.137 216.407ZM149.496 217.643C148.08 217.643 146.88 217.163 145.968 216.311L146.832 215.243C147.588 215.927 148.464 216.359 149.544 216.359C150.564 216.359 151.092 215.855 151.092 215.267C151.092 214.583 150.504 214.355 149.184 214.043C147.48 213.647 146.292 213.155 146.292 211.607C146.292 210.167 147.516 209.111 149.256 209.111C150.564 209.111 151.548 209.555 152.376 210.263L151.56 211.367C150.84 210.743 150.012 210.395 149.196 210.395C148.368 210.395 147.804 210.899 147.804 211.475C147.804 212.147 148.416 212.387 149.724 212.687C151.44 213.071 152.592 213.623 152.592 215.123C152.592 216.599 151.464 217.643 149.496 217.643ZM157.007 216.179L157.427 217.163C157.079 217.463 156.575 217.655 156.107 217.655C155.075 217.655 154.355 216.911 154.355 215.867V212.519H153.455V211.307H154.355V209.603H155.783V211.307H157.187V212.519H155.783V215.687C155.783 216.107 156.047 216.407 156.395 216.407C156.647 216.407 156.875 216.311 157.007 216.179ZM160.064 212.507C160.46 211.679 161.264 211.163 162.284 211.163V212.411C160.952 212.411 160.064 213.203 160.064 214.379V217.511H158.6V211.307H160.064V212.507ZM166.26 216.359C166.836 216.359 167.52 216.095 167.868 215.735L168.792 216.695C168.252 217.271 167.172 217.655 166.272 217.655C164.496 217.655 163.032 216.299 163.032 214.391C163.032 212.531 164.424 211.163 166.188 211.163C168.108 211.163 169.224 212.615 169.224 214.907H164.544C164.724 215.759 165.372 216.359 166.26 216.359ZM166.248 212.459C165.432 212.459 164.772 212.975 164.556 213.791H167.82C167.652 213.011 167.124 212.459 166.248 212.459ZM173.193 211.163C174.837 211.163 175.857 212.207 175.857 213.779V217.511H174.429V216.767C173.973 217.343 173.193 217.655 172.473 217.655C171.153 217.655 170.157 216.875 170.157 215.675C170.157 214.451 171.297 213.611 172.689 213.611C173.253 213.611 173.865 213.731 174.429 213.947V213.779C174.429 213.059 174.033 212.363 172.905 212.363C172.317 212.363 171.753 212.567 171.225 212.831L170.721 211.811C171.597 211.379 172.413 211.163 173.193 211.163ZM172.797 216.587C173.505 216.587 174.261 216.227 174.429 215.567V214.871C173.973 214.715 173.457 214.631 172.905 214.631C172.173 214.631 171.585 215.039 171.585 215.627C171.585 216.215 172.101 216.587 172.797 216.587ZM184.607 211.163C185.903 211.163 186.875 212.159 186.875 213.563V217.511H185.447V213.803C185.447 212.987 184.955 212.411 184.247 212.411C183.443 212.411 182.891 212.951 182.891 213.707V217.511H181.463V213.803C181.463 212.987 180.971 212.411 180.251 212.411C179.459 212.411 178.895 212.951 178.895 213.707V217.511H177.431V211.307H178.895V212.147C179.207 211.547 179.843 211.163 180.623 211.163C181.499 211.163 182.219 211.607 182.603 212.339C182.903 211.619 183.683 211.163 184.607 211.163Z" fill="#191E1E"/>
<path d="M65.9163 256.958V248.714H69.5043C71.2683 248.714 72.5883 249.842 72.5883 251.45C72.5883 253.058 71.2683 254.186 69.5043 254.186H67.4163V256.958H65.9163ZM67.4163 252.806H69.3363C70.3563 252.806 71.0643 252.29 71.0643 251.45C71.0643 250.61 70.3563 250.094 69.3363 250.094H67.4163V252.806ZM75.2199 251.954C75.6159 251.126 76.4199 250.61 77.4399 250.61V251.858C76.1079 251.858 75.2199 252.65 75.2199 253.826V256.958H73.7559V250.754H75.2199V251.954ZM81.3722 257.102C79.5722 257.102 78.0482 255.614 78.0482 253.85C78.0482 252.086 79.5722 250.61 81.3722 250.61C83.1722 250.61 84.6962 252.086 84.6962 253.85C84.6962 255.614 83.1722 257.102 81.3722 257.102ZM81.3722 255.854C82.3922 255.854 83.2562 254.942 83.2562 253.85C83.2562 252.77 82.3922 251.858 81.3722 251.858C80.3402 251.858 79.4762 252.77 79.4762 253.85C79.4762 254.942 80.3402 255.854 81.3722 255.854ZM90.682 248.57H92.146V256.958H90.682V255.998C90.19 256.694 89.446 257.102 88.534 257.102C86.89 257.102 85.69 255.758 85.69 253.85C85.69 251.954 86.89 250.61 88.534 250.61C89.446 250.61 90.19 251.018 90.682 251.714V248.57ZM88.93 255.854C89.962 255.854 90.682 255.014 90.682 253.85C90.682 252.686 89.962 251.858 88.93 251.858C87.886 251.858 87.142 252.686 87.142 253.85C87.142 255.014 87.886 255.854 88.93 255.854ZM97.9941 250.754H99.4581V256.958H97.9941V256.13C97.6101 256.706 96.8901 257.102 96.0741 257.102C94.7181 257.102 93.7701 256.106 93.7701 254.702V250.754H95.1861V254.414C95.1861 255.254 95.7261 255.854 96.4941 255.854C97.2621 255.854 97.8981 255.338 97.9941 254.678V250.754ZM104.059 257.102C102.271 257.102 100.747 255.614 100.747 253.85C100.747 252.086 102.271 250.61 104.083 250.61C105.019 250.61 105.847 251.006 106.435 251.618L105.451 252.482C105.115 252.11 104.599 251.858 104.071 251.858C103.051 251.858 102.199 252.77 102.199 253.85C102.199 254.942 103.051 255.854 104.071 255.854C104.611 255.854 105.139 255.602 105.487 255.206L106.471 256.058C105.871 256.694 105.043 257.102 104.059 257.102ZM110.514 255.806C111.09 255.806 111.774 255.542 112.122 255.182L113.046 256.142C112.506 256.718 111.426 257.102 110.526 257.102C108.75 257.102 107.286 255.746 107.286 253.838C107.286 251.978 108.678 250.61 110.442 250.61C112.362 250.61 113.478 252.062 113.478 254.354H108.798C108.978 255.206 109.626 255.806 110.514 255.806ZM110.502 251.906C109.686 251.906 109.026 252.422 108.81 253.238H112.074C111.906 252.458 111.378 251.906 110.502 251.906ZM116.247 251.954C116.643 251.126 117.447 250.61 118.467 250.61V251.858C117.135 251.858 116.247 252.65 116.247 253.826V256.958H114.783V250.754H116.247V251.954ZM129.274 256.958L128.65 255.47H124.666L124.042 256.958H122.374L125.818 248.714H127.486L130.93 256.958H129.274ZM125.206 254.174H128.11L126.658 250.706L125.206 254.174ZM135.634 250.61C137.278 250.61 138.478 251.954 138.478 253.85C138.478 255.758 137.278 257.102 135.634 257.102C134.71 257.102 133.966 256.682 133.474 255.974V259.022H132.01V250.754H133.474V251.738C133.966 251.03 134.71 250.61 135.634 250.61ZM135.238 255.854C136.282 255.854 137.026 255.014 137.026 253.85C137.026 252.686 136.282 251.858 135.238 251.858C134.206 251.858 133.486 252.686 133.486 253.85C133.486 255.014 134.206 255.854 135.238 255.854ZM143.462 250.61C145.106 250.61 146.306 251.954 146.306 253.85C146.306 255.758 145.106 257.102 143.462 257.102C142.538 257.102 141.794 256.682 141.302 255.974V259.022H139.838V250.754H141.302V251.738C141.794 251.03 142.538 250.61 143.462 250.61ZM143.066 255.854C144.11 255.854 144.854 255.014 144.854 253.85C144.854 252.686 144.11 251.858 143.066 251.858C142.034 251.858 141.314 252.686 141.314 253.85C141.314 255.014 142.034 255.854 143.066 255.854ZM147.63 256.958V248.57H149.094V256.958H147.63ZM151.456 249.818C150.988 249.818 150.616 249.422 150.616 248.978C150.616 248.534 150.988 248.15 151.456 248.15C151.912 248.15 152.284 248.534 152.284 248.978C152.284 249.422 151.912 249.818 151.456 249.818ZM150.712 256.958V250.754H152.176V256.958H150.712ZM156.782 257.102C154.994 257.102 153.47 255.614 153.47 253.85C153.47 252.086 154.994 250.61 156.806 250.61C157.742 250.61 158.57 251.006 159.158 251.618L158.174 252.482C157.838 252.11 157.322 251.858 156.794 251.858C155.774 251.858 154.922 252.77 154.922 253.85C154.922 254.942 155.774 255.854 156.794 255.854C157.334 255.854 157.862 255.602 158.21 255.206L159.194 256.058C158.594 256.694 157.766 257.102 156.782 257.102ZM163.045 250.61C164.689 250.61 165.709 251.654 165.709 253.226V256.958H164.281V256.214C163.825 256.79 163.045 257.102 162.325 257.102C161.005 257.102 160.009 256.322 160.009 255.122C160.009 253.898 161.149 253.058 162.541 253.058C163.105 253.058 163.717 253.178 164.281 253.394V253.226C164.281 252.506 163.885 251.81 162.757 251.81C162.169 251.81 161.605 252.014 161.077 252.278L160.573 251.258C161.449 250.826 162.265 250.61 163.045 250.61ZM162.649 256.034C163.357 256.034 164.113 255.674 164.281 255.014V254.318C163.825 254.162 163.309 254.078 162.757 254.078C162.025 254.078 161.437 254.486 161.437 255.074C161.437 255.662 161.953 256.034 162.649 256.034ZM170.39 255.626L170.81 256.61C170.462 256.91 169.958 257.102 169.49 257.102C168.458 257.102 167.738 256.358 167.738 255.314V251.966H166.838V250.754H167.738V249.05H169.166V250.754H170.57V251.966H169.166V255.134C169.166 255.554 169.43 255.854 169.778 255.854C170.03 255.854 170.258 255.758 170.39 255.626ZM172.69 249.818C172.222 249.818 171.85 249.422 171.85 248.978C171.85 248.534 172.222 248.15 172.69 248.15C173.146 248.15 173.518 248.534 173.518 248.978C173.518 249.422 173.146 249.818 172.69 249.818ZM171.946 256.958V250.754H173.41V256.958H171.946ZM178.028 257.102C176.228 257.102 174.704 255.614 174.704 253.85C174.704 252.086 176.228 250.61 178.028 250.61C179.828 250.61 181.352 252.086 181.352 253.85C181.352 255.614 179.828 257.102 178.028 257.102ZM178.028 255.854C179.048 255.854 179.912 254.942 179.912 253.85C179.912 252.77 179.048 251.858 178.028 251.858C176.996 251.858 176.132 252.77 176.132 253.85C176.132 254.942 176.996 255.854 178.028 255.854ZM186.006 250.61C187.362 250.61 188.31 251.606 188.31 253.01V256.958H186.894V253.298C186.894 252.458 186.354 251.858 185.586 251.858C184.818 251.858 184.182 252.374 184.086 253.034V256.958H182.622V250.754H184.086V251.582C184.47 251.006 185.19 250.61 186.006 250.61Z" fill="#191E1E"/>
<rect x="667" y="152" width="194" height="134" stroke="#98AFAE" stroke-width="3" stroke-linecap="round" stroke-linejoin="round" stroke-dasharray="0.4 10"/>
<rect x="684.715" y="199.347" width="158.73" height="29.5055" fill="white" stroke="#191E1E" stroke-width="2"/>
<rect x="684.715" y="238.794" width="158.73" height="29.5055" fill="white" stroke="#191E1E" stroke-width="2"/>
<path d="M699.425 182.014C698.069 182.014 697.001 181.522 696.173 180.706L696.761 179.974C697.457 180.67 698.309 181.162 699.461 181.162C700.733 181.162 701.381 180.466 701.381 179.722C701.381 178.846 700.601 178.498 699.161 178.162C697.505 177.778 696.461 177.262 696.461 175.834C696.461 174.514 697.637 173.482 699.221 173.482C700.445 173.482 701.357 173.962 702.113 174.658L701.537 175.39C700.853 174.73 700.037 174.334 699.173 174.334C698.153 174.334 697.409 175.006 697.409 175.762C697.409 176.614 698.225 176.914 699.629 177.25C701.201 177.622 702.329 178.186 702.329 179.638C702.329 180.946 701.345 182.014 699.425 182.014ZM707.132 175.534C708.764 175.534 709.988 176.878 709.988 178.774C709.988 180.682 708.764 182.026 707.132 182.026C706.136 182.026 705.344 181.534 704.876 180.718V183.946H703.976V175.678H704.876V176.842C705.344 176.026 706.136 175.534 707.132 175.534ZM706.964 181.222C708.176 181.222 709.04 180.202 709.04 178.774C709.04 177.346 708.176 176.338 706.964 176.338C705.74 176.338 704.876 177.346 704.876 178.774C704.876 180.202 705.74 181.222 706.964 181.222ZM712.529 176.89C712.901 176.062 713.789 175.534 714.929 175.534V176.338C713.525 176.338 712.529 177.202 712.529 178.414V181.882H711.629V175.678H712.529V176.89ZM716.618 174.55C716.282 174.55 716.018 174.274 716.018 173.95C716.018 173.638 716.282 173.362 716.618 173.362C716.942 173.362 717.206 173.638 717.206 173.95C717.206 174.274 716.942 174.55 716.618 174.55ZM716.162 181.882V175.678H717.062V181.882H716.162ZM721.821 175.534C723.189 175.534 724.149 176.53 724.149 177.934V181.882H723.249V178.054C723.249 177.046 722.613 176.338 721.701 176.338C720.657 176.338 719.781 177.07 719.781 177.934V181.882H718.881V175.678H719.781V176.674C720.141 176.014 720.945 175.534 721.821 175.534ZM730.795 175.678H731.695V181.222C731.695 182.818 730.435 183.946 728.647 183.946C727.639 183.946 726.703 183.598 726.139 183.118L726.535 182.41C727.015 182.866 727.759 183.142 728.527 183.142C729.955 183.142 730.795 182.434 730.795 181.222V180.214C730.315 180.97 729.523 181.426 728.539 181.426C726.871 181.426 725.683 180.202 725.683 178.474C725.683 176.746 726.871 175.534 728.539 175.534C729.523 175.534 730.315 175.99 730.795 176.746V175.678ZM728.707 180.622C729.931 180.622 730.795 179.734 730.795 178.474C730.795 177.226 729.931 176.338 728.707 176.338C727.495 176.338 726.631 177.226 726.631 178.474C726.631 179.734 727.495 180.622 728.707 180.622ZM737.296 181.882V173.638H741.076C742.408 173.638 743.344 174.49 743.344 175.69C743.344 176.566 742.912 177.07 742.168 177.502C743.116 177.982 743.668 178.726 743.668 179.626C743.668 180.946 742.648 181.882 741.22 181.882H737.296ZM738.232 177.13H740.836C741.748 177.13 742.396 176.578 742.396 175.81C742.396 175.042 741.748 174.49 740.836 174.49H738.232V177.13ZM738.232 181.03H740.98C742 181.03 742.72 180.394 742.72 179.506C742.72 178.618 742 177.982 740.98 177.982H738.232V181.03ZM748.14 182.026C746.4 182.026 744.924 180.538 744.924 178.774C744.924 177.01 746.4 175.534 748.14 175.534C749.88 175.534 751.344 177.01 751.344 178.774C751.344 180.538 749.88 182.026 748.14 182.026ZM748.14 181.222C749.364 181.222 750.396 180.106 750.396 178.774C750.396 177.454 749.364 176.338 748.14 176.338C746.904 176.338 745.872 177.454 745.872 178.774C745.872 180.106 746.904 181.222 748.14 181.222ZM755.71 182.026C753.97 182.026 752.494 180.538 752.494 178.774C752.494 177.01 753.97 175.534 755.71 175.534C757.45 175.534 758.914 177.01 758.914 178.774C758.914 180.538 757.45 182.026 755.71 182.026ZM755.71 181.222C756.934 181.222 757.966 180.106 757.966 178.774C757.966 177.454 756.934 176.338 755.71 176.338C754.474 176.338 753.442 177.454 753.442 178.774C753.442 180.106 754.474 181.222 755.71 181.222ZM763.124 180.97L763.568 181.63C763.244 181.882 762.836 182.026 762.416 182.026C761.528 182.026 760.904 181.366 760.904 180.442V176.482H759.932V175.678H760.904V173.974H761.804V175.678H763.328V176.482H761.804V180.442C761.804 180.898 762.116 181.222 762.476 181.222C762.752 181.222 762.992 181.114 763.124 180.97ZM775.066 181.882L774.238 180.01H769.642L768.814 181.882H767.794L771.43 173.638H772.45L776.086 181.882H775.066ZM770.026 179.122H773.854L771.946 174.79L770.026 179.122ZM780.621 175.534C782.253 175.534 783.477 176.878 783.477 178.774C783.477 180.682 782.253 182.026 780.621 182.026C779.625 182.026 778.833 181.534 778.365 180.718V183.946H777.465V175.678H778.365V176.842C778.833 176.026 779.625 175.534 780.621 175.534ZM780.453 181.222C781.665 181.222 782.529 180.202 782.529 178.774C782.529 177.346 781.665 176.338 780.453 176.338C779.229 176.338 778.365 177.346 778.365 178.774C778.365 180.202 779.229 181.222 780.453 181.222ZM788.273 175.534C789.905 175.534 791.129 176.878 791.129 178.774C791.129 180.682 789.905 182.026 788.273 182.026C787.277 182.026 786.485 181.534 786.017 180.718V183.946H785.117V175.678H786.017V176.842C786.485 176.026 787.277 175.534 788.273 175.534ZM788.105 181.222C789.317 181.222 790.181 180.202 790.181 178.774C790.181 177.346 789.317 176.338 788.105 176.338C786.881 176.338 786.017 177.346 786.017 178.774C786.017 180.202 786.881 181.222 788.105 181.222ZM792.685 181.882V173.494H793.585V181.882H792.685ZM795.848 174.55C795.512 174.55 795.248 174.274 795.248 173.95C795.248 173.638 795.512 173.362 795.848 173.362C796.172 173.362 796.436 173.638 796.436 173.95C796.436 174.274 796.172 174.55 795.848 174.55ZM795.392 181.882V175.678H796.292V181.882H795.392ZM800.98 182.026C799.24 182.026 797.764 180.538 797.764 178.774C797.764 177.01 799.24 175.534 800.98 175.534C801.82 175.534 802.6 175.882 803.188 176.446L802.564 177.058C802.156 176.614 801.592 176.338 800.98 176.338C799.744 176.338 798.712 177.454 798.712 178.774C798.712 180.106 799.744 181.222 800.98 181.222C801.604 181.222 802.18 180.934 802.6 180.466L803.224 181.078C802.636 181.666 801.844 182.026 800.98 182.026ZM807.123 175.534C808.815 175.534 809.643 176.602 809.643 178.102V181.882H808.743V180.91C808.299 181.642 807.375 182.026 806.559 182.026C805.251 182.026 804.291 181.27 804.291 180.046C804.291 178.81 805.395 177.982 806.727 177.982C807.399 177.982 808.107 178.126 808.743 178.33V178.102C808.743 177.262 808.407 176.302 807.063 176.302C806.439 176.302 805.815 176.578 805.251 176.866L804.891 176.134C805.779 175.69 806.523 175.534 807.123 175.534ZM806.715 181.234C807.531 181.234 808.503 180.814 808.743 179.938V178.99C808.179 178.834 807.543 178.738 806.871 178.738C805.947 178.738 805.167 179.266 805.167 180.01C805.167 180.778 805.839 181.234 806.715 181.234ZM814.206 180.97L814.65 181.63C814.326 181.882 813.918 182.026 813.498 182.026C812.61 182.026 811.986 181.366 811.986 180.442V176.482H811.014V175.678H811.986V173.974H812.886V175.678H814.41V176.482H812.886V180.442C812.886 180.898 813.198 181.222 813.558 181.222C813.834 181.222 814.074 181.114 814.206 180.97ZM816.368 174.55C816.032 174.55 815.768 174.274 815.768 173.95C815.768 173.638 816.032 173.362 816.368 173.362C816.692 173.362 816.956 173.638 816.956 173.95C816.956 174.274 816.692 174.55 816.368 174.55ZM815.912 181.882V175.678H816.812V181.882H815.912ZM821.499 182.026C819.759 182.026 818.283 180.538 818.283 178.774C818.283 177.01 819.759 175.534 821.499 175.534C823.239 175.534 824.703 177.01 824.703 178.774C824.703 180.538 823.239 182.026 821.499 182.026ZM821.499 181.222C822.723 181.222 823.755 180.106 823.755 178.774C823.755 177.454 822.723 176.338 821.499 176.338C820.263 176.338 819.231 177.454 819.231 178.774C819.231 180.106 820.263 181.222 821.499 181.222ZM829.141 175.534C830.509 175.534 831.469 176.53 831.469 177.934V181.882H830.569V178.054C830.569 177.046 829.933 176.338 829.021 176.338C827.977 176.338 827.101 177.07 827.101 177.934V181.882H826.201V175.678H827.101V176.674C827.461 176.014 828.265 175.534 829.141 175.534Z" fill="#191E1E"/>
<path d="M707.406 217.643C705.99 217.643 704.79 217.163 703.878 216.311L704.742 215.243C705.498 215.927 706.374 216.359 707.454 216.359C708.474 216.359 709.002 215.855 709.002 215.267C709.002 214.583 708.414 214.355 707.094 214.043C705.39 213.647 704.202 213.155 704.202 211.607C704.202 210.167 705.426 209.111 707.166 209.111C708.474 209.111 709.458 209.555 710.286 210.263L709.47 211.367C708.75 210.743 707.922 210.395 707.106 210.395C706.278 210.395 705.714 210.899 705.714 211.475C705.714 212.147 706.326 212.387 707.634 212.687C709.35 213.071 710.502 213.623 710.502 215.123C710.502 216.599 709.374 217.643 707.406 217.643ZM715.481 211.163C717.125 211.163 718.325 212.507 718.325 214.403C718.325 216.311 717.125 217.655 715.481 217.655C714.557 217.655 713.813 217.235 713.321 216.527V219.575H711.857V211.307H713.321V212.291C713.813 211.583 714.557 211.163 715.481 211.163ZM715.085 216.407C716.129 216.407 716.873 215.567 716.873 214.403C716.873 213.239 716.129 212.411 715.085 212.411C714.053 212.411 713.333 213.239 713.333 214.403C713.333 215.567 714.053 216.407 715.085 216.407ZM721.15 212.507C721.546 211.679 722.35 211.163 723.37 211.163V212.411C722.038 212.411 721.15 213.203 721.15 214.379V217.511H719.686V211.307H721.15V212.507ZM725.198 210.371C724.73 210.371 724.358 209.975 724.358 209.531C724.358 209.087 724.73 208.703 725.198 208.703C725.654 208.703 726.026 209.087 726.026 209.531C726.026 209.975 725.654 210.371 725.198 210.371ZM724.454 217.511V211.307H725.918V217.511H724.454ZM730.92 211.163C732.276 211.163 733.224 212.159 733.224 213.563V217.511H731.808V213.851C731.808 213.011 731.268 212.411 730.5 212.411C729.732 212.411 729.096 212.927 729 213.587V217.511H727.536V211.307H729V212.135C729.384 211.559 730.104 211.163 730.92 211.163ZM739.434 211.307H740.898V216.851C740.898 218.447 739.554 219.575 737.658 219.575C736.59 219.575 735.606 219.227 734.994 218.747L735.534 217.679C735.966 218.075 736.71 218.327 737.442 218.327C738.666 218.327 739.434 217.739 739.434 216.803V215.999C738.942 216.659 738.198 217.055 737.31 217.055C735.702 217.055 734.514 215.831 734.514 214.103C734.514 212.375 735.702 211.163 737.31 211.163C738.186 211.163 738.99 211.571 739.434 212.231V211.307ZM737.73 215.807C738.726 215.807 739.434 215.099 739.434 214.103C739.434 213.119 738.726 212.411 737.73 212.411C736.746 212.411 736.038 213.119 736.038 214.103C736.038 215.099 736.746 215.807 737.73 215.807ZM750.003 217.655C747.651 217.655 745.671 215.699 745.671 213.383C745.671 211.067 747.651 209.123 750.003 209.123C751.215 209.123 752.319 209.639 753.111 210.455L752.043 211.451C751.539 210.863 750.795 210.491 750.003 210.491C748.479 210.491 747.195 211.811 747.195 213.383C747.195 214.967 748.479 216.287 750.003 216.287C750.807 216.287 751.539 215.915 752.055 215.327L753.111 216.311C752.319 217.139 751.215 217.655 750.003 217.655ZM754.22 217.511V209.123H755.684V217.511H754.22ZM760.302 217.655C758.502 217.655 756.978 216.167 756.978 214.403C756.978 212.639 758.502 211.163 760.302 211.163C762.102 211.163 763.626 212.639 763.626 214.403C763.626 216.167 762.102 217.655 760.302 217.655ZM760.302 216.407C761.322 216.407 762.186 215.495 762.186 214.403C762.186 213.323 761.322 212.411 760.302 212.411C759.27 212.411 758.406 213.323 758.406 214.403C758.406 215.495 759.27 216.407 760.302 216.407ZM769.096 211.307H770.56V217.511H769.096V216.683C768.712 217.259 767.992 217.655 767.176 217.655C765.82 217.655 764.872 216.659 764.872 215.255V211.307H766.288V214.967C766.288 215.807 766.828 216.407 767.596 216.407C768.364 216.407 769 215.891 769.096 215.231V211.307ZM776.889 209.123H778.353V217.511H776.889V216.551C776.397 217.247 775.653 217.655 774.741 217.655C773.097 217.655 771.897 216.311 771.897 214.403C771.897 212.507 773.097 211.163 774.741 211.163C775.653 211.163 776.397 211.571 776.889 212.267V209.123ZM775.137 216.407C776.169 216.407 776.889 215.567 776.889 214.403C776.889 213.239 776.169 212.411 775.137 212.411C774.093 212.411 773.349 213.239 773.349 214.403C773.349 215.567 774.093 216.407 775.137 216.407ZM786.496 217.643C785.08 217.643 783.88 217.163 782.968 216.311L783.832 215.243C784.588 215.927 785.464 216.359 786.544 216.359C787.564 216.359 788.092 215.855 788.092 215.267C788.092 214.583 787.504 214.355 786.184 214.043C784.48 213.647 783.292 213.155 783.292 211.607C783.292 210.167 784.516 209.111 786.256 209.111C787.564 209.111 788.548 209.555 789.376 210.263L788.56 211.367C787.84 210.743 787.012 210.395 786.196 210.395C785.368 210.395 784.804 210.899 784.804 211.475C784.804 212.147 785.416 212.387 786.724 212.687C788.44 213.071 789.592 213.623 789.592 215.123C789.592 216.599 788.464 217.643 786.496 217.643ZM794.007 216.179L794.427 217.163C794.079 217.463 793.575 217.655 793.107 217.655C792.075 217.655 791.355 216.911 791.355 215.867V212.519H790.455V211.307H791.355V209.603H792.783V211.307H794.187V212.519H792.783V215.687C792.783 216.107 793.047 216.407 793.395 216.407C793.647 216.407 793.875 216.311 794.007 216.179ZM797.064 212.507C797.46 211.679 798.264 211.163 799.284 211.163V212.411C797.952 212.411 797.064 213.203 797.064 214.379V217.511H795.6V211.307H797.064V212.507ZM803.26 216.359C803.836 216.359 804.52 216.095 804.868 215.735L805.792 216.695C805.252 217.271 804.172 217.655 803.272 217.655C801.496 217.655 800.032 216.299 800.032 214.391C800.032 212.531 801.424 211.163 803.188 211.163C805.108 211.163 806.224 212.615 806.224 214.907H801.544C801.724 215.759 802.372 216.359 803.26 216.359ZM803.248 212.459C802.432 212.459 801.772 212.975 801.556 213.791H804.82C804.652 213.011 804.124 212.459 803.248 212.459ZM810.193 211.163C811.837 211.163 812.857 212.207 812.857 213.779V217.511H811.429V216.767C810.973 217.343 810.193 217.655 809.473 217.655C808.153 217.655 807.157 216.875 807.157 215.675C807.157 214.451 808.297 213.611 809.689 213.611C810.253 213.611 810.865 213.731 811.429 213.947V213.779C811.429 213.059 811.033 212.363 809.905 212.363C809.317 212.363 808.753 212.567 808.225 212.831L807.721 211.811C808.597 211.379 809.413 211.163 810.193 211.163ZM809.797 216.587C810.505 216.587 811.261 216.227 811.429 215.567V214.871C810.973 214.715 810.457 214.631 809.905 214.631C809.173 214.631 808.585 215.039 808.585 215.627C808.585 216.215 809.101 216.587 809.797 216.587ZM821.607 211.163C822.903 211.163 823.875 212.159 823.875 213.563V217.511H822.447V213.803C822.447 212.987 821.955 212.411 821.247 212.411C820.443 212.411 819.891 212.951 819.891 213.707V217.511H818.463V213.803C818.463 212.987 817.971 212.411 817.251 212.411C816.459 212.411 815.895 212.951 815.895 213.707V217.511H814.431V211.307H815.895V212.147C816.207 211.547 816.843 211.163 817.623 211.163C818.499 211.163 819.219 211.607 819.603 212.339C819.903 211.619 820.683 211.163 821.607 211.163Z" fill="#191E1E"/>
<path d="M704.009 257.144C701.657 257.144 699.677 255.188 699.677 252.872C699.677 250.556 701.657 248.612 704.009 248.612C705.221 248.612 706.325 249.128 707.117 249.944L706.049 250.94C705.545 250.352 704.801 249.98 704.009 249.98C702.485 249.98 701.201 251.3 701.201 252.872C701.201 254.456 702.485 255.776 704.009 255.776C704.813 255.776 705.545 255.404 706.061 254.816L707.117 255.8C706.325 256.628 705.221 257.144 704.009 257.144ZM711.226 257.144C709.426 257.144 707.902 255.656 707.902 253.892C707.902 252.128 709.426 250.652 711.226 250.652C713.026 250.652 714.55 252.128 714.55 253.892C714.55 255.656 713.026 257.144 711.226 257.144ZM711.226 255.896C712.246 255.896 713.11 254.984 713.11 253.892C713.11 252.812 712.246 251.9 711.226 251.9C710.194 251.9 709.33 252.812 709.33 253.892C709.33 254.984 710.194 255.896 711.226 255.896ZM719.204 250.652C720.56 250.652 721.508 251.648 721.508 253.052V257H720.092V253.34C720.092 252.5 719.552 251.9 718.784 251.9C718.016 251.9 717.38 252.416 717.284 253.076V257H715.82V250.796H717.284V251.624C717.668 251.048 718.388 250.652 719.204 250.652ZM725.389 257.144C724.441 257.144 723.421 256.808 722.677 256.208L723.337 255.188C723.937 255.62 724.633 255.908 725.413 255.908C726.001 255.908 726.409 255.656 726.409 255.272C726.409 254.792 725.869 254.636 725.161 254.444C723.817 254.096 722.965 253.712 722.953 252.608C722.953 251.444 723.913 250.652 725.293 250.652C726.145 250.652 726.997 250.952 727.669 251.396L727.057 252.464C726.469 252.092 725.833 251.9 725.293 251.9C724.777 251.9 724.381 252.104 724.381 252.452C724.381 252.848 724.705 252.968 725.653 253.244C726.697 253.532 727.825 253.892 727.825 255.188C727.825 256.376 726.841 257.144 725.389 257.144ZM733.297 250.796H734.761V257H733.297V256.172C732.913 256.748 732.193 257.144 731.377 257.144C730.021 257.144 729.073 256.148 729.073 254.744V250.796H730.489V254.456C730.489 255.296 731.029 255.896 731.797 255.896C732.565 255.896 733.201 255.38 733.297 254.72V250.796ZM743.538 250.652C744.834 250.652 745.806 251.648 745.806 253.052V257H744.378V253.292C744.378 252.476 743.886 251.9 743.178 251.9C742.374 251.9 741.822 252.44 741.822 253.196V257H740.394V253.292C740.394 252.476 739.902 251.9 739.182 251.9C738.39 251.9 737.826 252.44 737.826 253.196V257H736.362V250.796H737.826V251.636C738.138 251.036 738.774 250.652 739.554 250.652C740.43 250.652 741.15 251.096 741.534 251.828C741.834 251.108 742.614 250.652 743.538 250.652ZM750.282 255.848C750.858 255.848 751.542 255.584 751.89 255.224L752.814 256.184C752.274 256.76 751.194 257.144 750.294 257.144C748.518 257.144 747.054 255.788 747.054 253.88C747.054 252.02 748.446 250.652 750.21 250.652C752.13 250.652 753.246 252.104 753.246 254.396H748.566C748.746 255.248 749.394 255.848 750.282 255.848ZM750.27 251.948C749.454 251.948 748.794 252.464 748.578 253.28H751.842C751.674 252.5 751.146 251.948 750.27 251.948ZM756.015 251.996C756.411 251.168 757.215 250.652 758.235 250.652V251.9C756.903 251.9 756.015 252.692 756.015 253.868V257H754.551V250.796H756.015V251.996ZM769.042 257L768.418 255.512H764.434L763.81 257H762.142L765.586 248.756H767.254L770.698 257H769.042ZM764.974 254.216H767.878L766.426 250.748L764.974 254.216ZM775.402 250.652C777.046 250.652 778.246 251.996 778.246 253.892C778.246 255.8 777.046 257.144 775.402 257.144C774.478 257.144 773.734 256.724 773.242 256.016V259.064H771.778V250.796H773.242V251.78C773.734 251.072 774.478 250.652 775.402 250.652ZM775.006 255.896C776.05 255.896 776.794 255.056 776.794 253.892C776.794 252.728 776.05 251.9 775.006 251.9C773.974 251.9 773.254 252.728 773.254 253.892C773.254 255.056 773.974 255.896 775.006 255.896ZM783.23 250.652C784.874 250.652 786.074 251.996 786.074 253.892C786.074 255.8 784.874 257.144 783.23 257.144C782.306 257.144 781.562 256.724 781.07 256.016V259.064H779.606V250.796H781.07V251.78C781.562 251.072 782.306 250.652 783.23 250.652ZM782.834 255.896C783.878 255.896 784.622 255.056 784.622 253.892C784.622 252.728 783.878 251.9 782.834 251.9C781.802 251.9 781.082 252.728 781.082 253.892C781.082 255.056 781.802 255.896 782.834 255.896ZM787.398 257V248.612H788.862V257H787.398ZM791.224 249.86C790.756 249.86 790.384 249.464 790.384 249.02C790.384 248.576 790.756 248.192 791.224 248.192C791.68 248.192 792.052 248.576 792.052 249.02C792.052 249.464 791.68 249.86 791.224 249.86ZM790.48 257V250.796H791.944V257H790.48ZM796.55 257.144C794.762 257.144 793.238 255.656 793.238 253.892C793.238 252.128 794.762 250.652 796.574 250.652C797.51 250.652 798.338 251.048 798.926 251.66L797.942 252.524C797.606 252.152 797.09 251.9 796.562 251.9C795.542 251.9 794.69 252.812 794.69 253.892C794.69 254.984 795.542 255.896 796.562 255.896C797.102 255.896 797.63 255.644 797.978 255.248L798.962 256.1C798.362 256.736 797.534 257.144 796.55 257.144ZM802.813 250.652C804.457 250.652 805.477 251.696 805.477 253.268V257H804.049V256.256C803.593 256.832 802.813 257.144 802.093 257.144C800.773 257.144 799.777 256.364 799.777 255.164C799.777 253.94 800.917 253.1 802.309 253.1C802.873 253.1 803.485 253.22 804.049 253.436V253.268C804.049 252.548 803.653 251.852 802.525 251.852C801.937 251.852 801.373 252.056 800.845 252.32L800.341 251.3C801.217 250.868 802.033 250.652 802.813 250.652ZM802.417 256.076C803.125 256.076 803.881 255.716 804.049 255.056V254.36C803.593 254.204 803.077 254.12 802.525 254.12C801.793 254.12 801.205 254.528 801.205 255.116C801.205 255.704 801.721 256.076 802.417 256.076ZM810.158 255.668L810.578 256.652C810.23 256.952 809.726 257.144 809.258 257.144C808.226 257.144 807.506 256.4 807.506 255.356V252.008H806.606V250.796H807.506V249.092H808.934V250.796H810.338V252.008H808.934V255.176C808.934 255.596 809.198 255.896 809.546 255.896C809.798 255.896 810.026 255.8 810.158 255.668ZM812.458 249.86C811.99 249.86 811.618 249.464 811.618 249.02C811.618 248.576 811.99 248.192 812.458 248.192C812.914 248.192 813.286 248.576 813.286 249.02C813.286 249.464 812.914 249.86 812.458 249.86ZM811.714 257V250.796H813.178V257H811.714ZM817.796 257.144C815.996 257.144 814.472 255.656 814.472 253.892C814.472 252.128 815.996 250.652 817.796 250.652C819.596 250.652 821.12 252.128 821.12 253.892C821.12 255.656 819.596 257.144 817.796 257.144ZM817.796 255.896C818.816 255.896 819.68 254.984 819.68 253.892C819.68 252.812 818.816 251.9 817.796 251.9C816.764 251.9 815.9 252.812 815.9 253.892C815.9 254.984 816.764 255.896 817.796 255.896ZM825.774 250.652C827.13 250.652 828.078 251.648 828.078 253.052V257H826.662V253.34C826.662 252.5 826.122 251.9 825.354 251.9C824.586 251.9 823.95 252.416 823.854 253.076V257H822.39V250.796H823.854V251.624C824.238 251.048 824.958 250.652 825.774 250.652Z" fill="#191E1E"/>
</g>
<defs>
<clipPath id="clip0_517_357655">
<rect width="887" height="431" fill="white"/>
</clipPath>
</defs>
</svg>
