<svg width="743" height="431" viewBox="0 0 743 431" fill="none" xmlns="http://www.w3.org/2000/svg">
<g clip-path="url(#clip0_516_357358)">
<rect width="743" height="431" fill="white"/>
<circle cx="372" cy="216" r="254" fill="#F4F4F5"/>
<circle cx="96.096" cy="329.096" r="4.09596" fill="#4C7C2C"/>
<circle cx="116.576" cy="329.096" r="4.09596" fill="#4C7C2C"/>
<circle cx="137.056" cy="329.096" r="4.09596" fill="#4C7C2C"/>
<circle cx="157.535" cy="329.096" r="4.09596" fill="#4C7C2C"/>
<circle cx="178.015" cy="329.096" r="4.09596" fill="#4C7C2C"/>
<circle cx="96.096" cy="349.576" r="4.09596" fill="#4C7C2C"/>
<circle cx="116.576" cy="349.576" r="4.09596" fill="#4C7C2C"/>
<circle cx="137.056" cy="349.576" r="4.09596" fill="#4C7C2C"/>
<circle cx="157.535" cy="349.576" r="4.09596" fill="#4C7C2C"/>
<circle cx="178.015" cy="349.576" r="4.09596" fill="#4C7C2C"/>
<circle cx="96.096" cy="370.056" r="4.09596" fill="#4C7C2C"/>
<circle cx="116.576" cy="370.056" r="4.09596" fill="#4C7C2C"/>
<circle cx="137.056" cy="370.056" r="4.09596" fill="#4C7C2C"/>
<circle cx="157.535" cy="370.056" r="4.09596" fill="#4C7C2C"/>
<circle cx="178.015" cy="370.056" r="4.09596" fill="#4C7C2C"/>
<circle cx="96.096" cy="390.535" r="4.09596" fill="#4C7C2C"/>
<circle cx="116.576" cy="390.535" r="4.09596" fill="#4C7C2C"/>
<circle cx="137.056" cy="390.535" r="4.09596" fill="#4C7C2C"/>
<circle cx="157.535" cy="390.535" r="4.09596" fill="#4C7C2C"/>
<circle cx="178.015" cy="390.535" r="4.09596" fill="#4C7C2C"/>
<circle cx="96.096" cy="411.015" r="4.09596" fill="#4C7C2C"/>
<circle cx="198.495" cy="411.015" r="4.09596" transform="rotate(-90 198.495 411.015)" fill="#4C7C2C"/>
<circle cx="116.576" cy="411.015" r="4.09596" fill="#4C7C2C"/>
<circle cx="198.495" cy="390.535" r="4.09596" transform="rotate(-90 198.495 390.535)" fill="#4C7C2C"/>
<circle cx="137.056" cy="411.015" r="4.09596" fill="#4C7C2C"/>
<circle cx="198.495" cy="370.055" r="4.09596" transform="rotate(-90 198.495 370.055)" fill="#4C7C2C"/>
<circle cx="157.535" cy="411.015" r="4.09596" fill="#4C7C2C"/>
<circle cx="198.495" cy="349.576" r="4.09596" transform="rotate(-90 198.495 349.576)" fill="#4C7C2C"/>
<circle cx="178.015" cy="411.015" r="4.09596" fill="#4C7C2C"/>
<circle cx="198.495" cy="329.096" r="4.09596" transform="rotate(-90 198.495 329.096)" fill="#4C7C2C"/>
<path d="M435.5 252.564C435.5 252.996 435.3 253.567 434.602 254.286C433.899 255.011 432.787 255.783 431.222 256.564C428.098 258.123 423.481 259.57 417.652 260.8C406.019 263.256 389.877 264.787 372 264.787C354.123 264.787 337.981 263.256 326.348 260.8C320.519 259.57 315.902 258.123 312.778 256.564C311.214 255.783 310.101 255.011 309.398 254.286C308.7 253.567 308.5 252.996 308.5 252.564L308.5 214.751L308.5 178.425C313.815 176.509 323.068 175.235 334.165 174.448C345.862 173.619 359.383 173.342 372 173.342C384.617 173.342 398.138 173.619 409.835 174.448C420.932 175.235 430.185 176.509 435.5 178.425V178.443V178.502V178.562V178.623V178.686V178.75V178.815V178.881V178.949V179.018V179.089V179.161V179.234V179.308V179.384V179.461V179.539V179.619V179.699V179.781V179.865V179.949V180.035V180.122V180.21V180.299V180.39V180.482V180.575V180.669V180.764V180.861V180.958V181.057V181.157V181.258V181.361V181.464V181.569V181.675V181.782V181.89V181.999V182.109V182.22V182.333V182.446V182.561V182.676V182.793V182.911V183.03V183.15V183.271V183.393V183.516V183.64V183.765V183.891V184.018V184.146V184.276V184.406V184.537V184.669V184.802V184.936V185.071V185.207V185.344V185.482V185.621V185.76V185.901V186.043V186.185V186.329V186.473V186.618V186.764V186.911V187.059V187.208V187.358V187.508V187.659V187.812V187.965V188.119V188.273V188.429V188.585V188.742V188.9V189.059V189.219V189.379V189.54V189.702V189.865V190.028V190.193V190.358V190.523V190.69V190.857V191.025V191.194V191.363V191.533V191.704V191.876V192.048V192.221V192.394V192.568V192.743V192.919V193.095V193.272V193.45V193.628V193.807V193.986V194.166V194.347V194.528V194.71V194.893V195.076V195.26V195.444V195.629V195.814V196V196.187V196.374V196.561V196.749V196.938V197.127V197.317V197.507V197.698V197.889V198.081V198.274V198.466V198.66V198.853V199.047V199.242V199.437V199.633V199.829V200.025V200.222V200.419V200.617V200.815V201.014V201.213V201.412V201.612V201.812V202.012V202.213V202.414V202.616V202.818V203.02V203.223V203.425V203.629V203.832V204.036V204.24V204.445V204.65V204.855V205.06V205.266V205.472V205.678V205.885V206.092V206.299V206.506V206.713V206.921V207.129V207.337V207.546V207.754V207.963V208.172V208.381V208.591V208.8V209.01V209.22V209.43V209.64V209.851V210.061V210.272V210.483V210.694V210.905V211.116V211.327V211.538V211.75V211.961V212.173V212.385V212.597V212.808V213.02V213.232V213.444V213.656V213.869V214.081V214.293V214.505V214.717V214.929V215.142V215.354V215.566V215.778V215.99V216.202V216.414V216.626V216.838V217.05V217.262V217.474V217.686V217.897V218.109V218.32V218.532V218.743V218.954V219.165V219.376V219.587V219.798V220.008V220.219V220.429V220.639V220.849V221.059V221.269V221.478V221.687V221.896V222.105V222.314V222.522V222.73V222.938V223.146V223.354V223.561V223.768V223.975V224.182V224.388V224.594V224.8V225.005V225.21V225.415V225.62V225.824V226.028V226.232V226.435V226.638V226.841V227.043V227.245V227.447V227.648V227.849V228.049V228.25V228.449V228.649V228.848V229.046V229.244V229.442V229.64V229.837V230.033V230.229V230.425V230.62V230.815V231.009V231.203V231.396V231.589V231.781V231.973V232.165V232.355V232.546V232.736V232.925V233.114V233.302V233.49V233.677V233.864V234.05V234.235V234.42V234.605V234.788V234.972V235.154V235.336V235.518V235.698V235.879V236.058V236.237V236.416V236.593V236.77V236.947V237.122V237.297V237.472V237.645V237.818V237.991V238.162V238.333V238.504V238.673V238.842V239.01V239.177V239.344V239.51V239.675V239.839V240.003V240.166V240.328V240.489V240.65V240.81V240.969V241.127V241.284V241.441V241.596V241.751V241.905V242.058V242.211V242.362V242.513V242.663V242.812V242.96V243.107V243.253V243.398V243.543V243.687V243.829V243.971V244.112V244.252V244.391V244.529V244.666V244.802V244.937V245.072V245.205V245.337V245.468V245.599V245.728V245.856V245.984V246.11V246.235V246.36V246.483V246.605V246.726V246.846V246.965V247.084V247.2V247.316V247.431V247.545V247.657V247.769V247.879V247.989V248.097V248.204V248.31V248.415V248.519V248.621V248.723V248.823V248.922V249.02V249.117V249.212V249.307V249.4V249.492V249.583V249.672V249.761V249.848V249.934V250.018V250.102V250.184V250.265V250.345V250.423V250.501V250.576V250.651V250.724V250.796V250.867V250.937V251.005V251.072V251.137V251.201V251.264V251.326V251.386V251.445V251.502V251.558V251.613V251.666V251.718V251.769V251.818V251.866V251.912V251.957V252.001V252.043V252.083V252.123V252.16V252.197V252.232V252.265V252.297V252.328V252.357V252.384V252.41V252.435V252.458V252.479V252.499V252.518V252.535V252.55V252.564Z" fill="#18181B" stroke="#18181B" stroke-width="3"/>
<path d="M435.5 178.723C435.5 179.154 435.3 179.725 434.602 180.444C433.899 181.17 432.786 181.941 431.222 182.722C428.098 184.281 423.481 185.728 417.652 186.959C406.019 189.415 389.877 190.946 372 190.946C354.123 190.946 337.981 189.415 326.348 186.959C320.519 185.728 315.902 184.281 312.778 182.722C311.213 181.941 310.101 181.17 309.398 180.444C308.7 179.725 308.5 179.154 308.5 178.723C308.5 178.291 308.7 177.721 309.398 177.001C310.101 176.276 311.213 175.504 312.778 174.723C315.902 173.164 320.519 171.718 326.348 170.487C337.981 168.031 354.123 166.5 372 166.5C389.877 166.5 406.019 168.031 417.652 170.487C423.481 171.718 428.098 173.164 431.222 174.723C432.786 175.504 433.899 176.276 434.602 177.001C435.3 177.721 435.5 178.291 435.5 178.723Z" fill="white" stroke="#18181B" stroke-width="3"/>
<path d="M337.713 230V220.382H339.127L342.501 226.668L345.875 220.382H347.289V230H345.875V223.154L342.501 229.44L339.127 223.154V230H337.713ZM352.839 228.936C353.595 228.936 354.477 228.6 354.911 228.152L355.779 229.048C355.135 229.734 353.875 230.168 352.853 230.168C350.837 230.168 349.129 228.586 349.129 226.36C349.129 224.19 350.739 222.594 352.741 222.594C354.953 222.594 356.227 224.274 356.227 226.864H350.529C350.711 228.068 351.593 228.936 352.839 228.936ZM352.797 223.826C351.677 223.826 350.767 224.582 350.543 225.758H354.883C354.729 224.638 354.043 223.826 352.797 223.826ZM360.451 230.168C359.387 230.168 358.225 229.79 357.357 229.09L358.015 228.096C358.785 228.656 359.611 228.978 360.465 228.978C361.277 228.978 361.837 228.6 361.837 228.04C361.837 227.368 361.095 227.158 360.199 226.906C358.533 226.444 357.707 225.968 357.707 224.792C357.693 223.462 358.799 222.594 360.339 222.594C361.277 222.594 362.229 222.916 363.013 223.434L362.397 224.456C361.697 224.022 360.969 223.784 360.339 223.784C359.625 223.784 359.065 224.092 359.065 224.638C359.065 225.198 359.513 225.366 360.731 225.744C361.921 226.094 363.195 226.486 363.195 227.928C363.195 229.3 362.033 230.168 360.451 230.168ZM367.424 230.168C366.36 230.168 365.198 229.79 364.33 229.09L364.988 228.096C365.758 228.656 366.584 228.978 367.438 228.978C368.25 228.978 368.81 228.6 368.81 228.04C368.81 227.368 368.068 227.158 367.172 226.906C365.506 226.444 364.68 225.968 364.68 224.792C364.666 223.462 365.772 222.594 367.312 222.594C368.25 222.594 369.202 222.916 369.986 223.434L369.37 224.456C368.67 224.022 367.942 223.784 367.312 223.784C366.598 223.784 366.038 224.092 366.038 224.638C366.038 225.198 366.486 225.366 367.704 225.744C368.894 226.094 370.168 226.486 370.168 227.928C370.168 229.3 369.006 230.168 367.424 230.168ZM374.817 222.594C376.763 222.594 377.841 223.826 377.841 225.618V230H376.483V229.006C375.951 229.762 374.957 230.168 374.075 230.168C372.535 230.168 371.401 229.272 371.401 227.858C371.401 226.416 372.703 225.45 374.299 225.45C375.013 225.45 375.783 225.604 376.483 225.842V225.618C376.483 224.708 376.063 223.742 374.621 223.742C373.907 223.742 373.207 224.022 372.577 224.344L372.073 223.322C373.109 222.804 374.019 222.594 374.817 222.594ZM374.341 229.076C375.237 229.076 376.245 228.628 376.483 227.732V226.766C375.895 226.584 375.223 226.486 374.509 226.486C373.543 226.486 372.731 227.032 372.731 227.816C372.731 228.6 373.431 229.076 374.341 229.076ZM385.347 222.762H386.733V229.23C386.733 231.092 385.207 232.408 383.065 232.408C381.847 232.408 380.727 232.002 380.041 231.442L380.587 230.406C381.119 230.91 381.987 231.204 382.855 231.204C384.409 231.204 385.347 230.462 385.347 229.202V228.152C384.773 228.978 383.877 229.468 382.785 229.468C380.881 229.468 379.495 228.04 379.495 226.024C379.495 224.008 380.881 222.594 382.785 222.594C383.877 222.594 384.801 223.112 385.347 223.924V222.762ZM383.135 228.264C384.423 228.264 385.347 227.34 385.347 226.024C385.347 224.722 384.423 223.798 383.135 223.798C381.847 223.798 380.937 224.722 380.937 226.024C380.937 227.34 381.847 228.264 383.135 228.264ZM389.486 221.558C389.01 221.558 388.646 221.166 388.646 220.718C388.646 220.284 389.01 219.892 389.486 219.892C389.934 219.892 390.312 220.284 390.312 220.718C390.312 221.166 389.934 221.558 389.486 221.558ZM388.786 230V222.762H390.172V230H388.786ZM395.859 222.594C397.455 222.594 398.575 223.756 398.575 225.394V230H397.217V225.632C397.217 224.554 396.531 223.798 395.551 223.798C394.543 223.798 393.675 224.456 393.563 225.31V230H392.177V222.762H393.563V223.812C393.997 223.098 394.879 222.594 395.859 222.594ZM406.06 222.762H407.446V229.23C407.446 231.092 405.92 232.408 403.778 232.408C402.56 232.408 401.44 232.002 400.754 231.442L401.3 230.406C401.832 230.91 402.7 231.204 403.568 231.204C405.122 231.204 406.06 230.462 406.06 229.202V228.152C405.486 228.978 404.59 229.468 403.498 229.468C401.594 229.468 400.208 228.04 400.208 226.024C400.208 224.008 401.594 222.594 403.498 222.594C404.59 222.594 405.514 223.112 406.06 223.924V222.762ZM403.848 228.264C405.136 228.264 406.06 227.34 406.06 226.024C406.06 224.722 405.136 223.798 403.848 223.798C402.56 223.798 401.65 224.722 401.65 226.024C401.65 227.34 402.56 228.264 403.848 228.264ZM351.071 244V234.382H355.635C357.245 234.382 358.379 235.376 358.379 236.776C358.379 237.784 357.875 238.414 357.007 238.904C358.127 239.45 358.771 240.318 358.771 241.382C358.771 242.922 357.539 244 355.817 244H351.071ZM352.485 238.386H355.285C356.251 238.386 356.937 237.812 356.937 237.014C356.937 236.216 356.251 235.628 355.285 235.628H352.485V238.386ZM352.485 242.754H355.495C356.573 242.754 357.329 242.096 357.329 241.172C357.329 240.248 356.573 239.59 355.495 239.59H352.485V242.754ZM361.955 238.148C362.417 237.196 363.397 236.594 364.643 236.594V237.798C363.145 237.798 362.081 238.624 361.955 239.884V244H360.569V236.762H361.955V238.148ZM369.207 244.168C367.135 244.168 365.385 242.432 365.385 240.374C365.385 238.316 367.135 236.594 369.207 236.594C371.265 236.594 373.001 238.316 373.001 240.374C373.001 242.432 371.265 244.168 369.207 244.168ZM369.207 242.964C370.509 242.964 371.615 241.788 371.615 240.374C371.615 238.974 370.509 237.798 369.207 237.798C367.877 237.798 366.771 238.974 366.771 240.374C366.771 241.788 367.877 242.964 369.207 242.964ZM381.202 236.762L378.08 240.038L381.062 244H379.41L377.142 240.962L375.98 242.138V244H374.608V234.214H375.98V240.458L379.522 236.762H381.202ZM385.665 242.936C386.421 242.936 387.303 242.6 387.737 242.152L388.605 243.048C387.961 243.734 386.701 244.168 385.679 244.168C383.663 244.168 381.955 242.586 381.955 240.36C381.955 238.19 383.565 236.594 385.567 236.594C387.779 236.594 389.053 238.274 389.053 240.864H383.355C383.537 242.068 384.419 242.936 385.665 242.936ZM385.623 237.826C384.503 237.826 383.593 238.582 383.369 239.758H387.709C387.555 238.638 386.869 237.826 385.623 237.826ZM392.115 238.148C392.577 237.196 393.557 236.594 394.803 236.594V237.798C393.305 237.798 392.241 238.624 392.115 239.884V244H390.729V236.762H392.115V238.148Z" fill="white"/>
<path d="M449 215C448.448 215 448 215.448 448 216C448 216.552 448.448 217 449 217V215ZM550.707 216.707C551.098 216.317 551.098 215.683 550.707 215.293L544.343 208.929C543.953 208.538 543.319 208.538 542.929 208.929C542.538 209.319 542.538 209.953 542.929 210.343L548.586 216L542.929 221.657C542.538 222.047 542.538 222.681 542.929 223.071C543.319 223.462 543.953 223.462 544.343 223.071L550.707 216.707ZM449 217H550V215H449V217Z" fill="#18181B"/>
<path d="M458.887 233.102C457.246 233.102 455.852 231.716 455.852 230.076C455.852 228.435 457.246 227.058 458.887 227.058C459.72 227.058 460.485 227.407 461.037 227.976L460.434 228.554C460.043 228.129 459.49 227.849 458.887 227.849C457.722 227.849 456.736 228.869 456.736 230.076C456.736 231.291 457.722 232.311 458.887 232.311C459.49 232.311 460.043 232.031 460.434 231.606L461.037 232.184C460.485 232.745 459.72 233.102 458.887 233.102ZM464.921 233.102C463.281 233.102 461.887 231.716 461.887 230.076C461.887 228.435 463.281 227.058 464.921 227.058C466.562 227.058 467.939 228.435 467.939 230.076C467.939 231.716 466.562 233.102 464.921 233.102ZM464.921 232.311C466.086 232.311 467.063 231.291 467.063 230.076C467.063 228.869 466.086 227.849 464.921 227.849C463.757 227.849 462.771 228.869 462.771 230.076C462.771 231.291 463.757 232.311 464.921 232.311ZM469.431 233V227.16H470.29L473.647 231.589V227.16H474.506V233H473.647L470.29 228.571V233H469.431ZM478.318 233.094C477.34 233.094 476.533 232.753 475.912 232.158L476.431 231.521C476.949 232.014 477.561 232.337 478.352 232.337C479.159 232.337 479.576 231.912 479.576 231.444C479.576 230.892 479.091 230.679 478.114 230.458C476.924 230.178 476.133 229.821 476.133 228.767C476.133 227.789 476.983 227.05 478.156 227.05C479.057 227.05 479.729 227.381 480.29 227.874L479.797 228.52C479.304 228.07 478.717 227.806 478.122 227.806C477.468 227.806 477.009 228.223 477.009 228.69C477.009 229.234 477.51 229.421 478.471 229.651C479.635 229.923 480.443 230.314 480.443 231.359C480.443 232.345 479.695 233.094 478.318 233.094ZM484.388 233.102C482.917 233.102 481.88 232.039 481.88 230.543V227.16H482.739V230.526C482.739 231.572 483.419 232.32 484.388 232.32C485.348 232.32 486.028 231.572 486.028 230.526V227.16H486.895V230.543C486.895 232.039 485.85 233.102 484.388 233.102ZM488.646 233V227.16H489.505L491.553 230.977L493.602 227.16H494.46V233H493.602V228.843L491.553 232.66L489.505 228.843V233H488.646ZM496.189 233V227.16H497.048V233H496.189ZM498.773 233V227.16H499.631L502.989 231.589V227.16H503.847V233H502.989L499.631 228.571V233H498.773ZM508.263 230.603V229.855H510.677V232.184C510.124 232.745 509.206 233.102 508.382 233.102C506.741 233.102 505.339 231.716 505.339 230.076C505.339 228.435 506.741 227.058 508.382 227.058C509.206 227.058 510.124 227.407 510.677 227.976L510.073 228.554C509.674 228.121 508.985 227.849 508.382 227.849C507.209 227.849 506.223 228.869 506.223 230.076C506.223 231.291 507.209 232.311 508.382 232.311C508.875 232.311 509.427 232.133 509.827 231.827V230.603H508.263ZM515.108 233V227.16H517.122C519.009 227.16 520.352 228.367 520.352 230.076C520.352 231.784 519.009 233 517.122 233H515.108ZM515.966 232.218H517.173C518.525 232.218 519.468 231.334 519.468 230.076C519.468 228.826 518.525 227.942 517.173 227.942H515.966V232.218ZM526.012 233L525.502 231.81H522.459L521.949 233H520.997L523.505 227.16H524.457L526.964 233H526.012ZM522.791 231.036H525.171L523.981 228.265L522.791 231.036ZM529.237 233V227.959H527.325V227.16H532.017V227.959H530.096V233H529.237ZM537.383 233L536.873 231.81H533.83L533.32 233H532.368L534.876 227.16H535.828L538.335 233H537.383ZM534.162 231.036H536.542L535.352 228.265L534.162 231.036Z" fill="#18181B"/>
<path d="M194 215C193.448 215 193 215.448 193 216C193 216.552 193.448 217 194 217V215ZM295.707 216.707C296.098 216.317 296.098 215.683 295.707 215.293L289.343 208.929C288.953 208.538 288.319 208.538 287.929 208.929C287.538 209.319 287.538 209.953 287.929 210.343L293.586 216L287.929 221.657C287.538 222.047 287.538 222.681 287.929 223.071C288.319 223.462 288.953 223.462 289.343 223.071L295.707 216.707ZM194 217H295V215H194V217Z" fill="#18181B"/>
<path d="M198.879 233V227.16H201.335C202.568 227.16 203.503 227.951 203.503 229.064C203.503 230.178 202.568 230.968 201.335 230.968H199.737V233H198.879ZM199.737 230.169H201.216C202.058 230.169 202.627 229.753 202.627 229.064C202.627 228.376 202.058 227.959 201.216 227.959H199.737V230.169ZM207.289 233.102C205.818 233.102 204.781 232.039 204.781 230.543V227.16H205.64V230.526C205.64 231.572 206.32 232.32 207.289 232.32C208.249 232.32 208.929 231.572 208.929 230.526V227.16H209.796V230.543C209.796 232.039 208.751 233.102 207.289 233.102ZM211.548 233V227.16H214.319C215.296 227.16 215.985 227.764 215.985 228.614C215.985 229.226 215.679 229.608 215.152 229.906C215.832 230.237 216.223 230.764 216.223 231.41C216.223 232.345 215.475 233 214.429 233H211.548ZM212.406 229.591H214.106C214.693 229.591 215.109 229.243 215.109 228.758C215.109 228.274 214.693 227.917 214.106 227.917H212.406V229.591ZM212.406 232.243H214.234C214.888 232.243 215.347 231.844 215.347 231.283C215.347 230.722 214.888 230.322 214.234 230.322H212.406V232.243ZM218.428 232.201H221.522V233H217.561V227.16H218.428V232.201ZM222.776 233V227.16H223.634V233H222.776ZM227.348 233.094C226.371 233.094 225.563 232.753 224.943 232.158L225.461 231.521C225.98 232.014 226.592 232.337 227.382 232.337C228.19 232.337 228.606 231.912 228.606 231.444C228.606 230.892 228.122 230.679 227.144 230.458C225.954 230.178 225.164 229.821 225.164 228.767C225.164 227.789 226.014 227.05 227.187 227.05C228.088 227.05 228.759 227.381 229.32 227.874L228.827 228.52C228.334 228.07 227.748 227.806 227.153 227.806C226.498 227.806 226.039 228.223 226.039 228.69C226.039 229.234 226.541 229.421 227.501 229.651C228.666 229.923 229.473 230.314 229.473 231.359C229.473 232.345 228.725 233.094 227.348 233.094ZM234.914 227.16H235.773V233H234.914V230.424H231.727V233H230.868V227.16H231.727V229.625H234.914V227.16ZM237.392 233V227.16H238.251V233H237.392ZM239.976 233V227.16H240.834L244.192 231.589V227.16H245.05V233H244.192L240.834 228.571V233H239.976ZM249.466 230.603V229.855H251.88V232.184C251.327 232.745 250.409 233.102 249.585 233.102C247.944 233.102 246.542 231.716 246.542 230.076C246.542 228.435 247.944 227.058 249.585 227.058C250.409 227.058 251.327 227.407 251.88 227.976L251.276 228.554C250.877 228.121 250.188 227.849 249.585 227.849C248.412 227.849 247.426 228.869 247.426 230.076C247.426 231.291 248.412 232.311 249.585 232.311C250.078 232.311 250.63 232.133 251.03 231.827V230.603H249.466ZM256.311 233V227.16H258.325C260.212 227.16 261.555 228.367 261.555 230.076C261.555 231.784 260.212 233 258.325 233H256.311ZM257.169 232.218H258.376C259.728 232.218 260.671 231.334 260.671 230.076C260.671 228.826 259.728 227.942 258.376 227.942H257.169V232.218ZM267.215 233L266.705 231.81H263.662L263.152 233H262.2L264.708 227.16H265.66L268.167 233H267.215ZM263.994 231.036H266.374L265.184 228.265L263.994 231.036ZM270.44 233V227.959H268.528V227.16H273.22V227.959H271.299V233H270.44ZM278.586 233L278.076 231.81H275.033L274.523 233H273.571L276.079 227.16H277.031L279.538 233H278.586ZM275.365 231.036H277.745L276.555 228.265L275.365 231.036Z" fill="#18181B"/>
<rect x="22.5" y="194.5" width="158" height="43" rx="14.5" fill="white" stroke="#18181B" stroke-width="3"/>
<path d="M71.5285 220V210.382H75.5745C77.6045 210.382 79.1445 211.684 79.1445 213.518C79.1445 215.352 77.6045 216.654 75.5745 216.654H72.9425V220H71.5285ZM72.9425 215.338H75.3785C76.7645 215.338 77.7025 214.652 77.7025 213.518C77.7025 212.384 76.7645 211.698 75.3785 211.698H72.9425V215.338ZM82.0343 214.148C82.4963 213.196 83.4763 212.594 84.7223 212.594V213.798C83.2243 213.798 82.1603 214.624 82.0343 215.884V220H80.6483V212.762H82.0343V214.148ZM89.2857 220.168C87.2137 220.168 85.4637 218.432 85.4637 216.374C85.4637 214.316 87.2137 212.594 89.2857 212.594C91.3437 212.594 93.0797 214.316 93.0797 216.374C93.0797 218.432 91.3437 220.168 89.2857 220.168ZM89.2857 218.964C90.5877 218.964 91.6937 217.788 91.6937 216.374C91.6937 214.974 90.5877 213.798 89.2857 213.798C87.9557 213.798 86.8497 214.974 86.8497 216.374C86.8497 217.788 87.9557 218.964 89.2857 218.964ZM100.273 210.214H101.645V220H100.273V218.74C99.7134 219.636 98.8174 220.168 97.6974 220.168C95.7934 220.168 94.3654 218.6 94.3654 216.374C94.3654 214.162 95.7934 212.594 97.6974 212.594C98.8174 212.594 99.7134 213.126 100.273 214.008V210.214ZM98.0334 218.964C99.3354 218.964 100.273 217.886 100.273 216.374C100.273 214.862 99.3354 213.798 98.0334 213.798C96.7034 213.798 95.7654 214.862 95.7654 216.374C95.7654 217.886 96.7034 218.964 98.0334 218.964ZM108.709 212.762H110.095V220H108.709V218.95C108.275 219.664 107.393 220.168 106.413 220.168C104.817 220.168 103.697 219.006 103.697 217.368V212.762H105.055V217.13C105.055 218.208 105.741 218.964 106.721 218.964C107.729 218.964 108.597 218.306 108.709 217.452V212.762ZM115.522 220.168C113.464 220.168 111.714 218.432 111.714 216.374C111.714 214.316 113.464 212.594 115.536 212.594C116.572 212.594 117.51 213.028 118.196 213.714L117.258 214.582C116.824 214.092 116.194 213.798 115.522 213.798C114.206 213.798 113.114 214.974 113.114 216.374C113.114 217.788 114.206 218.964 115.536 218.964C116.208 218.964 116.852 218.656 117.3 218.152L118.238 219.006C117.538 219.72 116.6 220.168 115.522 220.168ZM123.039 218.936C123.795 218.936 124.677 218.6 125.111 218.152L125.979 219.048C125.335 219.734 124.075 220.168 123.053 220.168C121.037 220.168 119.329 218.586 119.329 216.36C119.329 214.19 120.939 212.594 122.941 212.594C125.153 212.594 126.427 214.274 126.427 216.864H120.729C120.911 218.068 121.793 218.936 123.039 218.936ZM122.997 213.826C121.877 213.826 120.967 214.582 120.743 215.758H125.083C124.929 214.638 124.243 213.826 122.997 213.826ZM129.489 214.148C129.951 213.196 130.931 212.594 132.177 212.594V213.798C130.679 213.798 129.615 214.624 129.489 215.884V220H128.103V212.762H129.489V214.148Z" fill="#18181B"/>
<rect x="563.5" y="194.5" width="158" height="43" rx="14.5" fill="white" stroke="#18181B" stroke-width="3"/>
<path d="M613.84 220.168C611.138 220.168 608.842 217.886 608.842 215.184C608.842 212.482 611.138 210.214 613.84 210.214C615.212 210.214 616.472 210.788 617.382 211.726L616.388 212.678C615.744 211.978 614.834 211.516 613.84 211.516C611.922 211.516 610.298 213.196 610.298 215.184C610.298 217.186 611.922 218.866 613.84 218.866C614.834 218.866 615.744 218.404 616.388 217.704L617.382 218.656C616.472 219.58 615.212 220.168 613.84 220.168ZM622.192 220.168C620.12 220.168 618.37 218.432 618.37 216.374C618.37 214.316 620.12 212.594 622.192 212.594C624.25 212.594 625.986 214.316 625.986 216.374C625.986 218.432 624.25 220.168 622.192 220.168ZM622.192 218.964C623.494 218.964 624.6 217.788 624.6 216.374C624.6 214.974 623.494 213.798 622.192 213.798C620.862 213.798 619.756 214.974 619.756 216.374C619.756 217.788 620.862 218.964 622.192 218.964ZM631.29 212.594C632.886 212.594 634.006 213.756 634.006 215.394V220H632.648V215.632C632.648 214.554 631.962 213.798 630.982 213.798C629.974 213.798 629.106 214.456 628.994 215.31V220H627.608V212.762H628.994V213.812C629.428 213.098 630.31 212.594 631.29 212.594ZM638.606 220.168C637.542 220.168 636.38 219.79 635.512 219.09L636.17 218.096C636.94 218.656 637.766 218.978 638.62 218.978C639.432 218.978 639.992 218.6 639.992 218.04C639.992 217.368 639.25 217.158 638.354 216.906C636.688 216.444 635.862 215.968 635.862 214.792C635.848 213.462 636.954 212.594 638.494 212.594C639.432 212.594 640.384 212.916 641.168 213.434L640.552 214.456C639.852 214.022 639.124 213.784 638.494 213.784C637.78 213.784 637.22 214.092 637.22 214.638C637.22 215.198 637.668 215.366 638.886 215.744C640.076 216.094 641.35 216.486 641.35 217.928C641.35 219.3 640.188 220.168 638.606 220.168ZM647.945 212.762H649.331V220H647.945V218.95C647.511 219.664 646.629 220.168 645.649 220.168C644.053 220.168 642.933 219.006 642.933 217.368V212.762H644.291V217.13C644.291 218.208 644.977 218.964 645.957 218.964C646.965 218.964 647.833 218.306 647.945 217.452V212.762ZM659.434 212.594C660.946 212.594 662.038 213.756 662.038 215.394V220H660.68V215.604C660.68 214.54 660.05 213.798 659.14 213.798C658.104 213.798 657.376 214.484 657.376 215.478V220H656.018V215.604C656.018 214.54 655.388 213.798 654.478 213.798C653.442 213.798 652.714 214.484 652.714 215.478V220H651.328V212.762H652.714V213.77C653.078 213.056 653.834 212.594 654.758 212.594C655.808 212.594 656.662 213.154 657.082 214.05C657.418 213.154 658.342 212.594 659.434 212.594ZM667.347 218.936C668.103 218.936 668.985 218.6 669.419 218.152L670.287 219.048C669.643 219.734 668.383 220.168 667.361 220.168C665.345 220.168 663.637 218.586 663.637 216.36C663.637 214.19 665.247 212.594 667.249 212.594C669.461 212.594 670.735 214.274 670.735 216.864H665.037C665.219 218.068 666.101 218.936 667.347 218.936ZM667.305 213.826C666.185 213.826 665.275 214.582 665.051 215.758H669.391C669.237 214.638 668.551 213.826 667.305 213.826ZM673.798 214.148C674.26 213.196 675.24 212.594 676.486 212.594V213.798C674.988 213.798 673.924 214.624 673.798 215.884V220H672.412V212.762H673.798V214.148Z" fill="#18181B"/>
</g>
<defs>
<clipPath id="clip0_516_357358">
<rect width="743" height="431" fill="white"/>
</clipPath>
</defs>
</svg>
