<svg width="743" height="431" viewBox="0 0 743 431" fill="none" xmlns="http://www.w3.org/2000/svg">
<g clip-path="url(#clip0_516_355224)">
<rect width="743" height="431" fill="white"/>
<circle cx="388" cy="232" r="270" fill="#F4F4F5"/>
<circle cx="96.096" cy="329.096" r="4.09596" fill="#4C7C2C"/>
<circle cx="116.576" cy="329.096" r="4.09596" fill="#4C7C2C"/>
<circle cx="137.056" cy="329.096" r="4.09596" fill="#4C7C2C"/>
<circle cx="157.535" cy="329.096" r="4.09596" fill="#4C7C2C"/>
<circle cx="178.015" cy="329.096" r="4.09596" fill="#4C7C2C"/>
<circle cx="96.096" cy="349.576" r="4.09596" fill="#4C7C2C"/>
<circle cx="116.576" cy="349.576" r="4.09596" fill="#4C7C2C"/>
<circle cx="137.056" cy="349.576" r="4.09596" fill="#4C7C2C"/>
<circle cx="157.535" cy="349.576" r="4.09596" fill="#4C7C2C"/>
<circle cx="178.015" cy="349.576" r="4.09596" fill="#4C7C2C"/>
<circle cx="96.096" cy="370.056" r="4.09596" fill="#4C7C2C"/>
<circle cx="116.576" cy="370.056" r="4.09596" fill="#4C7C2C"/>
<circle cx="137.056" cy="370.056" r="4.09596" fill="#4C7C2C"/>
<circle cx="157.535" cy="370.056" r="4.09596" fill="#4C7C2C"/>
<circle cx="178.015" cy="370.056" r="4.09596" fill="#4C7C2C"/>
<circle cx="96.096" cy="390.535" r="4.09596" fill="#4C7C2C"/>
<circle cx="116.576" cy="390.535" r="4.09596" fill="#4C7C2C"/>
<circle cx="137.056" cy="390.535" r="4.09596" fill="#4C7C2C"/>
<circle cx="157.535" cy="390.535" r="4.09596" fill="#4C7C2C"/>
<circle cx="178.015" cy="390.535" r="4.09596" fill="#4C7C2C"/>
<circle cx="96.096" cy="411.015" r="4.09596" fill="#4C7C2C"/>
<circle cx="198.495" cy="411.015" r="4.09596" transform="rotate(-90 198.495 411.015)" fill="#4C7C2C"/>
<circle cx="116.576" cy="411.015" r="4.09596" fill="#4C7C2C"/>
<circle cx="198.495" cy="390.535" r="4.09596" transform="rotate(-90 198.495 390.535)" fill="#4C7C2C"/>
<circle cx="137.056" cy="411.015" r="4.09596" fill="#4C7C2C"/>
<circle cx="198.495" cy="370.055" r="4.09596" transform="rotate(-90 198.495 370.055)" fill="#4C7C2C"/>
<circle cx="157.535" cy="411.015" r="4.09596" fill="#4C7C2C"/>
<circle cx="198.495" cy="349.576" r="4.09596" transform="rotate(-90 198.495 349.576)" fill="#4C7C2C"/>
<circle cx="178.015" cy="411.015" r="4.09596" fill="#4C7C2C"/>
<circle cx="198.495" cy="329.096" r="4.09596" transform="rotate(-90 198.495 329.096)" fill="#4C7C2C"/>
<path d="M448.5 268.564C448.5 268.996 448.3 269.567 447.602 270.286C446.899 271.011 445.787 271.783 444.222 272.564C441.098 274.123 436.481 275.57 430.652 276.8C419.019 279.256 402.877 280.787 385 280.787C367.123 280.787 350.981 279.256 339.348 276.8C333.519 275.57 328.902 274.123 325.778 272.564C324.214 271.783 323.101 271.011 322.398 270.286C321.7 269.567 321.5 268.996 321.5 268.564L321.5 230.751L321.5 194.425C326.815 192.509 336.068 191.235 347.165 190.448C358.862 189.619 372.383 189.342 385 189.342C397.617 189.342 411.138 189.619 422.835 190.448C433.932 191.235 443.185 192.509 448.5 194.425V194.443V194.502V194.562V194.623V194.686V194.75V194.815V194.881V194.949V195.018V195.089V195.161V195.234V195.308V195.384V195.461V195.539V195.619V195.699V195.781V195.865V195.949V196.035V196.122V196.21V196.299V196.39V196.482V196.575V196.669V196.764V196.861V196.958V197.057V197.157V197.258V197.361V197.464V197.569V197.675V197.782V197.89V197.999V198.109V198.22V198.333V198.446V198.561V198.676V198.793V198.911V199.03V199.15V199.271V199.393V199.516V199.64V199.765V199.891V200.018V200.146V200.276V200.406V200.537V200.669V200.802V200.936V201.071V201.207V201.344V201.482V201.621V201.76V201.901V202.043V202.185V202.329V202.473V202.618V202.764V202.911V203.059V203.208V203.358V203.508V203.659V203.812V203.965V204.119V204.273V204.429V204.585V204.742V204.9V205.059V205.219V205.379V205.54V205.702V205.865V206.028V206.193V206.358V206.523V206.69V206.857V207.025V207.194V207.363V207.533V207.704V207.876V208.048V208.221V208.394V208.568V208.743V208.919V209.095V209.272V209.45V209.628V209.807V209.986V210.166V210.347V210.528V210.71V210.893V211.076V211.26V211.444V211.629V211.814V212V212.187V212.374V212.561V212.749V212.938V213.127V213.317V213.507V213.698V213.889V214.081V214.274V214.466V214.66V214.853V215.047V215.242V215.437V215.633V215.829V216.025V216.222V216.419V216.617V216.815V217.014V217.213V217.412V217.612V217.812V218.012V218.213V218.414V218.616V218.818V219.02V219.223V219.425V219.629V219.832V220.036V220.24V220.445V220.65V220.855V221.06V221.266V221.472V221.678V221.885V222.092V222.299V222.506V222.713V222.921V223.129V223.337V223.546V223.754V223.963V224.172V224.381V224.591V224.8V225.01V225.22V225.43V225.64V225.851V226.061V226.272V226.483V226.694V226.905V227.116V227.327V227.538V227.75V227.961V228.173V228.385V228.597V228.808V229.02V229.232V229.444V229.656V229.869V230.081V230.293V230.505V230.717V230.929V231.142V231.354V231.566V231.778V231.99V232.202V232.414V232.626V232.838V233.05V233.262V233.474V233.686V233.897V234.109V234.32V234.532V234.743V234.954V235.165V235.376V235.587V235.798V236.008V236.219V236.429V236.639V236.849V237.059V237.269V237.478V237.687V237.896V238.105V238.314V238.522V238.73V238.938V239.146V239.354V239.561V239.768V239.975V240.182V240.388V240.594V240.8V241.005V241.21V241.415V241.62V241.824V242.028V242.232V242.435V242.638V242.841V243.043V243.245V243.447V243.648V243.849V244.049V244.25V244.449V244.649V244.848V245.046V245.244V245.442V245.64V245.837V246.033V246.229V246.425V246.62V246.815V247.009V247.203V247.396V247.589V247.781V247.973V248.165V248.355V248.546V248.736V248.925V249.114V249.302V249.49V249.677V249.864V250.05V250.235V250.42V250.605V250.788V250.972V251.154V251.336V251.518V251.698V251.879V252.058V252.237V252.416V252.593V252.77V252.947V253.122V253.297V253.472V253.645V253.818V253.991V254.162V254.333V254.504V254.673V254.842V255.01V255.177V255.344V255.51V255.675V255.839V256.003V256.166V256.328V256.489V256.65V256.81V256.969V257.127V257.284V257.441V257.596V257.751V257.905V258.058V258.211V258.362V258.513V258.663V258.812V258.96V259.107V259.253V259.398V259.543V259.687V259.829V259.971V260.112V260.252V260.391V260.529V260.666V260.802V260.937V261.072V261.205V261.337V261.468V261.599V261.728V261.856V261.984V262.11V262.235V262.36V262.483V262.605V262.726V262.846V262.965V263.084V263.2V263.316V263.431V263.545V263.657V263.769V263.879V263.989V264.097V264.204V264.31V264.415V264.519V264.621V264.723V264.823V264.922V265.02V265.117V265.212V265.307V265.4V265.492V265.583V265.672V265.761V265.848V265.934V266.018V266.102V266.184V266.265V266.345V266.423V266.501V266.576V266.651V266.724V266.796V266.867V266.937V267.005V267.072V267.137V267.201V267.264V267.326V267.386V267.445V267.502V267.558V267.613V267.666V267.718V267.769V267.818V267.866V267.912V267.957V268.001V268.043V268.083V268.123V268.16V268.197V268.232V268.265V268.297V268.328V268.357V268.384V268.41V268.435V268.458V268.479V268.499V268.518V268.535V268.55V268.564Z" fill="#18181B" stroke="#18181B" stroke-width="3"/>
<path d="M448.5 194.723C448.5 195.154 448.3 195.725 447.602 196.444C446.899 197.17 445.786 197.941 444.222 198.722C441.098 200.281 436.481 201.728 430.652 202.959C419.019 205.415 402.877 206.946 385 206.946C367.123 206.946 350.981 205.415 339.348 202.959C333.519 201.728 328.902 200.281 325.778 198.722C324.213 197.941 323.101 197.17 322.398 196.444C321.7 195.725 321.5 195.154 321.5 194.723C321.5 194.291 321.7 193.721 322.398 193.001C323.101 192.276 324.213 191.504 325.778 190.723C328.902 189.164 333.519 187.718 339.348 186.487C350.981 184.031 367.123 182.5 385 182.5C402.877 182.5 419.019 184.031 430.652 186.487C436.481 187.718 441.098 189.164 444.222 190.723C445.786 191.504 446.899 192.276 447.602 193.001C448.3 193.721 448.5 194.291 448.5 194.723Z" fill="white" stroke="#18181B" stroke-width="3"/>
<path d="M350.713 246V236.382H352.127L355.501 242.668L358.875 236.382H360.289V246H358.875V239.154L355.501 245.44L352.127 239.154V246H350.713ZM365.839 244.936C366.595 244.936 367.477 244.6 367.911 244.152L368.779 245.048C368.135 245.734 366.875 246.168 365.853 246.168C363.837 246.168 362.129 244.586 362.129 242.36C362.129 240.19 363.739 238.594 365.741 238.594C367.953 238.594 369.227 240.274 369.227 242.864H363.529C363.711 244.068 364.593 244.936 365.839 244.936ZM365.797 239.826C364.677 239.826 363.767 240.582 363.543 241.758H367.883C367.729 240.638 367.043 239.826 365.797 239.826ZM373.451 246.168C372.387 246.168 371.225 245.79 370.357 245.09L371.015 244.096C371.785 244.656 372.611 244.978 373.465 244.978C374.277 244.978 374.837 244.6 374.837 244.04C374.837 243.368 374.095 243.158 373.199 242.906C371.533 242.444 370.707 241.968 370.707 240.792C370.693 239.462 371.799 238.594 373.339 238.594C374.277 238.594 375.229 238.916 376.013 239.434L375.397 240.456C374.697 240.022 373.969 239.784 373.339 239.784C372.625 239.784 372.065 240.092 372.065 240.638C372.065 241.198 372.513 241.366 373.731 241.744C374.921 242.094 376.195 242.486 376.195 243.928C376.195 245.3 375.033 246.168 373.451 246.168ZM380.424 246.168C379.36 246.168 378.198 245.79 377.33 245.09L377.988 244.096C378.758 244.656 379.584 244.978 380.438 244.978C381.25 244.978 381.81 244.6 381.81 244.04C381.81 243.368 381.068 243.158 380.172 242.906C378.506 242.444 377.68 241.968 377.68 240.792C377.666 239.462 378.772 238.594 380.312 238.594C381.25 238.594 382.202 238.916 382.986 239.434L382.37 240.456C381.67 240.022 380.942 239.784 380.312 239.784C379.598 239.784 379.038 240.092 379.038 240.638C379.038 241.198 379.486 241.366 380.704 241.744C381.894 242.094 383.168 242.486 383.168 243.928C383.168 245.3 382.006 246.168 380.424 246.168ZM387.817 238.594C389.763 238.594 390.841 239.826 390.841 241.618V246H389.483V245.006C388.951 245.762 387.957 246.168 387.075 246.168C385.535 246.168 384.401 245.272 384.401 243.858C384.401 242.416 385.703 241.45 387.299 241.45C388.013 241.45 388.783 241.604 389.483 241.842V241.618C389.483 240.708 389.063 239.742 387.621 239.742C386.907 239.742 386.207 240.022 385.577 240.344L385.073 239.322C386.109 238.804 387.019 238.594 387.817 238.594ZM387.341 245.076C388.237 245.076 389.245 244.628 389.483 243.732V242.766C388.895 242.584 388.223 242.486 387.509 242.486C386.543 242.486 385.731 243.032 385.731 243.816C385.731 244.6 386.431 245.076 387.341 245.076ZM398.347 238.762H399.733V245.23C399.733 247.092 398.207 248.408 396.065 248.408C394.847 248.408 393.727 248.002 393.041 247.442L393.587 246.406C394.119 246.91 394.987 247.204 395.855 247.204C397.409 247.204 398.347 246.462 398.347 245.202V244.152C397.773 244.978 396.877 245.468 395.785 245.468C393.881 245.468 392.495 244.04 392.495 242.024C392.495 240.008 393.881 238.594 395.785 238.594C396.877 238.594 397.801 239.112 398.347 239.924V238.762ZM396.135 244.264C397.423 244.264 398.347 243.34 398.347 242.024C398.347 240.722 397.423 239.798 396.135 239.798C394.847 239.798 393.937 240.722 393.937 242.024C393.937 243.34 394.847 244.264 396.135 244.264ZM402.486 237.558C402.01 237.558 401.646 237.166 401.646 236.718C401.646 236.284 402.01 235.892 402.486 235.892C402.934 235.892 403.312 236.284 403.312 236.718C403.312 237.166 402.934 237.558 402.486 237.558ZM401.786 246V238.762H403.172V246H401.786ZM408.859 238.594C410.455 238.594 411.575 239.756 411.575 241.394V246H410.217V241.632C410.217 240.554 409.531 239.798 408.551 239.798C407.543 239.798 406.675 240.456 406.563 241.31V246H405.177V238.762H406.563V239.812C406.997 239.098 407.879 238.594 408.859 238.594ZM419.06 238.762H420.446V245.23C420.446 247.092 418.92 248.408 416.778 248.408C415.56 248.408 414.44 248.002 413.754 247.442L414.3 246.406C414.832 246.91 415.7 247.204 416.568 247.204C418.122 247.204 419.06 246.462 419.06 245.202V244.152C418.486 244.978 417.59 245.468 416.498 245.468C414.594 245.468 413.208 244.04 413.208 242.024C413.208 240.008 414.594 238.594 416.498 238.594C417.59 238.594 418.514 239.112 419.06 239.924V238.762ZM416.848 244.264C418.136 244.264 419.06 243.34 419.06 242.024C419.06 240.722 418.136 239.798 416.848 239.798C415.56 239.798 414.65 240.722 414.65 242.024C414.65 243.34 415.56 244.264 416.848 244.264ZM364.071 260V250.382H368.635C370.245 250.382 371.379 251.376 371.379 252.776C371.379 253.784 370.875 254.414 370.007 254.904C371.127 255.45 371.771 256.318 371.771 257.382C371.771 258.922 370.539 260 368.817 260H364.071ZM365.485 254.386H368.285C369.251 254.386 369.937 253.812 369.937 253.014C369.937 252.216 369.251 251.628 368.285 251.628H365.485V254.386ZM365.485 258.754H368.495C369.573 258.754 370.329 258.096 370.329 257.172C370.329 256.248 369.573 255.59 368.495 255.59H365.485V258.754ZM374.955 254.148C375.417 253.196 376.397 252.594 377.643 252.594V253.798C376.145 253.798 375.081 254.624 374.955 255.884V260H373.569V252.762H374.955V254.148ZM382.207 260.168C380.135 260.168 378.385 258.432 378.385 256.374C378.385 254.316 380.135 252.594 382.207 252.594C384.265 252.594 386.001 254.316 386.001 256.374C386.001 258.432 384.265 260.168 382.207 260.168ZM382.207 258.964C383.509 258.964 384.615 257.788 384.615 256.374C384.615 254.974 383.509 253.798 382.207 253.798C380.877 253.798 379.771 254.974 379.771 256.374C379.771 257.788 380.877 258.964 382.207 258.964ZM394.202 252.762L391.08 256.038L394.062 260H392.41L390.142 256.962L388.98 258.138V260H387.608V250.214H388.98V256.458L392.522 252.762H394.202ZM398.665 258.936C399.421 258.936 400.303 258.6 400.737 258.152L401.605 259.048C400.961 259.734 399.701 260.168 398.679 260.168C396.663 260.168 394.955 258.586 394.955 256.36C394.955 254.19 396.565 252.594 398.567 252.594C400.779 252.594 402.053 254.274 402.053 256.864H396.355C396.537 258.068 397.419 258.936 398.665 258.936ZM398.623 253.826C397.503 253.826 396.593 254.582 396.369 255.758H400.709C400.555 254.638 399.869 253.826 398.623 253.826ZM405.115 254.148C405.577 253.196 406.557 252.594 407.803 252.594V253.798C406.305 253.798 405.241 254.624 405.115 255.884V260H403.729V252.762H405.115V254.148Z" fill="white"/>
<path d="M458 231C457.448 231 457 231.448 457 232C457 232.552 457.448 233 458 233V231ZM559.707 232.707C560.098 232.317 560.098 231.683 559.707 231.293L553.343 224.929C552.953 224.538 552.319 224.538 551.929 224.929C551.538 225.319 551.538 225.953 551.929 226.343L557.586 232L551.929 237.657C551.538 238.047 551.538 238.681 551.929 239.071C552.319 239.462 552.953 239.462 553.343 239.071L559.707 232.707ZM458 233H559V231H458V233Z" fill="#18181B"/>
<path d="M467.887 249.102C466.246 249.102 464.852 247.716 464.852 246.076C464.852 244.435 466.246 243.058 467.887 243.058C468.72 243.058 469.485 243.407 470.037 243.976L469.434 244.554C469.043 244.129 468.49 243.849 467.887 243.849C466.722 243.849 465.736 244.869 465.736 246.076C465.736 247.291 466.722 248.311 467.887 248.311C468.49 248.311 469.043 248.031 469.434 247.606L470.037 248.184C469.485 248.745 468.72 249.102 467.887 249.102ZM473.921 249.102C472.281 249.102 470.887 247.716 470.887 246.076C470.887 244.435 472.281 243.058 473.921 243.058C475.562 243.058 476.939 244.435 476.939 246.076C476.939 247.716 475.562 249.102 473.921 249.102ZM473.921 248.311C475.086 248.311 476.063 247.291 476.063 246.076C476.063 244.869 475.086 243.849 473.921 243.849C472.757 243.849 471.771 244.869 471.771 246.076C471.771 247.291 472.757 248.311 473.921 248.311ZM478.431 249V243.16H479.29L482.647 247.589V243.16H483.506V249H482.647L479.29 244.571V249H478.431ZM487.318 249.094C486.34 249.094 485.533 248.753 484.912 248.158L485.431 247.521C485.949 248.014 486.561 248.337 487.352 248.337C488.159 248.337 488.576 247.912 488.576 247.444C488.576 246.892 488.091 246.679 487.114 246.458C485.924 246.178 485.133 245.821 485.133 244.767C485.133 243.789 485.983 243.05 487.156 243.05C488.057 243.05 488.729 243.381 489.29 243.874L488.797 244.52C488.304 244.07 487.717 243.806 487.122 243.806C486.468 243.806 486.009 244.223 486.009 244.69C486.009 245.234 486.51 245.421 487.471 245.651C488.635 245.923 489.443 246.314 489.443 247.359C489.443 248.345 488.695 249.094 487.318 249.094ZM493.388 249.102C491.917 249.102 490.88 248.039 490.88 246.543V243.16H491.739V246.526C491.739 247.572 492.419 248.32 493.388 248.32C494.348 248.32 495.028 247.572 495.028 246.526V243.16H495.895V246.543C495.895 248.039 494.85 249.102 493.388 249.102ZM497.646 249V243.16H498.505L500.553 246.977L502.602 243.16H503.46V249H502.602V244.843L500.553 248.66L498.505 244.843V249H497.646ZM505.189 249V243.16H506.048V249H505.189ZM507.773 249V243.16H508.631L511.989 247.589V243.16H512.847V249H511.989L508.631 244.571V249H507.773ZM517.263 246.603V245.855H519.677V248.184C519.124 248.745 518.206 249.102 517.382 249.102C515.741 249.102 514.339 247.716 514.339 246.076C514.339 244.435 515.741 243.058 517.382 243.058C518.206 243.058 519.124 243.407 519.677 243.976L519.073 244.554C518.674 244.121 517.985 243.849 517.382 243.849C516.209 243.849 515.223 244.869 515.223 246.076C515.223 247.291 516.209 248.311 517.382 248.311C517.875 248.311 518.427 248.133 518.827 247.827V246.603H517.263ZM524.108 249V243.16H526.122C528.009 243.16 529.352 244.367 529.352 246.076C529.352 247.784 528.009 249 526.122 249H524.108ZM524.966 248.218H526.173C527.525 248.218 528.468 247.334 528.468 246.076C528.468 244.826 527.525 243.942 526.173 243.942H524.966V248.218ZM535.012 249L534.502 247.81H531.459L530.949 249H529.997L532.505 243.16H533.457L535.964 249H535.012ZM531.791 247.036H534.171L532.981 244.265L531.791 247.036ZM538.237 249V243.959H536.325V243.16H541.017V243.959H539.096V249H538.237ZM546.383 249L545.873 247.81H542.83L542.32 249H541.368L543.876 243.16H544.828L547.335 249H546.383ZM543.162 247.036H545.542L544.352 244.265L543.162 247.036Z" fill="#18181B"/>
<path d="M211 231C210.448 231 210 231.448 210 232C210 232.552 210.448 233 211 233V231ZM312.707 232.707C313.098 232.317 313.098 231.683 312.707 231.293L306.343 224.929C305.953 224.538 305.319 224.538 304.929 224.929C304.538 225.319 304.538 225.953 304.929 226.343L310.586 232L304.929 237.657C304.538 238.047 304.538 238.681 304.929 239.071C305.319 239.462 305.953 239.462 306.343 239.071L312.707 232.707ZM211 233H312V231H211V233Z" fill="#18181B"/>
<path d="M215.879 249V243.16H218.335C219.568 243.16 220.503 243.951 220.503 245.064C220.503 246.178 219.568 246.968 218.335 246.968H216.737V249H215.879ZM216.737 246.169H218.216C219.058 246.169 219.627 245.753 219.627 245.064C219.627 244.376 219.058 243.959 218.216 243.959H216.737V246.169ZM224.289 249.102C222.818 249.102 221.781 248.039 221.781 246.543V243.16H222.64V246.526C222.64 247.572 223.32 248.32 224.289 248.32C225.249 248.32 225.929 247.572 225.929 246.526V243.16H226.796V246.543C226.796 248.039 225.751 249.102 224.289 249.102ZM228.548 249V243.16H231.319C232.296 243.16 232.985 243.764 232.985 244.614C232.985 245.226 232.679 245.608 232.152 245.906C232.832 246.237 233.223 246.764 233.223 247.41C233.223 248.345 232.475 249 231.429 249H228.548ZM229.406 245.591H231.106C231.693 245.591 232.109 245.243 232.109 244.758C232.109 244.274 231.693 243.917 231.106 243.917H229.406V245.591ZM229.406 248.243H231.234C231.888 248.243 232.347 247.844 232.347 247.283C232.347 246.722 231.888 246.322 231.234 246.322H229.406V248.243ZM235.428 248.201H238.522V249H234.561V243.16H235.428V248.201ZM239.776 249V243.16H240.634V249H239.776ZM244.348 249.094C243.371 249.094 242.563 248.753 241.943 248.158L242.461 247.521C242.98 248.014 243.592 248.337 244.382 248.337C245.19 248.337 245.606 247.912 245.606 247.444C245.606 246.892 245.122 246.679 244.144 246.458C242.954 246.178 242.164 245.821 242.164 244.767C242.164 243.789 243.014 243.05 244.187 243.05C245.088 243.05 245.759 243.381 246.32 243.874L245.827 244.52C245.334 244.07 244.748 243.806 244.153 243.806C243.498 243.806 243.039 244.223 243.039 244.69C243.039 245.234 243.541 245.421 244.501 245.651C245.666 245.923 246.473 246.314 246.473 247.359C246.473 248.345 245.725 249.094 244.348 249.094ZM251.914 243.16H252.773V249H251.914V246.424H248.727V249H247.868V243.16H248.727V245.625H251.914V243.16ZM254.392 249V243.16H255.251V249H254.392ZM256.976 249V243.16H257.834L261.192 247.589V243.16H262.05V249H261.192L257.834 244.571V249H256.976ZM266.466 246.603V245.855H268.88V248.184C268.327 248.745 267.409 249.102 266.585 249.102C264.944 249.102 263.542 247.716 263.542 246.076C263.542 244.435 264.944 243.058 266.585 243.058C267.409 243.058 268.327 243.407 268.88 243.976L268.276 244.554C267.877 244.121 267.188 243.849 266.585 243.849C265.412 243.849 264.426 244.869 264.426 246.076C264.426 247.291 265.412 248.311 266.585 248.311C267.078 248.311 267.63 248.133 268.03 247.827V246.603H266.466ZM273.311 249V243.16H275.325C277.212 243.16 278.555 244.367 278.555 246.076C278.555 247.784 277.212 249 275.325 249H273.311ZM274.169 248.218H275.376C276.728 248.218 277.671 247.334 277.671 246.076C277.671 244.826 276.728 243.942 275.376 243.942H274.169V248.218ZM284.215 249L283.705 247.81H280.662L280.152 249H279.2L281.708 243.16H282.66L285.167 249H284.215ZM280.994 247.036H283.374L282.184 244.265L280.994 247.036ZM287.44 249V243.959H285.528V243.16H290.22V243.959H288.299V249H287.44ZM295.586 249L295.076 247.81H292.033L291.523 249H290.571L293.079 243.16H294.031L296.538 249H295.586ZM292.365 247.036H294.745L293.555 244.265L292.365 247.036Z" fill="#18181B"/>
<path d="M604.986 204.469C604.986 206.42 603.405 207.937 601.536 207.937C599.595 207.937 598.086 206.42 598.086 204.469C598.086 202.59 599.595 201 601.536 201C603.405 201 604.986 202.59 604.986 204.469ZM600.961 226.437V235.687C600.961 236.988 599.883 238 598.661 238C597.367 238 596.36 236.988 596.36 235.687V219.572L594.276 223.041C593.629 224.125 592.191 224.486 591.113 223.836C590.035 223.186 589.675 221.74 590.322 220.656L594.491 213.646C595.785 211.551 598.014 210.25 600.458 210.25H602.542C604.986 210.25 607.215 211.551 608.509 213.646L612.678 220.656C613.325 221.74 612.965 223.186 611.887 223.836C610.809 224.486 609.371 224.125 608.724 223.041L606.712 219.572V235.687C606.712 236.988 605.633 238 604.411 238C603.117 238 602.111 236.988 602.111 235.687V226.437H600.961Z" fill="#18181B"/>
<path d="M572.84 259.168C570.138 259.168 567.842 256.886 567.842 254.184C567.842 251.482 570.138 249.214 572.84 249.214C574.212 249.214 575.472 249.788 576.382 250.726L575.388 251.678C574.744 250.978 573.834 250.516 572.84 250.516C570.922 250.516 569.298 252.196 569.298 254.184C569.298 256.186 570.922 257.866 572.84 257.866C573.834 257.866 574.744 257.404 575.388 256.704L576.382 257.656C575.472 258.58 574.212 259.168 572.84 259.168ZM581.192 259.168C579.12 259.168 577.37 257.432 577.37 255.374C577.37 253.316 579.12 251.594 581.192 251.594C583.25 251.594 584.986 253.316 584.986 255.374C584.986 257.432 583.25 259.168 581.192 259.168ZM581.192 257.964C582.494 257.964 583.6 256.788 583.6 255.374C583.6 253.974 582.494 252.798 581.192 252.798C579.862 252.798 578.756 253.974 578.756 255.374C578.756 256.788 579.862 257.964 581.192 257.964ZM590.29 251.594C591.886 251.594 593.006 252.756 593.006 254.394V259H591.648V254.632C591.648 253.554 590.962 252.798 589.982 252.798C588.974 252.798 588.106 253.456 587.994 254.31V259H586.608V251.762H587.994V252.812C588.428 252.098 589.31 251.594 590.29 251.594ZM597.606 259.168C596.542 259.168 595.38 258.79 594.512 258.09L595.17 257.096C595.94 257.656 596.766 257.978 597.62 257.978C598.432 257.978 598.992 257.6 598.992 257.04C598.992 256.368 598.25 256.158 597.354 255.906C595.688 255.444 594.862 254.968 594.862 253.792C594.848 252.462 595.954 251.594 597.494 251.594C598.432 251.594 599.384 251.916 600.168 252.434L599.552 253.456C598.852 253.022 598.124 252.784 597.494 252.784C596.78 252.784 596.22 253.092 596.22 253.638C596.22 254.198 596.668 254.366 597.886 254.744C599.076 255.094 600.35 255.486 600.35 256.928C600.35 258.3 599.188 259.168 597.606 259.168ZM606.945 251.762H608.331V259H606.945V257.95C606.511 258.664 605.629 259.168 604.649 259.168C603.053 259.168 601.933 258.006 601.933 256.368V251.762H603.291V256.13C603.291 257.208 603.977 257.964 604.957 257.964C605.965 257.964 606.833 257.306 606.945 256.452V251.762ZM618.434 251.594C619.946 251.594 621.038 252.756 621.038 254.394V259H619.68V254.604C619.68 253.54 619.05 252.798 618.14 252.798C617.104 252.798 616.376 253.484 616.376 254.478V259H615.018V254.604C615.018 253.54 614.388 252.798 613.478 252.798C612.442 252.798 611.714 253.484 611.714 254.478V259H610.328V251.762H611.714V252.77C612.078 252.056 612.834 251.594 613.758 251.594C614.808 251.594 615.662 252.154 616.082 253.05C616.418 252.154 617.342 251.594 618.434 251.594ZM626.347 257.936C627.103 257.936 627.985 257.6 628.419 257.152L629.287 258.048C628.643 258.734 627.383 259.168 626.361 259.168C624.345 259.168 622.637 257.586 622.637 255.36C622.637 253.19 624.247 251.594 626.249 251.594C628.461 251.594 629.735 253.274 629.735 255.864H624.037C624.219 257.068 625.101 257.936 626.347 257.936ZM626.305 252.826C625.185 252.826 624.275 253.582 624.051 254.758H628.391C628.237 253.638 627.551 252.826 626.305 252.826ZM632.798 253.148C633.26 252.196 634.24 251.594 635.486 251.594V252.798C633.988 252.798 632.924 253.624 632.798 254.884V259H631.412V251.762H632.798V253.148Z" fill="#18181B"/>
<path d="M174.986 204.469C174.986 206.42 173.405 207.937 171.536 207.937C169.595 207.937 168.086 206.42 168.086 204.469C168.086 202.59 169.595 201 171.536 201C173.405 201 174.986 202.59 174.986 204.469ZM170.961 226.437V235.687C170.961 236.988 169.883 238 168.661 238C167.367 238 166.36 236.988 166.36 235.687V219.572L164.276 223.041C163.629 224.125 162.191 224.486 161.113 223.836C160.035 223.186 159.675 221.74 160.322 220.656L164.491 213.646C165.785 211.551 168.014 210.25 170.458 210.25H172.542C174.986 210.25 177.215 211.551 178.509 213.646L182.678 220.656C183.325 221.74 182.965 223.186 181.887 223.836C180.809 224.486 179.371 224.125 178.724 223.041L176.712 219.572V235.687C176.712 236.988 175.633 238 174.411 238C173.117 238 172.111 236.988 172.111 235.687V226.437H170.961Z" fill="#18181B"/>
<path d="M141.529 259V249.382H145.575C147.605 249.382 149.145 250.684 149.145 252.518C149.145 254.352 147.605 255.654 145.575 255.654H142.943V259H141.529ZM142.943 254.338H145.379C146.765 254.338 147.703 253.652 147.703 252.518C147.703 251.384 146.765 250.698 145.379 250.698H142.943V254.338ZM152.034 253.148C152.496 252.196 153.476 251.594 154.722 251.594V252.798C153.224 252.798 152.16 253.624 152.034 254.884V259H150.648V251.762H152.034V253.148ZM159.286 259.168C157.214 259.168 155.464 257.432 155.464 255.374C155.464 253.316 157.214 251.594 159.286 251.594C161.344 251.594 163.08 253.316 163.08 255.374C163.08 257.432 161.344 259.168 159.286 259.168ZM159.286 257.964C160.588 257.964 161.694 256.788 161.694 255.374C161.694 253.974 160.588 252.798 159.286 252.798C157.956 252.798 156.85 253.974 156.85 255.374C156.85 256.788 157.956 257.964 159.286 257.964ZM170.273 249.214H171.645V259H170.273V257.74C169.713 258.636 168.817 259.168 167.697 259.168C165.793 259.168 164.365 257.6 164.365 255.374C164.365 253.162 165.793 251.594 167.697 251.594C168.817 251.594 169.713 252.126 170.273 253.008V249.214ZM168.033 257.964C169.335 257.964 170.273 256.886 170.273 255.374C170.273 253.862 169.335 252.798 168.033 252.798C166.703 252.798 165.765 253.862 165.765 255.374C165.765 256.886 166.703 257.964 168.033 257.964ZM178.709 251.762H180.095V259H178.709V257.95C178.275 258.664 177.393 259.168 176.413 259.168C174.817 259.168 173.697 258.006 173.697 256.368V251.762H175.055V256.13C175.055 257.208 175.741 257.964 176.721 257.964C177.729 257.964 178.597 257.306 178.709 256.452V251.762ZM185.522 259.168C183.464 259.168 181.714 257.432 181.714 255.374C181.714 253.316 183.464 251.594 185.536 251.594C186.572 251.594 187.51 252.028 188.196 252.714L187.258 253.582C186.824 253.092 186.194 252.798 185.522 252.798C184.206 252.798 183.114 253.974 183.114 255.374C183.114 256.788 184.206 257.964 185.536 257.964C186.208 257.964 186.852 257.656 187.3 257.152L188.238 258.006C187.538 258.72 186.6 259.168 185.522 259.168ZM193.039 257.936C193.795 257.936 194.677 257.6 195.111 257.152L195.979 258.048C195.335 258.734 194.075 259.168 193.053 259.168C191.037 259.168 189.329 257.586 189.329 255.36C189.329 253.19 190.939 251.594 192.941 251.594C195.153 251.594 196.427 253.274 196.427 255.864H190.729C190.911 257.068 191.793 257.936 193.039 257.936ZM192.997 252.826C191.877 252.826 190.967 253.582 190.743 254.758H195.083C194.929 253.638 194.243 252.826 192.997 252.826ZM199.489 253.148C199.951 252.196 200.931 251.594 202.177 251.594V252.798C200.679 252.798 199.615 253.624 199.489 254.884V259H198.103V251.762H199.489V253.148Z" fill="#18181B"/>
</g>
<defs>
<clipPath id="clip0_516_355224">
<rect width="743" height="431" fill="white"/>
</clipPath>
</defs>
</svg>
