<svg width="887" height="431" viewBox="0 0 887 431" fill="none" xmlns="http://www.w3.org/2000/svg">
<g clip-path="url(#clip0_516_357493)">
<rect width="887" height="431" fill="white"/>
<circle cx="446" cy="216" r="254" fill="#F4F4F5"/>
<path d="M509.5 252.565C509.5 252.996 509.3 253.567 508.602 254.286C507.899 255.011 506.787 255.783 505.222 256.564C502.098 258.123 497.481 259.57 491.652 260.8C480.019 263.256 463.877 264.787 446 264.787C428.123 264.787 411.981 263.256 400.348 260.8C394.519 259.57 389.902 258.123 386.778 256.564C385.214 255.783 384.101 255.011 383.398 254.286C382.7 253.567 382.5 252.996 382.5 252.565L382.5 214.751L382.5 178.425C387.815 176.509 397.068 175.235 408.165 174.448C419.862 173.619 433.383 173.342 446 173.342C458.617 173.342 472.138 173.619 483.835 174.448C494.932 175.235 504.185 176.509 509.5 178.425V178.444V178.502V178.562V178.623V178.686V178.75V178.815V178.882V178.95V179.019V179.089V179.161V179.234V179.309V179.384V179.461V179.539V179.619V179.7V179.782V179.865V179.949V180.035V180.122V180.21V180.299V180.39V180.482V180.575V180.669V180.764V180.861V180.959V181.057V181.158V181.259V181.361V181.465V181.569V181.675V181.782V181.89V181.999V182.109V182.22V182.333V182.446V182.561V182.677V182.793V182.911V183.03V183.15V183.271V183.393V183.516V183.64V183.765V183.891V184.019V184.147V184.276V184.406V184.537V184.669V184.802V184.936V185.071V185.207V185.344V185.482V185.621V185.761V185.901V186.043V186.186V186.329V186.473V186.618V186.765V186.912V187.059V187.208V187.358V187.508V187.66V187.812V187.965V188.119V188.274V188.429V188.585V188.743V188.901V189.059V189.219V189.379V189.541V189.702V189.865V190.029V190.193V190.358V190.524V190.69V190.857V191.025V191.194V191.363V191.533V191.704V191.876V192.048V192.221V192.394V192.569V192.744V192.919V193.096V193.272V193.45V193.628V193.807V193.986V194.167V194.347V194.529V194.71V194.893V195.076V195.26V195.444V195.629V195.814V196V196.187V196.374V196.562V196.75V196.938V197.128V197.317V197.508V197.698V197.89V198.082V198.274V198.467V198.66V198.853V199.048V199.242V199.437V199.633V199.829V200.025V200.222V200.419V200.617V200.815V201.014V201.213V201.412V201.612V201.812V202.012V202.213V202.414V202.616V202.818V203.02V203.223V203.426V203.629V203.833V204.036V204.241V204.445V204.65V204.855V205.061V205.266V205.472V205.679V205.885V206.092V206.299V206.506V206.714V206.921V207.129V207.338V207.546V207.755V207.963V208.172V208.382V208.591V208.801V209.01V209.22V209.43V209.641V209.851V210.061V210.272V210.483V210.694V210.905V211.116V211.327V211.539V211.75V211.962V212.173V212.385V212.597V212.809V213.021V213.233V213.445V213.657V213.869V214.081V214.293V214.505V214.717V214.93V215.142V215.354V215.566V215.778V215.99V216.203V216.415V216.627V216.839V217.051V217.262V217.474V217.686V217.898V218.109V218.321V218.532V218.743V218.955V219.166V219.377V219.587V219.798V220.009V220.219V220.429V220.639V220.849V221.059V221.269V221.478V221.687V221.897V222.105V222.314V222.522V222.731V222.939V223.146V223.354V223.561V223.768V223.975V224.182V224.388V224.594V224.8V225.005V225.21V225.415V225.62V225.824V226.028V226.232V226.435V226.638V226.841V227.043V227.245V227.447V227.648V227.849V228.05V228.25V228.45V228.649V228.848V229.047V229.245V229.443V229.64V229.837V230.033V230.229V230.425V230.62V230.815V231.009V231.203V231.396V231.589V231.782V231.973V232.165V232.356V232.546V232.736V232.925V233.114V233.302V233.49V233.677V233.864V234.05V234.235V234.42V234.605V234.789V234.972V235.154V235.336V235.518V235.699V235.879V236.058V236.237V236.416V236.593V236.77V236.947V237.123V237.298V237.472V237.646V237.819V237.991V238.163V238.334V238.504V238.673V238.842V239.01V239.178V239.344V239.51V239.675V239.84V240.003V240.166V240.328V240.49V240.65V240.81V240.969V241.127V241.284V241.441V241.596V241.751V241.905V242.059V242.211V242.362V242.513V242.663V242.812V242.96V243.107V243.253V243.399V243.543V243.687V243.83V243.971V244.112V244.252V244.391V244.529V244.666V244.802V244.938V245.072V245.205V245.337V245.469V245.599V245.728V245.857V245.984V246.11V246.236V246.36V246.483V246.605V246.727V246.847V246.966V247.084V247.201V247.317V247.431V247.545V247.658V247.769V247.88V247.989V248.097V248.204V248.31V248.415V248.519V248.621V248.723V248.823V248.922V249.02V249.117V249.212V249.307V249.4V249.492V249.583V249.673V249.761V249.848V249.934V250.019V250.102V250.184V250.265V250.345V250.424V250.501V250.577V250.651V250.725V250.797V250.867V250.937V251.005V251.072V251.137V251.202V251.264V251.326V251.386V251.445V251.502V251.558V251.613V251.666V251.718V251.769V251.818V251.866V251.912V251.957V252.001V252.043V252.084V252.123V252.161V252.197V252.232V252.265V252.297V252.328V252.357V252.384V252.41V252.435V252.458V252.48V252.5V252.518V252.535V252.551V252.565Z" fill="#18181B" stroke="#18181B" stroke-width="3"/>
<path d="M509.5 178.723C509.5 179.154 509.3 179.725 508.602 180.444C507.899 181.17 506.786 181.941 505.222 182.722C502.098 184.281 497.481 185.728 491.652 186.959C480.019 189.415 463.877 190.946 446 190.946C428.123 190.946 411.981 189.415 400.348 186.959C394.519 185.728 389.902 184.281 386.778 182.722C385.213 181.941 384.101 181.17 383.398 180.444C382.7 179.725 382.5 179.154 382.5 178.723C382.5 178.291 382.7 177.721 383.398 177.001C384.101 176.276 385.213 175.504 386.778 174.723C389.902 173.164 394.519 171.718 400.348 170.487C411.981 168.031 428.123 166.5 446 166.5C463.877 166.5 480.019 168.031 491.652 170.487C497.481 171.718 502.098 173.164 505.222 174.723C506.786 175.504 507.899 176.276 508.602 177.001C509.3 177.721 509.5 178.291 509.5 178.723Z" fill="white" stroke="#18181B" stroke-width="3"/>
<path d="M411.713 230V220.382H413.127L416.501 226.668L419.875 220.382H421.289V230H419.875V223.154L416.501 229.44L413.127 223.154V230H411.713ZM426.839 228.936C427.595 228.936 428.477 228.6 428.911 228.152L429.779 229.048C429.135 229.734 427.875 230.168 426.853 230.168C424.837 230.168 423.129 228.586 423.129 226.36C423.129 224.19 424.739 222.594 426.741 222.594C428.953 222.594 430.227 224.274 430.227 226.864H424.529C424.711 228.068 425.593 228.936 426.839 228.936ZM426.797 223.826C425.677 223.826 424.767 224.582 424.543 225.758H428.883C428.729 224.638 428.043 223.826 426.797 223.826ZM434.451 230.168C433.387 230.168 432.225 229.79 431.357 229.09L432.015 228.096C432.785 228.656 433.611 228.978 434.465 228.978C435.277 228.978 435.837 228.6 435.837 228.04C435.837 227.368 435.095 227.158 434.199 226.906C432.533 226.444 431.707 225.968 431.707 224.792C431.693 223.462 432.799 222.594 434.339 222.594C435.277 222.594 436.229 222.916 437.013 223.434L436.397 224.456C435.697 224.022 434.969 223.784 434.339 223.784C433.625 223.784 433.065 224.092 433.065 224.638C433.065 225.198 433.513 225.366 434.731 225.744C435.921 226.094 437.195 226.486 437.195 227.928C437.195 229.3 436.033 230.168 434.451 230.168ZM441.424 230.168C440.36 230.168 439.198 229.79 438.33 229.09L438.988 228.096C439.758 228.656 440.584 228.978 441.438 228.978C442.25 228.978 442.81 228.6 442.81 228.04C442.81 227.368 442.068 227.158 441.172 226.906C439.506 226.444 438.68 225.968 438.68 224.792C438.666 223.462 439.772 222.594 441.312 222.594C442.25 222.594 443.202 222.916 443.986 223.434L443.37 224.456C442.67 224.022 441.942 223.784 441.312 223.784C440.598 223.784 440.038 224.092 440.038 224.638C440.038 225.198 440.486 225.366 441.704 225.744C442.894 226.094 444.168 226.486 444.168 227.928C444.168 229.3 443.006 230.168 441.424 230.168ZM448.817 222.594C450.763 222.594 451.841 223.826 451.841 225.618V230H450.483V229.006C449.951 229.762 448.957 230.168 448.075 230.168C446.535 230.168 445.401 229.272 445.401 227.858C445.401 226.416 446.703 225.45 448.299 225.45C449.013 225.45 449.783 225.604 450.483 225.842V225.618C450.483 224.708 450.063 223.742 448.621 223.742C447.907 223.742 447.207 224.022 446.577 224.344L446.073 223.322C447.109 222.804 448.019 222.594 448.817 222.594ZM448.341 229.076C449.237 229.076 450.245 228.628 450.483 227.732V226.766C449.895 226.584 449.223 226.486 448.509 226.486C447.543 226.486 446.731 227.032 446.731 227.816C446.731 228.6 447.431 229.076 448.341 229.076ZM459.347 222.762H460.733V229.23C460.733 231.092 459.207 232.408 457.065 232.408C455.847 232.408 454.727 232.002 454.041 231.442L454.587 230.406C455.119 230.91 455.987 231.204 456.855 231.204C458.409 231.204 459.347 230.462 459.347 229.202V228.152C458.773 228.978 457.877 229.468 456.785 229.468C454.881 229.468 453.495 228.04 453.495 226.024C453.495 224.008 454.881 222.594 456.785 222.594C457.877 222.594 458.801 223.112 459.347 223.924V222.762ZM457.135 228.264C458.423 228.264 459.347 227.34 459.347 226.024C459.347 224.722 458.423 223.798 457.135 223.798C455.847 223.798 454.937 224.722 454.937 226.024C454.937 227.34 455.847 228.264 457.135 228.264ZM463.486 221.558C463.01 221.558 462.646 221.166 462.646 220.718C462.646 220.284 463.01 219.892 463.486 219.892C463.934 219.892 464.312 220.284 464.312 220.718C464.312 221.166 463.934 221.558 463.486 221.558ZM462.786 230V222.762H464.172V230H462.786ZM469.859 222.594C471.455 222.594 472.575 223.756 472.575 225.394V230H471.217V225.632C471.217 224.554 470.531 223.798 469.551 223.798C468.543 223.798 467.675 224.456 467.563 225.31V230H466.177V222.762H467.563V223.812C467.997 223.098 468.879 222.594 469.859 222.594ZM480.06 222.762H481.446V229.23C481.446 231.092 479.92 232.408 477.778 232.408C476.56 232.408 475.44 232.002 474.754 231.442L475.3 230.406C475.832 230.91 476.7 231.204 477.568 231.204C479.122 231.204 480.06 230.462 480.06 229.202V228.152C479.486 228.978 478.59 229.468 477.498 229.468C475.594 229.468 474.208 228.04 474.208 226.024C474.208 224.008 475.594 222.594 477.498 222.594C478.59 222.594 479.514 223.112 480.06 223.924V222.762ZM477.848 228.264C479.136 228.264 480.06 227.34 480.06 226.024C480.06 224.722 479.136 223.798 477.848 223.798C476.56 223.798 475.65 224.722 475.65 226.024C475.65 227.34 476.56 228.264 477.848 228.264ZM425.071 244V234.382H429.635C431.245 234.382 432.379 235.376 432.379 236.776C432.379 237.784 431.875 238.414 431.007 238.904C432.127 239.45 432.771 240.318 432.771 241.382C432.771 242.922 431.539 244 429.817 244H425.071ZM426.485 238.386H429.285C430.251 238.386 430.937 237.812 430.937 237.014C430.937 236.216 430.251 235.628 429.285 235.628H426.485V238.386ZM426.485 242.754H429.495C430.573 242.754 431.329 242.096 431.329 241.172C431.329 240.248 430.573 239.59 429.495 239.59H426.485V242.754ZM435.955 238.148C436.417 237.196 437.397 236.594 438.643 236.594V237.798C437.145 237.798 436.081 238.624 435.955 239.884V244H434.569V236.762H435.955V238.148ZM443.207 244.168C441.135 244.168 439.385 242.432 439.385 240.374C439.385 238.316 441.135 236.594 443.207 236.594C445.265 236.594 447.001 238.316 447.001 240.374C447.001 242.432 445.265 244.168 443.207 244.168ZM443.207 242.964C444.509 242.964 445.615 241.788 445.615 240.374C445.615 238.974 444.509 237.798 443.207 237.798C441.877 237.798 440.771 238.974 440.771 240.374C440.771 241.788 441.877 242.964 443.207 242.964ZM455.202 236.762L452.08 240.038L455.062 244H453.41L451.142 240.962L449.98 242.138V244H448.608V234.214H449.98V240.458L453.522 236.762H455.202ZM459.665 242.936C460.421 242.936 461.303 242.6 461.737 242.152L462.605 243.048C461.961 243.734 460.701 244.168 459.679 244.168C457.663 244.168 455.955 242.586 455.955 240.36C455.955 238.19 457.565 236.594 459.567 236.594C461.779 236.594 463.053 238.274 463.053 240.864H457.355C457.537 242.068 458.419 242.936 459.665 242.936ZM459.623 237.826C458.503 237.826 457.593 238.582 457.369 239.758H461.709C461.555 238.638 460.869 237.826 459.623 237.826ZM466.115 238.148C466.577 237.196 467.557 236.594 468.803 236.594V237.798C467.305 237.798 466.241 238.624 466.115 239.884V244H464.729V236.762H466.115V238.148Z" fill="white"/>
<path d="M519 214.5C518.172 214.5 517.5 215.172 517.5 216C517.5 216.828 518.172 217.5 519 217.5V214.5ZM660.061 217.061C660.646 216.475 660.646 215.525 660.061 214.939L650.515 205.393C649.929 204.808 648.979 204.808 648.393 205.393C647.808 205.979 647.808 206.929 648.393 207.515L656.879 216L648.393 224.485C647.808 225.071 647.808 226.021 648.393 226.607C648.979 227.192 649.929 227.192 650.515 226.607L660.061 217.061ZM519 217.5H659V214.5H519V217.5Z" fill="#18181B"/>
<path d="M519.836 214.755C519.148 214.293 518.216 214.476 517.755 215.164C517.293 215.852 517.476 216.784 518.164 217.245L519.836 214.755ZM659.289 311.472C660.102 311.312 660.632 310.524 660.472 309.711L657.868 296.464C657.708 295.651 656.92 295.122 656.107 295.282C655.294 295.441 654.764 296.23 654.924 297.043L657.239 308.818L645.464 311.132C644.651 311.292 644.122 312.08 644.282 312.893C644.441 313.706 645.23 314.236 646.043 314.076L659.289 311.472ZM518.164 217.245L658.164 311.245L659.836 308.755L519.836 214.755L518.164 217.245Z" fill="#18181B"/>
<path d="M518.189 214.738C517.492 215.186 517.29 216.114 517.738 216.811C518.186 217.508 519.114 217.71 519.811 217.262L518.189 214.738ZM660.466 126.319C660.642 125.509 660.128 124.71 659.319 124.534L646.127 121.666C645.317 121.49 644.518 122.004 644.342 122.814C644.166 123.623 644.68 124.422 645.489 124.598L657.216 127.147L654.666 138.873C654.49 139.683 655.004 140.482 655.814 140.658C656.623 140.834 657.422 140.32 657.598 139.511L660.466 126.319ZM519.811 217.262L659.811 127.262L658.189 124.738L518.189 214.738L519.811 217.262Z" fill="#18181B"/>
<path d="M573.184 233.094C572.206 233.094 571.399 232.753 570.778 232.158L571.297 231.521C571.815 232.014 572.427 232.337 573.218 232.337C574.025 232.337 574.442 231.912 574.442 231.444C574.442 230.892 573.957 230.679 572.98 230.458C571.79 230.178 570.999 229.821 570.999 228.767C570.999 227.789 571.849 227.05 573.022 227.05C573.923 227.05 574.595 227.381 575.156 227.874L574.663 228.52C574.17 228.07 573.583 227.806 572.988 227.806C572.334 227.806 571.875 228.223 571.875 228.69C571.875 229.234 572.376 229.421 573.337 229.651C574.501 229.923 575.309 230.314 575.309 231.359C575.309 232.345 574.561 233.094 573.184 233.094ZM579.254 233.102C577.783 233.102 576.746 232.039 576.746 230.543V227.16H577.605V230.526C577.605 231.572 578.285 232.32 579.254 232.32C580.214 232.32 580.894 231.572 580.894 230.526V227.16H581.761V230.543C581.761 232.039 580.716 233.102 579.254 233.102ZM583.512 233V227.16H586.283C587.261 227.16 587.949 227.764 587.949 228.614C587.949 229.226 587.643 229.608 587.116 229.906C587.796 230.237 588.187 230.764 588.187 231.41C588.187 232.345 587.439 233 586.394 233H583.512ZM584.371 229.591H586.071C586.657 229.591 587.074 229.243 587.074 228.758C587.074 228.274 586.657 227.917 586.071 227.917H584.371V229.591ZM584.371 232.243H586.198C586.853 232.243 587.312 231.844 587.312 231.283C587.312 230.722 586.853 230.322 586.198 230.322H584.371V232.243ZM591.693 233.094C590.716 233.094 589.908 232.753 589.288 232.158L589.806 231.521C590.325 232.014 590.937 232.337 591.727 232.337C592.535 232.337 592.951 231.912 592.951 231.444C592.951 230.892 592.467 230.679 591.489 230.458C590.299 230.178 589.509 229.821 589.509 228.767C589.509 227.789 590.359 227.05 591.532 227.05C592.433 227.05 593.104 227.381 593.665 227.874L593.172 228.52C592.679 228.07 592.093 227.806 591.498 227.806C590.843 227.806 590.384 228.223 590.384 228.69C590.384 229.234 590.886 229.421 591.846 229.651C593.011 229.923 593.818 230.314 593.818 231.359C593.818 232.345 593.07 233.094 591.693 233.094ZM598.018 233.102C596.378 233.102 594.984 231.716 594.984 230.076C594.984 228.435 596.378 227.058 598.018 227.058C598.851 227.058 599.616 227.407 600.169 227.976L599.565 228.554C599.174 228.129 598.622 227.849 598.018 227.849C596.854 227.849 595.868 228.869 595.868 230.076C595.868 231.291 596.854 232.311 598.018 232.311C598.622 232.311 599.174 232.031 599.565 231.606L600.169 232.184C599.616 232.745 598.851 233.102 598.018 233.102ZM605.996 229.064C605.996 229.965 605.384 230.654 604.5 230.883L605.988 233H605.002L603.574 230.968H602.231V233H601.372V227.16H603.829C605.061 227.16 605.996 227.951 605.996 229.064ZM602.231 227.959V230.169H603.71C604.551 230.169 605.121 229.753 605.121 229.064C605.121 228.376 604.551 227.959 603.71 227.959H602.231ZM607.324 233V227.16H608.182V233H607.324ZM609.907 233V227.16H612.678C613.656 227.16 614.344 227.764 614.344 228.614C614.344 229.226 614.038 229.608 613.511 229.906C614.191 230.237 614.582 230.764 614.582 231.41C614.582 232.345 613.834 233 612.789 233H609.907ZM610.766 229.591H612.466C613.052 229.591 613.469 229.243 613.469 228.758C613.469 228.274 613.052 227.917 612.466 227.917H610.766V229.591ZM610.766 232.243H612.593C613.248 232.243 613.707 231.844 613.707 231.283C613.707 230.722 613.248 230.322 612.593 230.322H610.766V232.243ZM620.29 227.959H616.864V229.625H619.958V230.424H616.864V232.201H620.29V233H615.997V227.16H620.29V227.959ZM621.81 233V227.16H623.824C625.711 227.16 627.054 228.367 627.054 230.076C627.054 231.784 625.711 233 623.824 233H621.81ZM622.668 232.218H623.875C625.227 232.218 626.17 231.334 626.17 230.076C626.17 228.826 625.227 227.942 623.875 227.942H622.668V232.218Z" fill="#18181B"/>
<path d="M232 214.5C231.172 214.5 230.5 215.172 230.5 216C230.5 216.828 231.172 217.5 232 217.5V214.5ZM374.061 217.061C374.646 216.475 374.646 215.525 374.061 214.939L364.515 205.393C363.929 204.808 362.979 204.808 362.393 205.393C361.808 205.979 361.808 206.929 362.393 207.515L370.879 216L362.393 224.485C361.808 225.071 361.808 226.021 362.393 226.607C362.979 227.192 363.929 227.192 364.515 226.607L374.061 217.061ZM232 217.5L373 217.5V214.5L232 214.5V217.5Z" fill="#18181B"/>
<path d="M231.325 309.66C230.585 310.033 230.288 310.935 230.66 311.675C231.033 312.415 231.935 312.712 232.675 312.34L231.325 309.66ZM374.424 240.47C374.684 239.684 374.257 238.835 373.47 238.576L360.651 234.343C359.864 234.083 359.016 234.51 358.756 235.297C358.497 236.084 358.924 236.932 359.71 237.192L371.105 240.954L367.343 252.349C367.083 253.136 367.51 253.984 368.297 254.244C369.084 254.503 369.932 254.076 370.192 253.29L374.424 240.47ZM232.675 312.34L373.675 241.34L372.325 238.66L231.325 309.66L232.675 312.34Z" fill="#18181B"/>
<path d="M232.667 120.656C231.925 120.288 231.025 120.591 230.656 121.333C230.288 122.075 230.591 122.975 231.333 123.344L232.667 120.656ZM373.478 193.422C374.264 193.157 374.686 192.307 374.422 191.522L370.116 178.727C369.852 177.941 369.001 177.519 368.216 177.783C367.431 178.047 367.009 178.898 367.273 179.683L371.1 191.057L359.727 194.884C358.941 195.148 358.519 195.999 358.783 196.784C359.047 197.569 359.898 197.991 360.683 197.727L373.478 193.422ZM231.333 123.344L372.333 193.344L373.667 190.656L232.667 120.656L231.333 123.344Z" fill="#18181B"/>
<path d="M244.916 233V227.16H247.372C248.605 227.16 249.54 227.951 249.54 229.064C249.54 230.178 248.605 230.968 247.372 230.968H245.774V233H244.916ZM245.774 230.169H247.253C248.095 230.169 248.664 229.753 248.664 229.064C248.664 228.376 248.095 227.959 247.253 227.959H245.774V230.169ZM253.326 233.102C251.855 233.102 250.818 232.039 250.818 230.543V227.16H251.677V230.526C251.677 231.572 252.357 232.32 253.326 232.32C254.286 232.32 254.966 231.572 254.966 230.526V227.16H255.833V230.543C255.833 232.039 254.788 233.102 253.326 233.102ZM257.584 233V227.16H260.355C261.333 227.16 262.021 227.764 262.021 228.614C262.021 229.226 261.715 229.608 261.188 229.906C261.868 230.237 262.259 230.764 262.259 231.41C262.259 232.345 261.511 233 260.466 233H257.584ZM258.443 229.591H260.143C260.729 229.591 261.146 229.243 261.146 228.758C261.146 228.274 260.729 227.917 260.143 227.917H258.443V229.591ZM258.443 232.243H260.27C260.925 232.243 261.384 231.844 261.384 231.283C261.384 230.722 260.925 230.322 260.27 230.322H258.443V232.243ZM264.465 232.201H267.559V233H263.598V227.16H264.465V232.201ZM268.812 233V227.16H269.671V233H268.812ZM273.385 233.094C272.407 233.094 271.6 232.753 270.979 232.158L271.498 231.521C272.016 232.014 272.628 232.337 273.419 232.337C274.226 232.337 274.643 231.912 274.643 231.444C274.643 230.892 274.158 230.679 273.181 230.458C271.991 230.178 271.2 229.821 271.2 228.767C271.2 227.789 272.05 227.05 273.223 227.05C274.124 227.05 274.796 227.381 275.357 227.874L274.864 228.52C274.371 228.07 273.784 227.806 273.189 227.806C272.535 227.806 272.076 228.223 272.076 228.69C272.076 229.234 272.577 229.421 273.538 229.651C274.702 229.923 275.51 230.314 275.51 231.359C275.51 232.345 274.762 233.094 273.385 233.094ZM280.951 227.16H281.809V233H280.951V230.424H277.763V233H276.905V227.16H277.763V229.625H280.951V227.16ZM283.429 233V227.16H284.288V233H283.429ZM286.012 233V227.16H286.871L290.228 231.589V227.16H291.087V233H290.228L286.871 228.571V233H286.012ZM295.503 230.603V229.855H297.917V232.184C297.364 232.745 296.446 233.102 295.622 233.102C293.981 233.102 292.579 231.716 292.579 230.076C292.579 228.435 293.981 227.058 295.622 227.058C296.446 227.058 297.364 227.407 297.917 227.976L297.313 228.554C296.914 228.121 296.225 227.849 295.622 227.849C294.449 227.849 293.463 228.869 293.463 230.076C293.463 231.291 294.449 232.311 295.622 232.311C296.115 232.311 296.667 232.133 297.067 231.827V230.603H295.503ZM302.347 233V227.16H304.362C306.249 227.16 307.592 228.367 307.592 230.076C307.592 231.784 306.249 233 304.362 233H302.347ZM303.206 232.218H304.413C305.764 232.218 306.708 231.334 306.708 230.076C306.708 228.826 305.764 227.942 304.413 227.942H303.206V232.218ZM313.252 233L312.742 231.81H309.699L309.189 233H308.237L310.744 227.16H311.696L314.204 233H313.252ZM310.03 231.036H312.41L311.22 228.265L310.03 231.036ZM316.477 233V227.959H314.565V227.16H319.257V227.959H317.336V233H316.477ZM324.623 233L324.113 231.81H321.07L320.56 233H319.608L322.116 227.16H323.068L325.575 233H324.623ZM321.402 231.036H323.782L322.592 228.265L321.402 231.036Z" fill="#18181B"/>
<circle cx="182.963" cy="356.963" r="2.96296" fill="#4C7C2C"/>
<circle cx="197.778" cy="356.963" r="2.96296" fill="#4C7C2C"/>
<circle cx="212.593" cy="356.963" r="2.96296" fill="#4C7C2C"/>
<circle cx="227.407" cy="356.963" r="2.96296" fill="#4C7C2C"/>
<circle cx="242.222" cy="356.963" r="2.96296" fill="#4C7C2C"/>
<circle cx="182.963" cy="371.778" r="2.96296" fill="#4C7C2C"/>
<circle cx="197.778" cy="371.778" r="2.96296" fill="#4C7C2C"/>
<circle cx="212.593" cy="371.778" r="2.96296" fill="#4C7C2C"/>
<circle cx="227.407" cy="371.778" r="2.96296" fill="#4C7C2C"/>
<circle cx="242.222" cy="371.778" r="2.96296" fill="#4C7C2C"/>
<circle cx="182.963" cy="386.593" r="2.96296" fill="#4C7C2C"/>
<circle cx="197.778" cy="386.593" r="2.96296" fill="#4C7C2C"/>
<circle cx="212.593" cy="386.593" r="2.96296" fill="#4C7C2C"/>
<circle cx="227.407" cy="386.593" r="2.96296" fill="#4C7C2C"/>
<circle cx="242.222" cy="386.593" r="2.96296" fill="#4C7C2C"/>
<circle cx="182.963" cy="401.407" r="2.96296" fill="#4C7C2C"/>
<circle cx="197.778" cy="401.407" r="2.96296" fill="#4C7C2C"/>
<circle cx="212.593" cy="401.407" r="2.96296" fill="#4C7C2C"/>
<circle cx="227.407" cy="401.407" r="2.96296" fill="#4C7C2C"/>
<circle cx="242.222" cy="401.407" r="2.96296" fill="#4C7C2C"/>
<circle cx="182.963" cy="416.222" r="2.96296" fill="#4C7C2C"/>
<circle cx="257.037" cy="416.222" r="2.96296" transform="rotate(-90 257.037 416.222)" fill="#4C7C2C"/>
<circle cx="197.778" cy="416.222" r="2.96296" fill="#4C7C2C"/>
<circle cx="257.037" cy="401.408" r="2.96296" transform="rotate(-90 257.037 401.408)" fill="#4C7C2C"/>
<circle cx="212.593" cy="416.222" r="2.96296" fill="#4C7C2C"/>
<circle cx="257.037" cy="386.593" r="2.96296" transform="rotate(-90 257.037 386.593)" fill="#4C7C2C"/>
<circle cx="227.407" cy="416.222" r="2.96296" fill="#4C7C2C"/>
<circle cx="257.037" cy="371.778" r="2.96296" transform="rotate(-90 257.037 371.778)" fill="#4C7C2C"/>
<circle cx="242.222" cy="416.222" r="2.96296" fill="#4C7C2C"/>
<circle cx="257.037" cy="356.963" r="2.96296" transform="rotate(-90 257.037 356.963)" fill="#4C7C2C"/>
<rect x="65" y="288" width="159" height="44" rx="15" fill="white" stroke="#18181B" stroke-width="2"/>
<path d="M108.376 314V304.382H112.422C114.452 304.382 115.992 305.684 115.992 307.518C115.992 309.352 114.452 310.654 112.422 310.654H109.79V314H108.376ZM109.79 309.338H112.226C113.612 309.338 114.55 308.652 114.55 307.518C114.55 306.384 113.612 305.698 112.226 305.698H109.79V309.338ZM118.882 308.148C119.344 307.196 120.324 306.594 121.57 306.594V307.798C120.072 307.798 119.008 308.624 118.882 309.884V314H117.496V306.762H118.882V308.148ZM126.133 314.168C124.061 314.168 122.311 312.432 122.311 310.374C122.311 308.316 124.061 306.594 126.133 306.594C128.191 306.594 129.927 308.316 129.927 310.374C129.927 312.432 128.191 314.168 126.133 314.168ZM126.133 312.964C127.435 312.964 128.541 311.788 128.541 310.374C128.541 308.974 127.435 307.798 126.133 307.798C124.803 307.798 123.697 308.974 123.697 310.374C123.697 311.788 124.803 312.964 126.133 312.964ZM137.121 304.214H138.493V314H137.121V312.74C136.561 313.636 135.665 314.168 134.545 314.168C132.641 314.168 131.213 312.6 131.213 310.374C131.213 308.162 132.641 306.594 134.545 306.594C135.665 306.594 136.561 307.126 137.121 308.008V304.214ZM134.881 312.964C136.183 312.964 137.121 311.886 137.121 310.374C137.121 308.862 136.183 307.798 134.881 307.798C133.551 307.798 132.613 308.862 132.613 310.374C132.613 311.886 133.551 312.964 134.881 312.964ZM145.556 306.762H146.942V314H145.556V312.95C145.122 313.664 144.24 314.168 143.26 314.168C141.664 314.168 140.544 313.006 140.544 311.368V306.762H141.902V311.13C141.902 312.208 142.588 312.964 143.568 312.964C144.576 312.964 145.444 312.306 145.556 311.452V306.762ZM152.369 314.168C150.311 314.168 148.561 312.432 148.561 310.374C148.561 308.316 150.311 306.594 152.383 306.594C153.419 306.594 154.357 307.028 155.043 307.714L154.105 308.582C153.671 308.092 153.041 307.798 152.369 307.798C151.053 307.798 149.961 308.974 149.961 310.374C149.961 311.788 151.053 312.964 152.383 312.964C153.055 312.964 153.699 312.656 154.147 312.152L155.085 313.006C154.385 313.72 153.447 314.168 152.369 314.168ZM159.887 312.936C160.643 312.936 161.525 312.6 161.959 312.152L162.827 313.048C162.183 313.734 160.923 314.168 159.901 314.168C157.885 314.168 156.177 312.586 156.177 310.36C156.177 308.19 157.787 306.594 159.789 306.594C162.001 306.594 163.275 308.274 163.275 310.864H157.577C157.759 312.068 158.641 312.936 159.887 312.936ZM159.845 307.826C158.725 307.826 157.815 308.582 157.591 309.758H161.931C161.777 308.638 161.091 307.826 159.845 307.826ZM166.337 308.148C166.799 307.196 167.779 306.594 169.025 306.594V307.798C167.527 307.798 166.463 308.624 166.337 309.884V314H164.951V306.762H166.337V308.148ZM177.491 314.168C175.853 314.168 174.607 313.454 173.865 312.53L174.775 311.592C175.419 312.376 176.357 312.894 177.463 312.894C178.709 312.894 179.507 312.236 179.507 311.27C179.507 310.276 178.681 309.758 177.239 309.772H176.189V308.512L177.239 308.526C178.457 308.526 179.311 307.994 179.311 307.028C179.311 306.132 178.471 305.488 177.351 305.488C176.343 305.488 175.601 305.992 174.929 306.776L174.047 305.908C174.789 304.942 175.881 304.214 177.449 304.214C179.395 304.214 180.753 305.292 180.753 306.832C180.753 308.022 179.913 308.764 178.905 309.072C179.913 309.296 180.963 310.024 180.963 311.368C180.963 312.992 179.577 314.168 177.491 314.168Z" fill="#18181B"/>
<rect x="65" y="194" width="159" height="44" rx="15" fill="white" stroke="#18181B" stroke-width="2"/>
<path d="M108.356 220V210.382H112.402C114.432 210.382 115.972 211.684 115.972 213.518C115.972 215.352 114.432 216.654 112.402 216.654H109.77V220H108.356ZM109.77 215.338H112.206C113.592 215.338 114.53 214.652 114.53 213.518C114.53 212.384 113.592 211.698 112.206 211.698H109.77V215.338ZM118.861 214.148C119.323 213.196 120.303 212.594 121.549 212.594V213.798C120.051 213.798 118.987 214.624 118.861 215.884V220H117.475V212.762H118.861V214.148ZM126.113 220.168C124.041 220.168 122.291 218.432 122.291 216.374C122.291 214.316 124.041 212.594 126.113 212.594C128.171 212.594 129.907 214.316 129.907 216.374C129.907 218.432 128.171 220.168 126.113 220.168ZM126.113 218.964C127.415 218.964 128.521 217.788 128.521 216.374C128.521 214.974 127.415 213.798 126.113 213.798C124.783 213.798 123.677 214.974 123.677 216.374C123.677 217.788 124.783 218.964 126.113 218.964ZM137.101 210.214H138.473V220H137.101V218.74C136.541 219.636 135.645 220.168 134.525 220.168C132.621 220.168 131.193 218.6 131.193 216.374C131.193 214.162 132.621 212.594 134.525 212.594C135.645 212.594 136.541 213.126 137.101 214.008V210.214ZM134.861 218.964C136.163 218.964 137.101 217.886 137.101 216.374C137.101 214.862 136.163 213.798 134.861 213.798C133.531 213.798 132.593 214.862 132.593 216.374C132.593 217.886 133.531 218.964 134.861 218.964ZM145.536 212.762H146.922V220H145.536V218.95C145.102 219.664 144.22 220.168 143.24 220.168C141.644 220.168 140.524 219.006 140.524 217.368V212.762H141.882V217.13C141.882 218.208 142.568 218.964 143.548 218.964C144.556 218.964 145.424 218.306 145.536 217.452V212.762ZM152.349 220.168C150.291 220.168 148.541 218.432 148.541 216.374C148.541 214.316 150.291 212.594 152.363 212.594C153.399 212.594 154.337 213.028 155.023 213.714L154.085 214.582C153.651 214.092 153.021 213.798 152.349 213.798C151.033 213.798 149.941 214.974 149.941 216.374C149.941 217.788 151.033 218.964 152.363 218.964C153.035 218.964 153.679 218.656 154.127 218.152L155.065 219.006C154.365 219.72 153.427 220.168 152.349 220.168ZM159.866 218.936C160.622 218.936 161.504 218.6 161.938 218.152L162.806 219.048C162.162 219.734 160.902 220.168 159.88 220.168C157.864 220.168 156.156 218.586 156.156 216.36C156.156 214.19 157.766 212.594 159.768 212.594C161.98 212.594 163.254 214.274 163.254 216.864H157.556C157.738 218.068 158.62 218.936 159.866 218.936ZM159.824 213.826C158.704 213.826 157.794 214.582 157.57 215.758H161.91C161.756 214.638 161.07 213.826 159.824 213.826ZM166.317 214.148C166.779 213.196 167.759 212.594 169.005 212.594V213.798C167.507 213.798 166.443 214.624 166.317 215.884V220H164.931V212.762H166.317V214.148ZM174.012 220V218.838L177.54 215.926C178.828 214.848 179.318 214.022 179.318 213.154C179.318 212.104 178.45 211.488 177.498 211.488C176.448 211.488 175.678 212.048 175.006 212.916L174.054 212.076C174.894 210.914 176.028 210.214 177.554 210.214C179.346 210.214 180.774 211.376 180.774 213.126C180.774 214.414 180.158 215.436 178.506 216.78L176.252 218.684H180.858V220H174.012Z" fill="#18181B"/>
<rect x="65" y="100" width="159" height="44" rx="15" fill="white" stroke="#18181B" stroke-width="2"/>
<path d="M109.407 126V116.382H113.453C115.483 116.382 117.023 117.684 117.023 119.518C117.023 121.352 115.483 122.654 113.453 122.654H110.821V126H109.407ZM110.821 121.338H113.257C114.643 121.338 115.581 120.652 115.581 119.518C115.581 118.384 114.643 117.698 113.257 117.698H110.821V121.338ZM119.913 120.148C120.375 119.196 121.355 118.594 122.601 118.594V119.798C121.103 119.798 120.039 120.624 119.913 121.884V126H118.527V118.762H119.913V120.148ZM127.165 126.168C125.093 126.168 123.343 124.432 123.343 122.374C123.343 120.316 125.093 118.594 127.165 118.594C129.223 118.594 130.959 120.316 130.959 122.374C130.959 124.432 129.223 126.168 127.165 126.168ZM127.165 124.964C128.467 124.964 129.573 123.788 129.573 122.374C129.573 120.974 128.467 119.798 127.165 119.798C125.835 119.798 124.729 120.974 124.729 122.374C124.729 123.788 125.835 124.964 127.165 124.964ZM138.152 116.214H139.524V126H138.152V124.74C137.592 125.636 136.696 126.168 135.576 126.168C133.672 126.168 132.244 124.6 132.244 122.374C132.244 120.162 133.672 118.594 135.576 118.594C136.696 118.594 137.592 119.126 138.152 120.008V116.214ZM135.912 124.964C137.214 124.964 138.152 123.886 138.152 122.374C138.152 120.862 137.214 119.798 135.912 119.798C134.582 119.798 133.644 120.862 133.644 122.374C133.644 123.886 134.582 124.964 135.912 124.964ZM146.588 118.762H147.974V126H146.588V124.95C146.154 125.664 145.272 126.168 144.292 126.168C142.696 126.168 141.576 125.006 141.576 123.368V118.762H142.934V123.13C142.934 124.208 143.62 124.964 144.6 124.964C145.608 124.964 146.476 124.306 146.588 123.452V118.762ZM153.401 126.168C151.343 126.168 149.593 124.432 149.593 122.374C149.593 120.316 151.343 118.594 153.415 118.594C154.451 118.594 155.389 119.028 156.075 119.714L155.137 120.582C154.703 120.092 154.073 119.798 153.401 119.798C152.085 119.798 150.993 120.974 150.993 122.374C150.993 123.788 152.085 124.964 153.415 124.964C154.087 124.964 154.731 124.656 155.179 124.152L156.117 125.006C155.417 125.72 154.479 126.168 153.401 126.168ZM160.918 124.936C161.674 124.936 162.556 124.6 162.99 124.152L163.858 125.048C163.214 125.734 161.954 126.168 160.932 126.168C158.916 126.168 157.208 124.586 157.208 122.36C157.208 120.19 158.818 118.594 160.82 118.594C163.032 118.594 164.306 120.274 164.306 122.864H158.608C158.79 124.068 159.672 124.936 160.918 124.936ZM160.876 119.826C159.756 119.826 158.846 120.582 158.622 121.758H162.962C162.808 120.638 162.122 119.826 160.876 119.826ZM167.368 120.148C167.83 119.196 168.81 118.594 170.056 118.594V119.798C168.558 119.798 167.494 120.624 167.368 121.884V126H165.982V118.762H167.368V120.148ZM176.968 126V118.062L175.302 119.126L174.714 118.104L177.248 116.382H178.396V126H176.968Z" fill="#18181B"/>
<rect x="668" y="194" width="159" height="44" rx="15" fill="white" stroke="#18181B" stroke-width="2"/>
<rect x="668" y="288" width="159" height="44" rx="15" fill="white" stroke="#18181B" stroke-width="2"/>
<rect x="668" y="100" width="159" height="44" rx="15" fill="white" stroke="#18181B" stroke-width="2"/>
<path d="M712.167 220.168C709.465 220.168 707.169 217.886 707.169 215.184C707.169 212.482 709.465 210.214 712.167 210.214C713.539 210.214 714.799 210.788 715.709 211.726L714.715 212.678C714.071 211.978 713.161 211.516 712.167 211.516C710.249 211.516 708.625 213.196 708.625 215.184C708.625 217.186 710.249 218.866 712.167 218.866C713.161 218.866 714.071 218.404 714.715 217.704L715.709 218.656C714.799 219.58 713.539 220.168 712.167 220.168ZM720.519 220.168C718.447 220.168 716.697 218.432 716.697 216.374C716.697 214.316 718.447 212.594 720.519 212.594C722.577 212.594 724.313 214.316 724.313 216.374C724.313 218.432 722.577 220.168 720.519 220.168ZM720.519 218.964C721.821 218.964 722.927 217.788 722.927 216.374C722.927 214.974 721.821 213.798 720.519 213.798C719.189 213.798 718.083 214.974 718.083 216.374C718.083 217.788 719.189 218.964 720.519 218.964ZM729.617 212.594C731.213 212.594 732.333 213.756 732.333 215.394V220H730.975V215.632C730.975 214.554 730.289 213.798 729.309 213.798C728.301 213.798 727.433 214.456 727.321 215.31V220H725.935V212.762H727.321V213.812C727.755 213.098 728.637 212.594 729.617 212.594ZM736.934 220.168C735.87 220.168 734.708 219.79 733.84 219.09L734.498 218.096C735.268 218.656 736.094 218.978 736.948 218.978C737.76 218.978 738.32 218.6 738.32 218.04C738.32 217.368 737.578 217.158 736.682 216.906C735.016 216.444 734.19 215.968 734.19 214.792C734.176 213.462 735.282 212.594 736.822 212.594C737.76 212.594 738.712 212.916 739.496 213.434L738.88 214.456C738.18 214.022 737.452 213.784 736.822 213.784C736.108 213.784 735.548 214.092 735.548 214.638C735.548 215.198 735.996 215.366 737.214 215.744C738.404 216.094 739.678 216.486 739.678 217.928C739.678 219.3 738.516 220.168 736.934 220.168ZM746.272 212.762H747.658V220H746.272V218.95C745.838 219.664 744.956 220.168 743.976 220.168C742.38 220.168 741.26 219.006 741.26 217.368V212.762H742.618V217.13C742.618 218.208 743.304 218.964 744.284 218.964C745.292 218.964 746.16 218.306 746.272 217.452V212.762ZM757.761 212.594C759.273 212.594 760.365 213.756 760.365 215.394V220H759.007V215.604C759.007 214.54 758.377 213.798 757.467 213.798C756.431 213.798 755.703 214.484 755.703 215.478V220H754.345V215.604C754.345 214.54 753.715 213.798 752.805 213.798C751.769 213.798 751.041 214.484 751.041 215.478V220H749.655V212.762H751.041V213.77C751.405 213.056 752.161 212.594 753.085 212.594C754.135 212.594 754.989 213.154 755.409 214.05C755.745 213.154 756.669 212.594 757.761 212.594ZM765.675 218.936C766.431 218.936 767.313 218.6 767.747 218.152L768.615 219.048C767.971 219.734 766.711 220.168 765.689 220.168C763.673 220.168 761.965 218.586 761.965 216.36C761.965 214.19 763.575 212.594 765.577 212.594C767.789 212.594 769.063 214.274 769.063 216.864H763.365C763.547 218.068 764.429 218.936 765.675 218.936ZM765.633 213.826C764.513 213.826 763.603 214.582 763.379 215.758H767.719C767.565 214.638 766.879 213.826 765.633 213.826ZM772.125 214.148C772.587 213.196 773.567 212.594 774.813 212.594V213.798C773.315 213.798 772.251 214.624 772.125 215.884V220H770.739V212.762H772.125V214.148ZM779.821 220V218.838L783.349 215.926C784.637 214.848 785.127 214.022 785.127 213.154C785.127 212.104 784.259 211.488 783.307 211.488C782.257 211.488 781.487 212.048 780.815 212.916L779.863 212.076C780.703 210.914 781.837 210.214 783.363 210.214C785.155 210.214 786.583 211.376 786.583 213.126C786.583 214.414 785.967 215.436 784.315 216.78L782.061 218.684H786.667V220H779.821Z" fill="#18181B"/>
<path d="M712.688 314.168C709.986 314.168 707.69 311.886 707.69 309.184C707.69 306.482 709.986 304.214 712.688 304.214C714.06 304.214 715.32 304.788 716.23 305.726L715.236 306.678C714.592 305.978 713.682 305.516 712.688 305.516C710.77 305.516 709.146 307.196 709.146 309.184C709.146 311.186 710.77 312.866 712.688 312.866C713.682 312.866 714.592 312.404 715.236 311.704L716.23 312.656C715.32 313.58 714.06 314.168 712.688 314.168ZM721.04 314.168C718.968 314.168 717.218 312.432 717.218 310.374C717.218 308.316 718.968 306.594 721.04 306.594C723.098 306.594 724.834 308.316 724.834 310.374C724.834 312.432 723.098 314.168 721.04 314.168ZM721.04 312.964C722.342 312.964 723.448 311.788 723.448 310.374C723.448 308.974 722.342 307.798 721.04 307.798C719.71 307.798 718.604 308.974 718.604 310.374C718.604 311.788 719.71 312.964 721.04 312.964ZM730.137 306.594C731.733 306.594 732.853 307.756 732.853 309.394V314H731.495V309.632C731.495 308.554 730.809 307.798 729.829 307.798C728.821 307.798 727.953 308.456 727.841 309.31V314H726.455V306.762H727.841V307.812C728.275 307.098 729.157 306.594 730.137 306.594ZM737.454 314.168C736.39 314.168 735.228 313.79 734.36 313.09L735.018 312.096C735.788 312.656 736.614 312.978 737.468 312.978C738.28 312.978 738.84 312.6 738.84 312.04C738.84 311.368 738.098 311.158 737.202 310.906C735.536 310.444 734.71 309.968 734.71 308.792C734.696 307.462 735.802 306.594 737.342 306.594C738.28 306.594 739.232 306.916 740.016 307.434L739.4 308.456C738.7 308.022 737.972 307.784 737.342 307.784C736.628 307.784 736.068 308.092 736.068 308.638C736.068 309.198 736.516 309.366 737.734 309.744C738.924 310.094 740.198 310.486 740.198 311.928C740.198 313.3 739.036 314.168 737.454 314.168ZM746.793 306.762H748.179V314H746.793V312.95C746.359 313.664 745.477 314.168 744.497 314.168C742.901 314.168 741.781 313.006 741.781 311.368V306.762H743.139V311.13C743.139 312.208 743.825 312.964 744.805 312.964C745.813 312.964 746.681 312.306 746.793 311.452V306.762ZM758.282 306.594C759.794 306.594 760.886 307.756 760.886 309.394V314H759.528V309.604C759.528 308.54 758.898 307.798 757.988 307.798C756.952 307.798 756.224 308.484 756.224 309.478V314H754.866V309.604C754.866 308.54 754.236 307.798 753.326 307.798C752.29 307.798 751.562 308.484 751.562 309.478V314H750.176V306.762H751.562V307.77C751.926 307.056 752.682 306.594 753.606 306.594C754.656 306.594 755.51 307.154 755.93 308.05C756.266 307.154 757.19 306.594 758.282 306.594ZM766.195 312.936C766.951 312.936 767.833 312.6 768.267 312.152L769.135 313.048C768.491 313.734 767.231 314.168 766.209 314.168C764.193 314.168 762.485 312.586 762.485 310.36C762.485 308.19 764.095 306.594 766.097 306.594C768.309 306.594 769.583 308.274 769.583 310.864H763.885C764.067 312.068 764.949 312.936 766.195 312.936ZM766.153 307.826C765.033 307.826 764.123 308.582 763.899 309.758H768.239C768.085 308.638 767.399 307.826 766.153 307.826ZM772.646 308.148C773.108 307.196 774.088 306.594 775.334 306.594V307.798C773.836 307.798 772.772 308.624 772.646 309.884V314H771.26V306.762H772.646V308.148ZM783.8 314.168C782.162 314.168 780.916 313.454 780.174 312.53L781.084 311.592C781.728 312.376 782.666 312.894 783.772 312.894C785.018 312.894 785.816 312.236 785.816 311.27C785.816 310.276 784.99 309.758 783.548 309.772H782.498V308.512L783.548 308.526C784.766 308.526 785.62 307.994 785.62 307.028C785.62 306.132 784.78 305.488 783.66 305.488C782.652 305.488 781.91 305.992 781.238 306.776L780.356 305.908C781.098 304.942 782.19 304.214 783.758 304.214C785.704 304.214 787.062 305.292 787.062 306.832C787.062 308.022 786.222 308.764 785.214 309.072C786.222 309.296 787.272 310.024 787.272 311.368C787.272 312.992 785.886 314.168 783.8 314.168Z" fill="#18181B"/>
<path d="M713.719 126.168C711.017 126.168 708.721 123.886 708.721 121.184C708.721 118.482 711.017 116.214 713.719 116.214C715.091 116.214 716.351 116.788 717.261 117.726L716.267 118.678C715.623 117.978 714.713 117.516 713.719 117.516C711.801 117.516 710.177 119.196 710.177 121.184C710.177 123.186 711.801 124.866 713.719 124.866C714.713 124.866 715.623 124.404 716.267 123.704L717.261 124.656C716.351 125.58 715.091 126.168 713.719 126.168ZM722.071 126.168C719.999 126.168 718.249 124.432 718.249 122.374C718.249 120.316 719.999 118.594 722.071 118.594C724.129 118.594 725.865 120.316 725.865 122.374C725.865 124.432 724.129 126.168 722.071 126.168ZM722.071 124.964C723.373 124.964 724.479 123.788 724.479 122.374C724.479 120.974 723.373 119.798 722.071 119.798C720.741 119.798 719.635 120.974 719.635 122.374C719.635 123.788 720.741 124.964 722.071 124.964ZM731.169 118.594C732.765 118.594 733.885 119.756 733.885 121.394V126H732.527V121.632C732.527 120.554 731.841 119.798 730.861 119.798C729.853 119.798 728.985 120.456 728.873 121.31V126H727.487V118.762H728.873V119.812C729.307 119.098 730.189 118.594 731.169 118.594ZM738.485 126.168C737.421 126.168 736.259 125.79 735.391 125.09L736.049 124.096C736.819 124.656 737.645 124.978 738.499 124.978C739.311 124.978 739.871 124.6 739.871 124.04C739.871 123.368 739.129 123.158 738.233 122.906C736.567 122.444 735.741 121.968 735.741 120.792C735.727 119.462 736.833 118.594 738.373 118.594C739.311 118.594 740.263 118.916 741.047 119.434L740.431 120.456C739.731 120.022 739.003 119.784 738.373 119.784C737.659 119.784 737.099 120.092 737.099 120.638C737.099 121.198 737.547 121.366 738.765 121.744C739.955 122.094 741.229 122.486 741.229 123.928C741.229 125.3 740.067 126.168 738.485 126.168ZM747.824 118.762H749.21V126H747.824V124.95C747.39 125.664 746.508 126.168 745.528 126.168C743.932 126.168 742.812 125.006 742.812 123.368V118.762H744.17V123.13C744.17 124.208 744.856 124.964 745.836 124.964C746.844 124.964 747.712 124.306 747.824 123.452V118.762ZM759.313 118.594C760.825 118.594 761.917 119.756 761.917 121.394V126H760.559V121.604C760.559 120.54 759.929 119.798 759.019 119.798C757.983 119.798 757.255 120.484 757.255 121.478V126H755.897V121.604C755.897 120.54 755.267 119.798 754.357 119.798C753.321 119.798 752.593 120.484 752.593 121.478V126H751.207V118.762H752.593V119.77C752.957 119.056 753.713 118.594 754.637 118.594C755.687 118.594 756.541 119.154 756.961 120.05C757.297 119.154 758.221 118.594 759.313 118.594ZM767.226 124.936C767.982 124.936 768.864 124.6 769.298 124.152L770.166 125.048C769.522 125.734 768.262 126.168 767.24 126.168C765.224 126.168 763.516 124.586 763.516 122.36C763.516 120.19 765.126 118.594 767.128 118.594C769.34 118.594 770.614 120.274 770.614 122.864H764.916C765.098 124.068 765.98 124.936 767.226 124.936ZM767.184 119.826C766.064 119.826 765.154 120.582 764.93 121.758H769.27C769.116 120.638 768.43 119.826 767.184 119.826ZM773.677 120.148C774.139 119.196 775.119 118.594 776.365 118.594V119.798C774.867 119.798 773.803 120.624 773.677 121.884V126H772.291V118.762H773.677V120.148ZM783.277 126V118.062L781.611 119.126L781.023 118.104L783.557 116.382H784.705V126H783.277Z" fill="#18181B"/>
</g>
<defs>
<clipPath id="clip0_516_357493">
<rect width="887" height="431" fill="white"/>
</clipPath>
</defs>
</svg>
