<svg width="743" height="431" viewBox="0 0 743 431" fill="none" xmlns="http://www.w3.org/2000/svg">
<g clip-path="url(#clip0_545_2)">
<rect width="743" height="431" fill="white"/>
<circle cx="372" cy="216" r="254" fill="#F4F4F5"/>
<circle cx="96.096" cy="329.096" r="4.09596" fill="#4C7C2C"/>
<circle cx="116.576" cy="329.096" r="4.09596" fill="#4C7C2C"/>
<circle cx="137.056" cy="329.096" r="4.09596" fill="#4C7C2C"/>
<circle cx="157.535" cy="329.096" r="4.09596" fill="#4C7C2C"/>
<circle cx="178.015" cy="329.096" r="4.09596" fill="#4C7C2C"/>
<circle cx="96.096" cy="349.575" r="4.09596" fill="#4C7C2C"/>
<circle cx="116.576" cy="349.575" r="4.09596" fill="#4C7C2C"/>
<circle cx="137.056" cy="349.575" r="4.09596" fill="#4C7C2C"/>
<circle cx="157.535" cy="349.575" r="4.09596" fill="#4C7C2C"/>
<circle cx="178.015" cy="349.575" r="4.09596" fill="#4C7C2C"/>
<circle cx="96.096" cy="370.055" r="4.09596" fill="#4C7C2C"/>
<circle cx="116.576" cy="370.055" r="4.09596" fill="#4C7C2C"/>
<circle cx="137.056" cy="370.055" r="4.09596" fill="#4C7C2C"/>
<circle cx="157.535" cy="370.055" r="4.09596" fill="#4C7C2C"/>
<circle cx="178.015" cy="370.055" r="4.09596" fill="#4C7C2C"/>
<circle cx="96.096" cy="390.535" r="4.09596" fill="#4C7C2C"/>
<circle cx="116.576" cy="390.535" r="4.09596" fill="#4C7C2C"/>
<circle cx="137.056" cy="390.535" r="4.09596" fill="#4C7C2C"/>
<circle cx="157.535" cy="390.535" r="4.09596" fill="#4C7C2C"/>
<circle cx="178.015" cy="390.535" r="4.09596" fill="#4C7C2C"/>
<circle cx="96.096" cy="411.015" r="4.09596" fill="#4C7C2C"/>
<circle cx="198.495" cy="411.015" r="4.09596" transform="rotate(-90 198.495 411.015)" fill="#4C7C2C"/>
<circle cx="116.576" cy="411.015" r="4.09596" fill="#4C7C2C"/>
<circle cx="198.495" cy="390.535" r="4.09596" transform="rotate(-90 198.495 390.535)" fill="#4C7C2C"/>
<circle cx="137.056" cy="411.015" r="4.09596" fill="#4C7C2C"/>
<circle cx="198.495" cy="370.055" r="4.09596" transform="rotate(-90 198.495 370.055)" fill="#4C7C2C"/>
<circle cx="157.535" cy="411.015" r="4.09596" fill="#4C7C2C"/>
<circle cx="198.495" cy="349.576" r="4.09596" transform="rotate(-90 198.495 349.576)" fill="#4C7C2C"/>
<circle cx="178.015" cy="411.015" r="4.09596" fill="#4C7C2C"/>
<circle cx="198.495" cy="329.096" r="4.09596" transform="rotate(-90 198.495 329.096)" fill="#4C7C2C"/>
<path d="M435.5 252.565C435.5 252.996 435.3 253.567 434.602 254.286C433.899 255.011 432.787 255.783 431.222 256.564C428.098 258.123 423.481 259.57 417.652 260.8C406.019 263.256 389.877 264.787 372 264.787C354.123 264.787 337.981 263.256 326.348 260.8C320.519 259.57 315.902 258.123 312.778 256.564C311.214 255.783 310.101 255.011 309.398 254.286C308.7 253.567 308.5 252.996 308.5 252.565L308.5 214.751L308.5 178.425C313.815 176.509 323.068 175.235 334.165 174.448C345.862 173.619 359.383 173.342 372 173.342C384.617 173.342 398.138 173.619 409.835 174.448C420.932 175.235 430.185 176.509 435.5 178.425V178.444V178.502V178.562V178.623V178.686V178.75V178.815V178.882V178.95V179.019V179.089V179.161V179.234V179.309V179.384V179.461V179.539V179.619V179.7V179.782V179.865V179.949V180.035V180.122V180.21V180.299V180.39V180.482V180.575V180.669V180.764V180.861V180.959V181.057V181.158V181.259V181.361V181.465V181.569V181.675V181.782V181.89V181.999V182.109V182.22V182.333V182.446V182.561V182.677V182.793V182.911V183.03V183.15V183.271V183.393V183.516V183.64V183.765V183.891V184.019V184.147V184.276V184.406V184.537V184.669V184.802V184.936V185.071V185.207V185.344V185.482V185.621V185.761V185.901V186.043V186.186V186.329V186.473V186.618V186.765V186.912V187.059V187.208V187.358V187.508V187.66V187.812V187.965V188.119V188.274V188.429V188.585V188.743V188.901V189.059V189.219V189.379V189.541V189.702V189.865V190.029V190.193V190.358V190.524V190.69V190.857V191.025V191.194V191.363V191.533V191.704V191.876V192.048V192.221V192.394V192.569V192.744V192.919V193.096V193.272V193.45V193.628V193.807V193.986V194.167V194.347V194.529V194.71V194.893V195.076V195.26V195.444V195.629V195.814V196V196.187V196.374V196.562V196.75V196.938V197.128V197.317V197.508V197.698V197.89V198.082V198.274V198.467V198.66V198.853V199.048V199.242V199.437V199.633V199.829V200.025V200.222V200.419V200.617V200.815V201.014V201.213V201.412V201.612V201.812V202.012V202.213V202.414V202.616V202.818V203.02V203.223V203.426V203.629V203.833V204.036V204.241V204.445V204.65V204.855V205.061V205.266V205.472V205.679V205.885V206.092V206.299V206.506V206.714V206.921V207.129V207.338V207.546V207.755V207.963V208.172V208.382V208.591V208.801V209.01V209.22V209.43V209.641V209.851V210.061V210.272V210.483V210.694V210.905V211.116V211.327V211.539V211.75V211.962V212.173V212.385V212.597V212.809V213.021V213.233V213.445V213.657V213.869V214.081V214.293V214.505V214.717V214.93V215.142V215.354V215.566V215.778V215.99V216.203V216.415V216.627V216.839V217.051V217.262V217.474V217.686V217.898V218.109V218.321V218.532V218.743V218.955V219.166V219.377V219.587V219.798V220.009V220.219V220.429V220.639V220.849V221.059V221.269V221.478V221.687V221.897V222.105V222.314V222.522V222.731V222.939V223.146V223.354V223.561V223.768V223.975V224.182V224.388V224.594V224.8V225.005V225.21V225.415V225.62V225.824V226.028V226.232V226.435V226.638V226.841V227.043V227.245V227.447V227.648V227.849V228.05V228.25V228.45V228.649V228.848V229.047V229.245V229.443V229.64V229.837V230.033V230.229V230.425V230.62V230.815V231.009V231.203V231.396V231.589V231.782V231.973V232.165V232.356V232.546V232.736V232.925V233.114V233.302V233.49V233.677V233.864V234.05V234.235V234.42V234.605V234.789V234.972V235.154V235.336V235.518V235.699V235.879V236.058V236.237V236.416V236.593V236.77V236.947V237.123V237.298V237.472V237.646V237.819V237.991V238.163V238.334V238.504V238.673V238.842V239.01V239.178V239.344V239.51V239.675V239.84V240.003V240.166V240.328V240.49V240.65V240.81V240.969V241.127V241.284V241.441V241.596V241.751V241.905V242.059V242.211V242.362V242.513V242.663V242.812V242.96V243.107V243.253V243.399V243.543V243.687V243.83V243.971V244.112V244.252V244.391V244.529V244.666V244.802V244.938V245.072V245.205V245.337V245.469V245.599V245.728V245.857V245.984V246.11V246.236V246.36V246.483V246.605V246.727V246.847V246.966V247.084V247.201V247.317V247.431V247.545V247.658V247.769V247.88V247.989V248.097V248.204V248.31V248.415V248.519V248.621V248.723V248.823V248.922V249.02V249.117V249.213V249.307V249.4V249.492V249.583V249.673V249.761V249.848V249.934V250.019V250.102V250.184V250.265V250.345V250.424V250.501V250.577V250.651V250.725V250.797V250.867V250.937V251.005V251.072V251.137V251.202V251.264V251.326V251.386V251.445V251.502V251.558V251.613V251.666V251.718V251.769V251.818V251.866V251.912V251.957V252.001V252.043V252.084V252.123V252.161V252.197V252.232V252.265V252.297V252.328V252.357V252.384V252.41V252.435V252.458V252.48V252.5V252.518V252.535V252.551V252.565Z" fill="#18181B" stroke="#18181B" stroke-width="3"/>
<path d="M435.5 178.723C435.5 179.154 435.3 179.725 434.602 180.444C433.899 181.17 432.786 181.941 431.222 182.722C428.098 184.281 423.481 185.728 417.652 186.959C406.019 189.415 389.877 190.946 372 190.946C354.123 190.946 337.981 189.415 326.348 186.959C320.519 185.728 315.902 184.281 312.778 182.722C311.213 181.941 310.101 181.17 309.398 180.444C308.7 179.725 308.5 179.154 308.5 178.723C308.5 178.291 308.7 177.721 309.398 177.001C310.101 176.276 311.213 175.504 312.778 174.723C315.902 173.164 320.519 171.718 326.348 170.487C337.981 168.031 354.123 166.5 372 166.5C389.877 166.5 406.019 168.031 417.652 170.487C423.481 171.718 428.098 173.164 431.222 174.723C432.786 175.504 433.899 176.276 434.602 177.001C435.3 177.721 435.5 178.291 435.5 178.723Z" fill="white" stroke="#18181B" stroke-width="3"/>
<path d="M337.713 230V220.382H339.127L342.501 226.668L345.875 220.382H347.289V230H345.875V223.154L342.501 229.44L339.127 223.154V230H337.713ZM352.839 228.936C353.595 228.936 354.477 228.6 354.911 228.152L355.779 229.048C355.135 229.734 353.875 230.168 352.853 230.168C350.837 230.168 349.129 228.586 349.129 226.36C349.129 224.19 350.739 222.594 352.741 222.594C354.953 222.594 356.227 224.274 356.227 226.864H350.529C350.711 228.068 351.593 228.936 352.839 228.936ZM352.797 223.826C351.677 223.826 350.767 224.582 350.543 225.758H354.883C354.729 224.638 354.043 223.826 352.797 223.826ZM360.451 230.168C359.387 230.168 358.225 229.79 357.357 229.09L358.015 228.096C358.785 228.656 359.611 228.978 360.465 228.978C361.277 228.978 361.837 228.6 361.837 228.04C361.837 227.368 361.095 227.158 360.199 226.906C358.533 226.444 357.707 225.968 357.707 224.792C357.693 223.462 358.799 222.594 360.339 222.594C361.277 222.594 362.229 222.916 363.013 223.434L362.397 224.456C361.697 224.022 360.969 223.784 360.339 223.784C359.625 223.784 359.065 224.092 359.065 224.638C359.065 225.198 359.513 225.366 360.731 225.744C361.921 226.094 363.195 226.486 363.195 227.928C363.195 229.3 362.033 230.168 360.451 230.168ZM367.424 230.168C366.36 230.168 365.198 229.79 364.33 229.09L364.988 228.096C365.758 228.656 366.584 228.978 367.438 228.978C368.25 228.978 368.81 228.6 368.81 228.04C368.81 227.368 368.068 227.158 367.172 226.906C365.506 226.444 364.68 225.968 364.68 224.792C364.666 223.462 365.772 222.594 367.312 222.594C368.25 222.594 369.202 222.916 369.986 223.434L369.37 224.456C368.67 224.022 367.942 223.784 367.312 223.784C366.598 223.784 366.038 224.092 366.038 224.638C366.038 225.198 366.486 225.366 367.704 225.744C368.894 226.094 370.168 226.486 370.168 227.928C370.168 229.3 369.006 230.168 367.424 230.168ZM374.817 222.594C376.763 222.594 377.841 223.826 377.841 225.618V230H376.483V229.006C375.951 229.762 374.957 230.168 374.075 230.168C372.535 230.168 371.401 229.272 371.401 227.858C371.401 226.416 372.703 225.45 374.299 225.45C375.013 225.45 375.783 225.604 376.483 225.842V225.618C376.483 224.708 376.063 223.742 374.621 223.742C373.907 223.742 373.207 224.022 372.577 224.344L372.073 223.322C373.109 222.804 374.019 222.594 374.817 222.594ZM374.341 229.076C375.237 229.076 376.245 228.628 376.483 227.732V226.766C375.895 226.584 375.223 226.486 374.509 226.486C373.543 226.486 372.731 227.032 372.731 227.816C372.731 228.6 373.431 229.076 374.341 229.076ZM385.347 222.762H386.733V229.23C386.733 231.092 385.207 232.408 383.065 232.408C381.847 232.408 380.727 232.002 380.041 231.442L380.587 230.406C381.119 230.91 381.987 231.204 382.855 231.204C384.409 231.204 385.347 230.462 385.347 229.202V228.152C384.773 228.978 383.877 229.468 382.785 229.468C380.881 229.468 379.495 228.04 379.495 226.024C379.495 224.008 380.881 222.594 382.785 222.594C383.877 222.594 384.801 223.112 385.347 223.924V222.762ZM383.135 228.264C384.423 228.264 385.347 227.34 385.347 226.024C385.347 224.722 384.423 223.798 383.135 223.798C381.847 223.798 380.937 224.722 380.937 226.024C380.937 227.34 381.847 228.264 383.135 228.264ZM389.486 221.558C389.01 221.558 388.646 221.166 388.646 220.718C388.646 220.284 389.01 219.892 389.486 219.892C389.934 219.892 390.312 220.284 390.312 220.718C390.312 221.166 389.934 221.558 389.486 221.558ZM388.786 230V222.762H390.172V230H388.786ZM395.859 222.594C397.455 222.594 398.575 223.756 398.575 225.394V230H397.217V225.632C397.217 224.554 396.531 223.798 395.551 223.798C394.543 223.798 393.675 224.456 393.563 225.31V230H392.177V222.762H393.563V223.812C393.997 223.098 394.879 222.594 395.859 222.594ZM406.06 222.762H407.446V229.23C407.446 231.092 405.92 232.408 403.778 232.408C402.56 232.408 401.44 232.002 400.754 231.442L401.3 230.406C401.832 230.91 402.7 231.204 403.568 231.204C405.122 231.204 406.06 230.462 406.06 229.202V228.152C405.486 228.978 404.59 229.468 403.498 229.468C401.594 229.468 400.208 228.04 400.208 226.024C400.208 224.008 401.594 222.594 403.498 222.594C404.59 222.594 405.514 223.112 406.06 223.924V222.762ZM403.848 228.264C405.136 228.264 406.06 227.34 406.06 226.024C406.06 224.722 405.136 223.798 403.848 223.798C402.56 223.798 401.65 224.722 401.65 226.024C401.65 227.34 402.56 228.264 403.848 228.264ZM351.071 244V234.382H355.635C357.245 234.382 358.379 235.376 358.379 236.776C358.379 237.784 357.875 238.414 357.007 238.904C358.127 239.45 358.771 240.318 358.771 241.382C358.771 242.922 357.539 244 355.817 244H351.071ZM352.485 238.386H355.285C356.251 238.386 356.937 237.812 356.937 237.014C356.937 236.216 356.251 235.628 355.285 235.628H352.485V238.386ZM352.485 242.754H355.495C356.573 242.754 357.329 242.096 357.329 241.172C357.329 240.248 356.573 239.59 355.495 239.59H352.485V242.754ZM361.955 238.148C362.417 237.196 363.397 236.594 364.643 236.594V237.798C363.145 237.798 362.081 238.624 361.955 239.884V244H360.569V236.762H361.955V238.148ZM369.207 244.168C367.135 244.168 365.385 242.432 365.385 240.374C365.385 238.316 367.135 236.594 369.207 236.594C371.265 236.594 373.001 238.316 373.001 240.374C373.001 242.432 371.265 244.168 369.207 244.168ZM369.207 242.964C370.509 242.964 371.615 241.788 371.615 240.374C371.615 238.974 370.509 237.798 369.207 237.798C367.877 237.798 366.771 238.974 366.771 240.374C366.771 241.788 367.877 242.964 369.207 242.964ZM381.202 236.762L378.08 240.038L381.062 244H379.41L377.142 240.962L375.98 242.138V244H374.608V234.214H375.98V240.458L379.522 236.762H381.202ZM385.665 242.936C386.421 242.936 387.303 242.6 387.737 242.152L388.605 243.048C387.961 243.734 386.701 244.168 385.679 244.168C383.663 244.168 381.955 242.586 381.955 240.36C381.955 238.19 383.565 236.594 385.567 236.594C387.779 236.594 389.053 238.274 389.053 240.864H383.355C383.537 242.068 384.419 242.936 385.665 242.936ZM385.623 237.826C384.503 237.826 383.593 238.582 383.369 239.758H387.709C387.555 238.638 386.869 237.826 385.623 237.826ZM392.115 238.148C392.577 237.196 393.557 236.594 394.803 236.594V237.798C393.305 237.798 392.241 238.624 392.115 239.884V244H390.729V236.762H392.115V238.148Z" fill="white"/>
<path d="M449 215C448.448 215 448 215.448 448 216C448 216.552 448.448 217 449 217V215ZM550.707 216.707C551.098 216.317 551.098 215.683 550.707 215.293L544.343 208.929C543.953 208.538 543.319 208.538 542.929 208.929C542.538 209.319 542.538 209.953 542.929 210.343L548.586 216L542.929 221.657C542.538 222.047 542.538 222.681 542.929 223.071C543.319 223.462 543.953 223.462 544.343 223.071L550.707 216.707ZM449 217H550V215H449V217Z" fill="#18181B"/>
<path d="M472.537 233.102C470.896 233.102 469.502 231.716 469.502 230.076C469.502 228.435 470.896 227.058 472.537 227.058C473.37 227.058 474.135 227.407 474.687 227.976L474.084 228.554C473.693 228.129 473.14 227.849 472.537 227.849C471.372 227.849 470.386 228.869 470.386 230.076C470.386 231.291 471.372 232.311 472.537 232.311C473.14 232.311 473.693 232.031 474.084 231.606L474.687 232.184C474.135 232.745 473.37 233.102 472.537 233.102ZM478.571 233.102C476.93 233.102 475.536 231.716 475.536 230.076C475.536 228.435 476.93 227.058 478.571 227.058C480.211 227.058 481.588 228.435 481.588 230.076C481.588 231.716 480.211 233.102 478.571 233.102ZM478.571 232.311C479.735 232.311 480.713 231.291 480.713 230.076C480.713 228.869 479.735 227.849 478.571 227.849C477.406 227.849 476.42 228.869 476.42 230.076C476.42 231.291 477.406 232.311 478.571 232.311ZM483.081 233V227.16H483.939L487.297 231.589V227.16H488.155V233H487.297L483.939 228.571V233H483.081ZM491.968 233.094C490.99 233.094 490.183 232.753 489.562 232.158L490.081 231.521C490.599 232.014 491.211 232.337 492.002 232.337C492.809 232.337 493.226 231.912 493.226 231.444C493.226 230.892 492.741 230.679 491.764 230.458C490.574 230.178 489.783 229.821 489.783 228.767C489.783 227.789 490.633 227.05 491.806 227.05C492.707 227.05 493.379 227.381 493.94 227.874L493.447 228.52C492.954 228.07 492.367 227.806 491.772 227.806C491.118 227.806 490.659 228.223 490.659 228.69C490.659 229.234 491.16 229.421 492.121 229.651C493.285 229.923 494.093 230.314 494.093 231.359C494.093 232.345 493.345 233.094 491.968 233.094ZM498.038 233.102C496.567 233.102 495.53 232.039 495.53 230.543V227.16H496.389V230.526C496.389 231.572 497.069 232.32 498.038 232.32C498.998 232.32 499.678 231.572 499.678 230.526V227.16H500.545V230.543C500.545 232.039 499.5 233.102 498.038 233.102ZM502.296 233V227.16H503.155L505.203 230.977L507.252 227.16H508.11V233H507.252V228.843L505.203 232.66L503.155 228.843V233H502.296ZM509.839 233V227.16H510.698V233H509.839ZM512.423 233V227.16H513.281L516.639 231.589V227.16H517.497V233H516.639L513.281 228.571V233H512.423ZM521.913 230.603V229.855H524.327V232.184C523.774 232.745 522.856 233.102 522.032 233.102C520.391 233.102 518.989 231.716 518.989 230.076C518.989 228.435 520.391 227.058 522.032 227.058C522.856 227.058 523.774 227.407 524.327 227.976L523.723 228.554C523.324 228.121 522.635 227.849 522.032 227.849C520.859 227.849 519.873 228.869 519.873 230.076C519.873 231.291 520.859 232.311 522.032 232.311C522.525 232.311 523.077 232.133 523.477 231.827V230.603H521.913ZM463.553 245V239.959H461.64V239.16H466.332V239.959H464.411V245H463.553ZM472.272 241.064C472.272 241.965 471.66 242.654 470.776 242.883L472.264 245H471.278L469.85 242.968H468.507V245H467.648V239.16H470.105C471.337 239.16 472.272 239.951 472.272 241.064ZM468.507 239.959V242.169H469.986C470.827 242.169 471.397 241.753 471.397 241.064C471.397 240.376 470.827 239.959 469.986 239.959H468.507ZM478.19 245L477.68 243.81H474.637L474.127 245H473.175L475.682 239.16H476.634L479.142 245H478.19ZM474.968 243.036H477.348L476.158 240.265L474.968 243.036ZM480.442 245V239.16H481.3L484.658 243.589V239.16H485.516V245H484.658L481.3 240.571V245H480.442ZM489.328 245.094C488.351 245.094 487.543 244.753 486.923 244.158L487.441 243.521C487.96 244.014 488.572 244.337 489.362 244.337C490.17 244.337 490.586 243.912 490.586 243.444C490.586 242.892 490.102 242.679 489.124 242.458C487.934 242.178 487.144 241.821 487.144 240.767C487.144 239.789 487.994 239.05 489.167 239.05C490.068 239.05 490.739 239.381 491.3 239.874L490.807 240.52C490.314 240.07 489.728 239.806 489.133 239.806C488.478 239.806 488.019 240.223 488.019 240.69C488.019 241.234 488.521 241.421 489.481 241.651C490.646 241.923 491.453 242.314 491.453 243.359C491.453 244.345 490.705 245.094 489.328 245.094ZM497.447 245L496.937 243.81H493.894L493.384 245H492.432L494.939 239.16H495.891L498.399 245H497.447ZM494.225 243.036H496.605L495.415 240.265L494.225 243.036ZM502.401 245.102C500.761 245.102 499.367 243.716 499.367 242.076C499.367 240.435 500.761 239.058 502.401 239.058C503.234 239.058 503.999 239.407 504.552 239.976L503.948 240.554C503.557 240.129 503.005 239.849 502.401 239.849C501.237 239.849 500.251 240.869 500.251 242.076C500.251 243.291 501.237 244.311 502.401 244.311C503.005 244.311 503.557 244.031 503.948 243.606L504.552 244.184C503.999 244.745 503.234 245.102 502.401 245.102ZM507.379 245V239.959H505.466V239.16H510.158V239.959H508.237V245H507.379ZM511.483 245V239.16H512.341V245H511.483ZM516.769 245.102C515.128 245.102 513.734 243.716 513.734 242.076C513.734 240.435 515.128 239.058 516.769 239.058C518.409 239.058 519.786 240.435 519.786 242.076C519.786 243.716 518.409 245.102 516.769 245.102ZM516.769 244.311C517.933 244.311 518.911 243.291 518.911 242.076C518.911 240.869 517.933 239.849 516.769 239.849C515.604 239.849 514.618 240.869 514.618 242.076C514.618 243.291 515.604 244.311 516.769 244.311ZM521.279 245V239.16H522.138L525.495 243.589V239.16H526.354V245H525.495L522.138 240.571V245H521.279ZM530.166 245.094C529.188 245.094 528.381 244.753 527.76 244.158L528.279 243.521C528.797 244.014 529.409 244.337 530.2 244.337C531.007 244.337 531.424 243.912 531.424 243.444C531.424 242.892 530.939 242.679 529.962 242.458C528.772 242.178 527.981 241.821 527.981 240.767C527.981 239.789 528.831 239.05 530.004 239.05C530.905 239.05 531.577 239.381 532.138 239.874L531.645 240.52C531.152 240.07 530.565 239.806 529.97 239.806C529.316 239.806 528.857 240.223 528.857 240.69C528.857 241.234 529.358 241.421 530.319 241.651C531.483 241.923 532.291 242.314 532.291 243.359C532.291 244.345 531.543 245.094 530.166 245.094Z" fill="#18181B"/>
<path d="M194 215C193.448 215 193 215.448 193 216C193 216.552 193.448 217 194 217V215ZM295.707 216.707C296.098 216.317 296.098 215.683 295.707 215.293L289.343 208.929C288.953 208.538 288.319 208.538 287.929 208.929C287.538 209.319 287.538 209.953 287.929 210.343L293.586 216L287.929 221.657C287.538 222.047 287.538 222.681 287.929 223.071C288.319 223.462 288.953 223.462 289.343 223.071L295.707 216.707ZM194 217H295V215H194V217Z" fill="#18181B"/>
<path d="M212.529 233V227.16H214.985C216.218 227.16 217.153 227.951 217.153 229.064C217.153 230.178 216.218 230.968 214.985 230.968H213.387V233H212.529ZM213.387 230.169H214.866C215.708 230.169 216.277 229.753 216.277 229.064C216.277 228.376 215.708 227.959 214.866 227.959H213.387V230.169ZM220.939 233.102C219.468 233.102 218.431 232.039 218.431 230.543V227.16H219.29V230.526C219.29 231.572 219.97 232.32 220.939 232.32C221.899 232.32 222.579 231.572 222.579 230.526V227.16H223.446V230.543C223.446 232.039 222.401 233.102 220.939 233.102ZM225.197 233V227.16H227.968C228.946 227.16 229.634 227.764 229.634 228.614C229.634 229.226 229.328 229.608 228.801 229.906C229.481 230.237 229.872 230.764 229.872 231.41C229.872 232.345 229.124 233 228.079 233H225.197ZM226.056 229.591H227.756C228.342 229.591 228.759 229.243 228.759 228.758C228.759 228.274 228.342 227.917 227.756 227.917H226.056V229.591ZM226.056 232.243H227.883C228.538 232.243 228.997 231.844 228.997 231.283C228.997 230.722 228.538 230.322 227.883 230.322H226.056V232.243ZM232.078 232.201H235.172V233H231.211V227.16H232.078V232.201ZM236.425 233V227.16H237.284V233H236.425ZM240.998 233.094C240.02 233.094 239.213 232.753 238.592 232.158L239.111 231.521C239.629 232.014 240.241 232.337 241.032 232.337C241.839 232.337 242.256 231.912 242.256 231.444C242.256 230.892 241.771 230.679 240.794 230.458C239.604 230.178 238.813 229.821 238.813 228.767C238.813 227.789 239.663 227.05 240.836 227.05C241.737 227.05 242.409 227.381 242.97 227.874L242.477 228.52C241.984 228.07 241.397 227.806 240.802 227.806C240.148 227.806 239.689 228.223 239.689 228.69C239.689 229.234 240.19 229.421 241.151 229.651C242.315 229.923 243.123 230.314 243.123 231.359C243.123 232.345 242.375 233.094 240.998 233.094ZM248.564 227.16H249.422V233H248.564V230.424H245.376V233H244.518V227.16H245.376V229.625H248.564V227.16ZM251.042 233V227.16H251.901V233H251.042ZM253.626 233V227.16H254.484L257.842 231.589V227.16H258.7V233H257.842L254.484 228.571V233H253.626ZM263.116 230.603V229.855H265.53V232.184C264.977 232.745 264.059 233.102 263.235 233.102C261.594 233.102 260.192 231.716 260.192 230.076C260.192 228.435 261.594 227.058 263.235 227.058C264.059 227.058 264.977 227.407 265.53 227.976L264.926 228.554C264.527 228.121 263.838 227.849 263.235 227.849C262.062 227.849 261.076 228.869 261.076 230.076C261.076 231.291 262.062 232.311 263.235 232.311C263.728 232.311 264.28 232.133 264.68 231.827V230.603H263.116ZM205.553 245V239.959H203.64V239.16H208.332V239.959H206.411V245H205.553ZM214.272 241.064C214.272 241.965 213.66 242.654 212.776 242.883L214.264 245H213.278L211.85 242.968H210.507V245H209.648V239.16H212.105C213.337 239.16 214.272 239.951 214.272 241.064ZM210.507 239.959V242.169H211.986C212.827 242.169 213.397 241.753 213.397 241.064C213.397 240.376 212.827 239.959 211.986 239.959H210.507ZM220.19 245L219.68 243.81H216.637L216.127 245H215.175L217.682 239.16H218.634L221.142 245H220.19ZM216.968 243.036H219.348L218.158 240.265L216.968 243.036ZM222.442 245V239.16H223.3L226.658 243.589V239.16H227.516V245H226.658L223.3 240.571V245H222.442ZM231.328 245.094C230.351 245.094 229.543 244.753 228.923 244.158L229.441 243.521C229.96 244.014 230.572 244.337 231.362 244.337C232.17 244.337 232.586 243.912 232.586 243.444C232.586 242.892 232.102 242.679 231.124 242.458C229.934 242.178 229.144 241.821 229.144 240.767C229.144 239.789 229.994 239.05 231.167 239.05C232.068 239.05 232.739 239.381 233.3 239.874L232.807 240.52C232.314 240.07 231.728 239.806 231.133 239.806C230.478 239.806 230.019 240.223 230.019 240.69C230.019 241.234 230.521 241.421 231.481 241.651C232.646 241.923 233.453 242.314 233.453 243.359C233.453 244.345 232.705 245.094 231.328 245.094ZM239.447 245L238.937 243.81H235.894L235.384 245H234.432L236.939 239.16H237.891L240.399 245H239.447ZM236.225 243.036H238.605L237.415 240.265L236.225 243.036ZM244.401 245.102C242.761 245.102 241.367 243.716 241.367 242.076C241.367 240.435 242.761 239.058 244.401 239.058C245.234 239.058 245.999 239.407 246.552 239.976L245.948 240.554C245.557 240.129 245.005 239.849 244.401 239.849C243.237 239.849 242.251 240.869 242.251 242.076C242.251 243.291 243.237 244.311 244.401 244.311C245.005 244.311 245.557 244.031 245.948 243.606L246.552 244.184C245.999 244.745 245.234 245.102 244.401 245.102ZM249.379 245V239.959H247.466V239.16H252.158V239.959H250.237V245H249.379ZM253.483 245V239.16H254.341V245H253.483ZM258.769 245.102C257.128 245.102 255.734 243.716 255.734 242.076C255.734 240.435 257.128 239.058 258.769 239.058C260.409 239.058 261.786 240.435 261.786 242.076C261.786 243.716 260.409 245.102 258.769 245.102ZM258.769 244.311C259.933 244.311 260.911 243.291 260.911 242.076C260.911 240.869 259.933 239.849 258.769 239.849C257.604 239.849 256.618 240.869 256.618 242.076C256.618 243.291 257.604 244.311 258.769 244.311ZM263.279 245V239.16H264.138L267.495 243.589V239.16H268.354V245H267.495L264.138 240.571V245H263.279ZM272.166 245.094C271.188 245.094 270.381 244.753 269.76 244.158L270.279 243.521C270.797 244.014 271.409 244.337 272.2 244.337C273.007 244.337 273.424 243.912 273.424 243.444C273.424 242.892 272.939 242.679 271.962 242.458C270.772 242.178 269.981 241.821 269.981 240.767C269.981 239.789 270.831 239.05 272.004 239.05C272.905 239.05 273.577 239.381 274.138 239.874L273.645 240.52C273.152 240.07 272.565 239.806 271.97 239.806C271.316 239.806 270.857 240.223 270.857 240.69C270.857 241.234 271.358 241.421 272.319 241.651C273.483 241.923 274.291 242.314 274.291 243.359C274.291 244.345 273.543 245.094 272.166 245.094Z" fill="#18181B"/>
<rect x="22.5" y="194.5" width="158" height="43" rx="14.5" fill="white" stroke="#18181B" stroke-width="3"/>
<path d="M41.8456 220.154C40.2356 220.154 38.9056 219.594 37.8836 218.614L38.7376 217.564C39.5916 218.376 40.5996 218.908 41.9016 218.908C43.2316 218.908 43.9176 218.208 43.9176 217.438C43.9176 216.528 43.1196 216.178 41.5096 215.814C39.5496 215.352 38.2476 214.764 38.2476 213.028C38.2476 211.418 39.6476 210.2 41.5796 210.2C43.0636 210.2 44.1696 210.746 45.0936 211.558L44.2816 212.622C43.4696 211.88 42.5036 211.446 41.5236 211.446C40.4456 211.446 39.6896 212.132 39.6896 212.902C39.6896 213.798 40.5156 214.106 42.0976 214.484C44.0156 214.932 45.3456 215.576 45.3456 217.298C45.3456 218.922 44.1136 220.154 41.8456 220.154ZM50.4712 220.168C48.3992 220.168 46.6492 218.432 46.6492 216.374C46.6492 214.316 48.3992 212.594 50.4712 212.594C52.5292 212.594 54.2652 214.316 54.2652 216.374C54.2652 218.432 52.5292 220.168 50.4712 220.168ZM50.4712 218.964C51.7732 218.964 52.8792 217.788 52.8792 216.374C52.8792 214.974 51.7732 213.798 50.4712 213.798C49.1412 213.798 48.0352 214.974 48.0352 216.374C48.0352 217.788 49.1412 218.964 50.4712 218.964ZM60.8709 212.762H62.2569V220H60.8709V218.95C60.4369 219.664 59.5549 220.168 58.5749 220.168C56.9789 220.168 55.8589 219.006 55.8589 217.368V212.762H57.2169V217.13C57.2169 218.208 57.9029 218.964 58.8829 218.964C59.8909 218.964 60.7589 218.306 60.8709 217.452V212.762ZM65.7238 214.148C66.1858 213.196 67.1658 212.594 68.4118 212.594V213.798C66.9138 213.798 65.8498 214.624 65.7238 215.884V220H64.3378V212.762H65.7238V214.148ZM73.1799 220.168C71.1219 220.168 69.3719 218.432 69.3719 216.374C69.3719 214.316 71.1219 212.594 73.1939 212.594C74.2299 212.594 75.1679 213.028 75.8539 213.714L74.9159 214.582C74.4819 214.092 73.8519 213.798 73.1799 213.798C71.8639 213.798 70.7719 214.974 70.7719 216.374C70.7719 217.788 71.8639 218.964 73.1939 218.964C73.8659 218.964 74.5099 218.656 74.9579 218.152L75.8959 219.006C75.1959 219.72 74.2579 220.168 73.1799 220.168ZM80.6971 218.936C81.4531 218.936 82.3351 218.6 82.7691 218.152L83.6371 219.048C82.9931 219.734 81.7331 220.168 80.7111 220.168C78.6951 220.168 76.9871 218.586 76.9871 216.36C76.9871 214.19 78.5971 212.594 80.5991 212.594C82.8111 212.594 84.0851 214.274 84.0851 216.864H78.3871C78.5691 218.068 79.4511 218.936 80.6971 218.936ZM80.6551 213.826C79.5351 213.826 78.6251 214.582 78.4011 215.758H82.7411C82.5871 214.638 81.9011 213.826 80.6551 213.826ZM97.3135 220L96.4735 218.04H91.4615L90.6215 220H89.0535L93.1835 210.382H94.7515L98.8815 220H97.3135ZM92.0075 216.766H95.9275L93.9675 212.202L92.0075 216.766ZM104.27 212.594C106.174 212.594 107.602 214.162 107.602 216.374C107.602 218.6 106.174 220.168 104.27 220.168C103.15 220.168 102.254 219.636 101.694 218.74V222.408H100.322V212.762H101.694V214.008C102.254 213.126 103.15 212.594 104.27 212.594ZM103.934 218.964C105.264 218.964 106.202 217.886 106.202 216.374C106.202 214.862 105.264 213.798 103.934 213.798C102.632 213.798 101.694 214.862 101.694 216.374C101.694 217.886 102.632 218.964 103.934 218.964ZM113.294 212.594C115.198 212.594 116.626 214.162 116.626 216.374C116.626 218.6 115.198 220.168 113.294 220.168C112.174 220.168 111.278 219.636 110.718 218.74V222.408H109.346V212.762H110.718V214.008C111.278 213.126 112.174 212.594 113.294 212.594ZM112.958 218.964C114.288 218.964 115.226 217.886 115.226 216.374C115.226 214.862 114.288 213.798 112.958 213.798C111.656 213.798 110.718 214.862 110.718 216.374C110.718 217.886 111.656 218.964 112.958 218.964ZM118.299 220V210.214H119.671V220H118.299ZM122.376 211.558C121.9 211.558 121.536 211.166 121.536 210.718C121.536 210.284 121.9 209.892 122.376 209.892C122.824 209.892 123.202 210.284 123.202 210.718C123.202 211.166 122.824 211.558 122.376 211.558ZM121.676 220V212.762H123.062V220H121.676ZM128.483 220.168C126.425 220.168 124.675 218.432 124.675 216.374C124.675 214.316 126.425 212.594 128.497 212.594C129.533 212.594 130.471 213.028 131.157 213.714L130.219 214.582C129.785 214.092 129.155 213.798 128.483 213.798C127.167 213.798 126.075 214.974 126.075 216.374C126.075 217.788 127.167 218.964 128.497 218.964C129.169 218.964 129.813 218.656 130.261 218.152L131.199 219.006C130.499 219.72 129.561 220.168 128.483 220.168ZM135.72 212.594C137.666 212.594 138.744 213.826 138.744 215.618V220H137.386V219.006C136.854 219.762 135.86 220.168 134.978 220.168C133.438 220.168 132.304 219.272 132.304 217.858C132.304 216.416 133.606 215.45 135.202 215.45C135.916 215.45 136.686 215.604 137.386 215.842V215.618C137.386 214.708 136.966 213.742 135.524 213.742C134.81 213.742 134.11 214.022 133.48 214.344L132.976 213.322C134.012 212.804 134.922 212.594 135.72 212.594ZM135.244 219.076C136.14 219.076 137.148 218.628 137.386 217.732V216.766C136.798 216.584 136.126 216.486 135.412 216.486C134.446 216.486 133.634 217.032 133.634 217.816C133.634 218.6 134.334 219.076 135.244 219.076ZM144.136 218.698L144.64 219.65C144.248 219.972 143.716 220.168 143.198 220.168C142.078 220.168 141.294 219.356 141.294 218.194V213.938H140.202V212.762H141.294V210.774H142.652V212.762H144.36V213.938H142.652V218.096C142.652 218.6 142.988 218.964 143.394 218.964C143.702 218.964 143.982 218.852 144.136 218.698ZM146.739 211.558C146.263 211.558 145.899 211.166 145.899 210.718C145.899 210.284 146.263 209.892 146.739 209.892C147.187 209.892 147.565 210.284 147.565 210.718C147.565 211.166 147.187 211.558 146.739 211.558ZM146.039 220V212.762H147.425V220H146.039ZM152.86 220.168C150.788 220.168 149.038 218.432 149.038 216.374C149.038 214.316 150.788 212.594 152.86 212.594C154.918 212.594 156.654 214.316 156.654 216.374C156.654 218.432 154.918 220.168 152.86 220.168ZM152.86 218.964C154.162 218.964 155.268 217.788 155.268 216.374C155.268 214.974 154.162 213.798 152.86 213.798C151.53 213.798 150.424 214.974 150.424 216.374C150.424 217.788 151.53 218.964 152.86 218.964ZM161.958 212.594C163.554 212.594 164.674 213.756 164.674 215.394V220H163.316V215.632C163.316 214.554 162.63 213.798 161.65 213.798C160.642 213.798 159.774 214.456 159.662 215.31V220H158.276V212.762H159.662V213.812C160.096 213.098 160.978 212.594 161.958 212.594Z" fill="#18181B"/>
<path d="M-149 -34H343V-36H-149V-34ZM344 -33V459H346V-33H344ZM343 460H-149V462H343V460ZM-150 459V-33H-152V459H-150ZM-149 460C-149.552 460 -150 459.552 -150 459H-152C-152 460.657 -150.657 462 -149 462V460ZM344 459C344 459.552 343.552 460 343 460V462C344.657 462 346 460.657 346 459H344ZM343 -34C343.552 -34 344 -33.5523 344 -33H346C346 -34.6569 344.657 -36 343 -36V-34ZM-149 -36C-150.657 -36 -152 -34.6569 -152 -33H-150C-150 -33.5523 -149.552 -34 -149 -34V-36Z" fill="black" fill-opacity="0.1"/>
<rect x="563.5" y="194.5" width="158" height="43" rx="14.5" fill="white" stroke="#18181B" stroke-width="3"/>
<path d="M582.185 211.698H576.543V214.442H581.639V215.758H576.543V218.684H582.185V220H575.115V210.382H582.185V211.698ZM587.601 212.594C589.197 212.594 590.317 213.756 590.317 215.394V220H588.959V215.632C588.959 214.554 588.273 213.798 587.293 213.798C586.285 213.798 585.417 214.456 585.305 215.31V220H583.919V212.762H585.305V213.812C585.739 213.098 586.621 212.594 587.601 212.594ZM593.756 214.148C594.218 213.196 595.198 212.594 596.444 212.594V213.798C594.946 213.798 593.882 214.624 593.756 215.884V220H592.37V212.762H593.756V214.148ZM598.482 211.558C598.006 211.558 597.642 211.166 597.642 210.718C597.642 210.284 598.006 209.892 598.482 209.892C598.93 209.892 599.308 210.284 599.308 210.718C599.308 211.166 598.93 211.558 598.482 211.558ZM597.782 220V212.762H599.168V220H597.782ZM604.589 220.168C602.531 220.168 600.781 218.432 600.781 216.374C600.781 214.316 602.531 212.594 604.603 212.594C605.639 212.594 606.577 213.028 607.263 213.714L606.325 214.582C605.891 214.092 605.261 213.798 604.589 213.798C603.273 213.798 602.181 214.974 602.181 216.374C602.181 217.788 603.273 218.964 604.603 218.964C605.275 218.964 605.919 218.656 606.367 218.152L607.305 219.006C606.605 219.72 605.667 220.168 604.589 220.168ZM612.47 212.594C614.066 212.594 615.186 213.756 615.186 215.394V220H613.828V215.632C613.828 214.554 613.142 213.798 612.162 213.798C611.07 213.798 610.16 214.568 610.16 215.506V220H608.788V210.214H610.16V213.84C610.594 213.112 611.476 212.594 612.47 212.594ZM620.487 218.936C621.243 218.936 622.125 218.6 622.559 218.152L623.427 219.048C622.783 219.734 621.523 220.168 620.501 220.168C618.485 220.168 616.777 218.586 616.777 216.36C616.777 214.19 618.387 212.594 620.389 212.594C622.601 212.594 623.875 214.274 623.875 216.864H618.177C618.359 218.068 619.241 218.936 620.487 218.936ZM620.445 213.826C619.325 213.826 618.415 214.582 618.191 215.758H622.531C622.377 214.638 621.691 213.826 620.445 213.826ZM626.938 214.148C627.4 213.196 628.38 212.594 629.626 212.594V213.798C628.128 213.798 627.064 214.624 626.938 215.884V220H625.552V212.762H626.938V214.148ZM642.6 220L641.76 218.04H636.748L635.908 220H634.34L638.47 210.382H640.038L644.168 220H642.6ZM637.294 216.766H641.214L639.254 212.202L637.294 216.766ZM649.556 212.594C651.46 212.594 652.888 214.162 652.888 216.374C652.888 218.6 651.46 220.168 649.556 220.168C648.436 220.168 647.54 219.636 646.98 218.74V222.408H645.608V212.762H646.98V214.008C647.54 213.126 648.436 212.594 649.556 212.594ZM649.22 218.964C650.55 218.964 651.488 217.886 651.488 216.374C651.488 214.862 650.55 213.798 649.22 213.798C647.918 213.798 646.98 214.862 646.98 216.374C646.98 217.886 647.918 218.964 649.22 218.964ZM658.58 212.594C660.484 212.594 661.912 214.162 661.912 216.374C661.912 218.6 660.484 220.168 658.58 220.168C657.46 220.168 656.564 219.636 656.004 218.74V222.408H654.632V212.762H656.004V214.008C656.564 213.126 657.46 212.594 658.58 212.594ZM658.244 218.964C659.574 218.964 660.512 217.886 660.512 216.374C660.512 214.862 659.574 213.798 658.244 213.798C656.942 213.798 656.004 214.862 656.004 216.374C656.004 217.886 656.942 218.964 658.244 218.964ZM663.585 220V210.214H664.957V220H663.585ZM667.662 211.558C667.186 211.558 666.822 211.166 666.822 210.718C666.822 210.284 667.186 209.892 667.662 209.892C668.11 209.892 668.488 210.284 668.488 210.718C668.488 211.166 668.11 211.558 667.662 211.558ZM666.962 220V212.762H668.348V220H666.962ZM673.769 220.168C671.711 220.168 669.961 218.432 669.961 216.374C669.961 214.316 671.711 212.594 673.783 212.594C674.819 212.594 675.757 213.028 676.443 213.714L675.505 214.582C675.071 214.092 674.441 213.798 673.769 213.798C672.453 213.798 671.361 214.974 671.361 216.374C671.361 217.788 672.453 218.964 673.783 218.964C674.455 218.964 675.099 218.656 675.547 218.152L676.485 219.006C675.785 219.72 674.847 220.168 673.769 220.168ZM681.006 212.594C682.952 212.594 684.03 213.826 684.03 215.618V220H682.672V219.006C682.14 219.762 681.146 220.168 680.264 220.168C678.724 220.168 677.59 219.272 677.59 217.858C677.59 216.416 678.892 215.45 680.488 215.45C681.202 215.45 681.972 215.604 682.672 215.842V215.618C682.672 214.708 682.252 213.742 680.81 213.742C680.096 213.742 679.396 214.022 678.766 214.344L678.262 213.322C679.298 212.804 680.208 212.594 681.006 212.594ZM680.53 219.076C681.426 219.076 682.434 218.628 682.672 217.732V216.766C682.084 216.584 681.412 216.486 680.698 216.486C679.732 216.486 678.92 217.032 678.92 217.816C678.92 218.6 679.62 219.076 680.53 219.076ZM689.422 218.698L689.926 219.65C689.534 219.972 689.002 220.168 688.484 220.168C687.364 220.168 686.58 219.356 686.58 218.194V213.938H685.488V212.762H686.58V210.774H687.938V212.762H689.646V213.938H687.938V218.096C687.938 218.6 688.274 218.964 688.68 218.964C688.988 218.964 689.268 218.852 689.422 218.698ZM692.025 211.558C691.549 211.558 691.185 211.166 691.185 210.718C691.185 210.284 691.549 209.892 692.025 209.892C692.473 209.892 692.851 210.284 692.851 210.718C692.851 211.166 692.473 211.558 692.025 211.558ZM691.325 220V212.762H692.711V220H691.325ZM698.146 220.168C696.074 220.168 694.324 218.432 694.324 216.374C694.324 214.316 696.074 212.594 698.146 212.594C700.204 212.594 701.94 214.316 701.94 216.374C701.94 218.432 700.204 220.168 698.146 220.168ZM698.146 218.964C699.448 218.964 700.554 217.788 700.554 216.374C700.554 214.974 699.448 213.798 698.146 213.798C696.816 213.798 695.71 214.974 695.71 216.374C695.71 217.788 696.816 218.964 698.146 218.964ZM707.244 212.594C708.84 212.594 709.96 213.756 709.96 215.394V220H708.602V215.632C708.602 214.554 707.916 213.798 706.936 213.798C705.928 213.798 705.06 214.456 704.948 215.31V220H703.562V212.762H704.948V213.812C705.382 213.098 706.264 212.594 707.244 212.594Z" fill="#18181B"/>
</g>
<defs>
<clipPath id="clip0_545_2">
<rect width="743" height="431" fill="white"/>
</clipPath>
</defs>
</svg>
