<svg width="887" height="431" viewBox="0 0 887 431" fill="none" xmlns="http://www.w3.org/2000/svg">
<g clip-path="url(#clip0_517_357738)">
<rect width="887" height="431" fill="white"/>
<circle cx="446" cy="216" r="254" fill="#F4F4F5"/>
<circle cx="182.963" cy="337.963" r="2.96296" fill="#4C7C2C"/>
<circle cx="197.778" cy="337.963" r="2.96296" fill="#4C7C2C"/>
<circle cx="212.593" cy="337.963" r="2.96296" fill="#4C7C2C"/>
<circle cx="227.407" cy="337.963" r="2.96296" fill="#4C7C2C"/>
<circle cx="242.222" cy="337.963" r="2.96296" fill="#4C7C2C"/>
<circle cx="182.963" cy="352.778" r="2.96296" fill="#4C7C2C"/>
<circle cx="197.778" cy="352.778" r="2.96296" fill="#4C7C2C"/>
<circle cx="212.593" cy="352.778" r="2.96296" fill="#4C7C2C"/>
<circle cx="227.407" cy="352.778" r="2.96296" fill="#4C7C2C"/>
<circle cx="242.222" cy="352.778" r="2.96296" fill="#4C7C2C"/>
<circle cx="182.963" cy="367.593" r="2.96296" fill="#4C7C2C"/>
<circle cx="197.778" cy="367.593" r="2.96296" fill="#4C7C2C"/>
<circle cx="212.593" cy="367.593" r="2.96296" fill="#4C7C2C"/>
<circle cx="227.407" cy="367.593" r="2.96296" fill="#4C7C2C"/>
<circle cx="242.222" cy="367.593" r="2.96296" fill="#4C7C2C"/>
<circle cx="182.963" cy="382.408" r="2.96296" fill="#4C7C2C"/>
<circle cx="197.778" cy="382.408" r="2.96296" fill="#4C7C2C"/>
<circle cx="212.593" cy="382.408" r="2.96296" fill="#4C7C2C"/>
<circle cx="227.407" cy="382.408" r="2.96296" fill="#4C7C2C"/>
<circle cx="242.222" cy="382.408" r="2.96296" fill="#4C7C2C"/>
<circle cx="182.963" cy="397.222" r="2.96296" fill="#4C7C2C"/>
<circle cx="257.037" cy="397.222" r="2.96296" transform="rotate(-90 257.037 397.222)" fill="#4C7C2C"/>
<circle cx="197.778" cy="397.222" r="2.96296" fill="#4C7C2C"/>
<circle cx="257.037" cy="382.407" r="2.96296" transform="rotate(-90 257.037 382.407)" fill="#4C7C2C"/>
<circle cx="212.593" cy="397.222" r="2.96296" fill="#4C7C2C"/>
<circle cx="257.037" cy="367.592" r="2.96296" transform="rotate(-90 257.037 367.592)" fill="#4C7C2C"/>
<circle cx="227.407" cy="397.222" r="2.96296" fill="#4C7C2C"/>
<circle cx="257.037" cy="352.778" r="2.96296" transform="rotate(-90 257.037 352.778)" fill="#4C7C2C"/>
<circle cx="242.222" cy="397.222" r="2.96296" fill="#4C7C2C"/>
<circle cx="257.037" cy="337.963" r="2.96296" transform="rotate(-90 257.037 337.963)" fill="#4C7C2C"/>
<rect x="349" y="128" width="194" height="176" stroke="#4C7C2C" stroke-width="3" stroke-linecap="round" stroke-linejoin="round" stroke-dasharray="0.4 10"/>
<rect x="366.715" y="175.347" width="158.73" height="29.5055" fill="white" stroke="#191E1E" stroke-width="2"/>
<rect x="366.715" y="214.794" width="158.73" height="29.5055" fill="white" stroke="#191E1E" stroke-width="2"/>
<rect x="366.715" y="258" width="158.73" height="29.5055" fill="white" stroke="#191E1E" stroke-width="2"/>
<path d="M381.425 158.014C380.069 158.014 379.001 157.522 378.173 156.706L378.761 155.974C379.457 156.67 380.309 157.162 381.461 157.162C382.733 157.162 383.381 156.466 383.381 155.722C383.381 154.846 382.601 154.498 381.161 154.162C379.505 153.778 378.461 153.262 378.461 151.834C378.461 150.514 379.637 149.482 381.221 149.482C382.445 149.482 383.357 149.962 384.113 150.658L383.537 151.39C382.853 150.73 382.037 150.334 381.173 150.334C380.153 150.334 379.409 151.006 379.409 151.762C379.409 152.614 380.225 152.914 381.629 153.25C383.201 153.622 384.329 154.186 384.329 155.638C384.329 156.946 383.345 158.014 381.425 158.014ZM389.132 151.534C390.764 151.534 391.988 152.878 391.988 154.774C391.988 156.682 390.764 158.026 389.132 158.026C388.136 158.026 387.344 157.534 386.876 156.718V159.946H385.976V151.678H386.876V152.842C387.344 152.026 388.136 151.534 389.132 151.534ZM388.964 157.222C390.176 157.222 391.04 156.202 391.04 154.774C391.04 153.346 390.176 152.338 388.964 152.338C387.74 152.338 386.876 153.346 386.876 154.774C386.876 156.202 387.74 157.222 388.964 157.222ZM394.529 152.89C394.901 152.062 395.789 151.534 396.929 151.534V152.338C395.525 152.338 394.529 153.202 394.529 154.414V157.882H393.629V151.678H394.529V152.89ZM398.618 150.55C398.282 150.55 398.018 150.274 398.018 149.95C398.018 149.638 398.282 149.362 398.618 149.362C398.942 149.362 399.206 149.638 399.206 149.95C399.206 150.274 398.942 150.55 398.618 150.55ZM398.162 157.882V151.678H399.062V157.882H398.162ZM403.821 151.534C405.189 151.534 406.149 152.53 406.149 153.934V157.882H405.249V154.054C405.249 153.046 404.613 152.338 403.701 152.338C402.657 152.338 401.781 153.07 401.781 153.934V157.882H400.881V151.678H401.781V152.674C402.141 152.014 402.945 151.534 403.821 151.534ZM412.795 151.678H413.695V157.222C413.695 158.818 412.435 159.946 410.647 159.946C409.639 159.946 408.703 159.598 408.139 159.118L408.535 158.41C409.015 158.866 409.759 159.142 410.527 159.142C411.955 159.142 412.795 158.434 412.795 157.222V156.214C412.315 156.97 411.523 157.426 410.539 157.426C408.871 157.426 407.683 156.202 407.683 154.474C407.683 152.746 408.871 151.534 410.539 151.534C411.523 151.534 412.315 151.99 412.795 152.746V151.678ZM410.707 156.622C411.931 156.622 412.795 155.734 412.795 154.474C412.795 153.226 411.931 152.338 410.707 152.338C409.495 152.338 408.631 153.226 408.631 154.474C408.631 155.734 409.495 156.622 410.707 156.622ZM419.296 157.882V149.638H423.076C424.408 149.638 425.344 150.49 425.344 151.69C425.344 152.566 424.912 153.07 424.168 153.502C425.116 153.982 425.668 154.726 425.668 155.626C425.668 156.946 424.648 157.882 423.22 157.882H419.296ZM420.232 153.13H422.836C423.748 153.13 424.396 152.578 424.396 151.81C424.396 151.042 423.748 150.49 422.836 150.49H420.232V153.13ZM420.232 157.03H422.98C424 157.03 424.72 156.394 424.72 155.506C424.72 154.618 424 153.982 422.98 153.982H420.232V157.03ZM430.14 158.026C428.4 158.026 426.924 156.538 426.924 154.774C426.924 153.01 428.4 151.534 430.14 151.534C431.88 151.534 433.344 153.01 433.344 154.774C433.344 156.538 431.88 158.026 430.14 158.026ZM430.14 157.222C431.364 157.222 432.396 156.106 432.396 154.774C432.396 153.454 431.364 152.338 430.14 152.338C428.904 152.338 427.872 153.454 427.872 154.774C427.872 156.106 428.904 157.222 430.14 157.222ZM437.71 158.026C435.97 158.026 434.494 156.538 434.494 154.774C434.494 153.01 435.97 151.534 437.71 151.534C439.45 151.534 440.914 153.01 440.914 154.774C440.914 156.538 439.45 158.026 437.71 158.026ZM437.71 157.222C438.934 157.222 439.966 156.106 439.966 154.774C439.966 153.454 438.934 152.338 437.71 152.338C436.474 152.338 435.442 153.454 435.442 154.774C435.442 156.106 436.474 157.222 437.71 157.222ZM445.124 156.97L445.568 157.63C445.244 157.882 444.836 158.026 444.416 158.026C443.528 158.026 442.904 157.366 442.904 156.442V152.482H441.932V151.678H442.904V149.974H443.804V151.678H445.328V152.482H443.804V156.442C443.804 156.898 444.116 157.222 444.476 157.222C444.752 157.222 444.992 157.114 445.124 156.97ZM457.066 157.882L456.238 156.01H451.642L450.814 157.882H449.794L453.43 149.638H454.45L458.086 157.882H457.066ZM452.026 155.122H455.854L453.946 150.79L452.026 155.122ZM462.621 151.534C464.253 151.534 465.477 152.878 465.477 154.774C465.477 156.682 464.253 158.026 462.621 158.026C461.625 158.026 460.833 157.534 460.365 156.718V159.946H459.465V151.678H460.365V152.842C460.833 152.026 461.625 151.534 462.621 151.534ZM462.453 157.222C463.665 157.222 464.529 156.202 464.529 154.774C464.529 153.346 463.665 152.338 462.453 152.338C461.229 152.338 460.365 153.346 460.365 154.774C460.365 156.202 461.229 157.222 462.453 157.222ZM470.273 151.534C471.905 151.534 473.129 152.878 473.129 154.774C473.129 156.682 471.905 158.026 470.273 158.026C469.277 158.026 468.485 157.534 468.017 156.718V159.946H467.117V151.678H468.017V152.842C468.485 152.026 469.277 151.534 470.273 151.534ZM470.105 157.222C471.317 157.222 472.181 156.202 472.181 154.774C472.181 153.346 471.317 152.338 470.105 152.338C468.881 152.338 468.017 153.346 468.017 154.774C468.017 156.202 468.881 157.222 470.105 157.222ZM474.685 157.882V149.494H475.585V157.882H474.685ZM477.848 150.55C477.512 150.55 477.248 150.274 477.248 149.95C477.248 149.638 477.512 149.362 477.848 149.362C478.172 149.362 478.436 149.638 478.436 149.95C478.436 150.274 478.172 150.55 477.848 150.55ZM477.392 157.882V151.678H478.292V157.882H477.392ZM482.98 158.026C481.24 158.026 479.764 156.538 479.764 154.774C479.764 153.01 481.24 151.534 482.98 151.534C483.82 151.534 484.6 151.882 485.188 152.446L484.564 153.058C484.156 152.614 483.592 152.338 482.98 152.338C481.744 152.338 480.712 153.454 480.712 154.774C480.712 156.106 481.744 157.222 482.98 157.222C483.604 157.222 484.18 156.934 484.6 156.466L485.224 157.078C484.636 157.666 483.844 158.026 482.98 158.026ZM489.123 151.534C490.815 151.534 491.643 152.602 491.643 154.102V157.882H490.743V156.91C490.299 157.642 489.375 158.026 488.559 158.026C487.251 158.026 486.291 157.27 486.291 156.046C486.291 154.81 487.395 153.982 488.727 153.982C489.399 153.982 490.107 154.126 490.743 154.33V154.102C490.743 153.262 490.407 152.302 489.063 152.302C488.439 152.302 487.815 152.578 487.251 152.866L486.891 152.134C487.779 151.69 488.523 151.534 489.123 151.534ZM488.715 157.234C489.531 157.234 490.503 156.814 490.743 155.938V154.99C490.179 154.834 489.543 154.738 488.871 154.738C487.947 154.738 487.167 155.266 487.167 156.01C487.167 156.778 487.839 157.234 488.715 157.234ZM496.206 156.97L496.65 157.63C496.326 157.882 495.918 158.026 495.498 158.026C494.61 158.026 493.986 157.366 493.986 156.442V152.482H493.014V151.678H493.986V149.974H494.886V151.678H496.41V152.482H494.886V156.442C494.886 156.898 495.198 157.222 495.558 157.222C495.834 157.222 496.074 157.114 496.206 156.97ZM498.368 150.55C498.032 150.55 497.768 150.274 497.768 149.95C497.768 149.638 498.032 149.362 498.368 149.362C498.692 149.362 498.956 149.638 498.956 149.95C498.956 150.274 498.692 150.55 498.368 150.55ZM497.912 157.882V151.678H498.812V157.882H497.912ZM503.499 158.026C501.759 158.026 500.283 156.538 500.283 154.774C500.283 153.01 501.759 151.534 503.499 151.534C505.239 151.534 506.703 153.01 506.703 154.774C506.703 156.538 505.239 158.026 503.499 158.026ZM503.499 157.222C504.723 157.222 505.755 156.106 505.755 154.774C505.755 153.454 504.723 152.338 503.499 152.338C502.263 152.338 501.231 153.454 501.231 154.774C501.231 156.106 502.263 157.222 503.499 157.222ZM511.141 151.534C512.509 151.534 513.469 152.53 513.469 153.934V157.882H512.569V154.054C512.569 153.046 511.933 152.338 511.021 152.338C509.977 152.338 509.101 153.07 509.101 153.934V157.882H508.201V151.678H509.101V152.674C509.461 152.014 510.265 151.534 511.141 151.534Z" fill="#191E1E"/>
<path d="M384.744 194.132C383.328 194.132 382.128 193.652 381.216 192.8L382.08 191.732C382.836 192.416 383.712 192.848 384.792 192.848C385.812 192.848 386.34 192.344 386.34 191.756C386.34 191.072 385.752 190.844 384.432 190.532C382.728 190.136 381.54 189.644 381.54 188.096C381.54 186.656 382.764 185.6 384.504 185.6C385.812 185.6 386.796 186.044 387.624 186.752L386.808 187.856C386.088 187.232 385.26 186.884 384.444 186.884C383.616 186.884 383.052 187.388 383.052 187.964C383.052 188.636 383.664 188.876 384.972 189.176C386.688 189.56 387.84 190.112 387.84 191.612C387.84 193.088 386.712 194.132 384.744 194.132ZM392.819 187.652C394.463 187.652 395.663 188.996 395.663 190.892C395.663 192.8 394.463 194.144 392.819 194.144C391.895 194.144 391.151 193.724 390.659 193.016V196.064H389.195V187.796H390.659V188.78C391.151 188.072 391.895 187.652 392.819 187.652ZM392.423 192.896C393.467 192.896 394.211 192.056 394.211 190.892C394.211 189.728 393.467 188.9 392.423 188.9C391.391 188.9 390.671 189.728 390.671 190.892C390.671 192.056 391.391 192.896 392.423 192.896ZM398.488 188.996C398.884 188.168 399.688 187.652 400.708 187.652V188.9C399.376 188.9 398.488 189.692 398.488 190.868V194H397.024V187.796H398.488V188.996ZM402.536 186.86C402.068 186.86 401.696 186.464 401.696 186.02C401.696 185.576 402.068 185.192 402.536 185.192C402.992 185.192 403.364 185.576 403.364 186.02C403.364 186.464 402.992 186.86 402.536 186.86ZM401.792 194V187.796H403.256V194H401.792ZM408.258 187.652C409.614 187.652 410.562 188.648 410.562 190.052V194H409.146V190.34C409.146 189.5 408.606 188.9 407.838 188.9C407.07 188.9 406.434 189.416 406.338 190.076V194H404.874V187.796H406.338V188.624C406.722 188.048 407.442 187.652 408.258 187.652ZM416.772 187.796H418.236V193.34C418.236 194.936 416.892 196.064 414.996 196.064C413.928 196.064 412.944 195.716 412.332 195.236L412.872 194.168C413.304 194.564 414.048 194.816 414.78 194.816C416.004 194.816 416.772 194.228 416.772 193.292V192.488C416.28 193.148 415.536 193.544 414.648 193.544C413.04 193.544 411.852 192.32 411.852 190.592C411.852 188.864 413.04 187.652 414.648 187.652C415.524 187.652 416.328 188.06 416.772 188.72V187.796ZM415.068 192.296C416.064 192.296 416.772 191.588 416.772 190.592C416.772 189.608 416.064 188.9 415.068 188.9C414.084 188.9 413.376 189.608 413.376 190.592C413.376 191.588 414.084 192.296 415.068 192.296ZM427.341 194.144C424.989 194.144 423.009 192.188 423.009 189.872C423.009 187.556 424.989 185.612 427.341 185.612C428.553 185.612 429.657 186.128 430.449 186.944L429.381 187.94C428.877 187.352 428.133 186.98 427.341 186.98C425.817 186.98 424.533 188.3 424.533 189.872C424.533 191.456 425.817 192.776 427.341 192.776C428.145 192.776 428.877 192.404 429.393 191.816L430.449 192.8C429.657 193.628 428.553 194.144 427.341 194.144ZM431.558 194V185.612H433.022V194H431.558ZM437.64 194.144C435.84 194.144 434.316 192.656 434.316 190.892C434.316 189.128 435.84 187.652 437.64 187.652C439.44 187.652 440.964 189.128 440.964 190.892C440.964 192.656 439.44 194.144 437.64 194.144ZM437.64 192.896C438.66 192.896 439.524 191.984 439.524 190.892C439.524 189.812 438.66 188.9 437.64 188.9C436.608 188.9 435.744 189.812 435.744 190.892C435.744 191.984 436.608 192.896 437.64 192.896ZM446.434 187.796H447.898V194H446.434V193.172C446.05 193.748 445.33 194.144 444.514 194.144C443.158 194.144 442.21 193.148 442.21 191.744V187.796H443.626V191.456C443.626 192.296 444.166 192.896 444.934 192.896C445.702 192.896 446.338 192.38 446.434 191.72V187.796ZM454.227 185.612H455.691V194H454.227V193.04C453.735 193.736 452.991 194.144 452.079 194.144C450.435 194.144 449.235 192.8 449.235 190.892C449.235 188.996 450.435 187.652 452.079 187.652C452.991 187.652 453.735 188.06 454.227 188.756V185.612ZM452.475 192.896C453.507 192.896 454.227 192.056 454.227 190.892C454.227 189.728 453.507 188.9 452.475 188.9C451.431 188.9 450.687 189.728 450.687 190.892C450.687 192.056 451.431 192.896 452.475 192.896ZM466.99 187.124H462.286V189.212H466.546V190.58H462.286V194H460.786V185.756H466.99V187.124ZM472.449 187.796H473.913V194H472.449V193.172C472.065 193.748 471.345 194.144 470.529 194.144C469.173 194.144 468.225 193.148 468.225 191.744V187.796H469.641V191.456C469.641 192.296 470.181 192.896 470.949 192.896C471.717 192.896 472.353 192.38 472.449 191.72V187.796ZM478.911 187.652C480.267 187.652 481.215 188.648 481.215 190.052V194H479.799V190.34C479.799 189.5 479.259 188.9 478.491 188.9C477.723 188.9 477.087 189.416 476.991 190.076V194H475.527V187.796H476.991V188.624C477.375 188.048 478.095 187.652 478.911 187.652ZM485.792 194.144C484.004 194.144 482.48 192.656 482.48 190.892C482.48 189.128 484.004 187.652 485.816 187.652C486.752 187.652 487.58 188.048 488.168 188.66L487.184 189.524C486.848 189.152 486.332 188.9 485.804 188.9C484.784 188.9 483.932 189.812 483.932 190.892C483.932 191.984 484.784 192.896 485.804 192.896C486.344 192.896 486.872 192.644 487.22 192.248L488.204 193.1C487.604 193.736 486.776 194.144 485.792 194.144ZM492.451 192.668L492.871 193.652C492.523 193.952 492.019 194.144 491.551 194.144C490.519 194.144 489.799 193.4 489.799 192.356V189.008H488.899V187.796H489.799V186.092H491.227V187.796H492.631V189.008H491.227V192.176C491.227 192.596 491.491 192.896 491.839 192.896C492.091 192.896 492.319 192.8 492.451 192.668ZM494.751 186.86C494.283 186.86 493.911 186.464 493.911 186.02C493.911 185.576 494.283 185.192 494.751 185.192C495.207 185.192 495.579 185.576 495.579 186.02C495.579 186.464 495.207 186.86 494.751 186.86ZM494.007 194V187.796H495.471V194H494.007ZM500.089 194.144C498.289 194.144 496.765 192.656 496.765 190.892C496.765 189.128 498.289 187.652 500.089 187.652C501.889 187.652 503.413 189.128 503.413 190.892C503.413 192.656 501.889 194.144 500.089 194.144ZM500.089 192.896C501.109 192.896 501.973 191.984 501.973 190.892C501.973 189.812 501.109 188.9 500.089 188.9C499.057 188.9 498.193 189.812 498.193 190.892C498.193 191.984 499.057 192.896 500.089 192.896ZM508.067 187.652C509.423 187.652 510.371 188.648 510.371 190.052V194H508.955V190.34C508.955 189.5 508.415 188.9 507.647 188.9C506.879 188.9 506.243 189.416 506.147 190.076V194H504.683V187.796H506.147V188.624C506.531 188.048 507.251 187.652 508.067 187.652Z" fill="#191E1E"/>
<path d="M389.406 233.09C387.99 233.09 386.79 232.61 385.878 231.758L386.742 230.69C387.498 231.374 388.374 231.806 389.454 231.806C390.474 231.806 391.002 231.302 391.002 230.714C391.002 230.03 390.414 229.802 389.094 229.49C387.39 229.094 386.202 228.602 386.202 227.054C386.202 225.614 387.426 224.558 389.166 224.558C390.474 224.558 391.458 225.002 392.286 225.71L391.47 226.814C390.75 226.19 389.922 225.842 389.106 225.842C388.278 225.842 387.714 226.346 387.714 226.922C387.714 227.594 388.326 227.834 389.634 228.134C391.35 228.518 392.502 229.07 392.502 230.57C392.502 232.046 391.374 233.09 389.406 233.09ZM397.481 226.61C399.125 226.61 400.325 227.954 400.325 229.85C400.325 231.758 399.125 233.102 397.481 233.102C396.557 233.102 395.813 232.682 395.321 231.974V235.022H393.857V226.754H395.321V227.738C395.813 227.03 396.557 226.61 397.481 226.61ZM397.085 231.854C398.129 231.854 398.873 231.014 398.873 229.85C398.873 228.686 398.129 227.858 397.085 227.858C396.053 227.858 395.333 228.686 395.333 229.85C395.333 231.014 396.053 231.854 397.085 231.854ZM403.15 227.954C403.546 227.126 404.35 226.61 405.37 226.61V227.858C404.038 227.858 403.15 228.65 403.15 229.826V232.958H401.686V226.754H403.15V227.954ZM407.198 225.818C406.73 225.818 406.358 225.422 406.358 224.978C406.358 224.534 406.73 224.15 407.198 224.15C407.654 224.15 408.026 224.534 408.026 224.978C408.026 225.422 407.654 225.818 407.198 225.818ZM406.454 232.958V226.754H407.918V232.958H406.454ZM412.92 226.61C414.276 226.61 415.224 227.606 415.224 229.01V232.958H413.808V229.298C413.808 228.458 413.268 227.858 412.5 227.858C411.732 227.858 411.096 228.374 411 229.034V232.958H409.536V226.754H411V227.582C411.384 227.006 412.104 226.61 412.92 226.61ZM421.434 226.754H422.898V232.298C422.898 233.894 421.554 235.022 419.658 235.022C418.59 235.022 417.606 234.674 416.994 234.194L417.534 233.126C417.966 233.522 418.71 233.774 419.442 233.774C420.666 233.774 421.434 233.186 421.434 232.25V231.446C420.942 232.106 420.198 232.502 419.31 232.502C417.702 232.502 416.514 231.278 416.514 229.55C416.514 227.822 417.702 226.61 419.31 226.61C420.186 226.61 420.99 227.018 421.434 227.678V226.754ZM419.73 231.254C420.726 231.254 421.434 230.546 421.434 229.55C421.434 228.566 420.726 227.858 419.73 227.858C418.746 227.858 418.038 228.566 418.038 229.55C418.038 230.546 418.746 231.254 419.73 231.254ZM432.003 233.102C429.651 233.102 427.671 231.146 427.671 228.83C427.671 226.514 429.651 224.57 432.003 224.57C433.215 224.57 434.319 225.086 435.111 225.902L434.043 226.898C433.539 226.31 432.795 225.938 432.003 225.938C430.479 225.938 429.195 227.258 429.195 228.83C429.195 230.414 430.479 231.734 432.003 231.734C432.807 231.734 433.539 231.362 434.055 230.774L435.111 231.758C434.319 232.586 433.215 233.102 432.003 233.102ZM436.22 232.958V224.57H437.684V232.958H436.22ZM442.302 233.102C440.502 233.102 438.978 231.614 438.978 229.85C438.978 228.086 440.502 226.61 442.302 226.61C444.102 226.61 445.626 228.086 445.626 229.85C445.626 231.614 444.102 233.102 442.302 233.102ZM442.302 231.854C443.322 231.854 444.186 230.942 444.186 229.85C444.186 228.77 443.322 227.858 442.302 227.858C441.27 227.858 440.406 228.77 440.406 229.85C440.406 230.942 441.27 231.854 442.302 231.854ZM451.096 226.754H452.56V232.958H451.096V232.13C450.712 232.706 449.992 233.102 449.176 233.102C447.82 233.102 446.872 232.106 446.872 230.702V226.754H448.288V230.414C448.288 231.254 448.828 231.854 449.596 231.854C450.364 231.854 451 231.338 451.096 230.678V226.754ZM458.889 224.57H460.353V232.958H458.889V231.998C458.397 232.694 457.653 233.102 456.741 233.102C455.097 233.102 453.897 231.758 453.897 229.85C453.897 227.954 455.097 226.61 456.741 226.61C457.653 226.61 458.397 227.018 458.889 227.714V224.57ZM457.137 231.854C458.169 231.854 458.889 231.014 458.889 229.85C458.889 228.686 458.169 227.858 457.137 227.858C456.093 227.858 455.349 228.686 455.349 229.85C455.349 231.014 456.093 231.854 457.137 231.854ZM468.496 233.09C467.08 233.09 465.88 232.61 464.968 231.758L465.832 230.69C466.588 231.374 467.464 231.806 468.544 231.806C469.564 231.806 470.092 231.302 470.092 230.714C470.092 230.03 469.504 229.802 468.184 229.49C466.48 229.094 465.292 228.602 465.292 227.054C465.292 225.614 466.516 224.558 468.256 224.558C469.564 224.558 470.548 225.002 471.376 225.71L470.56 226.814C469.84 226.19 469.012 225.842 468.196 225.842C467.368 225.842 466.804 226.346 466.804 226.922C466.804 227.594 467.416 227.834 468.724 228.134C470.44 228.518 471.592 229.07 471.592 230.57C471.592 232.046 470.464 233.09 468.496 233.09ZM476.007 231.626L476.427 232.61C476.079 232.91 475.575 233.102 475.107 233.102C474.075 233.102 473.355 232.358 473.355 231.314V227.966H472.455V226.754H473.355V225.05H474.783V226.754H476.187V227.966H474.783V231.134C474.783 231.554 475.047 231.854 475.395 231.854C475.647 231.854 475.875 231.758 476.007 231.626ZM479.064 227.954C479.46 227.126 480.264 226.61 481.284 226.61V227.858C479.952 227.858 479.064 228.65 479.064 229.826V232.958H477.6V226.754H479.064V227.954ZM485.26 231.806C485.836 231.806 486.52 231.542 486.868 231.182L487.792 232.142C487.252 232.718 486.172 233.102 485.272 233.102C483.496 233.102 482.032 231.746 482.032 229.838C482.032 227.978 483.424 226.61 485.188 226.61C487.108 226.61 488.224 228.062 488.224 230.354H483.544C483.724 231.206 484.372 231.806 485.26 231.806ZM485.248 227.906C484.432 227.906 483.772 228.422 483.556 229.238H486.82C486.652 228.458 486.124 227.906 485.248 227.906ZM492.193 226.61C493.837 226.61 494.857 227.654 494.857 229.226V232.958H493.429V232.214C492.973 232.79 492.193 233.102 491.473 233.102C490.153 233.102 489.157 232.322 489.157 231.122C489.157 229.898 490.297 229.058 491.689 229.058C492.253 229.058 492.865 229.178 493.429 229.394V229.226C493.429 228.506 493.033 227.81 491.905 227.81C491.317 227.81 490.753 228.014 490.225 228.278L489.721 227.258C490.597 226.826 491.413 226.61 492.193 226.61ZM491.797 232.034C492.505 232.034 493.261 231.674 493.429 231.014V230.318C492.973 230.162 492.457 230.078 491.905 230.078C491.173 230.078 490.585 230.486 490.585 231.074C490.585 231.662 491.101 232.034 491.797 232.034ZM503.607 226.61C504.903 226.61 505.875 227.606 505.875 229.01V232.958H504.447V229.25C504.447 228.434 503.955 227.858 503.247 227.858C502.443 227.858 501.891 228.398 501.891 229.154V232.958H500.463V229.25C500.463 228.434 499.971 227.858 499.251 227.858C498.459 227.858 497.895 228.398 497.895 229.154V232.958H496.431V226.754H497.895V227.594C498.207 226.994 498.843 226.61 499.623 226.61C500.499 226.61 501.219 227.054 501.603 227.786C501.903 227.066 502.683 226.61 503.607 226.61Z" fill="#191E1E"/>
<path d="M389.229 276.165V273.069L385.965 267.921H387.729L389.997 271.653L392.301 267.921H394.005L390.753 273.069V276.165H389.229ZM396.54 276.309C394.74 276.309 393.216 274.821 393.216 273.057C393.216 271.293 394.74 269.817 396.54 269.817C398.34 269.817 399.864 271.293 399.864 273.057C399.864 274.821 398.34 276.309 396.54 276.309ZM396.54 275.061C397.56 275.061 398.424 274.149 398.424 273.057C398.424 271.977 397.56 271.065 396.54 271.065C395.508 271.065 394.644 271.977 394.644 273.057C394.644 274.149 395.508 275.061 396.54 275.061ZM405.334 269.961H406.798V276.165H405.334V275.337C404.95 275.913 404.23 276.309 403.414 276.309C402.058 276.309 401.11 275.313 401.11 273.909V269.961H402.526V273.621C402.526 274.461 403.066 275.061 403.834 275.061C404.602 275.061 405.238 274.545 405.334 273.885V269.961ZM409.911 271.161C410.307 270.333 411.111 269.817 412.131 269.817V271.065C410.799 271.065 409.911 271.857 409.911 273.033V276.165H408.447V269.961H409.911V271.161ZM416.77 276.165V267.921H420.814C422.242 267.921 423.25 268.785 423.25 269.985C423.25 270.825 422.818 271.413 422.086 271.809C423.034 272.265 423.598 273.021 423.598 273.921C423.598 275.241 422.506 276.165 420.97 276.165H416.77ZM418.258 271.293H420.454C421.186 271.293 421.714 270.861 421.714 270.261C421.714 269.649 421.186 269.217 420.454 269.217H418.258V271.293ZM418.258 274.869H420.67C421.486 274.869 422.062 274.377 422.062 273.693C422.062 273.009 421.486 272.517 420.67 272.517H418.258V274.869ZM429.146 269.961H430.61V276.165H429.146V275.337C428.762 275.913 428.042 276.309 427.226 276.309C425.87 276.309 424.922 275.313 424.922 273.909V269.961H426.338V273.621C426.338 274.461 426.878 275.061 427.646 275.061C428.414 275.061 429.05 274.545 429.146 273.885V269.961ZM434.516 276.309C433.568 276.309 432.548 275.973 431.804 275.373L432.464 274.353C433.064 274.785 433.76 275.073 434.54 275.073C435.128 275.073 435.536 274.821 435.536 274.437C435.536 273.957 434.996 273.801 434.288 273.609C432.944 273.261 432.092 272.877 432.08 271.773C432.08 270.609 433.04 269.817 434.42 269.817C435.272 269.817 436.124 270.117 436.796 270.561L436.184 271.629C435.596 271.257 434.96 271.065 434.42 271.065C433.904 271.065 433.508 271.269 433.508 271.617C433.508 272.013 433.832 272.133 434.78 272.409C435.824 272.697 436.952 273.057 436.952 274.353C436.952 275.541 435.968 276.309 434.516 276.309ZM438.968 269.025C438.5 269.025 438.128 268.629 438.128 268.185C438.128 267.741 438.5 267.357 438.968 267.357C439.424 267.357 439.796 267.741 439.796 268.185C439.796 268.629 439.424 269.025 438.968 269.025ZM438.224 276.165V269.961H439.688V276.165H438.224ZM444.69 269.817C446.046 269.817 446.994 270.813 446.994 272.217V276.165H445.578V272.505C445.578 271.665 445.038 271.065 444.27 271.065C443.502 271.065 442.866 271.581 442.77 272.241V276.165H441.306V269.961H442.77V270.789C443.154 270.213 443.874 269.817 444.69 269.817ZM451.475 275.013C452.051 275.013 452.735 274.749 453.083 274.389L454.007 275.349C453.467 275.925 452.387 276.309 451.487 276.309C449.711 276.309 448.247 274.953 448.247 273.045C448.247 271.185 449.639 269.817 451.403 269.817C453.323 269.817 454.439 271.269 454.439 273.561H449.759C449.939 274.413 450.587 275.013 451.475 275.013ZM451.463 271.113C450.647 271.113 449.987 271.629 449.771 272.445H453.035C452.867 271.665 452.339 271.113 451.463 271.113ZM458 276.309C457.052 276.309 456.032 275.973 455.288 275.373L455.948 274.353C456.548 274.785 457.244 275.073 458.024 275.073C458.612 275.073 459.02 274.821 459.02 274.437C459.02 273.957 458.48 273.801 457.772 273.609C456.428 273.261 455.576 272.877 455.564 271.773C455.564 270.609 456.524 269.817 457.904 269.817C458.756 269.817 459.608 270.117 460.28 270.561L459.668 271.629C459.08 271.257 458.444 271.065 457.904 271.065C457.388 271.065 456.992 271.269 456.992 271.617C456.992 272.013 457.316 272.133 458.264 272.409C459.308 272.697 460.436 273.057 460.436 274.353C460.436 275.541 459.452 276.309 458 276.309ZM464 276.309C463.052 276.309 462.032 275.973 461.288 275.373L461.948 274.353C462.548 274.785 463.244 275.073 464.024 275.073C464.612 275.073 465.02 274.821 465.02 274.437C465.02 273.957 464.48 273.801 463.772 273.609C462.428 273.261 461.576 272.877 461.564 271.773C461.564 270.609 462.524 269.817 463.904 269.817C464.756 269.817 465.608 270.117 466.28 270.561L465.668 271.629C465.08 271.257 464.444 271.065 463.904 271.065C463.388 271.065 462.992 271.269 462.992 271.617C462.992 272.013 463.316 272.133 464.264 272.409C465.308 272.697 466.436 273.057 466.436 274.353C466.436 275.541 465.452 276.309 464 276.309ZM471.263 276.165V267.921H472.763L475.475 272.949L478.199 267.921H479.687V276.165H478.199V270.657L475.475 275.685L472.763 270.657V276.165H471.263ZM484.466 276.309C482.666 276.309 481.142 274.821 481.142 273.057C481.142 271.293 482.666 269.817 484.466 269.817C486.266 269.817 487.79 271.293 487.79 273.057C487.79 274.821 486.266 276.309 484.466 276.309ZM484.466 275.061C485.486 275.061 486.35 274.149 486.35 273.057C486.35 271.977 485.486 271.065 484.466 271.065C483.434 271.065 482.57 271.977 482.57 273.057C482.57 274.149 483.434 275.061 484.466 275.061ZM493.776 267.777H495.24V276.165H493.776V275.205C493.284 275.901 492.54 276.309 491.628 276.309C489.984 276.309 488.784 274.965 488.784 273.057C488.784 271.161 489.984 269.817 491.628 269.817C492.54 269.817 493.284 270.225 493.776 270.921V267.777ZM492.024 275.061C493.056 275.061 493.776 274.221 493.776 273.057C493.776 271.893 493.056 271.065 492.024 271.065C490.98 271.065 490.236 271.893 490.236 273.057C490.236 274.221 490.98 275.061 492.024 275.061ZM499.78 275.013C500.356 275.013 501.04 274.749 501.388 274.389L502.312 275.349C501.772 275.925 500.692 276.309 499.792 276.309C498.016 276.309 496.552 274.953 496.552 273.045C496.552 271.185 497.944 269.817 499.708 269.817C501.628 269.817 502.744 271.269 502.744 273.561H498.064C498.244 274.413 498.892 275.013 499.78 275.013ZM499.768 271.113C498.952 271.113 498.292 271.629 498.076 272.445H501.34C501.172 271.665 500.644 271.113 499.768 271.113ZM504.013 276.165V267.777H505.477V276.165H504.013Z" fill="#191E1E"/>
</g>
<defs>
<clipPath id="clip0_517_357738">
<rect width="887" height="431" fill="white"/>
</clipPath>
</defs>
</svg>
