<svg width="336" height="190" viewBox="0 0 336 190" fill="none" xmlns="http://www.w3.org/2000/svg">
<rect width="336" height="190" fill="#E4E4E7"/>
<g clip-path="url(#clip0_1757_25099)">
<path d="M204.687 110.814L213.756 105.163V96.5378L204.687 102.188V110.814Z" fill="white"/>
<path d="M187.103 121.745L194.906 116.902L187.103 112.428V121.745Z" fill="white"/>
<path d="M196.171 90.9796C196.125 90.8412 196.102 90.7028 196.102 90.5414L196.125 89.8726L187.103 95.4999V109.361L196.171 114.573V98.0829V90.9796Z" fill="white"/>
<path d="M169.519 132.677L177.321 127.834L169.519 123.36V132.677Z" fill="white"/>
<path d="M178.587 83.8765V83.1846L169.519 88.8119V120.292L178.587 125.505V91.418V83.8765Z" fill="white"/>
<path d="M151.935 82.1467V143.632L161.003 137.982V84.7297V77.1882V76.4963L151.935 82.1467Z" fill="white"/>
<path d="M123.165 67.594C124.224 67.594 125.075 66.7407 125.075 65.6798C125.075 64.6189 124.224 63.7656 123.165 63.7656C122.106 63.7656 121.255 64.6189 121.255 65.6798C121.255 66.7407 122.106 67.594 123.165 67.594Z" fill="white"/>
<path d="M132.003 71.5838C132.003 72.391 132.648 73.0368 133.453 73.0368C134.259 73.0368 134.903 72.391 134.903 71.5838C134.903 70.7766 134.259 70.1309 133.453 70.1309C132.648 70.1309 132.003 70.7766 132.003 71.5838Z" fill="white"/>
<path d="M110.276 71.5839C110.276 73.0138 111.427 74.19 112.877 74.19C114.304 74.19 115.455 73.0138 115.455 71.5839C115.455 70.154 114.304 68.9778 112.877 68.9778C111.427 68.9778 110.276 70.154 110.276 71.5839Z" fill="white"/>
<path d="M227.266 138.489L221.65 135.237C221.236 135.006 220.752 135.006 220.338 135.237L213.963 138.812C213.548 139.042 213.295 139.48 213.272 139.965C213.272 140.449 213.525 140.887 213.94 141.118L219.556 144.37C219.763 144.485 219.993 144.554 220.223 144.554C220.453 144.554 220.66 144.508 220.867 144.393L227.243 140.818C227.657 140.587 227.91 140.149 227.933 139.665C227.933 139.181 227.68 138.719 227.266 138.489Z" fill="#18181B"/>
<path d="M254.356 130.348L241.674 123.014C241.26 122.783 240.776 122.783 240.362 123.014L225.954 131.086C225.54 131.316 225.287 131.755 225.263 132.239C225.263 132.723 225.517 133.161 225.931 133.392L238.613 140.726C238.82 140.841 239.05 140.91 239.28 140.91C239.51 140.91 239.717 140.864 239.925 140.749L254.333 132.677C254.747 132.446 255 132.008 255.023 131.524C255.023 131.017 254.77 130.578 254.356 130.348ZM239.28 138.051L229.268 132.262L240.983 125.689L250.995 131.478L239.28 138.051Z" fill="#18181B"/>
<path d="M210.165 136.044L196.747 128.295C196.333 128.065 195.849 128.065 195.435 128.295L189.336 131.708L181.257 127.073V123.083L185.147 125.32C185.354 125.435 185.561 125.481 185.791 125.481C186.021 125.481 186.275 125.412 186.482 125.274L197.506 118.424L207.104 123.959L204.48 125.435C204.066 125.666 203.813 126.104 203.79 126.588C203.79 127.073 204.043 127.511 204.457 127.742L213.894 133.208C214.101 133.323 214.331 133.392 214.561 133.392C214.791 133.392 214.998 133.346 215.206 133.231L224.711 127.903C225.125 127.672 225.379 127.234 225.402 126.75C225.402 126.266 225.148 125.827 224.734 125.597L215.298 120.131C214.883 119.9 214.4 119.9 213.986 120.131L209.728 122.506C209.636 122.391 209.521 122.299 209.383 122.23L198.841 116.095V112.105L202.731 114.342C202.938 114.458 203.145 114.504 203.375 114.504C203.606 114.504 203.859 114.434 204.066 114.296L215.781 107.008C216.172 106.778 216.402 106.339 216.402 105.878V94.1392C216.402 94.1392 216.402 94.1392 216.402 94.1162C216.402 93.9086 216.333 93.7472 216.241 93.5627C216.218 93.5396 216.241 93.4935 216.218 93.4704C216.103 93.2859 215.942 93.1014 215.735 92.9861L214.837 92.4787L204.25 86.4132V34.3145C204.25 33.8302 203.997 33.392 203.559 33.1614C203.145 32.9308 202.639 32.9538 202.225 33.1844L190.509 40.4723C190.118 40.726 189.888 41.1411 189.888 41.6023V81.5701L186.666 79.725V45.2693C186.666 44.785 186.413 44.3468 185.975 44.1162C185.561 43.8856 185.032 43.8856 184.64 44.1392L172.925 51.4271C172.534 51.6577 172.304 52.0959 172.304 52.5571V74.8819L169.082 73.0368V56.178C169.082 55.6937 168.829 55.2555 168.391 55.0248C167.977 54.7942 167.448 54.8173 167.056 55.0479L155.341 62.3357C154.95 62.5664 154.72 63.0046 154.72 63.4658V68.1706L150.853 65.9566C150.784 65.9105 150.692 65.9335 150.6 65.8874C150.232 65.7721 149.84 65.7721 149.495 65.9796L138.448 72.8523L137.527 72.3219C137.573 72.0682 137.596 71.8145 137.596 71.5378C137.596 69.2776 135.755 67.4326 133.499 67.4326C132.463 67.4326 131.52 67.8247 130.783 68.4704L127.63 66.6715C127.699 66.3487 127.745 66.0027 127.745 65.6568C127.745 63.1429 125.697 61.0903 123.188 61.0903C121.968 61.0903 120.886 61.5747 120.058 62.3357L96.6508 48.9824C96.0063 48.6134 95.2008 48.844 94.8325 49.4667C94.4643 50.1125 94.6944 50.9197 95.3159 51.2887L118.7 64.6881C118.631 65.011 118.585 65.357 118.585 65.7029C118.585 66.0488 118.631 66.3948 118.7 66.7177L116.583 67.9169C115.639 66.9483 114.304 66.3487 112.854 66.3487C110.414 66.3487 108.366 68.0092 107.79 70.2693H102.566C101.829 70.2693 101.231 70.8689 101.231 71.607V98.1522C101.231 98.6365 101.484 99.0747 101.898 99.3053L112.21 105.255C112.417 105.371 112.647 105.44 112.877 105.44C113.107 105.44 113.337 105.371 113.544 105.255L123.533 99.4667H133.476C133.522 99.4667 133.591 99.4667 133.637 99.4667C133.66 99.4667 133.66 99.4667 133.683 99.4667C133.729 99.4667 133.775 99.4437 133.798 99.4437C133.821 99.4437 133.821 99.4437 133.844 99.4437C133.959 99.4206 134.052 99.3745 134.144 99.3284L137.136 97.5986V127.788L117.273 140.149L107.399 134.499L110.736 132.631C111.151 132.4 111.404 131.962 111.427 131.478C111.427 130.993 111.174 130.555 110.76 130.325L100.955 124.651C100.563 124.421 100.057 124.421 99.6428 124.651L89.769 130.186C89.3547 130.417 89.1016 130.855 89.0786 131.339C89.0786 131.824 89.3317 132.262 89.746 132.493L99.5508 138.166C99.7579 138.281 99.9881 138.35 100.218 138.35C100.448 138.35 100.656 138.304 100.863 138.189L104.706 136.044L116.652 142.871C116.652 142.871 116.652 142.871 116.675 142.871C116.698 142.871 116.698 142.894 116.721 142.894C116.744 142.917 116.79 142.94 116.836 142.94H116.859C116.997 142.986 117.158 143.032 117.319 143.032C117.342 143.032 117.365 143.032 117.411 143.032C117.434 143.032 117.457 143.032 117.503 143.032C117.526 143.032 117.572 143.009 117.618 143.009C117.641 143.009 117.664 143.009 117.687 142.986C117.71 142.986 117.733 142.963 117.756 142.963C117.779 142.963 117.825 142.94 117.848 142.917C117.871 142.917 117.871 142.894 117.894 142.894C117.94 142.871 117.986 142.848 118.01 142.825L137.136 130.924V139.089C137.136 139.573 137.389 140.011 137.826 140.242L150.002 147.207C150.209 147.322 150.416 147.368 150.646 147.368C150.876 147.368 151.129 147.299 151.336 147.16L163.052 139.873C163.443 139.642 163.673 139.204 163.673 138.743V134.015L167.563 136.252C167.77 136.367 167.977 136.413 168.207 136.413C168.437 136.413 168.69 136.344 168.898 136.229L179.922 129.379L186.643 133.231L181.925 135.86C181.51 136.09 181.257 136.529 181.234 137.013C181.234 137.497 181.487 137.935 181.902 138.166L195.32 145.938C195.527 146.053 195.757 146.123 195.987 146.123C196.217 146.123 196.425 146.076 196.632 145.961L210.142 138.374C210.556 138.143 210.809 137.705 210.833 137.22C210.833 136.713 210.579 136.275 210.165 136.044ZM169.519 120.292V88.8118L178.587 83.1614V83.8533V91.3948V125.505L169.519 120.292ZM174.928 53.2951L183.996 47.6448V79.7712L181.234 81.5009V80.809C181.234 80.3247 180.981 79.8865 180.567 79.6558L174.928 76.4271V53.2951ZM181.257 84.6143L185.377 82.0544L191.775 85.7213L194.952 87.5433L185.791 93.2398L181.28 90.6568L181.257 84.6143ZM192.512 42.3403L201.603 36.713V86.4594L198.818 88.1891L198.841 87.5202C198.841 87.0359 198.588 86.5747 198.174 86.344L192.535 83.1153L192.512 42.3403ZM187.103 121.745V112.428L194.882 116.902L187.103 121.745ZM187.103 109.361V95.4999L196.125 89.8957L196.102 90.5645C196.102 90.7029 196.125 90.8643 196.171 91.0027V98.106V114.596L187.103 109.361ZM213.756 105.163L204.687 110.814V102.188L213.756 96.5378V105.163ZM203.329 99.9049L198.841 97.3219V91.3025L202.961 88.7426L212.513 94.2084L203.329 99.9049ZM157.344 69.7158V64.2269L166.412 58.5765V73.083L163.65 74.8127V74.1208C163.65 73.6365 163.397 73.1983 162.983 72.9677L157.344 69.7158ZM103.878 72.8985H107.79C108.274 74.7204 109.701 76.1734 111.542 76.6577V101.796L103.901 97.368V72.8985H103.878ZM115.455 71.5839C115.455 73.0138 114.304 74.19 112.877 74.19C111.45 74.19 110.276 73.0138 110.276 71.5839C110.276 70.154 111.427 68.9778 112.877 68.9778C114.281 68.9778 115.455 70.154 115.455 71.5839ZM121.255 65.6798C121.255 64.6189 122.106 63.7656 123.165 63.7656C124.224 63.7656 125.075 64.6189 125.075 65.6798C125.075 66.7407 124.224 67.594 123.165 67.594C122.106 67.594 121.255 66.7407 121.255 65.6798ZM133.453 70.1309C134.259 70.1309 134.903 70.7767 134.903 71.5839C134.903 72.3911 134.259 73.0368 133.453 73.0368C132.648 73.0368 132.003 72.3911 132.003 71.5839C132.003 70.7767 132.648 70.1309 133.453 70.1309ZM132.141 75.4584V96.7915H124.5V70.0387C125.19 69.8311 125.789 69.4621 126.295 68.9778L129.448 70.7767C129.402 71.0304 129.379 71.2841 129.379 71.5608C129.356 73.3828 130.53 74.9049 132.141 75.4584ZM120.035 69.0009C120.541 69.4852 121.163 69.8311 121.83 70.0618V97.368L114.189 101.796V76.6577C116.444 76.0811 118.102 74.0285 118.102 71.5839C118.102 71.0996 118.033 70.6614 117.917 70.2232L120.035 69.0009ZM134.788 75.4584C135.294 75.2739 135.778 74.9972 136.169 74.6512L142.429 78.249V91.3948L134.788 95.8228V75.4584ZM150.577 79.8634L141.025 74.3975L150.186 68.701L159.737 74.1669L150.577 79.8634ZM161.003 84.7296V137.981L151.935 143.632V82.1466L161.003 76.4963V77.1881V84.7296ZM163.673 77.9261L167.793 75.3662L172.833 78.249C172.879 78.2721 172.925 78.3182 172.971 78.3413L177.344 80.832L168.184 86.5285L163.65 83.9686L163.673 77.9261ZM169.519 132.677V123.36L177.298 127.834L169.519 132.677ZM195.987 143.24L185.239 137.013L196.056 130.947L206.805 137.174L195.987 143.24Z" fill="#18181B"/>
<path d="M95.9372 122.137C96.1673 122.137 96.3745 122.091 96.5816 121.976L110.299 114.296C110.713 114.065 110.967 113.627 110.99 113.143C110.99 112.659 110.736 112.22 110.322 111.99L96.7197 104.125C96.3054 103.895 95.8221 103.895 95.4078 104.125L81.6903 111.782C81.2761 112.013 81.0229 112.451 81.0229 112.935C81.0229 113.42 81.2761 113.858 81.6903 114.088L95.2697 121.953C95.4769 122.068 95.707 122.137 95.9372 122.137ZM96.0292 106.778L106.962 113.12L95.9602 119.278L85.0276 112.935L96.0292 106.778Z" fill="#18181B"/>
<path d="M108.527 121.976C108.527 122.46 108.78 122.899 109.194 123.129L117.158 127.742C117.365 127.857 117.595 127.926 117.825 127.926C118.056 127.926 118.263 127.88 118.47 127.765L126.479 123.268C126.894 123.037 127.147 122.599 127.17 122.114C127.17 121.63 126.917 121.192 126.502 120.961L118.539 116.349C118.125 116.118 117.641 116.118 117.227 116.349L109.217 120.846C108.78 121.054 108.527 121.492 108.527 121.976ZM117.848 119.024L123.142 122.091L117.825 125.09L112.532 122.022L117.848 119.024Z" fill="#18181B"/>
<path d="M197.944 121.791C198.427 121.791 198.818 121.399 198.818 120.915C198.818 120.431 198.427 120.039 197.944 120.039C197.461 120.039 197.069 120.431 197.069 120.915C197.069 121.399 197.461 121.791 197.944 121.791Z" fill="#18181B"/>
<path d="M193.64 121.791C194.123 121.791 194.514 121.399 194.514 120.915C194.514 120.431 194.123 120.039 193.64 120.039C193.157 120.039 192.765 120.431 192.765 120.915C192.765 121.399 193.157 121.791 193.64 121.791Z" fill="#18181B"/>
<path d="M202.271 121.791C202.754 121.791 203.145 121.399 203.145 120.915C203.145 120.431 202.754 120.039 202.271 120.039C201.788 120.039 201.396 120.431 201.396 120.915C201.396 121.399 201.788 121.791 202.271 121.791Z" fill="#18181B"/>
<path d="M195.803 125.089C196.286 125.089 196.678 124.697 196.678 124.213C196.678 123.729 196.286 123.337 195.803 123.337C195.32 123.337 194.929 123.729 194.929 124.213C194.929 124.697 195.32 125.089 195.803 125.089Z" fill="#18181B"/>
<path d="M191.476 125.089C191.959 125.089 192.351 124.697 192.351 124.213C192.351 123.729 191.959 123.337 191.476 123.337C190.993 123.337 190.602 123.729 190.602 124.213C190.602 124.697 190.993 125.089 191.476 125.089Z" fill="#18181B"/>
<path d="M187.172 125.089C187.655 125.089 188.047 124.697 188.047 124.213C188.047 123.729 187.655 123.337 187.172 123.337C186.689 123.337 186.298 123.729 186.298 124.213C186.298 124.697 186.689 125.089 187.172 125.089Z" fill="#18181B"/>
<path d="M182.845 125.089C183.328 125.089 183.72 124.697 183.72 124.213C183.72 123.729 183.328 123.337 182.845 123.337C182.362 123.337 181.971 123.729 181.971 124.213C181.971 124.697 182.362 125.089 182.845 125.089Z" fill="#18181B"/>
<path d="M200.107 125.089C200.59 125.089 200.982 124.697 200.982 124.213C200.982 123.729 200.59 123.337 200.107 123.337C199.624 123.337 199.233 123.729 199.233 124.213C199.233 124.697 199.624 125.089 200.107 125.089Z" fill="#18181B"/>
<path d="M204.434 125.089C204.917 125.089 205.309 124.697 205.309 124.213C205.309 123.729 204.917 123.337 204.434 123.337C203.951 123.337 203.56 123.729 203.56 124.213C203.56 124.697 203.951 125.089 204.434 125.089Z" fill="#18181B"/>
<path d="M208.738 125.089C209.221 125.089 209.613 124.697 209.613 124.213C209.613 123.729 209.221 123.337 208.738 123.337C208.255 123.337 207.863 123.729 207.863 124.213C207.863 124.697 208.255 125.089 208.738 125.089Z" fill="#18181B"/>
<path d="M194.491 127.488C194.491 127.972 194.1 128.364 193.617 128.364C193.133 128.364 192.742 127.972 192.742 127.488C192.742 127.004 193.133 126.612 193.617 126.612C194.123 126.635 194.491 127.027 194.491 127.488Z" fill="#18181B"/>
<path d="M189.313 128.364C189.796 128.364 190.187 127.972 190.187 127.488C190.187 127.004 189.796 126.612 189.313 126.612C188.83 126.612 188.438 127.004 188.438 127.488C188.438 127.972 188.83 128.364 189.313 128.364Z" fill="#18181B"/>
<path d="M197.944 128.364C198.427 128.364 198.818 127.972 198.818 127.488C198.818 127.004 198.427 126.612 197.944 126.612C197.461 126.612 197.069 127.004 197.069 127.488C197.069 127.972 197.461 128.364 197.944 128.364Z" fill="#18181B"/>
<path d="M202.271 128.364C202.754 128.364 203.145 127.972 203.145 127.488C203.145 127.004 202.754 126.612 202.271 126.612C201.788 126.612 201.396 127.004 201.396 127.488C201.396 127.972 201.788 128.364 202.271 128.364Z" fill="#18181B"/>
<path d="M206.575 128.364C207.058 128.364 207.449 127.972 207.449 127.488C207.449 127.004 207.058 126.612 206.575 126.612C206.092 126.612 205.7 127.004 205.7 127.488C205.7 127.972 206.092 128.364 206.575 128.364Z" fill="#18181B"/>
<path d="M191.476 131.662C191.959 131.662 192.351 131.27 192.351 130.786C192.351 130.302 191.959 129.91 191.476 129.91C190.993 129.91 190.602 130.302 190.602 130.786C190.602 131.27 190.993 131.662 191.476 131.662Z" fill="#18181B"/>
<path d="M187.172 131.662C187.655 131.662 188.047 131.27 188.047 130.786C188.047 130.302 187.655 129.91 187.172 129.91C186.689 129.91 186.298 130.302 186.298 130.786C186.298 131.27 186.689 131.662 187.172 131.662Z" fill="#18181B"/>
<path d="M185.009 134.96C185.492 134.96 185.883 134.568 185.883 134.084C185.883 133.6 185.492 133.208 185.009 133.208C184.526 133.208 184.134 133.6 184.134 134.084C184.134 134.568 184.526 134.96 185.009 134.96Z" fill="#18181B"/>
<path d="M180.705 134.96C181.188 134.96 181.579 134.568 181.579 134.084C181.579 133.6 181.188 133.208 180.705 133.208C180.222 133.208 179.83 133.6 179.83 134.084C179.83 134.568 180.222 134.96 180.705 134.96Z" fill="#18181B"/>
<path d="M176.378 134.96C176.861 134.96 177.252 134.568 177.252 134.084C177.252 133.6 176.861 133.208 176.378 133.208C175.895 133.208 175.503 133.6 175.503 134.084C175.503 134.568 175.895 134.96 176.378 134.96Z" fill="#18181B"/>
<path d="M178.541 138.258C179.024 138.258 179.416 137.866 179.416 137.382C179.416 136.898 179.024 136.505 178.541 136.505C178.058 136.505 177.667 136.898 177.667 137.382C177.667 137.866 178.058 138.258 178.541 138.258Z" fill="#18181B"/>
<path d="M174.214 138.258C174.697 138.258 175.089 137.866 175.089 137.382C175.089 136.898 174.697 136.505 174.214 136.505C173.731 136.505 173.34 136.898 173.34 137.382C173.34 137.866 173.731 138.258 174.214 138.258Z" fill="#18181B"/>
<path d="M176.378 141.556C176.861 141.556 177.252 141.164 177.252 140.68C177.252 140.196 176.861 139.803 176.378 139.803C175.895 139.803 175.503 140.196 175.503 140.68C175.503 141.164 175.895 141.556 176.378 141.556Z" fill="#18181B"/>
<path d="M172.074 141.556C172.557 141.556 172.948 141.164 172.948 140.68C172.948 140.196 172.557 139.803 172.074 139.803C171.591 139.803 171.199 140.196 171.199 140.68C171.199 141.164 171.591 141.556 172.074 141.556Z" fill="#18181B"/>
<path d="M169.036 143.955C169.036 143.47 169.427 143.078 169.91 143.078C170.394 143.078 170.762 143.47 170.762 143.955C170.762 144.439 170.371 144.808 169.91 144.808C169.427 144.831 169.036 144.439 169.036 143.955Z" fill="#18181B"/>
<path d="M166.458 143.955C166.458 144.439 166.067 144.808 165.583 144.808C165.1 144.808 164.732 144.416 164.732 143.955C164.732 143.47 165.123 143.078 165.583 143.078C166.067 143.101 166.458 143.494 166.458 143.955Z" fill="#18181B"/>
<path d="M161.279 144.831C160.796 144.831 160.405 144.439 160.405 143.978C160.405 143.493 160.796 143.101 161.279 143.101C161.763 143.101 162.131 143.493 162.131 143.978C162.154 144.439 161.763 144.831 161.279 144.831Z" fill="#18181B"/>
<path d="M157.827 143.955C157.827 144.439 157.436 144.808 156.952 144.808C156.469 144.808 156.101 144.416 156.101 143.955C156.101 143.47 156.492 143.078 156.952 143.078C157.436 143.101 157.827 143.494 157.827 143.955Z" fill="#18181B"/>
<path d="M144.892 143.955C144.892 144.439 144.501 144.808 144.017 144.808C143.534 144.808 143.143 144.416 143.143 143.955C143.143 143.47 143.534 143.078 144.017 143.078C144.501 143.078 144.892 143.494 144.892 143.955Z" fill="#18181B"/>
<path d="M140.565 143.955C140.565 144.439 140.174 144.808 139.69 144.808C139.207 144.808 138.816 144.416 138.816 143.955C138.816 143.47 139.207 143.078 139.69 143.078C140.197 143.101 140.565 143.494 140.565 143.955Z" fill="#18181B"/>
<path d="M167.747 148.129C168.23 148.129 168.621 147.737 168.621 147.253C168.621 146.769 168.23 146.376 167.747 146.376C167.264 146.376 166.872 146.769 166.872 147.253C166.872 147.737 167.264 148.129 167.747 148.129Z" fill="#18181B"/>
<path d="M200.107 131.662C200.59 131.662 200.982 131.27 200.982 130.786C200.982 130.302 200.59 129.91 200.107 129.91C199.624 129.91 199.233 130.302 199.233 130.786C199.233 131.27 199.624 131.662 200.107 131.662Z" fill="#18181B"/>
<path d="M210.902 115.196C211.385 115.196 211.776 114.803 211.776 114.319C211.776 113.835 211.385 113.443 210.902 113.443C210.419 113.443 210.027 113.835 210.027 114.319C210.027 114.803 210.419 115.196 210.902 115.196Z" fill="#18181B"/>
<path d="M206.575 115.196C207.058 115.196 207.449 114.803 207.449 114.319C207.449 113.835 207.058 113.443 206.575 113.443C206.092 113.443 205.7 113.835 205.7 114.319C205.7 114.803 206.092 115.196 206.575 115.196Z" fill="#18181B"/>
<path d="M202.271 115.196C202.754 115.196 203.145 114.803 203.145 114.319C203.145 113.835 202.754 113.443 202.271 113.443C201.788 113.443 201.396 113.835 201.396 114.319C201.396 114.803 201.788 115.196 202.271 115.196Z" fill="#18181B"/>
<path d="M215.206 115.196C215.689 115.196 216.08 114.803 216.08 114.319C216.08 113.835 215.689 113.443 215.206 113.443C214.723 113.443 214.331 113.835 214.331 114.319C214.331 114.803 214.723 115.196 215.206 115.196Z" fill="#18181B"/>
<path d="M208.738 118.493C209.221 118.493 209.613 118.101 209.613 117.617C209.613 117.133 209.221 116.741 208.738 116.741C208.255 116.741 207.863 117.133 207.863 117.617C207.863 118.101 208.255 118.493 208.738 118.493Z" fill="#18181B"/>
<path d="M204.434 118.493C204.917 118.493 205.309 118.101 205.309 117.617C205.309 117.133 204.917 116.741 204.434 116.741C203.951 116.741 203.56 117.133 203.56 117.617C203.56 118.101 203.951 118.493 204.434 118.493Z" fill="#18181B"/>
<path d="M200.107 118.493C200.59 118.493 200.982 118.101 200.982 117.617C200.982 117.133 200.59 116.741 200.107 116.741C199.624 116.741 199.233 117.133 199.233 117.617C199.233 118.101 199.624 118.493 200.107 118.493Z" fill="#18181B"/>
<path d="M213.042 118.493C213.525 118.493 213.917 118.101 213.917 117.617C213.917 117.133 213.525 116.741 213.042 116.741C212.559 116.741 212.167 117.133 212.167 117.617C212.167 118.101 212.559 118.493 213.042 118.493Z" fill="#18181B"/>
<path d="M217.369 118.493C217.852 118.493 218.244 118.101 218.244 117.617C218.244 117.133 217.852 116.741 217.369 116.741C216.886 116.741 216.494 117.133 216.494 117.617C216.494 118.101 216.886 118.493 217.369 118.493Z" fill="#18181B"/>
<path d="M207.449 120.915C207.449 121.399 207.058 121.791 206.575 121.791C206.091 121.791 205.7 121.399 205.7 120.915C205.7 120.431 206.091 120.039 206.575 120.039C207.058 120.039 207.449 120.431 207.449 120.915Z" fill="#18181B"/>
<path d="M210.902 121.791C211.385 121.791 211.776 121.399 211.776 120.915C211.776 120.431 211.385 120.039 210.902 120.039C210.419 120.039 210.027 120.431 210.027 120.915C210.027 121.399 210.419 121.791 210.902 121.791Z" fill="#18181B"/>
<path d="M215.206 121.791C215.689 121.791 216.08 121.399 216.08 120.915C216.08 120.431 215.689 120.039 215.206 120.039C214.723 120.039 214.331 120.431 214.331 120.915C214.331 121.399 214.723 121.791 215.206 121.791Z" fill="#18181B"/>
<path d="M213.042 125.089C213.525 125.089 213.917 124.697 213.917 124.213C213.917 123.729 213.525 123.337 213.042 123.337C212.559 123.337 212.167 123.729 212.167 124.213C212.167 124.697 212.559 125.089 213.042 125.089Z" fill="#18181B"/>
<path d="M215.206 108.623C215.689 108.623 216.08 108.23 216.08 107.746C216.08 107.262 215.689 106.87 215.206 106.87C214.723 106.87 214.331 107.262 214.331 107.746C214.331 108.23 214.723 108.623 215.206 108.623Z" fill="#18181B"/>
<path d="M217.369 111.921C217.852 111.921 218.244 111.528 218.244 111.044C218.244 110.56 217.852 110.168 217.369 110.168C216.886 110.168 216.494 110.56 216.494 111.044C216.494 111.528 216.886 111.921 217.369 111.921Z" fill="#18181B"/>
<path d="M217.369 111.921C217.852 111.921 218.244 111.528 218.244 111.044C218.244 110.56 217.852 110.168 217.369 110.168C216.886 110.168 216.494 110.56 216.494 111.044C216.494 111.528 216.886 111.921 217.369 111.921Z" fill="#18181B"/>
<path d="M213.065 111.921C213.548 111.921 213.94 111.528 213.94 111.044C213.94 110.56 213.548 110.168 213.065 110.168C212.582 110.168 212.19 110.56 212.19 111.044C212.19 111.528 212.582 111.921 213.065 111.921Z" fill="#18181B"/>
<path d="M208.738 111.921C209.221 111.921 209.613 111.528 209.613 111.044C209.613 110.56 209.221 110.168 208.738 110.168C208.255 110.168 207.863 110.56 207.863 111.044C207.863 111.528 208.255 111.921 208.738 111.921Z" fill="#18181B"/>
<path d="M185.009 141.556C185.492 141.556 185.883 141.164 185.883 140.68C185.883 140.196 185.492 139.803 185.009 139.803C184.526 139.803 184.134 140.196 184.134 140.68C184.134 141.164 184.526 141.556 185.009 141.556Z" fill="#18181B"/>
<path d="M180.705 141.556C181.188 141.556 181.579 141.164 181.579 140.68C181.579 140.196 181.188 139.803 180.705 139.803C180.222 139.803 179.83 140.196 179.83 140.68C179.83 141.164 180.222 141.556 180.705 141.556Z" fill="#18181B"/>
<path d="M178.541 144.831C179.024 144.831 179.416 144.439 179.416 143.955C179.416 143.471 179.024 143.078 178.541 143.078C178.058 143.078 177.667 143.471 177.667 143.955C177.667 144.439 178.058 144.831 178.541 144.831Z" fill="#18181B"/>
<path d="M174.214 144.831C174.697 144.831 175.089 144.439 175.089 143.955C175.089 143.471 174.697 143.078 174.214 143.078C173.731 143.078 173.34 143.471 173.34 143.955C173.34 144.439 173.731 144.831 174.214 144.831Z" fill="#18181B"/>
<path d="M172.074 134.96C172.557 134.96 172.948 134.568 172.948 134.084C172.948 133.6 172.557 133.208 172.074 133.208C171.591 133.208 171.199 133.6 171.199 134.084C171.199 134.568 171.591 134.96 172.074 134.96Z" fill="#18181B"/>
<path d="M169.91 138.258C170.393 138.258 170.785 137.866 170.785 137.382C170.785 136.898 170.393 136.505 169.91 136.505C169.427 136.505 169.036 136.898 169.036 137.382C169.036 137.866 169.427 138.258 169.91 138.258Z" fill="#18181B"/>
<path d="M185.009 128.364C185.492 128.364 185.883 127.972 185.883 127.488C185.883 127.004 185.492 126.612 185.009 126.612C184.526 126.612 184.134 127.004 184.134 127.488C184.134 127.972 184.526 128.364 185.009 128.364Z" fill="#18181B"/>
<path d="M182.868 131.662C183.351 131.662 183.743 131.27 183.743 130.786C183.743 130.302 183.351 129.91 182.868 129.91C182.385 129.91 181.994 130.302 181.994 130.786C181.994 131.27 182.385 131.662 182.868 131.662Z" fill="#18181B"/>
<path d="M178.541 131.662C179.024 131.662 179.416 131.27 179.416 130.786C179.416 130.302 179.024 129.91 178.541 129.91C178.058 129.91 177.667 130.302 177.667 130.786C177.667 131.27 178.058 131.662 178.541 131.662Z" fill="#18181B"/>
<path d="M166.895 140.68C166.895 140.196 167.286 139.803 167.77 139.803C168.253 139.803 168.621 140.196 168.621 140.68C168.621 141.164 168.23 141.533 167.77 141.533C167.286 141.533 166.895 141.141 166.895 140.68Z" fill="#18181B"/>
<path d="M164.732 137.382C164.732 136.897 165.123 136.505 165.606 136.505C166.09 136.505 166.458 136.897 166.458 137.382C166.458 137.866 166.067 138.235 165.606 138.235C165.123 138.235 164.732 137.843 164.732 137.382Z" fill="#18181B"/>
<path d="M164.317 140.68C164.317 141.164 163.926 141.533 163.443 141.533C162.96 141.533 162.591 141.141 162.591 140.68C162.591 140.196 162.983 139.803 163.443 139.803C163.926 139.803 164.317 140.196 164.317 140.68Z" fill="#18181B"/>
<path d="M171.199 147.253C171.199 146.768 171.59 146.376 172.074 146.376C172.557 146.376 172.925 146.768 172.925 147.253C172.925 147.737 172.534 148.106 172.074 148.106C171.59 148.129 171.199 147.737 171.199 147.253Z" fill="#18181B"/>
<path d="M175.503 147.253C175.503 146.768 175.894 146.376 176.378 146.376C176.861 146.376 177.229 146.768 177.229 147.253C177.229 147.737 176.838 148.106 176.378 148.106C175.894 148.129 175.503 147.737 175.503 147.253Z" fill="#18181B"/>
<path d="M163.443 148.129C163.926 148.129 164.317 147.737 164.317 147.253C164.317 146.769 163.926 146.376 163.443 146.376C162.96 146.376 162.568 146.769 162.568 147.253C162.568 147.737 162.96 148.129 163.443 148.129Z" fill="#18181B"/>
<path d="M159.116 148.129C159.599 148.129 159.99 147.737 159.99 147.253C159.99 146.769 159.599 146.376 159.116 146.376C158.633 146.376 158.241 146.769 158.241 147.253C158.241 147.737 158.633 148.129 159.116 148.129Z" fill="#18181B"/>
<path d="M154.812 148.129C155.295 148.129 155.686 147.737 155.686 147.253C155.686 146.769 155.295 146.376 154.812 146.376C154.329 146.376 153.937 146.769 153.937 147.253C153.937 147.737 154.329 148.129 154.812 148.129Z" fill="#18181B"/>
<path d="M150.508 148.129C150.991 148.129 151.383 147.737 151.383 147.253C151.383 146.769 150.991 146.376 150.508 146.376C150.025 146.376 149.633 146.769 149.633 147.253C149.633 147.737 150.025 148.129 150.508 148.129Z" fill="#18181B"/>
<path d="M146.181 148.129C146.664 148.129 147.056 147.737 147.056 147.253C147.056 146.769 146.664 146.376 146.181 146.376C145.698 146.376 145.306 146.769 145.306 147.253C145.306 147.737 145.698 148.129 146.181 148.129Z" fill="#18181B"/>
<path d="M141.877 148.129C142.36 148.129 142.752 147.737 142.752 147.253C142.752 146.769 142.36 146.376 141.877 146.376C141.394 146.376 141.002 146.769 141.002 147.253C141.002 147.737 141.394 148.129 141.877 148.129Z" fill="#18181B"/>
<path d="M160.405 150.551C160.405 150.066 160.796 149.674 161.279 149.674C161.763 149.674 162.131 150.066 162.131 150.551C162.131 151.035 161.74 151.427 161.279 151.427C160.796 151.404 160.405 151.012 160.405 150.551Z" fill="#18181B"/>
<path d="M156.975 149.674C157.459 149.674 157.85 150.066 157.85 150.551C157.85 151.035 157.459 151.427 156.975 151.427C156.492 151.427 156.124 151.035 156.124 150.551C156.101 150.066 156.492 149.674 156.975 149.674Z" fill="#18181B"/>
<path d="M164.732 150.551C164.732 150.066 165.123 149.674 165.606 149.674C166.09 149.674 166.458 150.066 166.458 150.551C166.458 151.035 166.067 151.427 165.606 151.427C165.123 151.404 164.732 151.012 164.732 150.551Z" fill="#18181B"/>
<path d="M169.036 150.551C169.036 150.066 169.427 149.674 169.91 149.674C170.394 149.674 170.762 150.066 170.762 150.551C170.762 151.035 170.371 151.427 169.91 151.427C169.427 151.404 169.036 151.012 169.036 150.551Z" fill="#18181B"/>
<path d="M152.648 151.404C152.165 151.404 151.774 151.012 151.774 150.528C151.774 150.043 152.165 149.651 152.648 149.651C153.132 149.651 153.5 150.043 153.5 150.528C153.5 151.012 153.132 151.404 152.648 151.404Z" fill="#18181B"/>
<path d="M148.344 149.674C148.828 149.674 149.219 150.066 149.219 150.551C149.219 151.035 148.828 151.427 148.344 151.427C147.861 151.427 147.493 151.035 147.493 150.551C147.47 150.066 147.861 149.674 148.344 149.674Z" fill="#18181B"/>
<path d="M144.017 151.427C144.5 151.427 144.892 151.035 144.892 150.551C144.892 150.067 144.5 149.674 144.017 149.674C143.534 149.674 143.143 150.067 143.143 150.551C143.143 151.035 143.534 151.427 144.017 151.427Z" fill="#18181B"/>
<path d="M159.116 152.972C159.599 152.972 159.99 153.364 159.99 153.849C159.99 154.333 159.599 154.725 159.116 154.725C158.633 154.725 158.264 154.333 158.264 153.849C158.264 153.364 158.656 152.972 159.116 152.972Z" fill="#18181B"/>
<path d="M154.812 154.702C154.329 154.702 153.937 154.31 153.937 153.826C153.937 153.341 154.329 152.949 154.812 152.949C155.295 152.949 155.663 153.341 155.663 153.826C155.663 154.31 155.295 154.702 154.812 154.702Z" fill="#18181B"/>
<path d="M156.975 158C156.492 158 156.101 157.608 156.101 157.123C156.101 156.639 156.492 156.247 156.975 156.247C157.459 156.247 157.827 156.639 157.827 157.123C157.827 157.608 157.436 158 156.975 158Z" fill="#18181B"/>
<path d="M152.648 158C152.165 158 151.774 157.608 151.774 157.123C151.774 156.639 152.165 156.247 152.648 156.247C153.132 156.247 153.5 156.639 153.5 157.123C153.5 157.608 153.132 158 152.648 158Z" fill="#18181B"/>
<path d="M163.443 152.972C163.926 152.972 164.317 153.364 164.317 153.849C164.317 154.333 163.926 154.725 163.443 154.725C162.96 154.725 162.591 154.333 162.591 153.849C162.591 153.364 162.96 152.972 163.443 152.972Z" fill="#18181B"/>
<path d="M150.485 152.972C150.968 152.972 151.359 153.364 151.359 153.849C151.359 154.333 150.968 154.725 150.485 154.725C150.002 154.725 149.633 154.333 149.633 153.849C149.633 153.364 150.025 152.972 150.485 152.972Z" fill="#18181B"/>
<path d="M146.181 152.972C146.664 152.972 147.056 153.364 147.056 153.849C147.056 154.333 146.664 154.725 146.181 154.725C145.698 154.725 145.329 154.333 145.329 153.849C145.329 153.364 145.698 152.972 146.181 152.972Z" fill="#18181B"/>
<path d="M139.713 151.427C140.196 151.427 140.588 151.035 140.588 150.551C140.588 150.067 140.196 149.674 139.713 149.674C139.23 149.674 138.839 150.067 138.839 150.551C138.839 151.035 139.23 151.427 139.713 151.427Z" fill="#18181B"/>
<path d="M184.456 107.838L181.257 105.993V109.061L184.456 110.906L187.103 112.428V109.361L184.456 107.838Z" fill="white"/>
<path d="M166.872 118.77L163.673 116.925V119.993L166.872 121.838L169.519 123.36V120.292L166.872 118.77Z" fill="white"/>
<path d="M211.362 44.2315C211.362 43.286 210.602 42.5249 209.659 42.5249C208.715 42.5249 207.956 43.286 207.956 44.2315C207.956 45.1771 208.715 45.9382 209.659 45.9382C210.602 45.9382 211.362 45.1771 211.362 44.2315Z" fill="#18181B"/>
<path d="M220.867 42.5249C219.924 42.5249 219.164 43.286 219.164 44.2315C219.164 45.1771 219.924 45.9382 220.867 45.9382C221.811 45.9382 222.571 45.1771 222.571 44.2315C222.571 43.286 221.811 42.5249 220.867 42.5249Z" fill="#18181B"/>
<path d="M233.779 44.2315C233.779 43.286 233.02 42.5249 232.076 42.5249C231.133 42.5249 230.373 43.286 230.373 44.2315C230.373 45.1771 231.133 45.9382 232.076 45.9382C233.02 45.9382 233.779 45.1771 233.779 44.2315Z" fill="#18181B"/>
<path d="M241.582 44.2315C241.582 45.1771 242.341 45.9382 243.285 45.9382C244.229 45.9382 244.988 45.1771 244.988 44.2315C244.988 43.286 244.229 42.5249 243.285 42.5249C242.341 42.5249 241.582 43.286 241.582 44.2315Z" fill="#18181B"/>
<path d="M211.362 55.463C211.362 54.5174 210.602 53.7563 209.659 53.7563C208.715 53.7563 207.956 54.5174 207.956 55.463C207.956 56.4086 208.715 57.1696 209.659 57.1696C210.602 57.1696 211.362 56.4086 211.362 55.463Z" fill="#18181B"/>
<path d="M211.362 66.6947C211.362 65.7491 210.602 64.988 209.659 64.988C208.715 64.988 207.956 65.7491 207.956 66.6947C207.956 67.6403 208.715 68.4013 209.659 68.4013C210.602 68.4013 211.362 67.6403 211.362 66.6947Z" fill="#18181B"/>
<path d="M211.362 77.9261C211.362 76.9806 210.602 76.2195 209.659 76.2195C208.715 76.2195 207.956 76.9806 207.956 77.9261C207.956 78.8717 208.715 79.6328 209.659 79.6328C210.602 79.6328 211.362 78.8717 211.362 77.9261Z" fill="#18181B"/>
<path d="M211.362 89.1578C211.362 88.2122 210.602 87.4512 209.659 87.4512C208.715 87.4512 207.956 88.2122 207.956 89.1578C207.956 90.1034 208.715 90.8645 209.659 90.8645C210.602 90.8645 211.362 90.1034 211.362 89.1578Z" fill="#18181B"/>
<path d="M220.867 53.7563C219.924 53.7563 219.164 54.5174 219.164 55.463C219.164 56.4086 219.924 57.1696 220.867 57.1696C221.811 57.1696 222.571 56.4086 222.571 55.463C222.571 54.5174 221.811 53.7563 220.867 53.7563Z" fill="#18181B"/>
<path d="M220.867 64.988C219.924 64.988 219.164 65.7491 219.164 66.6947C219.164 67.6403 219.924 68.4013 220.867 68.4013C221.811 68.4013 222.571 67.6403 222.571 66.6947C222.571 65.7491 221.811 64.988 220.867 64.988Z" fill="#18181B"/>
<path d="M220.867 76.2195C219.924 76.2195 219.164 76.9806 219.164 77.9261C219.164 78.8717 219.924 79.6328 220.867 79.6328C221.811 79.6328 222.571 78.8717 222.571 77.9261C222.571 76.9806 221.811 76.2195 220.867 76.2195Z" fill="#18181B"/>
<path d="M220.867 90.8645C221.808 90.8645 222.571 90.1004 222.571 89.1578C222.571 88.2153 221.808 87.4512 220.867 87.4512C219.927 87.4512 219.164 88.2153 219.164 89.1578C219.164 90.1004 219.927 90.8645 220.867 90.8645Z" fill="#18181B"/>
<path d="M233.779 55.463C233.779 54.5174 233.02 53.7563 232.076 53.7563C231.133 53.7563 230.373 54.5174 230.373 55.463C230.373 56.4086 231.133 57.1696 232.076 57.1696C233.02 57.1696 233.779 56.4086 233.779 55.463Z" fill="#18181B"/>
<path d="M233.779 66.6947C233.779 65.7491 233.02 64.988 232.076 64.988C231.133 64.988 230.373 65.7491 230.373 66.6947C230.373 67.6403 231.133 68.4013 232.076 68.4013C233.02 68.4013 233.779 67.6403 233.779 66.6947Z" fill="#18181B"/>
<path d="M233.779 77.9261C233.779 76.9806 233.02 76.2195 232.076 76.2195C231.133 76.2195 230.373 76.9806 230.373 77.9261C230.373 78.8717 231.133 79.6328 232.076 79.6328C233.02 79.6328 233.779 78.8717 233.779 77.9261Z" fill="#18181B"/>
<path d="M233.779 89.1578C233.779 88.2122 233.02 87.4512 232.076 87.4512C231.133 87.4512 230.373 88.2122 230.373 89.1578C230.373 90.1034 231.133 90.8645 232.076 90.8645C233.02 90.8645 233.779 90.1034 233.779 89.1578Z" fill="#18181B"/>
<path d="M243.285 53.7563C242.341 53.7563 241.582 54.5174 241.582 55.463C241.582 56.4086 242.341 57.1696 243.285 57.1696C244.229 57.1696 244.988 56.4086 244.988 55.463C244.988 54.5174 244.229 53.7563 243.285 53.7563Z" fill="#18181B"/>
<path d="M243.285 64.988C242.341 64.988 241.582 65.7491 241.582 66.6947C241.582 67.6403 242.341 68.4013 243.285 68.4013C244.229 68.4013 244.988 67.6403 244.988 66.6947C244.988 65.7491 244.229 64.988 243.285 64.988Z" fill="#18181B"/>
<path d="M243.285 76.2195C242.341 76.2195 241.582 76.9806 241.582 77.9261C241.582 78.8717 242.341 79.6328 243.285 79.6328C244.229 79.6328 244.988 78.8717 244.988 77.9261C244.988 76.9806 244.229 76.2195 243.285 76.2195Z" fill="#18181B"/>
<path d="M243.285 90.8645C244.226 90.8645 244.988 90.1004 244.988 89.1578C244.988 88.2153 244.226 87.4512 243.285 87.4512C242.344 87.4512 241.582 88.2153 241.582 89.1578C241.582 90.1004 242.344 90.8645 243.285 90.8645Z" fill="#18181B"/>
</g>
<defs>
<clipPath id="clip0_1757_25099">
<rect width="174" height="125" fill="white" transform="translate(81 33)"/>
</clipPath>
</defs>
</svg>
