<svg width="336" height="190" viewBox="0 0 336 190" fill="none" xmlns="http://www.w3.org/2000/svg">
<path d="M0 4.00001C0 1.79087 1.79086 0 4 0H332C334.209 0 336 1.79086 336 4V186C336 188.209 334.209 190 332 190H4C1.79087 190 0 188.209 0 186V4.00001Z" fill="#E4E4E7"/>
<g clip-path="url(#clip0_681_15558)">
<path d="M129.597 114.055C130.078 114.055 130.467 113.667 130.467 113.188C130.467 112.709 130.078 112.321 129.597 112.321C129.116 112.321 128.727 112.709 128.727 113.188C128.727 113.667 129.116 114.055 129.597 114.055Z" fill="#18181B"/>
<path d="M127.423 115.618C126.945 115.618 126.553 116.008 126.553 116.485C126.553 116.962 126.945 117.352 127.423 117.352C127.902 117.352 128.294 116.962 128.294 116.485C128.294 116.008 127.902 115.618 127.423 115.618Z" fill="#18181B"/>
<path d="M131.77 115.618C131.291 115.618 130.899 116.008 130.899 116.485C130.899 116.962 131.291 117.352 131.77 117.352C132.248 117.352 132.64 116.962 132.64 116.485C132.64 116.008 132.248 115.618 131.77 115.618Z" fill="#18181B"/>
<path d="M129.597 120.649C130.078 120.649 130.467 120.261 130.467 119.782C130.467 119.303 130.078 118.915 129.597 118.915C129.116 118.915 128.727 119.303 128.727 119.782C128.727 120.261 129.116 120.649 129.597 120.649Z" fill="#18181B"/>
<path d="M127.423 122.212C126.945 122.212 126.553 122.602 126.553 123.079C126.553 123.556 126.945 123.947 127.423 123.947C127.902 123.947 128.294 123.556 128.294 123.079C128.294 122.602 127.902 122.212 127.423 122.212Z" fill="#18181B"/>
<path d="M129.597 125.509C129.119 125.509 128.727 125.899 128.727 126.376C128.727 126.853 129.119 127.243 129.597 127.243C130.075 127.243 130.467 126.853 130.467 126.376C130.467 125.899 130.075 125.509 129.597 125.509Z" fill="#18181B"/>
<path d="M133.943 118.915C133.464 118.915 133.072 119.305 133.072 119.782C133.072 120.259 133.464 120.649 133.943 120.649C134.421 120.649 134.813 120.259 134.813 119.782C134.813 119.305 134.421 118.915 133.943 118.915Z" fill="#18181B"/>
<path d="M131.77 122.212C131.291 122.212 130.899 122.602 130.899 123.079C130.899 123.556 131.291 123.947 131.77 123.947C132.248 123.947 132.64 123.556 132.64 123.079C132.64 122.602 132.248 122.212 131.77 122.212Z" fill="#18181B"/>
<path d="M136.111 122.212C135.632 122.212 135.24 122.602 135.24 123.079C135.24 123.556 135.632 123.947 136.111 123.947C136.589 123.947 136.981 123.556 136.981 123.079C136.981 122.602 136.589 122.212 136.111 122.212Z" fill="#18181B"/>
<path d="M140.457 122.212C139.979 122.212 139.587 122.602 139.587 123.079C139.587 123.556 139.979 123.947 140.457 123.947C140.936 123.947 141.328 123.556 141.328 123.079C141.328 122.602 140.936 122.212 140.457 122.212Z" fill="#18181B"/>
<path d="M133.943 125.509C133.464 125.509 133.072 125.899 133.072 126.376C133.072 126.853 133.464 127.243 133.943 127.243C134.421 127.243 134.813 126.853 134.813 126.376C134.813 125.899 134.421 125.509 133.943 125.509Z" fill="#18181B"/>
<path d="M138.284 125.509C137.805 125.509 137.413 125.899 137.413 126.376C137.413 126.853 137.805 127.243 138.284 127.243C138.762 127.243 139.154 126.853 139.154 126.376C139.154 125.899 138.762 125.509 138.284 125.509Z" fill="#18181B"/>
<path d="M142.63 125.509C142.152 125.509 141.76 125.899 141.76 126.376C141.76 126.853 142.152 127.243 142.63 127.243C143.109 127.243 143.501 126.853 143.501 126.376C143.501 125.899 143.109 125.509 142.63 125.509Z" fill="#18181B"/>
<path d="M131.77 130.541C132.251 130.541 132.64 130.152 132.64 129.673C132.64 129.194 132.251 128.806 131.77 128.806C131.289 128.806 130.899 129.194 130.899 129.673C130.899 130.152 131.289 130.541 131.77 130.541Z" fill="#18181B"/>
<path d="M136.111 128.8C135.632 128.8 135.24 129.191 135.24 129.667C135.24 130.144 135.632 130.535 136.111 130.535C136.589 130.535 136.981 130.144 136.981 129.667C136.981 129.191 136.589 128.8 136.111 128.8Z" fill="#18181B"/>
<path d="M140.457 128.8C139.979 128.8 139.587 129.191 139.587 129.667C139.587 130.144 139.979 130.535 140.457 130.535C140.936 130.535 141.328 130.144 141.328 129.667C141.328 129.191 140.936 128.8 140.457 128.8Z" fill="#18181B"/>
<path d="M144.804 128.8C144.326 128.8 143.934 129.191 143.934 129.667C143.934 130.144 144.326 130.535 144.804 130.535C145.283 130.535 145.675 130.144 145.675 129.667C145.675 129.191 145.283 128.8 144.804 128.8Z" fill="#18181B"/>
<path d="M149.145 128.8C148.666 128.8 148.274 129.191 148.274 129.667C148.274 130.144 148.666 130.535 149.145 130.535C149.623 130.535 150.015 130.144 150.015 129.667C150.015 129.191 149.623 128.8 149.145 128.8Z" fill="#18181B"/>
<path d="M133.943 132.097C133.464 132.097 133.072 132.488 133.072 132.965C133.072 133.441 133.464 133.832 133.943 133.832C134.421 133.832 134.813 133.441 134.813 132.965C134.813 132.488 134.421 132.097 133.943 132.097Z" fill="#18181B"/>
<path d="M138.284 132.097C137.805 132.097 137.413 132.488 137.413 132.965C137.413 133.441 137.805 133.832 138.284 133.832C138.762 133.832 139.154 133.441 139.154 132.965C139.154 132.488 138.762 132.097 138.284 132.097Z" fill="#18181B"/>
<path d="M142.63 132.097C142.152 132.097 141.76 132.488 141.76 132.965C141.76 133.441 142.152 133.832 142.63 133.832C143.109 133.832 143.501 133.441 143.501 132.965C143.501 132.488 143.109 132.097 142.63 132.097Z" fill="#18181B"/>
<path d="M146.977 132.097C146.498 132.097 146.106 132.488 146.106 132.965C146.106 133.441 146.498 133.832 146.977 133.832C147.455 133.832 147.847 133.441 147.847 132.965C147.847 132.488 147.455 132.097 146.977 132.097Z" fill="#18181B"/>
<path d="M151.318 132.097C150.839 132.097 150.447 132.488 150.447 132.965C150.447 133.441 150.839 133.832 151.318 133.832C151.796 133.832 152.188 133.441 152.188 132.965C152.188 132.488 151.796 132.097 151.318 132.097Z" fill="#18181B"/>
<path d="M155.664 132.097C155.186 132.097 154.794 132.488 154.794 132.965C154.794 133.441 155.186 133.832 155.664 133.832C156.143 133.832 156.535 133.441 156.535 132.965C156.535 132.488 156.143 132.097 155.664 132.097Z" fill="#18181B"/>
<path d="M136.111 135.4C135.632 135.4 135.24 135.79 135.24 136.267C135.24 136.744 135.632 137.135 136.111 137.135C136.589 137.135 136.981 136.744 136.981 136.267C136.981 135.79 136.589 135.4 136.111 135.4Z" fill="#18181B"/>
<path d="M140.457 135.4C139.979 135.4 139.587 135.79 139.587 136.267C139.587 136.744 139.979 137.135 140.457 137.135C140.936 137.135 141.328 136.744 141.328 136.267C141.328 135.79 140.936 135.4 140.457 135.4Z" fill="#18181B"/>
<path d="M144.804 135.4C144.326 135.4 143.934 135.79 143.934 136.267C143.934 136.744 144.326 137.135 144.804 137.135C145.283 137.135 145.675 136.744 145.675 136.267C145.675 135.79 145.283 135.4 144.804 135.4Z" fill="#18181B"/>
<path d="M149.145 135.4C148.666 135.4 148.274 135.79 148.274 136.267C148.274 136.744 148.666 137.135 149.145 137.135C149.623 137.135 150.015 136.744 150.015 136.267C150.015 135.79 149.623 135.4 149.145 135.4Z" fill="#18181B"/>
<path d="M153.491 135.4C153.012 135.4 152.62 135.79 152.62 136.267C152.62 136.744 153.012 137.135 153.491 137.135C153.969 137.135 154.361 136.744 154.361 136.267C154.361 135.79 153.969 135.4 153.491 135.4Z" fill="#18181B"/>
<path d="M157.837 135.4C157.359 135.4 156.967 135.79 156.967 136.267C156.967 136.744 157.359 137.135 157.837 137.135C158.316 137.135 158.708 136.744 158.708 136.267C158.708 135.79 158.316 135.4 157.837 135.4Z" fill="#18181B"/>
<path d="M162.178 135.4C161.7 135.4 161.308 135.79 161.308 136.267C161.308 136.744 161.7 137.135 162.178 137.135C162.657 137.135 163.049 136.744 163.049 136.267C163.049 135.79 162.657 135.4 162.178 135.4Z" fill="#18181B"/>
<path d="M142.63 140.431C143.111 140.431 143.501 140.043 143.501 139.564C143.501 139.085 143.111 138.697 142.63 138.697C142.15 138.697 141.76 139.085 141.76 139.564C141.76 140.043 142.15 140.431 142.63 140.431Z" fill="#18181B"/>
<path d="M146.977 138.697C146.498 138.697 146.106 139.087 146.106 139.564C146.106 140.041 146.498 140.431 146.977 140.431C147.455 140.431 147.847 140.041 147.847 139.564C147.847 139.087 147.455 138.697 146.977 138.697Z" fill="#18181B"/>
<path d="M151.318 138.697C150.839 138.697 150.447 139.087 150.447 139.564C150.447 140.041 150.839 140.431 151.318 140.431C151.796 140.431 152.188 140.041 152.188 139.564C152.188 139.087 151.796 138.697 151.318 138.697Z" fill="#18181B"/>
<path d="M155.664 138.697C155.186 138.697 154.794 139.087 154.794 139.564C154.794 140.041 155.186 140.431 155.664 140.431C156.143 140.431 156.535 140.041 156.535 139.564C156.535 139.087 156.143 138.697 155.664 138.697Z" fill="#18181B"/>
<path d="M160.011 138.697C159.533 138.697 159.141 139.087 159.141 139.564C159.141 140.041 159.533 140.431 160.011 140.431C160.49 140.431 160.882 140.041 160.882 139.564C160.882 139.087 160.49 138.697 160.011 138.697Z" fill="#18181B"/>
<path d="M164.352 140.431C164.833 140.431 165.222 140.043 165.222 139.564C165.222 139.085 164.833 138.697 164.352 138.697C163.871 138.697 163.481 139.085 163.481 139.564C163.481 140.043 163.871 140.431 164.352 140.431Z" fill="#18181B"/>
<path d="M168.698 138.697C168.219 138.697 167.827 139.087 167.827 139.564C167.827 140.041 168.219 140.431 168.698 140.431C169.176 140.431 169.568 140.041 169.568 139.564C169.568 139.087 169.176 138.697 168.698 138.697Z" fill="#18181B"/>
<path d="M149.145 141.994C148.666 141.994 148.274 142.384 148.274 142.861C148.274 143.338 148.666 143.729 149.145 143.729C149.623 143.729 150.015 143.338 150.015 142.861C150.015 142.384 149.623 141.994 149.145 141.994Z" fill="#18181B"/>
<path d="M153.491 141.994C153.012 141.994 152.62 142.384 152.62 142.861C152.62 143.338 153.012 143.729 153.491 143.729C153.969 143.729 154.361 143.338 154.361 142.861C154.361 142.384 153.969 141.994 153.491 141.994Z" fill="#18181B"/>
<path d="M157.837 141.994C157.359 141.994 156.967 142.384 156.967 142.861C156.967 143.338 157.359 143.729 157.837 143.729C158.316 143.729 158.708 143.338 158.708 142.861C158.708 142.384 158.316 141.994 157.837 141.994Z" fill="#18181B"/>
<path d="M162.178 141.994C161.7 141.994 161.308 142.384 161.308 142.861C161.308 143.338 161.7 143.729 162.178 143.729C162.657 143.729 163.049 143.338 163.049 142.861C163.049 142.384 162.657 141.994 162.178 141.994Z" fill="#18181B"/>
<path d="M166.525 141.994C166.046 141.994 165.66 142.384 165.66 142.861C165.66 143.338 166.052 143.729 166.525 143.729C166.997 143.729 167.395 143.338 167.395 142.861C167.395 142.384 167.003 141.994 166.525 141.994Z" fill="#18181B"/>
<path d="M170.871 141.994C170.393 141.994 169.995 142.384 169.995 142.861C169.995 143.338 170.387 143.729 170.871 143.729C171.355 143.729 171.736 143.338 171.736 142.861C171.736 142.384 171.344 141.994 170.871 141.994Z" fill="#18181B"/>
<path d="M175.212 141.994C174.734 141.994 174.348 142.384 174.348 142.861C174.348 143.338 174.74 143.729 175.212 143.729C175.685 143.729 176.089 143.338 176.089 142.861C176.089 142.384 175.697 141.994 175.212 141.994Z" fill="#18181B"/>
<path d="M151.318 145.291C150.839 145.291 150.447 145.682 150.447 146.158C150.447 146.635 150.839 147.026 151.318 147.026C151.796 147.026 152.188 146.635 152.188 146.158C152.188 145.682 151.796 145.291 151.318 145.291Z" fill="#18181B"/>
<path d="M155.664 145.291C155.186 145.291 154.794 145.682 154.794 146.158C154.794 146.635 155.186 147.026 155.664 147.026C156.143 147.026 156.535 146.635 156.535 146.158C156.535 145.682 156.143 145.291 155.664 145.291Z" fill="#18181B"/>
<path d="M160.011 145.291C159.533 145.291 159.141 145.682 159.141 146.158C159.141 146.635 159.533 147.026 160.011 147.026C160.49 147.026 160.882 146.635 160.882 146.158C160.882 145.682 160.49 145.291 160.011 145.291Z" fill="#18181B"/>
<path d="M164.352 145.291C163.873 145.291 163.481 145.682 163.481 146.158C163.481 146.635 163.873 147.026 164.352 147.026C164.83 147.026 165.222 146.635 165.222 146.158C165.222 145.682 164.83 145.291 164.352 145.291Z" fill="#18181B"/>
<path d="M168.698 145.291C168.219 145.291 167.827 145.682 167.827 146.158C167.827 146.635 168.219 147.026 168.698 147.026C169.176 147.026 169.568 146.635 169.568 146.158C169.568 145.682 169.176 145.291 168.698 145.291Z" fill="#18181B"/>
<path d="M173.044 145.291C172.566 145.291 172.174 145.682 172.174 146.158C172.174 146.635 172.566 147.026 173.044 147.026C173.523 147.026 173.915 146.635 173.915 146.158C173.915 145.682 173.523 145.291 173.044 145.291Z" fill="#18181B"/>
<path d="M177.385 145.291C176.907 145.291 176.515 145.682 176.515 146.158C176.515 146.635 176.907 147.026 177.385 147.026C177.864 147.026 178.256 146.635 178.256 146.158C178.256 145.682 177.864 145.291 177.385 145.291Z" fill="#18181B"/>
<path d="M221.202 145.377C222.66 143.792 223.392 141.408 223.392 138.565L223.548 77.7481L183.236 54.5828L193.468 48.701L203.868 54.7092L219.3 45.8233C219.519 45.697 219.68 45.5247 219.79 45.3179L223.093 47.1617L231.953 42.0668L227.491 39.5797L223.029 37.0926L214.169 42.1874L217.276 43.9221L203.862 51.6362L193.463 45.628L180.567 53.0492L169.689 46.7998L181.749 39.7865C182.383 39.4131 182.596 38.5975 182.227 37.9656C181.853 37.3338 181.034 37.127 180.4 37.4889L167.02 45.2719L146.447 33.4509L139.719 37.4487L122.299 27.4255V66.019L126.91 68.6497L109.536 78.805L104.728 76.1225L92.4843 83.1646L104.826 90.0401L117.064 82.998L112.234 80.3099L129.579 70.1718L130.969 70.9645V96.1229L119.203 84.3938V119.432L128.49 110.477H131.124C131.286 110.649 131.511 110.764 131.764 110.764C132.018 110.764 132.231 110.661 132.387 110.5C132.658 111.218 132.963 111.919 133.298 112.608C133.153 112.763 133.067 112.964 133.067 113.194C133.067 113.671 133.459 114.061 133.937 114.061C133.978 114.061 134.018 114.055 134.053 114.05C134.45 114.75 134.883 115.428 135.344 116.083C135.281 116.204 135.234 116.342 135.234 116.491C135.234 116.968 135.626 117.358 136.105 117.358C136.163 117.358 136.22 117.352 136.278 117.341C136.756 117.938 137.258 118.518 137.788 119.07C137.558 119.225 137.408 119.489 137.408 119.788C137.408 120.265 137.8 120.655 138.278 120.655C138.578 120.655 138.849 120.5 139.005 120.265C140.019 121.195 141.103 122.057 142.262 122.821L146.937 125.515C146.47 125.532 146.095 125.911 146.095 126.382C146.095 126.853 146.487 127.249 146.965 127.249C147.444 127.249 147.836 126.859 147.836 126.382C147.836 126.233 147.796 126.095 147.726 125.974L152.961 128.984C152.747 129.145 152.609 129.392 152.609 129.679C152.609 130.156 153.001 130.546 153.479 130.546C153.923 130.546 154.292 130.207 154.338 129.777L159.221 132.585C159.163 132.7 159.123 132.832 159.123 132.97C159.123 133.447 159.515 133.838 159.993 133.838C160.299 133.838 160.564 133.682 160.72 133.447L165.643 136.279C165.648 136.75 166.035 137.135 166.507 137.135C166.663 137.135 166.807 137.089 166.928 137.02L172.399 140.167C172.508 140.276 172.647 140.357 172.797 140.397L181.397 145.348C181.069 145.475 180.832 145.785 180.832 146.158C180.832 146.635 181.224 147.026 181.703 147.026C182.181 147.026 182.573 146.635 182.573 146.158C182.573 146.112 182.568 146.066 182.562 146.02L187.56 148.898C187.433 149.047 187.352 149.243 187.352 149.455C187.352 149.932 187.744 150.317 188.223 150.317C188.597 150.317 188.914 150.076 189.035 149.742L193.895 152.54C193.878 152.609 193.866 152.678 193.866 152.747C193.866 153.223 194.258 153.614 194.737 153.614C194.973 153.614 195.18 153.522 195.342 153.367L196.426 153.993C197.717 154.814 199.095 155.274 200.565 155.521C200.455 155.664 200.386 155.848 200.386 156.044C200.386 156.52 200.778 156.911 201.256 156.911C201.735 156.911 202.127 156.52 202.127 156.044C202.127 155.917 202.098 155.797 202.046 155.687C203.268 155.682 204.485 155.372 205.401 154.763L207.494 153.562C207.58 153.591 207.672 153.608 207.77 153.608C208.191 153.608 208.543 153.309 208.624 152.913L213.644 150.03C213.806 150.202 214.031 150.317 214.284 150.317C214.763 150.317 215.155 149.926 215.155 149.455C215.155 149.363 215.138 149.277 215.109 149.191L219.64 146.589C219.749 146.526 219.853 146.457 219.962 146.388C220.066 146.756 220.401 147.026 220.798 147.026C221.277 147.026 221.669 146.635 221.669 146.158C221.669 145.814 221.461 145.515 221.167 145.377H221.202ZM104.809 86.9843L97.8972 83.1301L104.757 79.1841L111.669 83.0382L104.809 86.9843ZM198.005 74.0432V79.431L134.531 43.0203L139.304 40.2747L197.999 74.0432H198.005ZM153.174 68.8565C152.938 68.2074 152.788 67.5181 152.742 66.7944C152.742 66.1396 152.909 65.6456 153.174 65.4905C153.399 65.3642 153.894 65.3757 154.598 65.772C155.186 66.1224 155.699 66.5876 156.148 67.1161L153.174 68.8565ZM157.451 69.4366C157.647 70.0282 157.78 70.6428 157.814 71.2689C157.814 71.9237 157.647 72.4235 157.382 72.5728C157.163 72.7049 156.667 72.6819 155.952 72.2856C155.422 71.9639 154.955 71.5734 154.546 71.1311L157.445 69.4366H157.451ZM154.592 74.5717L154.621 74.5889C155.468 75.0714 156.298 75.3127 157.071 75.3127C157.665 75.3127 158.224 75.1691 158.725 74.8761C159.861 74.2213 160.483 72.9404 160.483 71.1943C160.397 69.6721 159.953 68.2074 159.232 66.915C159.227 66.8978 159.221 66.8863 159.209 66.8691C159.209 66.8633 159.198 66.8576 159.192 66.8461C158.402 65.4618 157.296 64.2843 155.941 63.4744C154.442 62.6186 152.984 62.5152 151.831 63.1872C150.701 63.842 150.073 65.1229 150.073 66.8691C150.142 68.0638 150.401 69.1896 150.833 70.2235L142.648 75.0082L133.442 69.7296V67.9145L138.78 64.7955C139.466 65.6743 140.302 66.4325 141.27 67.0127L141.299 67.0299C142.146 67.5124 142.976 67.7536 143.749 67.7536C144.348 67.7536 144.907 67.61 145.409 67.3171C146.545 66.6623 147.167 65.3814 147.167 63.6353C146.983 60.4301 145.363 57.5812 142.625 55.7661C141.137 54.916 139.696 54.8183 138.549 55.4789C137.88 55.8637 136.762 56.8689 136.762 59.3101C136.826 60.4244 137.068 61.4928 137.465 62.4865L133.447 64.8357V45.0249L198.005 82.2226V106.766L145.311 76.5304L152.2 72.4981C152.863 73.308 153.658 74.0088 154.586 74.5659L154.592 74.5717ZM139.794 61.1252C139.593 60.5278 139.466 59.896 139.425 59.2354C139.425 58.3566 139.662 57.9086 139.887 57.7764C140.106 57.6443 140.584 57.6673 141.218 58.0234C141.8 58.414 142.308 58.8793 142.752 59.3962L139.794 61.1252ZM144.083 61.6995C144.314 62.3429 144.458 63.0149 144.504 63.7099C144.504 64.3647 144.337 64.8645 144.072 65.0138C143.858 65.1459 143.363 65.1287 142.636 64.7266C142.054 64.3762 141.547 63.9339 141.114 63.4342L144.083 61.6995ZM129.13 67.3631L124.622 64.7955V31.8254L137.091 38.9995L131.119 42.4V66.1798L129.124 67.3458L129.13 67.3631ZM204.346 152.919H204.035L203.724 153.074H203.412L203.101 153.384H200.778L200.311 153.229H200.155L199.844 153.074L199.377 152.919H199.221L198.91 152.764C198.599 152.609 198.293 152.454 197.826 152.299L143.645 121.12C139.621 118.495 136.676 114.791 134.819 110.471H144.884L133.275 98.8972V72.5039L140.152 76.4557L136.399 78.6499C135.765 79.0232 135.552 79.8389 135.92 80.465C136.168 80.89 136.612 81.1198 137.073 81.1198C137.304 81.1198 137.535 81.0623 137.748 80.936L142.809 77.9778L200.15 110.931V83.6126L207.113 87.6276V94.8822L206.958 135.94V146.899C206.958 149.834 206.029 151.839 204.323 152.919H204.346ZM217.097 137.807C216.146 137.807 215.38 137.037 215.38 136.095C215.38 135.153 216.152 134.383 217.097 134.383C218.043 134.383 218.815 135.153 218.815 136.095C218.815 137.037 218.043 137.807 217.097 137.807ZM217.097 126.566C216.146 126.566 215.38 125.796 215.38 124.854C215.38 123.912 216.152 123.142 217.097 123.142C218.043 123.142 218.815 123.912 218.815 124.854C218.815 125.796 218.043 126.566 217.097 126.566ZM217.097 115.319C216.146 115.319 215.38 114.549 215.38 113.607C215.38 112.665 216.152 111.896 217.097 111.896C218.043 111.896 218.815 112.665 218.815 113.607C218.815 114.549 218.043 115.319 217.097 115.319ZM217.097 104.078C216.146 104.078 215.38 103.309 215.38 102.367C215.38 101.425 216.152 100.655 217.097 100.655C218.043 100.655 218.815 101.425 218.815 102.367C218.815 103.309 218.043 104.078 217.097 104.078ZM217.097 92.8316C216.146 92.8316 215.38 92.0619 215.38 91.1199C215.38 90.1779 216.152 89.4083 217.097 89.4083C218.043 89.4083 218.815 90.1779 218.815 91.1199C218.815 92.0619 218.043 92.8316 217.097 92.8316ZM208.526 85.4737L200.167 80.6775V72.2282L197.999 70.9817L141.968 38.7411L146.602 36.0759L220.447 78.5235L208.526 85.4679V85.4737Z" fill="#18181B"/>
<path d="M157.837 148.582C157.359 148.582 156.967 148.973 156.967 149.455C156.967 149.938 157.359 150.317 157.837 150.317C158.316 150.317 158.708 149.926 158.708 149.455C158.708 148.984 158.316 148.582 157.837 148.582Z" fill="#18181B"/>
<path d="M162.178 148.582C161.7 148.582 161.308 148.973 161.308 149.455C161.308 149.938 161.7 150.317 162.178 150.317C162.657 150.317 163.049 149.926 163.049 149.455C163.049 148.984 162.657 148.582 162.178 148.582Z" fill="#18181B"/>
<path d="M166.525 148.582C166.046 148.582 165.66 148.973 165.66 149.455C165.66 149.938 166.052 150.317 166.525 150.317C166.997 150.317 167.395 149.926 167.395 149.455C167.395 148.984 167.003 148.582 166.525 148.582Z" fill="#18181B"/>
<path d="M170.871 148.582C170.393 148.582 169.995 148.973 169.995 149.455C169.995 149.938 170.387 150.317 170.871 150.317C171.355 150.317 171.736 149.926 171.736 149.455C171.736 148.984 171.344 148.582 170.871 148.582Z" fill="#18181B"/>
<path d="M175.212 148.582C174.734 148.582 174.348 148.973 174.348 149.455C174.348 149.938 174.74 150.317 175.212 150.317C175.685 150.317 176.089 149.926 176.089 149.455C176.089 148.984 175.697 148.582 175.212 148.582Z" fill="#18181B"/>
<path d="M179.559 148.582C179.08 148.582 178.683 148.973 178.683 149.455C178.683 149.938 179.075 150.317 179.559 150.317C180.043 150.317 180.424 149.926 180.424 149.455C180.424 148.984 180.032 148.582 179.559 148.582Z" fill="#18181B"/>
<path d="M183.899 148.582C183.42 148.582 183.034 148.973 183.034 149.455C183.034 149.938 183.426 150.317 183.899 150.317C184.372 150.317 184.775 149.926 184.775 149.455C184.775 148.984 184.383 148.582 183.899 148.582Z" fill="#18181B"/>
<path d="M218.66 148.582C218.181 148.582 217.789 148.973 217.789 149.455C217.789 149.938 218.181 150.317 218.66 150.317C219.138 150.317 219.53 149.926 219.53 149.455C219.53 148.984 219.138 148.582 218.66 148.582Z" fill="#18181B"/>
<path d="M223.006 148.582C222.528 148.582 222.136 148.973 222.136 149.455C222.136 149.938 222.528 150.317 223.006 150.317C223.485 150.317 223.877 149.926 223.877 149.455C223.877 148.984 223.485 148.582 223.006 148.582Z" fill="#18181B"/>
<path d="M164.352 151.879C163.873 151.879 163.481 152.27 163.481 152.746C163.481 153.223 163.873 153.614 164.352 153.614C164.83 153.614 165.222 153.223 165.222 152.746C165.222 152.27 164.83 151.879 164.352 151.879Z" fill="#18181B"/>
<path d="M168.698 151.879C168.219 151.879 167.827 152.27 167.827 152.746C167.827 153.223 168.219 153.614 168.698 153.614C169.176 153.614 169.568 153.223 169.568 152.746C169.568 152.27 169.176 151.879 168.698 151.879Z" fill="#18181B"/>
<path d="M173.044 151.879C172.566 151.879 172.174 152.27 172.174 152.746C172.174 153.223 172.566 153.614 173.044 153.614C173.523 153.614 173.915 153.223 173.915 152.746C173.915 152.27 173.523 151.879 173.044 151.879Z" fill="#18181B"/>
<path d="M177.385 151.879C176.907 151.879 176.515 152.27 176.515 152.746C176.515 153.223 176.907 153.614 177.385 153.614C177.864 153.614 178.256 153.223 178.256 152.746C178.256 152.27 177.864 151.879 177.385 151.879Z" fill="#18181B"/>
<path d="M181.732 151.879C181.253 151.879 180.861 152.27 180.861 152.746C180.861 153.223 181.253 153.614 181.732 153.614C182.21 153.614 182.602 153.223 182.602 152.746C182.602 152.27 182.21 151.879 181.732 151.879Z" fill="#18181B"/>
<path d="M186.072 151.879C185.594 151.879 185.202 152.27 185.202 152.746C185.202 153.223 185.594 153.614 186.072 153.614C186.551 153.614 186.943 153.223 186.943 152.746C186.943 152.27 186.551 151.879 186.072 151.879Z" fill="#18181B"/>
<path d="M190.419 151.879C189.941 151.879 189.549 152.27 189.549 152.746C189.549 153.223 189.941 153.614 190.419 153.614C190.898 153.614 191.29 153.223 191.29 152.746C191.29 152.27 190.898 151.879 190.419 151.879Z" fill="#18181B"/>
<path d="M212.14 151.879C211.661 151.879 211.269 152.27 211.269 152.746C211.269 153.223 211.661 153.614 212.14 153.614C212.618 153.614 213.01 153.223 213.01 152.746C213.01 152.27 212.618 151.879 212.14 151.879Z" fill="#18181B"/>
<path d="M216.487 151.879C216.008 151.879 215.616 152.27 215.616 152.746C215.616 153.223 216.008 153.614 216.487 153.614C216.965 153.614 217.357 153.223 217.357 152.746C217.357 152.27 216.965 151.879 216.487 151.879Z" fill="#18181B"/>
<path d="M170.871 155.182C170.393 155.182 169.995 155.572 169.995 156.049C169.995 156.526 170.387 156.917 170.871 156.917C171.355 156.917 171.736 156.526 171.736 156.049C171.736 155.572 171.344 155.182 170.871 155.182Z" fill="#18181B"/>
<path d="M175.212 155.182C174.734 155.182 174.348 155.572 174.348 156.049C174.348 156.526 174.74 156.917 175.212 156.917C175.685 156.917 176.089 156.526 176.089 156.049C176.089 155.572 175.697 155.182 175.212 155.182Z" fill="#18181B"/>
<path d="M179.559 155.182C179.08 155.182 178.683 155.572 178.683 156.049C178.683 156.526 179.075 156.917 179.559 156.917C180.043 156.917 180.424 156.526 180.424 156.049C180.424 155.572 180.032 155.182 179.559 155.182Z" fill="#18181B"/>
<path d="M183.899 155.182C183.42 155.182 183.034 155.572 183.034 156.049C183.034 156.526 183.426 156.917 183.899 156.917C184.372 156.917 184.775 156.526 184.775 156.049C184.775 155.572 184.383 155.182 183.899 155.182Z" fill="#18181B"/>
<path d="M188.251 155.182C187.773 155.182 187.381 155.572 187.381 156.049C187.381 156.526 187.773 156.917 188.251 156.917C188.73 156.917 189.116 156.526 189.116 156.049C189.116 155.572 188.724 155.182 188.251 155.182Z" fill="#18181B"/>
<path d="M192.592 155.182C192.114 155.182 191.722 155.572 191.722 156.049C191.722 156.526 192.114 156.917 192.592 156.917C193.071 156.917 193.463 156.526 193.463 156.049C193.463 155.572 193.071 155.182 192.592 155.182Z" fill="#18181B"/>
<path d="M196.939 155.182C196.46 155.182 196.068 155.572 196.068 156.049C196.068 156.526 196.46 156.917 196.939 156.917C197.417 156.917 197.809 156.526 197.809 156.049C197.809 155.572 197.417 155.182 196.939 155.182Z" fill="#18181B"/>
<path d="M205.626 155.182C205.148 155.182 204.756 155.572 204.756 156.049C204.756 156.526 205.148 156.917 205.626 156.917C206.105 156.917 206.497 156.526 206.497 156.049C206.497 155.572 206.105 155.182 205.626 155.182Z" fill="#18181B"/>
<path d="M209.972 155.182C209.494 155.182 209.102 155.572 209.102 156.049C209.102 156.526 209.494 156.917 209.972 156.917C210.45 156.917 210.842 156.526 210.842 156.049C210.842 155.572 210.45 155.182 209.972 155.182Z" fill="#18181B"/>
<path d="M214.313 155.182C213.834 155.182 213.442 155.572 213.442 156.049C213.442 156.526 213.834 156.917 214.313 156.917C214.791 156.917 215.183 156.526 215.183 156.049C215.183 155.572 214.791 155.182 214.313 155.182Z" fill="#18181B"/>
<path d="M220.833 151.879C220.355 151.879 219.963 152.27 219.963 152.746C219.963 153.223 220.355 153.614 220.833 153.614C221.312 153.614 221.704 153.223 221.704 152.746C221.704 152.27 221.312 151.879 220.833 151.879Z" fill="#18181B"/>
<path d="M218.66 155.182C218.181 155.182 217.789 155.572 217.789 156.049C217.789 156.526 218.181 156.917 218.66 156.917C219.138 156.917 219.53 156.526 219.53 156.049C219.53 155.572 219.138 155.182 218.66 155.182Z" fill="#18181B"/>
<path d="M177.385 158.479C176.907 158.479 176.515 158.87 176.515 159.346C176.515 159.823 176.907 160.214 177.385 160.214C177.864 160.214 178.256 159.823 178.256 159.346C178.256 158.87 177.864 158.479 177.385 158.479Z" fill="#18181B"/>
<path d="M181.732 158.479C181.253 158.479 180.861 158.87 180.861 159.346C180.861 159.823 181.253 160.214 181.732 160.214C182.21 160.214 182.602 159.823 182.602 159.346C182.602 158.87 182.21 158.479 181.732 158.479Z" fill="#18181B"/>
<path d="M186.072 160.214C186.553 160.214 186.943 159.825 186.943 159.346C186.943 158.867 186.553 158.479 186.072 158.479C185.592 158.479 185.202 158.867 185.202 159.346C185.202 159.825 185.592 160.214 186.072 160.214Z" fill="#18181B"/>
<path d="M190.419 158.479C189.941 158.479 189.549 158.87 189.549 159.346C189.549 159.823 189.941 160.214 190.419 160.214C190.898 160.214 191.29 159.823 191.29 159.346C191.29 158.87 190.898 158.479 190.419 158.479Z" fill="#18181B"/>
<path d="M194.765 158.479C194.287 158.479 193.895 158.87 193.895 159.346C193.895 159.823 194.287 160.214 194.765 160.214C195.243 160.214 195.635 159.823 195.635 159.346C195.635 158.87 195.243 158.479 194.765 158.479Z" fill="#18181B"/>
<path d="M199.106 158.479C198.627 158.479 198.235 158.87 198.235 159.346C198.235 159.823 198.627 160.214 199.106 160.214C199.584 160.214 199.976 159.823 199.976 159.346C199.976 158.87 199.584 158.479 199.106 158.479Z" fill="#18181B"/>
<path d="M203.453 158.479C202.974 158.479 202.582 158.87 202.582 159.346C202.582 159.823 202.974 160.214 203.453 160.214C203.931 160.214 204.323 159.823 204.323 159.346C204.323 158.87 203.931 158.479 203.453 158.479Z" fill="#18181B"/>
<path d="M207.799 160.214C208.28 160.214 208.67 159.825 208.67 159.346C208.67 158.867 208.28 158.479 207.799 158.479C207.318 158.479 206.929 158.867 206.929 159.346C206.929 159.825 207.318 160.214 207.799 160.214Z" fill="#18181B"/>
<path d="M212.14 158.479C211.661 158.479 211.269 158.87 211.269 159.346C211.269 159.823 211.661 160.214 212.14 160.214C212.618 160.214 213.01 159.823 213.01 159.346C213.01 158.87 212.618 158.479 212.14 158.479Z" fill="#18181B"/>
<path d="M183.899 161.776C183.42 161.776 183.034 162.167 183.034 162.643C183.034 163.12 183.426 163.511 183.899 163.511C184.372 163.511 184.775 163.12 184.775 162.643C184.775 162.167 184.383 161.776 183.899 161.776Z" fill="#18181B"/>
<path d="M188.251 161.776C187.773 161.776 187.381 162.167 187.381 162.643C187.381 163.12 187.773 163.511 188.251 163.511C188.73 163.511 189.116 163.12 189.116 162.643C189.116 162.167 188.724 161.776 188.251 161.776Z" fill="#18181B"/>
<path d="M192.592 161.776C192.114 161.776 191.722 162.167 191.722 162.643C191.722 163.12 192.114 163.511 192.592 163.511C193.071 163.511 193.463 163.12 193.463 162.643C193.463 162.167 193.071 161.776 192.592 161.776Z" fill="#18181B"/>
<path d="M196.939 161.776C196.46 161.776 196.068 162.167 196.068 162.643C196.068 163.12 196.46 163.511 196.939 163.511C197.417 163.511 197.809 163.12 197.809 162.643C197.809 162.167 197.417 161.776 196.939 161.776Z" fill="#18181B"/>
<path d="M201.285 161.776C200.807 161.776 200.415 162.167 200.415 162.643C200.415 163.12 200.807 163.511 201.285 163.511C201.764 163.511 202.156 163.12 202.156 162.643C202.156 162.167 201.764 161.776 201.285 161.776Z" fill="#18181B"/>
<path d="M205.626 161.776C205.148 161.776 204.756 162.167 204.756 162.643C204.756 163.12 205.148 163.511 205.626 163.511C206.105 163.511 206.497 163.12 206.497 162.643C206.497 162.167 206.105 161.776 205.626 161.776Z" fill="#18181B"/>
<path d="M206.981 135.94L207.137 94.8822V87.6277L200.173 83.6127V110.931L142.832 77.9779L137.771 80.936C137.558 81.0624 137.327 81.1198 137.097 81.1198C136.641 81.1198 136.197 80.8843 135.944 80.465C135.569 79.8332 135.782 79.0175 136.422 78.6499L140.175 76.4557L133.298 72.5039V98.8972L144.908 110.471H134.843C136.699 114.791 139.645 118.496 143.668 121.12L197.85 152.299C198.317 152.454 198.622 152.609 198.934 152.764L199.245 152.919H199.4L199.867 153.074L200.179 153.229H200.334L200.801 153.384H203.124L203.436 153.074H203.747L204.058 152.919H204.37C206.07 151.839 207.004 149.834 207.004 146.899V135.94H206.981Z" fill="white"/>
<path d="M152.199 72.4981L145.311 76.5303L198.005 106.766V82.2226L133.447 45.0249V64.8242L137.465 62.475C137.067 61.4813 136.825 60.4129 136.762 59.2986C136.762 56.8574 137.88 55.8522 138.549 55.4674C139.696 54.8011 141.137 54.9045 142.624 55.7546C145.363 57.5696 146.982 60.4186 147.167 63.6237C147.167 65.3699 146.544 66.645 145.409 67.3056C144.907 67.5928 144.348 67.7421 143.748 67.7421C142.976 67.7421 142.146 67.5009 141.299 67.0184L141.27 67.0012C140.301 66.421 139.465 65.6686 138.779 64.784L133.441 67.903V69.718L142.647 74.9967L150.833 70.212C150.401 69.1781 150.141 68.0523 150.072 66.8576C150.072 65.1114 150.695 63.8363 151.83 63.1757C152.983 62.5094 154.442 62.6128 155.941 63.4629C157.29 64.2728 158.402 65.4446 159.192 66.8346C159.192 66.8403 159.203 66.8461 159.209 66.8576C159.215 66.8748 159.221 66.8863 159.232 66.9035C159.953 68.1902 160.397 69.6549 160.483 71.1827C160.483 72.9289 159.861 74.2098 158.725 74.8646C158.223 75.1518 157.664 75.3011 157.07 75.3011C156.298 75.3011 155.468 75.0599 154.621 74.5774L154.592 74.5602C153.664 74.003 152.868 73.308 152.205 72.4924L152.199 72.4981Z" fill="white"/>
<path d="M228.385 89.4026C227.439 89.4026 226.667 90.1723 226.667 91.1143C226.667 92.0563 227.439 92.826 228.385 92.826C229.33 92.826 230.103 92.0563 230.103 91.1143C230.103 90.1723 229.33 89.4026 228.385 89.4026Z" fill="#18181B"/>
<path d="M239.672 89.4026C238.727 89.4026 237.954 90.1723 237.954 91.1143C237.954 92.0563 238.727 92.826 239.672 92.826C240.617 92.826 241.39 92.0563 241.39 91.1143C241.39 90.1723 240.617 89.4026 239.672 89.4026Z" fill="#18181B"/>
<path d="M250.953 89.4026C250.008 89.4026 249.235 90.1723 249.235 91.1143C249.235 92.0563 250.008 92.826 250.953 92.826C251.899 92.826 252.671 92.0563 252.671 91.1143C252.671 90.1723 251.899 89.4026 250.953 89.4026Z" fill="#18181B"/>
<path d="M262.24 92.826C263.186 92.826 263.958 92.0563 263.958 91.1143C263.958 90.1723 263.186 89.4026 262.24 89.4026C261.295 89.4026 260.522 90.1723 260.522 91.1143C260.522 92.0563 261.295 92.826 262.24 92.826Z" fill="#18181B"/>
<path d="M228.385 100.649C227.439 100.649 226.667 101.419 226.667 102.361C226.667 103.303 227.439 104.073 228.385 104.073C229.33 104.073 230.103 103.303 230.103 102.361C230.103 101.419 229.33 100.649 228.385 100.649Z" fill="#18181B"/>
<path d="M228.385 111.89C227.439 111.89 226.667 112.66 226.667 113.602C226.667 114.544 227.439 115.313 228.385 115.313C229.33 115.313 230.103 114.544 230.103 113.602C230.103 112.66 229.33 111.89 228.385 111.89Z" fill="#18181B"/>
<path d="M228.385 123.136C227.439 123.136 226.667 123.906 226.667 124.848C226.667 125.79 227.439 126.56 228.385 126.56C229.33 126.56 230.103 125.79 230.103 124.848C230.103 123.906 229.33 123.136 228.385 123.136Z" fill="#18181B"/>
<path d="M228.385 134.383C227.439 134.383 226.667 135.153 226.667 136.095C226.667 137.037 227.439 137.807 228.385 137.807C229.33 137.807 230.103 137.037 230.103 136.095C230.103 135.153 229.33 134.383 228.385 134.383Z" fill="#18181B"/>
<path d="M239.672 100.649C238.727 100.649 237.954 101.419 237.954 102.361C237.954 103.303 238.727 104.073 239.672 104.073C240.617 104.073 241.39 103.303 241.39 102.361C241.39 101.419 240.617 100.649 239.672 100.649Z" fill="#18181B"/>
<path d="M239.672 111.89C238.727 111.89 237.954 112.66 237.954 113.602C237.954 114.544 238.727 115.313 239.672 115.313C240.617 115.313 241.39 114.544 241.39 113.602C241.39 112.66 240.617 111.89 239.672 111.89Z" fill="#18181B"/>
<path d="M239.672 123.136C238.727 123.136 237.954 123.906 237.954 124.848C237.954 125.79 238.727 126.56 239.672 126.56C240.617 126.56 241.39 125.79 241.39 124.848C241.39 123.906 240.617 123.136 239.672 123.136Z" fill="#18181B"/>
<path d="M239.672 134.383C238.727 134.383 237.954 135.153 237.954 136.095C237.954 137.037 238.727 137.807 239.672 137.807C240.617 137.807 241.39 137.037 241.39 136.095C241.39 135.153 240.617 134.383 239.672 134.383Z" fill="#18181B"/>
<path d="M250.953 100.649C250.008 100.649 249.235 101.419 249.235 102.361C249.235 103.303 250.008 104.073 250.953 104.073C251.899 104.073 252.671 103.303 252.671 102.361C252.671 101.419 251.899 100.649 250.953 100.649Z" fill="#18181B"/>
<path d="M250.953 111.89C250.008 111.89 249.235 112.66 249.235 113.602C249.235 114.544 250.008 115.313 250.953 115.313C251.899 115.313 252.671 114.544 252.671 113.602C252.671 112.66 251.899 111.89 250.953 111.89Z" fill="#18181B"/>
<path d="M250.953 123.136C250.008 123.136 249.235 123.906 249.235 124.848C249.235 125.79 250.008 126.56 250.953 126.56C251.899 126.56 252.671 125.79 252.671 124.848C252.671 123.906 251.899 123.136 250.953 123.136Z" fill="#18181B"/>
<path d="M250.953 134.383C250.008 134.383 249.235 135.153 249.235 136.095C249.235 137.037 250.008 137.807 250.953 137.807C251.899 137.807 252.671 137.037 252.671 136.095C252.671 135.153 251.899 134.383 250.953 134.383Z" fill="#18181B"/>
<path d="M262.24 100.649C261.295 100.649 260.522 101.419 260.522 102.361C260.522 103.303 261.295 104.073 262.24 104.073C263.186 104.073 263.958 103.303 263.958 102.361C263.958 101.419 263.186 100.649 262.24 100.649Z" fill="#18181B"/>
<path d="M262.24 111.89C261.295 111.89 260.522 112.66 260.522 113.602C260.522 114.544 261.295 115.313 262.24 115.313C263.186 115.313 263.958 114.544 263.958 113.602C263.958 112.66 263.186 111.89 262.24 111.89Z" fill="#18181B"/>
<path d="M262.24 123.136C261.295 123.136 260.522 123.906 260.522 124.848C260.522 125.79 261.295 126.56 262.24 126.56C263.186 126.56 263.958 125.79 263.958 124.848C263.958 123.906 263.186 123.136 262.24 123.136Z" fill="#18181B"/>
<path d="M262.24 134.383C261.295 134.383 260.522 135.153 260.522 136.095C260.522 137.037 261.295 137.807 262.24 137.807C263.186 137.807 263.958 137.037 263.958 136.095C263.958 135.153 263.186 134.383 262.24 134.383Z" fill="#18181B"/>
<path d="M209.736 60.9701L218.873 66.065L227.215 61.2631L218.078 56.1682L209.736 60.9701ZM221.813 61.2975L218.85 63.0035L215.138 60.9299L218.101 59.224L221.813 61.2975Z" fill="#18181B"/>
<path d="M232.518 68.0178L227.509 70.9013L233.204 74.0719L238.219 71.1942L232.518 68.0178Z" fill="#18181B"/>
<path d="M91.2275 95.9104L72.043 106.944L91.3774 117.714L110.556 106.68L91.2275 95.9104ZM91.3544 114.659L77.4444 106.904L91.2506 98.9604L105.161 106.715L91.3544 114.659Z" fill="#18181B"/>
<path d="M105.115 120.914L93.9834 127.318L99.5923 130.448L105.201 133.573L116.333 127.169L110.724 124.044L105.115 120.914Z" fill="#18181B"/>
<path d="M107.888 71.2286L115.612 66.7886L111.721 64.6174L107.83 62.4519L100.105 66.892L103.997 69.0632L107.888 71.2286Z" fill="#18181B"/>
<path d="M226.038 54.3301L242.363 63.4227L258.556 54.1061L242.237 45.0134L226.038 54.3301ZM253.16 54.1463L242.34 60.3727L231.44 54.2956L242.26 48.0692L253.16 54.1463Z" fill="#18181B"/>
</g>
<defs>
<clipPath id="clip0_681_15558">
<rect width="191.915" height="136.085" fill="white" transform="translate(72.043 27.4255)"/>
</clipPath>
</defs>
</svg>
