<svg width="336" height="190" viewBox="0 0 336 190" fill="none" xmlns="http://www.w3.org/2000/svg">
<rect width="336" height="190" fill="#E4E4E7"/>
<g clip-path="url(#clip0_1757_24055)">
<path d="M128.312 109.077C127.826 109.077 127.433 109.469 127.433 109.954C127.433 110.439 127.826 110.832 128.312 110.832C128.797 110.832 129.19 110.439 129.19 109.954C129.19 109.469 128.797 109.077 128.312 109.077Z" fill="#18181B"/>
<path d="M131.779 103.349C131.779 103.834 132.172 104.227 132.657 104.227C133.143 104.227 133.536 103.834 133.536 103.349C133.536 102.864 133.143 102.494 132.657 102.494C132.172 102.494 131.779 102.887 131.779 103.349Z" fill="#18181B"/>
<path d="M130.485 107.529C130.97 107.529 131.363 107.137 131.363 106.652C131.363 106.167 130.97 105.774 130.485 105.774C129.999 105.774 129.606 106.167 129.606 106.652C129.606 107.137 129.999 107.529 130.485 107.529Z" fill="#18181B"/>
<path d="M133.952 100.069C133.952 100.554 134.345 100.947 134.83 100.947C135.316 100.947 135.709 100.554 135.709 100.069C135.709 99.5844 135.316 99.2148 134.83 99.2148C134.345 99.1917 133.952 99.5844 133.952 100.069Z" fill="#18181B"/>
<path d="M134.807 107.529C135.293 107.529 135.686 107.137 135.686 106.652C135.686 106.167 135.293 105.774 134.807 105.774C134.322 105.774 133.929 106.167 133.929 106.652C133.929 107.137 134.322 107.529 134.807 107.529Z" fill="#18181B"/>
<path d="M129.606 100.069C129.606 100.554 129.999 100.947 130.485 100.947C130.97 100.947 131.363 100.554 131.363 100.069C131.363 99.5844 130.97 99.2148 130.485 99.2148C129.999 99.1917 129.606 99.5844 129.606 100.069Z" fill="#18181B"/>
<path d="M132.657 109.077C132.172 109.077 131.779 109.469 131.779 109.954C131.779 110.439 132.172 110.832 132.657 110.832C133.143 110.832 133.536 110.439 133.536 109.954C133.536 109.469 133.12 109.077 132.657 109.077Z" fill="#18181B"/>
<path d="M136.102 109.954C136.102 110.439 136.495 110.832 136.98 110.832C137.466 110.832 137.859 110.439 137.859 109.954C137.859 109.469 137.466 109.077 136.98 109.077C136.495 109.077 136.102 109.469 136.102 109.954Z" fill="#18181B"/>
<path d="M131.34 113.257C131.34 112.772 130.947 112.379 130.461 112.379C129.976 112.379 129.583 112.772 129.583 113.257C129.583 113.742 129.976 114.135 130.461 114.135C130.947 114.135 131.34 113.742 131.34 113.257Z" fill="#18181B"/>
<path d="M135.686 113.257C135.686 112.772 135.293 112.379 134.807 112.379C134.322 112.379 133.929 112.772 133.929 113.257C133.929 113.742 134.322 114.135 134.807 114.135C135.293 114.112 135.686 113.742 135.686 113.257Z" fill="#18181B"/>
<path d="M139.153 114.111C139.639 114.111 140.032 113.719 140.032 113.234C140.032 112.749 139.639 112.356 139.153 112.356C138.668 112.356 138.275 112.749 138.275 113.234C138.275 113.742 138.668 114.111 139.153 114.111Z" fill="#18181B"/>
<path d="M136.98 115.682C136.495 115.682 136.102 116.075 136.102 116.56C136.102 117.045 136.495 117.437 136.98 117.437C137.466 117.437 137.859 117.045 137.859 116.56C137.836 116.075 137.466 115.682 136.98 115.682Z" fill="#18181B"/>
<path d="M140.448 116.56C140.448 117.045 140.841 117.437 141.326 117.437C141.812 117.437 142.205 117.045 142.205 116.56C142.205 116.075 141.812 115.682 141.326 115.682C140.841 115.682 140.448 116.075 140.448 116.56Z" fill="#18181B"/>
<path d="M134.807 120.717C135.293 120.717 135.686 120.324 135.686 119.839C135.686 119.354 135.293 118.961 134.807 118.961C134.322 118.961 133.929 119.354 133.929 119.839C133.929 120.324 134.322 120.717 134.807 120.717Z" fill="#18181B"/>
<path d="M140.009 119.839C140.009 119.354 139.616 118.961 139.13 118.961C138.645 118.961 138.252 119.354 138.252 119.839C138.252 120.324 138.645 120.717 139.13 120.717C139.616 120.717 140.009 120.324 140.009 119.839Z" fill="#18181B"/>
<path d="M143.476 120.717C143.962 120.717 144.355 120.324 144.355 119.839C144.355 119.354 143.962 118.961 143.476 118.961C142.991 118.961 142.598 119.354 142.598 119.839C142.598 120.324 142.991 120.717 143.476 120.717Z" fill="#18181B"/>
<path d="M136.102 123.142C136.102 123.627 136.495 124.019 136.98 124.019C137.466 124.019 137.859 123.627 137.859 123.142C137.859 122.657 137.466 122.264 136.98 122.264C136.495 122.287 136.102 122.657 136.102 123.142Z" fill="#18181B"/>
<path d="M140.448 123.142C140.448 123.627 140.841 124.019 141.326 124.019C141.812 124.019 142.205 123.627 142.205 123.142C142.205 122.657 141.812 122.264 141.326 122.264C140.841 122.287 140.448 122.657 140.448 123.142Z" fill="#18181B"/>
<path d="M144.771 123.142C144.771 123.627 145.164 124.019 145.649 124.019C146.135 124.019 146.528 123.627 146.528 123.142C146.528 122.657 146.135 122.264 145.649 122.264C145.164 122.264 144.771 122.657 144.771 123.142Z" fill="#18181B"/>
<path d="M139.153 127.299C139.639 127.299 140.032 126.906 140.032 126.421C140.032 125.936 139.639 125.544 139.153 125.544C138.668 125.544 138.275 125.936 138.275 126.421C138.275 126.929 138.668 127.299 139.153 127.299Z" fill="#18181B"/>
<path d="M143.476 127.299C143.962 127.299 144.355 126.906 144.355 126.421C144.355 125.936 143.962 125.544 143.476 125.544C142.991 125.544 142.598 125.936 142.598 126.421C142.598 126.929 142.991 127.299 143.476 127.299Z" fill="#18181B"/>
<path d="M147.799 127.299C148.284 127.299 148.677 126.906 148.677 126.421C148.677 125.936 148.284 125.544 147.799 125.544C147.314 125.544 146.921 125.936 146.921 126.421C146.944 126.929 147.337 127.299 147.799 127.299Z" fill="#18181B"/>
<path d="M140.448 129.747C140.448 130.232 140.841 130.625 141.326 130.625C141.812 130.625 142.205 130.232 142.205 129.747C142.205 129.262 141.812 128.87 141.326 128.87C140.841 128.87 140.448 129.262 140.448 129.747Z" fill="#18181B"/>
<path d="M144.771 129.747C144.771 130.232 145.164 130.625 145.649 130.625C146.135 130.625 146.528 130.232 146.528 129.747C146.528 129.262 146.135 128.87 145.649 128.87C145.164 128.87 144.771 129.262 144.771 129.747Z" fill="#18181B"/>
<path d="M149.117 129.747C149.117 130.232 149.51 130.625 149.995 130.625C150.48 130.625 150.873 130.232 150.873 129.747C150.873 129.262 150.48 128.87 149.995 128.87C149.51 128.87 149.117 129.262 149.117 129.747Z" fill="#18181B"/>
<path d="M144.355 133.027C144.355 132.542 143.962 132.149 143.476 132.149C142.991 132.149 142.598 132.542 142.598 133.027C142.598 133.512 142.991 133.904 143.476 133.904C143.962 133.904 144.355 133.512 144.355 133.027Z" fill="#18181B"/>
<path d="M144.771 136.329C144.771 136.814 145.164 137.207 145.649 137.207C146.135 137.207 146.528 136.814 146.528 136.329C146.528 135.844 146.135 135.452 145.649 135.452C145.164 135.452 144.771 135.844 144.771 136.329Z" fill="#18181B"/>
<path d="M148.677 139.632C148.677 139.147 148.284 138.754 147.799 138.754C147.314 138.754 146.921 139.147 146.921 139.632C146.921 140.117 147.314 140.51 147.799 140.51C148.284 140.51 148.677 140.117 148.677 139.632Z" fill="#18181B"/>
<path d="M150.85 142.935C150.85 142.45 150.457 142.057 149.972 142.057C149.486 142.057 149.094 142.45 149.094 142.935C149.094 143.42 149.486 143.812 149.972 143.812C150.457 143.812 150.85 143.397 150.85 142.935Z" fill="#18181B"/>
<path d="M153 146.237C153 145.752 152.607 145.36 152.122 145.36C151.636 145.36 151.243 145.752 151.243 146.237C151.243 146.722 151.636 147.115 152.122 147.115C152.607 147.115 153 146.699 153 146.237Z" fill="#18181B"/>
<path d="M155.173 149.517C155.173 149.032 154.78 148.639 154.295 148.639C153.809 148.639 153.416 149.032 153.416 149.517C153.416 150.002 153.809 150.395 154.295 150.395C154.78 150.395 155.173 150.002 155.173 149.517Z" fill="#18181B"/>
<path d="M158.641 150.395C159.126 150.395 159.519 150.002 159.519 149.517C159.519 149.032 159.126 148.639 158.641 148.639C158.156 148.639 157.762 149.032 157.762 149.517C157.762 150.002 158.156 150.395 158.641 150.395Z" fill="#18181B"/>
<path d="M161.669 152.82C161.669 152.335 161.276 151.942 160.791 151.942C160.305 151.942 159.912 152.335 159.912 152.82C159.912 153.305 160.305 153.697 160.791 153.697C161.276 153.697 161.669 153.305 161.669 152.82Z" fill="#18181B"/>
<path d="M166.015 152.82C166.015 152.335 165.622 151.942 165.136 151.942C164.651 151.942 164.258 152.335 164.258 152.82C164.258 153.305 164.651 153.697 165.136 153.697C165.622 153.697 166.015 153.305 166.015 152.82Z" fill="#18181B"/>
<path d="M168.165 156.122C168.165 155.637 167.772 155.245 167.286 155.245C166.801 155.245 166.408 155.637 166.408 156.122C166.408 156.607 166.801 157 167.286 157C167.795 156.977 168.165 156.584 168.165 156.122Z" fill="#18181B"/>
<path d="M156.468 147.115C156.953 147.115 157.346 146.722 157.346 146.237C157.346 145.753 156.953 145.36 156.468 145.36C155.983 145.36 155.589 145.753 155.589 146.237C155.589 146.722 155.983 147.115 156.468 147.115Z" fill="#18181B"/>
<path d="M147.799 133.904C148.284 133.904 148.677 133.512 148.677 133.027C148.677 132.542 148.284 132.149 147.799 132.149C147.314 132.149 146.921 132.542 146.921 133.027C146.944 133.512 147.337 133.904 147.799 133.904Z" fill="#18181B"/>
<path d="M132.657 124.019C133.143 124.019 133.536 123.627 133.536 123.142C133.536 122.657 133.143 122.264 132.657 122.264C132.172 122.264 131.779 122.657 131.779 123.142C131.779 123.627 132.172 124.019 132.657 124.019Z" fill="#18181B"/>
<path d="M133.952 126.445C133.952 126.93 134.345 127.322 134.83 127.322C135.316 127.322 135.709 126.93 135.709 126.445C135.709 125.96 135.316 125.567 134.83 125.567C134.345 125.567 133.952 125.96 133.952 126.445Z" fill="#18181B"/>
<path d="M136.98 130.602C137.466 130.602 137.859 130.209 137.859 129.724C137.859 129.239 137.466 128.846 136.98 128.846C136.495 128.846 136.102 129.239 136.102 129.724C136.102 130.209 136.495 130.602 136.98 130.602Z" fill="#18181B"/>
<path d="M138.275 133.027C138.275 133.512 138.668 133.904 139.153 133.904C139.639 133.904 140.032 133.512 140.032 133.027C140.032 132.542 139.639 132.149 139.153 132.149C138.668 132.172 138.275 132.565 138.275 133.027Z" fill="#18181B"/>
<path d="M142.182 136.329C142.182 135.844 141.789 135.452 141.303 135.452C140.818 135.452 140.425 135.844 140.425 136.329C140.425 136.814 140.818 137.207 141.303 137.207C141.789 137.207 142.182 136.814 142.182 136.329Z" fill="#18181B"/>
<path d="M142.621 139.632C142.621 140.117 143.014 140.51 143.499 140.51C143.985 140.51 144.378 140.117 144.378 139.632C144.378 139.147 143.985 138.754 143.499 138.754C143.014 138.754 142.621 139.147 142.621 139.632Z" fill="#18181B"/>
<path d="M146.504 142.935C146.504 142.45 146.111 142.057 145.626 142.057C145.141 142.057 144.748 142.45 144.748 142.935C144.748 143.42 145.141 143.812 145.626 143.812C146.111 143.812 146.504 143.397 146.504 142.935Z" fill="#18181B"/>
<path d="M152.145 133.904C152.63 133.904 153.023 133.512 153.023 133.027C153.023 132.542 152.63 132.149 152.145 132.149C151.659 132.149 151.266 132.542 151.266 133.027C151.266 133.512 151.659 133.904 152.145 133.904Z" fill="#18181B"/>
<path d="M149.117 136.329C149.117 136.814 149.51 137.207 149.995 137.207C150.48 137.207 150.873 136.814 150.873 136.329C150.873 135.844 150.48 135.452 149.995 135.452C149.51 135.452 149.117 135.844 149.117 136.329Z" fill="#18181B"/>
<path d="M153.439 136.329C153.439 136.814 153.832 137.207 154.318 137.207C154.803 137.207 155.196 136.814 155.196 136.329C155.196 135.844 154.803 135.452 154.318 135.452C153.832 135.452 153.439 135.844 153.439 136.329Z" fill="#18181B"/>
<path d="M158.641 137.207C159.126 137.207 159.519 136.814 159.519 136.329C159.519 135.845 159.126 135.452 158.641 135.452C158.156 135.452 157.762 135.845 157.762 136.329C157.762 136.814 158.156 137.207 158.641 137.207Z" fill="#18181B"/>
<path d="M210.63 137.207C211.116 137.207 211.509 136.814 211.509 136.329C211.509 135.844 211.116 135.452 210.63 135.452C210.145 135.452 209.752 135.844 209.752 136.329C209.752 136.814 210.168 137.207 210.63 137.207Z" fill="#18181B"/>
<path d="M153 139.632C153 139.147 152.607 138.754 152.122 138.754C151.636 138.754 151.243 139.147 151.243 139.632C151.243 140.117 151.636 140.51 152.122 140.51C152.607 140.51 153 140.117 153 139.632Z" fill="#18181B"/>
<path d="M156.468 140.51C156.953 140.51 157.346 140.117 157.346 139.632C157.346 139.147 156.953 138.754 156.468 138.754C155.982 138.754 155.589 139.147 155.589 139.632C155.589 140.117 156.005 140.51 156.468 140.51Z" fill="#18181B"/>
<path d="M160.814 140.51C161.299 140.51 161.692 140.117 161.692 139.632C161.692 139.147 161.299 138.754 160.814 138.754C160.328 138.754 159.935 139.147 159.935 139.632C159.935 140.117 160.328 140.51 160.814 140.51Z" fill="#18181B"/>
<path d="M203.279 139.632C203.279 140.117 203.672 140.51 204.157 140.51C204.643 140.51 205.036 140.117 205.036 139.632C205.036 139.147 204.643 138.754 204.157 138.754C203.672 138.754 203.279 139.147 203.279 139.632Z" fill="#18181B"/>
<path d="M208.48 138.754C207.995 138.754 207.602 139.147 207.602 139.632C207.602 140.117 207.995 140.51 208.48 140.51C208.966 140.51 209.359 140.117 209.359 139.632C209.359 139.147 208.943 138.754 208.48 138.754Z" fill="#18181B"/>
<path d="M158.641 143.812C159.126 143.812 159.519 143.419 159.519 142.935C159.519 142.45 159.126 142.057 158.641 142.057C158.156 142.057 157.762 142.45 157.762 142.935C157.762 143.419 158.156 143.812 158.641 143.812Z" fill="#18181B"/>
<path d="M162.987 143.789C163.472 143.789 163.865 143.397 163.865 142.912C163.865 142.427 163.472 142.034 162.987 142.034C162.501 142.034 162.108 142.427 162.108 142.912C162.108 143.397 162.501 143.789 162.987 143.789Z" fill="#18181B"/>
<path d="M201.985 143.789C202.47 143.789 202.863 143.397 202.863 142.912C202.863 142.427 202.47 142.034 201.985 142.034C201.499 142.034 201.106 142.427 201.106 142.912C201.106 143.397 201.499 143.789 201.985 143.789Z" fill="#18181B"/>
<path d="M207.186 142.935C207.186 142.45 206.793 142.057 206.307 142.057C205.822 142.057 205.429 142.45 205.429 142.935C205.429 143.42 205.822 143.812 206.307 143.812C206.793 143.812 207.186 143.397 207.186 142.935Z" fill="#18181B"/>
<path d="M211.509 142.935C211.509 142.45 211.116 142.057 210.63 142.057C210.145 142.057 209.752 142.45 209.752 142.935C209.752 143.42 210.145 143.812 210.63 143.812C211.116 143.812 211.509 143.397 211.509 142.935Z" fill="#18181B"/>
<path d="M166.015 146.237C166.015 145.752 165.622 145.36 165.136 145.36C164.651 145.36 164.281 145.752 164.281 146.237C164.281 146.722 164.674 147.092 165.136 147.092C165.622 147.092 166.015 146.699 166.015 146.237Z" fill="#18181B"/>
<path d="M168.604 146.237C168.604 146.722 168.997 147.092 169.482 147.092C169.968 147.092 170.338 146.699 170.338 146.237C170.338 145.752 169.945 145.36 169.482 145.36C168.997 145.36 168.604 145.752 168.604 146.237Z" fill="#18181B"/>
<path d="M154.318 143.789C154.803 143.789 155.196 143.397 155.196 142.912C155.196 142.427 154.803 142.034 154.318 142.034C153.832 142.034 153.439 142.427 153.439 142.912C153.439 143.397 153.832 143.789 154.318 143.789Z" fill="#18181B"/>
<path d="M158.641 143.812C159.126 143.812 159.519 143.419 159.519 142.935C159.519 142.45 159.126 142.057 158.641 142.057C158.156 142.057 157.762 142.45 157.762 142.935C157.762 143.419 158.156 143.812 158.641 143.812Z" fill="#18181B"/>
<path d="M159.935 146.237C159.935 146.722 160.328 147.092 160.814 147.092C161.299 147.092 161.669 146.699 161.669 146.237C161.669 145.752 161.276 145.36 160.814 145.36C160.328 145.36 159.935 145.752 159.935 146.237Z" fill="#18181B"/>
<path d="M194.61 146.237C194.61 146.722 195.003 147.092 195.489 147.092C195.974 147.092 196.367 146.699 196.367 146.237C196.367 145.752 195.974 145.36 195.489 145.36C195.003 145.36 194.61 145.752 194.61 146.237Z" fill="#18181B"/>
<path d="M198.933 146.237C198.933 146.722 199.326 147.092 199.812 147.092C200.297 147.092 200.69 146.699 200.69 146.237C200.69 145.752 200.297 145.36 199.812 145.36C199.326 145.36 198.933 145.752 198.933 146.237Z" fill="#18181B"/>
<path d="M204.134 145.36C203.649 145.36 203.256 145.752 203.256 146.237C203.256 146.722 203.649 147.092 204.134 147.092C204.62 147.092 205.013 146.699 205.013 146.237C205.013 145.752 204.62 145.36 204.134 145.36Z" fill="#18181B"/>
<path d="M207.602 146.237C207.602 146.722 207.995 147.092 208.48 147.092C208.966 147.092 209.359 146.699 209.359 146.237C209.359 145.752 208.966 145.36 208.48 145.36C207.995 145.36 207.602 145.752 207.602 146.237Z" fill="#18181B"/>
<path d="M167.309 148.662C166.824 148.662 166.431 149.055 166.431 149.54C166.431 150.025 166.824 150.418 167.309 150.418C167.795 150.418 168.188 150.025 168.188 149.54C168.188 149.055 167.795 148.662 167.309 148.662Z" fill="#18181B"/>
<path d="M163.842 149.517C163.842 149.032 163.449 148.639 162.963 148.639C162.478 148.639 162.108 149.032 162.108 149.517C162.108 150.002 162.501 150.372 162.963 150.372C163.449 150.395 163.842 150.002 163.842 149.517Z" fill="#18181B"/>
<path d="M171.632 148.662C171.147 148.662 170.754 149.055 170.754 149.54C170.754 150.025 171.147 150.418 171.632 150.418C172.118 150.418 172.511 150.025 172.511 149.54C172.511 149.055 172.118 148.662 171.632 148.662Z" fill="#18181B"/>
<path d="M175.978 150.395C176.463 150.395 176.857 150.002 176.857 149.517C176.857 149.032 176.463 148.639 175.978 148.639C175.493 148.639 175.1 149.032 175.1 149.517C175.1 150.002 175.493 150.395 175.978 150.395Z" fill="#18181B"/>
<path d="M180.301 150.395C180.786 150.395 181.179 150.002 181.179 149.517C181.179 149.032 180.786 148.639 180.301 148.639C179.816 148.639 179.423 149.032 179.423 149.517C179.423 150.002 179.839 150.395 180.301 150.395Z" fill="#18181B"/>
<path d="M184.647 150.395C185.132 150.395 185.525 150.002 185.525 149.517C185.525 149.032 185.132 148.639 184.647 148.639C184.162 148.639 183.769 149.032 183.769 149.517C183.769 150.002 184.162 150.395 184.647 150.395Z" fill="#18181B"/>
<path d="M188.97 150.395C189.455 150.395 189.848 150.002 189.848 149.517C189.848 149.032 189.455 148.639 188.97 148.639C188.485 148.639 188.091 149.032 188.091 149.517C188.091 150.002 188.485 150.395 188.97 150.395Z" fill="#18181B"/>
<path d="M193.316 150.395C193.801 150.395 194.194 150.002 194.194 149.517C194.194 149.032 193.801 148.639 193.316 148.639C192.83 148.639 192.437 149.032 192.437 149.517C192.437 150.002 192.83 150.395 193.316 150.395Z" fill="#18181B"/>
<path d="M197.639 150.395C198.124 150.395 198.517 150.002 198.517 149.517C198.517 149.032 198.124 148.639 197.639 148.639C197.153 148.639 196.76 149.032 196.76 149.517C196.783 150.002 197.153 150.395 197.639 150.395Z" fill="#18181B"/>
<path d="M201.985 150.395C202.47 150.395 202.863 150.002 202.863 149.517C202.863 149.032 202.47 148.639 201.985 148.639C201.499 148.639 201.106 149.032 201.106 149.517C201.106 150.002 201.499 150.395 201.985 150.395Z" fill="#18181B"/>
<path d="M206.307 150.395C206.793 150.395 207.186 150.002 207.186 149.517C207.186 149.032 206.793 148.639 206.307 148.639C205.822 148.639 205.429 149.032 205.429 149.517C205.429 150.002 205.822 150.395 206.307 150.395Z" fill="#18181B"/>
<path d="M174.684 152.82C174.684 152.335 174.291 151.942 173.805 151.942C173.32 151.942 172.95 152.335 172.95 152.82C172.95 153.305 173.343 153.697 173.805 153.697C174.291 153.697 174.684 153.305 174.684 152.82Z" fill="#18181B"/>
<path d="M169.482 151.942C168.997 151.942 168.604 152.335 168.604 152.82C168.604 153.305 168.997 153.697 169.482 153.697C169.968 153.697 170.361 153.305 170.361 152.82C170.361 152.335 169.945 151.942 169.482 151.942Z" fill="#18181B"/>
<path d="M172.511 156.122C172.511 155.637 172.118 155.245 171.632 155.245C171.147 155.245 170.777 155.637 170.777 156.122C170.777 156.607 171.17 157 171.632 157C172.118 156.977 172.511 156.584 172.511 156.122Z" fill="#18181B"/>
<path d="M178.151 151.942C177.666 151.942 177.273 152.335 177.273 152.82C177.273 153.305 177.666 153.697 178.151 153.697C178.637 153.697 179.007 153.305 179.007 152.82C179.007 152.335 178.614 151.942 178.151 151.942Z" fill="#18181B"/>
<path d="M182.474 153.697C182.96 153.697 183.353 153.305 183.353 152.82C183.353 152.335 182.96 151.942 182.474 151.942C181.989 151.942 181.619 152.335 181.619 152.82C181.619 153.305 181.989 153.697 182.474 153.697Z" fill="#18181B"/>
<path d="M186.797 151.942C186.311 151.942 185.918 152.335 185.918 152.82C185.918 153.305 186.311 153.697 186.797 153.697C187.282 153.697 187.652 153.305 187.652 152.82C187.652 152.335 187.282 151.942 186.797 151.942Z" fill="#18181B"/>
<path d="M191.143 151.942C190.657 151.942 190.264 152.335 190.264 152.82C190.264 153.305 190.657 153.697 191.143 153.697C191.628 153.697 192.021 153.305 192.021 152.82C192.021 152.335 191.628 151.942 191.143 151.942Z" fill="#18181B"/>
<path d="M195.466 151.942C194.98 151.942 194.587 152.335 194.587 152.82C194.587 153.305 194.98 153.697 195.466 153.697C195.951 153.697 196.344 153.305 196.344 152.82C196.344 152.335 195.951 151.942 195.466 151.942Z" fill="#18181B"/>
<path d="M198.933 152.82C198.933 153.305 199.326 153.697 199.812 153.697C200.297 153.697 200.69 153.305 200.69 152.82C200.69 152.335 200.297 151.942 199.812 151.942C199.326 151.942 198.933 152.335 198.933 152.82Z" fill="#18181B"/>
<path d="M203.279 152.82C203.279 153.305 203.672 153.697 204.157 153.697C204.643 153.697 205.036 153.305 205.036 152.82C205.036 152.335 204.643 151.942 204.157 151.942C203.672 151.942 203.279 152.335 203.279 152.82Z" fill="#18181B"/>
<path d="M180.301 155.245C179.816 155.245 179.423 155.637 179.423 156.122C179.423 156.607 179.816 157 180.301 157C180.786 157 181.179 156.607 181.179 156.122C181.179 155.637 180.786 155.245 180.301 155.245Z" fill="#18181B"/>
<path d="M175.978 155.245C175.493 155.245 175.1 155.637 175.1 156.122C175.1 156.607 175.493 157 175.978 157C176.464 157 176.834 156.607 176.834 156.122C176.857 155.637 176.464 155.245 175.978 155.245Z" fill="#18181B"/>
<path d="M184.647 155.245C184.162 155.245 183.769 155.637 183.769 156.122C183.769 156.607 184.162 157 184.647 157C185.132 157 185.525 156.607 185.525 156.122C185.525 155.637 185.132 155.245 184.647 155.245Z" fill="#18181B"/>
<path d="M188.97 157C189.455 157 189.848 156.607 189.848 156.122C189.848 155.638 189.455 155.245 188.97 155.245C188.485 155.245 188.091 155.638 188.091 156.122C188.091 156.607 188.485 157 188.97 157Z" fill="#18181B"/>
<path d="M194.171 156.122C194.171 155.637 193.778 155.245 193.293 155.245C192.807 155.245 192.414 155.637 192.414 156.122C192.414 156.607 192.807 157 193.293 157C193.778 157 194.171 156.584 194.171 156.122Z" fill="#18181B"/>
<path d="M198.517 156.122C198.517 155.637 198.124 155.245 197.639 155.245C197.153 155.245 196.76 155.637 196.76 156.122C196.76 156.607 197.153 157 197.639 157C198.124 157 198.517 156.584 198.517 156.122Z" fill="#18181B"/>
<path d="M259.985 89.6072C260.932 89.6072 261.695 90.3693 261.695 91.3162C261.695 92.2632 260.932 93.0253 259.985 93.0253C259.037 93.0253 258.274 92.2632 258.274 91.3162C258.274 90.3693 259.037 89.6072 259.985 89.6072Z" fill="#18181B"/>
<path d="M247.016 91.3162C247.016 90.3693 247.779 89.6072 248.727 89.6072C249.675 89.6072 250.437 90.3693 250.437 91.3162C250.437 92.2632 249.675 93.0253 248.727 93.0253C247.779 93.0253 247.016 92.2632 247.016 91.3162Z" fill="#18181B"/>
<path d="M237.469 89.6072C238.417 89.6072 239.179 90.3693 239.179 91.3162C239.179 92.2632 238.417 93.0253 237.469 93.0253C236.521 93.0253 235.758 92.2632 235.758 91.3162C235.758 90.3693 236.544 89.6072 237.469 89.6072Z" fill="#18181B"/>
<path d="M224.5 91.3162C224.5 90.3693 225.263 89.6072 226.211 89.6072C227.159 89.6072 227.922 90.3693 227.922 91.3162C227.922 92.2632 227.159 93.0253 226.211 93.0253C225.286 93.0253 224.5 92.2632 224.5 91.3162Z" fill="#18181B"/>
<path d="M216.687 91.3162C216.687 92.2632 215.924 93.0253 214.976 93.0253C214.028 93.0253 213.266 92.2632 213.266 91.3162C213.266 90.3693 214.028 89.6072 214.976 89.6072C215.924 89.6072 216.687 90.3693 216.687 91.3162Z" fill="white"/>
<path d="M259.985 100.855C260.932 100.855 261.695 101.617 261.695 102.564C261.695 103.511 260.932 104.273 259.985 104.273C259.037 104.273 258.274 103.511 258.274 102.564C258.274 101.617 259.037 100.855 259.985 100.855Z" fill="#18181B"/>
<path d="M259.985 112.102C260.932 112.102 261.695 112.864 261.695 113.811C261.695 114.758 260.932 115.52 259.985 115.52C259.037 115.52 258.274 114.758 258.274 113.811C258.274 112.864 259.037 112.102 259.985 112.102Z" fill="#18181B"/>
<path d="M259.985 123.35C260.932 123.35 261.695 124.112 261.695 125.059C261.695 126.006 260.932 126.768 259.985 126.768C259.037 126.768 258.274 126.006 258.274 125.059C258.274 124.112 259.037 123.35 259.985 123.35Z" fill="#18181B"/>
<path d="M259.985 134.597C260.932 134.597 261.695 135.36 261.695 136.306C261.695 137.253 260.932 138.016 259.985 138.016C259.037 138.016 258.274 137.253 258.274 136.306C258.274 135.36 259.037 134.597 259.985 134.597Z" fill="#18181B"/>
<path d="M247.016 102.564C247.016 101.617 247.779 100.855 248.727 100.855C249.675 100.855 250.437 101.617 250.437 102.564C250.437 103.511 249.675 104.273 248.727 104.273C247.779 104.273 247.016 103.511 247.016 102.564Z" fill="#18181B"/>
<path d="M247.016 113.811C247.016 112.864 247.779 112.102 248.727 112.102C249.675 112.102 250.437 112.864 250.437 113.811C250.437 114.758 249.675 115.52 248.727 115.52C247.779 115.52 247.016 114.758 247.016 113.811Z" fill="#18181B"/>
<path d="M247.016 125.059C247.016 124.112 247.779 123.35 248.727 123.35C249.675 123.35 250.437 124.112 250.437 125.059C250.437 126.006 249.675 126.768 248.727 126.768C247.779 126.768 247.016 126.006 247.016 125.059Z" fill="#18181B"/>
<path d="M247.016 136.306C247.016 135.36 247.779 134.597 248.727 134.597C249.675 134.597 250.437 135.36 250.437 136.306C250.437 137.253 249.675 138.016 248.727 138.016C247.779 138.016 247.016 137.253 247.016 136.306Z" fill="#18181B"/>
<path d="M237.469 100.855C238.417 100.855 239.179 101.617 239.179 102.564C239.179 103.511 238.417 104.273 237.469 104.273C236.521 104.273 235.758 103.511 235.758 102.564C235.758 101.617 236.544 100.855 237.469 100.855Z" fill="#18181B"/>
<path d="M237.469 112.102C238.417 112.102 239.179 112.864 239.179 113.811C239.179 114.758 238.417 115.52 237.469 115.52C236.521 115.52 235.758 114.758 235.758 113.811C235.758 112.864 236.544 112.102 237.469 112.102Z" fill="#18181B"/>
<path d="M237.469 123.35C238.417 123.35 239.179 124.112 239.179 125.059C239.179 126.006 238.417 126.768 237.469 126.768C236.521 126.768 235.758 126.006 235.758 125.059C235.758 124.112 236.544 123.35 237.469 123.35Z" fill="#18181B"/>
<path d="M237.469 138.016C238.414 138.016 239.179 137.25 239.179 136.306C239.179 135.363 238.414 134.597 237.469 134.597C236.524 134.597 235.758 135.363 235.758 136.306C235.758 137.25 236.524 138.016 237.469 138.016Z" fill="#18181B"/>
<path d="M224.5 102.564C224.5 101.617 225.263 100.855 226.211 100.855C227.159 100.855 227.922 101.617 227.922 102.564C227.922 103.511 227.159 104.273 226.211 104.273C225.286 104.273 224.5 103.511 224.5 102.564Z" fill="#18181B"/>
<path d="M224.5 113.811C224.5 112.864 225.263 112.102 226.211 112.102C227.159 112.102 227.922 112.864 227.922 113.811C227.922 114.758 227.159 115.52 226.211 115.52C225.286 115.52 224.5 114.758 224.5 113.811Z" fill="#18181B"/>
<path d="M224.5 125.059C224.5 124.112 225.263 123.35 226.211 123.35C227.159 123.35 227.922 124.112 227.922 125.059C227.922 126.006 227.159 126.768 226.211 126.768C225.286 126.768 224.5 126.006 224.5 125.059Z" fill="#18181B"/>
<path d="M224.5 136.306C224.5 135.36 225.263 134.597 226.211 134.597C227.159 134.597 227.922 135.36 227.922 136.306C227.922 137.253 227.159 138.016 226.211 138.016C225.286 138.016 224.5 137.253 224.5 136.306Z" fill="#18181B"/>
<path d="M214.976 100.855C215.924 100.855 216.687 101.617 216.687 102.564C216.687 103.511 215.924 104.273 214.976 104.273C214.028 104.273 213.266 103.511 213.266 102.564C213.266 101.617 214.028 100.855 214.976 100.855Z" fill="white"/>
<path d="M214.976 112.102C215.924 112.102 216.687 112.864 216.687 113.811C216.687 114.758 215.924 115.52 214.976 115.52C214.028 115.52 213.266 114.758 213.266 113.811C213.266 112.864 214.028 112.102 214.976 112.102Z" fill="white"/>
<path d="M214.976 123.35C215.924 123.35 216.687 124.112 216.687 125.059C216.687 126.006 215.924 126.768 214.976 126.768C214.028 126.768 213.266 126.006 213.266 125.059C213.266 124.112 214.028 123.35 214.976 123.35Z" fill="white"/>
<path d="M214.976 138.016C215.921 138.016 216.687 137.25 216.687 136.306C216.687 135.363 215.921 134.597 214.976 134.597C214.031 134.597 213.266 135.363 213.266 136.306C213.266 137.25 214.031 138.016 214.976 138.016Z" fill="#18181B"/>
<path d="M206.192 90.8083L168.28 59.0519L130.415 47.2039C130.461 78.1057 127.271 109.423 168.396 144.667C179.423 147.9 187.259 147.762 192.807 145.198C207.972 138.247 206.215 113.419 206.192 90.8083ZM188.438 133.327C186.173 135.036 181.156 135.036 174.476 133.35C146.782 108.753 143.268 87.4825 142.921 64.2022L162.154 70.207L193.686 96.6283C193.686 96.8131 193.686 96.9979 193.686 97.1826C193.801 110.717 193.963 129.17 188.438 133.327Z" fill="white"/>
<path d="M183.098 135.96C180.162 135.96 176.903 135.359 174.152 134.667C173.944 134.62 173.759 134.505 173.597 134.366C144.632 108.615 141.927 86.5123 141.604 64.2482C141.604 63.5092 142.182 62.9087 142.921 62.9087H142.944C143.661 62.9087 144.262 63.4861 144.285 64.2251C144.609 85.7964 147.198 107.229 175.146 132.172C181.156 133.627 185.826 133.673 187.675 132.288C192.669 128.546 192.507 109.723 192.414 97.2749V96.6975C192.414 95.9584 192.992 95.3579 193.732 95.3579C194.518 95.4272 195.073 95.9353 195.073 96.6744V97.2287C195.188 111.779 195.35 129.863 189.293 134.436C187.745 135.544 185.525 135.96 183.098 135.96Z" fill="#18181B"/>
<path d="M261.672 65.149L251.917 57.1811C251.478 56.8346 250.876 56.7653 250.391 57.0656L244.566 60.5761C241.26 62.5623 239.572 66.4193 240.382 69.976L234.51 73.6251L216.687 63.3476C216.687 63.3476 216.664 63.3245 216.641 63.3245C216.271 63.1166 215.832 63.1166 215.462 63.2783C215.415 63.3014 215.346 63.3245 215.3 63.3476L207.371 68.2669C189.848 53.6012 185.086 49.675 183.537 48.7512L183.607 48.4971L145.742 36.6722C145.372 36.5567 144.979 36.6029 144.632 36.8108L131.502 44.9635C130.461 40.2289 126.231 36.6722 121.192 36.6722C115.389 36.6722 110.65 41.4068 110.65 47.2038V54.8484H109.055C107.738 54.8484 106.512 55.3565 105.611 56.1649H105.472C105.357 56.1649 105.241 56.2572 105.241 56.3958V56.5344C104.409 57.4351 103.9 58.6592 103.9 59.9756V81.8702C103.9 83.1866 104.409 84.4107 105.241 85.3114V85.4269C105.241 85.5424 105.357 85.6579 105.472 85.6579H105.588C106.489 86.4893 107.715 86.9974 109.032 86.9974H119.851V95.843H117.377C116.638 95.843 116.037 96.4435 116.037 97.1825C116.037 97.9216 116.638 98.5221 117.377 98.5221H119.851V102.056H113.586C112.846 102.056 112.245 102.656 112.245 103.395C112.245 104.134 112.846 104.735 113.586 104.735H121.192C121.538 104.735 121.885 104.596 122.139 104.342C122.394 104.088 122.532 103.765 122.532 103.395V87.0205H130.993C132.403 94.8037 134.807 102.702 138.876 110.786L126.763 118.292C126.763 118.292 126.74 118.292 126.74 118.315L110.489 128.385L104.802 123.742C104.363 123.396 103.762 123.327 103.276 123.627L95.2546 128.431C90.6082 131.225 88.4583 136.791 90.1227 141.665C90.2152 141.942 90.3076 142.15 90.4001 142.311C90.77 142.958 91.5328 143.327 93.3359 143.766C95.0697 144.182 96.8497 144.413 98.6528 144.413C102.906 144.413 107.206 143.235 110.974 140.972L117.955 136.791C118.325 136.56 118.556 136.168 118.603 135.752C118.626 135.313 118.464 134.898 118.117 134.62L112.685 130.186L121.885 124.481C121.908 124.481 121.908 124.458 121.931 124.458L140.124 113.165C145.834 123.696 154.48 134.528 167.541 145.729C167.679 145.845 167.841 145.937 168.026 146.007C173.713 147.669 178.706 148.524 183.075 148.524C187.005 148.524 190.426 147.854 193.385 146.492C194.171 146.122 194.911 145.729 195.604 145.291L210.422 136.099C210.861 135.821 211.301 135.521 211.74 135.198C222.836 126.837 222.674 107.044 222.512 87.9212C222.489 85.8195 222.466 83.6947 222.466 81.6161C222.466 81.2235 222.304 80.854 222.004 80.5999C217.311 76.6506 213.173 73.1863 209.544 70.1608L216.063 66.119L233.886 76.3966C233.909 76.4197 233.955 76.4197 233.978 76.4427C234.001 76.4427 234.024 76.4658 234.048 76.4658C234.071 76.4658 234.071 76.4658 234.094 76.4889C234.232 76.5351 234.394 76.5582 234.533 76.5582C234.579 76.5582 234.602 76.5582 234.649 76.5582C234.672 76.5582 234.695 76.5582 234.718 76.5582C234.764 76.5582 234.833 76.5351 234.88 76.5351C234.88 76.5351 234.88 76.5351 234.903 76.5351C234.949 76.5351 234.995 76.512 235.042 76.4889H235.065C235.111 76.4658 235.157 76.4427 235.203 76.4197H235.226C235.25 76.4197 235.25 76.3966 235.273 76.3966L242 72.2163C242.254 72.3086 242.531 72.401 242.855 72.4934C244.265 72.8629 245.721 73.0708 247.201 73.0708C250.414 73.0708 253.65 72.1701 256.517 70.461L261.556 67.4355C261.926 67.2045 262.157 66.835 262.204 66.3962C262.181 65.8419 261.996 65.4262 261.672 65.149ZM159.38 43.7164L180.047 50.1831L168.095 57.5968L147.429 51.13L159.38 43.7164ZM113.309 47.2038C113.309 42.8618 116.846 39.3282 121.192 39.3282C125.538 39.3282 129.074 42.8618 129.074 47.2038V53.4858H129.051C129.051 53.9477 129.051 54.3865 129.051 54.8484H113.309V47.2038ZM192.252 144.02C186.751 146.561 178.937 146.376 169.043 143.489C156.352 132.565 147.961 121.987 142.413 111.71L161.091 100.116L158.201 108.569C157.993 109.169 158.248 109.839 158.803 110.139L176.51 120.37C176.718 120.486 176.949 120.555 177.18 120.555C177.458 120.555 177.735 120.463 177.989 120.301C178.406 119.978 178.614 119.447 178.475 118.915L174.707 103.557C177.065 102.772 178.521 100.508 178.521 97.4366C178.521 92.0553 174.337 85.4038 168.997 82.3321C165.992 80.5999 163.079 80.2997 160.976 81.5238C159.149 82.5631 158.155 84.5955 158.155 87.2053C158.155 90.1384 159.427 93.5796 161.646 96.6514L141.188 109.331C137.396 101.755 135.108 94.3187 133.744 86.9743C134.923 86.8819 135.986 86.3969 136.819 85.6579H136.934C137.05 85.6579 137.165 85.5424 137.165 85.4269V85.3114C137.997 84.4107 138.506 83.1866 138.506 81.8702V59.9756C138.506 58.6592 137.997 57.4351 137.165 56.5344V56.3958C137.165 56.2572 137.05 56.1649 136.934 56.1649H136.795C135.894 55.3334 134.669 54.8484 133.351 54.8484H131.733V49.0283L167.633 60.2528L204.851 91.4318C204.851 93.3256 204.874 95.2194 204.897 97.1364C205.059 117.253 205.244 138.039 192.252 144.02ZM171.794 102.91L175.123 116.514L162.062 108.961L171.794 102.91ZM206.307 89.1684L170.546 59.2135L183.098 51.4303C187.698 55.2872 212.618 76.1656 218.837 81.3852L206.307 89.1684ZM255.107 68.0591C251.524 70.207 247.317 70.8536 243.502 69.8143C243.294 69.7681 243.156 69.7219 243.04 69.6758C242.3 67.1352 243.502 64.2945 245.93 62.8395L250.969 59.814L258.528 66.0036L255.107 68.0591Z" fill="#18181B"/>
<path d="M268.468 42.5153L257.187 33.3001C256.748 32.9537 256.147 32.9075 255.662 33.1847L248.888 37.2726C244.889 39.6745 243.017 44.5015 244.45 48.728C244.542 48.982 244.612 49.1668 244.704 49.3054C245.051 49.9289 245.768 50.2292 246.9 50.5294C248.519 50.9682 250.183 51.1761 251.87 51.1761C255.523 51.1761 259.245 50.1599 262.527 48.1737L268.353 44.6862C268.723 44.4553 268.954 44.0858 269 43.6469C269 43.2081 268.815 42.7924 268.468 42.5153ZM261.117 45.8872C256.933 48.4046 251.986 49.1437 247.548 47.9427C247.201 47.8503 246.993 47.7811 246.9 47.758C245.929 44.7324 247.316 41.2912 250.229 39.5359L256.216 35.933L265.301 43.3698L261.117 45.8872Z" fill="#18181B"/>
<path d="M94.2374 117.484C97.5894 117.484 100.964 116.56 103.923 114.781L109.31 111.548C109.679 111.317 109.911 110.947 109.957 110.509C109.98 110.07 109.818 109.654 109.471 109.377L99.1844 100.97C98.7452 100.624 98.1442 100.554 97.6587 100.855L91.4634 104.573C87.7647 106.79 86.031 111.248 87.3486 115.151C87.3718 115.243 87.5336 115.636 87.5798 115.705C87.9266 116.283 88.5507 116.606 90.0302 116.975C91.4172 117.322 92.8273 117.484 94.2374 117.484ZM92.8273 106.86L98.2135 103.626L106.304 110.232L102.536 112.495C98.907 114.666 94.5842 115.359 90.6543 114.389C90.2382 114.273 89.9608 114.204 89.799 114.135C89.013 111.456 90.2613 108.43 92.8273 106.86Z" fill="#18181B"/>
<path d="M85.6149 124.435L77.8246 118.084C77.3853 117.738 76.7843 117.668 76.2989 117.968L71.6062 120.786C68.6703 122.541 67.3064 126.075 68.3698 129.193C68.3929 129.285 68.5316 129.586 68.5779 129.678C68.9246 130.255 69.595 130.509 70.6353 130.787C71.6986 131.041 72.7851 131.179 73.8716 131.179C76.4607 131.179 79.0729 130.463 81.3845 129.077L85.4762 126.629C85.8461 126.398 86.0772 126.029 86.1235 125.59C86.1235 125.128 85.9616 124.712 85.6149 124.435Z" fill="#18181B"/>
<path d="M224.616 60.4144C224.939 60.9456 225.517 61.1997 226.303 61.4075C227.367 61.6847 228.476 61.8463 229.586 61.8463C232.013 61.8463 234.464 61.1766 236.636 59.8601L240.335 57.6429C240.705 57.412 240.936 57.0425 240.982 56.6036C241.029 56.1648 240.821 55.7491 240.497 55.472L233.331 49.6057C232.892 49.2593 232.291 49.19 231.805 49.4902L227.482 52.0769C224.731 53.7167 223.46 57.0425 224.454 59.9525C224.454 60.0449 224.57 60.3451 224.616 60.4144Z" fill="#18181B"/>
<path d="M131.756 70.9923C131.756 68.1746 130.646 65.5417 128.658 63.5555C126.67 61.5693 124.012 60.4607 121.192 60.4607C115.389 60.4607 110.65 65.1953 110.65 70.9923C110.65 76.3504 114.673 80.7848 119.874 81.4314V86.9975H122.532V81.4314C127.711 80.7848 131.756 76.3504 131.756 70.9923ZM121.192 78.8678C116.846 78.8678 113.309 75.3342 113.309 70.9923C113.309 66.6503 116.846 63.1167 121.192 63.1167C123.295 63.1167 125.283 63.9481 126.763 65.4262C128.242 66.9274 129.074 68.8906 129.074 70.9923C129.074 75.3342 125.538 78.8678 121.192 78.8678Z" fill="white"/>
<path d="M172.904 89.6533L163.911 95.2193L161.646 96.6282C161.785 96.836 161.9 97.067 162.062 97.2518L161.091 100.093L164.651 97.8753L174.291 91.8936C173.898 91.1314 173.435 90.3924 172.904 89.6533Z" fill="white"/>
</g>
<defs>
<clipPath id="clip0_1757_24055">
<rect width="201" height="124" fill="white" transform="translate(68 33)"/>
</clipPath>
</defs>
</svg>
