<svg width="336" height="190" viewBox="0 0 336 190" fill="none" xmlns="http://www.w3.org/2000/svg">
<path d="M0 4.00001C0 1.79087 1.79086 0 4 0H332C334.209 0 336 1.79086 336 4V186C336 188.209 334.209 190 332 190H4C1.79087 190 0 188.209 0 186V4.00001Z" fill="#E4E4E7"/>
<g clip-path="url(#clip0_681_15565)">
<path d="M200.678 111.739C200.678 112.18 201.031 112.533 201.47 112.533C201.91 112.533 202.263 112.18 202.263 111.739L201.14 111.091C200.886 111.224 200.683 111.438 200.683 111.745L200.678 111.739Z" fill="#18181B"/>
<path d="M173.878 113.419C173.438 113.419 173.085 113.773 173.085 114.213C173.085 114.653 173.438 115.007 173.878 115.007C174.317 115.007 174.67 114.653 174.67 114.213C174.67 113.773 174.317 113.419 173.878 113.419Z" fill="#18181B"/>
<path d="M199.844 113.419C199.405 113.419 199.052 113.773 199.052 114.213C199.052 114.653 199.405 115.007 199.844 115.007C200.284 115.007 200.637 114.653 200.637 114.213C200.637 113.773 200.284 113.419 199.844 113.419Z" fill="#18181B"/>
<path d="M203.09 113.419C202.651 113.419 202.298 113.773 202.298 114.213C202.298 114.653 202.651 115.007 203.09 115.007C203.53 115.007 203.883 114.653 203.883 114.213C203.883 113.773 203.53 113.419 203.09 113.419Z" fill="#18181B"/>
<path d="M169.006 115.893C168.567 115.893 168.214 116.246 168.214 116.687C168.214 117.127 168.567 117.48 169.006 117.48C169.446 117.48 169.799 117.127 169.799 116.687C169.799 116.246 169.446 115.893 169.006 115.893Z" fill="#18181B"/>
<path d="M172.252 115.893C171.812 115.893 171.459 116.246 171.459 116.687C171.459 117.127 171.812 117.48 172.252 117.48C172.691 117.48 173.044 117.127 173.044 116.687C173.044 116.246 172.691 115.893 172.252 115.893Z" fill="#18181B"/>
<path d="M175.498 115.893C175.058 115.893 174.705 116.246 174.705 116.687C174.705 117.127 175.058 117.48 175.498 117.48C175.937 117.48 176.29 117.127 176.29 116.687C176.29 116.246 175.937 115.893 175.498 115.893Z" fill="#18181B"/>
<path d="M178.743 115.893C178.304 115.893 177.951 116.246 177.951 116.687C177.951 117.127 178.304 117.48 178.743 117.48C179.183 117.48 179.536 117.127 179.536 116.687C179.536 116.246 179.183 115.893 178.743 115.893Z" fill="#18181B"/>
<path d="M194.978 115.893C194.538 115.893 194.185 116.246 194.185 116.687C194.185 117.127 194.538 117.48 194.978 117.48C195.418 117.48 195.771 117.127 195.771 116.687C195.771 116.246 195.418 115.893 194.978 115.893Z" fill="#18181B"/>
<path d="M198.224 115.893C197.785 115.893 197.432 116.246 197.432 116.687C197.432 117.127 197.785 117.48 198.224 117.48C198.664 117.48 199.017 117.127 199.017 116.687C199.017 116.246 198.664 115.893 198.224 115.893Z" fill="#18181B"/>
<path d="M201.47 115.893C201.031 115.893 200.678 116.246 200.678 116.687C200.678 117.127 201.031 117.48 201.47 117.48C201.91 117.48 202.263 117.127 202.263 116.687C202.263 116.246 201.91 115.893 201.47 115.893Z" fill="#18181B"/>
<path d="M204.716 115.893C204.277 115.893 203.924 116.246 203.924 116.687C203.924 117.127 204.277 117.48 204.716 117.48C205.156 117.48 205.509 117.127 205.509 116.687C205.509 116.246 205.156 115.893 204.716 115.893Z" fill="#18181B"/>
<path d="M207.961 115.893C207.522 115.893 207.169 116.246 207.169 116.687C207.169 117.127 207.522 117.48 207.961 117.48C208.401 117.48 208.754 117.127 208.754 116.687C208.754 116.246 208.401 115.893 207.961 115.893Z" fill="#18181B"/>
<path d="M164.134 118.373C163.694 118.373 163.342 118.726 163.342 119.166C163.342 119.607 163.694 119.96 164.134 119.96C164.574 119.96 164.927 119.607 164.927 119.166C164.927 118.726 164.574 118.373 164.134 118.373Z" fill="#18181B"/>
<path d="M167.386 118.373C166.947 118.373 166.594 118.726 166.594 119.166C166.594 119.607 166.947 119.96 167.386 119.96C167.826 119.96 168.179 119.607 168.179 119.166C168.179 118.726 167.826 118.373 167.386 118.373Z" fill="#18181B"/>
<path d="M170.631 118.373C170.192 118.373 169.839 118.726 169.839 119.166C169.839 119.607 170.192 119.96 170.631 119.96C171.071 119.96 171.424 119.607 171.424 119.166C171.424 118.726 171.071 118.373 170.631 118.373Z" fill="#18181B"/>
<path d="M173.878 118.373C173.438 118.373 173.085 118.726 173.085 119.166C173.085 119.607 173.438 119.96 173.878 119.96C174.317 119.96 174.67 119.607 174.67 119.166C174.67 118.726 174.317 118.373 173.878 118.373Z" fill="#18181B"/>
<path d="M172.252 115.893C171.812 115.893 171.459 116.246 171.459 116.687C171.459 117.127 171.812 117.48 172.252 117.48C172.691 117.48 173.044 117.127 173.044 116.687C173.044 116.246 172.691 115.893 172.252 115.893Z" fill="#18181B"/>
<path d="M177.123 118.373C176.684 118.373 176.331 118.726 176.331 119.166C176.331 119.607 176.684 119.96 177.123 119.96C177.563 119.96 177.916 119.607 177.916 119.166C177.916 118.726 177.563 118.373 177.123 118.373Z" fill="#18181B"/>
<path d="M180.37 118.373C179.93 118.373 179.577 118.726 179.577 119.166C179.577 119.607 179.93 119.96 180.37 119.96C180.809 119.96 181.162 119.607 181.162 119.166C181.162 118.726 180.809 118.373 180.37 118.373Z" fill="#18181B"/>
<path d="M183.615 118.373C183.175 118.373 182.822 118.726 182.822 119.166C182.822 119.607 183.175 119.96 183.615 119.96C184.055 119.96 184.407 119.607 184.407 119.166C184.407 118.726 184.055 118.373 183.615 118.373Z" fill="#18181B"/>
<path d="M186.861 118.373C186.421 118.373 186.068 118.726 186.068 119.166C186.068 119.607 186.421 119.96 186.861 119.96C187.301 119.96 187.654 119.607 187.654 119.166C187.654 118.726 187.301 118.373 186.861 118.373Z" fill="#18181B"/>
<path d="M190.107 118.373C189.667 118.373 189.314 118.726 189.314 119.166C189.314 119.607 189.667 119.96 190.107 119.96C190.547 119.96 190.9 119.607 190.9 119.166C190.9 118.726 190.547 118.373 190.107 118.373Z" fill="#18181B"/>
<path d="M193.353 118.373C192.913 118.373 192.56 118.726 192.56 119.166C192.56 119.607 192.913 119.96 193.353 119.96C193.793 119.96 194.146 119.607 194.146 119.166C194.146 118.726 193.793 118.373 193.353 118.373Z" fill="#18181B"/>
<path d="M196.598 118.373C196.158 118.373 195.806 118.726 195.806 119.166C195.806 119.607 196.158 119.96 196.598 119.96C197.038 119.96 197.391 119.607 197.391 119.166C197.391 118.726 197.038 118.373 196.598 118.373Z" fill="#18181B"/>
<path d="M199.844 118.373C199.405 118.373 199.052 118.726 199.052 119.166C199.052 119.607 199.405 119.96 199.844 119.96C200.284 119.96 200.637 119.607 200.637 119.166C200.637 118.726 200.284 118.373 199.844 118.373Z" fill="#18181B"/>
<path d="M203.09 118.373C202.651 118.373 202.298 118.726 202.298 119.166C202.298 119.607 202.651 119.96 203.09 119.96C203.53 119.96 203.883 119.607 203.883 119.166C203.883 118.726 203.53 118.373 203.09 118.373Z" fill="#18181B"/>
<path d="M206.336 118.373C205.897 118.373 205.544 118.726 205.544 119.166C205.544 119.607 205.897 119.96 206.336 119.96C206.776 119.96 207.129 119.607 207.129 119.166C207.129 118.726 206.776 118.373 206.336 118.373Z" fill="#18181B"/>
<path d="M209.582 118.373C209.142 118.373 208.789 118.726 208.789 119.166C208.789 119.607 209.142 119.96 209.582 119.96C210.021 119.96 210.374 119.607 210.374 119.166C210.374 118.726 210.021 118.373 209.582 118.373Z" fill="#18181B"/>
<path d="M212.828 118.373C212.388 118.373 212.035 118.726 212.035 119.166C212.035 119.607 212.388 119.96 212.828 119.96C213.268 119.96 213.62 119.607 213.62 119.166C213.62 118.726 213.268 118.373 212.828 118.373Z" fill="#18181B"/>
<path d="M162.514 120.846C162.074 120.846 161.722 121.2 161.722 121.64C161.722 122.08 162.074 122.434 162.514 122.434C162.954 122.434 163.307 122.08 163.307 121.64C163.307 121.2 162.954 120.846 162.514 120.846Z" fill="#18181B"/>
<path d="M165.76 120.846C165.32 120.846 164.967 121.2 164.967 121.64C164.967 122.08 165.32 122.434 165.76 122.434C166.2 122.434 166.553 122.08 166.553 121.64C166.553 121.2 166.2 120.846 165.76 120.846Z" fill="#18181B"/>
<path d="M169.006 120.846C168.567 120.846 168.214 121.2 168.214 121.64C168.214 122.08 168.567 122.434 169.006 122.434C169.446 122.434 169.799 122.08 169.799 121.64C169.799 121.2 169.446 120.846 169.006 120.846Z" fill="#18181B"/>
<path d="M172.252 120.846C171.812 120.846 171.459 121.2 171.459 121.64C171.459 122.08 171.812 122.434 172.252 122.434C172.691 122.434 173.044 122.08 173.044 121.64C173.044 121.2 172.691 120.846 172.252 120.846Z" fill="#18181B"/>
<path d="M175.498 120.846C175.058 120.846 174.705 121.2 174.705 121.64C174.705 122.08 175.058 122.434 175.498 122.434C175.937 122.434 176.29 122.08 176.29 121.64C176.29 121.2 175.937 120.846 175.498 120.846Z" fill="#18181B"/>
<path d="M178.743 120.846C178.304 120.846 177.951 121.2 177.951 121.64C177.951 122.08 178.304 122.434 178.743 122.434C179.183 122.434 179.536 122.08 179.536 121.64C179.536 121.2 179.183 120.846 178.743 120.846Z" fill="#18181B"/>
<path d="M181.99 120.846C181.55 120.846 181.197 121.2 181.197 121.64C181.197 122.08 181.55 122.434 181.99 122.434C182.43 122.434 182.782 122.08 182.782 121.64C182.782 121.2 182.43 120.846 181.99 120.846Z" fill="#18181B"/>
<path d="M185.235 120.846C184.795 120.846 184.442 121.2 184.442 121.64C184.442 122.08 184.795 122.434 185.235 122.434C185.675 122.434 186.028 122.08 186.028 121.64C186.028 121.2 185.675 120.846 185.235 120.846Z" fill="#18181B"/>
<path d="M188.481 120.846C188.041 120.846 187.688 121.2 187.688 121.64C187.688 122.08 188.041 122.434 188.481 122.434C188.921 122.434 189.274 122.08 189.274 121.64C189.274 121.2 188.921 120.846 188.481 120.846Z" fill="#18181B"/>
<path d="M191.733 120.846C191.293 120.846 190.94 121.2 190.94 121.64C190.94 122.08 191.293 122.434 191.733 122.434C192.173 122.434 192.526 122.08 192.526 121.64C192.526 121.2 192.173 120.846 191.733 120.846Z" fill="#18181B"/>
<path d="M194.978 120.846C194.538 120.846 194.185 121.2 194.185 121.64C194.185 122.08 194.538 122.434 194.978 122.434C195.418 122.434 195.771 122.08 195.771 121.64C195.771 121.2 195.418 120.846 194.978 120.846Z" fill="#18181B"/>
<path d="M198.224 120.846C197.785 120.846 197.432 121.2 197.432 121.64C197.432 122.08 197.785 122.434 198.224 122.434C198.664 122.434 199.017 122.08 199.017 121.64C199.017 121.2 198.664 120.846 198.224 120.846Z" fill="#18181B"/>
<path d="M201.47 120.846C201.031 120.846 200.678 121.2 200.678 121.64C200.678 122.08 201.031 122.434 201.47 122.434C201.91 122.434 202.263 122.08 202.263 121.64C202.263 121.2 201.91 120.846 201.47 120.846Z" fill="#18181B"/>
<path d="M204.716 120.846C204.277 120.846 203.924 121.2 203.924 121.64C203.924 122.08 204.277 122.434 204.716 122.434C205.156 122.434 205.509 122.08 205.509 121.64C205.509 121.2 205.156 120.846 204.716 120.846Z" fill="#18181B"/>
<path d="M207.961 120.846C207.522 120.846 207.169 121.2 207.169 121.64C207.169 122.08 207.522 122.434 207.961 122.434C208.401 122.434 208.754 122.08 208.754 121.64C208.754 121.2 208.401 120.846 207.961 120.846Z" fill="#18181B"/>
<path d="M211.208 120.846C210.768 120.846 210.415 121.2 210.415 121.64C210.415 122.08 210.768 122.434 211.208 122.434C211.648 122.434 212 122.08 212 121.64C212 121.2 211.648 120.846 211.208 120.846Z" fill="#18181B"/>
<path d="M214.454 120.846C214.014 120.846 213.661 121.2 213.661 121.64C213.661 122.08 214.014 122.434 214.454 122.434C214.893 122.434 215.246 122.08 215.246 121.64C215.246 121.2 214.893 120.846 214.454 120.846Z" fill="#18181B"/>
<path d="M164.134 123.32C163.694 123.32 163.342 123.673 163.342 124.113C163.342 124.554 163.694 124.907 164.134 124.907C164.574 124.907 164.927 124.554 164.927 124.113C164.927 123.673 164.574 123.32 164.134 123.32Z" fill="#18181B"/>
<path d="M167.386 123.32C166.947 123.32 166.594 123.673 166.594 124.113C166.594 124.554 166.947 124.907 167.386 124.907C167.826 124.907 168.179 124.554 168.179 124.113C168.179 123.673 167.826 123.32 167.386 123.32Z" fill="#18181B"/>
<path d="M170.631 123.32C170.192 123.32 169.839 123.673 169.839 124.113C169.839 124.554 170.192 124.907 170.631 124.907C171.071 124.907 171.424 124.554 171.424 124.113C171.424 123.673 171.071 123.32 170.631 123.32Z" fill="#18181B"/>
<path d="M173.878 123.32C173.438 123.32 173.085 123.673 173.085 124.113C173.085 124.554 173.438 124.907 173.878 124.907C174.317 124.907 174.67 124.554 174.67 124.113C174.67 123.673 174.317 123.32 173.878 123.32Z" fill="#18181B"/>
<path d="M177.123 123.32C176.684 123.32 176.331 123.673 176.331 124.113C176.331 124.554 176.684 124.907 177.123 124.907C177.563 124.907 177.916 124.554 177.916 124.113C177.916 123.673 177.563 123.32 177.123 123.32Z" fill="#18181B"/>
<path d="M180.37 123.32C179.93 123.32 179.577 123.673 179.577 124.113C179.577 124.554 179.93 124.907 180.37 124.907C180.809 124.907 181.162 124.554 181.162 124.113C181.162 123.673 180.809 123.32 180.37 123.32Z" fill="#18181B"/>
<path d="M183.615 123.32C183.175 123.32 182.822 123.673 182.822 124.113C182.822 124.554 183.175 124.907 183.615 124.907C184.055 124.907 184.407 124.554 184.407 124.113C184.407 123.673 184.055 123.32 183.615 123.32Z" fill="#18181B"/>
<path d="M186.861 123.32C186.421 123.32 186.068 123.673 186.068 124.113C186.068 124.554 186.421 124.907 186.861 124.907C187.301 124.907 187.654 124.554 187.654 124.113C187.654 123.673 187.301 123.32 186.861 123.32Z" fill="#18181B"/>
<path d="M190.107 123.32C189.667 123.32 189.314 123.673 189.314 124.113C189.314 124.554 189.667 124.907 190.107 124.907C190.547 124.907 190.9 124.554 190.9 124.113C190.9 123.673 190.547 123.32 190.107 123.32Z" fill="#18181B"/>
<path d="M193.353 123.32C192.913 123.32 192.56 123.673 192.56 124.113C192.56 124.554 192.913 124.907 193.353 124.907C193.793 124.907 194.146 124.554 194.146 124.113C194.146 123.673 193.793 123.32 193.353 123.32Z" fill="#18181B"/>
<path d="M196.598 123.32C196.158 123.32 195.806 123.673 195.806 124.113C195.806 124.554 196.158 124.907 196.598 124.907C197.038 124.907 197.391 124.554 197.391 124.113C197.391 123.673 197.038 123.32 196.598 123.32Z" fill="#18181B"/>
<path d="M199.844 123.32C199.405 123.32 199.052 123.673 199.052 124.113C199.052 124.554 199.405 124.907 199.844 124.907C200.284 124.907 200.637 124.554 200.637 124.113C200.637 123.673 200.284 123.32 199.844 123.32Z" fill="#18181B"/>
<path d="M203.09 123.32C202.651 123.32 202.298 123.673 202.298 124.113C202.298 124.554 202.651 124.907 203.09 124.907C203.53 124.907 203.883 124.554 203.883 124.113C203.883 123.673 203.53 123.32 203.09 123.32Z" fill="#18181B"/>
<path d="M206.336 123.32C205.897 123.32 205.544 123.673 205.544 124.113C205.544 124.554 205.897 124.907 206.336 124.907C206.776 124.907 207.129 124.554 207.129 124.113C207.129 123.673 206.776 123.32 206.336 123.32Z" fill="#18181B"/>
<path d="M209.582 123.32C209.142 123.32 208.789 123.673 208.789 124.113C208.789 124.554 209.142 124.907 209.582 124.907C210.021 124.907 210.374 124.554 210.374 124.113C210.374 123.673 210.021 123.32 209.582 123.32Z" fill="#18181B"/>
<path d="M212.828 123.32C212.388 123.32 212.035 123.673 212.035 124.113C212.035 124.554 212.388 124.907 212.828 124.907C213.268 124.907 213.62 124.554 213.62 124.113C213.62 123.673 213.268 123.32 212.828 123.32Z" fill="#18181B"/>
<path d="M169.006 125.799C168.567 125.799 168.214 126.153 168.214 126.593C168.214 127.033 168.567 127.387 169.006 127.387C169.446 127.387 169.799 127.033 169.799 126.593C169.799 126.153 169.446 125.799 169.006 125.799Z" fill="#18181B"/>
<path d="M172.252 125.799C171.812 125.799 171.459 126.153 171.459 126.593C171.459 127.033 171.812 127.387 172.252 127.387C172.691 127.387 173.044 127.033 173.044 126.593C173.044 126.153 172.691 125.799 172.252 125.799Z" fill="#18181B"/>
<path d="M175.498 125.799C175.058 125.799 174.705 126.153 174.705 126.593C174.705 127.033 175.058 127.387 175.498 127.387C175.937 127.387 176.29 127.033 176.29 126.593C176.29 126.153 175.937 125.799 175.498 125.799Z" fill="#18181B"/>
<path d="M178.743 125.799C178.304 125.799 177.951 126.153 177.951 126.593C177.951 127.033 178.304 127.387 178.743 127.387C179.183 127.387 179.536 127.033 179.536 126.593C179.536 126.153 179.183 125.799 178.743 125.799Z" fill="#18181B"/>
<path d="M181.99 125.799C181.55 125.799 181.197 126.153 181.197 126.593C181.197 127.033 181.55 127.387 181.99 127.387C182.43 127.387 182.782 127.033 182.782 126.593C182.782 126.153 182.43 125.799 181.99 125.799Z" fill="#18181B"/>
<path d="M185.235 125.799C184.795 125.799 184.442 126.153 184.442 126.593C184.442 127.033 184.795 127.387 185.235 127.387C185.675 127.387 186.028 127.033 186.028 126.593C186.028 126.153 185.675 125.799 185.235 125.799Z" fill="#18181B"/>
<path d="M188.481 125.799C188.041 125.799 187.688 126.153 187.688 126.593C187.688 127.033 188.041 127.387 188.481 127.387C188.921 127.387 189.274 127.033 189.274 126.593C189.274 126.153 188.921 125.799 188.481 125.799Z" fill="#18181B"/>
<path d="M191.733 125.799C191.293 125.799 190.94 126.153 190.94 126.593C190.94 127.033 191.293 127.387 191.733 127.387C192.173 127.387 192.526 127.033 192.526 126.593C192.526 126.153 192.173 125.799 191.733 125.799Z" fill="#18181B"/>
<path d="M194.978 125.799C194.538 125.799 194.185 126.153 194.185 126.593C194.185 127.033 194.538 127.387 194.978 127.387C195.418 127.387 195.771 127.033 195.771 126.593C195.771 126.153 195.418 125.799 194.978 125.799Z" fill="#18181B"/>
<path d="M198.224 125.799C197.785 125.799 197.432 126.153 197.432 126.593C197.432 127.033 197.785 127.387 198.224 127.387C198.664 127.387 199.017 127.033 199.017 126.593C199.017 126.153 198.664 125.799 198.224 125.799Z" fill="#18181B"/>
<path d="M201.47 125.799C201.031 125.799 200.678 126.153 200.678 126.593C200.678 127.033 201.031 127.387 201.47 127.387C201.91 127.387 202.263 127.033 202.263 126.593C202.263 126.153 201.91 125.799 201.47 125.799Z" fill="#18181B"/>
<path d="M204.716 125.799C204.277 125.799 203.924 126.153 203.924 126.593C203.924 127.033 204.277 127.387 204.716 127.387C205.156 127.387 205.509 127.033 205.509 126.593C205.509 126.153 205.156 125.799 204.716 125.799Z" fill="#18181B"/>
<path d="M206.336 128.273C205.897 128.273 205.544 128.626 205.544 129.067C205.544 129.507 205.897 129.86 206.336 129.86C206.776 129.86 207.129 129.507 207.129 129.067C207.129 128.626 206.776 128.273 206.336 128.273Z" fill="#18181B"/>
<path d="M207.961 125.799C207.522 125.799 207.169 126.153 207.169 126.593C207.169 127.033 207.522 127.387 207.961 127.387C208.401 127.387 208.754 127.033 208.754 126.593C208.754 126.153 208.401 125.799 207.961 125.799Z" fill="#18181B"/>
<path d="M173.878 128.273C173.438 128.273 173.085 128.626 173.085 129.067C173.085 129.507 173.438 129.86 173.878 129.86C174.317 129.86 174.67 129.507 174.67 129.067C174.67 128.626 174.317 128.273 173.878 128.273Z" fill="#18181B"/>
<path d="M177.123 129.86C177.561 129.86 177.916 129.505 177.916 129.067C177.916 128.628 177.561 128.273 177.123 128.273C176.686 128.273 176.331 128.628 176.331 129.067C176.331 129.505 176.686 129.86 177.123 129.86Z" fill="#18181B"/>
<path d="M180.37 128.273C179.93 128.273 179.577 128.626 179.577 129.067C179.577 129.507 179.93 129.86 180.37 129.86C180.809 129.86 181.162 129.507 181.162 129.067C181.162 128.626 180.809 128.273 180.37 128.273Z" fill="#18181B"/>
<path d="M183.615 128.273C183.175 128.273 182.822 128.626 182.822 129.067C182.822 129.507 183.175 129.86 183.615 129.86C184.055 129.86 184.407 129.507 184.407 129.067C184.407 128.626 184.055 128.273 183.615 128.273Z" fill="#18181B"/>
<path d="M186.861 128.273C186.421 128.273 186.068 128.626 186.068 129.067C186.068 129.507 186.421 129.86 186.861 129.86C187.301 129.86 187.654 129.507 187.654 129.067C187.654 128.626 187.301 128.273 186.861 128.273Z" fill="#18181B"/>
<path d="M190.107 129.86C190.545 129.86 190.9 129.505 190.9 129.067C190.9 128.628 190.545 128.273 190.107 128.273C189.669 128.273 189.314 128.628 189.314 129.067C189.314 129.505 189.669 129.86 190.107 129.86Z" fill="#18181B"/>
<path d="M193.353 128.273C192.913 128.273 192.56 128.626 192.56 129.067C192.56 129.507 192.913 129.86 193.353 129.86C193.793 129.86 194.146 129.507 194.146 129.067C194.146 128.626 193.793 128.273 193.353 128.273Z" fill="#18181B"/>
<path d="M196.598 128.273C196.158 128.273 195.806 128.626 195.806 129.067C195.806 129.507 196.158 129.86 196.598 129.86C197.038 129.86 197.391 129.507 197.391 129.067C197.391 128.626 197.038 128.273 196.598 128.273Z" fill="#18181B"/>
<path d="M199.844 128.273C199.405 128.273 199.052 128.626 199.052 129.067C199.052 129.507 199.405 129.86 199.844 129.86C200.284 129.86 200.637 129.507 200.637 129.067C200.637 128.626 200.284 128.273 199.844 128.273Z" fill="#18181B"/>
<path d="M201.47 130.747C201.031 130.747 200.678 131.1 200.678 131.54C200.678 131.981 201.031 132.334 201.47 132.334C201.91 132.334 202.263 131.981 202.263 131.54C202.263 131.1 201.91 130.747 201.47 130.747Z" fill="#18181B"/>
<path d="M203.09 128.273C202.651 128.273 202.298 128.626 202.298 129.067C202.298 129.507 202.651 129.86 203.09 129.86C203.53 129.86 203.883 129.507 203.883 129.067C203.883 128.626 203.53 128.273 203.09 128.273Z" fill="#18181B"/>
<path d="M178.743 130.747C178.304 130.747 177.951 131.1 177.951 131.54C177.951 131.981 178.304 132.334 178.743 132.334C179.183 132.334 179.536 131.981 179.536 131.54C179.536 131.1 179.183 130.747 178.743 130.747Z" fill="#18181B"/>
<path d="M181.99 130.747C181.55 130.747 181.197 131.1 181.197 131.54C181.197 131.981 181.55 132.334 181.99 132.334C182.43 132.334 182.782 131.981 182.782 131.54C182.782 131.1 182.43 130.747 181.99 130.747Z" fill="#18181B"/>
<path d="M185.235 130.747C184.795 130.747 184.442 131.1 184.442 131.54C184.442 131.981 184.795 132.334 185.235 132.334C185.675 132.334 186.028 131.981 186.028 131.54C186.028 131.1 185.675 130.747 185.235 130.747Z" fill="#18181B"/>
<path d="M188.481 130.747C188.041 130.747 187.688 131.1 187.688 131.54C187.688 131.981 188.041 132.334 188.481 132.334C188.921 132.334 189.274 131.981 189.274 131.54C189.274 131.1 188.921 130.747 188.481 130.747Z" fill="#18181B"/>
<path d="M191.733 130.747C191.293 130.747 190.94 131.1 190.94 131.54C190.94 131.981 191.293 132.334 191.733 132.334C192.173 132.334 192.526 131.981 192.526 131.54C192.526 131.1 192.173 130.747 191.733 130.747Z" fill="#18181B"/>
<path d="M194.978 130.747C194.538 130.747 194.185 131.1 194.185 131.54C194.185 131.981 194.538 132.334 194.978 132.334C195.418 132.334 195.771 131.981 195.771 131.54C195.771 131.1 195.418 130.747 194.978 130.747Z" fill="#18181B"/>
<path d="M196.598 133.22C196.158 133.22 195.806 133.574 195.806 134.014C195.806 134.454 196.158 134.808 196.598 134.808C197.038 134.808 197.391 134.454 197.391 134.014C197.391 133.574 197.038 133.22 196.598 133.22Z" fill="#18181B"/>
<path d="M198.224 130.747C197.785 130.747 197.432 131.1 197.432 131.54C197.432 131.981 197.785 132.334 198.224 132.334C198.664 132.334 199.017 131.981 199.017 131.54C199.017 131.1 198.664 130.747 198.224 130.747Z" fill="#18181B"/>
<path d="M181.162 134.02C181.162 133.579 180.809 133.226 180.37 133.226C179.93 133.226 179.577 133.579 179.577 134.02C179.577 134.194 179.664 134.333 179.756 134.46L180.364 134.813C180.804 134.813 181.157 134.46 181.157 134.02H181.162Z" fill="#18181B"/>
<path d="M183.615 133.22C183.175 133.22 182.822 133.574 182.822 134.014C182.822 134.454 183.175 134.808 183.615 134.808C184.055 134.808 184.407 134.454 184.407 134.014C184.407 133.574 184.055 133.22 183.615 133.22Z" fill="#18181B"/>
<path d="M186.861 133.22C186.421 133.22 186.068 133.574 186.068 134.014C186.068 134.454 186.421 134.808 186.861 134.808C187.301 134.808 187.654 134.454 187.654 134.014C187.654 133.574 187.301 133.22 186.861 133.22Z" fill="#18181B"/>
<path d="M190.107 133.22C189.667 133.22 189.314 133.574 189.314 134.014C189.314 134.454 189.667 134.808 190.107 134.808C190.547 134.808 190.9 134.454 190.9 134.014C190.9 133.574 190.547 133.22 190.107 133.22Z" fill="#18181B"/>
<path d="M193.353 133.22C192.913 133.22 192.56 133.574 192.56 134.014C192.56 134.454 192.913 134.808 193.353 134.808C193.793 134.808 194.146 134.454 194.146 134.014C194.146 133.574 193.793 133.22 193.353 133.22Z" fill="#18181B"/>
<path d="M185.235 135.7C184.795 135.7 184.442 136.053 184.442 136.494C184.442 136.934 184.795 137.287 185.235 137.287C185.675 137.287 186.028 136.934 186.028 136.494C186.028 136.053 185.675 135.7 185.235 135.7Z" fill="#18181B"/>
<path d="M188.481 135.7C188.041 135.7 187.688 136.053 187.688 136.494C187.688 136.934 188.041 137.287 188.481 137.287C188.921 137.287 189.274 136.934 189.274 136.494C189.274 136.053 188.921 135.7 188.481 135.7Z" fill="#18181B"/>
<path d="M191.733 135.7C191.293 135.7 190.94 136.053 190.94 136.494C190.94 136.934 191.293 137.287 191.733 137.287C192.173 137.287 192.526 136.934 192.526 136.494C192.526 136.053 192.173 135.7 191.733 135.7Z" fill="#18181B"/>
<path d="M137.208 54.8159C138.874 55.4415 140.789 55.7602 142.814 55.7602C144.006 55.7602 145.233 55.6501 146.471 55.4299C153.692 54.1149 158.691 49.4514 157.857 44.8111C157.007 40.1708 150.712 37.5929 143.468 38.8789C140.141 39.4872 137.138 40.8486 135.015 42.7198C132.701 44.7532 131.665 47.1631 132.087 49.5036C132.515 51.844 134.332 53.7326 137.214 54.8217L137.208 54.8159ZM136.78 44.73C138.544 43.1774 141.09 42.0362 143.948 41.5206C145.03 41.3236 146.095 41.231 147.113 41.231C151.337 41.231 154.774 42.8299 155.219 45.2919C155.775 48.3507 151.551 51.7861 145.996 52.7941C143.138 53.3212 140.361 53.1417 138.157 52.3132C136.189 51.5659 134.969 50.4073 134.726 49.0285C134.477 47.6498 135.206 46.132 136.785 44.7358L136.78 44.73Z" fill="#18181B"/>
<path d="M134.263 74.6923C138.457 73.9276 141.483 71.2685 141.026 68.7485C140.569 66.2285 136.803 64.8034 132.608 65.5681C128.419 66.3328 125.387 68.9918 125.844 71.5119C126.301 74.0319 130.068 75.457 134.263 74.6923Z" fill="#18181B"/>
<path d="M119.913 59.4042C122.094 59.0102 123.668 57.6199 123.431 56.3106C123.194 55.0014 121.232 54.2598 119.051 54.6538C116.87 55.0535 115.296 56.4381 115.533 57.7473C115.771 59.0566 117.732 59.7981 119.913 59.4042Z" fill="#18181B"/>
<path d="M131.409 146.307C135.65 143.851 137.756 138.602 137.762 132.068C136.894 134.698 135.39 136.777 133.238 138.023C126.26 142.055 115.093 135.868 107.872 124.143L115.365 119.809C118.461 124.537 123.043 126.981 125.936 125.307C129.02 123.529 129.025 117.759 125.947 112.429C122.869 107.099 117.882 104.22 114.798 105.999C111.986 107.626 111.743 112.568 114.057 117.469L106.53 121.82C100.004 109.695 100.235 96.9207 107.213 92.8828C109.365 91.6373 111.923 91.3708 114.63 91.9386C111.217 89.9631 107.826 88.8914 104.737 88.8914C102.711 88.8914 100.82 89.3548 99.1358 90.3223C90.7174 95.1885 90.6885 111.068 98.8986 126.147L106.519 121.82L107.178 122.984L107.219 123.054C107.219 123.054 107.207 123.036 107.207 123.03L107.844 124.154L100.241 128.47C109.174 143.202 122.979 151.162 131.409 146.296V146.307Z" fill="white"/>
<path d="M173.092 83.3473L178.38 80.2885C179.016 79.912 179.844 80.1379 180.208 80.7809C180.578 81.4182 180.359 82.2408 179.716 82.6116L174.428 85.6704L184.999 91.7821V78.0118L173.086 71.1238V83.3473H173.092Z" fill="white"/>
<path d="M173.091 58.0602L178.385 55.0014C179.021 54.6249 179.849 54.8508 180.213 55.4938C180.583 56.1311 180.363 56.9537 179.721 57.3245L174.433 60.3832L185.004 66.4892V52.7247L173.091 45.8367V58.066V58.0602Z" fill="white"/>
<path d="M173.092 108.64L178.386 105.581C179.022 105.205 179.849 105.431 180.214 106.074C180.584 106.711 180.364 107.534 179.722 107.904L174.428 110.963L184.999 117.075V103.305L173.086 96.4224V108.646L173.092 108.64Z" fill="white"/>
<path d="M241.584 47.1227C242.522 47.4761 243.604 47.6557 244.738 47.6557C245.397 47.6557 246.074 47.5919 246.757 47.4703C250.876 46.723 253.711 43.9596 253.208 41.1905C252.705 38.4214 249.083 36.8341 244.963 37.5814C240.844 38.3287 238.009 41.092 238.512 43.8612C238.599 44.342 238.796 44.7939 239.067 45.211L200.933 67.2539L196.316 64.589L202.27 61.1479V42.7373L186.341 33.532L170.418 42.7373V59.6069L152.639 69.8839V95.4549L142.618 101.248C130.213 80.4275 110.275 69.3799 97.8178 76.5866C91.5633 80.2015 88.115 87.6979 88.1092 97.7026C88.0976 107.041 91.1062 117.562 96.5854 127.479L88.248 132.212L88.3406 132.38C86.4486 131.668 83.9839 131.465 81.3802 131.94C76.1672 132.89 72.4064 136.198 72.9734 139.332C73.5404 142.466 78.227 144.239 83.44 143.289C88.653 142.339 92.4138 139.031 91.8468 135.897C91.708 135.138 91.3261 134.46 90.7533 133.875L97.9162 129.808C97.9451 129.86 97.974 129.912 98.0087 129.965C107.839 146.301 122.298 156.544 134.055 156.544C137.15 156.544 140.06 155.831 142.646 154.336C155.028 147.182 155.52 124.629 143.954 103.583L152.644 98.56V123.581L166.519 115.557L171.767 112.521L186.353 120.956L202.275 111.751V93.3404L196.322 89.8993L202.275 86.4581V69.5943L241.324 47.0184C241.417 47.059 241.498 47.0995 241.596 47.1343L241.584 47.1227ZM90.7764 97.7026C90.788 88.7001 93.7561 82.0264 99.1486 78.9097C101.382 77.6236 103.887 77.0153 106.572 77.0153C117.368 77.0153 130.965 86.9332 140.303 102.592L132.718 106.977C123.032 90.8783 107.532 82.3971 97.8004 88.0165C94.1554 90.1252 91.8179 93.9255 90.7938 98.7106C90.788 98.3746 90.7707 98.0386 90.7707 97.7026H90.7764ZM100.242 128.482L107.845 124.166L107.208 123.042C107.208 123.042 107.22 123.059 107.22 123.065L107.179 122.995L106.52 121.831L98.8998 126.153C90.6897 111.079 90.7128 95.2 99.137 90.3279C100.821 89.3605 102.713 88.897 104.738 88.897C107.822 88.897 111.218 89.9746 114.631 91.9442C111.918 91.3823 109.366 91.643 107.214 92.8885C100.236 96.9205 100.005 109.7 106.531 121.825L114.059 117.475C111.744 112.568 111.987 107.626 114.799 106.004C117.883 104.226 122.87 107.099 125.949 112.435C129.027 117.77 129.015 123.534 125.937 125.313C123.038 126.987 118.456 124.542 115.366 119.815L107.874 124.148C115.1 135.874 126.261 142.061 133.239 138.029C135.391 136.783 136.895 134.703 137.763 132.073C137.763 138.608 135.651 143.857 131.41 146.313C122.98 151.179 109.175 143.219 100.242 128.487V128.482ZM141.298 152.008C135.437 155.391 127.638 154.093 119.868 149.308C121.962 149.997 124.016 150.362 125.972 150.362C128.408 150.362 130.705 149.806 132.741 148.624C142.398 143.046 142.884 125.614 134.043 109.295L141.622 104.909C152.465 124.664 152.407 145.577 141.293 152.008H141.298ZM155.306 71.4365L171.755 61.93L176.366 64.5948L170.413 68.0359V84.8998L155.306 93.6358V71.4423V71.4365ZM170.413 93.3288V110.193L166.507 112.452L155.312 118.929V96.7236L171.755 87.217L176.372 89.8877L170.418 93.3288H170.413ZM184.999 117.075L174.428 110.963L179.722 107.904C180.364 107.534 180.584 106.717 180.214 106.074C179.849 105.436 179.022 105.211 178.386 105.581L173.092 108.64V96.4165L185.005 103.299V117.069L184.999 117.075ZM184.999 91.782L174.428 85.6703L179.716 82.6115C180.359 82.2407 180.578 81.4239 180.208 80.7808C179.844 80.1436 179.016 79.9177 178.38 80.2884L173.092 83.3472V71.1237L185.005 78.0117V91.782H184.999ZM184.999 66.4834L174.428 60.3774L179.716 57.3186C180.359 56.9479 180.578 56.131 180.208 55.488C179.844 54.845 179.016 54.6248 178.38 54.9956L173.086 58.0544V45.8308L184.999 52.7189V66.4834ZM187.672 52.7189L199.579 45.8308V59.6011L187.672 66.4834V52.7189ZM199.579 96.4223V110.193L187.672 117.075V103.305L199.579 96.4223ZM199.579 84.894L187.672 91.7762V78.0059L199.579 71.1179V84.8882V84.894ZM245.438 40.2231C245.976 40.1246 246.496 40.0782 246.982 40.0782C248.944 40.0782 250.408 40.7966 250.57 41.6713C250.766 42.7605 248.973 44.342 246.277 44.8344C244.923 45.0777 243.557 45.0024 242.533 44.6143C241.741 44.313 241.231 43.8669 241.145 43.3861C240.948 42.297 242.741 40.7155 245.438 40.2231Z" fill="#18181B"/>
<path d="M263.929 141.174C263.64 139.581 261.256 138.678 258.6 139.158C255.945 139.639 254.03 141.325 254.319 142.924C254.608 144.523 256.992 145.421 259.648 144.94C262.303 144.459 264.218 142.773 263.929 141.174Z" fill="#18181B"/>
<path d="M255.152 124.565C254.423 120.545 248.411 118.274 241.729 119.491C235.046 120.707 230.215 124.953 230.944 128.974C231.673 132.994 237.684 135.265 244.367 134.049C251.05 132.832 255.881 128.586 255.152 124.571V124.565Z" fill="#18181B"/>
<path d="M228.594 138.921C226.517 138.139 223.948 137.965 221.35 138.434C215.657 139.471 211.723 143.196 212.4 146.915C212.961 149.997 216.473 151.967 220.899 151.967C221.819 151.967 222.78 151.88 223.763 151.701C226.361 151.226 228.704 150.16 230.376 148.694C232.234 147.066 233.061 145.12 232.714 143.219C232.367 141.319 230.909 139.79 228.6 138.921H228.594ZM228.6 146.684C227.31 147.819 225.372 148.682 223.277 149.065C218.845 149.87 215.374 148.329 215.032 146.44C214.691 144.552 217.399 141.881 221.831 141.076C222.623 140.931 223.416 140.862 224.186 140.862C225.453 140.862 226.65 141.053 227.645 141.429C228.455 141.736 229.844 142.437 230.07 143.7C230.301 144.963 229.248 146.11 228.6 146.684Z" fill="#18181B"/>
<path d="M195.361 57.0405C194.406 57.0405 193.637 57.8168 193.637 58.7669C193.637 59.717 194.412 60.4932 195.361 60.4932C196.31 60.4932 197.085 59.717 197.085 58.7669C197.085 57.8168 196.31 57.0405 195.361 57.0405Z" fill="#18181B"/>
<path d="M208.414 58.7727C208.414 57.8169 207.639 57.0464 206.69 57.0464C205.741 57.0464 204.966 57.8227 204.966 58.7727C204.966 59.7228 205.741 60.4991 206.69 60.4991C207.639 60.4991 208.414 59.7228 208.414 58.7727Z" fill="#18181B"/>
<path d="M231.065 58.7727C231.065 57.8169 230.29 57.0464 229.341 57.0464C228.392 57.0464 227.617 57.8227 227.617 58.7727C227.617 59.7228 228.392 60.4991 229.341 60.4991C230.29 60.4991 231.065 59.7228 231.065 58.7727Z" fill="#18181B"/>
<path d="M238.945 58.7727C238.945 59.7228 239.72 60.4991 240.669 60.4991C241.618 60.4991 242.394 59.7228 242.394 58.7727C242.394 57.8227 241.618 57.0464 240.669 57.0464C239.72 57.0464 238.945 57.8227 238.945 58.7727Z" fill="#18181B"/>
<path d="M195.361 68.3894C194.406 68.3894 193.637 69.1657 193.637 70.1158C193.637 71.0658 194.412 71.8421 195.361 71.8421C196.31 71.8421 197.085 71.0658 197.085 70.1158C197.085 69.1657 196.31 68.3894 195.361 68.3894Z" fill="#E4E4E7"/>
<path d="M195.361 79.7266C194.406 79.7266 193.637 80.5028 193.637 81.4529C193.637 82.403 194.412 83.1793 195.361 83.1793C196.31 83.1793 197.085 82.403 197.085 81.4529C197.085 80.5028 196.31 79.7266 195.361 79.7266Z" fill="#18181B"/>
<path d="M195.361 91.0693C194.406 91.0693 193.637 91.8456 193.637 92.7957C193.637 93.7458 194.412 94.522 195.361 94.522C196.31 94.522 197.085 93.7458 197.085 92.7957C197.085 91.8456 196.31 91.0693 195.361 91.0693Z" fill="#E4E4E7"/>
<path d="M195.361 102.412C194.406 102.412 193.637 103.189 193.637 104.139C193.637 105.089 194.412 105.865 195.361 105.865C196.31 105.865 197.085 105.089 197.085 104.139C197.085 103.189 196.31 102.412 195.361 102.412Z" fill="#18181B"/>
<path d="M208.414 70.1099C208.414 69.1598 207.639 68.3835 206.69 68.3835C205.741 68.3835 204.966 69.1598 204.966 70.1099C204.966 71.06 205.741 71.8363 206.69 71.8363C207.639 71.8363 208.414 71.06 208.414 70.1099Z" fill="#18181B"/>
<path d="M208.414 81.4529C208.414 80.4971 207.639 79.7266 206.69 79.7266C205.741 79.7266 204.966 80.5028 204.966 81.4529C204.966 82.403 205.741 83.1793 206.69 83.1793C207.639 83.1793 208.414 82.403 208.414 81.4529Z" fill="#18181B"/>
<path d="M208.414 92.7957C208.414 91.8456 207.639 91.0693 206.69 91.0693C205.741 91.0693 204.966 91.8456 204.966 92.7957C204.966 93.7458 205.741 94.522 206.69 94.522C207.639 94.522 208.414 93.7458 208.414 92.7957Z" fill="#18181B"/>
<path d="M208.414 104.139C208.414 103.189 207.639 102.412 206.69 102.412C205.741 102.412 204.966 103.189 204.966 104.139C204.966 105.089 205.741 105.865 206.69 105.865C207.639 105.865 208.414 105.089 208.414 104.139Z" fill="#18181B"/>
<path d="M218.012 68.3894C217.064 68.3894 216.288 69.1657 216.288 70.1158C216.288 71.0658 217.064 71.8421 218.012 71.8421C218.961 71.8421 219.737 71.0658 219.737 70.1158C219.737 69.1657 218.961 68.3894 218.012 68.3894Z" fill="#18181B"/>
<path d="M218.012 79.7266C217.064 79.7266 216.288 80.5028 216.288 81.4529C216.288 82.403 217.064 83.1793 218.012 83.1793C218.961 83.1793 219.737 82.403 219.737 81.4529C219.737 80.5028 218.961 79.7266 218.012 79.7266Z" fill="#18181B"/>
<path d="M218.012 91.0693C217.064 91.0693 216.288 91.8456 216.288 92.7957C216.288 93.7458 217.064 94.522 218.012 94.522C218.961 94.522 219.737 93.7458 219.737 92.7957C219.737 91.8456 218.961 91.0693 218.012 91.0693Z" fill="#18181B"/>
<path d="M218.012 105.865C218.965 105.865 219.737 105.092 219.737 104.139C219.737 103.185 218.965 102.412 218.012 102.412C217.06 102.412 216.288 103.185 216.288 104.139C216.288 105.092 217.06 105.865 218.012 105.865Z" fill="#18181B"/>
<path d="M231.065 70.1099C231.065 69.1598 230.29 68.3835 229.341 68.3835C228.392 68.3835 227.617 69.1598 227.617 70.1099C227.617 71.06 228.392 71.8363 229.341 71.8363C230.29 71.8363 231.065 71.06 231.065 70.1099Z" fill="#18181B"/>
<path d="M231.065 81.4529C231.065 80.4971 230.29 79.7266 229.341 79.7266C228.392 79.7266 227.617 80.5028 227.617 81.4529C227.617 82.403 228.392 83.1793 229.341 83.1793C230.29 83.1793 231.065 82.403 231.065 81.4529Z" fill="#18181B"/>
<path d="M231.065 92.7957C231.065 91.8456 230.29 91.0693 229.341 91.0693C228.392 91.0693 227.617 91.8456 227.617 92.7957C227.617 93.7458 228.392 94.522 229.341 94.522C230.29 94.522 231.065 93.7458 231.065 92.7957Z" fill="#18181B"/>
<path d="M231.065 104.139C231.065 103.189 230.29 102.412 229.341 102.412C228.392 102.412 227.617 103.189 227.617 104.139C227.617 105.089 228.392 105.865 229.341 105.865C230.29 105.865 231.065 105.089 231.065 104.139Z" fill="#18181B"/>
<path d="M240.669 68.3894C239.72 68.3894 238.945 69.1657 238.945 70.1158C238.945 71.0658 239.72 71.8421 240.669 71.8421C241.618 71.8421 242.394 71.0658 242.394 70.1158C242.394 69.1657 241.618 68.3894 240.669 68.3894Z" fill="#18181B"/>
<path d="M240.669 79.7266C239.72 79.7266 238.945 80.5028 238.945 81.4529C238.945 82.403 239.72 83.1793 240.669 83.1793C241.618 83.1793 242.394 82.403 242.394 81.4529C242.394 80.5028 241.618 79.7266 240.669 79.7266Z" fill="#18181B"/>
<path d="M240.669 91.0693C239.72 91.0693 238.945 91.8456 238.945 92.7957C238.945 93.7458 239.72 94.522 240.669 94.522C241.618 94.522 242.394 93.7458 242.394 92.7957C242.394 91.8456 241.618 91.0693 240.669 91.0693Z" fill="#18181B"/>
<path d="M240.669 105.865C241.622 105.865 242.394 105.092 242.394 104.139C242.394 103.185 241.622 102.412 240.669 102.412C239.717 102.412 238.945 103.185 238.945 104.139C238.945 105.092 239.717 105.865 240.669 105.865Z" fill="#18181B"/>
<path d="M118.461 114.995L114.058 117.475L115.36 119.815L119.769 117.336C120.417 116.971 120.643 116.142 120.272 115.499C119.908 114.862 119.098 114.642 118.456 115.001L118.461 114.995Z" fill="#18181B"/>
</g>
<defs>
<clipPath id="clip0_681_15565">
<rect width="191.043" height="123" fill="white" transform="translate(72.9149 33.532)"/>
</clipPath>
</defs>
</svg>
