<svg width="336" height="190" viewBox="0 0 336 190" fill="none" xmlns="http://www.w3.org/2000/svg">
<rect width="336" height="190" fill="#E4E4E7"/>
<g clip-path="url(#clip0_1757_23714)">
<path d="M145.962 45.2378C145.013 45.2378 144.25 45.9993 144.25 46.9454C144.25 47.8915 145.013 48.653 145.962 48.653C146.911 48.653 147.674 47.8915 147.674 46.9454C147.674 45.9993 146.911 45.2378 145.962 45.2378Z" fill="#18181B"/>
<path d="M158.943 46.9454C158.943 45.9993 158.18 45.2378 157.231 45.2378C156.282 45.2378 155.519 45.9993 155.519 46.9454C155.519 47.8915 156.282 48.653 157.231 48.653C158.18 48.653 158.943 47.8915 158.943 46.9454Z" fill="#18181B"/>
<path d="M181.481 46.9454C181.481 45.9993 180.718 45.2378 179.769 45.2378C178.82 45.2378 178.057 45.9993 178.057 46.9454C178.057 47.8915 178.82 48.653 179.769 48.653C180.718 48.653 181.481 47.8915 181.481 46.9454Z" fill="#18181B"/>
<path d="M189.326 46.9454C189.326 47.8915 190.089 48.653 191.038 48.653C191.987 48.653 192.75 47.8915 192.75 46.9454C192.75 45.9993 191.987 45.2378 191.038 45.2378C190.089 45.2378 189.326 45.9993 189.326 46.9454Z" fill="#18181B"/>
<path d="M145.962 56.4756C145.013 56.4756 144.25 57.2371 144.25 58.1832C144.25 59.1293 145.013 59.8908 145.962 59.8908C146.911 59.8908 147.674 59.1293 147.674 58.1832C147.674 57.2371 146.911 56.4756 145.962 56.4756Z" fill="#18181B"/>
<path d="M145.962 67.7134C145.013 67.7134 144.25 68.4749 144.25 69.421C144.25 70.3671 145.013 71.1285 145.962 71.1285C146.911 71.1285 147.674 70.3671 147.674 69.421C147.674 68.4749 146.911 67.7134 145.962 67.7134Z" fill="#18181B"/>
<path d="M145.962 78.9509C145.013 78.9509 144.25 79.7124 144.25 80.6585C144.25 81.6046 145.013 82.3661 145.962 82.3661C146.911 82.3661 147.674 81.6046 147.674 80.6585C147.674 79.7124 146.911 78.9509 145.962 78.9509Z" fill="#18181B"/>
<path d="M158.943 58.1832C158.943 57.2371 158.18 56.4756 157.231 56.4756C156.282 56.4756 155.519 57.2371 155.519 58.1832C155.519 59.1293 156.282 59.8908 157.231 59.8908C158.18 59.8908 158.943 59.1293 158.943 58.1832Z" fill="#18181B"/>
<path d="M158.943 69.421C158.943 68.4749 158.18 67.7134 157.231 67.7134C156.282 67.7134 155.519 68.4749 155.519 69.421C155.519 70.3671 156.282 71.1285 157.231 71.1285C158.18 71.1285 158.943 70.3671 158.943 69.421Z" fill="#18181B"/>
<path d="M158.943 80.6585C158.943 79.7124 158.18 78.9509 157.231 78.9509C156.282 78.9509 155.519 79.7124 155.519 80.6585C155.519 81.6046 156.282 82.3661 157.231 82.3661C158.18 82.3661 158.943 81.6046 158.943 80.6585Z" fill="#18181B"/>
<path d="M181.481 58.1832C181.481 57.2371 180.718 56.4756 179.769 56.4756C178.82 56.4756 178.057 57.2371 178.057 58.1832C178.057 59.1293 178.82 59.8908 179.769 59.8908C180.718 59.8908 181.481 59.1293 181.481 58.1832Z" fill="#18181B"/>
<path d="M181.481 69.421C181.481 68.4749 180.718 67.7134 179.769 67.7134C178.82 67.7134 178.057 68.4749 178.057 69.421C178.057 70.3671 178.82 71.1285 179.769 71.1285C180.718 71.1285 181.481 70.3671 181.481 69.421Z" fill="#18181B"/>
<path d="M181.481 80.6585C181.481 79.7124 180.718 78.9509 179.769 78.9509C178.82 78.9509 178.057 79.7124 178.057 80.6585C178.057 81.6046 178.82 82.3661 179.769 82.3661C180.718 82.3661 181.481 81.6046 181.481 80.6585Z" fill="#18181B"/>
<path d="M191.038 56.4756C190.089 56.4756 189.326 57.2371 189.326 58.1832C189.326 59.1293 190.089 59.8908 191.038 59.8908C191.987 59.8908 192.75 59.1293 192.75 58.1832C192.75 57.2371 191.987 56.4756 191.038 56.4756Z" fill="#18181B"/>
<path d="M145.962 34C145.013 34 144.25 34.7615 144.25 35.7076C144.25 36.6537 145.013 37.4152 145.962 37.4152C146.911 37.4152 147.674 36.6537 147.674 35.7076C147.674 34.7615 146.911 34 145.962 34Z" fill="#18181B"/>
<path d="M158.943 35.7076C158.943 34.7615 158.18 34 157.231 34C156.282 34 155.519 34.7615 155.519 35.7076C155.519 36.6537 156.282 37.4152 157.231 37.4152C158.18 37.4152 158.943 36.6537 158.943 35.7076Z" fill="#18181B"/>
<path d="M181.481 35.7076C181.481 34.7615 180.718 34 179.769 34C178.82 34 178.057 34.7615 178.057 35.7076C178.057 36.6537 178.82 37.4152 179.769 37.4152C180.718 37.4152 181.481 36.6537 181.481 35.7076Z" fill="#18181B"/>
<path d="M189.326 35.7076C189.326 36.6537 190.089 37.4152 191.038 37.4152C191.987 37.4152 192.75 36.6537 192.75 35.7076C192.75 34.7615 191.987 34 191.038 34C190.089 34 189.326 34.7615 189.326 35.7076Z" fill="#18181B"/>
<path d="M170.212 35.7076C170.212 34.7615 169.449 34 168.5 34C167.551 34 166.788 34.7615 166.788 35.7076C166.788 36.6537 167.551 37.4152 168.5 37.4152C169.449 37.4152 170.212 36.6537 170.212 35.7076Z" fill="#18181B"/>
<path d="M230.352 114.141C229.866 114.141 229.473 114.533 229.473 115.041C229.473 115.549 229.866 115.941 230.352 115.941C230.838 115.941 231.231 115.549 231.231 115.041C231.231 114.533 230.838 114.141 230.352 114.141Z" fill="#18181B"/>
<path d="M230.352 120.833C229.866 120.833 229.473 121.225 229.473 121.733C229.473 122.241 229.866 122.633 230.352 122.633C230.838 122.633 231.231 122.241 231.231 121.733C231.231 121.225 230.838 120.833 230.352 120.833Z" fill="#18181B"/>
<path d="M232.273 119.241C232.759 119.241 233.152 118.849 233.152 118.364C233.152 117.879 232.759 117.487 232.273 117.487C231.787 117.487 231.393 117.879 231.393 118.364C231.393 118.849 231.787 119.241 232.273 119.241Z" fill="#18181B"/>
<path d="M230.352 127.502C229.866 127.502 229.473 127.894 229.473 128.402C229.473 128.909 229.866 129.302 230.352 129.302C230.838 129.302 231.231 128.909 231.231 128.402C231.231 127.917 230.838 127.502 230.352 127.502Z" fill="#18181B"/>
<path d="M232.273 125.909C232.759 125.909 233.152 125.517 233.152 125.033C233.152 124.548 232.759 124.156 232.273 124.156C231.787 124.156 231.393 124.548 231.393 125.033C231.393 125.517 231.787 125.909 232.273 125.909Z" fill="#18181B"/>
<path d="M230.352 134.194C229.866 134.194 229.473 134.586 229.473 135.07C229.473 135.555 229.866 135.947 230.352 135.947C230.838 135.947 231.231 135.555 231.231 135.07C231.231 134.586 230.838 134.194 230.352 134.194Z" fill="#18181B"/>
<path d="M232.273 132.578C232.759 132.578 233.152 132.186 233.152 131.702C233.152 131.217 232.759 130.825 232.273 130.825C231.787 130.825 231.393 131.217 231.393 131.702C231.393 132.186 231.787 132.578 232.273 132.578Z" fill="#18181B"/>
<path d="M228.408 112.549C228.894 112.549 229.288 112.157 229.288 111.672C229.288 111.187 228.894 110.795 228.408 110.795C227.922 110.795 227.529 111.187 227.529 111.672C227.529 112.157 227.922 112.549 228.408 112.549Z" fill="#18181B"/>
<path d="M228.408 119.241C228.894 119.241 229.288 118.849 229.288 118.364C229.288 117.879 228.894 117.487 228.408 117.487C227.922 117.487 227.529 117.879 227.529 118.364C227.529 118.849 227.922 119.241 228.408 119.241Z" fill="#18181B"/>
<path d="M226.488 127.502C226.002 127.502 225.608 127.894 225.608 128.402C225.608 128.909 226.002 129.302 226.488 129.302C226.974 129.302 227.367 128.909 227.367 128.402C227.367 127.917 226.974 127.502 226.488 127.502Z" fill="#18181B"/>
<path d="M222.623 127.502C222.138 127.502 221.744 127.894 221.744 128.402C221.744 128.909 222.138 129.302 222.623 129.302C223.109 129.302 223.503 128.909 223.503 128.402C223.503 127.917 223.109 127.502 222.623 127.502Z" fill="#18181B"/>
<path d="M218.759 127.502C218.273 127.502 217.88 127.894 217.88 128.402C217.88 128.909 218.273 129.302 218.759 129.302C219.245 129.302 219.638 128.909 219.638 128.402C219.638 127.917 219.245 127.502 218.759 127.502Z" fill="#18181B"/>
<path d="M228.408 125.909C228.894 125.909 229.288 125.517 229.288 125.033C229.288 124.548 228.894 124.156 228.408 124.156C227.922 124.156 227.529 124.548 227.529 125.033C227.529 125.517 227.922 125.909 228.408 125.909Z" fill="#18181B"/>
<path d="M226.441 115.872C226.927 115.872 227.321 115.479 227.321 114.995C227.321 114.51 226.927 114.118 226.441 114.118C225.956 114.118 225.562 114.51 225.562 114.995C225.585 115.479 225.979 115.872 226.441 115.872Z" fill="#18181B"/>
<path d="M226.441 122.564C226.927 122.564 227.321 122.171 227.321 121.687C227.321 121.202 226.927 120.81 226.441 120.81C225.956 120.81 225.562 121.202 225.562 121.687C225.585 122.171 225.979 122.564 226.441 122.564Z" fill="#18181B"/>
<path d="M226.488 134.194C226.002 134.194 225.608 134.586 225.608 135.07C225.608 135.555 226.002 135.947 226.488 135.947C226.974 135.947 227.367 135.555 227.367 135.07C227.367 134.586 226.974 134.194 226.488 134.194Z" fill="#18181B"/>
<path d="M228.408 132.578C228.894 132.578 229.288 132.186 229.288 131.702C229.288 131.217 228.894 130.825 228.408 130.825C227.922 130.825 227.529 131.217 227.529 131.702C227.529 132.186 227.922 132.578 228.408 132.578Z" fill="#18181B"/>
<path d="M226.488 140.839C226.002 140.839 225.608 141.232 225.608 141.716C225.608 142.201 226.002 142.593 226.488 142.593C226.974 142.593 227.367 142.201 227.367 141.716C227.367 141.232 226.974 140.839 226.488 140.839Z" fill="#18181B"/>
<path d="M228.408 137.54C227.922 137.54 227.529 137.932 227.529 138.416C227.529 138.901 227.922 139.293 228.408 139.293C228.894 139.293 229.288 138.901 229.288 138.416C229.288 137.932 228.894 137.54 228.408 137.54Z" fill="#18181B"/>
<path d="M222.6 134.194C222.114 134.194 221.721 134.586 221.721 135.07C221.721 135.555 222.114 135.947 222.6 135.947C223.086 135.947 223.48 135.555 223.48 135.07C223.48 134.586 223.086 134.194 222.6 134.194Z" fill="#18181B"/>
<path d="M224.544 130.848C224.058 130.848 223.665 131.24 223.665 131.748C223.665 132.232 224.058 132.648 224.544 132.648C225.03 132.648 225.423 132.255 225.423 131.748C225.423 131.24 225.03 130.848 224.544 130.848Z" fill="#18181B"/>
<path d="M220.703 130.871C220.217 130.871 219.823 131.263 219.823 131.771C219.823 132.255 220.217 132.671 220.703 132.671C221.189 132.671 221.582 132.278 221.582 131.771C221.582 131.263 221.189 130.871 220.703 130.871Z" fill="#18181B"/>
<path d="M222.6 140.839C222.114 140.839 221.721 141.232 221.721 141.716C221.721 142.201 222.114 142.593 222.6 142.593C223.086 142.593 223.48 142.201 223.48 141.716C223.48 141.232 223.086 140.839 222.6 140.839Z" fill="#18181B"/>
<path d="M224.544 137.54C224.058 137.54 223.665 137.932 223.665 138.416C223.665 138.901 224.058 139.293 224.544 139.293C225.03 139.293 225.423 138.901 225.423 138.416C225.423 137.932 225.03 137.54 224.544 137.54Z" fill="#18181B"/>
<path d="M218.736 134.194C218.25 134.194 217.857 134.586 217.857 135.07C217.857 135.555 218.25 135.947 218.736 135.947C219.222 135.947 219.615 135.555 219.615 135.07C219.615 134.586 219.222 134.194 218.736 134.194Z" fill="#18181B"/>
<path d="M218.736 140.839C218.25 140.839 217.857 141.232 217.857 141.716C217.857 142.201 218.25 142.593 218.736 142.593C219.222 142.593 219.615 142.201 219.615 141.716C219.615 141.232 219.222 140.839 218.736 140.839Z" fill="#18181B"/>
<path d="M220.68 137.54C220.194 137.54 219.8 137.932 219.8 138.416C219.8 138.901 220.194 139.293 220.68 139.293C221.166 139.293 221.559 138.901 221.559 138.416C221.559 137.932 221.166 137.54 220.68 137.54Z" fill="#18181B"/>
<path d="M220.68 145.962C221.166 145.962 221.559 145.57 221.559 145.085C221.559 144.601 221.166 144.208 220.68 144.208C220.194 144.208 219.8 144.601 219.8 145.085C219.8 145.57 220.194 145.962 220.68 145.962Z" fill="#18181B"/>
<path d="M214.872 140.839C214.386 140.839 213.992 141.232 213.992 141.716C213.992 142.201 214.386 142.593 214.872 142.593C215.358 142.593 215.751 142.201 215.751 141.716C215.751 141.232 215.358 140.839 214.872 140.839Z" fill="#18181B"/>
<path d="M216.815 137.54C216.329 137.54 215.936 137.932 215.936 138.416C215.936 138.901 216.329 139.293 216.815 139.293C217.301 139.293 217.695 138.901 217.695 138.416C217.695 137.932 217.301 137.54 216.815 137.54Z" fill="#18181B"/>
<path d="M214.872 147.554C214.386 147.554 213.992 147.947 213.992 148.431C213.992 148.916 214.386 149.308 214.872 149.308C215.358 149.308 215.751 148.916 215.751 148.431C215.751 147.947 215.358 147.554 214.872 147.554Z" fill="#18181B"/>
<path d="M216.815 144.208C216.329 144.208 215.936 144.601 215.936 145.085C215.936 145.57 216.329 145.962 216.815 145.962C217.301 145.962 217.695 145.57 217.695 145.085C217.695 144.601 217.301 144.208 216.815 144.208Z" fill="#18181B"/>
<path d="M211.007 140.839C210.521 140.839 210.128 141.232 210.128 141.716C210.128 142.201 210.521 142.593 211.007 142.593C211.493 142.593 211.887 142.201 211.887 141.716C211.887 141.232 211.493 140.839 211.007 140.839Z" fill="#18181B"/>
<path d="M212.928 137.54C212.442 137.54 212.049 137.932 212.049 138.416C212.049 138.901 212.442 139.293 212.928 139.293C213.414 139.293 213.807 138.901 213.807 138.416C213.83 137.932 213.437 137.54 212.928 137.54Z" fill="#18181B"/>
<path d="M211.007 147.554C210.521 147.554 210.128 147.947 210.128 148.431C210.128 148.916 210.521 149.308 211.007 149.308C211.493 149.308 211.887 148.916 211.887 148.431C211.887 147.947 211.493 147.554 211.007 147.554Z" fill="#18181B"/>
<path d="M212.928 145.962C213.414 145.962 213.807 145.57 213.807 145.085C213.807 144.601 213.414 144.208 212.928 144.208C212.442 144.208 212.049 144.601 212.049 145.085C212.072 145.57 212.465 145.962 212.928 145.962Z" fill="#18181B"/>
<path d="M207.12 140.839C206.634 140.839 206.241 141.232 206.241 141.716C206.241 142.201 206.634 142.593 207.12 142.593C207.606 142.593 207.999 142.201 207.999 141.716C208.022 141.232 207.629 140.839 207.12 140.839Z" fill="#18181B"/>
<path d="M207.12 147.554C206.634 147.554 206.241 147.947 206.241 148.431C206.241 148.916 206.634 149.308 207.12 149.308C207.606 149.308 207.999 148.916 207.999 148.431C208.022 147.947 207.629 147.554 207.12 147.554Z" fill="#18181B"/>
<path d="M209.064 144.208C208.578 144.208 208.184 144.601 208.184 145.085C208.184 145.57 208.578 145.962 209.064 145.962C209.55 145.962 209.943 145.57 209.943 145.085C209.966 144.601 209.573 144.208 209.064 144.208Z" fill="#18181B"/>
<path d="M209.064 150.877C208.578 150.877 208.184 151.269 208.184 151.754C208.184 152.239 208.578 152.631 209.064 152.631C209.55 152.631 209.943 152.239 209.943 151.754C209.966 151.269 209.573 150.877 209.064 150.877Z" fill="#18181B"/>
<path d="M203.279 147.554C202.793 147.554 202.399 147.947 202.399 148.431C202.399 148.916 202.793 149.308 203.279 149.308C203.765 149.308 204.158 148.916 204.158 148.431C204.158 147.947 203.765 147.554 203.279 147.554Z" fill="#18181B"/>
<path d="M205.199 145.962C205.685 145.962 206.079 145.57 206.079 145.085C206.079 144.601 205.685 144.208 205.199 144.208C204.713 144.208 204.32 144.601 204.32 145.085C204.343 145.57 204.713 145.962 205.199 145.962Z" fill="#18181B"/>
<path d="M205.199 152.631C205.685 152.631 206.079 152.239 206.079 151.754C206.079 151.269 205.685 150.877 205.199 150.877C204.713 150.877 204.32 151.269 204.32 151.754C204.343 152.239 204.713 152.631 205.199 152.631Z" fill="#18181B"/>
<path d="M199.391 147.554C198.905 147.554 198.512 147.947 198.512 148.431C198.512 148.916 198.905 149.308 199.391 149.308C199.877 149.308 200.271 148.916 200.271 148.431C200.294 147.947 199.9 147.554 199.391 147.554Z" fill="#18181B"/>
<path d="M201.335 144.208C200.849 144.208 200.456 144.601 200.456 145.085C200.456 145.57 200.849 145.962 201.335 145.962C201.821 145.962 202.214 145.57 202.214 145.085C202.214 144.601 201.821 144.208 201.335 144.208Z" fill="#18181B"/>
<path d="M199.391 154.223C198.905 154.223 198.512 154.615 198.512 155.1C198.512 155.585 198.905 155.977 199.391 155.977C199.877 155.977 200.271 155.585 200.271 155.1C200.294 154.615 199.9 154.223 199.391 154.223Z" fill="#18181B"/>
<path d="M201.335 150.877C200.849 150.877 200.456 151.269 200.456 151.754C200.456 152.239 200.849 152.631 201.335 152.631C201.821 152.631 202.214 152.239 202.214 151.754C202.214 151.269 201.821 150.877 201.335 150.877Z" fill="#18181B"/>
<path d="M195.527 140.839C195.041 140.839 194.648 141.232 194.648 141.716C194.648 142.201 195.041 142.593 195.527 142.593C196.013 142.593 196.406 142.201 196.406 141.716C196.429 141.232 196.036 140.839 195.527 140.839Z" fill="#18181B"/>
<path d="M195.527 147.554C195.041 147.554 194.648 147.947 194.648 148.431C194.648 148.916 195.041 149.308 195.527 149.308C196.013 149.308 196.406 148.916 196.406 148.431C196.429 147.947 196.036 147.554 195.527 147.554Z" fill="#18181B"/>
<path d="M197.471 145.962C197.957 145.962 198.35 145.57 198.35 145.085C198.35 144.601 197.957 144.208 197.471 144.208C196.985 144.208 196.591 144.601 196.591 145.085C196.591 145.57 196.985 145.962 197.471 145.962Z" fill="#18181B"/>
<path d="M195.527 154.223C195.041 154.223 194.648 154.615 194.648 155.1C194.648 155.585 195.041 155.977 195.527 155.977C196.013 155.977 196.406 155.585 196.406 155.1C196.429 154.615 196.036 154.223 195.527 154.223Z" fill="#18181B"/>
<path d="M197.471 152.631C197.957 152.631 198.35 152.239 198.35 151.754C198.35 151.269 197.957 150.877 197.471 150.877C196.985 150.877 196.591 151.269 196.591 151.754C196.591 152.239 196.985 152.631 197.471 152.631Z" fill="#18181B"/>
<path d="M191.663 140.839C191.177 140.839 190.783 141.232 190.783 141.716C190.783 142.201 191.177 142.593 191.663 142.593C192.149 142.593 192.542 142.201 192.542 141.716C192.565 141.232 192.149 140.839 191.663 140.839Z" fill="#18181B"/>
<path d="M191.663 147.554C191.177 147.554 190.783 147.947 190.783 148.431C190.783 148.916 191.177 149.308 191.663 149.308C192.149 149.308 192.542 148.916 192.542 148.431C192.565 147.947 192.149 147.554 191.663 147.554Z" fill="#18181B"/>
<path d="M193.606 144.208C193.121 144.208 192.727 144.601 192.727 145.085C192.727 145.57 193.121 145.962 193.606 145.962C194.092 145.962 194.486 145.57 194.486 145.085C194.486 144.601 194.092 144.208 193.606 144.208Z" fill="#18181B"/>
<path d="M191.663 154.223C191.177 154.223 190.783 154.615 190.783 155.1C190.783 155.585 191.177 155.977 191.663 155.977C192.149 155.977 192.542 155.585 192.542 155.1C192.565 154.615 192.149 154.223 191.663 154.223Z" fill="#18181B"/>
<path d="M193.606 150.877C193.121 150.877 192.727 151.269 192.727 151.754C192.727 152.239 193.121 152.631 193.606 152.631C194.092 152.631 194.486 152.239 194.486 151.754C194.486 151.269 194.092 150.877 193.606 150.877Z" fill="#18181B"/>
<path d="M187.798 140.839C187.313 140.839 186.896 141.232 186.896 141.716C186.896 142.201 187.289 142.593 187.798 142.593C188.284 142.593 188.678 142.201 188.678 141.716C188.678 141.232 188.284 140.839 187.798 140.839Z" fill="#18181B"/>
<path d="M187.798 147.554C187.313 147.554 186.896 147.947 186.896 148.431C186.896 148.916 187.289 149.308 187.798 149.308C188.284 149.308 188.678 148.916 188.678 148.431C188.678 147.947 188.284 147.554 187.798 147.554Z" fill="#18181B"/>
<path d="M189.742 145.962C190.228 145.962 190.621 145.57 190.621 145.085C190.621 144.601 190.228 144.208 189.742 144.208C189.256 144.208 188.863 144.601 188.863 145.085C188.863 145.57 189.256 145.962 189.742 145.962Z" fill="#18181B"/>
<path d="M187.798 154.223C187.313 154.223 186.896 154.615 186.896 155.1C186.896 155.585 187.289 155.977 187.798 155.977C188.284 155.977 188.678 155.585 188.678 155.1C188.678 154.615 188.284 154.223 187.798 154.223Z" fill="#18181B"/>
<path d="M189.742 152.631C190.228 152.631 190.621 152.239 190.621 151.754C190.621 151.269 190.228 150.877 189.742 150.877C189.256 150.877 188.863 151.269 188.863 151.754C188.863 152.239 189.256 152.631 189.742 152.631Z" fill="#18181B"/>
<path d="M183.888 140.839C183.402 140.839 183.009 141.232 183.009 141.716C183.009 142.201 183.402 142.593 183.888 142.593C184.374 142.593 184.767 142.201 184.767 141.716C184.79 141.232 184.397 140.839 183.888 140.839Z" fill="#18181B"/>
<path d="M183.888 147.554C183.402 147.554 183.009 147.947 183.009 148.431C183.009 148.916 183.402 149.308 183.888 149.308C184.374 149.308 184.767 148.916 184.767 148.431C184.79 147.947 184.397 147.554 183.888 147.554Z" fill="#18181B"/>
<path d="M185.878 145.962C186.364 145.962 186.757 145.57 186.757 145.085C186.757 144.601 186.364 144.208 185.878 144.208C185.392 144.208 184.999 144.601 184.999 145.085C184.999 145.57 185.392 145.962 185.878 145.962Z" fill="#18181B"/>
<path d="M183.888 154.223C183.402 154.223 183.009 154.615 183.009 155.1C183.009 155.585 183.402 155.977 183.888 155.977C184.374 155.977 184.767 155.585 184.767 155.1C184.79 154.615 184.397 154.223 183.888 154.223Z" fill="#18181B"/>
<path d="M185.878 152.631C186.364 152.631 186.757 152.239 186.757 151.754C186.757 151.269 186.364 150.877 185.878 150.877C185.392 150.877 184.999 151.269 184.999 151.754C184.999 152.239 185.392 152.631 185.878 152.631Z" fill="#18181B"/>
<path d="M180.07 147.554C179.584 147.554 179.191 147.947 179.191 148.431C179.191 148.916 179.584 149.308 180.07 149.308C180.556 149.308 180.949 148.916 180.949 148.431C180.949 147.947 180.556 147.554 180.07 147.554Z" fill="#18181B"/>
<path d="M182.014 145.962C182.5 145.962 182.893 145.57 182.893 145.085C182.893 144.601 182.5 144.208 182.014 144.208C181.528 144.208 181.134 144.601 181.134 145.085C181.134 145.57 181.528 145.962 182.014 145.962Z" fill="#18181B"/>
<path d="M180.07 154.223C179.584 154.223 179.191 154.615 179.191 155.1C179.191 155.585 179.584 155.977 180.07 155.977C180.556 155.977 180.949 155.585 180.949 155.1C180.949 154.615 180.556 154.223 180.07 154.223Z" fill="#18181B"/>
<path d="M182.014 152.631C182.5 152.631 182.893 152.239 182.893 151.754C182.893 151.269 182.5 150.877 182.014 150.877C181.528 150.877 181.134 151.269 181.134 151.754C181.134 152.239 181.528 152.631 182.014 152.631Z" fill="#18181B"/>
<path d="M176.205 147.554C175.72 147.554 175.326 147.947 175.326 148.431C175.326 148.916 175.72 149.308 176.205 149.308C176.691 149.308 177.085 148.916 177.085 148.431C177.085 147.947 176.691 147.554 176.205 147.554Z" fill="#18181B"/>
<path d="M176.205 154.223C175.72 154.223 175.326 154.615 175.326 155.1C175.326 155.585 175.72 155.977 176.205 155.977C176.691 155.977 177.085 155.585 177.085 155.1C177.085 154.615 176.691 154.223 176.205 154.223Z" fill="#18181B"/>
<path d="M178.126 152.631C178.612 152.631 179.005 152.239 179.005 151.754C179.005 151.269 178.612 150.877 178.126 150.877C177.64 150.877 177.247 151.269 177.247 151.754C177.27 152.239 177.663 152.631 178.126 152.631Z" fill="#18181B"/>
<path d="M172.364 147.554C171.878 147.554 171.485 147.947 171.485 148.431C171.485 148.916 171.878 149.308 172.364 149.308C172.85 149.308 173.244 148.916 173.244 148.431C173.267 147.947 172.873 147.554 172.364 147.554Z" fill="#18181B"/>
<path d="M172.364 154.223C171.878 154.223 171.485 154.615 171.485 155.1C171.485 155.585 171.878 155.977 172.364 155.977C172.85 155.977 173.244 155.585 173.244 155.1C173.267 154.615 172.873 154.223 172.364 154.223Z" fill="#18181B"/>
<path d="M174.262 152.631C174.748 152.631 175.141 152.239 175.141 151.754C175.141 151.269 174.748 150.877 174.262 150.877C173.776 150.877 173.382 151.269 173.382 151.754C173.382 152.239 173.776 152.631 174.262 152.631Z" fill="#18181B"/>
<path d="M168.454 147.554C167.968 147.554 167.574 147.947 167.574 148.431C167.574 148.916 167.968 149.308 168.454 149.308C168.94 149.308 169.333 148.916 169.333 148.431C169.356 147.947 168.94 147.554 168.454 147.554Z" fill="#18181B"/>
<path d="M168.454 154.223C167.968 154.223 167.574 154.615 167.574 155.1C167.574 155.585 167.968 155.977 168.454 155.977C168.94 155.977 169.333 155.585 169.333 155.1C169.356 154.615 168.94 154.223 168.454 154.223Z" fill="#18181B"/>
<path d="M170.397 152.631C170.883 152.631 171.277 152.239 171.277 151.754C171.277 151.269 170.883 150.877 170.397 150.877C169.912 150.877 169.518 151.269 169.518 151.754C169.518 152.239 169.912 152.631 170.397 152.631Z" fill="#18181B"/>
<path d="M106.648 114.141C107.134 114.141 107.55 114.533 107.55 115.041C107.55 115.549 107.157 115.941 106.648 115.941C106.139 115.941 105.746 115.549 105.746 115.041C105.769 114.533 106.162 114.141 106.648 114.141Z" fill="#18181B"/>
<path d="M106.648 120.833C107.134 120.833 107.55 121.225 107.55 121.733C107.55 122.241 107.157 122.633 106.648 122.633C106.139 122.633 105.746 122.241 105.746 121.733C105.769 121.225 106.162 120.833 106.648 120.833Z" fill="#18181B"/>
<path d="M104.727 119.241C104.242 119.241 103.848 118.849 103.848 118.364C103.848 117.879 104.242 117.487 104.727 117.487C105.213 117.487 105.607 117.879 105.607 118.364C105.584 118.849 105.213 119.241 104.727 119.241Z" fill="#18181B"/>
<path d="M106.648 127.502C107.134 127.502 107.55 127.894 107.55 128.402C107.55 128.909 107.157 129.302 106.648 129.302C106.139 129.302 105.746 128.909 105.746 128.402C105.769 127.917 106.162 127.502 106.648 127.502Z" fill="#18181B"/>
<path d="M104.727 125.909C104.242 125.909 103.848 125.517 103.848 125.033C103.848 124.548 104.242 124.156 104.727 124.156C105.213 124.156 105.607 124.548 105.607 125.033C105.607 125.517 105.213 125.909 104.727 125.909Z" fill="#18181B"/>
<path d="M106.648 134.194C107.134 134.194 107.55 134.586 107.55 135.07C107.55 135.555 107.157 135.947 106.648 135.947C106.139 135.947 105.746 135.555 105.746 135.07C105.769 134.586 106.162 134.194 106.648 134.194Z" fill="#18181B"/>
<path d="M104.727 132.578C104.242 132.578 103.848 132.186 103.848 131.702C103.848 131.217 104.242 130.825 104.727 130.825C105.213 130.825 105.607 131.217 105.607 131.702C105.584 132.186 105.213 132.578 104.727 132.578Z" fill="#18181B"/>
<path d="M108.592 112.549C108.106 112.549 107.712 112.157 107.712 111.672C107.712 111.187 108.106 110.795 108.592 110.795C109.078 110.795 109.471 111.187 109.471 111.672C109.471 112.157 109.078 112.549 108.592 112.549Z" fill="#18181B"/>
<path d="M108.592 119.241C108.106 119.241 107.712 118.849 107.712 118.364C107.712 117.879 108.106 117.487 108.592 117.487C109.078 117.487 109.471 117.879 109.471 118.364C109.471 118.849 109.078 119.241 108.592 119.241Z" fill="#18181B"/>
<path d="M110.512 127.502C110.998 127.502 111.415 127.894 111.415 128.402C111.415 128.909 111.021 129.302 110.512 129.302C110.003 129.302 109.61 128.909 109.61 128.402C109.633 127.917 110.026 127.502 110.512 127.502Z" fill="#18181B"/>
<path d="M108.592 125.909C108.106 125.909 107.712 125.517 107.712 125.033C107.712 124.548 108.106 124.156 108.592 124.156C109.078 124.156 109.471 124.548 109.471 125.033C109.471 125.517 109.078 125.909 108.592 125.909Z" fill="#18181B"/>
<path d="M110.512 134.194C110.998 134.194 111.415 134.586 111.415 135.07C111.415 135.555 111.021 135.947 110.512 135.947C110.003 135.947 109.61 135.555 109.61 135.07C109.633 134.586 110.026 134.194 110.512 134.194Z" fill="#18181B"/>
<path d="M108.592 132.578C108.106 132.578 107.712 132.186 107.712 131.702C107.712 131.217 108.106 130.825 108.592 130.825C109.078 130.825 109.471 131.217 109.471 131.702C109.471 132.186 109.078 132.578 108.592 132.578Z" fill="#18181B"/>
<path d="M110.512 140.839C110.998 140.839 111.415 141.232 111.415 141.716C111.415 142.201 111.021 142.593 110.512 142.593C110.003 142.593 109.61 142.201 109.61 141.716C109.633 141.232 110.026 140.839 110.512 140.839Z" fill="#18181B"/>
<path d="M108.592 137.54C109.078 137.54 109.494 137.932 109.494 138.416C109.494 138.901 109.101 139.293 108.592 139.293C108.083 139.293 107.689 138.901 107.689 138.416C107.712 137.932 108.106 137.54 108.592 137.54Z" fill="#18181B"/>
<path d="M114.4 134.194C114.886 134.194 115.302 134.586 115.302 135.07C115.302 135.555 114.909 135.947 114.4 135.947C113.891 135.947 113.497 135.555 113.497 135.07C113.497 134.586 113.914 134.194 114.4 134.194Z" fill="#18181B"/>
<path d="M112.456 130.848C112.942 130.848 113.358 131.24 113.358 131.748C113.358 132.232 112.965 132.648 112.456 132.648C111.947 132.648 111.554 132.255 111.554 131.748C111.554 131.24 111.97 130.848 112.456 130.848Z" fill="#18181B"/>
<path d="M114.4 127.525C114.886 127.525 115.302 127.917 115.302 128.425C115.302 128.933 114.909 129.325 114.4 129.325C113.891 129.325 113.497 128.933 113.497 128.425C113.52 127.94 113.914 127.525 114.4 127.525Z" fill="#18181B"/>
<path d="M118.287 127.571C118.773 127.571 119.19 127.963 119.19 128.471C119.19 128.979 118.796 129.371 118.287 129.371C117.778 129.371 117.385 128.979 117.385 128.471C117.408 127.963 117.801 127.571 118.287 127.571Z" fill="#18181B"/>
<path d="M116.343 130.871C116.829 130.871 117.246 131.263 117.246 131.771C117.246 132.255 116.853 132.671 116.343 132.671C115.834 132.671 115.441 132.278 115.441 131.771C115.441 131.263 115.834 130.871 116.343 130.871Z" fill="#18181B"/>
<path d="M114.4 140.839C114.886 140.839 115.302 141.232 115.302 141.716C115.302 142.201 114.909 142.593 114.4 142.593C113.891 142.593 113.497 142.201 113.497 141.716C113.497 141.232 113.914 140.839 114.4 140.839Z" fill="#18181B"/>
<path d="M112.456 137.54C112.942 137.54 113.358 137.932 113.358 138.416C113.358 138.901 112.965 139.293 112.456 139.293C111.947 139.293 111.554 138.901 111.554 138.416C111.554 137.932 111.97 137.54 112.456 137.54Z" fill="#18181B"/>
<path d="M118.264 134.194C118.75 134.194 119.166 134.586 119.166 135.07C119.166 135.555 118.773 135.947 118.264 135.947C117.755 135.947 117.362 135.555 117.362 135.07C117.362 134.586 117.778 134.194 118.264 134.194Z" fill="#18181B"/>
<path d="M118.264 140.839C118.75 140.839 119.166 141.232 119.166 141.716C119.166 142.201 118.773 142.593 118.264 142.593C117.755 142.593 117.362 142.201 117.362 141.716C117.362 141.232 117.778 140.839 118.264 140.839Z" fill="#18181B"/>
<path d="M116.32 137.54C116.806 137.54 117.223 137.932 117.223 138.416C117.223 138.901 116.829 139.293 116.32 139.293C115.811 139.293 115.418 138.901 115.418 138.416C115.441 137.932 115.834 137.54 116.32 137.54Z" fill="#18181B"/>
<path d="M116.32 145.962C115.834 145.962 115.441 145.57 115.441 145.085C115.441 144.601 115.834 144.208 116.32 144.208C116.806 144.208 117.2 144.601 117.2 145.085C117.2 145.57 116.806 145.962 116.32 145.962Z" fill="#18181B"/>
<path d="M122.128 140.839C122.614 140.839 123.031 141.232 123.031 141.716C123.031 142.201 122.637 142.593 122.128 142.593C121.619 142.593 121.226 142.201 121.226 141.716C121.226 141.232 121.642 140.839 122.128 140.839Z" fill="#18181B"/>
<path d="M120.185 137.54C120.671 137.54 121.087 137.932 121.087 138.416C121.087 138.901 120.694 139.293 120.185 139.293C119.676 139.293 119.282 138.901 119.282 138.416C119.305 137.932 119.699 137.54 120.185 137.54Z" fill="#18181B"/>
<path d="M122.128 147.554C122.614 147.554 123.031 147.947 123.031 148.431C123.031 148.916 122.637 149.308 122.128 149.308C121.619 149.308 121.226 148.916 121.226 148.431C121.226 147.947 121.642 147.554 122.128 147.554Z" fill="#18181B"/>
<path d="M120.185 144.208C120.671 144.208 121.087 144.601 121.087 145.085C121.087 145.57 120.694 145.962 120.185 145.962C119.676 145.962 119.282 145.57 119.282 145.085C119.305 144.601 119.699 144.208 120.185 144.208Z" fill="#18181B"/>
<path d="M125.993 140.839C126.479 140.839 126.895 141.232 126.895 141.716C126.895 142.201 126.502 142.593 125.993 142.593C125.484 142.593 125.09 142.201 125.09 141.716C125.09 141.232 125.507 140.839 125.993 140.839Z" fill="#18181B"/>
<path d="M124.049 137.54C124.535 137.54 124.951 137.932 124.951 138.416C124.951 138.901 124.558 139.293 124.049 139.293C123.54 139.293 123.146 138.901 123.146 138.416C123.17 137.932 123.563 137.54 124.049 137.54Z" fill="#18181B"/>
<path d="M125.993 147.554C126.479 147.554 126.895 147.947 126.895 148.431C126.895 148.916 126.502 149.308 125.993 149.308C125.484 149.308 125.09 148.916 125.09 148.431C125.09 147.947 125.507 147.554 125.993 147.554Z" fill="#18181B"/>
<path d="M124.049 145.962C123.563 145.962 123.17 145.57 123.17 145.085C123.17 144.601 123.563 144.208 124.049 144.208C124.535 144.208 124.928 144.601 124.928 145.085C124.928 145.57 124.535 145.962 124.049 145.962Z" fill="#18181B"/>
<path d="M129.857 140.839C130.343 140.839 130.759 141.232 130.759 141.716C130.759 142.201 130.366 142.593 129.857 142.593C129.348 142.593 128.955 142.201 128.955 141.716C128.978 141.232 129.371 140.839 129.857 140.839Z" fill="#18181B"/>
<path d="M129.857 147.554C130.343 147.554 130.759 147.947 130.759 148.431C130.759 148.916 130.366 149.308 129.857 149.308C129.348 149.308 128.955 148.916 128.955 148.431C128.978 147.947 129.371 147.554 129.857 147.554Z" fill="#18181B"/>
<path d="M127.913 144.208C128.399 144.208 128.793 144.601 128.793 145.085C128.793 145.57 128.399 145.962 127.913 145.962C127.427 145.962 127.011 145.57 127.011 145.085C127.034 144.601 127.427 144.208 127.913 144.208Z" fill="#18181B"/>
<path d="M127.913 150.877C128.399 150.877 128.793 151.269 128.793 151.754C128.793 152.239 128.399 152.631 127.913 152.631C127.427 152.631 127.011 152.239 127.011 151.754C127.034 151.269 127.427 150.877 127.913 150.877Z" fill="#18181B"/>
<path d="M133.721 147.554C134.207 147.554 134.624 147.947 134.624 148.431C134.624 148.916 134.23 149.308 133.721 149.308C133.212 149.308 132.819 148.916 132.819 148.431C132.842 147.947 133.235 147.554 133.721 147.554Z" fill="#18181B"/>
<path d="M131.801 145.962C131.315 145.962 130.921 145.57 130.921 145.085C130.921 144.601 131.315 144.208 131.801 144.208C132.287 144.208 132.68 144.601 132.68 145.085C132.657 145.57 132.263 145.962 131.801 145.962Z" fill="#18181B"/>
<path d="M131.801 152.631C131.315 152.631 130.921 152.239 130.921 151.754C130.921 151.269 131.315 150.877 131.801 150.877C132.287 150.877 132.68 151.269 132.68 151.754C132.657 152.239 132.263 152.631 131.801 152.631Z" fill="#18181B"/>
<path d="M137.586 140.839C138.071 140.839 138.488 141.232 138.488 141.716C138.488 142.201 138.095 142.593 137.586 142.593C137.076 142.593 136.683 142.201 136.683 141.716C136.706 141.232 137.1 140.839 137.586 140.839Z" fill="#18181B"/>
<path d="M137.586 147.554C138.071 147.554 138.488 147.947 138.488 148.431C138.488 148.916 138.095 149.308 137.586 149.308C137.076 149.308 136.683 148.916 136.683 148.431C136.706 147.947 137.1 147.554 137.586 147.554Z" fill="#18181B"/>
<path d="M135.665 144.208C136.151 144.208 136.567 144.601 136.567 145.085C136.567 145.57 136.174 145.962 135.665 145.962C135.156 145.962 134.763 145.57 134.763 145.085C134.763 144.601 135.179 144.208 135.665 144.208Z" fill="#18181B"/>
<path d="M137.586 154.223C138.071 154.223 138.488 154.615 138.488 155.1C138.488 155.585 138.095 155.977 137.586 155.977C137.076 155.977 136.683 155.585 136.683 155.1C136.706 154.615 137.1 154.223 137.586 154.223Z" fill="#18181B"/>
<path d="M135.665 150.877C136.151 150.877 136.567 151.269 136.567 151.754C136.567 152.239 136.174 152.631 135.665 152.631C135.156 152.631 134.763 152.239 134.763 151.754C134.763 151.269 135.179 150.877 135.665 150.877Z" fill="#18181B"/>
<path d="M141.45 140.839C141.936 140.839 142.352 141.232 142.352 141.716C142.352 142.201 141.959 142.593 141.45 142.593C140.941 142.593 140.547 142.201 140.547 141.716C140.571 141.232 140.964 140.839 141.45 140.839Z" fill="#18181B"/>
<path d="M141.45 147.554C141.936 147.554 142.352 147.947 142.352 148.431C142.352 148.916 141.959 149.308 141.45 149.308C140.941 149.308 140.547 148.916 140.547 148.431C140.571 147.947 140.964 147.554 141.45 147.554Z" fill="#18181B"/>
<path d="M139.529 145.962C139.043 145.962 138.65 145.57 138.65 145.085C138.65 144.601 139.043 144.208 139.529 144.208C140.015 144.208 140.409 144.601 140.409 145.085C140.385 145.57 140.015 145.962 139.529 145.962Z" fill="#18181B"/>
<path d="M141.45 154.223C141.936 154.223 142.352 154.615 142.352 155.1C142.352 155.585 141.959 155.977 141.45 155.977C140.941 155.977 140.547 155.585 140.547 155.1C140.571 154.615 140.964 154.223 141.45 154.223Z" fill="#18181B"/>
<path d="M139.529 152.631C139.043 152.631 138.65 152.239 138.65 151.754C138.65 151.269 139.043 150.877 139.529 150.877C140.015 150.877 140.409 151.269 140.409 151.754C140.385 152.239 140.015 152.631 139.529 152.631Z" fill="#18181B"/>
<path d="M145.337 140.839C145.823 140.839 146.217 141.232 146.217 141.716C146.217 142.201 145.823 142.593 145.337 142.593C144.851 142.593 144.458 142.201 144.458 141.716C144.435 141.232 144.828 140.839 145.337 140.839Z" fill="#18181B"/>
<path d="M145.337 147.554C145.823 147.554 146.217 147.947 146.217 148.431C146.217 148.916 145.823 149.308 145.337 149.308C144.851 149.308 144.458 148.916 144.458 148.431C144.435 147.947 144.828 147.554 145.337 147.554Z" fill="#18181B"/>
<path d="M143.394 144.208C143.88 144.208 144.273 144.601 144.273 145.085C144.273 145.57 143.88 145.962 143.394 145.962C142.908 145.962 142.491 145.57 142.491 145.085C142.514 144.601 142.908 144.208 143.394 144.208Z" fill="#18181B"/>
<path d="M145.337 154.223C145.823 154.223 146.217 154.615 146.217 155.1C146.217 155.585 145.823 155.977 145.337 155.977C144.851 155.977 144.458 155.585 144.458 155.1C144.435 154.615 144.828 154.223 145.337 154.223Z" fill="#18181B"/>
<path d="M143.394 150.877C143.88 150.877 144.273 151.269 144.273 151.754C144.273 152.239 143.88 152.631 143.394 152.631C142.908 152.631 142.491 152.239 142.491 151.754C142.514 151.269 142.908 150.877 143.394 150.877Z" fill="#18181B"/>
<path d="M149.202 140.839C149.688 140.839 150.081 141.232 150.081 141.716C150.081 142.201 149.688 142.593 149.202 142.593C148.716 142.593 148.322 142.201 148.322 141.716C148.299 141.232 148.693 140.839 149.202 140.839Z" fill="#18181B"/>
<path d="M149.202 147.554C149.688 147.554 150.081 147.947 150.081 148.431C150.081 148.916 149.688 149.308 149.202 149.308C148.716 149.308 148.322 148.916 148.322 148.431C148.299 147.947 148.693 147.554 149.202 147.554Z" fill="#18181B"/>
<path d="M147.258 145.962C146.772 145.962 146.379 145.57 146.379 145.085C146.379 144.601 146.772 144.208 147.258 144.208C147.744 144.208 148.137 144.601 148.137 145.085C148.137 145.57 147.744 145.962 147.258 145.962Z" fill="#18181B"/>
<path d="M149.202 154.223C149.688 154.223 150.081 154.615 150.081 155.1C150.081 155.585 149.688 155.977 149.202 155.977C148.716 155.977 148.322 155.585 148.322 155.1C148.299 154.615 148.693 154.223 149.202 154.223Z" fill="#18181B"/>
<path d="M147.258 152.631C146.772 152.631 146.379 152.239 146.379 151.754C146.379 151.269 146.772 150.877 147.258 150.877C147.744 150.877 148.137 151.269 148.137 151.754C148.137 152.239 147.744 152.631 147.258 152.631Z" fill="#18181B"/>
<path d="M153.089 140.839C153.575 140.839 153.968 141.232 153.968 141.716C153.968 142.201 153.575 142.593 153.089 142.593C152.603 142.593 152.21 142.201 152.21 141.716C152.21 141.232 152.603 140.839 153.089 140.839Z" fill="#18181B"/>
<path d="M153.089 147.554C153.575 147.554 153.968 147.947 153.968 148.431C153.968 148.916 153.575 149.308 153.089 149.308C152.603 149.308 152.21 148.916 152.21 148.431C152.21 147.947 152.603 147.554 153.089 147.554Z" fill="#18181B"/>
<path d="M151.122 145.962C150.636 145.962 150.243 145.57 150.243 145.085C150.243 144.601 150.636 144.208 151.122 144.208C151.608 144.208 152.002 144.601 152.002 145.085C152.002 145.57 151.608 145.962 151.122 145.962Z" fill="#18181B"/>
<path d="M153.089 154.223C153.575 154.223 153.968 154.615 153.968 155.1C153.968 155.585 153.575 155.977 153.089 155.977C152.603 155.977 152.21 155.585 152.21 155.1C152.21 154.615 152.603 154.223 153.089 154.223Z" fill="#18181B"/>
<path d="M151.122 152.631C150.636 152.631 150.243 152.239 150.243 151.754C150.243 151.269 150.636 150.877 151.122 150.877C151.608 150.877 152.002 151.269 152.002 151.754C152.002 152.239 151.608 152.631 151.122 152.631Z" fill="#18181B"/>
<path d="M156.93 147.554C157.416 147.554 157.81 147.947 157.81 148.431C157.81 148.916 157.416 149.308 156.93 149.308C156.444 149.308 156.051 148.916 156.051 148.431C156.028 147.947 156.444 147.554 156.93 147.554Z" fill="#18181B"/>
<path d="M154.986 145.962C154.501 145.962 154.107 145.57 154.107 145.085C154.107 144.601 154.501 144.208 154.986 144.208C155.472 144.208 155.866 144.601 155.866 145.085C155.866 145.57 155.472 145.962 154.986 145.962Z" fill="#18181B"/>
<path d="M156.93 154.223C157.416 154.223 157.81 154.615 157.81 155.1C157.81 155.585 157.416 155.977 156.93 155.977C156.444 155.977 156.051 155.585 156.051 155.1C156.028 154.615 156.444 154.223 156.93 154.223Z" fill="#18181B"/>
<path d="M154.986 152.631C154.501 152.631 154.107 152.239 154.107 151.754C154.107 151.269 154.501 150.877 154.986 150.877C155.472 150.877 155.866 151.269 155.866 151.754C155.866 152.239 155.472 152.631 154.986 152.631Z" fill="#18181B"/>
<path d="M160.795 147.554C161.281 147.554 161.674 147.947 161.674 148.431C161.674 148.916 161.281 149.308 160.795 149.308C160.309 149.308 159.915 148.916 159.915 148.431C159.915 147.947 160.309 147.554 160.795 147.554Z" fill="#18181B"/>
<path d="M160.795 154.223C161.281 154.223 161.674 154.615 161.674 155.1C161.674 155.585 161.281 155.977 160.795 155.977C160.309 155.977 159.915 155.585 159.915 155.1C159.915 154.615 160.309 154.223 160.795 154.223Z" fill="#18181B"/>
<path d="M158.851 152.631C158.365 152.631 157.972 152.239 157.972 151.754C157.972 151.269 158.365 150.877 158.851 150.877C159.337 150.877 159.73 151.269 159.73 151.754C159.73 152.239 159.337 152.631 158.851 152.631Z" fill="#18181B"/>
<path d="M164.613 147.554C165.099 147.554 165.492 147.947 165.492 148.431C165.492 148.916 165.099 149.308 164.613 149.308C164.127 149.308 163.733 148.916 163.733 148.431C163.733 147.947 164.127 147.554 164.613 147.554Z" fill="#18181B"/>
<path d="M164.613 154.223C165.099 154.223 165.492 154.615 165.492 155.1C165.492 155.585 165.099 155.977 164.613 155.977C164.127 155.977 163.733 155.585 163.733 155.1C163.733 154.615 164.127 154.223 164.613 154.223Z" fill="#18181B"/>
<path d="M162.738 152.631C162.252 152.631 161.859 152.239 161.859 151.754C161.859 151.269 162.252 150.877 162.738 150.877C163.224 150.877 163.617 151.269 163.617 151.754C163.594 152.239 163.224 152.631 162.738 152.631Z" fill="#18181B"/>
<path d="M166.603 152.631C166.117 152.631 165.723 152.239 165.723 151.754C165.723 151.269 166.117 150.877 166.603 150.877C167.088 150.877 167.482 151.269 167.482 151.754C167.482 152.239 167.088 152.631 166.603 152.631Z" fill="#18181B"/>
<path d="M91.4222 73.8975C90.2421 73.1822 89.1314 72.813 88.1364 72.813C87.5116 72.813 86.9563 72.9514 86.4472 73.2283C84.8043 74.1514 83.8556 76.5281 83.8556 79.7356C83.8556 86.4044 87.8819 94.2732 92.8337 97.2961C94.7312 98.4498 96.5129 98.6806 97.8087 97.9422C98.7806 97.3884 99.4748 96.3038 99.9144 94.8962C99.9144 94.8501 99.9376 94.827 99.9376 94.8039C100.215 93.8347 100.4 92.7271 100.4 91.458C100.4 84.7892 96.3741 76.9204 91.4222 73.8975ZM90.6586 87.1659C89.8487 86.0122 89.3397 84.7199 89.3397 83.3816C89.3397 82.6662 89.5479 82.1124 89.895 81.9278C89.9876 81.8816 90.1033 81.8586 90.2421 81.8586C90.3578 81.8586 90.5198 81.974 90.6586 82.0201V87.1659ZM94.1064 89.4273C93.9213 89.5427 93.6205 89.5196 93.2965 89.4273V84.2584C94.1064 85.3891 94.5923 86.7044 94.5923 88.0197C94.6155 88.712 94.4304 89.2427 94.1064 89.4273Z" fill="white"/>
<path d="M259.346 67.6672C258.79 67.3442 257.911 67.4826 256.939 68.0364L256.662 68.221C256.268 68.4518 255.782 68.4749 255.389 68.2672C254.972 68.0595 254.695 67.6672 254.648 67.2288C254.579 66.6519 254.394 66.2365 254.093 66.0981C253.746 65.9366 253.168 66.0289 252.52 66.3981C252.219 66.5827 251.895 66.8134 251.617 67.0903C251.316 67.3903 250.877 67.5288 250.437 67.4365C250.021 67.3442 249.65 67.0673 249.488 66.675C249.141 65.8904 248.632 65.3828 247.938 65.1751C247.683 65.0828 247.383 65.0366 247.082 65.0366C246.272 65.0366 245.346 65.3135 244.375 65.8904C241.76 67.3903 239.33 70.5517 238.196 73.9668C238.081 74.2899 237.849 74.5668 237.548 74.7283C235.512 76.0205 233.985 78.9281 233.985 80.5895C233.985 81.0048 233.777 81.4202 233.43 81.651C231.162 83.2893 229.403 86.6122 229.426 89.2197C229.426 90.3273 229.75 91.135 230.329 91.458C230.884 91.7811 231.763 91.6426 232.758 91.0888L255.69 77.8897C258.189 76.4359 260.318 72.79 260.295 69.9286C260.225 68.7979 259.901 67.9903 259.346 67.6672ZM243.68 79.4588C243.356 79.5511 243.079 79.5742 242.894 79.4588C242.57 79.2742 242.385 78.7665 242.385 78.0743C242.385 76.7359 242.894 75.4437 243.68 74.313V79.4588ZM246.341 77.1974V71.9823C246.642 71.89 246.92 71.867 247.105 71.9593C247.452 72.1439 247.66 72.6977 247.66 73.413C247.66 74.7514 247.151 76.0667 246.341 77.1974Z" fill="white"/>
<path d="M267.329 126.048L253.214 117.787C248.979 115.295 246.341 110.726 246.341 105.834V86.266L256.962 80.151C260.318 78.2357 262.909 73.7129 262.909 69.8824C262.909 67.8056 262.076 66.1442 260.665 65.3365L255.528 62.4059C254.625 61.8983 253.515 61.7829 252.381 62.0367L250.136 60.7676C249.049 60.2138 247.707 60.3291 246.364 60.9983V48.5145C246.364 44.6148 244.328 41.1304 240.95 39.192C237.571 37.2537 233.522 37.2768 230.144 39.2612L197.355 58.437C192.311 61.3906 189.187 66.8364 189.187 72.6745V87.0736C186.595 86.4737 183.818 85.966 180.926 85.5968V80.2663C180.926 79.5279 180.324 78.928 179.584 78.928H169.842V46.5762C169.842 45.8378 169.24 45.2378 168.5 45.2378C167.759 45.2378 167.158 45.8378 167.158 46.5762V78.951H157.416C156.676 78.951 156.074 79.551 156.074 80.2894V85.6199C153.158 85.9891 150.359 86.4967 147.744 87.1198C147.235 81.8816 144.227 77.105 139.645 74.4283L106.879 55.2295C103.501 53.245 99.4747 53.245 96.0732 55.1602C92.6717 57.0986 90.6585 60.583 90.6585 64.4827V67.8748C90.4734 67.9441 90.2652 67.9902 90.0801 68.0825L86.4934 70.1362L86.424 70.067C85.9149 69.5593 85.0588 69.5593 84.5497 70.067L79.3433 73.0437C78.8342 73.5514 78.8342 74.4052 79.3433 74.9128L81.4259 76.9896C81.287 77.8434 81.1713 78.7434 81.1713 79.7356C81.1713 80.8894 81.3102 82.0893 81.4953 83.2892L79.5053 84.443C79.0194 84.6276 78.6491 85.1122 78.6491 85.666C78.6491 86.4044 79.2508 87.0044 79.9912 87.0044H82.4209C82.9299 88.5504 83.5316 90.0504 84.2952 91.481L82.606 93.1425C82.0969 93.6501 82.0969 94.5039 82.606 95.0116C82.8605 95.2654 83.2076 95.4039 83.5547 95.4039C83.9018 95.4039 84.2489 95.2654 84.5034 95.0116L85.9612 94.1578C87.3265 96.1192 88.9231 97.7576 90.6585 98.9806V105.811C90.6585 110.703 88.0206 115.272 83.7861 117.764L69.671 126.025C69.0462 126.394 68.8148 127.202 69.1851 127.848C69.4396 128.263 69.8792 128.494 70.342 128.494C70.5734 128.494 70.8048 128.448 71.0131 128.309L85.1282 120.048C90.1726 117.095 93.2965 111.649 93.2965 105.811V102.765L96.3972 101.011C96.4203 101.011 96.4203 100.988 96.4434 100.988C97.369 100.942 98.2715 100.711 99.0813 100.273L102.668 98.2191L102.737 98.2883C102.992 98.5421 103.339 98.6806 103.686 98.6806C104.033 98.6806 104.38 98.5421 104.635 98.2883L109.841 95.3116C110.35 94.8039 110.35 93.9501 109.841 93.4424L107.759 91.3657C107.921 90.5119 108.013 89.5888 108.013 88.6197C108.013 87.4659 107.874 86.266 107.666 85.066L109.679 83.9123C110.165 83.7046 110.512 83.2431 110.512 82.6893C110.512 81.9509 109.911 81.3509 109.17 81.3509H106.741C106.231 79.8048 105.63 78.3049 104.866 76.8743L106.532 75.2128C107.041 74.7052 107.041 73.8514 106.532 73.3437C106.023 72.8361 105.167 72.8361 104.658 73.3437L103.2 74.1744C101.835 72.213 100.238 70.5747 98.5028 69.3517V66.3518C98.5028 65.6134 97.9012 65.0135 97.1608 65.0135C96.9294 65.0135 96.7211 65.0827 96.536 65.1981L93.2733 67.0441V64.4597C93.2733 61.5291 94.8005 58.8985 97.3459 57.4447C99.8912 55.991 102.946 56.014 105.491 57.4909L138.303 76.6897C141.843 78.7664 144.25 82.297 144.967 86.266L136.313 82.4354C135.966 82.297 135.572 82.297 135.225 82.4354L119.375 89.4504C119.259 89.4965 119.166 89.5658 119.074 89.635C119.051 89.6581 119.028 89.6811 118.981 89.7042C118.958 89.7273 118.935 89.7504 118.912 89.7734L118.889 89.7965C118.866 89.8196 118.866 89.8427 118.842 89.8657C118.842 89.8888 118.819 89.8888 118.819 89.9119C118.819 89.935 118.796 89.935 118.796 89.958C118.796 89.9811 118.773 90.0042 118.773 90.0273C118.773 90.0504 118.75 90.0503 118.75 90.0734C118.75 90.0965 118.727 90.1196 118.727 90.1427C118.727 90.1657 118.727 90.1657 118.704 90.1888C118.704 90.2119 118.681 90.235 118.681 90.2811C118.681 90.3042 118.681 90.3042 118.681 90.3273C118.681 90.3503 118.681 90.3734 118.657 90.3965C118.657 90.4196 118.657 90.4426 118.657 90.4657C118.657 90.4657 118.657 90.4888 118.657 90.5119V90.5349C118.657 90.558 118.657 90.5811 118.657 90.5811C118.657 90.6042 118.657 90.6042 118.657 90.6272V99.1421H111.762C111.021 99.1421 110.42 99.7421 110.42 100.48V110.288V126.879C110.42 127.617 111.021 128.217 111.762 128.217H118.657V136.224C118.657 136.755 118.958 137.217 119.444 137.447L135.295 144.462C135.434 144.508 135.549 144.555 135.711 144.578C135.757 144.578 135.804 144.578 135.85 144.578C135.896 144.578 135.943 144.578 135.989 144.578C136.128 144.555 136.267 144.532 136.405 144.462L146.517 139.986C149.549 140.77 152.788 141.37 156.167 141.809V144.739V147.162C156.167 147.901 156.768 148.501 157.509 148.501H179.676C180.417 148.501 181.018 147.901 181.018 147.162V141.832C184.397 141.393 187.636 140.793 190.668 140.009L200.78 144.485C200.918 144.532 201.057 144.578 201.196 144.601C201.242 144.601 201.289 144.601 201.335 144.601C201.381 144.601 201.428 144.601 201.474 144.601C201.613 144.578 201.751 144.555 201.89 144.485L217.741 137.47C218.227 137.263 218.528 136.778 218.528 136.247V128.24H225.423C226.164 128.24 226.765 127.64 226.765 126.902V110.311V100.504C226.765 99.7651 226.164 99.1652 225.423 99.1652H218.528V90.6503C218.528 90.6272 218.528 90.6272 218.528 90.6042C218.528 90.5811 218.528 90.558 218.528 90.558V90.5349C218.528 90.5349 218.528 90.5119 218.528 90.4888C218.528 90.4657 218.528 90.4426 218.528 90.4196C218.528 90.3965 218.528 90.3734 218.504 90.3503C218.504 90.3273 218.504 90.3273 218.504 90.3042C218.504 90.2811 218.481 90.258 218.481 90.2119C218.481 90.1888 218.481 90.1888 218.458 90.1657C218.458 90.1426 218.435 90.1196 218.435 90.0965C218.435 90.0734 218.412 90.0734 218.412 90.0503C218.412 90.0273 218.389 90.0273 218.389 90.0042C218.389 89.9811 218.366 89.9811 218.366 89.958C218.366 89.935 218.343 89.935 218.343 89.9119C218.343 89.9119 218.343 89.9119 218.343 89.8888C218.319 89.8657 218.319 89.8427 218.296 89.8427L218.273 89.8196C218.273 89.8196 218.273 89.8196 218.273 89.7965C218.25 89.7734 218.227 89.7504 218.227 89.7504C218.227 89.7504 218.227 89.7504 218.204 89.7504C218.204 89.7504 218.204 89.7504 218.181 89.7273C218.157 89.7042 218.134 89.6811 218.111 89.6811C218.019 89.6119 217.926 89.5427 217.81 89.4965L201.96 82.4816C201.613 82.3431 201.219 82.3431 200.872 82.4816L192.01 86.4044V72.7207C192.01 67.8287 194.648 63.2597 198.882 60.7676L231.671 41.5919C234.216 40.115 237.248 40.092 239.816 41.5457C242.361 42.9995 243.889 45.6301 243.889 48.5607V59.7523C243.865 59.7292 243.842 59.7292 243.796 59.7061C242.084 59.1523 240.094 59.4754 238.057 60.6522C235.003 62.4059 232.273 65.8673 230.838 69.7209C228.385 71.4284 226.673 74.6129 226.372 76.9666C223.665 79.2049 221.744 83.0354 221.767 86.289C221.767 88.3658 222.577 90.0273 223.989 90.8349L229.126 93.7655C229.727 94.1116 230.421 94.2962 231.162 94.2962C232.134 94.2962 233.175 93.9963 234.216 93.3963L243.865 87.8351V105.857C243.865 111.695 246.989 117.141 252.034 120.095L266.149 128.356C266.357 128.471 266.588 128.54 266.82 128.54C267.283 128.54 267.722 128.309 267.977 127.894C268.185 127.225 267.977 126.417 267.329 126.048ZM93.3196 89.4273V84.2584C94.1295 85.3891 94.6154 86.7044 94.6154 88.0197C94.6154 88.712 94.4071 89.2427 94.1063 89.4273C93.9212 89.5196 93.6204 89.4965 93.3196 89.4273ZM90.6585 81.997V87.1428C89.8487 85.9891 89.3396 84.6968 89.3396 83.3585C89.3396 82.6431 89.5478 82.0893 89.8949 81.9047C89.9875 81.8586 90.1032 81.8355 90.242 81.8355C90.3577 81.8586 90.5197 81.9509 90.6585 81.997ZM105.329 86.4275C105.422 87.1428 105.468 87.8582 105.468 88.5504C105.468 89.4504 105.398 90.2811 105.236 91.0426L102.899 92.381C102.922 92.1041 102.923 91.8041 102.923 91.5272C102.923 90.0504 102.714 88.5274 102.413 87.0044H103.987C104.218 87.0044 104.45 86.9352 104.658 86.8198L105.329 86.4275ZM102.807 78.3972C103.408 79.5741 103.917 80.8202 104.334 82.0893L101.511 83.7046C101.071 82.4585 100.516 81.2355 99.9144 80.0587L102.807 78.3972ZM97.1376 71.4284C98.526 72.4207 99.8218 73.8052 100.979 75.4205L99.7524 76.1128C99.6598 76.182 99.5441 76.2512 99.4747 76.3204L98.364 77.4281C97.207 75.6974 95.8881 74.1744 94.4303 72.9514L97.1376 71.4284ZM100.4 91.458C100.4 92.7271 100.215 93.8347 99.9375 94.8039C99.9375 94.85 99.9144 94.8731 99.9144 94.8962C99.4747 96.3269 98.7805 97.4114 97.8087 97.9422C96.6054 98.6114 95.0319 98.4498 93.3427 97.5499V92.081C93.4816 92.1041 93.6204 92.1502 93.7592 92.1502C94.3609 92.1502 94.9394 92.0118 95.4484 91.7118C96.6054 91.0426 97.2765 89.7042 97.2996 88.0197C97.2996 84.9737 95.6335 82.0201 92.9494 80.174C92.9494 80.174 92.9494 80.174 92.9262 80.174C92.8568 80.1279 92.8105 80.0587 92.718 80.0125C91.3296 79.1126 89.8255 78.9741 88.6223 79.5972C87.3959 80.2663 86.6785 81.6509 86.6785 83.4046C86.6785 86.289 88.2058 89.0581 90.6585 90.9272V95.6115C86.748 91.9195 83.8324 85.4353 83.8324 79.7587C83.8324 76.5512 84.7811 74.1744 86.424 73.2514C86.9331 72.9745 87.4884 72.8361 88.1132 72.8361C89.1082 72.8361 90.242 73.2053 91.399 73.9206C96.374 76.9204 100.4 84.7891 100.4 91.458ZM179.815 112.203C176.784 111.418 173.336 111.003 169.842 110.911V96.9499C181.296 97.2499 189.164 101.473 189.164 105.28C189.164 107.842 185.6 110.564 179.815 112.203ZM147.836 105.28C147.836 101.473 155.704 97.2499 167.158 96.9499V110.911C163.664 111.003 160.216 111.418 157.185 112.203C151.377 110.564 147.836 107.842 147.836 105.28ZM179.422 88.112C182.846 88.5043 186.109 89.1043 189.164 89.8427V100.088C185.484 96.7653 178.334 94.5039 169.842 94.2962V81.6047H178.265V86.7967C178.242 87.4659 178.751 88.0428 179.422 88.112ZM167.158 94.2962C158.666 94.5039 151.516 96.7884 147.836 100.088V89.8427C150.891 89.1043 154.153 88.5043 157.578 88.112C158.249 88.0428 158.758 87.4659 158.758 86.7967V81.6047H167.181L167.158 94.2962ZM143.139 88.3658C138.257 89.8888 134.091 91.8272 130.875 94.0655L123.193 90.6734L135.758 85.1122L143.139 88.3658ZM178.242 145.824H158.758V144.739V140.632V131.886H178.242V140.632V145.824ZM135.781 125.217L123.216 119.656L130.736 116.333C133.906 118.595 138.048 120.556 142.884 122.079L135.781 125.217ZM121.249 121.687L134.439 127.525V141.209L121.249 135.371V121.687ZM206.287 116.333L213.807 119.656L201.242 125.217L194.162 122.079C198.975 120.556 203.117 118.595 206.287 116.333ZM202.561 127.525L215.751 121.687V135.371L202.561 141.209V127.525ZM223.965 108.995H210.591H210.359C209.897 108.995 209.48 109.226 209.226 109.618C205.361 115.849 193.93 120.764 179.376 122.448C178.704 122.518 178.195 123.094 178.195 123.787L178.219 129.256H158.735L158.781 123.764C158.781 123.094 158.272 122.518 157.601 122.425C143.046 120.741 131.616 115.826 127.751 109.618C127.52 109.226 127.08 108.995 126.617 108.995H126.386H113.011V101.842H126.386H126.432C126.918 101.842 127.358 101.588 127.589 101.173C130.111 96.8345 136.567 93.0271 145.175 90.558V105.28C145.175 111.464 155.426 116.287 168.5 116.287C181.574 116.287 191.825 111.464 191.825 105.28V90.558C200.433 93.0502 206.888 96.8345 209.411 101.173C209.619 101.542 210.012 101.773 210.429 101.819C210.475 101.819 210.544 101.819 210.614 101.819H223.989L223.965 108.995ZM213.784 90.6734L206.102 94.0655C202.908 91.8041 198.72 89.8657 193.838 88.3658L201.219 85.1122L213.784 90.6734ZM243.68 74.2898V79.4587C243.356 79.551 243.079 79.5741 242.894 79.4587C242.57 79.2741 242.384 78.7664 242.384 78.0742C242.384 76.7358 242.87 75.4436 243.68 74.2898ZM246.341 71.9823C246.642 71.89 246.92 71.8438 247.105 71.9592C247.452 72.1438 247.66 72.6976 247.66 73.4129C247.66 74.7513 247.151 76.0666 246.341 77.1973V71.9823ZM243.68 84.743L232.689 91.0657C231.717 91.6195 230.838 91.7579 230.259 91.4349C229.704 91.1118 229.38 90.3042 229.357 89.1966C229.357 86.6121 231.116 83.2892 233.36 81.6278C233.707 81.374 233.915 80.9817 233.915 80.5663C233.915 78.928 235.443 76.0205 237.479 74.7052C237.78 74.5436 238.011 74.2667 238.127 73.9437C239.261 70.5285 241.69 67.3672 244.305 65.8673C245.277 65.3135 246.226 65.0135 247.012 65.0135C247.313 65.0135 247.614 65.0596 247.869 65.1519C248.563 65.3827 249.072 65.8903 249.419 66.6518C249.604 67.0441 249.951 67.3441 250.368 67.4133C250.784 67.5056 251.247 67.3672 251.548 67.0672C251.849 66.7903 252.149 66.5595 252.45 66.3749C253.075 66.0057 253.677 65.8903 254.024 66.0749C254.301 66.2134 254.51 66.6287 254.579 67.2056C254.625 67.6671 254.903 68.0594 255.319 68.244C255.736 68.4517 256.222 68.4286 256.592 68.1979L256.87 68.0133C257.842 67.4595 258.721 67.321 259.276 67.6441C259.832 67.9671 260.156 68.7978 260.179 69.8824C260.179 72.7668 258.073 76.3897 255.574 77.8434L246.295 83.1739V80.9355C248.748 79.0895 250.275 76.2743 250.275 73.3899C250.275 71.6361 249.558 70.2516 248.331 69.5824C247.128 68.9363 245.647 69.0747 244.236 69.9978C241.413 71.8207 239.654 74.9128 239.654 78.0511C239.677 79.7356 240.348 81.074 241.505 81.7432C242.014 82.0201 242.57 82.1816 243.194 82.1816C243.333 82.1816 243.472 82.1355 243.634 82.1124L243.68 84.743Z" fill="#18181B"/>
<path d="M143.139 88.3659C138.257 89.8889 134.091 91.8273 130.875 94.0656L123.193 90.6735L135.758 85.1123L143.139 88.3659Z" fill="white"/>
<path d="M178.242 145.824H158.758V144.739V140.655V131.886H178.242V140.655V145.824Z" fill="white"/>
<path d="M135.781 125.218L123.216 119.656L130.736 116.333C133.906 118.595 138.048 120.556 142.884 122.079L135.781 125.218Z" fill="white"/>
<path d="M121.249 121.687L134.439 127.525V141.209L121.249 135.371V121.687Z" fill="white"/>
<path d="M206.287 116.333L213.807 119.656L201.242 125.218L194.162 122.079C198.975 120.556 203.117 118.595 206.287 116.333Z" fill="white"/>
<path d="M202.561 127.525L215.751 121.687V135.371L202.561 141.209V127.525Z" fill="white"/>
<path d="M213.784 90.6735L206.102 94.0656C202.908 91.8042 198.72 89.8659 193.838 88.3659L201.219 85.1123L213.784 90.6735Z" fill="white"/>
</g>
<defs>
<clipPath id="clip0_1757_23714">
<rect width="199" height="122" fill="white" transform="translate(69 34)"/>
</clipPath>
</defs>
</svg>
