<svg width="336" height="190" viewBox="0 0 336 190" fill="none" xmlns="http://www.w3.org/2000/svg">
<rect width="336" height="190" fill="#E4E4E7"/>
<g clip-path="url(#clip0_1757_24984)">
<path d="M211.801 49.2246C210.829 48.6915 209.789 48.4133 208.725 48.4133C207.592 48.4133 206.459 48.7378 205.464 49.3405L141.197 88.674C139.347 89.8097 138.191 91.8726 138.191 94.0281V136.653C138.191 138.971 139.393 141.01 141.405 142.146C143.417 143.282 145.776 143.236 147.742 142.03L211.986 102.697C213.836 101.561 214.992 99.4982 214.992 97.3426V54.7178C214.992 52.4 213.789 50.3603 211.801 49.2246ZM205.071 95.1871L177.782 111.945L148.135 129.885V96.1837L174.313 80.098L205.071 61.509V95.1871Z" fill="white"/>
<path d="M169.873 147.964L174.059 150.375L198.711 135.286L194.502 132.898" fill="white"/>
<path d="M127.969 52.2609C127.969 52.7476 128.223 53.188 128.64 53.4198L138.491 59.1216C138.699 59.2375 138.931 59.3071 139.162 59.3071C139.393 59.3071 139.601 59.2607 139.809 59.1448L149.73 53.582C150.147 53.3502 150.401 52.9099 150.424 52.4231C150.424 51.9364 150.17 51.496 149.754 51.2642L139.902 45.5623C139.486 45.3306 139 45.3306 138.584 45.5392L128.663 51.1019C128.246 51.3337 127.969 51.7741 127.969 52.2609Z" fill="#18181B"/>
<path d="M119.667 43.0129L125.864 46.6055C126.073 46.7214 126.304 46.791 126.535 46.791C126.766 46.791 126.974 46.7446 127.183 46.6287L133.427 43.1288C133.843 42.897 134.097 42.4566 134.12 41.9699C134.12 41.4832 133.866 41.0428 133.45 40.811L127.252 37.2184C126.836 36.9866 126.35 36.9866 125.934 37.1952L119.69 40.6951C119.274 40.9269 119.019 41.3673 118.996 41.854C118.996 42.3407 119.25 42.7811 119.667 43.0129ZM126.581 39.8839L130.097 41.9235L126.558 43.9169L123.043 41.8772L126.581 39.8839Z" fill="#18181B"/>
<path d="M104.219 68.3931L96.3788 63.8734C95.9625 63.6416 95.4769 63.6416 95.0606 63.8502L87.1746 68.2772C86.7584 68.509 86.504 68.9494 86.4809 69.4362C86.4809 69.9229 86.7353 70.3633 87.1515 70.5951L94.9912 75.138C95.1994 75.2539 95.4306 75.3234 95.6619 75.3234C95.8931 75.3234 96.1013 75.2771 96.3094 75.1612L104.195 70.7341C104.612 70.5024 104.866 70.062 104.889 69.5752C104.889 69.0653 104.635 68.6249 104.219 68.3931Z" fill="#18181B"/>
<path d="M254.329 130.094L248.687 126.825C248.27 126.594 247.785 126.594 247.368 126.825L240.963 130.418C240.546 130.65 240.292 131.09 240.269 131.577C240.269 132.064 240.523 132.504 240.939 132.736L246.582 136.004C246.79 136.12 247.022 136.189 247.253 136.189C247.484 136.189 247.692 136.143 247.9 136.027L254.306 132.435C254.722 132.203 254.977 131.762 255 131.276C254.977 130.789 254.746 130.325 254.329 130.094ZM247.253 133.315L244.293 131.6L247.993 129.514L250.953 131.229L247.253 133.315Z" fill="#18181B"/>
<path d="M240.176 139.944L232.753 135.656C232.337 135.424 231.851 135.424 231.435 135.656L222.994 140.385C222.577 140.616 222.323 141.057 222.3 141.544C222.3 142.03 222.554 142.471 222.97 142.702L230.394 146.99C230.602 147.106 230.833 147.176 231.065 147.176C231.296 147.176 231.504 147.129 231.712 147.014L240.153 142.285C240.569 142.053 240.824 141.613 240.847 141.126C240.847 140.616 240.592 140.176 240.176 139.944Z" fill="#18181B"/>
<path d="M232.868 113.452L242.35 118.945C242.558 119.061 242.789 119.13 243.021 119.13C243.252 119.13 243.46 119.084 243.668 118.968L253.219 113.614C253.636 113.382 253.89 112.942 253.913 112.455C253.913 111.968 253.659 111.528 253.242 111.296L243.761 105.803C243.344 105.571 242.859 105.571 242.443 105.803L232.892 111.157C232.475 111.389 232.221 111.829 232.198 112.316C232.198 112.756 232.452 113.22 232.868 113.452Z" fill="#18181B"/>
<path d="M223.803 133.524C224.034 133.524 224.242 133.478 224.451 133.362L238.025 125.736C238.442 125.504 238.696 125.064 238.719 124.577C238.719 124.09 238.465 123.65 238.049 123.418L224.566 115.63C224.15 115.399 223.664 115.399 223.248 115.63L217.143 119.061L203.799 110.856L213.373 104.992C216.01 103.369 217.652 100.449 217.652 97.3427V67.4659L226.162 62.2508C228.798 60.6283 230.44 57.7079 230.44 54.602V31.5628C230.44 29.5231 229.376 27.7152 227.619 26.7185C225.838 25.7219 223.757 25.7682 222.022 26.8344L201.186 39.5825L197.994 37.6123C195.127 36.013 191.75 36.0594 188.952 37.7746L137.404 69.3433L116.198 56.1549L122.511 52.6086C122.927 52.3769 123.182 51.9365 123.205 51.4497C123.205 50.963 122.951 50.5226 122.534 50.2908L106.069 40.7646C105.652 40.5328 105.167 40.5328 104.75 40.7414L88.1691 50.0359C87.7528 50.2676 87.4984 50.708 87.4753 51.1948C87.4753 51.6815 87.7297 52.1219 88.1459 52.3537L104.612 61.88C104.82 61.9958 105.051 62.0654 105.282 62.0654C105.514 62.0654 105.722 62.019 105.93 61.9031L113.538 57.6383L134.86 70.8963L124.708 77.1081C122.072 78.7305 120.43 81.651 120.43 84.7569V127.382C120.43 130.673 122.141 133.593 124.986 135.193L140.087 144.487C141.474 145.252 142.978 145.646 144.458 145.646C146.053 145.646 147.672 145.206 149.106 144.325L154.749 140.871L163.421 145.832C163.444 145.832 163.444 145.855 163.467 145.855L169.179 149.123C169.179 149.123 169.203 149.123 169.203 149.146L173.388 151.557C173.573 151.649 173.758 151.719 173.943 151.719C173.966 151.719 174.013 151.719 174.036 151.719C174.059 151.719 174.082 151.719 174.105 151.719C174.152 151.719 174.175 151.719 174.221 151.719C174.267 151.719 174.313 151.696 174.36 151.696C174.36 151.696 174.383 151.696 174.406 151.696C174.452 151.696 174.498 151.673 174.522 151.649C174.545 151.649 174.545 151.649 174.568 151.626C174.614 151.603 174.637 151.603 174.683 151.58C174.707 151.58 174.73 151.557 174.73 151.557C174.73 151.557 174.753 151.557 174.753 151.533L199.382 136.444C199.775 136.189 200.029 135.749 200.029 135.285C200.029 134.822 199.775 134.382 199.359 134.15L195.173 131.739C192.051 129.954 190.085 126.594 190.085 122.978V119.269L201.255 112.432L214.483 120.567L209.673 123.256C209.257 123.488 209.002 123.928 208.979 124.415C208.979 124.902 209.234 125.342 209.65 125.574L223.132 133.362C223.34 133.478 223.572 133.524 223.803 133.524ZM105.305 59.1913L91.5223 51.218L105.398 43.4301L119.181 51.4034L105.305 59.1913ZM214.992 97.3427C214.992 99.5214 213.836 101.561 211.986 102.697L201.255 109.279L189.461 102.025C192.675 96.995 194.433 91.7104 194.433 87.0747C194.433 82.3695 192.606 78.7074 189.299 76.7836C187.888 75.9723 186.293 75.5319 184.558 75.4392L192.999 70.3168V73.33C192.999 75.2074 193.97 76.8995 195.612 77.8266C196.399 78.267 197.278 78.4988 198.133 78.4988C199.058 78.4988 199.983 78.2438 200.816 77.7339L203.707 75.9723V95.1871C203.707 95.9288 204.308 96.5314 205.048 96.5314C205.788 96.5314 206.389 95.9288 206.389 95.1871V61.5091C206.389 61.0224 206.135 60.582 205.718 60.3502C205.302 60.1184 204.793 60.1184 204.377 60.3734L195.705 65.6116V55.2973L205.441 49.3405C206.459 48.7147 207.592 48.4134 208.702 48.4134C209.742 48.4134 210.806 48.6915 211.777 49.2246C213.789 50.3604 214.992 52.4 214.992 54.7179V97.3427ZM187.333 100.704C186.709 100.333 185.876 100.518 185.506 101.144C185.113 101.77 185.321 102.581 185.946 102.975L186.825 103.531C185.923 104.319 184.928 104.621 184.327 104.18C183.518 103.601 183.703 102.025 184.674 100.657C185.715 99.2665 187.195 98.5248 188.004 99.0811C188.559 99.4751 188.675 100.356 188.351 101.329L187.333 100.704ZM203.753 72.8433L199.474 75.4624C198.688 75.9492 197.763 75.9492 196.977 75.5088C196.191 75.0684 195.705 74.2571 195.705 73.3532V68.7175L203.73 63.8501L203.753 72.8433ZM201.163 42.7115L206.435 46.0028C205.557 46.2114 204.701 46.5823 203.892 47.069L195.705 52.0755V49.5955C195.705 47.4167 196.861 45.3539 198.711 44.2181L201.163 42.7115ZM223.41 29.1059C224.312 28.5496 225.399 28.5264 226.301 29.0595C227.203 29.5926 227.758 30.5198 227.758 31.5628V54.6252C227.758 56.8039 226.601 58.8668 224.751 59.9793L217.628 64.3368V54.7179C217.628 51.4266 215.917 48.5061 213.049 46.9068L203.707 41.1586L223.41 29.1059ZM190.363 40.046C192.329 38.8408 194.687 38.7944 196.676 39.907L198.642 41.1354L197.324 41.9235C194.687 43.5459 193.045 46.4664 193.045 49.5723V53.698L140.364 85.9622L127.969 78.2438L190.363 40.046ZM187.426 122.955C187.426 127.521 189.877 131.762 193.855 134.034L196.098 135.309L174.059 148.798L170.544 146.782C167.422 144.997 165.456 141.636 165.456 137.997V134.266L187.426 120.822V122.955ZM188.235 117.253C188.189 117.276 188.12 117.299 188.073 117.346L163.444 132.411L154.078 138.16C154.078 138.16 154.055 138.16 154.055 138.183L147.765 142.03C145.799 143.236 143.417 143.282 141.428 142.146C139.416 141.011 138.214 138.971 138.214 136.653V94.0514C138.214 91.8726 139.37 89.8329 141.22 88.6972L172.695 69.3897C172.972 69.7837 173.342 70.1314 173.805 70.3864C174.313 70.6877 174.892 70.8268 175.447 70.8268C176.048 70.8268 176.649 70.6645 177.181 70.34C179.262 69.0884 180.604 66.8633 180.789 64.4527L193.069 56.943V67.2341L174.753 78.3133C171.446 80.2603 168.324 83.0881 165.664 86.4489L164.739 84.7337C164.184 83.6907 162.635 83.8529 162.311 85.0119L161.27 88.7667C159.189 96.2997 154.98 110.137 163.953 114.912C165.364 115.654 166.844 116.024 168.347 116.094L149.476 127.521V96.1838C149.476 95.4421 148.875 94.8394 148.135 94.8394C147.395 94.8394 146.793 95.4421 146.793 96.1838V129.862C146.793 130.349 147.048 130.789 147.464 131.021C147.672 131.137 147.904 131.183 148.112 131.183C148.343 131.183 148.597 131.113 148.805 130.998L178.476 113.081C178.522 113.058 178.569 113.034 178.592 112.988C181.991 110.902 185.252 107.842 187.958 104.227L198.711 110.832L188.235 117.253ZM223.896 118.319L234.695 124.577L223.826 130.673L213.026 124.415L223.896 118.319Z" fill="#18181B"/>
<path d="M176.094 102.094C179.054 101.491 184.373 99.475 184.373 99.475C187.981 95.6274 188.328 87.4223 181.714 88.6971C178.823 89.2302 176.071 91.4321 172.926 92.4983C169.596 93.6341 165.734 93.3559 164.184 90.9686C162.45 97.2499 160.322 106.637 164.115 109.511C167.815 112.339 178.684 109.117 182.685 102.558C178.939 103.67 176.649 104.227 174.475 104.342C170.405 104.597 166.312 102.349 165.502 98.0843C167.052 101.77 171.793 102.975 176.094 102.094Z" fill="white"/>
<path d="M207.06 118.69C207.545 118.69 207.939 118.296 207.939 117.809C207.939 117.323 207.545 116.928 207.06 116.928C206.574 116.928 206.181 117.323 206.181 117.809C206.181 118.296 206.574 118.69 207.06 118.69Z" fill="#18181B"/>
<path d="M204.886 121.981C205.371 121.981 205.765 121.587 205.765 121.1C205.765 120.614 205.371 120.22 204.886 120.22C204.401 120.22 204.007 120.614 204.007 121.1C204.007 121.587 204.401 121.981 204.886 121.981Z" fill="#18181B"/>
<path d="M207.06 125.296C207.545 125.296 207.939 124.901 207.939 124.415C207.939 123.929 207.545 123.534 207.06 123.534C206.574 123.534 206.181 123.929 206.181 124.415C206.181 124.901 206.574 125.296 207.06 125.296Z" fill="#18181B"/>
<path d="M202.735 125.296C203.221 125.296 203.614 124.901 203.614 124.415C203.614 123.929 203.221 123.534 202.735 123.534C202.25 123.534 201.856 123.929 201.856 124.415C201.856 124.901 202.25 125.296 202.735 125.296Z" fill="#18181B"/>
<path d="M198.388 125.296C198.873 125.296 199.266 124.901 199.266 124.415C199.266 123.929 198.873 123.534 198.388 123.534C197.902 123.534 197.509 123.929 197.509 124.415C197.509 124.901 197.902 125.296 198.388 125.296Z" fill="#18181B"/>
<path d="M194.063 125.296C194.548 125.296 194.942 124.901 194.942 124.415C194.942 123.929 194.548 123.534 194.063 123.534C193.578 123.534 193.184 123.929 193.184 124.415C193.184 124.901 193.578 125.296 194.063 125.296Z" fill="#18181B"/>
<path d="M209.234 128.61C209.719 128.61 210.112 128.216 210.112 127.729C210.112 127.243 209.719 126.849 209.234 126.849C208.748 126.849 208.355 127.243 208.355 127.729C208.355 128.216 208.748 128.61 209.234 128.61Z" fill="#18181B"/>
<path d="M204.886 128.61C205.371 128.61 205.765 128.216 205.765 127.729C205.765 127.243 205.371 126.849 204.886 126.849C204.401 126.849 204.007 127.243 204.007 127.729C204.007 128.216 204.401 128.61 204.886 128.61Z" fill="#18181B"/>
<path d="M213.558 128.61C214.044 128.61 214.437 128.216 214.437 127.729C214.437 127.243 214.044 126.849 213.558 126.849C213.073 126.849 212.679 127.243 212.679 127.729C212.679 128.216 213.073 128.61 213.558 128.61Z" fill="#18181B"/>
<path d="M200.561 128.61C201.047 128.61 201.44 128.216 201.44 127.729C201.44 127.243 201.047 126.849 200.561 126.849C200.076 126.849 199.683 127.243 199.683 127.729C199.683 128.216 200.076 128.61 200.561 128.61Z" fill="#18181B"/>
<path d="M196.237 128.61C196.722 128.61 197.116 128.216 197.116 127.729C197.116 127.243 196.722 126.849 196.237 126.849C195.751 126.849 195.358 127.243 195.358 127.729C195.358 128.216 195.751 128.61 196.237 128.61Z" fill="#18181B"/>
<path d="M189.715 125.296C190.201 125.296 190.594 124.901 190.594 124.415C190.594 123.929 190.201 123.534 189.715 123.534C189.23 123.534 188.836 123.929 188.836 124.415C188.836 124.901 189.23 125.296 189.715 125.296Z" fill="#18181B"/>
<path d="M191.889 128.61C192.374 128.61 192.768 128.216 192.768 127.729C192.768 127.243 192.374 126.849 191.889 126.849C191.404 126.849 191.01 127.243 191.01 127.729C191.01 128.216 191.404 128.61 191.889 128.61Z" fill="#18181B"/>
<path d="M207.06 131.925C207.545 131.925 207.939 131.53 207.939 131.044C207.939 130.557 207.545 130.163 207.06 130.163C206.574 130.163 206.181 130.557 206.181 131.044C206.181 131.53 206.574 131.925 207.06 131.925Z" fill="#18181B"/>
<path d="M202.735 131.925C203.221 131.925 203.614 131.53 203.614 131.044C203.614 130.557 203.221 130.163 202.735 130.163C202.25 130.163 201.856 130.557 201.856 131.044C201.856 131.53 202.25 131.925 202.735 131.925Z" fill="#18181B"/>
<path d="M211.407 131.925C211.893 131.925 212.286 131.53 212.286 131.044C212.286 130.557 211.893 130.163 211.407 130.163C210.922 130.163 210.529 130.557 210.529 131.044C210.529 131.53 210.922 131.925 211.407 131.925Z" fill="#18181B"/>
<path d="M215.732 131.925C216.217 131.925 216.611 131.53 216.611 131.044C216.611 130.557 216.217 130.163 215.732 130.163C215.247 130.163 214.853 130.557 214.853 131.044C214.853 131.53 215.247 131.925 215.732 131.925Z" fill="#18181B"/>
<path d="M220.057 131.925C220.542 131.925 220.935 131.53 220.935 131.044C220.935 130.557 220.542 130.163 220.057 130.163C219.571 130.163 219.178 130.557 219.178 131.044C219.178 131.53 219.571 131.925 220.057 131.925Z" fill="#18181B"/>
<path d="M198.388 131.925C198.873 131.925 199.266 131.53 199.266 131.044C199.266 130.557 198.873 130.163 198.388 130.163C197.902 130.163 197.509 130.557 197.509 131.044C197.509 131.53 197.902 131.925 198.388 131.925Z" fill="#18181B"/>
<path d="M196.237 115.375C196.722 115.375 197.116 114.981 197.116 114.495C197.116 114.008 196.722 113.614 196.237 113.614C195.751 113.614 195.358 114.008 195.358 114.495C195.358 114.981 195.751 115.375 196.237 115.375Z" fill="#18181B"/>
<path d="M198.388 118.69C198.873 118.69 199.266 118.296 199.266 117.809C199.266 117.323 198.873 116.928 198.388 116.928C197.902 116.928 197.509 117.323 197.509 117.809C197.509 118.296 197.902 118.69 198.388 118.69Z" fill="#18181B"/>
<path d="M194.063 118.69C194.548 118.69 194.942 118.296 194.942 117.809C194.942 117.323 194.548 116.928 194.063 116.928C193.578 116.928 193.184 117.323 193.184 117.809C193.184 118.296 193.578 118.69 194.063 118.69Z" fill="#18181B"/>
<path d="M196.237 121.981C196.722 121.981 197.116 121.587 197.116 121.1C197.116 120.614 196.722 120.22 196.237 120.22C195.751 120.22 195.358 120.614 195.358 121.1C195.358 121.587 195.751 121.981 196.237 121.981Z" fill="#18181B"/>
<path d="M191.889 121.981C192.374 121.981 192.768 121.587 192.768 121.1C192.768 120.614 192.374 120.22 191.889 120.22C191.404 120.22 191.01 120.614 191.01 121.1C191.01 121.587 191.404 121.981 191.889 121.981Z" fill="#18181B"/>
<path d="M200.561 121.981C201.047 121.981 201.44 121.587 201.44 121.1C201.44 120.614 201.047 120.22 200.561 120.22C200.076 120.22 199.683 120.614 199.683 121.1C199.683 121.587 200.076 121.981 200.561 121.981Z" fill="#18181B"/>
<path d="M209.234 122.004C209.719 122.004 210.112 121.61 210.112 121.124C210.112 120.637 209.719 120.243 209.234 120.243C208.748 120.243 208.355 120.637 208.355 121.124C208.355 121.61 208.748 122.004 209.234 122.004Z" fill="#18181B"/>
<path d="M202.735 112.061C203.221 112.061 203.614 111.667 203.614 111.18C203.614 110.694 203.221 110.299 202.735 110.299C202.25 110.299 201.856 110.694 201.856 111.18C201.856 111.667 202.25 112.061 202.735 112.061Z" fill="#18181B"/>
<path d="M204.886 115.375C205.371 115.375 205.765 114.981 205.765 114.495C205.765 114.008 205.371 113.614 204.886 113.614C204.401 113.614 204.007 114.008 204.007 114.495C204.007 114.981 204.401 115.375 204.886 115.375Z" fill="#18181B"/>
<path d="M200.561 115.375C201.047 115.375 201.44 114.981 201.44 114.495C201.44 114.008 201.047 113.614 200.561 113.614C200.076 113.614 199.683 114.008 199.683 114.495C199.683 114.981 200.076 115.375 200.561 115.375Z" fill="#18181B"/>
<path d="M202.735 118.69C203.221 118.69 203.614 118.296 203.614 117.809C203.614 117.323 203.221 116.928 202.735 116.928C202.25 116.928 201.856 117.323 201.856 117.809C201.856 118.296 202.25 118.69 202.735 118.69Z" fill="#18181B"/>
<path d="M213.558 115.375C214.044 115.375 214.437 114.981 214.437 114.495C214.437 114.008 214.044 113.614 213.558 113.614C213.073 113.614 212.679 114.008 212.679 114.495C212.679 114.981 213.073 115.375 213.558 115.375Z" fill="#18181B"/>
<path d="M209.234 108.77C209.719 108.77 210.112 108.375 210.112 107.889C210.112 107.402 209.719 107.008 209.234 107.008C208.748 107.008 208.355 107.402 208.355 107.889C208.355 108.375 208.748 108.77 209.234 108.77Z" fill="#18181B"/>
<path d="M211.384 112.061C211.87 112.061 212.263 111.667 212.263 111.18C212.263 110.694 211.87 110.299 211.384 110.299C210.899 110.299 210.506 110.694 210.506 111.18C210.506 111.667 210.899 112.061 211.384 112.061Z" fill="#18181B"/>
<path d="M207.06 112.061C207.545 112.061 207.939 111.667 207.939 111.18C207.939 110.694 207.545 110.299 207.06 110.299C206.574 110.299 206.181 110.694 206.181 111.18C206.181 111.667 206.574 112.061 207.06 112.061Z" fill="#18181B"/>
<path d="M215.732 112.061C216.217 112.061 216.611 111.667 216.611 111.18C216.611 110.694 216.217 110.299 215.732 110.299C215.247 110.299 214.853 110.694 214.853 111.18C214.853 111.667 215.247 112.061 215.732 112.061Z" fill="#18181B"/>
<path d="M209.234 115.375C209.719 115.375 210.112 114.981 210.112 114.495C210.112 114.008 209.719 113.614 209.234 113.614C208.748 113.614 208.355 114.008 208.355 114.495C208.355 114.981 208.748 115.375 209.234 115.375Z" fill="#18181B"/>
<path d="M220.057 118.69C220.542 118.69 220.935 118.296 220.935 117.809C220.935 117.323 220.542 116.928 220.057 116.928C219.571 116.928 219.178 117.323 219.178 117.809C219.178 118.296 219.571 118.69 220.057 118.69Z" fill="#18181B"/>
<path d="M217.906 115.375C218.391 115.375 218.785 114.981 218.785 114.495C218.785 114.008 218.391 113.614 217.906 113.614C217.421 113.614 217.027 114.008 217.027 114.495C217.027 114.981 217.421 115.375 217.906 115.375Z" fill="#18181B"/>
<path d="M222.23 115.375C222.716 115.375 223.109 114.981 223.109 114.495C223.109 114.008 222.716 113.614 222.23 113.614C221.745 113.614 221.352 114.008 221.352 114.495C221.352 114.981 221.745 115.375 222.23 115.375Z" fill="#18181B"/>
<path d="M215.732 118.69C216.217 118.69 216.611 118.296 216.611 117.809C216.611 117.323 216.217 116.928 215.732 116.928C215.247 116.928 214.853 117.323 214.853 117.809C214.853 118.296 215.247 118.69 215.732 118.69Z" fill="#18181B"/>
<path d="M194.063 131.925C194.548 131.925 194.942 131.53 194.942 131.044C194.942 130.557 194.548 130.163 194.063 130.163C193.578 130.163 193.184 130.557 193.184 131.044C193.184 131.53 193.578 131.925 194.063 131.925Z" fill="#18181B"/>
<path d="M205.765 134.335C205.765 134.822 205.372 135.216 204.886 135.216C204.4 135.216 204.007 134.822 204.007 134.335C204.007 133.848 204.4 133.454 204.886 133.454C205.372 133.454 205.765 133.872 205.765 134.335Z" fill="#18181B"/>
<path d="M200.561 135.216C201.047 135.216 201.44 134.822 201.44 134.335C201.44 133.849 201.047 133.454 200.561 133.454C200.076 133.454 199.683 133.849 199.683 134.335C199.683 134.822 200.076 135.216 200.561 135.216Z" fill="#18181B"/>
<path d="M209.234 135.216C209.719 135.216 210.112 134.822 210.112 134.335C210.112 133.849 209.719 133.454 209.234 133.454C208.748 133.454 208.355 133.849 208.355 134.335C208.355 134.822 208.748 135.216 209.234 135.216Z" fill="#18181B"/>
<path d="M213.558 135.216C214.044 135.216 214.437 134.822 214.437 134.335C214.437 133.849 214.044 133.454 213.558 133.454C213.073 133.454 212.679 133.849 212.679 134.335C212.679 134.822 213.073 135.216 213.558 135.216Z" fill="#18181B"/>
<path d="M217.906 135.216C218.391 135.216 218.785 134.822 218.785 134.335C218.785 133.849 218.391 133.454 217.906 133.454C217.421 133.454 217.027 133.849 217.027 134.335C217.027 134.822 217.421 135.216 217.906 135.216Z" fill="#18181B"/>
<path d="M202.735 138.531C203.221 138.531 203.614 138.136 203.614 137.65C203.614 137.163 203.221 136.769 202.735 136.769C202.25 136.769 201.856 137.163 201.856 137.65C201.856 138.136 202.25 138.531 202.735 138.531Z" fill="#18181B"/>
<path d="M198.388 138.531C198.873 138.531 199.266 138.136 199.266 137.65C199.266 137.163 198.873 136.769 198.388 136.769C197.902 136.769 197.509 137.163 197.509 137.65C197.509 138.136 197.902 138.531 198.388 138.531Z" fill="#18181B"/>
<path d="M200.561 141.845C201.047 141.845 201.44 141.451 201.44 140.964C201.44 140.478 201.047 140.083 200.561 140.083C200.076 140.083 199.683 140.478 199.683 140.964C199.683 141.451 200.076 141.845 200.561 141.845Z" fill="#18181B"/>
<path d="M196.237 141.845C196.722 141.845 197.116 141.451 197.116 140.964C197.116 140.478 196.722 140.083 196.237 140.083C195.751 140.083 195.358 140.478 195.358 140.964C195.358 141.451 195.751 141.845 196.237 141.845Z" fill="#18181B"/>
<path d="M191.889 141.845C192.374 141.845 192.768 141.451 192.768 140.964C192.768 140.478 192.374 140.083 191.889 140.083C191.404 140.083 191.01 140.478 191.01 140.964C191.01 141.451 191.404 141.845 191.889 141.845Z" fill="#18181B"/>
<path d="M194.063 145.159C194.548 145.159 194.942 144.765 194.942 144.279C194.942 143.792 194.548 143.398 194.063 143.398C193.578 143.398 193.184 143.792 193.184 144.279C193.184 144.765 193.578 145.159 194.063 145.159Z" fill="#18181B"/>
<path d="M189.715 145.159C190.201 145.159 190.594 144.765 190.594 144.279C190.594 143.792 190.201 143.398 189.715 143.398C189.23 143.398 188.836 143.792 188.836 144.279C188.836 144.765 189.23 145.159 189.715 145.159Z" fill="#18181B"/>
<path d="M185.391 145.159C185.876 145.159 186.27 144.765 186.27 144.279C186.27 143.792 185.876 143.398 185.391 143.398C184.905 143.398 184.512 143.792 184.512 144.279C184.512 144.765 184.905 145.159 185.391 145.159Z" fill="#18181B"/>
<path d="M187.565 148.451C188.05 148.451 188.443 148.056 188.443 147.57C188.443 147.084 188.05 146.689 187.565 146.689C187.079 146.689 186.686 147.084 186.686 147.57C186.686 148.056 187.079 148.451 187.565 148.451Z" fill="#18181B"/>
<path d="M183.217 148.451C183.702 148.451 184.096 148.056 184.096 147.57C184.096 147.084 183.702 146.689 183.217 146.689C182.732 146.689 182.338 147.084 182.338 147.57C182.338 148.056 182.732 148.451 183.217 148.451Z" fill="#18181B"/>
<path d="M165.872 148.451C166.358 148.451 166.751 148.056 166.751 147.57C166.751 147.084 166.358 146.689 165.872 146.689C165.387 146.689 164.994 147.084 164.994 147.57C164.994 148.056 165.387 148.451 165.872 148.451Z" fill="#18181B"/>
<path d="M148.551 148.451C149.036 148.451 149.43 148.056 149.43 147.57C149.43 147.084 149.036 146.689 148.551 146.689C148.066 146.689 147.672 147.084 147.672 147.57C147.672 148.056 148.066 148.451 148.551 148.451Z" fill="#18181B"/>
<path d="M144.203 148.451C144.689 148.451 145.082 148.056 145.082 147.57C145.082 147.084 144.689 146.689 144.203 146.689C143.718 146.689 143.325 147.084 143.325 147.57C143.325 148.056 143.718 148.451 144.203 148.451Z" fill="#18181B"/>
<path d="M180.187 150.884C180.187 150.398 180.581 150.004 181.066 150.004C181.552 150.004 181.922 150.398 181.922 150.884C181.922 151.371 181.529 151.742 181.066 151.742C180.581 151.765 180.187 151.371 180.187 150.884Z" fill="#18181B"/>
<path d="M177.597 150.884C177.597 151.371 177.204 151.742 176.718 151.742C176.233 151.742 175.863 151.348 175.863 150.884C175.863 150.398 176.256 150.004 176.718 150.004C177.204 150.027 177.597 150.421 177.597 150.884Z" fill="#18181B"/>
<path d="M172.394 151.765C171.908 151.765 171.515 151.371 171.515 150.908C171.515 150.421 171.908 150.027 172.394 150.027C172.88 150.027 173.25 150.421 173.25 150.908C173.25 151.371 172.856 151.765 172.394 151.765Z" fill="#18181B"/>
<path d="M168.925 150.884C168.925 151.371 168.532 151.742 168.046 151.742C167.561 151.742 167.191 151.348 167.191 150.884C167.191 150.398 167.584 150.004 168.046 150.004C168.532 150.027 168.925 150.421 168.925 150.884Z" fill="#18181B"/>
<path d="M163.722 151.765C163.236 151.765 162.843 151.371 162.843 150.908C162.843 150.421 163.236 150.027 163.722 150.027C164.207 150.027 164.577 150.421 164.577 150.908C164.577 151.371 164.184 151.765 163.722 151.765Z" fill="#18181B"/>
<path d="M160.253 150.884C160.253 151.371 159.86 151.742 159.374 151.742C158.888 151.742 158.518 151.348 158.518 150.884C158.518 150.398 158.911 150.004 159.374 150.004C159.86 150.027 160.253 150.421 160.253 150.884Z" fill="#18181B"/>
<path d="M155.905 150.884C155.905 151.371 155.512 151.742 155.026 151.742C154.541 151.742 154.148 151.348 154.148 150.884C154.148 150.398 154.541 150.004 155.026 150.004C155.512 150.004 155.905 150.421 155.905 150.884Z" fill="#18181B"/>
<path d="M151.581 150.884C151.581 151.371 151.187 151.742 150.702 151.742C150.216 151.742 149.823 151.348 149.823 150.884C149.823 150.398 150.216 150.004 150.702 150.004C151.187 150.004 151.581 150.421 151.581 150.884Z" fill="#18181B"/>
<path d="M147.233 150.884C147.233 151.371 146.84 151.742 146.354 151.742C145.868 151.742 145.475 151.348 145.475 150.884C145.475 150.398 145.868 150.004 146.354 150.004C146.84 150.004 147.233 150.421 147.233 150.884Z" fill="#18181B"/>
<path d="M142.029 150.027C142.515 150.027 142.908 150.421 142.908 150.908C142.908 151.394 142.515 151.765 142.029 151.765C141.544 151.765 141.151 151.371 141.151 150.908C141.174 150.421 141.567 150.027 142.029 150.027Z" fill="#18181B"/>
<path d="M138.584 150.884C138.584 151.371 138.191 151.742 137.705 151.742C137.219 151.742 136.826 151.348 136.826 150.884C136.826 150.398 137.219 150.004 137.705 150.004C138.191 150.004 138.584 150.421 138.584 150.884Z" fill="#18181B"/>
<path d="M178.892 155.08C179.378 155.08 179.771 154.685 179.771 154.199C179.771 153.712 179.378 153.318 178.892 153.318C178.407 153.318 178.014 153.712 178.014 154.199C178.014 154.685 178.407 155.08 178.892 155.08Z" fill="#18181B"/>
<path d="M207.06 138.531C207.545 138.531 207.939 138.136 207.939 137.65C207.939 137.163 207.545 136.769 207.06 136.769C206.574 136.769 206.181 137.163 206.181 137.65C206.181 138.136 206.574 138.531 207.06 138.531Z" fill="#18181B"/>
<path d="M211.384 138.531C211.87 138.531 212.263 138.136 212.263 137.65C212.263 137.163 211.87 136.769 211.384 136.769C210.899 136.769 210.506 137.163 210.506 137.65C210.506 138.136 210.899 138.531 211.384 138.531Z" fill="#18181B"/>
<path d="M204.886 141.845C205.371 141.845 205.765 141.451 205.765 140.964C205.765 140.478 205.371 140.083 204.886 140.083C204.401 140.083 204.007 140.478 204.007 140.964C204.007 141.451 204.401 141.845 204.886 141.845Z" fill="#18181B"/>
<path d="M209.234 141.845C209.719 141.845 210.112 141.451 210.112 140.964C210.112 140.478 209.719 140.083 209.234 140.083C208.748 140.083 208.355 140.478 208.355 140.964C208.355 141.451 208.748 141.845 209.234 141.845Z" fill="#18181B"/>
<path d="M202.712 145.159C203.197 145.159 203.591 144.765 203.591 144.279C203.591 143.792 203.197 143.398 202.712 143.398C202.227 143.398 201.833 143.792 201.833 144.279C201.833 144.765 202.227 145.159 202.712 145.159Z" fill="#18181B"/>
<path d="M198.388 145.159C198.873 145.159 199.266 144.765 199.266 144.279C199.266 143.792 198.873 143.398 198.388 143.398C197.902 143.398 197.509 143.792 197.509 144.279C197.509 144.765 197.902 145.159 198.388 145.159Z" fill="#18181B"/>
<path d="M196.237 148.451C196.722 148.451 197.116 148.056 197.116 147.57C197.116 147.084 196.722 146.689 196.237 146.689C195.751 146.689 195.358 147.084 195.358 147.57C195.358 148.056 195.751 148.451 196.237 148.451Z" fill="#18181B"/>
<path d="M191.889 148.451C192.374 148.451 192.768 148.056 192.768 147.57C192.768 147.084 192.374 146.689 191.889 146.689C191.404 146.689 191.01 147.084 191.01 147.57C191.01 148.056 191.404 148.451 191.889 148.451Z" fill="#18181B"/>
<path d="M189.715 151.765C190.201 151.765 190.594 151.371 190.594 150.884C190.594 150.398 190.201 150.004 189.715 150.004C189.23 150.004 188.836 150.398 188.836 150.884C188.836 151.371 189.23 151.765 189.715 151.765Z" fill="#18181B"/>
<path d="M185.391 151.765C185.876 151.765 186.27 151.371 186.27 150.884C186.27 150.398 185.876 150.004 185.391 150.004C184.905 150.004 184.512 150.398 184.512 150.884C184.512 151.371 184.905 151.765 185.391 151.765Z" fill="#18181B"/>
<path d="M182.361 154.199C182.361 153.712 182.754 153.318 183.24 153.318C183.726 153.318 184.096 153.712 184.096 154.199C184.096 154.686 183.703 155.056 183.24 155.056C182.731 155.056 182.361 154.686 182.361 154.199Z" fill="#18181B"/>
<path d="M186.686 154.199C186.686 153.712 187.079 153.318 187.565 153.318C188.05 153.318 188.42 153.712 188.42 154.199C188.42 154.686 188.027 155.056 187.565 155.056C187.079 155.08 186.686 154.686 186.686 154.199Z" fill="#18181B"/>
<path d="M174.545 155.08C175.03 155.08 175.423 154.685 175.423 154.199C175.423 153.712 175.03 153.318 174.545 153.318C174.059 153.318 173.666 153.712 173.666 154.199C173.666 154.685 174.059 155.08 174.545 155.08Z" fill="#18181B"/>
<path d="M170.22 155.08C170.705 155.08 171.099 154.685 171.099 154.199C171.099 153.712 170.705 153.318 170.22 153.318C169.735 153.318 169.341 153.712 169.341 154.199C169.341 154.685 169.735 155.08 170.22 155.08Z" fill="#18181B"/>
<path d="M165.872 155.08C166.358 155.08 166.751 154.685 166.751 154.199C166.751 153.712 166.358 153.318 165.872 153.318C165.387 153.318 164.994 153.712 164.994 154.199C164.994 154.685 165.387 155.08 165.872 155.08Z" fill="#18181B"/>
<path d="M161.548 155.08C162.033 155.08 162.427 154.685 162.427 154.199C162.427 153.712 162.033 153.318 161.548 153.318C161.062 153.318 160.669 153.712 160.669 154.199C160.669 154.685 161.062 155.08 161.548 155.08Z" fill="#18181B"/>
<path d="M157.2 155.08C157.685 155.08 158.079 154.685 158.079 154.199C158.079 153.712 157.685 153.318 157.2 153.318C156.715 153.318 156.321 153.712 156.321 154.199C156.321 154.685 156.715 155.08 157.2 155.08Z" fill="#18181B"/>
<path d="M152.876 155.08C153.361 155.08 153.754 154.685 153.754 154.199C153.754 153.712 153.361 153.318 152.876 153.318C152.39 153.318 151.997 153.712 151.997 154.199C151.997 154.685 152.39 155.08 152.876 155.08Z" fill="#18181B"/>
<path d="M148.551 155.08C149.036 155.08 149.43 154.685 149.43 154.199C149.43 153.712 149.036 153.318 148.551 153.318C148.066 153.318 147.672 153.712 147.672 154.199C147.672 154.685 148.066 155.08 148.551 155.08Z" fill="#18181B"/>
<path d="M144.203 155.08C144.689 155.08 145.082 154.685 145.082 154.199C145.082 153.712 144.689 153.318 144.203 153.318C143.718 153.318 143.325 153.712 143.325 154.199C143.325 154.685 143.718 155.08 144.203 155.08Z" fill="#18181B"/>
<path d="M171.515 157.514C171.515 157.027 171.908 156.633 172.394 156.633C172.88 156.633 173.25 157.027 173.25 157.514C173.25 158 172.856 158.394 172.394 158.394C171.908 158.371 171.515 157.977 171.515 157.514Z" fill="#18181B"/>
<path d="M168.046 156.633C168.532 156.633 168.925 157.027 168.925 157.514C168.925 158 168.532 158.394 168.046 158.394C167.561 158.394 167.191 158 167.191 157.514C167.191 157.027 167.561 156.633 168.046 156.633Z" fill="#18181B"/>
<path d="M175.84 157.514C175.84 157.027 176.233 156.633 176.718 156.633C177.204 156.633 177.574 157.027 177.574 157.514C177.574 158 177.181 158.394 176.718 158.394C176.233 158.371 175.84 157.977 175.84 157.514Z" fill="#18181B"/>
<path d="M180.164 157.514C180.164 157.027 180.557 156.633 181.043 156.633C181.529 156.633 181.899 157.027 181.899 157.514C181.899 158 181.506 158.394 181.043 158.394C180.557 158.371 180.164 157.977 180.164 157.514Z" fill="#18181B"/>
<path d="M163.722 158.371C163.236 158.371 162.843 157.977 162.843 157.49C162.843 157.004 163.236 156.61 163.722 156.61C164.207 156.61 164.577 157.004 164.577 157.49C164.577 157.977 164.184 158.371 163.722 158.371Z" fill="#18181B"/>
<path d="M159.374 156.633C159.86 156.633 160.253 157.027 160.253 157.514C160.253 158 159.86 158.394 159.374 158.394C158.888 158.394 158.518 158 158.518 157.514C158.518 157.027 158.911 156.633 159.374 156.633Z" fill="#18181B"/>
<path d="M163.722 145.136C163.236 145.136 162.843 144.742 162.843 144.279C162.843 143.792 163.236 143.398 163.722 143.398C164.207 143.398 164.577 143.792 164.577 144.279C164.577 144.742 164.184 145.136 163.722 145.136Z" fill="#18181B"/>
<path d="M160.253 144.279C160.253 144.765 159.86 145.136 159.374 145.136C158.888 145.136 158.518 144.742 158.518 144.279C158.518 143.792 158.911 143.398 159.374 143.398C159.86 143.398 160.253 143.792 160.253 144.279Z" fill="#18181B"/>
<path d="M155.905 144.279C155.905 144.765 155.512 145.136 155.026 145.136C154.541 145.136 154.148 144.742 154.148 144.279C154.148 143.792 154.541 143.398 155.026 143.398C155.512 143.398 155.905 143.792 155.905 144.279Z" fill="#18181B"/>
<path d="M151.581 144.279C151.581 144.765 151.187 145.136 150.702 145.136C150.216 145.136 149.823 144.742 149.823 144.279C149.823 143.792 150.216 143.398 150.702 143.398C151.187 143.398 151.581 143.792 151.581 144.279Z" fill="#18181B"/>
<path d="M161.548 148.451C162.033 148.451 162.427 148.056 162.427 147.57C162.427 147.084 162.033 146.689 161.548 146.689C161.062 146.689 160.669 147.084 160.669 147.57C160.669 148.056 161.062 148.451 161.548 148.451Z" fill="#18181B"/>
<path d="M157.2 148.451C157.685 148.451 158.079 148.056 158.079 147.57C158.079 147.084 157.685 146.689 157.2 146.689C156.715 146.689 156.321 147.084 156.321 147.57C156.321 148.056 156.715 148.451 157.2 148.451Z" fill="#18181B"/>
<path d="M152.876 148.451C153.361 148.451 153.754 148.056 153.754 147.57C153.754 147.084 153.361 146.689 152.876 146.689C152.39 146.689 151.997 147.084 151.997 147.57C151.997 148.056 152.39 148.451 152.876 148.451Z" fill="#18181B"/>
<path d="M155.049 158.394C155.535 158.394 155.928 158 155.928 157.514C155.928 157.027 155.535 156.633 155.049 156.633C154.564 156.633 154.171 157.027 154.171 157.514C154.171 158 154.564 158.394 155.049 158.394Z" fill="#18181B"/>
<path d="M170.22 159.947C170.706 159.947 171.099 160.341 171.099 160.828C171.099 161.315 170.706 161.709 170.22 161.709C169.734 161.709 169.364 161.315 169.364 160.828C169.364 160.341 169.734 159.947 170.22 159.947Z" fill="#18181B"/>
<path d="M165.872 161.686C165.387 161.686 164.994 161.292 164.994 160.805C164.994 160.318 165.387 159.924 165.872 159.924C166.358 159.924 166.728 160.318 166.728 160.805C166.751 161.292 166.358 161.686 165.872 161.686Z" fill="#18181B"/>
<path d="M168.046 165C167.561 165 167.167 164.606 167.167 164.119C167.167 163.633 167.561 163.239 168.046 163.239C168.532 163.239 168.902 163.633 168.902 164.119C168.902 164.606 168.532 165 168.046 165Z" fill="#18181B"/>
<path d="M163.699 165C163.213 165 162.82 164.606 162.82 164.119C162.82 163.633 163.213 163.239 163.699 163.239C164.184 163.239 164.554 163.633 164.554 164.119C164.554 164.606 164.184 165 163.699 165Z" fill="#18181B"/>
<path d="M174.545 159.947C175.03 159.947 175.423 160.341 175.423 160.828C175.423 161.315 175.03 161.709 174.545 161.709C174.059 161.709 173.689 161.315 173.689 160.828C173.689 160.341 174.082 159.947 174.545 159.947Z" fill="#18181B"/>
<path d="M161.548 159.947C162.033 159.947 162.427 160.341 162.427 160.828C162.427 161.315 162.033 161.709 161.548 161.709C161.062 161.709 160.692 161.315 160.692 160.828C160.669 160.341 161.062 159.947 161.548 159.947Z" fill="#18181B"/>
<path d="M157.2 159.947C157.686 159.947 158.079 160.341 158.079 160.828C158.079 161.315 157.686 161.709 157.2 161.709C156.715 161.709 156.344 161.315 156.344 160.828C156.344 160.341 156.738 159.947 157.2 159.947Z" fill="#18181B"/>
<path d="M150.702 158.394C151.187 158.394 151.581 158 151.581 157.514C151.581 157.027 151.187 156.633 150.702 156.633C150.216 156.633 149.823 157.027 149.823 157.514C149.823 158 150.216 158.394 150.702 158.394Z" fill="#18181B"/>
<path d="M82.7113 83.2966C81.7632 83.2966 81 84.0615 81 85.0118C81 85.9621 81.7632 86.727 82.7113 86.727C83.6595 86.727 84.4226 85.9621 84.4226 85.0118C84.4226 84.0615 83.6595 83.2966 82.7113 83.2966Z" fill="#18181B"/>
<path d="M95.685 85.0118C95.685 84.0615 94.9218 83.2966 93.9737 83.2966C93.0255 83.2966 92.2624 84.0615 92.2624 85.0118C92.2624 85.9621 93.0255 86.727 93.9737 86.727C94.9218 86.727 95.685 85.9621 95.685 85.0118Z" fill="#18181B"/>
<path d="M105.236 83.2966C104.288 83.2966 103.525 84.0615 103.525 85.0118C103.525 85.9621 104.288 86.727 105.236 86.727C106.184 86.727 106.947 85.9621 106.947 85.0118C106.947 84.0615 106.184 83.2966 105.236 83.2966Z" fill="#18181B"/>
<path d="M118.21 85.0118C118.21 84.0615 117.447 83.2966 116.498 83.2966C115.55 83.2966 114.787 84.0615 114.787 85.0118C114.787 85.9621 115.55 86.727 116.498 86.727C117.447 86.727 118.21 85.9621 118.21 85.0118Z" fill="#18181B"/>
<path d="M126.049 85.0118C126.049 85.9621 126.813 86.727 127.761 86.727C128.709 86.727 129.472 85.9621 129.472 85.0118C129.472 84.0615 128.709 83.2966 127.761 83.2966C126.813 83.2966 126.049 84.0615 126.049 85.0118Z" fill="white"/>
<path d="M82.7113 94.5845C81.7632 94.5845 81 95.3494 81 96.2997C81 97.25 81.7632 98.0149 82.7113 98.0149C83.6595 98.0149 84.4226 97.25 84.4226 96.2997C84.4226 95.3494 83.6595 94.5845 82.7113 94.5845Z" fill="#18181B"/>
<path d="M82.7113 105.872C81.7632 105.872 81 106.637 81 107.588C81 108.538 81.7632 109.303 82.7113 109.303C83.6595 109.303 84.4226 108.538 84.4226 107.588C84.4226 106.637 83.6595 105.872 82.7113 105.872Z" fill="#18181B"/>
<path d="M82.7113 117.16C81.7632 117.16 81 117.925 81 118.875C81 119.826 81.7632 120.591 82.7113 120.591C83.6595 120.591 84.4226 119.826 84.4226 118.875C84.4226 117.925 83.6595 117.16 82.7113 117.16Z" fill="#18181B"/>
<path d="M82.7113 128.448C81.7632 128.448 81 129.213 81 130.163C81 131.113 81.7632 131.878 82.7113 131.878C83.6595 131.878 84.4226 131.113 84.4226 130.163C84.4226 129.213 83.6595 128.448 82.7113 128.448Z" fill="#18181B"/>
<path d="M95.685 96.2997C95.685 95.3494 94.9218 94.5845 93.9737 94.5845C93.0255 94.5845 92.2624 95.3494 92.2624 96.2997C92.2624 97.25 93.0255 98.0149 93.9737 98.0149C94.9218 98.0149 95.685 97.25 95.685 96.2997Z" fill="#18181B"/>
<path d="M95.685 107.588C95.685 106.637 94.9218 105.872 93.9737 105.872C93.0255 105.872 92.2624 106.637 92.2624 107.588C92.2624 108.538 93.0255 109.303 93.9737 109.303C94.9218 109.303 95.685 108.538 95.685 107.588Z" fill="#18181B"/>
<path d="M95.685 118.875C95.685 117.925 94.9218 117.16 93.9737 117.16C93.0255 117.16 92.2624 117.925 92.2624 118.875C92.2624 119.826 93.0255 120.591 93.9737 120.591C94.9218 120.591 95.685 119.826 95.685 118.875Z" fill="#18181B"/>
<path d="M95.685 130.163C95.685 129.213 94.9218 128.448 93.9737 128.448C93.0255 128.448 92.2624 129.213 92.2624 130.163C92.2624 131.113 93.0255 131.878 93.9737 131.878C94.9218 131.878 95.685 131.09 95.685 130.163Z" fill="#18181B"/>
<path d="M105.236 94.5845C104.288 94.5845 103.525 95.3494 103.525 96.2997C103.525 97.25 104.288 98.0149 105.236 98.0149C106.184 98.0149 106.947 97.25 106.947 96.2997C106.947 95.3494 106.184 94.5845 105.236 94.5845Z" fill="#18181B"/>
<path d="M105.236 105.872C104.288 105.872 103.525 106.637 103.525 107.588C103.525 108.538 104.288 109.303 105.236 109.303C106.184 109.303 106.947 108.538 106.947 107.588C106.947 106.637 106.184 105.872 105.236 105.872Z" fill="#18181B"/>
<path d="M105.236 117.16C104.288 117.16 103.525 117.925 103.525 118.875C103.525 119.826 104.288 120.591 105.236 120.591C106.184 120.591 106.947 119.826 106.947 118.875C106.947 117.925 106.184 117.16 105.236 117.16Z" fill="#18181B"/>
<path d="M105.236 131.878C106.181 131.878 106.947 131.11 106.947 130.163C106.947 129.216 106.181 128.448 105.236 128.448C104.291 128.448 103.525 129.216 103.525 130.163C103.525 131.11 104.291 131.878 105.236 131.878Z" fill="#18181B"/>
<path d="M118.21 96.2997C118.21 95.3494 117.447 94.5845 116.498 94.5845C115.55 94.5845 114.787 95.3494 114.787 96.2997C114.787 97.25 115.55 98.0149 116.498 98.0149C117.447 98.0149 118.21 97.25 118.21 96.2997Z" fill="#18181B"/>
<path d="M118.21 107.588C118.21 106.637 117.447 105.872 116.498 105.872C115.55 105.872 114.787 106.637 114.787 107.588C114.787 108.538 115.55 109.303 116.498 109.303C117.447 109.303 118.21 108.538 118.21 107.588Z" fill="#18181B"/>
<path d="M118.21 118.875C118.21 117.925 117.447 117.16 116.498 117.16C115.55 117.16 114.787 117.925 114.787 118.875C114.787 119.826 115.55 120.591 116.498 120.591C117.447 120.591 118.21 119.826 118.21 118.875Z" fill="#18181B"/>
<path d="M118.21 130.163C118.21 129.213 117.447 128.448 116.498 128.448C115.55 128.448 114.787 129.213 114.787 130.163C114.787 131.113 115.55 131.878 116.498 131.878C117.447 131.878 118.21 131.09 118.21 130.163Z" fill="#18181B"/>
<path d="M127.761 94.5845C126.813 94.5845 126.049 95.3494 126.049 96.2997C126.049 97.25 126.813 98.0149 127.761 98.0149C128.709 98.0149 129.472 97.25 129.472 96.2997C129.472 95.3494 128.709 94.5845 127.761 94.5845Z" fill="white"/>
<path d="M127.761 105.872C126.813 105.872 126.049 106.637 126.049 107.588C126.049 108.538 126.813 109.303 127.761 109.303C128.709 109.303 129.472 108.538 129.472 107.588C129.472 106.637 128.709 105.872 127.761 105.872Z" fill="white"/>
<path d="M127.761 117.16C126.813 117.16 126.049 117.925 126.049 118.875C126.049 119.826 126.813 120.591 127.761 120.591C128.709 120.591 129.472 119.826 129.472 118.875C129.472 117.925 128.709 117.16 127.761 117.16Z" fill="white"/>
<path d="M127.761 131.878C128.706 131.878 129.472 131.11 129.472 130.163C129.472 129.216 128.706 128.448 127.761 128.448C126.816 128.448 126.049 129.216 126.049 130.163C126.049 131.11 126.816 131.878 127.761 131.878Z" fill="white"/>
</g>
<defs>
<clipPath id="clip0_1757_24984">
<rect width="174" height="139" fill="white" transform="translate(81 26)"/>
</clipPath>
</defs>
</svg>
