<svg width="336" height="190" viewBox="0 0 336 190" fill="none" xmlns="http://www.w3.org/2000/svg">
<rect width="336" height="190" fill="#E4E4E7"/>
<g clip-path="url(#clip0_1757_22512)">
<path d="M132.497 97.5633C132.981 97.5633 133.373 97.1722 133.373 96.6897C133.373 96.2073 132.981 95.8162 132.497 95.8162C132.013 95.8162 131.62 96.2073 131.62 96.6897C131.62 97.1722 132.013 97.5633 132.497 97.5633Z" fill="#18181B"/>
<path d="M130.352 100.851C130.836 100.851 131.228 100.46 131.228 99.9771C131.228 99.4946 130.836 99.1035 130.352 99.1035C129.868 99.1035 129.476 99.4946 129.476 99.9771C129.476 100.46 129.868 100.851 130.352 100.851Z" fill="#18181B"/>
<path d="M134.665 100.851C135.149 100.851 135.541 100.46 135.541 99.9771C135.541 99.4946 135.149 99.1035 134.665 99.1035C134.181 99.1035 133.788 99.4946 133.788 99.9771C133.788 100.46 134.181 100.851 134.665 100.851Z" fill="#18181B"/>
<path d="M132.497 104.138C132.981 104.138 133.373 103.747 133.373 103.264C133.373 102.782 132.981 102.391 132.497 102.391C132.013 102.391 131.62 102.782 131.62 103.264C131.62 103.747 132.013 104.138 132.497 104.138Z" fill="#18181B"/>
<path d="M136.832 104.138C137.316 104.138 137.709 103.747 137.709 103.264C137.709 102.782 137.316 102.391 136.832 102.391C136.348 102.391 135.956 102.782 135.956 103.264C135.956 103.747 136.348 104.138 136.832 104.138Z" fill="#18181B"/>
<path d="M130.352 107.425C130.836 107.425 131.228 107.034 131.228 106.552C131.228 106.069 130.836 105.678 130.352 105.678C129.868 105.678 129.476 106.069 129.476 106.552C129.476 107.034 129.868 107.425 130.352 107.425Z" fill="#18181B"/>
<path d="M134.665 107.425C135.149 107.425 135.541 107.034 135.541 106.552C135.541 106.069 135.149 105.678 134.665 105.678C134.181 105.678 133.788 106.069 133.788 106.552C133.788 107.034 134.181 107.425 134.665 107.425Z" fill="#18181B"/>
<path d="M132.497 110.69C132.981 110.69 133.373 110.299 133.373 109.816C133.373 109.334 132.981 108.943 132.497 108.943C132.013 108.943 131.62 109.334 131.62 109.816C131.62 110.299 132.013 110.69 132.497 110.69Z" fill="#18181B"/>
<path d="M136.832 110.69C137.316 110.69 137.709 110.299 137.709 109.816C137.709 109.334 137.316 108.943 136.832 108.943C136.348 108.943 135.956 109.334 135.956 109.816C135.956 110.299 136.348 110.69 136.832 110.69Z" fill="#18181B"/>
<path d="M141.145 104.138C141.629 104.138 142.021 103.747 142.021 103.264C142.021 102.782 141.629 102.391 141.145 102.391C140.661 102.391 140.268 102.782 140.268 103.264C140.268 103.747 140.661 104.138 141.145 104.138Z" fill="#18181B"/>
<path d="M138.977 107.425C139.461 107.425 139.853 107.034 139.853 106.552C139.853 106.069 139.461 105.678 138.977 105.678C138.493 105.678 138.101 106.069 138.101 106.552C138.101 107.034 138.493 107.425 138.977 107.425Z" fill="#18181B"/>
<path d="M143.313 107.425C143.797 107.425 144.189 107.034 144.189 106.552C144.189 106.069 143.797 105.678 143.313 105.678C142.829 105.678 142.436 106.069 142.436 106.552C142.436 107.034 142.829 107.425 143.313 107.425Z" fill="#18181B"/>
<path d="M147.625 107.425C148.109 107.425 148.501 107.034 148.501 106.552C148.501 106.069 148.109 105.678 147.625 105.678C147.141 105.678 146.749 106.069 146.749 106.552C146.749 107.034 147.141 107.425 147.625 107.425Z" fill="#18181B"/>
<path d="M141.145 110.69C141.629 110.69 142.021 110.299 142.021 109.816C142.021 109.334 141.629 108.943 141.145 108.943C140.661 108.943 140.268 109.334 140.268 109.816C140.268 110.299 140.661 110.69 141.145 110.69Z" fill="#18181B"/>
<path d="M145.48 110.69C145.964 110.69 146.357 110.299 146.357 109.816C146.357 109.334 145.964 108.943 145.48 108.943C144.996 108.943 144.604 109.334 144.604 109.816C144.604 110.299 144.996 110.69 145.48 110.69Z" fill="#18181B"/>
<path d="M149.793 110.69C150.277 110.69 150.669 110.299 150.669 109.816C150.669 109.334 150.277 108.943 149.793 108.943C149.309 108.943 148.917 109.334 148.917 109.816C148.917 110.299 149.309 110.69 149.793 110.69Z" fill="#18181B"/>
<path d="M154.128 110.69C154.612 110.69 155.005 110.299 155.005 109.816C155.005 109.334 154.612 108.943 154.128 108.943C153.644 108.943 153.252 109.334 153.252 109.816C153.252 110.299 153.644 110.69 154.128 110.69Z" fill="#18181B"/>
<path d="M138.977 113.977C139.461 113.977 139.853 113.586 139.853 113.104C139.853 112.621 139.461 112.23 138.977 112.23C138.493 112.23 138.101 112.621 138.101 113.104C138.101 113.586 138.493 113.977 138.977 113.977Z" fill="#18181B"/>
<path d="M143.313 113.977C143.797 113.977 144.189 113.586 144.189 113.104C144.189 112.621 143.797 112.23 143.313 112.23C142.829 112.23 142.436 112.621 142.436 113.104C142.436 113.586 142.829 113.977 143.313 113.977Z" fill="#18181B"/>
<path d="M147.625 113.977C148.109 113.977 148.501 113.586 148.501 113.104C148.501 112.621 148.109 112.23 147.625 112.23C147.141 112.23 146.749 112.621 146.749 113.104C146.749 113.586 147.141 113.977 147.625 113.977Z" fill="#18181B"/>
<path d="M151.961 113.977C152.445 113.977 152.837 113.586 152.837 113.104C152.837 112.621 152.445 112.23 151.961 112.23C151.477 112.23 151.084 112.621 151.084 113.104C151.084 113.586 151.477 113.977 151.961 113.977Z" fill="#18181B"/>
<path d="M156.273 113.977C156.757 113.977 157.15 113.586 157.15 113.104C157.15 112.621 156.757 112.23 156.273 112.23C155.789 112.23 155.397 112.621 155.397 113.104C155.397 113.586 155.789 113.977 156.273 113.977Z" fill="#18181B"/>
<path d="M141.145 117.264C141.629 117.264 142.021 116.873 142.021 116.391C142.021 115.908 141.629 115.517 141.145 115.517C140.661 115.517 140.268 115.908 140.268 116.391C140.268 116.873 140.661 117.264 141.145 117.264Z" fill="#18181B"/>
<path d="M145.48 117.264C145.964 117.264 146.357 116.873 146.357 116.391C146.357 115.908 145.964 115.517 145.48 115.517C144.996 115.517 144.604 115.908 144.604 116.391C144.604 116.873 144.996 117.264 145.48 117.264Z" fill="#18181B"/>
<path d="M149.793 117.264C150.277 117.264 150.669 116.873 150.669 116.391C150.669 115.908 150.277 115.517 149.793 115.517C149.309 115.517 148.917 115.908 148.917 116.391C148.917 116.873 149.309 117.264 149.793 117.264Z" fill="#18181B"/>
<path d="M154.128 117.264C154.612 117.264 155.005 116.873 155.005 116.391C155.005 115.908 154.612 115.517 154.128 115.517C153.644 115.517 153.252 115.908 153.252 116.391C153.252 116.873 153.644 117.264 154.128 117.264Z" fill="#18181B"/>
<path d="M158.441 117.264C158.925 117.264 159.317 116.873 159.317 116.391C159.317 115.908 158.925 115.517 158.441 115.517C157.957 115.517 157.565 115.908 157.565 116.391C157.565 116.873 157.957 117.264 158.441 117.264Z" fill="#18181B"/>
<path d="M162.754 117.264C163.238 117.264 163.63 116.873 163.63 116.391C163.63 115.908 163.238 115.517 162.754 115.517C162.27 115.517 161.877 115.908 161.877 116.391C161.877 116.873 162.27 117.264 162.754 117.264Z" fill="#18181B"/>
<path d="M147.625 120.552C148.109 120.552 148.501 120.161 148.501 119.678C148.501 119.196 148.109 118.805 147.625 118.805C147.141 118.805 146.749 119.196 146.749 119.678C146.749 120.161 147.141 120.552 147.625 120.552Z" fill="#18181B"/>
<path d="M151.961 120.552C152.445 120.552 152.837 120.161 152.837 119.678C152.837 119.196 152.445 118.805 151.961 118.805C151.477 118.805 151.084 119.196 151.084 119.678C151.084 120.161 151.477 120.552 151.961 120.552Z" fill="#18181B"/>
<path d="M156.273 120.552C156.757 120.552 157.15 120.161 157.15 119.678C157.15 119.196 156.757 118.805 156.273 118.805C155.789 118.805 155.397 119.196 155.397 119.678C155.397 120.161 155.789 120.552 156.273 120.552Z" fill="#18181B"/>
<path d="M160.609 120.552C161.093 120.552 161.485 120.161 161.485 119.678C161.485 119.196 161.093 118.805 160.609 118.805C160.125 118.805 159.732 119.196 159.732 119.678C159.732 120.161 160.125 120.552 160.609 120.552Z" fill="#18181B"/>
<path d="M164.921 120.552C165.405 120.552 165.798 120.161 165.798 119.678C165.798 119.196 165.405 118.805 164.921 118.805C164.437 118.805 164.045 119.196 164.045 119.678C164.045 120.161 164.437 120.552 164.921 120.552Z" fill="#18181B"/>
<path d="M169.234 120.552C169.718 120.552 170.11 120.161 170.11 119.678C170.11 119.196 169.718 118.805 169.234 118.805C168.75 118.805 168.357 119.196 168.357 119.678C168.357 120.161 168.75 120.552 169.234 120.552Z" fill="#18181B"/>
<path d="M154.128 123.816C154.612 123.816 155.005 123.425 155.005 122.943C155.005 122.46 154.612 122.069 154.128 122.069C153.644 122.069 153.252 122.46 153.252 122.943C153.252 123.425 153.644 123.816 154.128 123.816Z" fill="#18181B"/>
<path d="M158.441 123.816C158.925 123.816 159.317 123.425 159.317 122.943C159.317 122.46 158.925 122.069 158.441 122.069C157.957 122.069 157.565 122.46 157.565 122.943C157.565 123.425 157.957 123.816 158.441 123.816Z" fill="#18181B"/>
<path d="M162.754 123.816C163.238 123.816 163.63 123.425 163.63 122.943C163.63 122.46 163.238 122.069 162.754 122.069C162.27 122.069 161.877 122.46 161.877 122.943C161.877 123.425 162.27 123.816 162.754 123.816Z" fill="#18181B"/>
<path d="M167.089 123.816C167.573 123.816 167.965 123.425 167.965 122.943C167.965 122.46 167.573 122.069 167.089 122.069C166.605 122.069 166.213 122.46 166.213 122.943C166.213 123.425 166.605 123.816 167.089 123.816Z" fill="#18181B"/>
<path d="M171.402 123.816C171.886 123.816 172.278 123.425 172.278 122.943C172.278 122.46 171.886 122.069 171.402 122.069C170.918 122.069 170.525 122.46 170.525 122.943C170.525 123.425 170.918 123.816 171.402 123.816Z" fill="#18181B"/>
<path d="M175.737 123.816C176.221 123.816 176.614 123.425 176.614 122.943C176.614 122.46 176.221 122.069 175.737 122.069C175.253 122.069 174.861 122.46 174.861 122.943C174.861 123.425 175.253 123.816 175.737 123.816Z" fill="#18181B"/>
<path d="M160.609 127.104C161.093 127.104 161.485 126.712 161.485 126.23C161.485 125.748 161.093 125.356 160.609 125.356C160.125 125.356 159.732 125.748 159.732 126.23C159.732 126.712 160.125 127.104 160.609 127.104Z" fill="#18181B"/>
<path d="M164.921 127.104C165.405 127.104 165.798 126.712 165.798 126.23C165.798 125.748 165.405 125.356 164.921 125.356C164.437 125.356 164.045 125.748 164.045 126.23C164.045 126.712 164.437 127.104 164.921 127.104Z" fill="#18181B"/>
<path d="M169.234 127.104C169.718 127.104 170.11 126.712 170.11 126.23C170.11 125.748 169.718 125.356 169.234 125.356C168.75 125.356 168.357 125.748 168.357 126.23C168.357 126.712 168.75 127.104 169.234 127.104Z" fill="#18181B"/>
<path d="M173.569 127.104C174.054 127.104 174.446 126.713 174.446 126.23C174.446 125.747 174.054 125.356 173.569 125.356C173.085 125.356 172.716 125.747 172.716 126.23C172.693 126.713 173.085 127.104 173.569 127.104Z" fill="#18181B"/>
<path d="M177.029 126.23C177.029 126.713 177.421 127.104 177.905 127.104C178.389 127.104 178.758 126.713 178.758 126.23C178.758 125.747 178.366 125.356 177.905 125.356C177.421 125.379 177.029 125.77 177.029 126.23Z" fill="#18181B"/>
<path d="M182.217 127.104C182.702 127.104 183.094 126.713 183.094 126.23C183.094 125.747 182.702 125.356 182.217 125.356C181.733 125.356 181.364 125.747 181.364 126.23C181.364 126.713 181.733 127.104 182.217 127.104Z" fill="#18181B"/>
<path d="M167.089 130.391C167.573 130.391 167.965 130 167.965 129.517C167.965 129.035 167.573 128.644 167.089 128.644C166.605 128.644 166.213 129.035 166.213 129.517C166.213 130 166.605 130.391 167.089 130.391Z" fill="#18181B"/>
<path d="M171.402 130.391C171.886 130.391 172.278 130 172.278 129.517C172.278 129.035 171.886 128.644 171.402 128.644C170.918 128.644 170.525 129.035 170.525 129.517C170.525 130 170.918 130.391 171.402 130.391Z" fill="#18181B"/>
<path d="M175.737 130.391C176.221 130.391 176.614 130 176.614 129.517C176.614 129.035 176.221 128.644 175.737 128.644C175.253 128.644 174.861 129.035 174.861 129.517C174.861 130 175.253 130.391 175.737 130.391Z" fill="#18181B"/>
<path d="M180.05 130.391C180.534 130.391 180.926 130 180.926 129.517C180.926 129.035 180.534 128.644 180.05 128.644C179.566 128.644 179.173 129.035 179.173 129.517C179.173 130 179.566 130.391 180.05 130.391Z" fill="#18181B"/>
<path d="M184.385 130.391C184.869 130.391 185.262 130 185.262 129.517C185.262 129.035 184.869 128.644 184.385 128.644C183.901 128.644 183.509 129.035 183.509 129.517C183.509 130 183.901 130.391 184.385 130.391Z" fill="#18181B"/>
<path d="M188.698 130.391C189.182 130.391 189.574 130 189.574 129.517C189.574 129.035 189.182 128.644 188.698 128.644C188.214 128.644 187.821 129.035 187.821 129.517C187.821 130 188.214 130.391 188.698 130.391Z" fill="#18181B"/>
<path d="M174.423 132.805C174.423 132.322 174.031 131.931 173.546 131.931C173.062 131.931 172.693 132.322 172.693 132.805C172.693 133.287 173.085 133.655 173.546 133.655C174.054 133.655 174.423 133.264 174.423 132.805Z" fill="#18181B"/>
<path d="M177.029 132.805C177.029 133.287 177.421 133.655 177.905 133.655C178.389 133.655 178.758 133.264 178.758 132.805C178.758 132.322 178.366 131.931 177.905 131.931C177.421 131.931 177.029 132.322 177.029 132.805Z" fill="#18181B"/>
<path d="M182.217 133.655C182.702 133.655 183.094 133.264 183.094 132.805C183.094 132.322 182.702 131.931 182.217 131.931C181.733 131.931 181.364 132.322 181.364 132.805C181.341 133.264 181.733 133.655 182.217 133.655Z" fill="#18181B"/>
<path d="M185.677 132.805C185.677 133.287 186.069 133.655 186.553 133.655C187.037 133.655 187.406 133.264 187.406 132.805C187.406 132.322 187.014 131.931 186.553 131.931C186.069 131.931 185.677 132.322 185.677 132.805Z" fill="#18181B"/>
<path d="M190.866 133.655C191.35 133.655 191.742 133.264 191.742 132.805C191.742 132.322 191.35 131.931 190.866 131.931C190.381 131.931 190.012 132.322 190.012 132.805C189.989 133.264 190.381 133.655 190.866 133.655Z" fill="#18181B"/>
<path d="M225.435 131.931C224.95 131.931 224.558 132.322 224.558 132.805C224.558 133.287 224.95 133.655 225.435 133.655C225.919 133.655 226.311 133.264 226.311 132.805C226.311 132.322 225.919 131.931 225.435 131.931Z" fill="#18181B"/>
<path d="M175.737 136.943C176.221 136.943 176.614 136.552 176.614 136.069C176.614 135.587 176.221 135.196 175.737 135.196C175.253 135.196 174.861 135.587 174.861 136.069C174.861 136.552 175.253 136.943 175.737 136.943Z" fill="#18181B"/>
<path d="M180.05 136.943C180.534 136.943 180.926 136.552 180.926 136.069C180.926 135.587 180.534 135.196 180.05 135.196C179.566 135.196 179.173 135.587 179.173 136.069C179.173 136.552 179.566 136.943 180.05 136.943Z" fill="#18181B"/>
<path d="M184.385 136.943C184.869 136.943 185.262 136.552 185.262 136.069C185.262 135.587 184.869 135.196 184.385 135.196C183.901 135.196 183.509 135.587 183.509 136.069C183.509 136.552 183.901 136.943 184.385 136.943Z" fill="#18181B"/>
<path d="M188.698 136.943C189.182 136.943 189.574 136.552 189.574 136.069C189.574 135.587 189.182 135.196 188.698 135.196C188.214 135.196 187.821 135.587 187.821 136.069C187.821 136.552 188.214 136.943 188.698 136.943Z" fill="#18181B"/>
<path d="M193.01 136.943C193.494 136.943 193.887 136.552 193.887 136.069C193.887 135.587 193.494 135.196 193.01 135.196C192.526 135.196 192.134 135.587 192.134 136.069C192.134 136.552 192.526 136.943 193.01 136.943Z" fill="#18181B"/>
<path d="M197.346 136.943C197.83 136.943 198.222 136.552 198.222 136.069C198.222 135.587 197.83 135.196 197.346 135.196C196.862 135.196 196.469 135.587 196.469 136.069C196.469 136.552 196.862 136.943 197.346 136.943Z" fill="#18181B"/>
<path d="M218.954 136.943C219.438 136.943 219.831 136.552 219.831 136.069C219.831 135.587 219.438 135.196 218.954 135.196C218.47 135.196 218.078 135.587 218.078 136.069C218.078 136.552 218.47 136.943 218.954 136.943Z" fill="#18181B"/>
<path d="M223.29 136.943C223.774 136.943 224.166 136.552 224.166 136.069C224.166 135.587 223.774 135.196 223.29 135.196C222.806 135.196 222.414 135.587 222.414 136.069C222.414 136.552 222.806 136.943 223.29 136.943Z" fill="#18181B"/>
<path d="M183.094 139.356C183.094 138.874 182.702 138.483 182.217 138.483C181.733 138.483 181.364 138.874 181.364 139.356C181.364 139.839 181.756 140.23 182.217 140.23C182.679 140.23 183.094 139.839 183.094 139.356Z" fill="#18181B"/>
<path d="M186.53 138.506C186.046 138.506 185.654 138.897 185.654 139.379C185.654 139.862 186.046 140.253 186.53 140.253C187.014 140.253 187.383 139.862 187.383 139.379C187.383 138.897 187.014 138.506 186.53 138.506Z" fill="#18181B"/>
<path d="M190.866 140.23C191.35 140.23 191.742 139.839 191.742 139.356C191.742 138.874 191.35 138.483 190.866 138.483C190.381 138.483 190.012 138.874 190.012 139.356C190.012 139.839 190.381 140.23 190.866 140.23Z" fill="#18181B"/>
<path d="M195.178 138.506C194.694 138.506 194.302 138.897 194.302 139.379C194.302 139.862 194.694 140.253 195.178 140.253C195.662 140.253 196.031 139.862 196.031 139.379C196.031 138.897 195.662 138.506 195.178 138.506Z" fill="#18181B"/>
<path d="M199.514 140.23C199.998 140.23 200.39 139.839 200.39 139.356C200.39 138.874 199.998 138.483 199.514 138.483C199.03 138.483 198.637 138.874 198.637 139.356C198.637 139.839 199.03 140.23 199.514 140.23Z" fill="#18181B"/>
<path d="M203.826 140.23C204.31 140.23 204.702 139.839 204.702 139.356C204.702 138.874 204.31 138.483 203.826 138.483C203.342 138.483 202.95 138.874 202.95 139.356C202.95 139.839 203.342 140.23 203.826 140.23Z" fill="#18181B"/>
<path d="M208.162 140.23C208.646 140.23 209.038 139.839 209.038 139.356C209.038 138.874 208.646 138.483 208.162 138.483C207.678 138.483 207.285 138.874 207.285 139.356C207.285 139.839 207.678 140.23 208.162 140.23Z" fill="#18181B"/>
<path d="M212.474 140.23C212.958 140.23 213.351 139.839 213.351 139.356C213.351 138.874 212.958 138.483 212.474 138.483C211.99 138.483 211.598 138.874 211.598 139.356C211.598 139.839 211.99 140.23 212.474 140.23Z" fill="#18181B"/>
<path d="M216.787 140.23C217.271 140.23 217.663 139.839 217.663 139.356C217.663 138.874 217.271 138.483 216.787 138.483C216.303 138.483 215.91 138.874 215.91 139.356C215.91 139.839 216.303 140.23 216.787 140.23Z" fill="#18181B"/>
<path d="M221.122 140.23C221.606 140.23 221.999 139.839 221.999 139.356C221.999 138.874 221.606 138.483 221.122 138.483C220.638 138.483 220.246 138.874 220.246 139.356C220.246 139.839 220.638 140.23 221.122 140.23Z" fill="#18181B"/>
<path d="M188.698 143.517C189.182 143.517 189.574 143.126 189.574 142.644C189.574 142.161 189.182 141.77 188.698 141.77C188.214 141.77 187.821 142.161 187.821 142.644C187.821 143.126 188.214 143.517 188.698 143.517Z" fill="#18181B"/>
<path d="M193.01 143.517C193.494 143.517 193.887 143.126 193.887 142.644C193.887 142.161 193.494 141.77 193.01 141.77C192.526 141.77 192.134 142.161 192.134 142.644C192.134 143.126 192.526 143.517 193.01 143.517Z" fill="#18181B"/>
<path d="M197.346 143.517C197.83 143.517 198.222 143.126 198.222 142.644C198.222 142.161 197.83 141.77 197.346 141.77C196.862 141.77 196.469 142.161 196.469 142.644C196.469 143.126 196.862 143.517 197.346 143.517Z" fill="#18181B"/>
<path d="M201.658 143.517C202.142 143.517 202.535 143.126 202.535 142.644C202.535 142.161 202.142 141.77 201.658 141.77C201.174 141.77 200.782 142.161 200.782 142.644C200.782 143.126 201.174 143.517 201.658 143.517Z" fill="#18181B"/>
<path d="M205.994 143.517C206.478 143.517 206.87 143.126 206.87 142.644C206.87 142.161 206.478 141.77 205.994 141.77C205.51 141.77 205.118 142.161 205.118 142.644C205.118 143.126 205.51 143.517 205.994 143.517Z" fill="#18181B"/>
<path d="M210.306 143.517C210.79 143.517 211.183 143.126 211.183 142.644C211.183 142.161 210.79 141.77 210.306 141.77C209.822 141.77 209.43 142.161 209.43 142.644C209.43 143.126 209.822 143.517 210.306 143.517Z" fill="#18181B"/>
<path d="M214.642 143.517C215.126 143.517 215.518 143.126 215.518 142.644C215.518 142.161 215.126 141.77 214.642 141.77C214.158 141.77 213.766 142.161 213.766 142.644C213.766 143.126 214.158 143.517 214.642 143.517Z" fill="#18181B"/>
<path d="M218.954 143.517C219.438 143.517 219.831 143.126 219.831 142.644C219.831 142.161 219.438 141.77 218.954 141.77C218.47 141.77 218.078 142.161 218.078 142.644C218.078 143.126 218.47 143.517 218.954 143.517Z" fill="#18181B"/>
<path d="M199.514 146.805C199.998 146.805 200.39 146.414 200.39 145.931C200.39 145.449 199.998 145.058 199.514 145.058C199.03 145.058 198.637 145.449 198.637 145.931C198.637 146.414 199.03 146.805 199.514 146.805Z" fill="#18181B"/>
<path d="M203.826 146.805C204.31 146.805 204.702 146.414 204.702 145.931C204.702 145.449 204.31 145.058 203.826 145.058C203.342 145.058 202.95 145.449 202.95 145.931C202.95 146.414 203.342 146.805 203.826 146.805Z" fill="#18181B"/>
<path d="M208.162 146.805C208.646 146.805 209.038 146.414 209.038 145.931C209.038 145.449 208.646 145.058 208.162 145.058C207.678 145.058 207.285 145.449 207.285 145.931C207.285 146.414 207.678 146.805 208.162 146.805Z" fill="#18181B"/>
<path d="M212.474 146.805C212.958 146.805 213.351 146.414 213.351 145.931C213.351 145.449 212.958 145.058 212.474 145.058C211.99 145.058 211.598 145.449 211.598 145.931C211.598 146.414 211.99 146.805 212.474 146.805Z" fill="#18181B"/>
<path d="M219.37 70.6208C218.424 70.6208 217.663 71.3795 217.663 72.322C217.663 73.2645 218.424 74.0231 219.37 74.0231C220.315 74.0231 221.076 73.2645 221.076 72.322C221.076 71.3795 220.315 70.6208 219.37 70.6208Z" fill="#18181B"/>
<path d="M232.307 72.322C232.307 71.3795 231.546 70.6208 230.6 70.6208C229.655 70.6208 228.894 71.3795 228.894 72.322C228.894 73.2645 229.655 74.0231 230.6 74.0231C231.546 74.0231 232.307 73.2645 232.307 72.322Z" fill="#18181B"/>
<path d="M241.831 70.6208C240.886 70.6208 240.125 71.3795 240.125 72.322C240.125 73.2645 240.886 74.0231 241.831 74.0231C242.777 74.0231 243.538 73.2645 243.538 72.322C243.538 71.3795 242.777 70.6208 241.831 70.6208Z" fill="#18181B"/>
<path d="M254.769 72.322C254.769 71.3795 254.008 70.6208 253.062 70.6208C252.117 70.6208 251.356 71.3795 251.356 72.322C251.356 73.2645 252.117 74.0231 253.062 74.0231C254.008 74.0231 254.769 73.2645 254.769 72.322Z" fill="#18181B"/>
<path d="M262.587 72.322C262.587 73.2645 263.348 74.0231 264.293 74.0231C265.239 74.0231 266 73.2645 266 72.322C266 71.3795 265.239 70.6208 264.293 70.6208C263.348 70.6208 262.587 71.3795 262.587 72.322Z" fill="#18181B"/>
<path d="M219.37 81.8162C218.424 81.8162 217.663 82.5748 217.663 83.5173C217.663 84.4598 218.424 85.2185 219.37 85.2185C220.315 85.2185 221.076 84.4598 221.076 83.5173C221.076 82.5748 220.315 81.8162 219.37 81.8162Z" fill="#18181B"/>
<path d="M232.307 83.5173C232.307 82.5748 231.546 81.8162 230.6 81.8162C229.655 81.8162 228.894 82.5748 228.894 83.5173C228.894 84.4598 229.655 85.2185 230.6 85.2185C231.546 85.2185 232.307 84.4598 232.307 83.5173Z" fill="#18181B"/>
<path d="M232.307 94.7129C232.307 93.7703 231.546 93.0117 230.6 93.0117C229.655 93.0117 228.894 93.7703 228.894 94.7129C228.894 95.6554 229.655 96.414 230.6 96.414C231.546 96.414 232.307 95.6554 232.307 94.7129Z" fill="#18181B"/>
<path d="M232.307 105.908C232.307 104.966 231.546 104.207 230.6 104.207C229.655 104.207 228.894 104.966 228.894 105.908C228.894 106.851 229.655 107.609 230.6 107.609C231.546 107.609 232.307 106.851 232.307 105.908Z" fill="#18181B"/>
<path d="M241.831 81.8162C240.886 81.8162 240.125 82.5748 240.125 83.5173C240.125 84.4598 240.886 85.2185 241.831 85.2185C242.777 85.2185 243.538 84.4598 243.538 83.5173C243.538 82.5748 242.777 81.8162 241.831 81.8162Z" fill="#18181B"/>
<path d="M241.831 93.0117C240.886 93.0117 240.125 93.7703 240.125 94.7129C240.125 95.6554 240.886 96.414 241.831 96.414C242.777 96.414 243.538 95.6554 243.538 94.7129C243.538 93.7703 242.777 93.0117 241.831 93.0117Z" fill="#18181B"/>
<path d="M241.831 104.207C240.886 104.207 240.125 104.966 240.125 105.908C240.125 106.851 240.886 107.609 241.831 107.609C242.777 107.609 243.538 106.851 243.538 105.908C243.538 104.966 242.777 104.207 241.831 104.207Z" fill="#18181B"/>
<path d="M241.831 118.805C242.774 118.805 243.538 118.043 243.538 117.103C243.538 116.164 242.774 115.402 241.831 115.402C240.889 115.402 240.125 116.164 240.125 117.103C240.125 118.043 240.889 118.805 241.831 118.805Z" fill="#18181B"/>
<path d="M254.769 83.5173C254.769 82.5748 254.008 81.8162 253.062 81.8162C252.117 81.8162 251.356 82.5748 251.356 83.5173C251.356 84.4598 252.117 85.2185 253.062 85.2185C254.008 85.2185 254.769 84.4598 254.769 83.5173Z" fill="#18181B"/>
<path d="M254.769 94.7129C254.769 93.7703 254.008 93.0117 253.062 93.0117C252.117 93.0117 251.356 93.7703 251.356 94.7129C251.356 95.6554 252.117 96.414 253.062 96.414C254.008 96.414 254.769 95.6554 254.769 94.7129Z" fill="#18181B"/>
<path d="M254.769 105.908C254.769 104.966 254.008 104.207 253.062 104.207C252.117 104.207 251.356 104.966 251.356 105.908C251.356 106.851 252.117 107.609 253.062 107.609C254.008 107.609 254.769 106.851 254.769 105.908Z" fill="#18181B"/>
<path d="M254.769 117.103C254.769 116.161 254.008 115.402 253.062 115.402C252.117 115.402 251.356 116.161 251.356 117.103C251.356 118.046 252.117 118.805 253.062 118.805C254.008 118.805 254.769 118.046 254.769 117.103Z" fill="#18181B"/>
<path d="M264.293 81.8162C263.348 81.8162 262.587 82.5748 262.587 83.5173C262.587 84.4598 263.348 85.2185 264.293 85.2185C265.239 85.2185 266 84.4598 266 83.5173C266 82.5748 265.239 81.8162 264.293 81.8162Z" fill="#18181B"/>
<path d="M264.293 93.0117C263.348 93.0117 262.587 93.7703 262.587 94.7129C262.587 95.6554 263.348 96.414 264.293 96.414C265.239 96.414 266 95.6554 266 94.7129C266 93.7703 265.239 93.0117 264.293 93.0117Z" fill="#18181B"/>
<path d="M264.293 104.207C263.348 104.207 262.587 104.966 262.587 105.908C262.587 106.851 263.348 107.609 264.293 107.609C265.239 107.609 266 106.851 266 105.908C266 104.966 265.239 104.207 264.293 104.207Z" fill="#18181B"/>
<path d="M264.293 118.805C265.236 118.805 266 118.043 266 117.103C266 116.164 265.236 115.402 264.293 115.402C263.351 115.402 262.587 116.164 262.587 117.103C262.587 118.043 263.351 118.805 264.293 118.805Z" fill="#18181B"/>
<path d="M212.682 83.5862C210.837 75.6781 207.839 68.4598 203.941 62.3218L210.975 58.2758C211.39 58.5057 211.852 58.7126 212.336 58.8965C213.858 59.4713 215.587 59.7471 217.432 59.7471C218.516 59.7471 219.623 59.6552 220.753 59.4483C227.349 58.2529 231.892 54 231.131 49.7701C230.739 47.6322 229.078 45.908 226.426 44.8965C224.005 44 221.03 43.7931 218.009 44.3448C211.436 45.5402 206.87 49.7931 207.631 54.023C207.793 54.9195 208.185 55.7471 208.784 56.4598L202.489 60.0919C197.484 52.9655 191.211 47.4713 184.132 44.2758C176.129 40.6667 168.127 40.5057 161.485 43.7701C155.535 38.9885 151.338 39.7701 149.332 40.6667L137.87 47.2414C135.333 48.6207 133.673 51.4713 133.258 55.1264L130.583 56.6667C128.323 57.908 126.455 60.2758 125.186 63.5172C119.721 59.4713 115.823 60.1839 113.909 61.0575C110.957 62.3908 109.112 65.6092 108.813 69.7931C104.869 70.4368 101.663 74.023 100.095 79.7011C96.9589 91.1724 101.41 107.954 115.869 116.483C115.869 116.483 115.869 116.483 115.892 116.483L122.88 120.506L113.263 126.046C110.773 124.874 107.314 124.483 103.647 125.149C97.0512 126.345 92.2774 130.529 92.9923 134.483C93.7072 138.437 99.6571 140.667 106.253 139.471C112.848 138.276 117.622 134.092 116.907 130.138C116.746 129.241 116.308 128.414 115.639 127.724L125.532 122.023L177.72 152.092C180.303 153.379 182.771 154 185.054 154C188.974 154 192.318 152.138 194.555 148.529C196.746 144.988 197.623 140.322 197.069 135.149L202.12 138.046C204.702 139.333 207.17 139.954 209.453 139.954C211.483 139.954 213.351 139.448 214.988 138.483L225.735 132.299C227.395 131.379 228.848 130 229.978 128.138C236.366 117.793 231.546 97.908 212.682 83.5862ZM216.694 133.08C213.904 137.563 209.038 138.506 203.365 135.724L196.516 131.77C194.509 122.621 188.283 112.345 177.282 103.977C176.452 100.391 175.368 96.9425 174.077 93.6552C177.536 91.1034 176.729 84.069 172.462 77.954C167.988 71.7701 161.577 68.3678 157.98 70.5287C155.097 68.1379 151.984 66.1609 148.709 64.6896C141.537 61.4713 134.388 60.9885 128.184 63.2644C129.706 60.0919 131.943 58.2758 134.48 58.2758C135.218 58.2758 135.818 57.6781 135.818 56.9425C135.818 53.2414 137.155 50.4138 139.415 49.4023C141.975 48.2529 145.619 49.4253 149.401 52.6896C149.816 53.0575 150.416 53.1264 150.9 52.8506C156.942 49.5632 164.437 49.6322 172.001 53.0345C184.985 58.8965 195.155 73.0575 199.191 90.9655C199.26 91.2644 199.444 91.5402 199.698 91.7241C218.678 105.954 221.768 124.874 216.694 133.08ZM126.939 66.6896C132.912 63.6322 140.222 63.7701 147.579 67.1034C150.6 68.4598 153.46 70.2758 156.135 72.4827C154.567 75.4942 155.351 80.5517 158.487 85.4253L137.639 97.4253C127.585 89.1954 124.517 76.0919 126.939 66.6896ZM160.078 87.5862C163.653 92.023 168.173 94.7356 171.563 94.5517C172.878 97.8621 173.961 101.379 174.792 105.057C174.861 105.356 175.045 105.632 175.299 105.816C185.285 113.287 190.866 122.046 193.195 129.862L141.583 100.161C141.03 99.8391 140.499 99.4942 139.969 99.1494L160.078 87.5862ZM218.47 46.9885C221.007 46.5057 223.498 46.6667 225.481 47.4253C226.473 47.7931 228.202 48.6667 228.502 50.2758C228.986 52.9655 225.227 55.977 220.269 56.8736C217.709 57.3333 215.218 57.1954 213.258 56.4368C212.843 56.2759 212.29 56.023 211.782 55.7011C211.736 55.6781 211.713 55.6552 211.667 55.6322C210.998 55.1494 210.376 54.4827 210.214 53.5862C209.753 50.8965 213.535 47.885 218.47 46.9885ZM161.946 46.5287C173.592 40.1839 189.459 46.4827 200.113 61.4713L191.396 66.4827C183.002 54.5517 171.402 47.7701 160.724 47.7701C160.378 47.7701 160.055 47.7701 159.732 47.7931L161.946 46.5287ZM117.184 114.207C103.854 106.345 99.7494 90.9195 102.632 80.4138C104.016 75.3793 106.783 72.3448 110.058 72.3448C110.796 72.3448 111.395 71.7471 111.395 71.0115C111.395 67.3103 112.733 64.4827 114.993 63.4713C117.415 62.3678 120.781 63.3793 124.31 66.2069C121.819 76.1839 124.956 89.908 135.195 98.8276L119.628 107.77C119.559 107.816 119.49 107.862 119.398 107.931C119.375 107.954 119.352 107.977 119.306 108C119.306 108 119.306 108 119.282 108.023C119.259 108.046 119.236 108.069 119.213 108.092L119.19 108.115C119.167 108.138 119.167 108.161 119.144 108.184C119.144 108.207 119.121 108.207 119.121 108.23C119.121 108.23 119.121 108.253 119.098 108.253C119.098 108.276 119.075 108.276 119.075 108.299C119.075 108.322 119.052 108.322 119.052 108.345C119.029 108.368 119.029 108.391 119.006 108.437V108.46C119.006 108.483 118.983 108.529 118.983 108.552V108.575C118.983 108.598 118.96 108.644 118.96 108.667V108.69C118.96 108.713 118.96 108.736 118.96 108.782C118.96 108.805 118.96 108.805 118.96 108.828C118.96 108.851 118.96 108.874 118.96 108.897C118.96 108.92 118.96 108.943 118.96 108.965C118.96 108.988 118.96 109.011 118.96 109.011C118.96 109.034 118.96 109.057 118.96 109.08C118.96 109.103 118.96 109.103 118.96 109.126C118.96 109.149 118.96 109.172 118.983 109.218C118.983 109.241 118.983 109.241 118.983 109.264C118.983 109.287 119.006 109.31 119.006 109.356C119.006 109.379 119.006 109.379 119.029 109.402C119.029 109.425 119.052 109.448 119.052 109.471C119.052 109.494 119.075 109.517 119.075 109.54C119.075 109.54 119.075 109.563 119.098 109.586C119.121 109.632 119.144 109.678 119.19 109.724C119.213 109.77 119.259 109.793 119.282 109.839L119.306 109.862C119.352 109.885 119.375 109.931 119.421 109.954C119.467 109.977 119.513 110.023 119.559 110.046L130.26 116.161L125.417 118.943L117.184 114.207ZM192.295 147.126C189.505 151.609 184.639 152.575 178.966 149.77L128.161 120.506L133.65 117.333C133.673 117.31 133.719 117.287 133.742 117.264L133.765 117.241C133.788 117.218 133.811 117.195 133.834 117.195C133.857 117.172 133.857 117.172 133.88 117.149C133.903 117.126 133.927 117.103 133.927 117.103C133.95 117.08 133.973 117.057 133.996 117.034C134.019 117.011 134.019 117.011 134.042 116.988C134.065 116.943 134.088 116.897 134.134 116.874C134.134 116.874 134.134 116.874 134.134 116.851C134.134 116.828 134.157 116.828 134.157 116.805C134.157 116.782 134.18 116.782 134.18 116.759C134.203 116.736 134.203 116.713 134.226 116.667V116.644C134.226 116.621 134.249 116.575 134.249 116.552V116.529C134.249 116.506 134.272 116.46 134.272 116.437V116.414C134.272 116.391 134.272 116.368 134.272 116.322C134.272 116.299 134.272 116.299 134.272 116.276C134.272 116.253 134.272 116.23 134.272 116.207C134.272 116.184 134.272 116.161 134.272 116.138C134.272 116.115 134.272 116.092 134.272 116.092C134.272 116.069 134.272 116.046 134.272 116.023C134.272 116 134.272 116 134.272 115.977C134.272 115.954 134.272 115.931 134.249 115.885C134.249 115.862 134.249 115.862 134.249 115.839C134.249 115.816 134.226 115.793 134.226 115.747C134.226 115.724 134.226 115.724 134.203 115.701C134.203 115.678 134.18 115.655 134.18 115.632C134.18 115.609 134.157 115.586 134.157 115.563C134.157 115.563 134.157 115.54 134.134 115.517C134.134 115.517 134.134 115.517 134.134 115.494C134.111 115.471 134.111 115.448 134.088 115.425C134.088 115.425 134.065 115.402 134.065 115.379C134.042 115.356 134.019 115.333 133.996 115.31L133.973 115.287C133.95 115.264 133.927 115.241 133.904 115.218C133.904 115.218 133.903 115.218 133.88 115.195C133.857 115.172 133.834 115.149 133.788 115.126C133.788 115.126 133.788 115.126 133.765 115.126C133.742 115.103 133.696 115.08 133.673 115.057L133.65 115.034L122.949 108.92L137.409 100.598C138.308 101.241 139.231 101.862 140.199 102.437C140.199 102.437 140.199 102.437 140.222 102.437L193.979 133.379C195.017 138.988 194.279 143.885 192.295 147.126ZM211.321 99.1264C208.83 96.1379 205.994 93.3793 202.857 90.8506L211.413 85.931C214.619 88.3908 217.502 91.1494 220.015 94.1149L211.321 99.1264Z" fill="#18181B"/>
<path d="M199.675 91.7702C199.421 91.5863 199.237 91.3104 199.168 91.0116C195.132 73.1035 184.962 58.9426 171.978 53.0805C164.414 49.6782 156.919 49.6093 150.877 52.8966C150.393 53.1725 149.793 53.1035 149.378 52.7357C145.596 49.4713 141.952 48.2759 139.392 49.4483C137.132 50.4828 135.795 53.2874 135.795 56.9886C135.795 57.7242 135.195 58.3219 134.457 58.3219C131.92 58.3219 129.683 60.138 128.161 63.3104C134.342 61.0345 141.514 61.4943 148.686 64.7357C151.961 66.207 155.074 68.184 157.957 70.5748C161.577 68.3909 167.988 71.8161 172.439 78.0001C176.729 84.115 177.513 91.1495 174.054 93.7012C175.345 96.9656 176.429 100.414 177.259 104.023C188.283 112.391 194.509 122.667 196.493 131.816L203.342 135.77C208.992 138.575 213.881 137.632 216.671 133.126C221.768 124.874 218.678 105.954 199.675 91.7702Z" fill="white"/>
<path d="M245.526 61.2394C250.777 60.2883 254.568 56.9653 253.995 53.8174C253.421 50.6694 248.699 48.8886 243.448 49.8398C238.198 50.7909 234.406 54.1139 234.98 57.2618C235.554 60.4098 240.276 62.1906 245.526 61.2394Z" fill="#18181B"/>
<path d="M239.433 46.6437C240.125 46.6437 240.84 46.5748 241.555 46.4598C243.492 46.115 245.245 45.3104 246.513 44.2069C247.943 42.9656 248.589 41.4023 248.312 39.9311C247.804 37.0575 243.999 35.4253 239.687 36.1839C237.75 36.5288 235.997 37.3334 234.729 38.4368C233.299 39.6782 232.653 41.2414 232.93 42.7127C233.206 44.1839 234.36 45.4253 236.135 46.092C237.104 46.4598 238.257 46.6437 239.433 46.6437ZM235.536 42.2299C235.443 41.7012 235.789 41.0345 236.481 40.4138C237.358 39.6322 238.695 39.0345 240.148 38.7816C240.725 38.6897 241.278 38.6207 241.785 38.6207C243.93 38.6207 245.521 39.4023 245.706 40.3679C245.798 40.8966 245.452 41.5633 244.76 42.1839C243.884 42.9656 242.523 43.5633 241.07 43.8161C239.618 44.092 238.142 44 237.058 43.5862C236.204 43.2874 235.628 42.7816 235.536 42.2299Z" fill="#18181B"/>
<path d="M104.846 113.54C104.316 110.575 100.58 108.69 95.9442 108.69C94.9065 108.69 93.8226 108.782 92.7156 108.989C86.6735 110.092 82.3149 113.908 82.9836 117.517C83.5141 120.483 87.25 122.368 91.8854 122.368C92.9232 122.368 94.0071 122.276 95.114 122.069C101.156 120.966 105.515 117.149 104.846 113.54ZM91.8854 119.724C88.2417 119.724 85.8433 118.368 85.5896 117.035C85.2898 115.425 88.1033 112.506 93.1999 111.586C94.1224 111.425 95.0448 111.333 95.9442 111.333C99.5879 111.333 101.986 112.69 102.24 114.023C102.378 114.805 101.825 115.816 100.741 116.782C99.2881 118.069 97.0512 119.058 94.6297 119.494C93.7073 119.632 92.7848 119.724 91.8854 119.724Z" fill="#18181B"/>
<path d="M80.493 127.287C79.6628 127.287 78.7864 127.356 77.9101 127.517C73.021 128.414 69.5157 131.471 70.0461 134.391C70.4843 136.759 73.4823 138.299 77.2182 138.299C78.0485 138.299 78.9248 138.23 79.8011 138.069C84.6671 137.195 88.1725 134.115 87.6421 131.195C87.2039 128.828 84.2059 127.287 80.493 127.287ZM83.9983 133.402C82.8914 134.368 81.1848 135.126 79.3399 135.448C78.625 135.586 77.9101 135.632 77.2182 135.632C74.4509 135.632 72.7904 134.621 72.6751 133.885C72.6059 133.448 72.998 132.782 73.7129 132.161C74.8198 131.195 76.5264 130.437 78.3713 130.115C79.0862 129.977 79.8011 129.908 80.493 129.908C83.2604 129.908 84.9208 130.92 85.0361 131.655C85.1053 132.115 84.7132 132.782 83.9983 133.402Z" fill="#18181B"/>
<path d="M128.899 132.575C128.23 132.575 127.539 132.644 126.847 132.759C122.995 133.448 120.228 135.885 120.643 138.184C120.989 140.069 123.364 141.287 126.316 141.287C126.985 141.287 127.677 141.218 128.369 141.103C132.22 140.414 134.987 137.977 134.572 135.678C134.226 133.793 131.851 132.575 128.899 132.575ZM127.884 138.506C127.354 138.598 126.824 138.644 126.316 138.644C124.264 138.644 123.341 137.908 123.249 137.724C123.249 137.333 124.541 135.862 127.308 135.356C127.838 135.264 128.369 135.218 128.876 135.218C130.929 135.218 131.851 135.954 131.943 136.138C131.943 136.506 130.675 138 127.884 138.506Z" fill="#18181B"/>
<path d="M169.81 78.9197L160.862 84.0691L158.556 85.4024C158.787 85.7473 158.971 86.1151 159.248 86.4599C159.525 86.8507 159.825 87.1955 160.124 87.5634L162.454 86.23L171.332 81.1266C171.01 80.5749 170.687 80.0231 170.295 79.4714C170.11 79.2645 169.972 79.1036 169.81 78.9197Z" fill="white"/>
</g>
<defs>
<clipPath id="clip0_1757_22512">
<rect width="196" height="118" fill="white" transform="translate(70 36)"/>
</clipPath>
</defs>
</svg>
