<svg width="336" height="190" viewBox="0 0 336 190" fill="none" xmlns="http://www.w3.org/2000/svg">
<rect width="336" height="190" fill="#E4E4E7"/>
<g clip-path="url(#clip0_1757_24603)">
<path d="M165.348 59.7699C161.155 57.2436 157.078 55.9575 153.371 55.9575C152.537 55.9575 151.75 56.0264 150.962 56.1412V80.1409L145.078 83.471V58.6446C139.82 62.5488 136.832 70.4492 136.832 80.6921C136.832 102.625 150.244 128.599 166.738 138.567C173.71 142.792 180.382 143.55 185.501 140.68C191.71 137.235 195.254 128.829 195.254 117.645C195.254 95.7349 181.841 69.7602 165.348 59.7699ZM169.517 136.385C154.414 126.992 145.634 110.318 141.789 93.3694C141.627 92.6574 142.021 91.8995 142.692 91.601C143.549 91.2335 144.546 91.6928 144.823 92.5655C147.858 102.785 153.093 112.293 159.881 120.056C163.309 123.777 174.475 135.696 180.336 130.597C183.949 127.451 182.698 118.127 182.166 113.993C180.637 103.015 174.706 91.7158 166.946 82.9657C166.297 82.2308 165.927 81.2892 165.927 80.3246V66.4071C165.927 65.5114 166.992 65.0291 167.664 65.6263C182.096 77.8902 190.296 96.4009 191.802 114.935C193.03 128.829 186.405 146.008 169.517 136.385Z" fill="white"/>
<path d="M146.816 127.75C147.302 127.75 147.696 127.359 147.696 126.877C147.696 126.395 147.302 126.004 146.816 126.004C146.329 126.004 145.959 126.395 145.959 126.877C145.959 127.382 146.353 127.75 146.816 127.75Z" fill="#18181B"/>
<path d="M148.993 131.057C149.479 131.057 149.874 130.666 149.874 130.184C149.874 129.702 149.479 129.311 148.993 129.311C148.507 129.311 148.113 129.702 148.113 130.184C148.113 130.666 148.507 131.057 148.993 131.057Z" fill="#18181B"/>
<path d="M153.348 131.057C153.834 131.057 154.229 130.666 154.229 130.184C154.229 129.702 153.834 129.311 153.348 129.311C152.862 129.311 152.468 129.702 152.468 130.184C152.468 130.666 152.862 131.057 153.348 131.057Z" fill="#18181B"/>
<path d="M146.816 134.318C147.302 134.318 147.696 133.928 147.696 133.445C147.696 132.963 147.302 132.573 146.816 132.573C146.329 132.573 145.959 132.963 145.959 133.445C145.959 133.928 146.353 134.318 146.816 134.318Z" fill="#18181B"/>
<path d="M150.291 133.445C150.291 133.928 150.684 134.318 151.171 134.318C151.657 134.318 152.028 133.928 152.028 133.445C152.028 132.963 151.634 132.573 151.171 132.573C150.684 132.595 150.291 132.986 150.291 133.445Z" fill="#18181B"/>
<path d="M155.503 134.318C155.989 134.318 156.383 133.928 156.383 133.445C156.383 132.963 155.989 132.573 155.503 132.573C155.016 132.573 154.646 132.963 154.646 133.445C154.646 133.928 155.039 134.318 155.503 134.318Z" fill="#18181B"/>
<path d="M148.993 137.602C149.479 137.602 149.874 137.211 149.874 136.729C149.874 136.247 149.479 135.857 148.993 135.857C148.507 135.857 148.113 136.247 148.113 136.729C148.113 137.211 148.507 137.602 148.993 137.602Z" fill="#18181B"/>
<path d="M153.348 137.602C153.834 137.602 154.229 137.211 154.229 136.729C154.229 136.247 153.834 135.857 153.348 135.857C152.862 135.857 152.468 136.247 152.468 136.729C152.468 137.211 152.862 137.602 153.348 137.602Z" fill="#18181B"/>
<path d="M157.68 137.602C158.166 137.602 158.56 137.211 158.56 136.729C158.56 136.247 158.166 135.857 157.68 135.857C157.194 135.857 156.8 136.247 156.8 136.729C156.8 137.211 157.194 137.602 157.68 137.602Z" fill="#18181B"/>
<path d="M148.993 124.489C149.479 124.489 149.874 124.098 149.874 123.616C149.874 123.134 149.479 122.743 148.993 122.743C148.507 122.743 148.113 123.134 148.113 123.616C148.113 124.098 148.507 124.489 148.993 124.489Z" fill="#18181B"/>
<path d="M151.171 127.75C151.657 127.75 152.051 127.359 152.051 126.877C152.051 126.395 151.657 126.004 151.171 126.004C150.684 126.004 150.314 126.395 150.314 126.877C150.314 127.382 150.684 127.75 151.171 127.75Z" fill="#18181B"/>
<path d="M146.816 121.204C147.302 121.204 147.696 120.814 147.696 120.332C147.696 119.849 147.302 119.459 146.816 119.459C146.329 119.459 145.959 119.849 145.959 120.332C145.959 120.814 146.353 121.204 146.816 121.204Z" fill="#18181B"/>
<path d="M153.348 131.057C153.834 131.057 154.229 130.666 154.229 130.184C154.229 129.702 153.834 129.311 153.348 129.311C152.862 129.311 152.468 129.702 152.468 130.184C152.468 130.666 152.862 131.057 153.348 131.057Z" fill="#18181B"/>
<path d="M196.76 137.602C197.246 137.602 197.64 137.211 197.64 136.729C197.64 136.247 197.246 135.857 196.76 135.857C196.274 135.857 195.879 136.247 195.879 136.729C195.879 137.211 196.274 137.602 196.76 137.602Z" fill="#18181B"/>
<path d="M201.115 137.602C201.601 137.602 201.995 137.211 201.995 136.729C201.995 136.247 201.601 135.857 201.115 135.857C200.628 135.857 200.234 136.247 200.234 136.729C200.234 137.211 200.628 137.602 201.115 137.602Z" fill="#18181B"/>
<path d="M203.269 134.318C203.755 134.318 204.149 133.927 204.149 133.445C204.149 132.963 203.755 132.573 203.269 132.573C202.783 132.573 202.389 132.963 202.389 133.445C202.389 133.927 202.783 134.318 203.269 134.318Z" fill="#18181B"/>
<path d="M205.446 137.602C205.933 137.602 206.327 137.211 206.327 136.729C206.327 136.247 205.933 135.857 205.446 135.857C204.96 135.857 204.566 136.247 204.566 136.729C204.566 137.211 204.96 137.602 205.446 137.602Z" fill="#18181B"/>
<path d="M150.291 140.014C150.291 140.496 150.684 140.863 151.171 140.863C151.657 140.863 152.028 140.473 152.028 140.014C152.028 139.531 151.634 139.141 151.171 139.141C150.684 139.141 150.291 139.531 150.291 140.014Z" fill="#18181B"/>
<path d="M155.503 140.863C155.989 140.863 156.383 140.473 156.383 140.014C156.383 139.531 155.989 139.141 155.503 139.141C155.016 139.141 154.646 139.531 154.646 140.014C154.646 140.496 155.039 140.863 155.503 140.863Z" fill="#18181B"/>
<path d="M158.977 140.014C158.977 140.496 159.371 140.863 159.858 140.863C160.344 140.863 160.715 140.473 160.715 140.014C160.715 139.531 160.321 139.141 159.858 139.141C159.371 139.141 158.977 139.531 158.977 140.014Z" fill="#18181B"/>
<path d="M164.19 140.863C164.676 140.863 165.07 140.473 165.07 140.014C165.07 139.531 164.676 139.141 164.19 139.141C163.703 139.141 163.333 139.531 163.333 140.014C163.333 140.496 163.726 140.863 164.19 140.863Z" fill="#18181B"/>
<path d="M189.37 140.014C189.37 140.496 189.764 140.863 190.25 140.863C190.737 140.863 191.13 140.473 191.13 140.014C191.13 139.531 190.737 139.141 190.25 139.141C189.764 139.141 189.37 139.531 189.37 140.014Z" fill="#18181B"/>
<path d="M193.725 140.014C193.725 140.496 194.119 140.863 194.605 140.863C195.092 140.863 195.485 140.473 195.485 140.014C195.485 139.531 195.092 139.141 194.605 139.141C194.119 139.141 193.725 139.531 193.725 140.014Z" fill="#18181B"/>
<path d="M198.937 139.141C198.451 139.141 198.057 139.531 198.057 140.014C198.057 140.496 198.451 140.863 198.937 140.863C199.424 140.863 199.817 140.473 199.817 140.014C199.794 139.531 199.424 139.141 198.937 139.141Z" fill="#18181B"/>
<path d="M198.057 140.014C198.057 140.496 198.451 140.863 198.937 140.863C199.424 140.863 199.817 140.473 199.817 140.014C199.817 139.531 199.424 139.141 198.937 139.141C198.451 139.141 198.057 139.531 198.057 140.014Z" fill="#18181B"/>
<path d="M203.269 139.141C202.782 139.141 202.389 139.531 202.389 140.014C202.389 140.496 202.782 140.863 203.269 140.863C203.755 140.863 204.149 140.473 204.149 140.014C204.149 139.531 203.755 139.141 203.269 139.141Z" fill="#18181B"/>
<path d="M153.348 144.17C153.834 144.17 154.229 143.78 154.229 143.298C154.229 142.816 153.834 142.425 153.348 142.425C152.862 142.425 152.468 142.816 152.468 143.298C152.468 143.78 152.862 144.17 153.348 144.17Z" fill="#18181B"/>
<path d="M157.68 144.17C158.166 144.17 158.56 143.78 158.56 143.298C158.56 142.816 158.166 142.425 157.68 142.425C157.194 142.425 156.8 142.816 156.8 143.298C156.8 143.78 157.194 144.17 157.68 144.17Z" fill="#18181B"/>
<path d="M162.035 144.17C162.521 144.17 162.915 143.78 162.915 143.298C162.915 142.816 162.521 142.425 162.035 142.425C161.549 142.425 161.155 142.816 161.155 143.298C161.155 143.78 161.549 144.17 162.035 144.17Z" fill="#18181B"/>
<path d="M166.367 144.17C166.853 144.17 167.247 143.78 167.247 143.298C167.247 142.816 166.853 142.425 166.367 142.425C165.881 142.425 165.487 142.816 165.487 143.298C165.487 143.78 165.881 144.17 166.367 144.17Z" fill="#18181B"/>
<path d="M140.306 124.489C140.792 124.489 141.187 124.098 141.187 123.616C141.187 123.134 140.792 122.743 140.306 122.743C139.82 122.743 139.426 123.134 139.426 123.616C139.426 124.098 139.82 124.489 140.306 124.489Z" fill="#18181B"/>
<path d="M144.661 124.489C145.147 124.489 145.542 124.098 145.542 123.616C145.542 123.134 145.147 122.743 144.661 122.743C144.175 122.743 143.781 123.134 143.781 123.616C143.781 124.098 144.175 124.489 144.661 124.489Z" fill="#18181B"/>
<path d="M141.604 126.9C141.604 127.382 141.997 127.773 142.484 127.773C142.97 127.773 143.341 127.382 143.341 126.9C143.341 126.418 142.947 126.027 142.484 126.027C141.997 126.027 141.604 126.418 141.604 126.9Z" fill="#18181B"/>
<path d="M140.306 131.057C140.792 131.057 141.187 130.666 141.187 130.184C141.187 129.702 140.792 129.311 140.306 129.311C139.82 129.311 139.426 129.702 139.426 130.184C139.426 130.666 139.82 131.057 140.306 131.057Z" fill="#18181B"/>
<path d="M144.661 131.057C145.147 131.057 145.542 130.666 145.542 130.184C145.542 129.702 145.147 129.311 144.661 129.311C144.175 129.311 143.781 129.702 143.781 130.184C143.781 130.666 144.175 131.057 144.661 131.057Z" fill="#18181B"/>
<path d="M142.484 121.204C142.97 121.204 143.364 120.814 143.364 120.332C143.364 119.849 142.97 119.459 142.484 119.459C141.997 119.459 141.627 119.849 141.627 120.332C141.604 120.814 141.997 121.204 142.484 121.204Z" fill="#18181B"/>
<path d="M138.129 121.204C138.615 121.204 139.009 120.814 139.009 120.332C139.009 119.849 138.615 119.459 138.129 119.459C137.642 119.459 137.272 119.849 137.272 120.332C137.272 120.814 137.666 121.204 138.129 121.204Z" fill="#18181B"/>
<path d="M144.661 124.489C145.147 124.489 145.542 124.098 145.542 123.616C145.542 123.134 145.147 122.743 144.661 122.743C144.175 122.743 143.781 123.134 143.781 123.616C143.781 124.098 144.175 124.489 144.661 124.489Z" fill="#18181B"/>
<path d="M144.661 117.92C145.148 117.92 145.542 117.53 145.542 117.048C145.542 116.565 145.148 116.175 144.661 116.175C144.175 116.175 143.804 116.565 143.804 117.048C143.804 117.53 144.175 117.92 144.661 117.92Z" fill="#18181B"/>
<path d="M140.306 117.92C140.793 117.92 141.187 117.53 141.187 117.048C141.187 116.565 140.793 116.175 140.306 116.175C139.82 116.175 139.449 116.565 139.449 117.048C139.449 117.53 139.843 117.92 140.306 117.92Z" fill="#18181B"/>
<path d="M138.152 114.636C138.638 114.636 139.032 114.246 139.032 113.763C139.032 113.281 138.638 112.891 138.152 112.891C137.666 112.891 137.295 113.281 137.295 113.763C137.272 114.246 137.666 114.636 138.152 114.636Z" fill="#18181B"/>
<path d="M140.33 111.352C140.816 111.352 141.21 110.961 141.21 110.479C141.21 109.997 140.816 109.606 140.33 109.606C139.843 109.606 139.472 109.997 139.472 110.479C139.449 110.984 139.843 111.352 140.33 111.352Z" fill="#18181B"/>
<path d="M141.604 133.445C141.604 133.928 141.997 134.295 142.484 134.295C142.97 134.295 143.341 133.905 143.341 133.445C143.341 132.963 142.947 132.573 142.484 132.573C141.997 132.595 141.604 132.986 141.604 133.445Z" fill="#18181B"/>
<path d="M143.781 136.729C143.781 137.212 144.175 137.579 144.661 137.579C145.148 137.579 145.518 137.189 145.518 136.729C145.518 136.247 145.125 135.857 144.661 135.857C144.175 135.857 143.781 136.247 143.781 136.729Z" fill="#18181B"/>
<path d="M170.699 144.17C171.185 144.17 171.579 143.78 171.579 143.298C171.579 142.816 171.185 142.425 170.699 142.425C170.213 142.425 169.819 142.816 169.819 143.298C169.819 143.78 170.213 144.17 170.699 144.17Z" fill="#18181B"/>
<path d="M188.073 144.17C188.559 144.17 188.953 143.78 188.953 143.298C188.953 142.816 188.559 142.425 188.073 142.425C187.586 142.425 187.192 142.816 187.192 143.298C187.192 143.78 187.586 144.17 188.073 144.17Z" fill="#18181B"/>
<path d="M192.428 144.17C192.914 144.17 193.308 143.78 193.308 143.298C193.308 142.816 192.914 142.425 192.428 142.425C191.941 142.425 191.547 142.816 191.547 143.298C191.547 143.78 191.941 144.17 192.428 144.17Z" fill="#18181B"/>
<path d="M196.76 144.17C197.246 144.17 197.64 143.78 197.64 143.298C197.64 142.816 197.246 142.425 196.76 142.425C196.274 142.425 195.879 142.816 195.879 143.298C195.879 143.78 196.274 144.17 196.76 144.17Z" fill="#18181B"/>
<path d="M159.858 145.709C159.371 145.709 158.977 146.1 158.977 146.582C158.977 147.064 159.371 147.455 159.858 147.455C160.344 147.455 160.715 147.064 160.715 146.582C160.715 146.1 160.344 145.709 159.858 145.709Z" fill="#18181B"/>
<path d="M164.19 147.432C164.676 147.432 165.07 147.041 165.07 146.559C165.07 146.077 164.676 145.686 164.19 145.686C163.703 145.686 163.333 146.077 163.333 146.559C163.333 147.041 163.726 147.432 164.19 147.432Z" fill="#18181B"/>
<path d="M162.035 150.716C162.522 150.716 162.915 150.325 162.915 149.843C162.915 149.361 162.522 148.97 162.035 148.97C161.549 148.97 161.178 149.361 161.178 149.843C161.178 150.325 161.549 150.716 162.035 150.716Z" fill="#18181B"/>
<path d="M168.545 145.709C168.058 145.709 167.664 146.1 167.664 146.582C167.664 147.064 168.058 147.455 168.545 147.455C169.031 147.455 169.402 147.064 169.402 146.582C169.402 146.1 169.008 145.709 168.545 145.709Z" fill="#18181B"/>
<path d="M172.876 147.432C173.363 147.432 173.757 147.041 173.757 146.559C173.757 146.077 173.363 145.686 172.876 145.686C172.39 145.686 171.996 146.077 171.996 146.559C171.996 147.041 172.39 147.432 172.876 147.432Z" fill="#18181B"/>
<path d="M177.231 147.432C177.718 147.432 178.112 147.041 178.112 146.559C178.112 146.077 177.718 145.686 177.231 145.686C176.745 145.686 176.351 146.077 176.351 146.559C176.351 147.041 176.745 147.432 177.231 147.432Z" fill="#18181B"/>
<path d="M181.563 147.432C182.05 147.432 182.444 147.041 182.444 146.559C182.444 146.077 182.05 145.686 181.563 145.686C181.077 145.686 180.683 146.077 180.683 146.559C180.683 147.041 181.077 147.432 181.563 147.432Z" fill="#18181B"/>
<path d="M185.918 147.432C186.405 147.432 186.799 147.041 186.799 146.559C186.799 146.077 186.405 145.686 185.918 145.686C185.432 145.686 185.038 146.077 185.038 146.559C185.038 147.041 185.432 147.432 185.918 147.432Z" fill="#18181B"/>
<path d="M190.25 147.432C190.736 147.432 191.13 147.041 191.13 146.559C191.13 146.077 190.736 145.686 190.25 145.686C189.764 145.686 189.37 146.077 189.37 146.559C189.37 147.041 189.764 147.432 190.25 147.432Z" fill="#18181B"/>
<path d="M194.582 147.432C195.068 147.432 195.462 147.041 195.462 146.559C195.462 146.077 195.068 145.686 194.582 145.686C194.096 145.686 193.702 146.077 193.702 146.559C193.702 147.041 194.096 147.432 194.582 147.432Z" fill="#18181B"/>
<path d="M201.115 144.17C201.601 144.17 201.995 143.78 201.995 143.298C201.995 142.816 201.601 142.425 201.115 142.425C200.628 142.425 200.234 142.816 200.234 143.298C200.234 143.78 200.628 144.17 201.115 144.17Z" fill="#18181B"/>
<path d="M198.937 147.432C199.423 147.432 199.817 147.041 199.817 146.559C199.817 146.077 199.423 145.686 198.937 145.686C198.451 145.686 198.057 146.077 198.057 146.559C198.057 147.041 198.451 147.432 198.937 147.432Z" fill="#18181B"/>
<path d="M166.367 150.716C166.853 150.716 167.247 150.325 167.247 149.843C167.247 149.361 166.853 148.97 166.367 148.97C165.881 148.97 165.487 149.361 165.487 149.843C165.487 150.325 165.881 150.716 166.367 150.716Z" fill="#18181B"/>
<path d="M170.699 150.716C171.185 150.716 171.579 150.325 171.579 149.843C171.579 149.361 171.185 148.97 170.699 148.97C170.213 148.97 169.819 149.361 169.819 149.843C169.819 150.325 170.213 150.716 170.699 150.716Z" fill="#18181B"/>
<path d="M168.545 154C169.031 154 169.425 153.609 169.425 153.127C169.425 152.645 169.031 152.255 168.545 152.255C168.058 152.255 167.664 152.645 167.664 153.127C167.664 153.609 168.058 154 168.545 154Z" fill="#18181B"/>
<path d="M175.054 150.716C175.54 150.716 175.934 150.325 175.934 149.843C175.934 149.361 175.54 148.97 175.054 148.97C174.568 148.97 174.174 149.361 174.174 149.843C174.174 150.325 174.568 150.716 175.054 150.716Z" fill="#18181B"/>
<path d="M179.386 150.716C179.872 150.716 180.266 150.325 180.266 149.843C180.266 149.361 179.872 148.97 179.386 148.97C178.9 148.97 178.506 149.361 178.506 149.843C178.506 150.325 178.9 150.716 179.386 150.716Z" fill="#18181B"/>
<path d="M183.741 150.716C184.227 150.716 184.621 150.325 184.621 149.843C184.621 149.361 184.227 148.97 183.741 148.97C183.255 148.97 182.861 149.361 182.861 149.843C182.861 150.325 183.255 150.716 183.741 150.716Z" fill="#18181B"/>
<path d="M188.073 150.716C188.559 150.716 188.953 150.325 188.953 149.843C188.953 149.361 188.559 148.97 188.073 148.97C187.586 148.97 187.192 149.361 187.192 149.843C187.192 150.325 187.586 150.716 188.073 150.716Z" fill="#18181B"/>
<path d="M192.428 150.716C192.914 150.716 193.308 150.325 193.308 149.843C193.308 149.361 192.914 148.97 192.428 148.97C191.941 148.97 191.547 149.361 191.547 149.843C191.547 150.325 191.941 150.716 192.428 150.716Z" fill="#18181B"/>
<path d="M172.876 154C173.363 154 173.757 153.609 173.757 153.127C173.757 152.645 173.363 152.255 172.876 152.255C172.39 152.255 171.996 152.645 171.996 153.127C171.996 153.609 172.39 154 172.876 154Z" fill="#18181B"/>
<path d="M177.231 154C177.718 154 178.112 153.609 178.112 153.127C178.112 152.645 177.718 152.255 177.231 152.255C176.745 152.255 176.351 152.645 176.351 153.127C176.351 153.609 176.745 154 177.231 154Z" fill="#18181B"/>
<path d="M181.563 154C182.05 154 182.444 153.609 182.444 153.127C182.444 152.645 182.05 152.255 181.563 152.255C181.077 152.255 180.683 152.645 180.683 153.127C180.683 153.609 181.077 154 181.563 154Z" fill="#18181B"/>
<path d="M185.918 154C186.405 154 186.799 153.609 186.799 153.127C186.799 152.645 186.405 152.255 185.918 152.255C185.432 152.255 185.038 152.645 185.038 153.127C185.038 153.609 185.432 154 185.918 154Z" fill="#18181B"/>
<path d="M103.682 108.252C99.0725 107.425 94.9028 108.964 94.4163 111.719C93.9298 114.475 97.2424 117.369 101.852 118.196C106.462 119.023 110.632 117.484 111.118 114.728C111.628 111.995 108.292 109.078 103.682 108.252Z" fill="#18181B"/>
<path d="M91.845 84.8721C97.4973 84.8721 102.014 82.5754 102.686 78.9927C103.497 74.6292 98.1923 69.99 90.8258 68.6809C89.4822 68.4283 88.1618 68.3135 86.9109 68.3135C81.2586 68.3135 76.7414 70.6101 76.0696 74.1928C75.2589 78.5564 80.5637 83.1955 87.9301 84.5046C89.2737 84.7572 90.5941 84.8721 91.845 84.8721ZM78.7104 74.6751C79.1043 72.5622 82.6253 70.9775 86.9109 70.9775C88.046 70.9775 89.2042 71.0924 90.3625 71.2991C93.3971 71.8503 96.2001 73.0904 98.0533 74.6981C99.5358 75.9842 100.277 77.3851 100.069 78.5334C99.6748 80.6463 96.1537 82.231 91.8682 82.231C90.7331 82.231 89.5749 82.1161 88.4166 81.9094C82.301 80.8071 78.2471 77.1784 78.7104 74.6751Z" fill="#18181B"/>
<path d="M259.931 64.8455C259.282 61.3547 254.857 59.104 249.344 59.104C248.116 59.104 246.819 59.2188 245.522 59.4485C238.341 60.7346 233.175 65.2589 233.939 69.5306C234.588 73.0215 239.013 75.2722 244.526 75.2722C245.754 75.2722 247.051 75.1573 248.348 74.9277C255.529 73.6186 260.718 69.1172 259.931 64.8455ZM247.885 72.3095C246.75 72.5162 245.638 72.6081 244.526 72.6081C240.356 72.6081 236.951 71.0694 236.58 69.0254C236.14 66.591 240.078 63.1001 246.008 62.0207C247.143 61.814 248.255 61.7221 249.367 61.7221C253.537 61.7221 256.942 63.2609 257.313 65.3049C257.753 67.7393 253.815 71.2301 247.885 72.3095Z" fill="#18181B"/>
<path d="M228.102 61.9058L253.213 45.8984C253.838 45.508 254.024 44.6812 253.607 44.0841C253.213 43.464 252.379 43.2803 251.753 43.6937L225.507 60.436C224.581 60.1374 223.515 59.9767 222.357 59.9767C221.592 59.9767 220.805 60.0456 219.994 60.1834C215.57 60.9872 212.35 63.7661 212.836 66.4072C212.952 67.0043 213.23 67.5325 213.67 67.9918L205.145 73.4348C204.867 72.8836 204.543 72.3324 204.265 71.7813C203.848 71.0234 203.431 70.2655 203.014 69.5076C202.736 69.0253 202.435 68.543 202.134 68.0378C201.578 67.1421 201.022 66.2235 200.466 65.3507C200.396 65.2359 200.327 65.1211 200.234 65.0292L218.651 53.2706C220.62 53.9825 223.121 54.1662 225.785 53.6839C231.229 52.6964 235.144 49.2974 234.542 46.0592C233.939 42.821 229.052 40.9837 223.631 41.9712C218.187 42.9588 214.272 46.3577 214.875 49.596C215.037 50.4228 215.454 51.1347 216.079 51.7548L198.729 62.8245C194.906 57.4963 190.621 53.0409 186.127 49.7108C185.084 48.93 184.019 48.218 182.93 47.552C181.98 46.9778 181.03 46.4726 180.081 46.0133C179.571 45.7606 179.061 45.5769 178.529 45.3472C178.112 45.1635 177.695 44.9798 177.278 44.819C176.606 44.5664 175.957 44.3827 175.286 44.1989C175.031 44.13 174.776 44.0382 174.544 43.9693C173.803 43.7855 173.085 43.6707 172.367 43.5559C172.205 43.5329 172.042 43.487 171.857 43.464C171.116 43.3721 170.375 43.3492 169.656 43.3492C169.517 43.3492 169.378 43.3262 169.239 43.3262C168.545 43.3492 167.85 43.3951 167.155 43.5099C166.992 43.5329 166.83 43.5329 166.691 43.5559C166.066 43.6477 165.464 43.8085 164.861 43.9693C164.63 44.0382 164.421 44.0841 164.213 44.153C163.726 44.3138 163.24 44.5205 162.753 44.7272C162.522 44.819 162.29 44.8879 162.058 45.0027L161.827 45.1405C161.711 45.2094 161.572 45.2554 161.433 45.3243L153.603 50.1472V42.3846C153.603 41.9253 153.371 41.5119 152.978 41.2593L144.754 36.2067C144.337 35.9541 143.827 35.9311 143.41 36.1837L134.839 41.0066C134.422 41.2363 134.144 41.6727 134.144 42.1549V43.8544L132.384 42.775C131.967 42.5224 131.457 42.5224 131.04 42.7521L122.492 47.5979C122.075 47.8276 121.797 48.2639 121.797 48.7462V50.4917L120.037 49.4122C119.62 49.1596 119.11 49.1366 118.693 49.3893L110.145 54.2351C110.122 54.2581 110.099 54.2811 110.076 54.304C109.937 54.3959 109.821 54.5107 109.728 54.6485C109.705 54.6945 109.659 54.7404 109.636 54.7863C109.543 54.97 109.474 55.1767 109.474 55.3834V65.4885C109.474 65.6952 109.543 65.9019 109.636 66.0857C109.659 66.1316 109.705 66.1775 109.728 66.2235C109.821 66.3383 109.914 66.4531 110.03 66.545C110.053 66.5679 110.076 66.5909 110.099 66.6139L118.346 71.6894C118.554 71.8272 118.809 71.8961 119.041 71.8961C119.272 71.8961 119.481 71.8502 119.689 71.7353L121.821 70.4952V73.1133C121.821 73.5726 122.052 73.986 122.446 74.2386L130.693 79.3141C130.901 79.4519 131.156 79.5208 131.388 79.5208C131.619 79.5208 131.828 79.4749 132.036 79.3601L134.168 78.1199V80.738C134.168 86.227 135.002 91.9685 136.484 97.6411L121.056 88.8221C121.38 88.4087 121.612 87.9494 121.705 87.4442C122.214 84.6882 118.879 81.7945 114.269 80.9677C113.435 80.8069 112.601 80.738 111.813 80.738C108.269 80.738 105.42 82.1849 105.003 84.4356C104.493 87.1915 107.829 90.0853 112.439 90.912C113.273 91.0728 114.107 91.1417 114.894 91.1417C116.284 91.1417 117.581 90.912 118.647 90.4987L136.924 100.971C136.924 100.971 136.924 100.971 136.947 100.971C137.11 101.063 137.295 101.086 137.48 101.109C138.685 105.013 140.167 108.826 141.905 112.523L134.7 116.956L105.953 100.512C106.462 99.9377 106.833 99.2947 106.972 98.5598C107.597 95.1608 103.474 91.5781 97.7753 90.5446C92.0767 89.5111 86.934 91.4403 86.3086 94.8393C85.6831 98.2382 89.8065 101.821 95.5051 102.854C98.5629 103.406 101.412 103.084 103.543 102.188L134.075 119.666C134.075 119.666 134.075 119.666 134.098 119.666C134.283 119.758 134.469 119.803 134.677 119.826C134.7 119.826 134.724 119.849 134.747 119.849C134.77 119.849 134.77 119.849 134.793 119.849C135.025 119.849 135.233 119.78 135.442 119.666H135.465L143.109 114.958C148.785 126.073 156.661 135.627 165.394 140.909C170.027 143.711 174.567 145.135 178.76 145.135C181.656 145.135 184.389 144.446 186.845 143.091L203.014 133.124C210.079 129.197 214.133 119.941 214.133 107.769C214.133 97.3426 211.168 86.0662 206.35 75.8692L216.288 69.5306C217.214 69.8291 218.28 69.9899 219.438 69.9899C220.203 69.9899 220.99 69.921 221.801 69.7832C226.225 68.9794 229.445 66.2005 228.959 63.5594C228.82 62.9163 228.519 62.3881 228.102 61.9058ZM117.674 68.1756L112.114 64.7536V57.7489L117.674 61.1709V68.1756ZM121.797 60.5967L119.713 59.3106L113.365 55.4064L119.296 52.0763L121.797 53.615V60.5967ZM202.921 74.8358L189.138 83.6318C183.277 72.0798 175.17 62.6178 166.761 57.5193C162.29 54.8093 157.865 53.4083 153.765 53.3165L163.425 47.3683C168.452 44.9109 174.892 45.7836 181.563 49.8027C189.532 54.6715 197.269 63.7431 202.921 74.8358ZM144.013 38.8478L150.962 43.1195V80.1409L145.078 83.471V47.2305C145.078 46.7711 144.847 46.3577 144.453 46.1051L138.106 42.2009L144.013 38.8478ZM130.044 75.8003L124.485 72.3784V51.1347L130.044 54.5567V75.8003ZM132.708 67.3029V53.8217C132.708 53.3624 132.477 52.949 132.083 52.6964L125.735 48.7922L131.666 45.4391L134.168 46.9778V68.1985L132.708 67.3029ZM136.832 44.5434L142.391 47.9654V83.3792L136.832 79.9572V44.5434ZM112.902 88.2709C109.404 87.6279 107.458 85.6758 107.597 84.849C107.69 84.3437 109.057 83.3332 111.79 83.3332C112.439 83.3332 113.111 83.4021 113.782 83.5169C115.52 83.8385 117.118 84.5275 118.137 85.4231C118.855 86.0432 119.133 86.6403 119.064 86.9159C118.971 87.4212 117.605 88.4317 114.871 88.4317C114.246 88.4547 113.574 88.3858 112.902 88.2709ZM139.866 99.9377L151.009 93.0938C151.333 97.044 152.468 101.109 154.205 104.921L144.129 111.122C142.461 107.494 141.024 103.75 139.866 99.9377ZM185.501 140.703C180.382 143.55 173.71 142.793 166.738 138.59C158.329 133.491 150.731 124.259 145.31 113.511L155.364 107.31C157.958 112.179 161.479 116.336 165.371 118.701C167.595 120.056 169.795 120.722 171.811 120.722C173.247 120.722 174.614 120.378 175.841 119.689C179.293 117.782 181.262 113.35 181.262 107.562C181.262 103.452 180.312 98.9732 178.482 94.5866C178.204 93.8976 177.417 93.5991 176.745 93.8747C176.073 94.1503 175.749 94.9311 176.027 95.5971C177.718 99.6621 178.598 103.796 178.598 107.562C178.598 112.362 177.116 115.945 174.544 117.392C172.459 118.54 169.703 118.219 166.761 116.45C163.217 114.292 159.997 110.456 157.611 105.955L162.452 102.969C163.263 104.232 164.259 105.312 165.371 105.978C166.205 106.483 167.039 106.736 167.85 106.736C168.452 106.736 169.008 106.598 169.541 106.299C170.907 105.541 171.672 103.888 171.672 101.775C171.672 100.076 171.185 98.2612 170.375 96.6306C171.486 90.4068 173.664 78.3266 173.664 78.3266C173.988 76.8338 171.672 76.1448 171.116 77.5687L165.116 91.7388C164.236 91.5551 163.379 91.624 162.614 92.0604C161.248 92.8182 160.483 94.4718 160.483 96.5847C160.483 97.8937 160.784 99.2717 161.271 100.581L156.452 103.52C154.645 99.4095 153.51 94.9541 153.51 90.7972C153.51 90.7743 153.487 90.7283 153.487 90.7053C153.487 90.6135 153.464 90.5446 153.441 90.4527C153.418 90.3609 153.395 90.292 153.348 90.2001C153.325 90.1771 153.325 90.1312 153.302 90.1082C153.279 90.0853 153.256 90.0853 153.256 90.0623C153.07 89.8097 152.839 89.6259 152.537 89.557C152.491 89.557 152.468 89.5341 152.422 89.5341C152.352 89.5111 152.259 89.4881 152.19 89.4881C151.958 89.4881 151.75 89.557 151.541 89.6719C151.518 89.6719 151.495 89.6719 151.472 89.6719L139.102 97.2737C137.851 92.5426 137.11 87.7657 136.901 83.1265L143.017 86.893C143.225 87.0308 143.48 87.0997 143.712 87.0997C143.943 87.0997 144.152 87.0537 144.36 86.9389L152.908 82.093C153.325 81.8634 153.603 81.427 153.603 80.9447V55.9806C154.344 56.0035 155.132 56.0495 155.92 56.1873C156.244 56.2332 156.591 56.325 156.916 56.3939C157.495 56.5088 158.051 56.6466 158.63 56.8073C158.977 56.8992 159.348 57.037 159.719 57.1518C160.321 57.3585 160.946 57.6112 161.549 57.8638C161.873 58.0016 162.197 58.1164 162.498 58.2772C163.425 58.7135 164.375 59.2188 165.325 59.7929C173.641 64.8225 181.679 74.4224 187.355 86.1351L187.378 86.1581C192.242 96.1713 195.231 107.356 195.231 117.668C195.254 128.852 191.71 137.258 185.501 140.703ZM221.291 67.1191C220.643 67.234 220.017 67.3029 219.392 67.3029C218.28 67.3029 217.423 67.1191 216.774 66.8665C216.658 66.7976 216.519 66.7287 216.38 66.7057C215.848 66.4531 215.5 66.1546 215.477 65.9249C215.431 65.6723 215.685 65.144 216.334 64.5699C217.307 63.7201 218.813 63.0541 220.481 62.7556C221.106 62.6407 221.755 62.5718 222.38 62.5718C224.812 62.5718 226.202 63.4445 226.295 63.9498C226.411 64.6388 224.65 66.522 221.291 67.1191Z" fill="#18181B"/>
<path d="M112.115 64.7537L117.674 68.1757V61.1939L112.115 57.749V64.7537Z" fill="white"/>
<path d="M124.461 72.3555L130.044 75.8004V54.5567L124.461 51.1348V72.3555Z" fill="white"/>
<path d="M142.391 83.4022V47.9654L136.832 44.5435V79.9802L142.391 83.4022Z" fill="white"/>
<path d="M168.429 96.0334L167.224 96.7684L163.657 98.9731L162.429 99.731L161.201 100.489C161.549 101.408 161.966 102.257 162.498 103.061L163.703 102.326L164.908 101.591L168.475 99.3865L169.703 98.6286C169.378 97.687 168.938 96.8373 168.429 96.0334Z" fill="white"/>
<path d="M207.161 94.4028C206.211 94.4028 205.446 95.1607 205.446 96.1023C205.446 97.0439 206.211 97.8018 207.161 97.8018C208.11 97.8018 208.875 97.0439 208.875 96.1023C208.875 95.1607 208.11 94.4028 207.161 94.4028Z" fill="white"/>
<path d="M220.156 96.1023C220.156 95.1607 219.392 94.4028 218.442 94.4028C217.492 94.4028 216.728 95.1607 216.728 96.1023C216.728 97.0439 217.492 97.8018 218.442 97.8018C219.392 97.8018 220.156 97.0439 220.156 96.1023Z" fill="#18181B"/>
<path d="M229.723 94.4028C228.774 94.4028 228.009 95.1607 228.009 96.1023C228.009 97.0439 228.774 97.8018 229.723 97.8018C230.673 97.8018 231.438 97.0439 231.438 96.1023C231.438 95.1607 230.673 94.4028 229.723 94.4028Z" fill="#18181B"/>
<path d="M242.719 96.1023C242.719 95.1607 241.954 94.4028 241.005 94.4028C240.055 94.4028 239.291 95.1607 239.291 96.1023C239.291 97.0439 240.055 97.8018 241.005 97.8018C241.954 97.8018 242.719 97.0439 242.719 96.1023Z" fill="#18181B"/>
<path d="M250.572 96.1023C250.572 97.0439 251.336 97.8018 252.286 97.8018C253.236 97.8018 254 97.0439 254 96.1023C254 95.1607 253.236 94.4028 252.286 94.4028C251.336 94.4028 250.572 95.1607 250.572 96.1023Z" fill="#18181B"/>
<path d="M207.161 105.587C206.211 105.587 205.446 106.345 205.446 107.287C205.446 108.229 206.211 108.986 207.161 108.986C208.11 108.986 208.875 108.229 208.875 107.287C208.875 106.345 208.11 105.587 207.161 105.587Z" fill="white"/>
<path d="M207.161 116.772C206.211 116.772 205.446 117.53 205.446 118.471C205.446 119.413 206.211 120.171 207.161 120.171C208.11 120.171 208.875 119.413 208.875 118.471C208.875 117.53 208.11 116.772 207.161 116.772Z" fill="white"/>
<path d="M207.161 127.956C206.211 127.956 205.446 128.714 205.446 129.656C205.446 130.597 206.211 131.355 207.161 131.355C208.11 131.355 208.875 130.597 208.875 129.656C208.875 128.714 208.11 127.956 207.161 127.956Z" fill="#18181B"/>
<path d="M207.161 139.141C206.211 139.141 205.446 139.899 205.446 140.84C205.446 141.782 206.211 142.54 207.161 142.54C208.11 142.54 208.875 141.782 208.875 140.84C208.875 139.899 208.11 139.141 207.161 139.141Z" fill="#18181B"/>
<path d="M220.156 107.287C220.156 106.345 219.392 105.587 218.442 105.587C217.492 105.587 216.728 106.345 216.728 107.287C216.728 108.229 217.492 108.986 218.442 108.986C219.392 108.986 220.156 108.229 220.156 107.287Z" fill="#18181B"/>
<path d="M220.156 118.471C220.156 117.53 219.392 116.772 218.442 116.772C217.492 116.772 216.728 117.53 216.728 118.471C216.728 119.413 217.492 120.171 218.442 120.171C219.392 120.171 220.156 119.413 220.156 118.471Z" fill="#18181B"/>
<path d="M220.156 129.656C220.156 128.714 219.392 127.956 218.442 127.956C217.492 127.956 216.728 128.714 216.728 129.656C216.728 130.597 217.492 131.355 218.442 131.355C219.392 131.355 220.156 130.597 220.156 129.656Z" fill="#18181B"/>
<path d="M220.156 140.84C220.156 139.899 219.392 139.141 218.442 139.141C217.492 139.141 216.728 139.899 216.728 140.84C216.728 141.782 217.492 142.54 218.442 142.54C219.392 142.54 220.156 141.782 220.156 140.84Z" fill="#18181B"/>
<path d="M229.723 105.587C228.774 105.587 228.009 106.345 228.009 107.287C228.009 108.229 228.774 108.986 229.723 108.986C230.673 108.986 231.438 108.229 231.438 107.287C231.438 106.345 230.673 105.587 229.723 105.587Z" fill="#18181B"/>
<path d="M229.723 116.772C228.774 116.772 228.009 117.53 228.009 118.471C228.009 119.413 228.774 120.171 229.723 120.171C230.673 120.171 231.438 119.413 231.438 118.471C231.438 117.53 230.673 116.772 229.723 116.772Z" fill="#18181B"/>
<path d="M229.723 127.956C228.774 127.956 228.009 128.714 228.009 129.656C228.009 130.597 228.774 131.355 229.723 131.355C230.673 131.355 231.438 130.597 231.438 129.656C231.438 128.714 230.673 127.956 229.723 127.956Z" fill="#18181B"/>
<path d="M229.723 142.54C230.67 142.54 231.438 141.779 231.438 140.84C231.438 139.902 230.67 139.141 229.723 139.141C228.777 139.141 228.009 139.902 228.009 140.84C228.009 141.779 228.777 142.54 229.723 142.54Z" fill="#18181B"/>
<path d="M242.719 107.287C242.719 106.345 241.954 105.587 241.005 105.587C240.055 105.587 239.291 106.345 239.291 107.287C239.291 108.229 240.055 108.986 241.005 108.986C241.954 108.986 242.719 108.229 242.719 107.287Z" fill="#18181B"/>
<path d="M242.719 118.471C242.719 117.53 241.954 116.772 241.005 116.772C240.055 116.772 239.291 117.53 239.291 118.471C239.291 119.413 240.055 120.171 241.005 120.171C241.954 120.171 242.719 119.413 242.719 118.471Z" fill="#18181B"/>
<path d="M242.719 129.656C242.719 128.714 241.954 127.956 241.005 127.956C240.055 127.956 239.291 128.714 239.291 129.656C239.291 130.597 240.055 131.355 241.005 131.355C241.954 131.355 242.719 130.597 242.719 129.656Z" fill="#18181B"/>
<path d="M242.719 140.84C242.719 139.899 241.954 139.141 241.005 139.141C240.055 139.141 239.291 139.899 239.291 140.84C239.291 141.782 240.055 142.54 241.005 142.54C241.954 142.54 242.719 141.782 242.719 140.84Z" fill="#18181B"/>
<path d="M252.286 105.587C251.336 105.587 250.572 106.345 250.572 107.287C250.572 108.229 251.336 108.986 252.286 108.986C253.236 108.986 254 108.229 254 107.287C254 106.345 253.236 105.587 252.286 105.587Z" fill="#18181B"/>
<path d="M252.286 116.772C251.336 116.772 250.572 117.53 250.572 118.471C250.572 119.413 251.336 120.171 252.286 120.171C253.236 120.171 254 119.413 254 118.471C254 117.53 253.236 116.772 252.286 116.772Z" fill="#18181B"/>
<path d="M252.286 127.956C251.336 127.956 250.572 128.714 250.572 129.656C250.572 130.597 251.336 131.355 252.286 131.355C253.236 131.355 254 130.597 254 129.656C254 128.714 253.236 127.956 252.286 127.956Z" fill="#18181B"/>
<path d="M252.286 142.54C253.233 142.54 254 141.779 254 140.84C254 139.902 253.233 139.141 252.286 139.141C251.339 139.141 250.572 139.902 250.572 140.84C250.572 141.779 251.339 142.54 252.286 142.54Z" fill="#18181B"/>
</g>
<defs>
<clipPath id="clip0_1757_24603">
<rect width="184" height="118" fill="white" transform="translate(76 36)"/>
</clipPath>
</defs>
</svg>
