<svg width="336" height="190" viewBox="0 0 336 190" fill="none" xmlns="http://www.w3.org/2000/svg">
<path d="M0 4.00001C0 1.79087 1.79086 0 4 0H332C334.209 0 336 1.79086 336 4V186C336 188.209 334.209 190 332 190H4C1.79087 190 0 188.209 0 186V4.00001Z" fill="#E4E4E7"/>
<g clip-path="url(#clip0_681_16565)">
<path d="M126.106 103.744C126.106 104.223 126.499 104.621 126.978 104.621C127.457 104.621 127.85 104.229 127.85 103.744C127.85 103.26 127.457 102.879 126.978 102.879C126.499 102.879 126.106 103.271 126.106 103.744Z" fill="#18181B"/>
<path d="M124.801 107.926C125.282 107.926 125.673 107.536 125.673 107.055C125.673 106.574 125.282 106.184 124.801 106.184C124.319 106.184 123.929 106.574 123.929 107.055C123.929 107.536 124.319 107.926 124.801 107.926Z" fill="#18181B"/>
<path d="M122.63 111.236C123.111 111.236 123.502 110.846 123.502 110.365C123.502 109.884 123.111 109.494 122.63 109.494C122.149 109.494 121.758 109.884 121.758 110.365C121.758 110.846 122.149 111.236 122.63 111.236Z" fill="#18181B"/>
<path d="M126.978 111.236C127.459 111.236 127.85 110.846 127.85 110.365C127.85 109.884 127.459 109.494 126.978 109.494C126.496 109.494 126.106 109.884 126.106 110.365C126.106 110.846 126.496 111.236 126.978 111.236Z" fill="#18181B"/>
<path d="M124.801 114.547C125.282 114.547 125.673 114.157 125.673 113.676C125.673 113.195 125.282 112.805 124.801 112.805C124.319 112.805 123.929 113.195 123.929 113.676C123.929 114.157 124.319 114.547 124.801 114.547Z" fill="#18181B"/>
<path d="M129.154 107.926C129.635 107.926 130.025 107.536 130.025 107.055C130.025 106.574 129.635 106.184 129.154 106.184C128.672 106.184 128.282 106.574 128.282 107.055C128.282 107.536 128.672 107.926 129.154 107.926Z" fill="#18181B"/>
<path d="M131.331 111.236C131.812 111.236 132.202 110.846 132.202 110.365C132.202 109.884 131.812 109.494 131.331 109.494C130.849 109.494 130.459 109.884 130.459 110.365C130.459 110.846 130.849 111.236 131.331 111.236Z" fill="#18181B"/>
<path d="M129.154 114.547C129.635 114.547 130.025 114.157 130.025 113.676C130.025 113.195 129.635 112.805 129.154 112.805C128.672 112.805 128.282 113.195 128.282 113.676C128.282 114.157 128.672 114.547 129.154 114.547Z" fill="#18181B"/>
<path d="M121.758 97.1232C121.758 97.6019 122.151 97.9998 122.63 97.9998C123.109 97.9998 123.502 97.6076 123.502 97.1232C123.502 96.6387 123.109 96.2581 122.63 96.2581C122.151 96.2581 121.758 96.6502 121.758 97.1232Z" fill="#18181B"/>
<path d="M120.453 101.305C120.935 101.305 121.325 100.915 121.325 100.434C121.325 99.9529 120.935 99.563 120.453 99.563C119.972 99.563 119.582 99.9529 119.582 100.434C119.582 100.915 119.972 101.305 120.453 101.305Z" fill="#18181B"/>
<path d="M122.63 104.615C123.111 104.615 123.502 104.225 123.502 103.744C123.502 103.263 123.111 102.873 122.63 102.873C122.149 102.873 121.758 103.263 121.758 103.744C121.758 104.225 122.149 104.615 122.63 104.615Z" fill="#18181B"/>
<path d="M120.453 107.926C120.935 107.926 121.325 107.536 121.325 107.055C121.325 106.574 120.935 106.184 120.453 106.184C119.972 106.184 119.582 106.574 119.582 107.055C119.582 107.536 119.972 107.926 120.453 107.926Z" fill="#18181B"/>
<path d="M124.801 101.305C125.282 101.305 125.673 100.915 125.673 100.434C125.673 99.9529 125.282 99.563 124.801 99.563C124.319 99.563 123.929 99.9529 123.929 100.434C123.929 100.915 124.319 101.305 124.801 101.305Z" fill="#18181B"/>
<path d="M119.582 93.807C119.582 94.2857 119.974 94.6837 120.453 94.6837C120.933 94.6837 121.325 94.2915 121.325 93.807C121.325 93.3225 120.933 92.9419 120.453 92.9419C119.974 92.9419 119.582 93.3341 119.582 93.807Z" fill="#18181B"/>
<path d="M126.978 104.615C127.459 104.615 127.85 104.225 127.85 103.744C127.85 103.263 127.459 102.873 126.978 102.873C126.496 102.873 126.106 103.263 126.106 103.744C126.106 104.225 126.496 104.615 126.978 104.615Z" fill="#18181B"/>
<path d="M133.507 114.547C133.989 114.547 134.379 114.157 134.379 113.676C134.379 113.195 133.989 112.805 133.507 112.805C133.026 112.805 132.635 113.195 132.635 113.676C132.635 114.157 133.026 114.547 133.507 114.547Z" fill="#18181B"/>
<path d="M122.63 117.857C123.111 117.857 123.502 117.467 123.502 116.986C123.502 116.505 123.111 116.115 122.63 116.115C122.149 116.115 121.758 116.505 121.758 116.986C121.758 117.467 122.149 117.857 122.63 117.857Z" fill="#18181B"/>
<path d="M126.978 117.857C127.459 117.857 127.85 117.467 127.85 116.986C127.85 116.505 127.459 116.115 126.978 116.115C126.496 116.115 126.106 116.505 126.106 116.986C126.106 117.467 126.496 117.857 126.978 117.857Z" fill="#18181B"/>
<path d="M122.63 111.236C123.111 111.236 123.502 110.846 123.502 110.365C123.502 109.884 123.111 109.494 122.63 109.494C122.149 109.494 121.758 109.884 121.758 110.365C121.758 110.846 122.149 111.236 122.63 111.236Z" fill="#18181B"/>
<path d="M124.801 121.168C125.282 121.168 125.673 120.778 125.673 120.297C125.673 119.816 125.282 119.426 124.801 119.426C124.319 119.426 123.929 119.816 123.929 120.297C123.929 120.778 124.319 121.168 124.801 121.168Z" fill="#18181B"/>
<path d="M131.331 117.857C131.812 117.857 132.202 117.467 132.202 116.986C132.202 116.505 131.812 116.115 131.331 116.115C130.849 116.115 130.459 116.505 130.459 116.986C130.459 117.467 130.849 117.857 131.331 117.857Z" fill="#18181B"/>
<path d="M135.684 117.857C136.165 117.857 136.556 117.467 136.556 116.986C136.556 116.505 136.165 116.115 135.684 116.115C135.202 116.115 134.812 116.505 134.812 116.986C134.812 117.467 135.202 117.857 135.684 117.857Z" fill="#18181B"/>
<path d="M129.154 121.168C129.635 121.168 130.025 120.778 130.025 120.297C130.025 119.816 129.635 119.426 129.154 119.426C128.672 119.426 128.282 119.816 128.282 120.297C128.282 120.778 128.672 121.168 129.154 121.168Z" fill="#18181B"/>
<path d="M133.507 121.168C133.989 121.168 134.379 120.778 134.379 120.297C134.379 119.816 133.989 119.426 133.507 119.426C133.026 119.426 132.635 119.816 132.635 120.297C132.635 120.778 133.026 121.168 133.507 121.168Z" fill="#18181B"/>
<path d="M137.855 121.168C138.336 121.168 138.726 120.778 138.726 120.297C138.726 119.816 138.336 119.426 137.855 119.426C137.373 119.426 136.983 119.816 136.983 120.297C136.983 120.778 137.373 121.168 137.855 121.168Z" fill="#18181B"/>
<path d="M131.331 124.478C131.812 124.478 132.202 124.088 132.202 123.607C132.202 123.126 131.812 122.736 131.331 122.736C130.849 122.736 130.459 123.126 130.459 123.607C130.459 124.088 130.849 124.478 131.331 124.478Z" fill="#18181B"/>
<path d="M135.684 124.478C136.165 124.478 136.556 124.088 136.556 123.607C136.556 123.126 136.165 122.736 135.684 122.736C135.202 122.736 134.812 123.126 134.812 123.607C134.812 124.088 135.202 124.478 135.684 124.478Z" fill="#18181B"/>
<path d="M140.032 124.478C140.513 124.478 140.903 124.088 140.903 123.607C140.903 123.126 140.513 122.736 140.032 122.736C139.55 122.736 139.16 123.126 139.16 123.607C139.16 124.088 139.55 124.478 140.032 124.478Z" fill="#18181B"/>
<path d="M129.154 127.789C129.635 127.789 130.025 127.399 130.025 126.918C130.025 126.437 129.635 126.047 129.154 126.047C128.672 126.047 128.282 126.437 128.282 126.918C128.282 127.399 128.672 127.789 129.154 127.789Z" fill="#18181B"/>
<path d="M133.507 127.789C133.989 127.789 134.379 127.399 134.379 126.918C134.379 126.437 133.989 126.047 133.507 126.047C133.026 126.047 132.635 126.437 132.635 126.918C132.635 127.399 133.026 127.789 133.507 127.789Z" fill="#18181B"/>
<path d="M137.855 127.789C138.336 127.789 138.726 127.399 138.726 126.918C138.726 126.437 138.336 126.047 137.855 126.047C137.373 126.047 136.983 126.437 136.983 126.918C136.983 127.399 137.373 127.789 137.855 127.789Z" fill="#18181B"/>
<path d="M142.207 127.789C142.689 127.789 143.079 127.399 143.079 126.918C143.079 126.437 142.689 126.047 142.207 126.047C141.726 126.047 141.336 126.437 141.336 126.918C141.336 127.399 141.726 127.789 142.207 127.789Z" fill="#18181B"/>
<path d="M146.555 127.789C147.037 127.789 147.427 127.399 147.427 126.918C147.427 126.437 147.037 126.047 146.555 126.047C146.074 126.047 145.683 126.437 145.683 126.918C145.683 127.399 146.074 127.789 146.555 127.789Z" fill="#18181B"/>
<path d="M135.684 131.099C136.165 131.099 136.556 130.709 136.556 130.228C136.556 129.747 136.165 129.357 135.684 129.357C135.202 129.357 134.812 129.747 134.812 130.228C134.812 130.709 135.202 131.099 135.684 131.099Z" fill="#18181B"/>
<path d="M140.032 131.099C140.513 131.099 140.903 130.709 140.903 130.228C140.903 129.747 140.513 129.357 140.032 129.357C139.55 129.357 139.16 129.747 139.16 130.228C139.16 130.709 139.55 131.099 140.032 131.099Z" fill="#18181B"/>
<path d="M144.384 131.099C144.866 131.099 145.256 130.709 145.256 130.228C145.256 129.747 144.866 129.357 144.384 129.357C143.903 129.357 143.512 129.747 143.512 130.228C143.512 130.709 143.903 131.099 144.384 131.099Z" fill="#18181B"/>
<path d="M148.738 131.099C149.219 131.099 149.609 130.709 149.609 130.228C149.609 129.747 149.219 129.357 148.738 129.357C148.256 129.357 147.866 129.747 147.866 130.228C147.866 130.709 148.256 131.099 148.738 131.099Z" fill="#18181B"/>
<path d="M133.507 134.409C133.989 134.409 134.379 134.02 134.379 133.539C134.379 133.058 133.989 132.668 133.507 132.668C133.026 132.668 132.635 133.058 132.635 133.539C132.635 134.02 133.026 134.409 133.507 134.409Z" fill="#18181B"/>
<path d="M137.855 134.409C138.336 134.409 138.726 134.02 138.726 133.539C138.726 133.058 138.336 132.668 137.855 132.668C137.373 132.668 136.983 133.058 136.983 133.539C136.983 134.02 137.373 134.409 137.855 134.409Z" fill="#18181B"/>
<path d="M142.207 134.409C142.689 134.409 143.079 134.02 143.079 133.539C143.079 133.058 142.689 132.668 142.207 132.668C141.726 132.668 141.336 133.058 141.336 133.539C141.336 134.02 141.726 134.409 142.207 134.409Z" fill="#18181B"/>
<path d="M146.555 134.409C147.037 134.409 147.427 134.02 147.427 133.539C147.427 133.058 147.037 132.668 146.555 132.668C146.074 132.668 145.683 133.058 145.683 133.539C145.683 134.02 146.074 134.409 146.555 134.409Z" fill="#18181B"/>
<path d="M150.908 134.409C151.39 134.409 151.78 134.02 151.78 133.539C151.78 133.058 151.39 132.668 150.908 132.668C150.427 132.668 150.037 133.058 150.037 133.539C150.037 134.02 150.427 134.409 150.908 134.409Z" fill="#18181B"/>
<path d="M155.262 134.409C155.743 134.409 156.134 134.02 156.134 133.539C156.134 133.058 155.743 132.668 155.262 132.668C154.781 132.668 154.39 133.058 154.39 133.539C154.39 134.02 154.781 134.409 155.262 134.409Z" fill="#18181B"/>
<path d="M216.177 134.409C216.659 134.409 217.049 134.02 217.049 133.539C217.049 133.058 216.659 132.668 216.177 132.668C215.696 132.668 215.305 133.058 215.305 133.539C215.305 134.02 215.696 134.409 216.177 134.409Z" fill="#18181B"/>
<path d="M140.032 137.72C140.513 137.72 140.903 137.33 140.903 136.849C140.903 136.368 140.513 135.978 140.032 135.978C139.55 135.978 139.16 136.368 139.16 136.849C139.16 137.33 139.55 137.72 140.032 137.72Z" fill="#18181B"/>
<path d="M144.384 137.72C144.866 137.72 145.256 137.33 145.256 136.849C145.256 136.368 144.866 135.978 144.384 135.978C143.903 135.978 143.512 136.368 143.512 136.849C143.512 137.33 143.903 137.72 144.384 137.72Z" fill="#18181B"/>
<path d="M142.207 141.031C142.689 141.031 143.079 140.641 143.079 140.16C143.079 139.679 142.689 139.289 142.207 139.289C141.726 139.289 141.336 139.679 141.336 140.16C141.336 140.641 141.726 141.031 142.207 141.031Z" fill="#18181B"/>
<path d="M148.738 137.72C149.219 137.72 149.609 137.33 149.609 136.849C149.609 136.368 149.219 135.978 148.738 135.978C148.256 135.978 147.866 136.368 147.866 136.849C147.866 137.33 148.256 137.72 148.738 137.72Z" fill="#18181B"/>
<path d="M153.085 137.72C153.567 137.72 153.957 137.33 153.957 136.849C153.957 136.368 153.567 135.978 153.085 135.978C152.604 135.978 152.213 136.368 152.213 136.849C152.213 137.33 152.604 137.72 153.085 137.72Z" fill="#18181B"/>
<path d="M157.438 137.72C157.919 137.72 158.31 137.33 158.31 136.849C158.31 136.368 157.919 135.978 157.438 135.978C156.956 135.978 156.566 136.368 156.566 136.849C156.566 137.33 156.956 137.72 157.438 137.72Z" fill="#18181B"/>
<path d="M214 137.72C214.482 137.72 214.872 137.33 214.872 136.849C214.872 136.368 214.482 135.978 214 135.978C213.519 135.978 213.128 136.368 213.128 136.849C213.128 137.33 213.519 137.72 214 137.72Z" fill="#18181B"/>
<path d="M218.354 137.72C218.835 137.72 219.226 137.33 219.226 136.849C219.226 136.368 218.835 135.978 218.354 135.978C217.872 135.978 217.482 136.368 217.482 136.849C217.482 137.33 217.872 137.72 218.354 137.72Z" fill="#18181B"/>
<path d="M146.555 141.031C147.037 141.031 147.427 140.641 147.427 140.16C147.427 139.679 147.037 139.289 146.555 139.289C146.074 139.289 145.683 139.679 145.683 140.16C145.683 140.641 146.074 141.031 146.555 141.031Z" fill="#18181B"/>
<path d="M144.378 144.341C144.86 144.341 145.25 143.951 145.25 143.47C145.25 142.989 144.86 142.599 144.378 142.599C143.897 142.599 143.506 142.989 143.506 143.47C143.506 143.951 143.897 144.341 144.378 144.341Z" fill="#18181B"/>
<path d="M150.908 141.031C151.39 141.031 151.78 140.641 151.78 140.16C151.78 139.679 151.39 139.289 150.908 139.289C150.427 139.289 150.037 139.679 150.037 140.16C150.037 140.641 150.427 141.031 150.908 141.031Z" fill="#18181B"/>
<path d="M155.262 141.031C155.743 141.031 156.134 140.641 156.134 140.16C156.134 139.679 155.743 139.289 155.262 139.289C154.781 139.289 154.39 139.679 154.39 140.16C154.39 140.641 154.781 141.031 155.262 141.031Z" fill="#18181B"/>
<path d="M159.609 141.031C160.09 141.031 160.48 140.641 160.48 140.16C160.48 139.679 160.09 139.289 159.609 139.289C159.127 139.289 158.737 139.679 158.737 140.16C158.737 140.641 159.127 141.031 159.609 141.031Z" fill="#18181B"/>
<path d="M163.962 141.031C164.441 141.031 164.834 140.638 164.834 140.16C164.834 139.681 164.441 139.289 163.962 139.289C163.483 139.289 163.096 139.681 163.096 140.16C163.096 140.638 163.489 141.031 163.962 141.031Z" fill="#18181B"/>
<path d="M207.477 141.031C207.958 141.031 208.348 140.641 208.348 140.16C208.348 139.679 207.958 139.289 207.477 139.289C206.995 139.289 206.605 139.679 206.605 140.16C206.605 140.641 206.995 141.031 207.477 141.031Z" fill="#18181B"/>
<path d="M211.83 141.031C212.312 141.031 212.702 140.641 212.702 140.16C212.702 139.679 212.312 139.289 211.83 139.289C211.349 139.289 210.959 139.679 210.959 140.16C210.959 140.641 211.349 141.031 211.83 141.031Z" fill="#18181B"/>
<path d="M216.177 141.031C216.659 141.031 217.049 140.641 217.049 140.16C217.049 139.679 216.659 139.289 216.177 139.289C215.696 139.289 215.305 139.679 215.305 140.16C215.305 140.641 215.696 141.031 216.177 141.031Z" fill="#18181B"/>
<path d="M148.738 144.341C149.219 144.341 149.609 143.951 149.609 143.47C149.609 142.989 149.219 142.599 148.738 142.599C148.256 142.599 147.866 142.989 147.866 143.47C147.866 143.951 148.256 144.341 148.738 144.341Z" fill="#18181B"/>
<path d="M153.085 144.341C153.567 144.341 153.957 143.951 153.957 143.47C153.957 142.989 153.567 142.599 153.085 142.599C152.604 142.599 152.213 142.989 152.213 143.47C152.213 143.951 152.604 144.341 153.085 144.341Z" fill="#18181B"/>
<path d="M157.438 144.341C157.919 144.341 158.31 143.951 158.31 143.47C158.31 142.989 157.919 142.599 157.438 142.599C156.956 142.599 156.566 142.989 156.566 143.47C156.566 143.951 156.956 144.341 157.438 144.341Z" fill="#18181B"/>
<path d="M161.791 144.341C162.273 144.341 162.663 143.951 162.663 143.47C162.663 142.989 162.273 142.599 161.791 142.599C161.31 142.599 160.92 142.989 160.92 143.47C160.92 143.951 161.31 144.341 161.791 144.341Z" fill="#18181B"/>
<path d="M166.139 144.341C166.62 144.341 167.011 143.951 167.011 143.47C167.011 142.989 166.62 142.599 166.139 142.599C165.657 142.599 165.267 142.989 165.267 143.47C165.267 143.951 165.657 144.341 166.139 144.341Z" fill="#18181B"/>
<path d="M170.491 144.341C170.973 144.341 171.363 143.951 171.363 143.47C171.363 142.989 170.973 142.599 170.491 142.599C170.01 142.599 169.62 142.989 169.62 143.47C169.62 143.951 170.01 144.341 170.491 144.341Z" fill="#18181B"/>
<path d="M200.947 144.341C201.428 144.341 201.818 143.951 201.818 143.47C201.818 142.989 201.428 142.599 200.947 142.599C200.465 142.599 200.075 142.989 200.075 143.47C200.075 143.951 200.465 144.341 200.947 144.341Z" fill="#18181B"/>
<path d="M205.3 144.341C205.782 144.341 206.172 143.951 206.172 143.47C206.172 142.989 205.782 142.599 205.3 142.599C204.819 142.599 204.428 142.989 204.428 143.47C204.428 143.951 204.819 144.341 205.3 144.341Z" fill="#18181B"/>
<path d="M209.654 144.341C210.135 144.341 210.525 143.951 210.525 143.47C210.525 142.989 210.135 142.599 209.654 142.599C209.172 142.599 208.782 142.989 208.782 143.47C208.782 143.951 209.172 144.341 209.654 144.341Z" fill="#18181B"/>
<path d="M214 144.341C214.482 144.341 214.872 143.951 214.872 143.47C214.872 142.989 214.482 142.599 214 142.599C213.519 142.599 213.128 142.989 213.128 143.47C213.128 143.951 213.519 144.341 214 144.341Z" fill="#18181B"/>
<path d="M218.354 144.341C218.835 144.341 219.226 143.951 219.226 143.47C219.226 142.989 218.835 142.599 218.354 142.599C217.872 142.599 217.482 142.989 217.482 143.47C217.482 143.951 217.872 144.341 218.354 144.341Z" fill="#18181B"/>
<path d="M156.134 146.787C156.134 146.308 155.741 145.91 155.262 145.91C154.783 145.91 154.39 146.302 154.39 146.787C154.39 147.271 154.783 147.652 155.262 147.652C155.741 147.652 156.134 147.259 156.134 146.787Z" fill="#18181B"/>
<path d="M160.48 146.787C160.48 146.308 160.088 145.91 159.609 145.91C159.129 145.91 158.737 146.302 158.737 146.787C158.737 147.271 159.129 147.652 159.609 147.652C160.088 147.652 160.48 147.259 160.48 146.787Z" fill="#18181B"/>
<path d="M164.834 146.787C164.834 146.308 164.441 145.91 163.962 145.91C163.483 145.91 163.096 146.302 163.096 146.787C163.096 147.271 163.489 147.652 163.962 147.652C164.436 147.652 164.834 147.259 164.834 146.787Z" fill="#18181B"/>
<path d="M167.444 146.787C167.444 147.265 167.836 147.652 168.321 147.652C168.806 147.652 169.187 147.259 169.187 146.787C169.187 146.314 168.795 145.91 168.321 145.91C167.848 145.91 167.444 146.302 167.444 146.787Z" fill="#18181B"/>
<path d="M172.662 147.652C173.142 147.652 173.54 147.259 173.54 146.787C173.54 146.314 173.147 145.91 172.662 145.91C172.177 145.91 171.796 146.302 171.796 146.787C171.796 147.271 172.189 147.652 172.662 147.652Z" fill="#18181B"/>
<path d="M176.144 146.787C176.144 147.265 176.537 147.652 177.022 147.652C177.507 147.652 177.888 147.259 177.888 146.787C177.888 146.314 177.495 145.91 177.022 145.91C176.548 145.91 176.144 146.302 176.144 146.787Z" fill="#18181B"/>
<path d="M181.369 147.652C181.849 147.652 182.247 147.259 182.247 146.787C182.247 146.314 181.854 145.91 181.369 145.91C180.885 145.91 180.503 146.302 180.503 146.787C180.503 147.271 180.896 147.652 181.369 147.652Z" fill="#18181B"/>
<path d="M184.85 146.787C184.85 147.265 185.243 147.652 185.722 147.652C186.201 147.652 186.588 147.259 186.588 146.787C186.588 146.314 186.195 145.91 185.722 145.91C185.249 145.91 184.85 146.302 184.85 146.787Z" fill="#18181B"/>
<path d="M189.198 146.787C189.198 147.265 189.591 147.652 190.07 147.652C190.549 147.652 190.942 147.259 190.942 146.787C190.942 146.314 190.549 145.91 190.07 145.91C189.591 145.91 189.198 146.302 189.198 146.787Z" fill="#18181B"/>
<path d="M193.551 146.787C193.551 147.265 193.944 147.652 194.423 147.652C194.902 147.652 195.295 147.259 195.295 146.787C195.295 146.314 194.902 145.91 194.423 145.91C193.944 145.91 193.551 146.302 193.551 146.787Z" fill="#18181B"/>
<path d="M197.904 146.787C197.904 147.265 198.296 147.652 198.776 147.652C199.255 147.652 199.647 147.259 199.647 146.787C199.647 146.314 199.255 145.91 198.776 145.91C198.296 145.91 197.904 146.302 197.904 146.787Z" fill="#18181B"/>
<path d="M203.123 145.91C202.644 145.91 202.252 146.302 202.252 146.787C202.252 147.271 202.644 147.652 203.123 147.652C203.603 147.652 203.995 147.259 203.995 146.787C203.995 146.314 203.603 145.91 203.123 145.91Z" fill="#18181B"/>
<path d="M206.605 146.787C206.605 147.265 206.997 147.652 207.477 147.652C207.956 147.652 208.348 147.259 208.348 146.787C208.348 146.314 207.956 145.91 207.477 145.91C206.997 145.91 206.605 146.302 206.605 146.787Z" fill="#18181B"/>
<path d="M210.959 146.787C210.959 147.265 211.351 147.652 211.83 147.652C212.31 147.652 212.702 147.259 212.702 146.787C212.702 146.314 212.31 145.91 211.83 145.91C211.351 145.91 210.959 146.302 210.959 146.787Z" fill="#18181B"/>
<path d="M216.177 145.91C215.698 145.91 215.305 146.302 215.305 146.787C215.305 147.271 215.698 147.652 216.177 147.652C216.656 147.652 217.049 147.259 217.049 146.787C217.049 146.314 216.656 145.91 216.177 145.91Z" fill="#18181B"/>
<path d="M161.791 150.962C162.273 150.962 162.663 150.572 162.663 150.091C162.663 149.61 162.273 149.22 161.791 149.22C161.31 149.22 160.92 149.61 160.92 150.091C160.92 150.572 161.31 150.962 161.791 150.962Z" fill="#18181B"/>
<path d="M166.139 150.962C166.62 150.962 167.011 150.572 167.011 150.091C167.011 149.61 166.62 149.22 166.139 149.22C165.657 149.22 165.267 149.61 165.267 150.091C165.267 150.572 165.657 150.962 166.139 150.962Z" fill="#18181B"/>
<path d="M170.491 150.962C170.973 150.962 171.363 150.572 171.363 150.091C171.363 149.61 170.973 149.22 170.491 149.22C170.01 149.22 169.62 149.61 169.62 150.091C169.62 150.572 170.01 150.962 170.491 150.962Z" fill="#18181B"/>
<path d="M174.839 150.962C175.321 150.962 175.711 150.572 175.711 150.091C175.711 149.61 175.321 149.22 174.839 149.22C174.358 149.22 173.968 149.61 173.968 150.091C173.968 150.572 174.358 150.962 174.839 150.962Z" fill="#18181B"/>
<path d="M179.193 150.962C179.674 150.962 180.064 150.572 180.064 150.091C180.064 149.61 179.674 149.22 179.193 149.22C178.711 149.22 178.321 149.61 178.321 150.091C178.321 150.572 178.711 150.962 179.193 150.962Z" fill="#18181B"/>
<path d="M183.546 150.962C184.028 150.962 184.418 150.572 184.418 150.091C184.418 149.61 184.028 149.22 183.546 149.22C183.065 149.22 182.674 149.61 182.674 150.091C182.674 150.572 183.065 150.962 183.546 150.962Z" fill="#18181B"/>
<path d="M187.893 150.962C188.374 150.962 188.765 150.572 188.765 150.091C188.765 149.61 188.374 149.22 187.893 149.22C187.411 149.22 187.021 149.61 187.021 150.091C187.021 150.572 187.411 150.962 187.893 150.962Z" fill="#18181B"/>
<path d="M192.246 150.962C192.728 150.962 193.118 150.572 193.118 150.091C193.118 149.61 192.728 149.22 192.246 149.22C191.765 149.22 191.375 149.61 191.375 150.091C191.375 150.572 191.765 150.962 192.246 150.962Z" fill="#18181B"/>
<path d="M196.6 150.962C197.081 150.962 197.472 150.572 197.472 150.091C197.472 149.61 197.081 149.22 196.6 149.22C196.118 149.22 195.728 149.61 195.728 150.091C195.728 150.572 196.118 150.962 196.6 150.962Z" fill="#18181B"/>
<path d="M200.947 150.962C201.428 150.962 201.818 150.572 201.818 150.091C201.818 149.61 201.428 149.22 200.947 149.22C200.465 149.22 200.075 149.61 200.075 150.091C200.075 150.572 200.465 150.962 200.947 150.962Z" fill="#18181B"/>
<path d="M205.3 150.962C205.782 150.962 206.172 150.572 206.172 150.091C206.172 149.61 205.782 149.22 205.3 149.22C204.819 149.22 204.428 149.61 204.428 150.091C204.428 150.572 204.819 150.962 205.3 150.962Z" fill="#18181B"/>
<path d="M209.654 150.962C210.135 150.962 210.525 150.572 210.525 150.091C210.525 149.61 210.135 149.22 209.654 149.22C209.172 149.22 208.782 149.61 208.782 150.091C208.782 150.572 209.172 150.962 209.654 150.962Z" fill="#18181B"/>
<path d="M214 150.962C214.482 150.962 214.872 150.572 214.872 150.091C214.872 149.61 214.482 149.22 214 149.22C213.519 149.22 213.128 149.61 213.128 150.091C213.128 150.572 213.519 150.962 214 150.962Z" fill="#18181B"/>
<path d="M168.316 152.531C167.836 152.531 167.438 152.923 167.438 153.402C167.438 153.88 167.831 154.273 168.316 154.273C168.801 154.273 169.182 153.88 169.182 153.402C169.182 152.923 168.789 152.531 168.316 152.531Z" fill="#18181B"/>
<path d="M173.54 153.402C173.54 152.923 173.147 152.531 172.662 152.531C172.177 152.531 171.796 152.923 171.796 153.402C171.796 153.88 172.189 154.273 172.662 154.273C173.136 154.273 173.54 153.88 173.54 153.402Z" fill="#18181B"/>
<path d="M177.022 152.531C176.543 152.531 176.144 152.923 176.144 153.402C176.144 153.88 176.537 154.273 177.022 154.273C177.507 154.273 177.888 153.88 177.888 153.402C177.888 152.923 177.495 152.531 177.022 152.531Z" fill="#18181B"/>
<path d="M181.369 154.273C181.849 154.273 182.247 153.88 182.247 153.402C182.247 152.923 181.854 152.531 181.369 152.531C180.885 152.531 180.503 152.923 180.503 153.402C180.503 153.88 180.896 154.273 181.369 154.273Z" fill="#18181B"/>
<path d="M185.722 152.531C185.243 152.531 184.85 152.923 184.85 153.402C184.85 153.88 185.243 154.273 185.722 154.273C186.201 154.273 186.588 153.88 186.588 153.402C186.588 152.923 186.195 152.531 185.722 152.531Z" fill="#18181B"/>
<path d="M190.07 154.273C190.551 154.273 190.942 153.883 190.942 153.402C190.942 152.921 190.551 152.531 190.07 152.531C189.588 152.531 189.198 152.921 189.198 153.402C189.198 153.883 189.588 154.273 190.07 154.273Z" fill="#18181B"/>
<path d="M194.423 154.273C194.904 154.273 195.295 153.883 195.295 153.402C195.295 152.921 194.904 152.531 194.423 152.531C193.941 152.531 193.551 152.921 193.551 153.402C193.551 153.883 193.941 154.273 194.423 154.273Z" fill="#18181B"/>
<path d="M198.776 154.273C199.257 154.273 199.647 153.883 199.647 153.402C199.647 152.921 199.257 152.531 198.776 152.531C198.294 152.531 197.904 152.921 197.904 153.402C197.904 153.883 198.294 154.273 198.776 154.273Z" fill="#18181B"/>
<path d="M203.123 154.273C203.605 154.273 203.995 153.883 203.995 153.402C203.995 152.921 203.605 152.531 203.123 152.531C202.642 152.531 202.252 152.921 202.252 153.402C202.252 153.883 202.642 154.273 203.123 154.273Z" fill="#18181B"/>
<path d="M207.477 154.273C207.958 154.273 208.348 153.883 208.348 153.402C208.348 152.921 207.958 152.531 207.477 152.531C206.995 152.531 206.605 152.921 206.605 153.402C206.605 153.883 206.995 154.273 207.477 154.273Z" fill="#18181B"/>
<path d="M174.839 157.583C175.321 157.583 175.711 157.193 175.711 156.712C175.711 156.231 175.321 155.841 174.839 155.841C174.358 155.841 173.968 156.231 173.968 156.712C173.968 157.193 174.358 157.583 174.839 157.583Z" fill="#18181B"/>
<path d="M179.193 157.583C179.674 157.583 180.064 157.193 180.064 156.712C180.064 156.231 179.674 155.841 179.193 155.841C178.711 155.841 178.321 156.231 178.321 156.712C178.321 157.193 178.711 157.583 179.193 157.583Z" fill="#18181B"/>
<path d="M183.546 157.583C184.028 157.583 184.418 157.193 184.418 156.712C184.418 156.231 184.028 155.841 183.546 155.841C183.065 155.841 182.674 156.231 182.674 156.712C182.674 157.193 183.065 157.583 183.546 157.583Z" fill="#18181B"/>
<path d="M187.893 157.583C188.374 157.583 188.765 157.193 188.765 156.712C188.765 156.231 188.374 155.841 187.893 155.841C187.411 155.841 187.021 156.231 187.021 156.712C187.021 157.193 187.411 157.583 187.893 157.583Z" fill="#18181B"/>
<path d="M192.246 157.583C192.728 157.583 193.118 157.193 193.118 156.712C193.118 156.231 192.728 155.841 192.246 155.841C191.765 155.841 191.375 156.231 191.375 156.712C191.375 157.193 191.765 157.583 192.246 157.583Z" fill="#18181B"/>
<path d="M196.6 157.583C197.081 157.583 197.472 157.193 197.472 156.712C197.472 156.231 197.081 155.841 196.6 155.841C196.118 155.841 195.728 156.231 195.728 156.712C195.728 157.193 196.118 157.583 196.6 157.583Z" fill="#18181B"/>
<path d="M200.947 157.583C201.428 157.583 201.818 157.193 201.818 156.712C201.818 156.231 201.428 155.841 200.947 155.841C200.465 155.841 200.075 156.231 200.075 156.712C200.075 157.193 200.465 157.583 200.947 157.583Z" fill="#18181B"/>
<path d="M205.3 157.583C205.782 157.583 206.172 157.193 206.172 156.712C206.172 156.231 205.782 155.841 205.3 155.841C204.819 155.841 204.428 156.231 204.428 156.712C204.428 157.193 204.819 157.583 205.3 157.583Z" fill="#18181B"/>
<path d="M182.241 160.023C182.241 159.544 181.849 159.152 181.364 159.152C180.879 159.152 180.498 159.544 180.498 160.023C180.498 160.501 180.89 160.894 181.364 160.894C181.837 160.894 182.241 160.501 182.241 160.023Z" fill="#18181B"/>
<path d="M185.722 159.152C185.243 159.152 184.85 159.544 184.85 160.023C184.85 160.501 185.243 160.894 185.722 160.894C186.201 160.894 186.588 160.501 186.588 160.023C186.588 159.544 186.195 159.152 185.722 159.152Z" fill="#18181B"/>
<path d="M190.07 160.894C190.551 160.894 190.942 160.504 190.942 160.023C190.942 159.542 190.551 159.152 190.07 159.152C189.588 159.152 189.198 159.542 189.198 160.023C189.198 160.504 189.588 160.894 190.07 160.894Z" fill="#18181B"/>
<path d="M194.423 160.894C194.904 160.894 195.295 160.504 195.295 160.023C195.295 159.542 194.904 159.152 194.423 159.152C193.941 159.152 193.551 159.542 193.551 160.023C193.551 160.504 193.941 160.894 194.423 160.894Z" fill="#18181B"/>
<path d="M198.776 160.894C199.257 160.894 199.647 160.504 199.647 160.023C199.647 159.542 199.257 159.152 198.776 159.152C198.294 159.152 197.904 159.542 197.904 160.023C197.904 160.504 198.294 160.894 198.776 160.894Z" fill="#18181B"/>
<path d="M150.908 147.657C151.39 147.657 151.78 147.267 151.78 146.786C151.78 146.305 151.39 145.916 150.908 145.916C150.427 145.916 150.037 146.305 150.037 146.786C150.037 147.267 150.427 147.657 150.908 147.657Z" fill="#18181B"/>
<path d="M157.432 150.968C157.913 150.968 158.304 150.578 158.304 150.097C158.304 149.616 157.913 149.226 157.432 149.226C156.95 149.226 156.56 149.616 156.56 150.097C156.56 150.578 156.95 150.968 157.432 150.968Z" fill="#18181B"/>
<path d="M163.962 154.273C164.444 154.273 164.834 153.883 164.834 153.402C164.834 152.921 164.444 152.531 163.962 152.531C163.481 152.531 163.09 152.921 163.09 153.402C163.09 153.883 163.481 154.273 163.962 154.273Z" fill="#18181B"/>
<path d="M170.491 157.583C170.973 157.583 171.363 157.193 171.363 156.712C171.363 156.231 170.973 155.841 170.491 155.841C170.01 155.841 169.62 156.231 169.62 156.712C169.62 157.193 170.01 157.583 170.491 157.583Z" fill="#18181B"/>
<path d="M177.016 160.894C177.497 160.894 177.888 160.504 177.888 160.023C177.888 159.542 177.497 159.152 177.016 159.152C176.534 159.152 176.144 159.542 176.144 160.023C176.144 160.504 176.534 160.894 177.016 160.894Z" fill="#18181B"/>
<path d="M131.324 131.099C131.806 131.099 132.196 130.709 132.196 130.228C132.196 129.747 131.806 129.357 131.324 129.357C130.843 129.357 130.453 129.747 130.453 130.228C130.453 130.709 130.843 131.099 131.324 131.099Z" fill="#18181B"/>
<path d="M126.978 124.478C127.459 124.478 127.85 124.088 127.85 123.607C127.85 123.126 127.459 122.736 126.978 122.736C126.496 122.736 126.106 123.126 126.106 123.607C126.106 124.088 126.496 124.478 126.978 124.478Z" fill="#18181B"/>
<path d="M254.265 37.2114C252.879 36.6923 251.176 36.5885 249.462 36.8826C247.747 37.1941 246.188 37.9035 245.079 38.8782C243.798 39.997 243.209 41.4158 243.451 42.7654C243.515 43.1172 243.636 43.4459 243.804 43.7574L207.846 64.6758C199.654 53.4178 189.689 44.0112 179.164 37.7823C170.613 32.7186 162.144 30.0425 154.679 30.0425C150.17 30.0425 146.094 31.0056 142.589 32.857C142.474 32.8858 142.364 32.9262 142.254 32.9896L128.871 40.7468C128.871 40.7468 128.831 40.7756 128.808 40.7929C126.839 41.9407 125.061 43.3825 123.514 45.1185C119.033 50.1361 116.661 57.3916 116.661 66.0946C116.661 79.2846 121.978 94.6779 131.637 109.431L131.966 109.915L106.534 124.824C106.493 124.847 106.459 124.876 106.424 124.905C104.565 124.259 102.198 124.086 99.7039 124.536C94.502 125.482 90.7492 128.775 91.315 131.895C91.8808 135.015 96.5573 136.78 101.759 135.834C106.961 134.888 110.714 131.595 110.148 128.475C110.009 127.714 109.623 127.027 109.04 126.451L133.473 112.13C141.85 124.109 152.491 134.265 163.477 140.765C171.993 145.806 180.428 148.465 187.87 148.465C192.316 148.465 196.305 147.525 199.723 145.754C199.81 145.725 199.896 145.696 199.977 145.65L213.782 137.691C213.857 137.651 213.92 137.599 213.984 137.547C220.756 133.446 225.028 125.868 225.785 115.821C226.98 106.149 224.601 91.4424 217.817 66.7636L216.68 62.6284L245.899 45.6318C246.852 46.0817 248.012 46.3297 249.283 46.3297C249.883 46.3297 250.512 46.272 251.147 46.1566C254.987 45.4588 257.631 42.875 257.158 40.2739C256.915 38.9243 255.859 37.8054 254.265 37.2114ZM217.898 129.553C216.945 129.553 216.178 128.781 216.178 127.835C216.178 126.889 216.951 126.116 217.898 126.116C218.845 126.116 219.619 126.889 219.619 127.835C219.619 128.781 218.845 129.553 217.898 129.553ZM217.898 103.537C218.845 103.537 219.619 104.309 219.619 105.255C219.619 106.201 218.845 106.974 217.898 106.974C216.951 106.974 216.178 106.201 216.178 105.255C216.178 104.309 216.951 103.537 217.898 103.537ZM216.178 93.9627C216.178 93.0169 216.951 92.244 217.898 92.244C218.845 92.244 219.619 93.0169 219.619 93.9627C219.619 94.9086 218.845 95.6814 217.898 95.6814C216.951 95.6814 216.178 94.9086 216.178 93.9627ZM217.898 114.829C218.845 114.829 219.619 115.602 219.619 116.548C219.619 117.494 218.845 118.267 217.898 118.267C216.951 118.267 216.178 117.494 216.178 116.548C216.178 115.602 216.951 114.829 217.898 114.829ZM219.619 82.6759C219.619 83.6217 218.845 84.3946 217.898 84.3946C216.951 84.3946 216.178 83.6217 216.178 82.6759C216.178 81.73 216.951 80.9572 217.898 80.9572C218.845 80.9572 219.619 81.73 219.619 82.6759ZM205.531 66.0254L203.776 67.0462C203.47 67.225 203.268 67.5018 203.176 67.8133L203.101 67.8594L199.931 73.673C199.371 74.7053 198.713 75.6396 197.945 76.4875C190.439 65.1083 181.092 55.3557 171.052 48.3829L181.404 42.3617C190.457 48.4405 198.747 56.7687 205.537 66.0254H205.531ZM139.546 112.597C139.01 112.966 137.393 112.378 135.875 110.729L139.2 108.779C140.135 110.613 140.095 112.217 139.546 112.597ZM134.356 108.52C133.865 107.499 133.634 106.472 133.767 105.705C133.808 105.457 133.912 105.117 134.154 104.944C134.258 104.875 134.408 104.834 134.587 104.834C135.28 104.834 136.463 105.417 137.624 106.599L134.362 108.514L134.356 108.52ZM164.834 138.476C155.308 132.841 146.469 124.674 139.183 115.366C139.876 115.36 140.522 115.169 141.076 114.783C142.953 113.468 143.074 110.4 141.504 107.424L145.083 105.325C149.546 107.043 157.912 110.031 164.205 111.628C164.216 111.628 164.228 111.634 164.24 111.64C164.476 111.698 164.713 111.761 164.95 111.819C165.29 111.899 165.631 111.986 165.96 112.055C168.876 112.701 171.855 113.036 174.776 113.036C184.839 113.036 194.227 109.108 197.858 100.653C197.749 101.512 197.604 102.343 197.425 103.133C197.316 103.623 197.194 104.09 197.062 104.552C196.871 105.215 196.663 105.855 196.421 106.466C196.398 106.53 196.369 106.588 196.346 106.645C196.19 107.037 196.022 107.418 195.843 107.793C194.822 109.95 193.488 111.755 191.912 113.237C191.883 113.26 191.854 113.289 191.825 113.312C191.421 113.687 191.005 114.033 190.572 114.368C189.903 114.887 189.192 115.354 188.459 115.781C187.928 116.087 187.385 116.369 186.831 116.629C186.161 116.94 185.474 117.217 184.77 117.465C184.637 117.511 184.504 117.563 184.366 117.609C183.737 117.817 183.09 118.007 182.437 118.169C179.816 118.82 177.016 119.114 174.158 119.114C173.038 119.114 171.924 119.068 170.827 118.982C164.257 118.468 159.194 116.225 148.403 113.589C147.087 113.284 146.059 113.139 146.059 113.139C148.778 114.374 151.503 115.798 151.503 115.798C164.182 122.679 182.859 137.097 195.237 137.097C197.789 137.097 200.075 136.486 201.981 135.067C213.429 126.652 207.05 98.3229 201.79 79.3769C198.915 83.7083 193.43 85.6173 187.305 85.6173C183.436 85.6173 179.314 84.856 175.429 83.466C165.954 80.1094 157.698 73.35 148.969 71.5621C147.398 71.2333 145.955 71.0776 144.633 71.0776C129.206 71.0776 129.137 93.0918 142.041 104.01L158.732 94.7067L153.957 92.1344C149.973 86.8976 147.935 79.723 148.738 74.2439C153.166 75.2186 157.594 77.6179 162.282 80.1498C166.058 82.1972 169.967 84.3081 174.164 85.8364L158.761 94.7182L161.52 96.2062L177.599 86.9322C180.856 87.8147 184.164 88.2818 187.316 88.2818C192.628 88.2818 197.125 86.9899 200.433 84.5791C201.005 86.7765 201.53 88.8932 202.009 90.9521L199.562 92.3651C197.962 96.6503 196.126 99.932 194.111 102.447C192.05 102.781 189.926 102.902 187.738 102.902C185.001 102.902 182.235 102.597 179.499 101.985C174.58 100.884 167.311 98.3921 161.959 96.4485L161.526 96.212L145.066 105.336L142.064 104.021L139.985 105.238C137.584 102.487 134.547 101.42 132.624 102.781C132.128 103.127 131.758 103.612 131.493 104.177C123.975 91.5923 119.339 78.0216 119.339 66.1176C119.339 49.4498 128.34 40.2162 141.723 40.2162C148.507 40.2162 156.417 42.5924 164.846 47.5754C177.605 55.125 189.146 67.2942 197.402 80.6112C199.279 79.1924 200.97 77.3756 202.281 74.9706C208.002 95.791 211.478 112.465 210.162 123.123C209.065 137.743 200.381 145.823 187.876 145.823C181.115 145.823 173.24 143.459 164.84 138.493L164.834 138.476ZM204.515 126.451C199.556 125.424 193.725 122.604 187.801 119.224C187.876 119.195 187.951 119.172 188.02 119.132L205.248 109.194C206.016 116.513 205.774 122.269 204.515 126.451ZM250.674 43.5267C248.093 43.9939 246.24 43.1114 246.084 42.2867C246.009 41.8887 246.298 41.3697 246.846 40.8852C247.591 40.2393 248.717 39.7317 249.941 39.5126C250.408 39.4261 250.882 39.3799 251.332 39.3799C252.065 39.3799 252.752 39.4895 253.324 39.7087C254.005 39.9682 254.456 40.3546 254.531 40.7526C254.681 41.5715 253.249 43.0595 250.674 43.5267Z" fill="#18181B"/>
<path d="M220.663 51.1225C225.929 50.1651 229.728 46.8315 229.156 43.671C228.584 40.5104 223.85 38.7283 218.585 39.6799C213.319 40.6373 209.52 43.9709 210.092 47.1314C210.664 50.292 215.398 52.0741 220.663 51.1225Z" fill="#18181B"/>
<path d="M251.026 56.7224C249.046 55.9784 246.592 55.8169 244.115 56.261C241.639 56.7109 239.398 57.7259 237.805 59.1274C236.027 60.6904 235.23 62.5475 235.565 64.3758C235.894 66.1983 237.297 67.6632 239.514 68.5052C240.761 68.9724 242.199 69.2146 243.711 69.2146C244.6 69.2146 245.513 69.1339 246.425 68.9666C248.902 68.5168 251.142 67.5017 252.735 66.1002C254.513 64.5373 255.31 62.6744 254.975 60.8519C254.646 59.0294 253.243 57.5645 251.026 56.7224ZM250.968 64.0874C249.75 65.1544 247.92 65.9733 245.946 66.3309C243.965 66.6943 241.968 66.5732 240.455 66.0022C239.173 65.5177 238.348 64.7507 238.192 63.8971C238.036 63.0435 238.538 62.0342 239.572 61.1287C240.784 60.0618 242.62 59.2485 244.595 58.891C245.345 58.7525 246.096 58.6833 246.823 58.6833C248.018 58.6833 249.15 58.8679 250.085 59.2197C251.367 59.7042 252.192 60.4712 252.348 61.3248C252.504 62.1784 252.002 63.1819 250.968 64.0874Z" fill="#18181B"/>
<path d="M103.393 118.359C110.604 117.05 115.592 112.401 114.755 107.787C113.912 103.167 107.602 100.589 100.396 101.881C93.1854 103.191 88.1971 107.839 89.04 112.453C89.7328 116.265 94.1438 118.693 99.7209 118.693C100.899 118.693 102.134 118.584 103.393 118.359ZM91.667 111.974C91.1127 108.929 95.3273 105.515 100.876 104.506C101.955 104.309 103.018 104.217 104.034 104.217C108.248 104.217 111.678 105.809 112.128 108.26C112.682 111.305 108.462 114.72 102.919 115.729C97.3827 116.744 92.227 115.014 91.6727 111.974H91.667Z" fill="#18181B"/>
<path d="M83.7053 117.102C82.2216 116.542 80.3856 116.415 78.5439 116.75C74.4332 117.499 71.6042 120.251 72.1065 123.013C72.3663 124.438 73.4806 125.62 75.178 126.26C76.119 126.612 77.1929 126.791 78.3245 126.791C78.9827 126.791 79.6582 126.733 80.3394 126.606C82.1812 126.272 83.8555 125.51 85.0506 124.466C86.4131 123.273 87.0424 121.767 86.7826 120.349C86.5228 118.924 85.4027 117.742 83.7111 117.102H83.7053ZM83.2781 122.459C82.4583 123.18 81.2112 123.734 79.8545 123.976C78.5035 124.224 77.1352 124.138 76.1133 123.757C75.3165 123.457 74.8142 123.013 74.7276 122.534C74.5313 121.45 76.3211 119.87 79.0173 119.38C79.5311 119.287 80.0508 119.235 80.5473 119.235C81.3556 119.235 82.1234 119.357 82.7527 119.599C83.5495 119.899 84.0518 120.343 84.1384 120.821C84.225 121.3 83.9074 121.9 83.2723 122.459H83.2781Z" fill="#18181B"/>
<path d="M106.614 94.6836C109.738 94.1184 111.995 92.1401 111.655 90.2657C111.314 88.3913 108.508 87.3301 105.385 87.9011C102.261 88.4663 100.004 90.4445 100.344 92.3189C100.685 94.1933 103.491 95.2545 106.614 94.6836Z" fill="#18181B"/>
<path d="M217.904 80.9456C216.951 80.9456 216.183 81.7184 216.183 82.6642C216.183 83.6101 216.957 84.3829 217.904 84.3829C218.851 84.3829 219.624 83.6101 219.624 82.6642C219.624 81.7184 218.851 80.9456 217.904 80.9456Z" fill="white"/>
<path d="M229.202 80.9456C228.255 80.9456 227.481 81.7184 227.481 82.6642C227.481 83.6101 228.255 84.3829 229.202 84.3829C230.149 84.3829 230.922 83.6101 230.922 82.6642C230.922 81.7184 230.149 80.9456 229.202 80.9456Z" fill="#18181B"/>
<path d="M240.507 80.9456C239.56 80.9456 238.786 81.7184 238.786 82.6642C238.786 83.6101 239.56 84.3829 240.507 84.3829C241.453 84.3829 242.227 83.6101 242.227 82.6642C242.227 81.7184 241.453 80.9456 240.507 80.9456Z" fill="#18181B"/>
<path d="M251.805 80.9456C250.858 80.9456 250.085 81.7184 250.085 82.6642C250.085 83.6101 250.858 84.3829 251.805 84.3829C252.752 84.3829 253.526 83.6101 253.526 82.6642C253.526 81.7184 252.752 80.9456 251.805 80.9456Z" fill="#18181B"/>
<path d="M263.11 84.3829C264.057 84.3829 264.83 83.6101 264.83 82.6642C264.83 81.7184 264.057 80.9456 263.11 80.9456C262.163 80.9456 261.389 81.7184 261.389 82.6642C261.389 83.6101 262.163 84.3829 263.11 84.3829Z" fill="#18181B"/>
<path d="M217.904 95.6757C218.851 95.6757 219.624 94.9028 219.624 93.957C219.624 93.0111 218.851 92.2383 217.904 92.2383C216.957 92.2383 216.183 93.0111 216.183 93.957C216.183 94.9028 216.957 95.6757 217.904 95.6757Z" fill="white"/>
<path d="M217.904 106.968C218.851 106.968 219.624 106.195 219.624 105.249C219.624 104.304 218.851 103.531 217.904 103.531C216.957 103.531 216.183 104.304 216.183 105.249C216.183 106.195 216.957 106.968 217.904 106.968Z" fill="white"/>
<path d="M217.904 118.261C218.851 118.261 219.624 117.488 219.624 116.542C219.624 115.596 218.851 114.823 217.904 114.823C216.957 114.823 216.183 115.596 216.183 116.542C216.183 117.488 216.957 118.261 217.904 118.261Z" fill="white"/>
<path d="M219.619 127.835C219.619 126.889 218.845 126.116 217.898 126.116C216.951 126.116 216.178 126.889 216.178 127.835C216.178 128.781 216.951 129.553 217.898 129.553C218.845 129.553 219.619 128.781 219.619 127.835Z" fill="white"/>
<path d="M229.202 92.2383C228.255 92.2383 227.481 93.0111 227.481 93.957C227.481 94.9028 228.255 95.6757 229.202 95.6757C230.149 95.6757 230.922 94.9028 230.922 93.957C230.922 93.0111 230.149 92.2383 229.202 92.2383Z" fill="#18181B"/>
<path d="M229.202 103.531C228.255 103.531 227.481 104.304 227.481 105.249C227.481 106.195 228.255 106.968 229.202 106.968C230.149 106.968 230.922 106.195 230.922 105.249C230.922 104.304 230.149 103.531 229.202 103.531Z" fill="#18181B"/>
<path d="M229.202 114.823C228.255 114.823 227.481 115.596 227.481 116.542C227.481 117.488 228.255 118.261 229.202 118.261C230.149 118.261 230.922 117.488 230.922 116.542C230.922 115.596 230.149 114.823 229.202 114.823Z" fill="#18181B"/>
<path d="M229.202 126.116C228.255 126.116 227.481 126.889 227.481 127.835C227.481 128.781 228.255 129.553 229.202 129.553C230.149 129.553 230.922 128.781 230.922 127.835C230.922 126.889 230.149 126.116 229.202 126.116Z" fill="#18181B"/>
<path d="M240.507 92.2383C239.56 92.2383 238.786 93.0111 238.786 93.957C238.786 94.9028 239.56 95.6757 240.507 95.6757C241.453 95.6757 242.227 94.9028 242.227 93.957C242.227 93.0111 241.453 92.2383 240.507 92.2383Z" fill="#18181B"/>
<path d="M240.507 103.531C239.56 103.531 238.786 104.304 238.786 105.249C238.786 106.195 239.56 106.968 240.507 106.968C241.453 106.968 242.227 106.195 242.227 105.249C242.227 104.304 241.453 103.531 240.507 103.531Z" fill="#18181B"/>
<path d="M240.507 114.823C239.56 114.823 238.786 115.596 238.786 116.542C238.786 117.488 239.56 118.261 240.507 118.261C241.453 118.261 242.227 117.488 242.227 116.542C242.227 115.596 241.453 114.823 240.507 114.823Z" fill="#18181B"/>
<path d="M240.507 129.553C241.457 129.553 242.227 128.784 242.227 127.835C242.227 126.885 241.457 126.116 240.507 126.116C239.556 126.116 238.786 126.885 238.786 127.835C238.786 128.784 239.556 129.553 240.507 129.553Z" fill="#18181B"/>
<path d="M251.805 92.2383C250.858 92.2383 250.085 93.0111 250.085 93.957C250.085 94.9028 250.858 95.6757 251.805 95.6757C252.752 95.6757 253.526 94.9028 253.526 93.957C253.526 93.0111 252.752 92.2383 251.805 92.2383Z" fill="#18181B"/>
<path d="M251.805 103.531C250.858 103.531 250.085 104.304 250.085 105.249C250.085 106.195 250.858 106.968 251.805 106.968C252.752 106.968 253.526 106.195 253.526 105.249C253.526 104.304 252.752 103.531 251.805 103.531Z" fill="#18181B"/>
<path d="M251.805 114.823C250.858 114.823 250.085 115.596 250.085 116.542C250.085 117.488 250.858 118.261 251.805 118.261C252.752 118.261 253.526 117.488 253.526 116.542C253.526 115.596 252.752 114.823 251.805 114.823Z" fill="#18181B"/>
<path d="M251.805 126.116C250.858 126.116 250.085 126.889 250.085 127.835C250.085 128.781 250.858 129.553 251.805 129.553C252.752 129.553 253.526 128.781 253.526 127.835C253.526 126.889 252.752 126.116 251.805 126.116Z" fill="#18181B"/>
<path d="M263.11 92.2383C262.163 92.2383 261.389 93.0111 261.389 93.957C261.389 94.9028 262.163 95.6757 263.11 95.6757C264.057 95.6757 264.83 94.9028 264.83 93.957C264.83 93.0111 264.057 92.2383 263.11 92.2383Z" fill="#18181B"/>
<path d="M263.11 103.531C262.163 103.531 261.389 104.304 261.389 105.249C261.389 106.195 262.163 106.968 263.11 106.968C264.057 106.968 264.83 106.195 264.83 105.249C264.83 104.304 264.057 103.531 263.11 103.531Z" fill="#18181B"/>
<path d="M263.11 114.823C262.163 114.823 261.389 115.596 261.389 116.542C261.389 117.488 262.163 118.261 263.11 118.261C264.057 118.261 264.83 117.488 264.83 116.542C264.83 115.596 264.057 114.823 263.11 114.823Z" fill="#18181B"/>
<path d="M263.11 129.553C264.06 129.553 264.83 128.784 264.83 127.835C264.83 126.885 264.06 126.116 263.11 126.116C262.16 126.116 261.389 126.885 261.389 127.835C261.389 128.784 262.16 129.553 263.11 129.553Z" fill="#18181B"/>
<path d="M107.798 73.252C107.867 73.252 107.942 73.252 108.011 73.2347C108.739 73.1136 109.235 72.433 109.12 71.7063C109.12 71.6775 108.692 69.0014 108.692 64.9815C108.692 50.9437 114.189 40.0894 124.16 34.42C124.8 34.0567 125.026 33.2435 124.662 32.6033C124.292 31.9631 123.478 31.7382 122.837 32.1015C111.989 38.2669 106.019 49.9401 106.019 64.9815C106.019 69.2321 106.464 72.012 106.481 72.1274C106.585 72.7849 107.157 73.2463 107.798 73.2463V73.252Z" fill="#18181B"/>
<path d="M96.7876 66.3196C97.5266 66.3196 98.127 65.7255 98.127 64.9873C98.127 60.2177 98.3291 55.2116 99.7898 50.9206C100.026 50.2227 99.6512 49.4614 98.9526 49.2308C98.2425 48.9943 97.4919 49.3692 97.2552 50.067C95.6733 54.7271 95.4539 59.9927 95.4539 64.9931C95.4539 65.7313 96.0544 66.3254 96.7934 66.3254L96.7876 66.3196Z" fill="#18181B"/>
<path d="M210.156 123.094C211.467 112.436 207.997 95.762 202.275 74.9417C200.965 77.3525 199.273 79.1634 197.397 80.5822C189.141 67.2653 177.6 55.096 164.84 47.5465C156.411 42.5577 148.501 40.1873 141.717 40.1873C128.34 40.1873 119.334 49.4209 119.334 66.0887C119.334 77.9984 123.97 91.5691 131.487 104.148C131.753 103.583 132.122 103.098 132.619 102.752C134.547 101.391 137.578 102.458 139.98 105.209L142.058 103.992L145.06 105.307L161.52 96.1831H161.515L158.755 94.6893L158.732 94.6778L142.041 103.981C129.137 93.0629 129.206 71.0487 144.633 71.0487C145.955 71.0487 147.399 71.2044 148.969 71.5331C157.693 73.321 165.949 80.0805 175.429 83.4371C179.314 84.827 183.436 85.5883 187.305 85.5883C193.43 85.5883 198.915 83.6793 201.79 79.348C207.044 98.2939 213.424 126.629 201.981 135.038C200.076 136.457 197.789 137.068 195.237 137.068C182.859 137.068 164.182 122.65 151.503 115.769C151.503 115.769 148.784 114.345 146.059 113.11C146.059 113.11 147.093 113.255 148.403 113.56C159.194 116.196 164.257 118.44 170.827 118.953C171.924 119.039 173.038 119.085 174.159 119.085C177.016 119.085 179.817 118.791 182.438 118.14C183.09 117.978 183.737 117.788 184.366 117.58C184.499 117.534 184.632 117.482 184.77 117.436C185.475 117.188 186.162 116.911 186.831 116.6C187.391 116.34 187.934 116.058 188.459 115.752C189.198 115.325 189.903 114.858 190.572 114.339C191.005 114.004 191.421 113.653 191.825 113.283C191.854 113.26 191.883 113.232 191.912 113.208C193.488 111.726 194.822 109.921 195.844 107.764C196.023 107.395 196.19 107.009 196.346 106.616C196.369 106.553 196.398 106.501 196.421 106.438C196.658 105.826 196.871 105.186 197.062 104.523C197.195 104.061 197.322 103.594 197.426 103.104C197.605 102.314 197.749 101.489 197.859 100.624C194.221 109.079 184.839 113.007 174.776 113.007C171.855 113.007 168.876 112.678 165.96 112.026C165.631 111.951 165.291 111.87 164.95 111.79C164.719 111.732 164.482 111.674 164.24 111.611C164.228 111.611 164.217 111.605 164.205 111.599C157.918 110.002 149.546 107.014 145.083 105.296L141.504 107.395C143.074 110.371 142.953 113.439 141.077 114.754C140.522 115.146 139.876 115.331 139.183 115.337C146.469 124.639 155.308 132.812 164.834 138.447C173.229 143.412 181.11 145.777 187.87 145.777C200.376 145.777 209.059 137.697 210.156 123.077V123.094Z" fill="white"/>
<path d="M134.587 104.834C134.408 104.834 134.264 104.869 134.154 104.944C133.911 105.117 133.807 105.451 133.767 105.705C133.64 106.472 133.865 107.493 134.356 108.52L137.618 106.605C136.457 105.423 135.28 104.84 134.581 104.84L134.587 104.834Z" fill="white"/>
<path d="M139.552 112.591C140.1 112.211 140.141 110.607 139.205 108.773L135.88 110.723C137.398 112.372 139.015 112.961 139.552 112.591Z" fill="white"/>
</g>
<defs>
<clipPath id="clip0_681_16565">
<rect width="192.787" height="130.851" fill="white" transform="translate(72.043 30.0425)"/>
</clipPath>
</defs>
</svg>
