<svg width="336" height="190" viewBox="0 0 336 190" fill="none" xmlns="http://www.w3.org/2000/svg">
<rect width="336" height="190" fill="#E4E4E7"/>
<g clip-path="url(#clip0_1757_23373)">
<path d="M189.375 40.8552C186.532 40.8552 183.873 41.5052 181.492 42.8748C170.211 49.4209 169.702 69.9181 180.174 88.9762L192.658 81.7337C191.109 78.6695 190.3 75.4429 190.369 72.518C190.462 68.9896 191.803 66.2737 194.161 64.9041C196.519 63.5345 199.501 63.7202 202.599 65.4148C205.488 66.9933 208.147 69.7324 210.089 73.1448C212.054 76.5339 213.094 80.2248 213.002 83.5211C212.909 87.0495 211.568 89.7654 209.21 91.135C208.17 91.7385 206.991 92.0403 205.743 92.0403C204.171 92.0403 202.483 91.5761 200.772 90.6243C198.229 89.2315 195.848 86.9102 193.976 84.0318L181.492 91.2743C192.704 109.914 210.621 119.734 221.902 113.188C226.248 110.657 229.115 105.991 230.201 99.7703H226.11C225.37 99.7703 224.769 99.1668 224.769 98.4239V86.5156C224.769 85.7728 225.37 85.1692 226.11 85.1692H229.878C228.676 78.8088 226.179 72.193 222.573 65.9023C213.742 50.5351 200.287 40.8552 189.375 40.8552Z" fill="white"/>
<path d="M93.1587 115.764H78.8025V130.18H93.1587V115.764Z" fill="#18181B"/>
<path d="M143.14 75.5822C147.971 78.0195 152.78 81.7569 157.242 86.6084V74.0037H143.14V75.5822Z" fill="white"/>
<path d="M143.14 78.7158V88.1404H154.999C151.231 84.1245 147.185 80.9443 143.14 78.7158Z" fill="white"/>
<path d="M223.867 49.8619L234.224 43.8497L229.023 40.9249L223.798 38L213.441 43.989L218.666 46.9371L223.867 49.8619Z" fill="#18181B"/>
<path d="M263.306 49.2816L249.736 41.6445C249.32 41.4124 248.834 41.4124 248.418 41.6677L234.941 49.4674C234.525 49.6995 234.27 50.1405 234.27 50.628C234.27 51.1155 234.525 51.5565 234.941 51.7887L239.68 54.4582L224.191 63.4417C212.262 43.548 192.704 33.2878 180.174 40.5767L121.316 74.7001C115.005 78.3446 111.422 85.7264 111.191 95.4991C110.983 103.763 113.248 112.909 117.571 121.66H104.255C103.515 121.66 102.914 122.264 102.914 123.007V133.801L85.3217 143.991C84.6744 144.363 84.4663 145.175 84.8362 145.802C85.0905 146.22 85.5297 146.475 85.9921 146.475C86.2233 146.475 86.4544 146.429 86.6625 146.29L102.937 136.865V150.63C102.937 151.373 103.539 151.977 104.278 151.977H131.812C132.552 151.977 133.153 151.373 133.153 150.63V142.204C135.811 144.525 138.585 146.475 141.452 148.054C146.26 150.7 150.953 152.023 155.276 152.023C158.605 152.023 161.703 151.234 164.454 149.632L223.312 115.509C228.468 112.514 231.82 107.013 232.999 99.7703H238.062C238.801 99.7703 239.402 99.1668 239.402 98.424V86.5156C239.402 85.7728 238.801 85.1692 238.062 85.1692H232.675C231.519 78.7392 229.115 72.1002 225.624 65.7398L242.477 55.967L248.603 59.4026C248.811 59.5187 249.019 59.5651 249.251 59.5651C249.482 59.5651 249.713 59.4955 249.921 59.3794L263.399 51.5798C263.815 51.3476 264.069 50.8834 264.069 50.4191C264 49.9548 263.722 49.5138 263.306 49.2816ZM236.651 97.1008H227.45V87.862H236.651V97.1008ZM226.133 85.1925C225.393 85.1925 224.792 85.796 224.792 86.5388V98.4472C224.792 99.19 225.393 99.7936 226.133 99.7936H230.225C229.138 106.015 226.271 110.704 221.925 113.211C210.644 119.757 192.704 109.961 181.515 91.2975L193.999 84.055C195.871 86.9334 198.253 89.2548 200.796 90.6476C202.529 91.5993 204.217 92.0636 205.766 92.0636C207.014 92.0636 208.193 91.7618 209.234 91.1582C211.592 89.7887 212.932 87.0959 213.025 83.5443C213.094 80.248 212.077 76.5572 210.112 73.168C208.147 69.7557 205.488 67.0165 202.622 65.438C199.524 63.7435 196.519 63.5578 194.184 64.9273C191.826 66.2969 190.485 68.9897 190.392 72.5413C190.323 75.4661 191.132 78.6928 192.681 81.7569L180.197 88.9994C169.725 69.9414 170.234 49.4441 181.515 42.898C183.896 41.5284 186.555 40.8785 189.398 40.8785C200.333 40.8785 213.765 50.5816 222.619 65.9487C226.225 72.2395 228.722 78.8553 229.924 85.2157H226.133V85.1925ZM105.573 149.284V124.307H130.448V149.284H105.573ZM177.863 90.2994L165.333 97.5651C163.807 95.0349 162.166 92.6439 160.409 90.4154C160.362 90.3458 160.316 90.2994 160.27 90.2297C160.154 90.0904 160.039 89.9512 159.923 89.8119C159.9 89.7655 159.854 89.7422 159.831 89.6958C159.831 89.6262 159.854 89.5565 159.854 89.4869V72.6805C159.854 71.9377 159.253 71.3342 158.513 71.3342H141.752C141.013 71.3342 140.412 71.9377 140.412 72.6805V74.3983C137.106 73.052 133.823 72.3324 130.702 72.3091L173.47 47.5174C167.806 57.6848 169.193 74.5376 177.863 90.2994ZM149.728 124.121C145.96 126.303 140.134 123.355 136.297 117.505L150.745 109.125C153.866 115.393 153.496 121.939 149.728 124.121ZM157.218 86.6085C152.78 81.7569 147.948 78.0196 143.116 75.5822V74.0037H157.218V86.6085ZM143.139 78.716C147.185 80.9444 151.231 84.1479 154.999 88.1637H143.139V78.716ZM135.973 100.211C139.741 98.0294 145.567 100.977 149.404 106.827L134.956 115.184C131.835 108.916 132.205 102.393 135.973 100.211ZM166.674 99.8864L179.203 92.6207C188.474 108.057 202.298 117.691 213.903 117.83L171.089 142.668C176.753 132.501 175.366 115.648 166.674 99.8864ZM208.448 75.675C209.765 78.3214 210.436 81.0373 210.366 83.4747C210.297 86.0513 209.442 87.9316 207.916 88.8137C206.39 89.6958 204.309 89.4869 202.067 88.2798C199.94 87.0959 197.906 85.146 196.288 82.6854L208.448 75.675ZM194.97 80.3873C193.652 77.741 192.982 75.0251 193.051 72.5877C193.12 70.011 193.976 68.1308 195.502 67.2487C196.126 66.8772 196.842 66.7148 197.628 66.7148C198.761 66.7148 200.009 67.0862 201.327 67.8058C203.454 68.9896 205.488 70.9396 207.107 73.3769L194.97 80.3873ZM249.181 56.7331L238.316 50.628L249.112 44.3837L259.977 50.4887L249.181 56.7331Z" fill="#18181B"/>
<path d="M254.522 70.127L245.367 64.9737C244.951 64.7416 244.465 64.7648 244.049 64.9969L234.964 70.2663C234.548 70.4985 234.293 70.9395 234.293 71.427C234.293 71.9145 234.548 72.3555 234.964 72.5876L244.119 77.7178C244.327 77.8338 244.535 77.8803 244.766 77.8803C244.997 77.8803 245.228 77.8106 245.436 77.6945L254.522 72.4252C254.938 72.193 255.192 71.7288 255.192 71.2645C255.192 70.8002 254.938 70.3592 254.522 70.127ZM244.789 75.025L238.339 71.4038L244.743 67.6897L251.193 71.3109L244.789 75.025Z" fill="#18181B"/>
<path d="M130.448 124.307H105.573V149.284H130.448V124.307Z" fill="white"/>
<path d="M236.675 87.8618H227.474V97.1007H236.675V87.8618Z" fill="white"/>
<path d="M74.7107 56.7563C73.7629 56.7563 73 57.5224 73 58.4741C73 59.4259 73.7629 60.1919 74.7107 60.1919C75.6586 60.1919 76.4214 59.4259 76.4214 58.4741C76.4214 57.5224 75.6586 56.7563 74.7107 56.7563Z" fill="#18181B"/>
<path d="M87.6797 58.4741C87.6797 57.5224 86.9169 56.7563 85.969 56.7563C85.0212 56.7563 84.2583 57.5224 84.2583 58.4741C84.2583 59.4259 85.0212 60.1919 85.969 60.1919C86.9169 60.1919 87.6797 59.4259 87.6797 58.4741Z" fill="#18181B"/>
<path d="M97.2276 56.7563C96.2797 56.7563 95.5168 57.5224 95.5168 58.4741C95.5168 59.4259 96.2797 60.1919 97.2276 60.1919C98.1754 60.1919 98.9383 59.4259 98.9383 58.4741C98.9383 57.5224 98.1754 56.7563 97.2276 56.7563Z" fill="#18181B"/>
<path d="M110.197 58.4741C110.197 57.5224 109.434 56.7563 108.486 56.7563C107.538 56.7563 106.775 57.5224 106.775 58.4741C106.775 59.4259 107.538 60.1919 108.486 60.1919C109.434 60.1919 110.197 59.4259 110.197 58.4741Z" fill="#18181B"/>
<path d="M118.034 58.4741C118.034 59.4259 118.797 60.1919 119.744 60.1919C120.692 60.1919 121.455 59.4259 121.455 58.4741C121.455 57.5224 120.692 56.7563 119.744 56.7563C118.797 56.7563 118.034 57.5224 118.034 58.4741Z" fill="#18181B"/>
<path d="M74.7107 68.0613C73.7629 68.0613 73 68.8273 73 69.7791C73 70.7308 73.7629 71.4968 74.7107 71.4968C75.6586 71.4968 76.4214 70.7308 76.4214 69.7791C76.4214 68.8273 75.6586 68.0613 74.7107 68.0613Z" fill="#18181B"/>
<path d="M74.7107 79.366C73.7629 79.366 73 80.132 73 81.0837C73 82.0355 73.7629 82.8015 74.7107 82.8015C75.6586 82.8015 76.4214 82.0355 76.4214 81.0837C76.4214 80.132 75.6586 79.366 74.7107 79.366Z" fill="#18181B"/>
<path d="M74.7107 90.6709C73.7629 90.6709 73 91.4369 73 92.3887C73 93.3404 73.7629 94.1065 74.7107 94.1065C75.6586 94.1065 76.4214 93.3404 76.4214 92.3887C76.4214 91.4369 75.6586 90.6709 74.7107 90.6709Z" fill="#18181B"/>
<path d="M74.7107 101.952C73.7629 101.952 73 102.718 73 103.67C73 104.622 73.7629 105.388 74.7107 105.388C75.6586 105.388 76.4214 104.622 76.4214 103.67C76.4214 102.718 75.6586 101.952 74.7107 101.952Z" fill="#18181B"/>
<path d="M87.6797 69.7791C87.6797 68.8273 86.9169 68.0613 85.969 68.0613C85.0212 68.0613 84.2583 68.8273 84.2583 69.7791C84.2583 70.7308 85.0212 71.4968 85.969 71.4968C86.9169 71.4968 87.6797 70.7308 87.6797 69.7791Z" fill="#18181B"/>
<path d="M87.6797 81.0837C87.6797 80.132 86.9169 79.366 85.969 79.366C85.0212 79.366 84.2583 80.132 84.2583 81.0837C84.2583 82.0355 85.0212 82.8015 85.969 82.8015C86.9169 82.8015 87.6797 82.0355 87.6797 81.0837Z" fill="#18181B"/>
<path d="M87.6797 92.3887C87.6797 91.4369 86.9169 90.6709 85.969 90.6709C85.0212 90.6709 84.2583 91.4369 84.2583 92.3887C84.2583 93.3404 85.0212 94.1065 85.969 94.1065C86.9169 94.1065 87.6797 93.3404 87.6797 92.3887Z" fill="#18181B"/>
<path d="M87.6797 103.693C87.6797 102.742 86.9169 101.976 85.969 101.976C85.0212 101.976 84.2583 102.742 84.2583 103.693C84.2583 104.645 85.0212 105.411 85.969 105.411C86.9169 105.411 87.6797 104.622 87.6797 103.693Z" fill="#18181B"/>
<path d="M97.2276 68.0613C96.2797 68.0613 95.5168 68.8273 95.5168 69.7791C95.5168 70.7308 96.2797 71.4968 97.2276 71.4968C98.1754 71.4968 98.9383 70.7308 98.9383 69.7791C98.9383 68.8273 98.1754 68.0613 97.2276 68.0613Z" fill="#18181B"/>
<path d="M97.2276 79.366C96.2797 79.366 95.5168 80.132 95.5168 81.0837C95.5168 82.0355 96.2797 82.8015 97.2276 82.8015C98.1754 82.8015 98.9383 82.0355 98.9383 81.0837C98.9383 80.132 98.1754 79.366 97.2276 79.366Z" fill="#18181B"/>
<path d="M97.2276 90.6709C96.2797 90.6709 95.5168 91.4369 95.5168 92.3887C95.5168 93.3404 96.2797 94.1065 97.2276 94.1065C98.1754 94.1065 98.9383 93.3404 98.9383 92.3887C98.9383 91.4369 98.1754 90.6709 97.2276 90.6709Z" fill="#18181B"/>
<path d="M97.2276 105.411C98.1724 105.411 98.9383 104.642 98.9383 103.693C98.9383 102.745 98.1724 101.976 97.2276 101.976C96.2828 101.976 95.5168 102.745 95.5168 103.693C95.5168 104.642 96.2828 105.411 97.2276 105.411Z" fill="#18181B"/>
<path d="M110.197 69.7791C110.197 68.8273 109.434 68.0613 108.486 68.0613C107.538 68.0613 106.775 68.8273 106.775 69.7791C106.775 70.7308 107.538 71.4968 108.486 71.4968C109.434 71.4968 110.197 70.7308 110.197 69.7791Z" fill="#18181B"/>
<path d="M110.197 81.0837C110.197 80.132 109.434 79.366 108.486 79.366C107.538 79.366 106.775 80.132 106.775 81.0837C106.775 82.0355 107.538 82.8015 108.486 82.8015C109.434 82.8015 110.197 82.0355 110.197 81.0837Z" fill="#18181B"/>
<path d="M110.197 92.3887C110.197 91.4369 109.434 90.6709 108.486 90.6709C107.538 90.6709 106.775 91.4369 106.775 92.3887C106.775 93.3404 107.538 94.1065 108.486 94.1065C109.434 94.1065 110.197 93.3404 110.197 92.3887Z" fill="#18181B"/>
<path d="M110.197 103.693C110.197 102.742 109.434 101.976 108.486 101.976C107.538 101.976 106.775 102.742 106.775 103.693C106.775 104.645 107.538 105.411 108.486 105.411C109.434 105.411 110.197 104.622 110.197 103.693Z" fill="#18181B"/>
<path d="M119.744 68.0613C118.797 68.0613 118.034 68.8273 118.034 69.7791C118.034 70.7308 118.797 71.4968 119.744 71.4968C120.692 71.4968 121.455 70.7308 121.455 69.7791C121.455 68.8273 120.692 68.0613 119.744 68.0613Z" fill="#18181B"/>
<path d="M119.744 79.366C118.797 79.366 118.034 80.132 118.034 81.0837C118.034 82.0355 118.797 82.8015 119.744 82.8015C120.692 82.8015 121.455 82.0355 121.455 81.0837C121.455 80.132 120.692 79.366 119.744 79.366Z" fill="white"/>
<path d="M119.744 90.6709C118.797 90.6709 118.034 91.4369 118.034 92.3887C118.034 93.3404 118.797 94.1065 119.744 94.1065C120.692 94.1065 121.455 93.3404 121.455 92.3887C121.455 91.4369 120.692 90.6709 119.744 90.6709Z" fill="white"/>
<path d="M119.744 105.411C120.689 105.411 121.455 104.642 121.455 103.693C121.455 102.745 120.689 101.976 119.744 101.976C118.8 101.976 118.034 102.745 118.034 103.693C118.034 104.642 118.8 105.411 119.744 105.411Z" fill="white"/>
<path d="M135.58 116.368C135.349 115.973 135.187 115.578 134.979 115.184L123.813 121.66H129.13L136.297 117.505C136.089 117.111 135.811 116.762 135.58 116.368Z" fill="white"/>
</g>
<defs>
<clipPath id="clip0_1757_23373">
<rect width="191" height="114" fill="white" transform="translate(73 38)"/>
</clipPath>
</defs>
</svg>
