<svg width="336" height="190" viewBox="0 0 336 190" fill="none" xmlns="http://www.w3.org/2000/svg">
<rect width="336" height="190" fill="#E4E4E7"/>
<g clip-path="url(#clip0_1757_23032)">
<path d="M222.242 37.3623C221.294 37.3623 220.531 38.1218 220.531 39.0653C220.531 40.0089 221.294 40.7683 222.242 40.7683C223.19 40.7683 223.953 40.0089 223.953 39.0653C223.953 38.1218 223.19 37.3623 222.242 37.3623Z" fill="#18181B"/>
<path d="M235.215 39.0653C235.215 38.1218 234.452 37.3623 233.504 37.3623C232.555 37.3623 231.792 38.1218 231.792 39.0653C231.792 40.0089 232.555 40.7683 233.504 40.7683C234.452 40.7683 235.215 40.0089 235.215 39.0653Z" fill="#18181B"/>
<path d="M244.765 37.3623C243.817 37.3623 243.054 38.1218 243.054 39.0653C243.054 40.0089 243.817 40.7683 244.765 40.7683C245.713 40.7683 246.477 40.0089 246.477 39.0653C246.477 38.1218 245.713 37.3623 244.765 37.3623Z" fill="#18181B"/>
<path d="M257.738 39.0653C257.738 38.1218 256.975 37.3623 256.027 37.3623C255.079 37.3623 254.316 38.1218 254.316 39.0653C254.316 40.0089 255.079 40.7683 256.027 40.7683C256.975 40.7683 257.738 40.0089 257.738 39.0653Z" fill="#18181B"/>
<path d="M265.578 39.0653C265.578 40.0089 266.341 40.7683 267.289 40.7683C268.237 40.7683 269 40.0089 269 39.0653C269 38.1218 268.237 37.3623 267.289 37.3623C266.341 37.3623 265.578 38.1218 265.578 39.0653Z" fill="#18181B"/>
<path d="M222.242 48.5701C221.294 48.5701 220.531 49.3295 220.531 50.2731C220.531 51.2166 221.294 51.9761 222.242 51.9761C223.19 51.9761 223.953 51.2166 223.953 50.2731C223.953 49.3295 223.19 48.5701 222.242 48.5701Z" fill="#18181B"/>
<path d="M235.215 50.2731C235.215 49.3295 234.452 48.5701 233.504 48.5701C232.555 48.5701 231.792 49.3295 231.792 50.2731C231.792 51.2166 232.555 51.9761 233.504 51.9761C234.452 51.9761 235.215 51.2166 235.215 50.2731Z" fill="#18181B"/>
<path d="M235.215 61.4806C235.215 60.537 234.452 59.7776 233.504 59.7776C232.555 59.7776 231.792 60.537 231.792 61.4806C231.792 62.4242 232.555 63.1836 233.504 63.1836C234.452 63.1836 235.215 62.4242 235.215 61.4806Z" fill="#18181B"/>
<path d="M235.215 72.6884C235.215 71.7448 234.452 70.9854 233.504 70.9854C232.555 70.9854 231.792 71.7448 231.792 72.6884C231.792 73.6319 232.555 74.3914 233.504 74.3914C234.452 74.3914 235.215 73.6319 235.215 72.6884Z" fill="#18181B"/>
<path d="M235.215 83.8959C235.215 82.9523 234.452 82.1929 233.504 82.1929C232.555 82.1929 231.792 82.9523 231.792 83.8959C231.792 84.8394 232.555 85.5989 233.504 85.5989C234.452 85.5989 235.215 84.8394 235.215 83.8959Z" fill="#18181B"/>
<path d="M244.765 48.5701C243.817 48.5701 243.054 49.3295 243.054 50.2731C243.054 51.2166 243.817 51.9761 244.765 51.9761C245.713 51.9761 246.477 51.2166 246.477 50.2731C246.477 49.3295 245.713 48.5701 244.765 48.5701Z" fill="#18181B"/>
<path d="M244.765 59.7776C243.817 59.7776 243.054 60.537 243.054 61.4806C243.054 62.4242 243.817 63.1836 244.765 63.1836C245.713 63.1836 246.477 62.4242 246.477 61.4806C246.477 60.537 245.713 59.7776 244.765 59.7776Z" fill="#18181B"/>
<path d="M244.765 70.9854C243.817 70.9854 243.054 71.7448 243.054 72.6884C243.054 73.6319 243.817 74.3914 244.765 74.3914C245.713 74.3914 246.477 73.6319 246.477 72.6884C246.477 71.7448 245.713 70.9854 244.765 70.9854Z" fill="#18181B"/>
<path d="M244.765 82.1929C243.817 82.1929 243.054 82.9523 243.054 83.8959C243.054 84.8394 243.817 85.5989 244.765 85.5989C245.713 85.5989 246.477 84.8394 246.477 83.8959C246.477 82.9523 245.713 82.1929 244.765 82.1929Z" fill="#18181B"/>
<path d="M257.738 50.2731C257.738 49.3295 256.975 48.5701 256.027 48.5701C255.079 48.5701 254.316 49.3295 254.316 50.2731C254.316 51.2166 255.079 51.9761 256.027 51.9761C256.975 51.9761 257.738 51.2166 257.738 50.2731Z" fill="#18181B"/>
<path d="M257.738 61.4806C257.738 60.537 256.975 59.7776 256.027 59.7776C255.079 59.7776 254.316 60.537 254.316 61.4806C254.316 62.4242 255.079 63.1836 256.027 63.1836C256.975 63.1836 257.738 62.4242 257.738 61.4806Z" fill="#18181B"/>
<path d="M257.738 72.6884C257.738 71.7448 256.975 70.9854 256.027 70.9854C255.079 70.9854 254.316 71.7448 254.316 72.6884C254.316 73.6319 255.079 74.3914 256.027 74.3914C256.975 74.3914 257.738 73.6319 257.738 72.6884Z" fill="#18181B"/>
<path d="M257.738 83.8959C257.738 82.9523 256.975 82.1929 256.027 82.1929C255.079 82.1929 254.316 82.9523 254.316 83.8959C254.316 84.8394 255.079 85.5989 256.027 85.5989C256.975 85.5989 257.738 84.8394 257.738 83.8959Z" fill="#18181B"/>
<path d="M267.289 48.5701C266.341 48.5701 265.578 49.3295 265.578 50.2731C265.578 51.2166 266.341 51.9761 267.289 51.9761C268.237 51.9761 269 51.2166 269 50.2731C269 49.3295 268.214 48.5701 267.289 48.5701Z" fill="#18181B"/>
<path d="M267.289 59.7776C266.341 59.7776 265.578 60.537 265.578 61.4806C265.578 62.4242 266.341 63.1836 267.289 63.1836C268.237 63.1836 269 62.4242 269 61.4806C269 60.537 268.214 59.7776 267.289 59.7776Z" fill="#18181B"/>
<path d="M267.289 70.9854C266.341 70.9854 265.578 71.7448 265.578 72.6884C265.578 73.6319 266.341 74.3914 267.289 74.3914C268.237 74.3914 269 73.6319 269 72.6884C269 71.7448 268.214 70.9854 267.289 70.9854Z" fill="#18181B"/>
<path d="M267.289 85.5989C268.234 85.5989 269 84.8364 269 83.8959C269 82.9553 268.234 82.1929 267.289 82.1929C266.344 82.1929 265.578 82.9553 265.578 83.8959C265.578 84.8364 266.344 85.5989 267.289 85.5989Z" fill="#18181B"/>
<path d="M243.702 116.253C243.216 116.253 242.823 116.644 242.823 117.151C242.823 117.657 243.216 118.048 243.702 118.048C244.187 118.048 244.58 117.657 244.58 117.151C244.58 116.644 244.187 116.253 243.702 116.253Z" fill="#18181B"/>
<path d="M243.702 122.904C243.216 122.904 242.823 123.295 242.823 123.802C242.823 124.308 243.216 124.699 243.702 124.699C244.187 124.699 244.58 124.308 244.58 123.802C244.58 123.318 244.187 122.904 243.702 122.904Z" fill="#18181B"/>
<path d="M245.621 121.316C246.107 121.316 246.5 120.925 246.5 120.442C246.5 119.958 246.107 119.567 245.621 119.567C245.135 119.567 244.742 119.958 244.742 120.442C244.765 120.925 245.135 121.316 245.621 121.316Z" fill="#18181B"/>
<path d="M243.702 129.578C243.216 129.578 242.823 129.969 242.823 130.476C242.823 130.982 243.216 131.373 243.702 131.373C244.187 131.373 244.58 130.982 244.58 130.476C244.58 129.969 244.187 129.578 243.702 129.578Z" fill="#18181B"/>
<path d="M245.621 127.99C246.107 127.99 246.5 127.599 246.5 127.115C246.5 126.632 246.107 126.241 245.621 126.241C245.135 126.241 244.742 126.632 244.742 127.115C244.742 127.599 245.135 127.99 245.621 127.99Z" fill="#18181B"/>
<path d="M243.702 136.229C243.216 136.229 242.823 136.62 242.823 137.104C242.823 137.587 243.216 137.978 243.702 137.978C244.187 137.978 244.58 137.587 244.58 137.104C244.58 136.62 244.187 136.229 243.702 136.229Z" fill="#18181B"/>
<path d="M245.621 134.641C246.107 134.641 246.5 134.25 246.5 133.767C246.5 133.283 246.107 132.892 245.621 132.892C245.135 132.892 244.742 133.283 244.742 133.767C244.765 134.25 245.135 134.641 245.621 134.641Z" fill="#18181B"/>
<path d="M239.84 116.253C239.354 116.253 238.961 116.644 238.961 117.151C238.961 117.657 239.354 118.048 239.84 118.048C240.325 118.048 240.718 117.657 240.718 117.151C240.718 116.644 240.325 116.253 239.84 116.253Z" fill="#18181B"/>
<path d="M241.759 114.642C242.245 114.642 242.638 114.251 242.638 113.768C242.638 113.284 242.245 112.893 241.759 112.893C241.273 112.893 240.88 113.284 240.88 113.768C240.88 114.274 241.273 114.642 241.759 114.642Z" fill="#18181B"/>
<path d="M239.84 122.904C239.354 122.904 238.961 123.295 238.961 123.802C238.961 124.308 239.354 124.699 239.84 124.699C240.325 124.699 240.718 124.308 240.718 123.802C240.718 123.318 240.325 122.904 239.84 122.904Z" fill="#18181B"/>
<path d="M241.759 121.316C242.245 121.316 242.638 120.925 242.638 120.442C242.638 119.958 242.245 119.567 241.759 119.567C241.273 119.567 240.88 119.958 240.88 120.442C240.88 120.925 241.273 121.316 241.759 121.316Z" fill="#18181B"/>
<path d="M239.84 129.578C239.354 129.578 238.961 129.969 238.961 130.476C238.961 130.982 239.354 131.373 239.84 131.373C240.325 131.373 240.718 130.982 240.718 130.476C240.718 129.969 240.325 129.578 239.84 129.578Z" fill="#18181B"/>
<path d="M241.759 127.99C242.245 127.99 242.638 127.599 242.638 127.115C242.638 126.632 242.245 126.241 241.759 126.241C241.273 126.241 240.88 126.632 240.88 127.115C240.88 127.599 241.273 127.99 241.759 127.99Z" fill="#18181B"/>
<path d="M239.84 136.229C239.354 136.229 238.961 136.62 238.961 137.104C238.961 137.587 239.354 137.978 239.84 137.978C240.325 137.978 240.718 137.587 240.718 137.104C240.718 136.62 240.325 136.229 239.84 136.229Z" fill="#18181B"/>
<path d="M241.759 134.641C242.245 134.641 242.638 134.25 242.638 133.767C242.638 133.283 242.245 132.892 241.759 132.892C241.273 132.892 240.88 133.283 240.88 133.767C240.88 134.25 241.273 134.641 241.759 134.641Z" fill="#18181B"/>
<path d="M239.84 142.88C239.354 142.88 238.961 143.271 238.961 143.754C238.961 144.238 239.354 144.629 239.84 144.629C240.325 144.629 240.718 144.238 240.718 143.754C240.718 143.271 240.325 142.88 239.84 142.88Z" fill="#18181B"/>
<path d="M241.759 139.566C241.273 139.566 240.88 139.957 240.88 140.44C240.88 140.924 241.273 141.315 241.759 141.315C242.245 141.315 242.638 140.924 242.638 140.44C242.638 139.957 242.245 139.566 241.759 139.566Z" fill="#18181B"/>
<path d="M235.955 109.579C235.469 109.579 235.076 109.97 235.076 110.477C235.076 110.983 235.469 111.374 235.955 111.374C236.44 111.374 236.834 110.983 236.834 110.477C236.857 109.993 236.44 109.579 235.955 109.579Z" fill="#18181B"/>
<path d="M235.955 116.253C235.469 116.253 235.076 116.644 235.076 117.151C235.076 117.657 235.469 118.048 235.955 118.048C236.44 118.048 236.834 117.657 236.834 117.151C236.834 116.644 236.44 116.253 235.955 116.253Z" fill="#18181B"/>
<path d="M237.897 112.893C237.412 112.893 237.019 113.284 237.019 113.791C237.019 114.297 237.412 114.688 237.897 114.688C238.383 114.688 238.776 114.297 238.776 113.791C238.776 113.284 238.383 112.893 237.897 112.893Z" fill="#18181B"/>
<path d="M235.955 122.904C235.469 122.904 235.076 123.295 235.076 123.802C235.076 124.308 235.469 124.699 235.955 124.699C236.44 124.699 236.834 124.308 236.834 123.802C236.834 123.295 236.44 122.904 235.955 122.904Z" fill="#18181B"/>
<path d="M237.897 119.59C237.412 119.59 237.019 119.981 237.019 120.488C237.019 120.994 237.412 121.385 237.897 121.385C238.383 121.385 238.776 120.994 238.776 120.488C238.776 119.981 238.383 119.59 237.897 119.59Z" fill="#18181B"/>
<path d="M235.955 129.578C235.469 129.578 235.076 129.969 235.076 130.476C235.076 130.982 235.469 131.373 235.955 131.373C236.44 131.373 236.834 130.982 236.834 130.476C236.834 129.969 236.44 129.578 235.955 129.578Z" fill="#18181B"/>
<path d="M237.897 126.241C237.412 126.241 237.019 126.632 237.019 127.138C237.019 127.645 237.412 128.036 237.897 128.036C238.383 128.036 238.776 127.645 238.776 127.138C238.799 126.632 238.383 126.241 237.897 126.241Z" fill="#18181B"/>
<path d="M235.955 136.229C235.469 136.229 235.076 136.62 235.076 137.104C235.076 137.587 235.469 137.978 235.955 137.978C236.44 137.978 236.834 137.587 236.834 137.104C236.834 136.62 236.44 136.229 235.955 136.229Z" fill="#18181B"/>
<path d="M237.897 132.915C237.412 132.915 237.019 133.306 237.019 133.79C237.019 134.273 237.412 134.664 237.897 134.664C238.383 134.664 238.776 134.273 238.776 133.79C238.776 133.306 238.383 132.915 237.897 132.915Z" fill="#18181B"/>
<path d="M235.955 142.88C235.469 142.88 235.076 143.271 235.076 143.754C235.076 144.238 235.469 144.629 235.955 144.629C236.44 144.629 236.834 144.238 236.834 143.754C236.857 143.271 236.44 142.88 235.955 142.88Z" fill="#18181B"/>
<path d="M237.897 139.566C237.412 139.566 237.019 139.957 237.019 140.44C237.019 140.924 237.412 141.315 237.897 141.315C238.383 141.315 238.776 140.924 238.776 140.44C238.799 139.957 238.383 139.566 237.897 139.566Z" fill="#18181B"/>
<path d="M232.093 109.579C231.607 109.579 231.214 109.97 231.214 110.477C231.214 110.983 231.607 111.374 232.093 111.374C232.579 111.374 232.972 110.983 232.972 110.477C232.995 109.993 232.579 109.579 232.093 109.579Z" fill="#18181B"/>
<path d="M232.093 116.253C231.607 116.253 231.214 116.644 231.214 117.151C231.214 117.657 231.607 118.048 232.093 118.048C232.579 118.048 232.972 117.657 232.972 117.151C232.972 116.644 232.579 116.253 232.093 116.253Z" fill="#18181B"/>
<path d="M234.035 114.642C234.521 114.642 234.914 114.251 234.914 113.768C234.914 113.284 234.521 112.893 234.035 112.893C233.55 112.893 233.157 113.284 233.157 113.768C233.157 114.274 233.55 114.642 234.035 114.642Z" fill="#18181B"/>
<path d="M232.093 122.904C231.607 122.904 231.214 123.295 231.214 123.802C231.214 124.308 231.607 124.699 232.093 124.699C232.579 124.699 232.972 124.308 232.972 123.802C232.972 123.295 232.579 122.904 232.093 122.904Z" fill="#18181B"/>
<path d="M234.035 121.316C234.521 121.316 234.914 120.925 234.914 120.442C234.914 119.958 234.521 119.567 234.035 119.567C233.55 119.567 233.157 119.958 233.157 120.442C233.157 120.925 233.55 121.316 234.035 121.316Z" fill="#18181B"/>
<path d="M232.093 129.578C231.607 129.578 231.214 129.969 231.214 130.476C231.214 130.982 231.607 131.373 232.093 131.373C232.579 131.373 232.972 130.982 232.972 130.476C232.972 129.969 232.579 129.578 232.093 129.578Z" fill="#18181B"/>
<path d="M234.035 127.99C234.521 127.99 234.914 127.599 234.914 127.115C234.914 126.632 234.521 126.241 234.035 126.241C233.55 126.241 233.157 126.632 233.157 127.115C233.157 127.599 233.55 127.99 234.035 127.99Z" fill="#18181B"/>
<path d="M232.093 136.229C231.607 136.229 231.214 136.62 231.214 137.104C231.214 137.587 231.607 137.978 232.093 137.978C232.579 137.978 232.972 137.587 232.972 137.104C232.972 136.62 232.579 136.229 232.093 136.229Z" fill="#18181B"/>
<path d="M234.035 134.641C234.521 134.641 234.914 134.25 234.914 133.767C234.914 133.283 234.521 132.892 234.035 132.892C233.55 132.892 233.157 133.283 233.157 133.767C233.157 134.25 233.55 134.641 234.035 134.641Z" fill="#18181B"/>
<path d="M232.093 142.88C231.607 142.88 231.214 143.271 231.214 143.754C231.214 144.238 231.607 144.629 232.093 144.629C232.579 144.629 232.972 144.238 232.972 143.754C232.995 143.271 232.579 142.88 232.093 142.88Z" fill="#18181B"/>
<path d="M234.035 139.566C233.55 139.566 233.157 139.957 233.157 140.44C233.157 140.924 233.55 141.315 234.035 141.315C234.521 141.315 234.914 140.924 234.914 140.44C234.914 139.957 234.521 139.566 234.035 139.566Z" fill="#18181B"/>
<path d="M234.035 147.966C234.521 147.966 234.914 147.575 234.914 147.091C234.914 146.608 234.521 146.217 234.035 146.217C233.55 146.217 233.157 146.608 233.157 147.091C233.157 147.575 233.55 147.966 234.035 147.966Z" fill="#18181B"/>
<path d="M230.174 112.893C229.688 112.893 229.295 113.284 229.295 113.791C229.295 114.297 229.688 114.688 230.174 114.688C230.659 114.688 231.052 114.297 231.052 113.791C231.052 113.284 230.659 112.893 230.174 112.893Z" fill="#18181B"/>
<path d="M230.174 119.59C229.688 119.59 229.295 119.981 229.295 120.488C229.295 120.994 229.688 121.385 230.174 121.385C230.659 121.385 231.052 120.994 231.052 120.488C231.052 119.981 230.659 119.59 230.174 119.59Z" fill="#18181B"/>
<path d="M230.174 126.241C229.688 126.241 229.295 126.632 229.295 127.138C229.295 127.645 229.688 128.036 230.174 128.036C230.659 128.036 231.052 127.645 231.052 127.138C231.052 126.632 230.659 126.241 230.174 126.241Z" fill="#18181B"/>
<path d="M228.231 136.229C227.746 136.229 227.352 136.62 227.352 137.104C227.352 137.587 227.746 137.978 228.231 137.978C228.717 137.978 229.11 137.587 229.11 137.104C229.11 136.62 228.717 136.229 228.231 136.229Z" fill="#18181B"/>
<path d="M230.174 132.915C229.688 132.915 229.295 133.306 229.295 133.79C229.295 134.273 229.688 134.664 230.174 134.664C230.659 134.664 231.052 134.273 231.052 133.79C231.052 133.306 230.659 132.915 230.174 132.915Z" fill="#18181B"/>
<path d="M228.231 142.88C227.746 142.88 227.352 143.271 227.352 143.754C227.352 144.238 227.746 144.629 228.231 144.629C228.717 144.629 229.11 144.238 229.11 143.754C229.133 143.271 228.717 142.88 228.231 142.88Z" fill="#18181B"/>
<path d="M230.174 139.566C229.688 139.566 229.295 139.957 229.295 140.44C229.295 140.924 229.688 141.315 230.174 141.315C230.659 141.315 231.052 140.924 231.052 140.44C231.052 139.957 230.659 139.566 230.174 139.566Z" fill="#18181B"/>
<path d="M228.231 149.577C227.746 149.577 227.352 149.968 227.352 150.451C227.352 150.935 227.746 151.326 228.231 151.326C228.717 151.326 229.11 150.935 229.11 150.451C229.133 149.968 228.717 149.577 228.231 149.577Z" fill="#18181B"/>
<path d="M230.174 146.217C229.688 146.217 229.295 146.608 229.295 147.091C229.295 147.575 229.688 147.966 230.174 147.966C230.659 147.966 231.052 147.575 231.052 147.091C231.052 146.608 230.659 146.217 230.174 146.217Z" fill="#18181B"/>
<path d="M224.369 136.229C223.884 136.229 223.491 136.62 223.491 137.104C223.491 137.587 223.884 137.978 224.369 137.978C224.855 137.978 225.248 137.587 225.248 137.104C225.248 136.62 224.855 136.229 224.369 136.229Z" fill="#18181B"/>
<path d="M224.369 142.88C223.884 142.88 223.491 143.271 223.491 143.754C223.491 144.238 223.884 144.629 224.369 144.629C224.855 144.629 225.248 144.238 225.248 143.754C225.271 143.271 224.855 142.88 224.369 142.88Z" fill="#18181B"/>
<path d="M226.312 139.566C225.826 139.566 225.433 139.957 225.433 140.44C225.433 140.924 225.826 141.315 226.312 141.315C226.797 141.315 227.191 140.924 227.191 140.44C227.191 139.957 226.797 139.566 226.312 139.566Z" fill="#18181B"/>
<path d="M224.369 149.577C223.884 149.577 223.491 149.968 223.491 150.451C223.491 150.935 223.884 151.326 224.369 151.326C224.855 151.326 225.248 150.935 225.248 150.451C225.271 149.968 224.855 149.577 224.369 149.577Z" fill="#18181B"/>
<path d="M226.312 147.966C226.797 147.966 227.191 147.575 227.191 147.091C227.191 146.608 226.797 146.217 226.312 146.217C225.826 146.217 225.433 146.608 225.433 147.091C225.433 147.575 225.826 147.966 226.312 147.966Z" fill="#18181B"/>
<path d="M220.507 142.88C220.022 142.88 219.629 143.271 219.629 143.754C219.629 144.238 220.022 144.629 220.507 144.629C220.993 144.629 221.386 144.238 221.386 143.754C221.386 143.271 220.993 142.88 220.507 142.88Z" fill="#18181B"/>
<path d="M222.45 139.566C221.964 139.566 221.571 139.957 221.571 140.44C221.571 140.924 221.964 141.315 222.45 141.315C222.936 141.315 223.329 140.924 223.329 140.44C223.329 139.957 222.936 139.566 222.45 139.566Z" fill="#18181B"/>
<path d="M220.507 149.577C220.022 149.577 219.629 149.968 219.629 150.451C219.629 150.935 220.022 151.326 220.507 151.326C220.993 151.326 221.386 150.935 221.386 150.451C221.386 149.968 220.993 149.577 220.507 149.577Z" fill="#18181B"/>
<path d="M222.45 146.217C221.964 146.217 221.571 146.608 221.571 147.091C221.571 147.575 221.964 147.966 222.45 147.966C222.936 147.966 223.329 147.575 223.329 147.091C223.329 146.608 222.936 146.217 222.45 146.217Z" fill="#18181B"/>
<path d="M222.45 152.891C221.964 152.891 221.571 153.282 221.571 153.765C221.571 154.249 221.964 154.64 222.45 154.64C222.936 154.64 223.329 154.249 223.329 153.765C223.329 153.282 222.936 152.891 222.45 152.891Z" fill="#18181B"/>
<path d="M216.646 142.88C216.16 142.88 215.767 143.271 215.767 143.754C215.767 144.238 216.16 144.629 216.646 144.629C217.131 144.629 217.524 144.238 217.524 143.754C217.524 143.271 217.131 142.88 216.646 142.88Z" fill="#18181B"/>
<path d="M218.565 139.566C218.079 139.566 217.686 139.957 217.686 140.44C217.686 140.924 218.079 141.315 218.565 141.315C219.051 141.315 219.444 140.924 219.444 140.44C219.444 139.957 219.051 139.566 218.565 139.566Z" fill="#18181B"/>
<path d="M216.646 149.577C216.16 149.577 215.767 149.968 215.767 150.451C215.767 150.935 216.16 151.326 216.646 151.326C217.131 151.326 217.524 150.935 217.524 150.451C217.524 149.968 217.131 149.577 216.646 149.577Z" fill="#18181B"/>
<path d="M218.565 147.966C219.051 147.966 219.444 147.575 219.444 147.091C219.444 146.608 219.051 146.217 218.565 146.217C218.079 146.217 217.686 146.608 217.686 147.091C217.709 147.575 218.103 147.966 218.565 147.966Z" fill="#18181B"/>
<path d="M218.565 154.617C219.051 154.617 219.444 154.226 219.444 153.742C219.444 153.259 219.051 152.868 218.565 152.868C218.079 152.868 217.686 153.259 217.686 153.742C217.709 154.226 218.103 154.617 218.565 154.617Z" fill="#18181B"/>
<path d="M212.784 142.88C212.298 142.88 211.905 143.271 211.905 143.754C211.905 144.238 212.298 144.629 212.784 144.629C213.269 144.629 213.663 144.238 213.663 143.754C213.663 143.271 213.269 142.88 212.784 142.88Z" fill="#18181B"/>
<path d="M214.703 139.566C214.218 139.566 213.824 139.957 213.824 140.44C213.824 140.924 214.218 141.315 214.703 141.315C215.189 141.315 215.582 140.924 215.582 140.44C215.605 139.957 215.189 139.566 214.703 139.566Z" fill="#18181B"/>
<path d="M212.784 149.577C212.298 149.577 211.905 149.968 211.905 150.451C211.905 150.935 212.298 151.326 212.784 151.326C213.269 151.326 213.663 150.935 213.663 150.451C213.663 149.968 213.269 149.577 212.784 149.577Z" fill="#18181B"/>
<path d="M214.703 146.217C214.218 146.217 213.824 146.608 213.824 147.091C213.824 147.575 214.218 147.966 214.703 147.966C215.189 147.966 215.582 147.575 215.582 147.091C215.605 146.608 215.189 146.217 214.703 146.217Z" fill="#18181B"/>
<path d="M212.784 156.228C212.298 156.228 211.905 156.619 211.905 157.102C211.905 157.586 212.298 157.977 212.784 157.977C213.269 157.977 213.663 157.586 213.663 157.102C213.663 156.619 213.269 156.228 212.784 156.228Z" fill="#18181B"/>
<path d="M214.703 152.891C214.218 152.891 213.824 153.282 213.824 153.765C213.824 154.249 214.218 154.64 214.703 154.64C215.189 154.64 215.582 154.249 215.582 153.765C215.605 153.282 215.189 152.891 214.703 152.891Z" fill="#18181B"/>
<path d="M208.922 142.88C208.436 142.88 208.043 143.271 208.043 143.754C208.043 144.238 208.436 144.629 208.922 144.629C209.408 144.629 209.801 144.238 209.801 143.754C209.801 143.271 209.408 142.88 208.922 142.88Z" fill="#18181B"/>
<path d="M210.841 139.566C210.356 139.566 209.963 139.957 209.963 140.44C209.963 140.924 210.356 141.315 210.841 141.315C211.327 141.315 211.72 140.924 211.72 140.44C211.743 139.957 211.35 139.566 210.841 139.566Z" fill="#18181B"/>
<path d="M208.922 149.577C208.436 149.577 208.043 149.968 208.043 150.451C208.043 150.935 208.436 151.326 208.922 151.326C209.408 151.326 209.801 150.935 209.801 150.451C209.801 149.968 209.408 149.577 208.922 149.577Z" fill="#18181B"/>
<path d="M210.841 147.966C211.327 147.966 211.72 147.575 211.72 147.091C211.72 146.608 211.327 146.217 210.841 146.217C210.356 146.217 209.963 146.608 209.963 147.091C209.986 147.575 210.356 147.966 210.841 147.966Z" fill="#18181B"/>
<path d="M208.922 156.228C208.436 156.228 208.043 156.619 208.043 157.102C208.043 157.586 208.436 157.977 208.922 157.977C209.408 157.977 209.801 157.586 209.801 157.102C209.801 156.619 209.408 156.228 208.922 156.228Z" fill="#18181B"/>
<path d="M210.841 154.617C211.327 154.617 211.72 154.226 211.72 153.742C211.72 153.259 211.327 152.868 210.841 152.868C210.356 152.868 209.963 153.259 209.963 153.742C209.986 154.226 210.356 154.617 210.841 154.617Z" fill="#18181B"/>
<path d="M205.037 142.88C204.551 142.88 204.158 143.271 204.158 143.754C204.158 144.238 204.551 144.629 205.037 144.629C205.523 144.629 205.916 144.238 205.916 143.754C205.939 143.271 205.546 142.88 205.037 142.88Z" fill="#18181B"/>
<path d="M205.037 149.577C204.551 149.577 204.158 149.968 204.158 150.451C204.158 150.935 204.551 151.326 205.037 151.326C205.523 151.326 205.916 150.935 205.916 150.451C205.939 149.968 205.546 149.577 205.037 149.577Z" fill="#18181B"/>
<path d="M206.98 146.217C206.494 146.217 206.101 146.608 206.101 147.091C206.101 147.575 206.494 147.966 206.98 147.966C207.465 147.966 207.858 147.575 207.858 147.091C207.858 146.608 207.465 146.217 206.98 146.217Z" fill="#18181B"/>
<path d="M205.037 156.228C204.551 156.228 204.158 156.619 204.158 157.102C204.158 157.586 204.551 157.977 205.037 157.977C205.523 157.977 205.916 157.586 205.916 157.102C205.939 156.619 205.546 156.228 205.037 156.228Z" fill="#18181B"/>
<path d="M206.98 152.891C206.494 152.891 206.101 153.282 206.101 153.765C206.101 154.249 206.494 154.64 206.98 154.64C207.465 154.64 207.858 154.249 207.858 153.765C207.858 153.282 207.465 152.891 206.98 152.891Z" fill="#18181B"/>
<path d="M201.175 142.88C200.69 142.88 200.296 143.271 200.296 143.754C200.296 144.238 200.69 144.629 201.175 144.629C201.661 144.629 202.054 144.238 202.054 143.754C202.077 143.271 201.684 142.88 201.175 142.88Z" fill="#18181B"/>
<path d="M201.175 149.577C200.69 149.577 200.296 149.968 200.296 150.451C200.296 150.935 200.69 151.326 201.175 151.326C201.661 151.326 202.054 150.935 202.054 150.451C202.077 149.968 201.684 149.577 201.175 149.577Z" fill="#18181B"/>
<path d="M203.118 147.966C203.603 147.966 203.996 147.575 203.996 147.091C203.996 146.608 203.603 146.217 203.118 146.217C202.632 146.217 202.239 146.608 202.239 147.091C202.239 147.575 202.632 147.966 203.118 147.966Z" fill="#18181B"/>
<path d="M201.175 156.228C200.69 156.228 200.296 156.619 200.296 157.102C200.296 157.586 200.69 157.977 201.175 157.977C201.661 157.977 202.054 157.586 202.054 157.102C202.077 156.619 201.684 156.228 201.175 156.228Z" fill="#18181B"/>
<path d="M203.118 154.617C203.603 154.617 203.996 154.226 203.996 153.742C203.996 153.259 203.603 152.868 203.118 152.868C202.632 152.868 202.239 153.259 202.239 153.742C202.239 154.226 202.632 154.617 203.118 154.617Z" fill="#18181B"/>
<path d="M197.29 142.88C196.805 142.88 196.412 143.271 196.412 143.754C196.412 144.238 196.805 144.629 197.29 144.629C197.776 144.629 198.169 144.238 198.169 143.754C198.169 143.271 197.776 142.88 197.29 142.88Z" fill="#18181B"/>
<path d="M197.29 149.577C196.805 149.577 196.412 149.968 196.412 150.451C196.412 150.935 196.805 151.326 197.29 151.326C197.776 151.326 198.169 150.935 198.169 150.451C198.169 149.968 197.776 149.577 197.29 149.577Z" fill="#18181B"/>
<path d="M199.256 147.966C199.741 147.966 200.135 147.575 200.135 147.091C200.135 146.608 199.741 146.217 199.256 146.217C198.77 146.217 198.377 146.608 198.377 147.091C198.377 147.575 198.77 147.966 199.256 147.966Z" fill="#18181B"/>
<path d="M197.29 156.228C196.805 156.228 196.412 156.619 196.412 157.102C196.412 157.586 196.805 157.977 197.29 157.977C197.776 157.977 198.169 157.586 198.169 157.102C198.169 156.619 197.776 156.228 197.29 156.228Z" fill="#18181B"/>
<path d="M199.256 154.617C199.741 154.617 200.135 154.226 200.135 153.742C200.135 153.259 199.741 152.868 199.256 152.868C198.77 152.868 198.377 153.259 198.377 153.742C198.377 154.226 198.77 154.617 199.256 154.617Z" fill="#18181B"/>
<path d="M193.452 142.88C192.966 142.88 192.573 143.271 192.573 143.754C192.573 144.238 192.966 144.629 193.452 144.629C193.937 144.629 194.33 144.238 194.33 143.754C194.353 143.271 193.937 142.88 193.452 142.88Z" fill="#18181B"/>
<path d="M193.452 149.577C192.966 149.577 192.573 149.968 192.573 150.451C192.573 150.935 192.966 151.326 193.452 151.326C193.937 151.326 194.33 150.935 194.33 150.451C194.353 149.968 193.937 149.577 193.452 149.577Z" fill="#18181B"/>
<path d="M195.394 147.966C195.88 147.966 196.273 147.575 196.273 147.091C196.273 146.608 195.88 146.217 195.394 146.217C194.908 146.217 194.515 146.608 194.515 147.091C194.515 147.575 194.908 147.966 195.394 147.966Z" fill="#18181B"/>
<path d="M193.452 156.228C192.966 156.228 192.573 156.619 192.573 157.102C192.573 157.586 192.966 157.977 193.452 157.977C193.937 157.977 194.33 157.586 194.33 157.102C194.353 156.619 193.937 156.228 193.452 156.228Z" fill="#18181B"/>
<path d="M195.394 154.617C195.88 154.617 196.273 154.226 196.273 153.742C196.273 153.259 195.88 152.868 195.394 152.868C194.908 152.868 194.515 153.259 194.515 153.742C194.515 154.226 194.908 154.617 195.394 154.617Z" fill="#18181B"/>
<path d="M189.59 142.88C189.104 142.88 188.711 143.271 188.711 143.754C188.711 144.238 189.104 144.629 189.59 144.629C190.075 144.629 190.468 144.238 190.468 143.754C190.468 143.271 190.075 142.88 189.59 142.88Z" fill="#18181B"/>
<path d="M189.59 149.577C189.104 149.577 188.711 149.968 188.711 150.451C188.711 150.935 189.104 151.326 189.59 151.326C190.075 151.326 190.468 150.935 190.468 150.451C190.468 149.968 190.075 149.577 189.59 149.577Z" fill="#18181B"/>
<path d="M191.532 147.966C192.018 147.966 192.411 147.575 192.411 147.091C192.411 146.608 192.018 146.217 191.532 146.217C191.047 146.217 190.653 146.608 190.653 147.091C190.653 147.575 191.047 147.966 191.532 147.966Z" fill="#18181B"/>
<path d="M189.59 156.228C189.104 156.228 188.711 156.619 188.711 157.102C188.711 157.586 189.104 157.977 189.59 157.977C190.075 157.977 190.468 157.586 190.468 157.102C190.468 156.619 190.075 156.228 189.59 156.228Z" fill="#18181B"/>
<path d="M191.532 154.617C192.018 154.617 192.411 154.226 192.411 153.742C192.411 153.259 192.018 152.868 191.532 152.868C191.047 152.868 190.653 153.259 190.653 153.742C190.653 154.226 191.047 154.617 191.532 154.617Z" fill="#18181B"/>
<path d="M185.774 142.88C185.289 142.88 184.895 143.271 184.895 143.754C184.895 144.238 185.289 144.629 185.774 144.629C186.26 144.629 186.653 144.238 186.653 143.754C186.653 143.271 186.26 142.88 185.774 142.88Z" fill="#18181B"/>
<path d="M185.774 149.577C185.289 149.577 184.895 149.968 184.895 150.451C184.895 150.935 185.289 151.326 185.774 151.326C186.26 151.326 186.653 150.935 186.653 150.451C186.653 149.968 186.26 149.577 185.774 149.577Z" fill="#18181B"/>
<path d="M187.647 147.966C188.133 147.966 188.526 147.575 188.526 147.091C188.526 146.608 188.133 146.217 187.647 146.217C187.162 146.217 186.769 146.608 186.769 147.091C186.792 147.575 187.162 147.966 187.647 147.966Z" fill="#18181B"/>
<path d="M185.774 156.228C185.289 156.228 184.895 156.619 184.895 157.102C184.895 157.586 185.289 157.977 185.774 157.977C186.26 157.977 186.653 157.586 186.653 157.102C186.653 156.619 186.26 156.228 185.774 156.228Z" fill="#18181B"/>
<path d="M187.647 154.617C188.133 154.617 188.526 154.226 188.526 153.742C188.526 153.259 188.133 152.868 187.647 152.868C187.162 152.868 186.769 153.259 186.769 153.742C186.792 154.226 187.162 154.617 187.647 154.617Z" fill="#18181B"/>
<path d="M181.843 142.88C181.357 142.88 180.964 143.271 180.964 143.754C180.964 144.238 181.357 144.629 181.843 144.629C182.329 144.629 182.722 144.238 182.722 143.754C182.745 143.271 182.352 142.88 181.843 142.88Z" fill="#18181B"/>
<path d="M181.843 149.577C181.357 149.577 180.964 149.968 180.964 150.451C180.964 150.935 181.357 151.326 181.843 151.326C182.329 151.326 182.722 150.935 182.722 150.451C182.745 149.968 182.352 149.577 181.843 149.577Z" fill="#18181B"/>
<path d="M183.785 147.966C184.271 147.966 184.664 147.575 184.664 147.091C184.664 146.608 184.271 146.217 183.785 146.217C183.3 146.217 182.907 146.608 182.907 147.091C182.907 147.575 183.3 147.966 183.785 147.966Z" fill="#18181B"/>
<path d="M181.843 156.228C181.357 156.228 180.964 156.619 180.964 157.102C180.964 157.586 181.357 157.977 181.843 157.977C182.329 157.977 182.722 157.586 182.722 157.102C182.745 156.619 182.352 156.228 181.843 156.228Z" fill="#18181B"/>
<path d="M183.785 154.617C184.271 154.617 184.664 154.226 184.664 153.742C184.664 153.259 184.271 152.868 183.785 152.868C183.3 152.868 182.907 153.259 182.907 153.742C182.907 154.226 183.3 154.617 183.785 154.617Z" fill="#18181B"/>
<path d="M177.981 142.88C177.496 142.88 177.102 143.271 177.102 143.754C177.102 144.238 177.496 144.629 177.981 144.629C178.467 144.629 178.86 144.238 178.86 143.754C178.883 143.271 178.49 142.88 177.981 142.88Z" fill="#18181B"/>
<path d="M177.981 149.577C177.496 149.577 177.102 149.968 177.102 150.451C177.102 150.935 177.496 151.326 177.981 151.326C178.467 151.326 178.86 150.935 178.86 150.451C178.883 149.968 178.49 149.577 177.981 149.577Z" fill="#18181B"/>
<path d="M179.924 147.966C180.409 147.966 180.802 147.575 180.802 147.091C180.802 146.608 180.409 146.217 179.924 146.217C179.438 146.217 179.045 146.608 179.045 147.091C179.045 147.575 179.438 147.966 179.924 147.966Z" fill="#18181B"/>
<path d="M177.981 156.228C177.496 156.228 177.102 156.619 177.102 157.102C177.102 157.586 177.496 157.977 177.981 157.977C178.467 157.977 178.86 157.586 178.86 157.102C178.883 156.619 178.49 156.228 177.981 156.228Z" fill="#18181B"/>
<path d="M179.924 154.617C180.409 154.617 180.802 154.226 180.802 153.742C180.802 153.259 180.409 152.868 179.924 152.868C179.438 152.868 179.045 153.259 179.045 153.742C179.045 154.226 179.438 154.617 179.924 154.617Z" fill="#18181B"/>
<path d="M176.062 147.966C176.547 147.966 176.941 147.575 176.941 147.091C176.941 146.608 176.547 146.217 176.062 146.217C175.576 146.217 175.183 146.608 175.183 147.091C175.183 147.575 175.576 147.966 176.062 147.966Z" fill="#18181B"/>
<path d="M176.062 154.617C176.547 154.617 176.941 154.226 176.941 153.742C176.941 153.259 176.547 152.868 176.062 152.868C175.576 152.868 175.183 153.259 175.183 153.742C175.183 154.226 175.576 154.617 176.062 154.617Z" fill="#18181B"/>
<path d="M108.422 129.578C108.908 129.578 109.324 129.969 109.324 130.476C109.324 130.982 108.931 131.373 108.422 131.373C107.913 131.373 107.52 130.982 107.52 130.476C107.543 129.969 107.936 129.578 108.422 129.578Z" fill="#18181B"/>
<path d="M108.422 136.229C108.908 136.229 109.324 136.62 109.324 137.104C109.324 137.587 108.931 137.978 108.422 137.978C107.913 137.978 107.52 137.587 107.52 137.104C107.543 136.62 107.936 136.229 108.422 136.229Z" fill="#18181B"/>
<path d="M106.48 134.641C105.994 134.641 105.601 134.25 105.601 133.767C105.601 133.283 105.994 132.892 106.48 132.892C106.965 132.892 107.358 133.283 107.358 133.767C107.358 134.25 106.965 134.641 106.48 134.641Z" fill="#18181B"/>
<path d="M112.284 136.229C112.769 136.229 113.186 136.62 113.186 137.104C113.186 137.587 112.793 137.978 112.284 137.978C111.775 137.978 111.382 137.587 111.382 137.104C111.405 136.62 111.798 136.229 112.284 136.229Z" fill="#18181B"/>
<path d="M110.341 134.641C109.856 134.641 109.463 134.25 109.463 133.767C109.463 133.283 109.856 132.892 110.341 132.892C110.827 132.892 111.22 133.283 111.22 133.767C111.22 134.25 110.827 134.641 110.341 134.641Z" fill="#18181B"/>
<path d="M112.284 142.88C112.769 142.88 113.186 143.271 113.186 143.755C113.186 144.238 112.793 144.629 112.284 144.629C111.775 144.629 111.382 144.238 111.382 143.755C111.405 143.271 111.798 142.88 112.284 142.88Z" fill="#18181B"/>
<path d="M110.341 139.566C110.827 139.566 111.243 139.957 111.243 140.441C111.243 140.924 110.85 141.315 110.341 141.315C109.833 141.315 109.44 140.924 109.44 140.441C109.463 139.957 109.856 139.566 110.341 139.566Z" fill="#18181B"/>
<path d="M116.146 136.229C116.631 136.229 117.048 136.62 117.048 137.104C117.048 137.587 116.654 137.978 116.146 137.978C115.637 137.978 115.244 137.587 115.244 137.104C115.244 136.62 115.66 136.229 116.146 136.229Z" fill="#18181B"/>
<path d="M114.203 132.915C114.689 132.915 115.105 133.306 115.105 133.79C115.105 134.273 114.712 134.664 114.203 134.664C113.694 134.664 113.301 134.273 113.301 133.79C113.301 133.306 113.718 132.915 114.203 132.915Z" fill="#18181B"/>
<path d="M116.146 142.88C116.631 142.88 117.048 143.271 117.048 143.755C117.048 144.238 116.654 144.629 116.146 144.629C115.637 144.629 115.244 144.238 115.244 143.755C115.267 143.271 115.66 142.88 116.146 142.88Z" fill="#18181B"/>
<path d="M114.203 139.566C114.689 139.566 115.105 139.957 115.105 140.441C115.105 140.924 114.712 141.315 114.203 141.315C113.694 141.315 113.301 140.924 113.301 140.441C113.324 139.957 113.718 139.566 114.203 139.566Z" fill="#18181B"/>
<path d="M120.007 136.229C120.493 136.229 120.909 136.62 120.909 137.104C120.909 137.587 120.516 137.978 120.007 137.978C119.499 137.978 119.106 137.587 119.106 137.104C119.106 136.62 119.522 136.229 120.007 136.229Z" fill="#18181B"/>
<path d="M120.007 142.88C120.493 142.88 120.909 143.271 120.909 143.755C120.909 144.238 120.516 144.629 120.007 144.629C119.499 144.629 119.106 144.238 119.106 143.755C119.129 143.271 119.522 142.88 120.007 142.88Z" fill="#18181B"/>
<path d="M118.088 139.566C118.574 139.566 118.99 139.957 118.99 140.441C118.99 140.924 118.597 141.315 118.088 141.315C117.579 141.315 117.186 140.924 117.186 140.441C117.186 139.957 117.579 139.566 118.088 139.566Z" fill="#18181B"/>
<path d="M118.088 147.966C117.603 147.966 117.209 147.575 117.209 147.092C117.209 146.608 117.603 146.217 118.088 146.217C118.574 146.217 118.967 146.608 118.967 147.092C118.944 147.575 118.551 147.966 118.088 147.966Z" fill="#18181B"/>
<path d="M123.869 142.88C124.355 142.88 124.771 143.271 124.771 143.755C124.771 144.238 124.378 144.629 123.869 144.629C123.361 144.629 122.967 144.238 122.967 143.755C122.991 143.271 123.384 142.88 123.869 142.88Z" fill="#18181B"/>
<path d="M121.95 139.566C122.436 139.566 122.852 139.957 122.852 140.441C122.852 140.924 122.459 141.315 121.95 141.315C121.441 141.315 121.048 140.924 121.048 140.441C121.048 139.957 121.441 139.566 121.95 139.566Z" fill="#18181B"/>
<path d="M123.869 149.577C124.355 149.577 124.771 149.968 124.771 150.452C124.771 150.935 124.378 151.326 123.869 151.326C123.361 151.326 122.967 150.935 122.967 150.452C122.991 149.968 123.384 149.577 123.869 149.577Z" fill="#18181B"/>
<path d="M121.95 146.217C122.436 146.217 122.852 146.608 122.852 147.092C122.852 147.575 122.459 147.966 121.95 147.966C121.441 147.966 121.048 147.575 121.048 147.092C121.048 146.608 121.441 146.217 121.95 146.217Z" fill="#18181B"/>
<path d="M127.731 142.88C128.217 142.88 128.633 143.271 128.633 143.755C128.633 144.238 128.24 144.629 127.731 144.629C127.222 144.629 126.829 144.238 126.829 143.755C126.852 143.271 127.246 142.88 127.731 142.88Z" fill="#18181B"/>
<path d="M127.731 149.577C128.217 149.577 128.633 149.968 128.633 150.452C128.633 150.935 128.24 151.326 127.731 151.326C127.222 151.326 126.829 150.935 126.829 150.452C126.852 149.968 127.246 149.577 127.731 149.577Z" fill="#18181B"/>
<path d="M125.812 147.966C125.326 147.966 124.933 147.575 124.933 147.092C124.933 146.608 125.326 146.217 125.812 146.217C126.297 146.217 126.691 146.608 126.691 147.092C126.667 147.575 126.297 147.966 125.812 147.966Z" fill="#18181B"/>
<path d="M131.616 142.88C132.102 142.88 132.518 143.271 132.518 143.755C132.518 144.238 132.125 144.629 131.616 144.629C131.107 144.629 130.714 144.238 130.714 143.755C130.714 143.271 131.13 142.88 131.616 142.88Z" fill="#18181B"/>
<path d="M131.616 149.577C132.102 149.577 132.518 149.968 132.518 150.452C132.518 150.935 132.125 151.326 131.616 151.326C131.107 151.326 130.714 150.935 130.714 150.452C130.714 149.968 131.13 149.577 131.616 149.577Z" fill="#18181B"/>
<path d="M129.674 146.217C130.159 146.217 130.575 146.608 130.575 147.092C130.575 147.575 130.182 147.966 129.674 147.966C129.165 147.966 128.772 147.575 128.772 147.092C128.772 146.608 129.188 146.217 129.674 146.217Z" fill="#18181B"/>
<path d="M129.674 152.891C130.159 152.891 130.575 153.282 130.575 153.766C130.575 154.249 130.182 154.64 129.674 154.64C129.165 154.64 128.772 154.249 128.772 153.766C128.772 153.282 129.188 152.891 129.674 152.891Z" fill="#18181B"/>
<path d="M135.478 149.577C135.964 149.577 136.38 149.968 136.38 150.452C136.38 150.935 135.987 151.326 135.478 151.326C134.969 151.326 134.576 150.935 134.576 150.452C134.576 149.968 134.969 149.577 135.478 149.577Z" fill="#18181B"/>
<path d="M133.535 147.966C133.05 147.966 132.657 147.575 132.657 147.092C132.657 146.608 133.05 146.217 133.535 146.217C134.021 146.217 134.414 146.608 134.414 147.092C134.414 147.575 134.021 147.966 133.535 147.966Z" fill="#18181B"/>
<path d="M133.535 154.617C133.05 154.617 132.657 154.226 132.657 153.742C132.657 153.259 133.05 152.868 133.535 152.868C134.021 152.868 134.414 153.259 134.414 153.742C134.414 154.226 134.021 154.617 133.535 154.617Z" fill="#18181B"/>
<path d="M139.34 149.577C139.825 149.577 140.242 149.968 140.242 150.452C140.242 150.935 139.849 151.326 139.34 151.326C138.831 151.326 138.438 150.935 138.438 150.452C138.438 149.968 138.854 149.577 139.34 149.577Z" fill="#18181B"/>
<path d="M137.397 146.217C137.883 146.217 138.299 146.608 138.299 147.092C138.299 147.575 137.906 147.966 137.397 147.966C136.889 147.966 136.495 147.575 136.495 147.092C136.519 146.608 136.912 146.217 137.397 146.217Z" fill="#18181B"/>
<path d="M139.34 156.228C139.825 156.228 140.242 156.619 140.242 157.103C140.242 157.586 139.849 157.977 139.34 157.977C138.831 157.977 138.438 157.586 138.438 157.103C138.438 156.619 138.854 156.228 139.34 156.228Z" fill="#18181B"/>
<path d="M137.397 152.891C137.883 152.891 138.299 153.282 138.299 153.766C138.299 154.249 137.906 154.64 137.397 154.64C136.889 154.64 136.495 154.249 136.495 153.766C136.519 153.282 136.912 152.891 137.397 152.891Z" fill="#18181B"/>
<path d="M143.202 149.577C143.687 149.577 144.08 149.968 144.08 150.452C144.08 150.935 143.687 151.326 143.178 151.326C142.693 151.326 142.277 150.935 142.277 150.452C142.323 149.968 142.716 149.577 143.202 149.577Z" fill="#18181B"/>
<path d="M141.259 147.966C140.773 147.966 140.38 147.575 140.38 147.092C140.38 146.608 140.773 146.217 141.259 146.217C141.745 146.217 142.138 146.608 142.138 147.092C142.138 147.575 141.745 147.966 141.259 147.966Z" fill="#18181B"/>
<path d="M143.202 156.228C143.687 156.228 144.08 156.619 144.08 157.103C144.08 157.586 143.687 157.977 143.178 157.977C142.693 157.977 142.277 157.586 142.277 157.103C142.323 156.619 142.716 156.228 143.202 156.228Z" fill="#18181B"/>
<path d="M141.259 154.617C140.773 154.617 140.38 154.226 140.38 153.742C140.38 153.259 140.773 152.868 141.259 152.868C141.745 152.868 142.138 153.259 142.138 153.742C142.138 154.226 141.745 154.617 141.259 154.617Z" fill="#18181B"/>
<path d="M147.063 142.88C147.549 142.88 147.942 143.271 147.942 143.755C147.942 144.238 147.549 144.629 147.063 144.629C146.578 144.629 146.185 144.238 146.185 143.755C146.185 143.271 146.578 142.88 147.063 142.88Z" fill="#18181B"/>
<path d="M147.063 149.577C147.549 149.577 147.942 149.968 147.942 150.452C147.942 150.935 147.549 151.326 147.063 151.326C146.578 151.326 146.185 150.935 146.185 150.452C146.185 149.968 146.578 149.577 147.063 149.577Z" fill="#18181B"/>
<path d="M145.144 146.217C145.63 146.217 146.023 146.608 146.023 147.092C146.023 147.575 145.63 147.966 145.144 147.966C144.658 147.966 144.265 147.575 144.265 147.092C144.242 146.608 144.635 146.217 145.144 146.217Z" fill="#18181B"/>
<path d="M147.063 156.228C147.549 156.228 147.942 156.619 147.942 157.103C147.942 157.586 147.549 157.977 147.063 157.977C146.578 157.977 146.185 157.586 146.185 157.103C146.185 156.619 146.578 156.228 147.063 156.228Z" fill="#18181B"/>
<path d="M145.144 152.891C145.63 152.891 146.023 153.282 146.023 153.766C146.023 154.249 145.63 154.64 145.144 154.64C144.658 154.64 144.265 154.249 144.265 153.766C144.242 153.282 144.635 152.891 145.144 152.891Z" fill="#18181B"/>
<path d="M150.925 142.88C151.411 142.88 151.804 143.271 151.804 143.755C151.804 144.238 151.411 144.629 150.925 144.629C150.44 144.629 150.046 144.238 150.046 143.755C150.046 143.271 150.44 142.88 150.925 142.88Z" fill="#18181B"/>
<path d="M150.925 149.577C151.411 149.577 151.804 149.968 151.804 150.452C151.804 150.935 151.411 151.326 150.925 151.326C150.44 151.326 150.046 150.935 150.046 150.452C150.046 149.968 150.44 149.577 150.925 149.577Z" fill="#18181B"/>
<path d="M149.006 147.966C148.52 147.966 148.127 147.575 148.127 147.092C148.127 146.608 148.52 146.217 149.006 146.217C149.491 146.217 149.885 146.608 149.885 147.092C149.861 147.575 149.468 147.966 149.006 147.966Z" fill="#18181B"/>
<path d="M150.925 156.228C151.411 156.228 151.804 156.619 151.804 157.103C151.804 157.586 151.411 157.977 150.925 157.977C150.44 157.977 150.046 157.586 150.046 157.103C150.046 156.619 150.44 156.228 150.925 156.228Z" fill="#18181B"/>
<path d="M149.006 154.617C148.52 154.617 148.127 154.226 148.127 153.742C148.127 153.259 148.52 152.868 149.006 152.868C149.491 152.868 149.885 153.259 149.885 153.742C149.861 154.226 149.468 154.617 149.006 154.617Z" fill="#18181B"/>
<path d="M154.833 142.88C155.319 142.88 155.712 143.271 155.712 143.755C155.712 144.238 155.319 144.629 154.833 144.629C154.348 144.629 153.955 144.238 153.955 143.755C153.931 143.271 154.348 142.88 154.833 142.88Z" fill="#18181B"/>
<path d="M139.293 142.88C139.779 142.88 140.195 143.271 140.195 143.755C140.195 144.238 139.802 144.629 139.293 144.629C138.785 144.629 138.392 144.238 138.392 143.755C138.415 143.271 138.808 142.88 139.293 142.88Z" fill="#18181B"/>
<path d="M143.155 142.88C143.641 142.88 144.057 143.271 144.057 143.755C144.057 144.238 143.664 144.629 143.155 144.629C142.67 144.629 142.253 144.238 142.253 143.755C142.277 143.271 142.67 142.88 143.155 142.88Z" fill="#18181B"/>
<path d="M147.063 142.88C147.549 142.88 147.942 143.271 147.942 143.755C147.942 144.238 147.549 144.629 147.063 144.629C146.578 144.629 146.185 144.238 146.185 143.755C146.185 143.271 146.578 142.88 147.063 142.88Z" fill="#18181B"/>
<path d="M154.833 149.577C155.319 149.577 155.712 149.968 155.712 150.452C155.712 150.935 155.319 151.326 154.833 151.326C154.348 151.326 153.955 150.935 153.955 150.452C153.931 149.968 154.348 149.577 154.833 149.577Z" fill="#18181B"/>
<path d="M152.845 147.966C152.359 147.966 151.966 147.575 151.966 147.092C151.966 146.608 152.359 146.217 152.845 146.217C153.33 146.217 153.723 146.608 153.723 147.092C153.723 147.575 153.33 147.966 152.845 147.966Z" fill="#18181B"/>
<path d="M154.833 156.228C155.319 156.228 155.712 156.619 155.712 157.103C155.712 157.586 155.319 157.977 154.833 157.977C154.348 157.977 153.955 157.586 153.955 157.103C153.931 156.619 154.348 156.228 154.833 156.228Z" fill="#18181B"/>
<path d="M152.845 154.617C152.359 154.617 151.966 154.226 151.966 153.742C151.966 153.259 152.359 152.868 152.845 152.868C153.33 152.868 153.723 153.259 153.723 153.742C153.723 154.226 153.33 154.617 152.845 154.617Z" fill="#18181B"/>
<path d="M158.649 142.88C159.134 142.88 159.528 143.271 159.528 143.755C159.528 144.238 159.134 144.629 158.649 144.629C158.163 144.629 157.77 144.238 157.77 143.755C157.77 143.271 158.163 142.88 158.649 142.88Z" fill="#18181B"/>
<path d="M158.649 149.577C159.134 149.577 159.528 149.968 159.528 150.452C159.528 150.935 159.134 151.326 158.649 151.326C158.163 151.326 157.77 150.935 157.77 150.452C157.77 149.968 158.163 149.577 158.649 149.577Z" fill="#18181B"/>
<path d="M156.73 147.966C156.244 147.966 155.851 147.575 155.851 147.092C155.851 146.608 156.244 146.217 156.73 146.217C157.215 146.217 157.608 146.608 157.608 147.092C157.585 147.575 157.192 147.966 156.73 147.966Z" fill="#18181B"/>
<path d="M158.649 156.228C159.134 156.228 159.528 156.619 159.528 157.103C159.528 157.586 159.134 157.977 158.649 157.977C158.163 157.977 157.77 157.586 157.77 157.103C157.77 156.619 158.163 156.228 158.649 156.228Z" fill="#18181B"/>
<path d="M156.73 154.617C156.244 154.617 155.851 154.226 155.851 153.742C155.851 153.259 156.244 152.868 156.73 152.868C157.215 152.868 157.608 153.259 157.608 153.742C157.585 154.226 157.192 154.617 156.73 154.617Z" fill="#18181B"/>
<path d="M162.511 142.88C162.996 142.88 163.389 143.271 163.389 143.755C163.389 144.238 162.996 144.629 162.511 144.629C162.025 144.629 161.632 144.238 161.632 143.755C161.632 143.271 162.025 142.88 162.511 142.88Z" fill="#18181B"/>
<path d="M162.511 149.577C162.996 149.577 163.389 149.968 163.389 150.452C163.389 150.935 162.996 151.326 162.511 151.326C162.025 151.326 161.632 150.935 161.632 150.452C161.632 149.968 162.025 149.577 162.511 149.577Z" fill="#18181B"/>
<path d="M160.591 147.966C160.106 147.966 159.713 147.575 159.713 147.092C159.713 146.608 160.106 146.217 160.591 146.217C161.077 146.217 161.47 146.608 161.47 147.092C161.47 147.575 161.077 147.966 160.591 147.966Z" fill="#18181B"/>
<path d="M162.511 156.228C162.996 156.228 163.389 156.619 163.389 157.103C163.389 157.586 162.996 157.977 162.511 157.977C162.025 157.977 161.632 157.586 161.632 157.103C161.632 156.619 162.025 156.228 162.511 156.228Z" fill="#18181B"/>
<path d="M160.591 154.617C160.106 154.617 159.713 154.226 159.713 153.742C159.713 153.259 160.106 152.868 160.591 152.868C161.077 152.868 161.47 153.259 161.47 153.742C161.47 154.226 161.077 154.617 160.591 154.617Z" fill="#18181B"/>
<path d="M166.349 142.88C166.835 142.88 167.228 143.271 167.228 143.755C167.228 144.238 166.835 144.629 166.349 144.629C165.864 144.629 165.471 144.238 165.471 143.755C165.471 143.271 165.864 142.88 166.349 142.88Z" fill="#18181B"/>
<path d="M166.349 149.577C166.835 149.577 167.228 149.968 167.228 150.452C167.228 150.935 166.835 151.326 166.349 151.326C165.864 151.326 165.471 150.935 165.471 150.452C165.471 149.968 165.864 149.577 166.349 149.577Z" fill="#18181B"/>
<path d="M164.453 147.966C163.968 147.966 163.574 147.575 163.574 147.092C163.574 146.608 163.968 146.217 164.453 146.217C164.939 146.217 165.332 146.608 165.332 147.092C165.332 147.575 164.939 147.966 164.453 147.966Z" fill="#18181B"/>
<path d="M166.349 156.228C166.835 156.228 167.228 156.619 167.228 157.103C167.228 157.586 166.835 157.977 166.349 157.977C165.864 157.977 165.471 157.586 165.471 157.103C165.471 156.619 165.864 156.228 166.349 156.228Z" fill="#18181B"/>
<path d="M164.453 154.617C163.968 154.617 163.574 154.226 163.574 153.742C163.574 153.259 163.968 152.868 164.453 152.868C164.939 152.868 165.332 153.259 165.332 153.742C165.332 154.226 164.939 154.617 164.453 154.617Z" fill="#18181B"/>
<path d="M170.257 142.88C170.743 142.88 171.136 143.271 171.136 143.755C171.136 144.238 170.743 144.629 170.257 144.629C169.772 144.629 169.379 144.238 169.379 143.755C169.379 143.271 169.772 142.88 170.257 142.88Z" fill="#18181B"/>
<path d="M170.257 149.577C170.743 149.577 171.136 149.968 171.136 150.452C171.136 150.935 170.743 151.326 170.257 151.326C169.772 151.326 169.379 150.935 169.379 150.452C169.379 149.968 169.772 149.577 170.257 149.577Z" fill="#18181B"/>
<path d="M168.338 147.966C167.853 147.966 167.459 147.575 167.459 147.092C167.459 146.608 167.853 146.217 168.338 146.217C168.824 146.217 169.217 146.608 169.217 147.092C169.194 147.575 168.801 147.966 168.338 147.966Z" fill="#18181B"/>
<path d="M170.257 156.228C170.743 156.228 171.136 156.619 171.136 157.103C171.136 157.586 170.743 157.977 170.257 157.977C169.772 157.977 169.379 157.586 169.379 157.103C169.379 156.619 169.772 156.228 170.257 156.228Z" fill="#18181B"/>
<path d="M168.338 154.617C167.853 154.617 167.459 154.226 167.459 153.742C167.459 153.259 167.853 152.868 168.338 152.868C168.824 152.868 169.217 153.259 169.217 153.742C169.194 154.226 168.801 154.617 168.338 154.617Z" fill="#18181B"/>
<path d="M174.119 149.577C174.605 149.577 174.998 149.968 174.998 150.452C174.998 150.935 174.605 151.326 174.119 151.326C173.634 151.326 173.241 150.935 173.241 150.452C173.241 149.968 173.634 149.577 174.119 149.577Z" fill="#18181B"/>
<path d="M172.2 147.966C171.714 147.966 171.321 147.575 171.321 147.092C171.321 146.608 171.714 146.217 172.2 146.217C172.686 146.217 173.079 146.608 173.079 147.092C173.056 147.575 172.662 147.966 172.2 147.966Z" fill="#18181B"/>
<path d="M174.119 156.228C174.605 156.228 174.998 156.619 174.998 157.103C174.998 157.586 174.605 157.977 174.119 157.977C173.634 157.977 173.241 157.586 173.241 157.103C173.241 156.619 173.634 156.228 174.119 156.228Z" fill="#18181B"/>
<path d="M172.2 154.617C171.714 154.617 171.321 154.226 171.321 153.742C171.321 153.259 171.714 152.868 172.2 152.868C172.686 152.868 173.079 153.259 173.079 153.742C173.056 154.226 172.662 154.617 172.2 154.617Z" fill="#18181B"/>
<path d="M176.062 147.966C175.576 147.966 175.183 147.575 175.183 147.092C175.183 146.608 175.576 146.217 176.062 146.217C176.547 146.217 176.941 146.608 176.941 147.092C176.917 147.575 176.524 147.966 176.062 147.966Z" fill="#18181B"/>
<path d="M176.062 154.617C175.576 154.617 175.183 154.226 175.183 153.742C175.183 153.259 175.576 152.868 176.062 152.868C176.547 152.868 176.941 153.259 176.941 153.742C176.917 154.226 176.524 154.617 176.062 154.617Z" fill="#18181B"/>
<path d="M98.6403 80.6739C98.6403 82.446 100.259 84.9775 102.086 86.1051L122.736 98.6706V87.3018L100.698 73.8849C99.8659 73.3786 99.1953 73.2865 98.9409 73.4476C98.7559 73.5397 98.6403 73.8849 98.6403 74.3451V80.6739Z" fill="white"/>
<path d="M141.213 139.336C142.253 138.76 142.878 137.587 142.878 136.137V129.808C142.878 127.116 140.82 123.779 138.184 122.145L141.213 120.419C142.277 119.82 142.878 118.693 142.878 117.22V110.891C142.878 108.198 140.82 104.838 138.184 103.227L141.213 101.501C142.277 100.903 142.878 99.7753 142.878 98.3024V91.9506C142.878 89.258 140.797 85.875 138.16 84.264L110.018 67.1418C108.399 66.1523 106.78 65.9682 105.555 66.6586L101.276 69.098L97.669 71.1462C96.6284 71.7216 96.004 72.8953 96.004 74.3451V74.9205L87.5867 69.7194L88.5348 64.4953C88.6273 63.9429 88.3729 63.3906 87.8873 63.1145L80.5567 58.9029C80.2792 58.7419 79.9324 58.6728 79.6086 58.7649L71.1681 60.652C70.6362 60.7671 70.2431 61.1813 70.1506 61.7106L69.0406 67.8092C68.9481 68.3616 69.2025 68.9139 69.6881 69.1901L77.0187 73.4016C77.2268 73.5166 77.458 73.5857 77.6893 73.5857C77.7818 73.5857 77.8743 73.5857 77.9899 73.5627L85.8986 71.7906L95.9809 78.0273V80.6739C95.9809 80.835 95.9809 81.0191 96.004 81.1802C96.004 81.2953 96.0272 81.4103 96.0503 81.5484C96.0503 81.5945 96.0503 81.6635 96.0734 81.7095C96.5128 84.172 98.3628 86.9106 100.675 88.3375L99.704 88.8898L95.9347 86.5884C94.3159 85.5988 92.6972 85.4377 91.4716 86.1051C90.4079 86.7035 89.8066 87.8312 89.8066 89.304V95.6328C89.8066 98.3254 91.8878 101.708 94.5241 103.319L99.4265 106.334C99.8196 106.679 100.236 107.002 100.652 107.255L99.7502 107.761L89.7373 101.547C88.1185 100.558 86.4998 100.374 85.2742 101.064C84.2104 101.639 83.6092 102.813 83.6092 104.263V110.592C83.6092 113.284 85.6904 116.667 88.3266 118.278L99.0796 124.952C99.5653 125.436 100.12 125.85 100.675 126.195L119.799 137.84L123.129 139.911C123.337 140.049 123.569 140.164 123.777 140.256L128.818 143.317C129.789 143.916 130.76 144.215 131.639 144.215C132.217 144.215 132.772 144.077 133.258 143.8L133.397 143.708L141.213 139.336ZM86.3148 104.263C86.3148 103.803 86.4304 103.48 86.6154 103.365C86.8929 103.204 87.5404 103.296 88.3729 103.803L122.759 125.182V136.528L89.7604 116.023C87.9104 114.895 86.3148 112.364 86.3148 110.592V104.263ZM92.466 89.304C92.466 88.8438 92.5816 88.5216 92.7666 88.4065C93.0441 88.2454 93.6916 88.3375 94.5241 88.8438L122.736 106.173V117.542L95.9347 101.064C94.0847 99.9364 92.4891 97.4049 92.4891 95.6328L92.466 89.304ZM128.841 124.4C128.864 124.4 128.864 124.4 128.841 124.4C129.812 124.998 130.784 125.297 131.685 125.297C132.264 125.297 132.819 125.159 133.304 124.883C133.975 124.515 134.46 123.894 134.738 123.134L136.75 124.354C138.6 125.482 140.195 128.013 140.195 129.785V136.137C140.195 136.597 140.08 136.919 139.895 137.034C139.617 137.173 138.97 137.103 138.137 136.597L134.969 134.664V134.296C134.969 131.603 132.888 128.22 130.252 126.609L121.187 121.086L106.549 111.973V110.707L128.841 124.4ZM136.75 105.437C138.6 106.564 140.195 109.096 140.195 110.868V117.197C140.195 117.657 140.08 117.979 139.895 118.094C139.617 118.255 138.97 118.163 138.137 117.657L134.969 115.724V115.356C134.969 112.663 132.888 109.28 130.252 107.669L106.549 93.1013V91.9046L128.864 105.483C129.836 106.081 130.807 106.38 131.685 106.38C132.264 106.38 132.819 106.242 133.304 105.966C133.998 105.575 134.484 104.976 134.738 104.217L136.75 105.437ZM98.6403 79.6613L118.759 92.0887C118.99 92.2268 119.221 92.2958 119.453 92.2958C119.892 92.2958 120.331 92.0657 120.586 91.6744C120.979 91.0531 120.771 90.2476 120.146 89.8564L98.6171 76.5545V74.3221C98.6171 73.8618 98.7328 73.5397 98.9178 73.4246C99.1953 73.2635 99.8427 73.3555 100.675 73.8618L122.713 87.2558V98.6246L102.063 86.0591C100.213 84.9314 98.6171 82.3999 98.6171 80.6279L98.6403 79.6613ZM106.826 68.9369C107.104 68.7758 107.751 68.8679 108.584 69.3742L136.75 86.4964C138.6 87.624 140.195 90.1555 140.195 91.9276V98.2794C140.195 98.7397 140.08 99.0618 139.895 99.1769C139.617 99.338 138.97 99.246 138.137 98.7397L134.969 96.8065V96.4383C134.969 93.7457 132.888 90.3627 130.252 88.7517L106.549 74.3221V69.8345C106.549 69.3742 106.641 69.052 106.826 68.9369Z" fill="#18181B"/>
<path d="M94.524 88.8438C93.6916 88.3375 93.0209 88.2455 92.7666 88.4066C92.5816 88.5217 92.4659 88.8438 92.4659 89.3041V95.6329C92.4659 97.4049 94.0847 99.9364 95.9115 101.064L122.713 117.542V106.173L94.524 88.8438Z" fill="white"/>
<path d="M88.3498 103.803C87.5173 103.296 86.8698 103.227 86.5923 103.365C86.4073 103.481 86.2917 103.803 86.2917 104.263V110.592C86.2917 112.364 87.9104 114.895 89.7372 116.023L122.713 136.528V125.182L88.3498 103.803Z" fill="white"/>
<path d="M90.4541 112.732L118.782 129.969C118.99 130.107 119.244 130.153 119.476 130.153C119.915 130.153 120.354 129.923 120.609 129.509C120.979 128.888 120.794 128.059 120.169 127.691L91.8416 110.477C91.2172 110.108 90.3847 110.293 90.0147 110.914C89.6216 111.535 89.8297 112.341 90.4541 112.732Z" fill="#18181B"/>
<path d="M128.98 100.374C130.691 101.363 132.102 100.558 132.125 98.6017C132.125 96.4384 130.876 94.3901 129.026 93.1934C127.361 92.1118 125.904 93.0093 125.904 94.9655C125.881 97.1058 127.13 99.177 128.98 100.374Z" fill="white"/>
<path d="M125.234 113.238C125.234 115.379 126.482 117.45 128.332 118.647C130.044 119.636 131.454 118.831 131.477 116.875C131.477 114.711 130.229 112.663 128.379 111.466C126.691 110.362 125.234 111.259 125.234 113.238Z" fill="white"/>
<path d="M129.003 131.051C127.338 129.969 125.881 130.867 125.881 132.823C125.881 134.963 127.13 137.034 128.98 138.231C130.691 139.221 132.102 138.415 132.125 136.459C132.102 134.273 130.853 132.248 129.003 131.051Z" fill="white"/>
<path d="M96.189 95.4028C95.7959 96.0241 96.004 96.8296 96.6284 97.2208L118.782 110.914C119.013 111.052 119.244 111.121 119.476 111.121C119.915 111.121 120.354 110.891 120.609 110.5C121.002 109.878 120.794 109.073 120.169 108.682L98.0159 94.9885C97.3915 94.5973 96.559 94.7814 96.189 95.4028Z" fill="#18181B"/>
<path d="M195.995 99.131V113.446C216.484 111.305 227.214 106.403 227.214 102.583V90.3628C221.733 94.9425 208.668 97.8192 195.995 99.131Z" fill="white"/>
<path d="M177.38 72.5732V86.9107C206.818 86.7266 227.214 80.5819 227.214 75.0356V62.8384C219.837 69.0751 198.238 72.4351 177.38 72.5732Z" fill="white"/>
<path d="M229.873 75.0356V58.0515C229.873 50.6641 212.923 45.9463 193.058 44.2433V39.0652C193.058 38.3288 192.457 37.7304 191.717 37.7304C190.977 37.7304 190.376 38.3288 190.376 39.0652V44.0362C186.098 43.737 181.727 43.5529 177.38 43.5299V33.3348C177.38 32.5984 176.779 32 176.039 32C175.299 32 174.697 32.5984 174.697 33.3348V43.5529C170.35 43.5759 165.956 43.76 161.678 44.0592V39.0652C161.678 38.3288 161.077 37.7304 160.337 37.7304C159.597 37.7304 158.996 38.3288 158.996 39.0652V44.2433C139.132 45.9463 122.181 50.6641 122.181 58.0515V71.4685L139.478 81.9858C141.375 83.1364 142.97 84.8855 144.057 86.8416C153.492 88.6367 164.893 89.5573 176.016 89.5573C194.932 89.5573 214.726 86.8877 224.161 81.8016C226.127 83.0444 227.167 84.3332 227.167 85.5759C227.167 85.6449 227.167 85.714 227.167 85.806C227.167 85.8521 227.167 85.8981 227.144 85.9211C227.144 85.9441 227.144 85.9441 227.144 85.9671C226.427 89.8334 215.258 94.5973 194.515 96.5764C194.423 96.5764 194.33 96.5995 194.261 96.6225C188.688 97.1518 182.583 97.4279 176.039 97.4279C164.222 97.4279 153.816 96.4614 145.514 94.9655V98.2795C145.514 100.627 144.473 102.606 142.67 103.688C144.404 105.805 145.514 108.452 145.514 110.868V114.665C154.648 116.276 165.494 117.105 176.039 117.105C182.329 117.105 188.688 116.805 194.747 116.23H194.77C195.371 116.184 195.972 116.115 196.597 116.046C196.62 116.046 196.643 116.046 196.689 116.046C196.943 116.023 197.198 116 197.475 115.954C208.575 114.711 218.357 112.502 224.207 109.349C226.173 110.592 227.214 111.881 227.214 113.123C227.214 113.192 227.214 113.261 227.214 113.33C226.936 115.816 221.756 119.567 207.835 122.283C207.743 122.306 207.65 122.329 207.581 122.375C199.14 123.986 188.364 125.021 176.085 125.021C163.204 125.021 152.012 123.871 143.387 122.145C143.178 122.329 142.947 122.49 142.693 122.628C144.45 124.745 145.537 127.392 145.537 129.808V136.137C145.537 138.438 144.543 140.395 142.762 141.499C142.693 141.545 142.623 141.591 142.531 141.637C152.266 143.639 164.314 144.652 176.062 144.652C199.88 144.652 225.04 140.418 229.272 132.501C229.295 132.478 229.295 132.455 229.318 132.409C229.364 132.34 229.387 132.271 229.434 132.179C229.48 132.087 229.526 131.972 229.549 131.879C229.572 131.833 229.596 131.787 229.596 131.741C229.619 131.672 229.642 131.58 229.665 131.511C229.688 131.465 229.688 131.419 229.711 131.373C229.734 131.258 229.781 131.143 229.804 131.005C229.804 130.982 229.804 130.959 229.804 130.936C229.827 130.821 229.827 130.729 229.85 130.614C229.85 130.591 229.85 130.545 229.85 130.499C229.85 130.361 229.873 130.245 229.873 130.107V113.123C229.873 111.167 228.694 109.418 226.589 107.853C228.139 106.702 229.179 105.437 229.642 104.056C229.665 104.01 229.665 103.987 229.688 103.941C229.711 103.872 229.734 103.803 229.734 103.734C229.734 103.665 229.757 103.596 229.781 103.527C229.781 103.481 229.804 103.412 229.804 103.342C229.827 103.25 229.827 103.181 229.85 103.089C229.85 103.043 229.85 102.997 229.873 102.951C229.873 102.813 229.896 102.698 229.896 102.56V85.5759C229.896 83.6197 228.717 81.8707 226.612 80.3058C228.694 78.7408 229.873 76.9918 229.873 75.0356ZM190.399 54.9907C187.162 53.4718 181.635 52.8964 177.403 52.8044V46.1764C181.982 46.1995 186.329 46.3836 190.399 46.6597V54.9907ZM174.721 52.8044C170.489 52.8964 164.939 53.4718 161.701 54.9907V46.6597C165.794 46.3605 170.142 46.1995 174.721 46.1764V52.8044ZM159.042 58.0515C159.042 62.217 169.726 63.3216 176.039 63.3216C182.352 63.3216 193.035 62.217 193.035 58.0515V46.8899C213.778 48.6849 227.191 53.5869 227.191 58.0745C227.191 63.6899 206.193 69.9496 176.039 69.9496C145.884 69.9496 124.887 63.6899 124.887 58.0745C124.887 53.5869 138.276 48.6849 159.042 46.8899V58.0515ZM177.38 72.5732C198.238 72.4351 219.814 69.0751 227.214 62.8384V75.0356C227.214 80.5819 206.818 86.7266 177.38 86.9107V72.5732ZM227.214 102.583C227.214 106.426 216.507 111.328 195.995 113.445V99.131C208.668 97.8192 221.733 94.9425 227.214 90.3627V102.583ZM227.214 130.13C227.214 132.524 222.519 136.206 209.408 138.945V124.653C215.189 123.456 223.144 121.316 227.214 117.887V130.13Z" fill="#18181B"/>
<path d="M209.408 124.676V138.968C222.519 136.206 227.214 132.524 227.214 130.13V117.91C223.121 121.316 215.189 123.479 209.408 124.676Z" fill="white"/>
<path d="M219.467 77.429C221.317 76.2323 222.589 74.138 222.589 71.9747C222.589 69.9956 221.132 69.098 219.444 70.1797C217.571 71.3994 216.299 73.4476 216.299 75.6339C216.322 77.6361 217.733 78.4416 219.467 77.429Z" fill="#18181B"/>
<path d="M222.589 99.5221C222.589 97.5429 221.132 96.6454 219.444 97.727C217.571 98.9468 216.299 100.995 216.299 103.181C216.322 105.16 217.733 105.966 219.467 104.976C221.34 103.78 222.589 101.685 222.589 99.5221Z" fill="#18181B"/>
<path d="M219.444 125.275C217.571 126.494 216.299 128.543 216.299 130.729C216.322 132.708 217.733 133.514 219.467 132.524C221.317 131.327 222.589 129.233 222.589 127.07C222.589 125.091 221.109 124.193 219.444 125.275Z" fill="#18181B"/>
<path d="M78.1517 54.0701C78.2442 54.0701 78.3367 54.0701 78.4524 54.047L88.6041 51.7687C89.136 51.6536 89.5291 51.2394 89.6216 50.7101L90.9628 43.3917C91.0553 42.8394 90.801 42.287 90.3153 42.0109L81.5048 36.9479C81.2273 36.7868 80.8805 36.7177 80.5567 36.8098L70.405 39.0651C69.8731 39.1802 69.48 39.5944 69.3875 40.1238L68.0231 47.4421C67.9306 47.9944 68.185 48.5468 68.6706 48.8229L77.4811 53.886C77.6892 54.001 77.9205 54.0701 78.1517 54.0701ZM71.8156 41.4586L80.603 39.5024L88.1647 43.852L87.1473 49.3983L78.3599 51.3544L70.8212 47.0049L71.8156 41.4586Z" fill="#18181B"/>
<path d="M92.651 60.491L97.669 63.3677C97.8772 63.4828 98.1084 63.5518 98.3396 63.5518C98.4321 63.5518 98.5246 63.5518 98.6403 63.5288L104.421 62.2401C104.953 62.125 105.346 61.7107 105.439 61.1814L106.202 57.0159C106.295 56.4636 106.04 55.9113 105.555 55.6351L100.536 52.7584C100.259 52.5973 99.9121 52.5283 99.5884 52.6203L93.8072 53.9091C93.2753 54.0242 92.8822 54.4384 92.7897 54.9677L92.0266 59.1332C91.8879 59.6625 92.1422 60.2149 92.651 60.491ZM95.2178 56.2795L99.6346 55.2899L103.381 57.4532L102.941 59.8466L98.5246 60.8362L94.7784 58.6729L95.2178 56.2795Z" fill="#18181B"/>
<path d="M174.721 52.8044V54.1392V55.474V60.6521V61.9869C175.16 61.9869 175.599 62.0099 176.062 62.0099C176.524 62.0099 176.941 61.9869 177.403 61.9869V60.6521V55.474V54.1622V52.8274C176.941 52.8044 176.501 52.8044 176.062 52.8044C175.622 52.7814 175.183 52.8044 174.721 52.8044Z" fill="white"/>
</g>
<defs>
<clipPath id="clip0_1757_23032">
<rect width="201" height="126" fill="white" transform="translate(68 32)"/>
</clipPath>
</defs>
</svg>
