<svg width="336" height="190" viewBox="0 0 336 190" fill="none" xmlns="http://www.w3.org/2000/svg">
<path d="M0 4.00001C0 1.79087 1.79086 0 4 0H332C334.209 0 336 1.79086 336 4V186C336 188.209 334.209 190 332 190H4C1.79087 190 0 188.209 0 186V4.00001Z" fill="#E4E4E7"/>
<g clip-path="url(#clip0_681_15560)">
<path d="M93.2228 124.921C92.7689 124.921 92.4033 125.287 92.4033 125.741C92.4033 126.194 92.7689 126.56 93.2228 126.56C93.6766 126.56 94.0422 126.194 94.0422 125.741C94.0422 125.287 93.6766 124.921 93.2228 124.921Z" fill="#18181B"/>
<path d="M95.2777 121.794C94.8238 121.794 94.4583 122.16 94.4583 122.614C94.4583 123.067 94.8238 123.433 95.2777 123.433C95.7315 123.433 96.0971 123.067 96.0971 122.614C96.0971 122.16 95.7315 121.794 95.2777 121.794Z" fill="#18181B"/>
<path d="M99.3878 121.794C98.934 121.794 98.5684 122.16 98.5684 122.614C98.5684 123.067 98.934 123.433 99.3878 123.433C99.8416 123.433 100.207 123.067 100.207 122.614C100.207 122.16 99.8416 121.794 99.3878 121.794Z" fill="#18181B"/>
<path d="M103.497 121.794C103.043 121.794 102.678 122.16 102.678 122.614C102.678 123.067 103.043 123.433 103.497 123.433C103.951 123.433 104.317 123.067 104.317 122.614C104.317 122.16 103.951 121.794 103.497 121.794Z" fill="#18181B"/>
<path d="M83.087 121.794C82.6332 121.794 82.2676 122.16 82.2676 122.614C82.2676 123.067 82.6332 123.433 83.087 123.433C83.5409 123.433 83.9065 123.067 83.9065 122.614C83.9065 122.16 83.5409 121.794 83.087 121.794Z" fill="#18181B"/>
<path d="M87.1964 121.794C86.7425 121.794 86.377 122.16 86.377 122.614C86.377 123.067 86.7425 123.433 87.1964 123.433C87.6502 123.433 88.0158 123.067 88.0158 122.614C88.0158 122.16 87.6502 121.794 87.1964 121.794Z" fill="#18181B"/>
<path d="M91.3065 121.794C90.8527 121.794 90.4871 122.16 90.4871 122.614C90.4871 123.067 90.8527 123.433 91.3065 123.433C91.7603 123.433 92.1259 123.067 92.1259 122.614C92.1259 122.16 91.7603 121.794 91.3065 121.794Z" fill="#18181B"/>
<path d="M93.2989 118.224C92.8451 118.224 92.4795 118.589 92.4795 119.043C92.4795 119.497 92.8451 119.863 93.2989 119.863C93.7528 119.863 94.1184 119.497 94.1184 119.043C94.1184 118.589 93.7528 118.224 93.2989 118.224Z" fill="#18181B"/>
<path d="M85.2179 118.224C84.764 118.224 84.3984 118.589 84.3984 119.043C84.3984 119.497 84.764 119.863 85.2179 119.863C85.6717 119.863 86.0373 119.497 86.0373 119.043C86.0373 118.589 85.6717 118.224 85.2179 118.224Z" fill="#18181B"/>
<path d="M89.3272 118.224C88.8734 118.224 88.5078 118.589 88.5078 119.043C88.5078 119.497 88.8734 119.863 89.3272 119.863C89.7811 119.863 90.1467 119.497 90.1467 119.043C90.1467 118.589 89.7811 118.224 89.3272 118.224Z" fill="#18181B"/>
<path d="M91.3065 114.457C90.8527 114.457 90.4871 114.822 90.4871 115.276C90.4871 115.73 90.8527 116.096 91.3065 116.096C91.7603 116.096 92.1259 115.73 92.1259 115.276C92.1259 114.822 91.7603 114.457 91.3065 114.457Z" fill="#18181B"/>
<path d="M87.3351 114.457C86.8812 114.457 86.5156 114.822 86.5156 115.276C86.5156 115.73 86.8812 116.096 87.3351 116.096C87.7889 116.096 88.1545 115.73 88.1545 115.276C88.1545 114.822 87.7889 114.457 87.3351 114.457Z" fill="#18181B"/>
<path d="M97.3324 124.921C96.8785 124.921 96.5129 125.287 96.5129 125.741C96.5129 126.194 96.8785 126.56 97.3324 126.56C97.7862 126.56 98.1518 126.194 98.1518 125.741C98.1518 125.287 97.7862 124.921 97.3324 124.921Z" fill="#18181B"/>
<path d="M97.3324 118.224C96.8785 118.224 96.5129 118.589 96.5129 119.043C96.5129 119.497 96.8785 119.863 97.3324 119.863C97.7862 119.863 98.1518 119.497 98.1518 119.043C98.1518 118.589 97.7862 118.224 97.3324 118.224Z" fill="#18181B"/>
<path d="M101.442 124.921C100.989 124.921 100.623 125.287 100.623 125.741C100.623 126.194 100.989 126.56 101.442 126.56C101.896 126.56 102.262 126.194 102.262 125.741C102.262 125.287 101.896 124.921 101.442 124.921Z" fill="#18181B"/>
<path d="M105.552 124.921C105.098 124.921 104.732 125.287 104.732 125.741C104.732 126.194 105.098 126.56 105.552 126.56C106.006 126.56 106.371 126.194 106.371 125.741C106.371 125.287 106.006 124.921 105.552 124.921Z" fill="#18181B"/>
<path d="M85.2813 124.921C84.8275 124.921 84.4619 125.287 84.4619 125.741C84.4619 126.194 84.8275 126.56 85.2813 126.56C85.7352 126.56 86.1008 126.194 86.1008 125.741C86.1008 125.287 85.7352 124.921 85.2813 124.921Z" fill="#18181B"/>
<path d="M89.4027 124.921C88.9488 124.921 88.5833 125.287 88.5833 125.741C88.5833 126.194 88.9488 126.56 89.4027 126.56C89.8565 126.56 90.2221 126.194 90.2221 125.741C90.2221 125.287 89.8565 124.921 89.4027 124.921Z" fill="#18181B"/>
<path d="M109.662 124.921C109.208 124.921 108.843 125.287 108.843 125.741C108.843 126.194 109.208 126.56 109.662 126.56C110.116 126.56 110.481 126.194 110.481 125.741C110.481 125.287 110.116 124.921 109.662 124.921Z" fill="#18181B"/>
<path d="M95.2777 129.687C95.7315 129.687 96.0971 129.322 96.0971 128.868C96.0971 128.414 95.7315 128.048 95.2777 128.048C94.8238 128.048 94.4583 128.414 94.4583 128.868C94.4583 129.322 94.8238 129.687 95.2777 129.687Z" fill="#18181B"/>
<path d="M99.3878 128.048C98.934 128.048 98.5684 128.414 98.5684 128.868C98.5684 129.322 98.934 129.687 99.3878 129.687C99.8416 129.687 100.207 129.322 100.207 128.868C100.207 128.414 99.8416 128.048 99.3878 128.048Z" fill="#18181B"/>
<path d="M103.497 128.048C103.043 128.048 102.678 128.414 102.678 128.868C102.678 129.322 103.043 129.687 103.497 129.687C103.951 129.687 104.317 129.322 104.317 128.868C104.317 128.414 103.951 128.048 103.497 128.048Z" fill="#18181B"/>
<path d="M91.0418 128.048C90.588 128.048 90.2224 128.414 90.2224 128.868C90.2224 129.322 90.588 129.687 91.0418 129.687C91.4957 129.687 91.8613 129.322 91.8613 128.868C91.8613 128.414 91.4957 128.048 91.0418 128.048Z" fill="#18181B"/>
<path d="M93.0968 131.175C92.6429 131.175 92.2773 131.541 92.2773 131.995C92.2773 132.449 92.6429 132.814 93.0968 132.814C93.5506 132.814 93.9162 132.449 93.9162 131.995C93.9162 131.541 93.5506 131.175 93.0968 131.175Z" fill="#18181B"/>
<path d="M107.607 128.048C107.153 128.048 106.788 128.414 106.788 128.868C106.788 129.322 107.153 129.687 107.607 129.687C108.061 129.687 108.427 129.322 108.427 128.868C108.427 128.414 108.061 128.048 107.607 128.048Z" fill="#18181B"/>
<path d="M111.717 128.048C111.263 128.048 110.897 128.414 110.897 128.868C110.897 129.322 111.263 129.687 111.717 129.687C112.171 129.687 112.536 129.322 112.536 128.868C112.536 128.414 112.171 128.048 111.717 128.048Z" fill="#18181B"/>
<path d="M115.827 128.048C115.373 128.048 115.008 128.414 115.008 128.868C115.008 129.322 115.373 129.687 115.827 129.687C116.281 129.687 116.647 129.322 116.647 128.868C116.647 128.414 116.281 128.048 115.827 128.048Z" fill="#18181B"/>
<path d="M97.3324 131.175C96.8785 131.175 96.5129 131.541 96.5129 131.995C96.5129 132.449 96.8785 132.814 97.3324 132.814C97.7862 132.814 98.1518 132.449 98.1518 131.995C98.1518 131.541 97.7862 131.175 97.3324 131.175Z" fill="#18181B"/>
<path d="M101.442 131.175C100.989 131.175 100.623 131.541 100.623 131.995C100.623 132.449 100.989 132.814 101.442 132.814C101.896 132.814 102.262 132.449 102.262 131.995C102.262 131.541 101.896 131.175 101.442 131.175Z" fill="#18181B"/>
<path d="M105.552 131.175C105.098 131.175 104.732 131.541 104.732 131.995C104.732 132.449 105.098 132.814 105.552 132.814C106.006 132.814 106.371 132.449 106.371 131.995C106.371 131.541 106.006 131.175 105.552 131.175Z" fill="#18181B"/>
<path d="M109.662 131.175C109.208 131.175 108.843 131.541 108.843 131.995C108.843 132.449 109.208 132.814 109.662 132.814C110.116 132.814 110.481 132.449 110.481 131.995C110.481 131.541 110.116 131.175 109.662 131.175Z" fill="#18181B"/>
<path d="M113.772 131.175C113.318 131.175 112.952 131.541 112.952 131.995C112.952 132.449 113.318 132.814 113.772 132.814C114.225 132.814 114.591 132.449 114.591 131.995C114.591 131.541 114.225 131.175 113.772 131.175Z" fill="#18181B"/>
<path d="M117.882 131.175C117.428 131.175 117.062 131.541 117.062 131.995C117.062 132.449 117.428 132.814 117.882 132.814C118.336 132.814 118.701 132.449 118.701 131.995C118.701 131.541 118.336 131.175 117.882 131.175Z" fill="#18181B"/>
<path d="M121.991 131.175C121.537 131.175 121.172 131.541 121.172 131.995C121.172 132.449 121.537 132.814 121.991 132.814C122.445 132.814 122.811 132.449 122.811 131.995C122.811 131.541 122.445 131.175 121.991 131.175Z" fill="#18181B"/>
<path d="M99.3878 134.297C98.934 134.297 98.5684 134.663 98.5684 135.117C98.5684 135.571 98.934 135.936 99.3878 135.936C99.8416 135.936 100.207 135.571 100.207 135.117C100.207 134.663 99.8416 134.297 99.3878 134.297Z" fill="#18181B"/>
<path d="M103.497 134.297C103.043 134.297 102.678 134.663 102.678 135.117C102.678 135.571 103.043 135.936 103.497 135.936C103.951 135.936 104.317 135.571 104.317 135.117C104.317 134.663 103.951 134.297 103.497 134.297Z" fill="#18181B"/>
<path d="M107.607 134.297C107.153 134.297 106.788 134.663 106.788 135.117C106.788 135.571 107.153 135.936 107.607 135.936C108.061 135.936 108.427 135.571 108.427 135.117C108.427 134.663 108.061 134.297 107.607 134.297Z" fill="#18181B"/>
<path d="M111.717 134.297C111.263 134.297 110.897 134.663 110.897 135.117C110.897 135.571 111.263 135.936 111.717 135.936C112.171 135.936 112.536 135.571 112.536 135.117C112.536 134.663 112.171 134.297 111.717 134.297Z" fill="#18181B"/>
<path d="M115.827 134.297C115.373 134.297 115.008 134.663 115.008 135.117C115.008 135.571 115.373 135.936 115.827 135.936C116.281 135.936 116.647 135.571 116.647 135.117C116.647 134.663 116.281 134.297 115.827 134.297Z" fill="#18181B"/>
<path d="M119.936 134.297C119.483 134.297 119.117 134.663 119.117 135.117C119.117 135.571 119.483 135.936 119.936 135.936C120.39 135.936 120.756 135.571 120.756 135.117C120.756 134.663 120.39 134.297 119.936 134.297Z" fill="#18181B"/>
<path d="M124.047 134.297C123.593 134.297 123.228 134.663 123.228 135.117C123.228 135.571 123.593 135.936 124.047 135.936C124.501 135.936 124.866 135.571 124.866 135.117C124.866 134.663 124.501 134.297 124.047 134.297Z" fill="#18181B"/>
<path d="M128.156 134.297C127.703 134.297 127.337 134.663 127.337 135.117C127.337 135.571 127.703 135.936 128.156 135.936C128.61 135.936 128.976 135.571 128.976 135.117C128.976 134.663 128.61 134.297 128.156 134.297Z" fill="#18181B"/>
<path d="M105.552 139.063C106.006 139.063 106.371 138.698 106.371 138.244C106.371 137.79 106.006 137.424 105.552 137.424C105.098 137.424 104.732 137.79 104.732 138.244C104.732 138.698 105.098 139.063 105.552 139.063Z" fill="#18181B"/>
<path d="M109.662 137.424C109.208 137.424 108.843 137.79 108.843 138.244C108.843 138.698 109.208 139.063 109.662 139.063C110.116 139.063 110.481 138.698 110.481 138.244C110.481 137.79 110.116 137.424 109.662 137.424Z" fill="#18181B"/>
<path d="M113.772 137.424C113.318 137.424 112.952 137.79 112.952 138.244C112.952 138.698 113.318 139.063 113.772 139.063C114.225 139.063 114.591 138.698 114.591 138.244C114.591 137.79 114.225 137.424 113.772 137.424Z" fill="#18181B"/>
<path d="M117.882 137.424C117.428 137.424 117.062 137.79 117.062 138.244C117.062 138.698 117.428 139.063 117.882 139.063C118.336 139.063 118.701 138.698 118.701 138.244C118.701 137.79 118.336 137.424 117.882 137.424Z" fill="#18181B"/>
<path d="M121.991 137.424C121.537 137.424 121.172 137.79 121.172 138.244C121.172 138.698 121.537 139.063 121.991 139.063C122.445 139.063 122.811 138.698 122.811 138.244C122.811 137.79 122.445 137.424 121.991 137.424Z" fill="#18181B"/>
<path d="M126.102 139.063C126.556 139.063 126.921 138.698 126.921 138.244C126.921 137.79 126.556 137.424 126.102 137.424C125.648 137.424 125.282 137.79 125.282 138.244C125.282 138.698 125.648 139.063 126.102 139.063Z" fill="#18181B"/>
<path d="M130.211 137.424C129.757 137.424 129.392 137.79 129.392 138.244C129.392 138.698 129.757 139.063 130.211 139.063C130.665 139.063 131.03 138.698 131.03 138.244C131.03 137.79 130.665 137.424 130.211 137.424Z" fill="#18181B"/>
<path d="M111.717 140.552C111.263 140.552 110.897 140.917 110.897 141.371C110.897 141.825 111.263 142.19 111.717 142.19C112.171 142.19 112.536 141.825 112.536 141.371C112.536 140.917 112.171 140.552 111.717 140.552Z" fill="#18181B"/>
<path d="M115.827 140.552C115.373 140.552 115.008 140.917 115.008 141.371C115.008 141.825 115.373 142.19 115.827 142.19C116.281 142.19 116.647 141.825 116.647 141.371C116.647 140.917 116.281 140.552 115.827 140.552Z" fill="#18181B"/>
<path d="M119.936 140.552C119.483 140.552 119.117 140.917 119.117 141.371C119.117 141.825 119.483 142.19 119.936 142.19C120.39 142.19 120.756 141.825 120.756 141.371C120.756 140.917 120.39 140.552 119.936 140.552Z" fill="#18181B"/>
<path d="M124.047 140.552C123.593 140.552 123.228 140.917 123.228 141.371C123.228 141.825 123.593 142.19 124.047 142.19C124.501 142.19 124.866 141.825 124.866 141.371C124.866 140.917 124.501 140.552 124.047 140.552Z" fill="#18181B"/>
<path d="M128.156 140.552C127.703 140.552 127.337 140.917 127.337 141.371C127.337 141.825 127.703 142.19 128.156 142.19C128.61 142.19 128.976 141.825 128.976 141.371C128.976 140.917 128.61 140.552 128.156 140.552Z" fill="#18181B"/>
<path d="M132.266 140.552C131.812 140.552 131.434 140.917 131.434 141.371C131.434 141.825 131.799 142.19 132.266 142.19C132.732 142.19 133.085 141.825 133.085 141.371C133.085 140.917 132.72 140.552 132.266 140.552Z" fill="#18181B"/>
<path d="M136.376 140.552C135.922 140.552 135.557 140.917 135.557 141.371C135.557 141.825 135.922 142.19 136.376 142.19C136.83 142.19 137.208 141.825 137.208 141.371C137.208 140.917 136.843 140.552 136.376 140.552Z" fill="#18181B"/>
<path d="M113.772 143.678C113.318 143.678 112.952 144.044 112.952 144.498C112.952 144.952 113.318 145.317 113.772 145.317C114.225 145.317 114.591 144.952 114.591 144.498C114.591 144.044 114.225 143.678 113.772 143.678Z" fill="#18181B"/>
<path d="M117.882 143.678C117.428 143.678 117.062 144.044 117.062 144.498C117.062 144.952 117.428 145.317 117.882 145.317C118.336 145.317 118.701 144.952 118.701 144.498C118.701 144.044 118.336 143.678 117.882 143.678Z" fill="#18181B"/>
<path d="M121.991 143.678C121.537 143.678 121.172 144.044 121.172 144.498C121.172 144.952 121.537 145.317 121.991 145.317C122.445 145.317 122.811 144.952 122.811 144.498C122.811 144.044 122.445 143.678 121.991 143.678Z" fill="#18181B"/>
<path d="M126.102 143.678C125.648 143.678 125.282 144.044 125.282 144.498C125.282 144.952 125.648 145.317 126.102 145.317C126.556 145.317 126.921 144.952 126.921 144.498C126.921 144.044 126.556 143.678 126.102 143.678Z" fill="#18181B"/>
<path d="M130.211 143.678C129.757 143.678 129.392 144.044 129.392 144.498C129.392 144.952 129.757 145.317 130.211 145.317C130.665 145.317 131.03 144.952 131.03 144.498C131.03 144.044 130.665 143.678 130.211 143.678Z" fill="#18181B"/>
<path d="M134.32 143.678C133.867 143.678 133.501 144.044 133.501 144.498C133.501 144.952 133.867 145.317 134.32 145.317C134.774 145.317 135.14 144.952 135.14 144.498C135.14 144.044 134.774 143.678 134.32 143.678Z" fill="#18181B"/>
<path d="M138.431 143.678C137.977 143.678 137.611 144.044 137.611 144.498C137.611 144.952 137.977 145.317 138.431 145.317C138.885 145.317 139.25 144.952 139.25 144.498C139.25 144.044 138.885 143.678 138.431 143.678Z" fill="#18181B"/>
<path d="M142.54 143.678C142.086 143.678 141.721 144.044 141.721 144.498C141.721 144.952 142.086 145.317 142.54 145.317C142.994 145.317 143.36 144.952 143.36 144.498C143.36 144.044 142.994 143.678 142.54 143.678Z" fill="#18181B"/>
<path d="M119.936 146.791C119.483 146.791 119.117 147.156 119.117 147.623C119.117 148.089 119.483 148.442 119.936 148.442C120.39 148.442 120.756 148.077 120.756 147.623C120.756 147.169 120.39 146.791 119.936 146.791Z" fill="#18181B"/>
<path d="M124.047 146.791C123.593 146.791 123.228 147.156 123.228 147.623C123.228 148.089 123.593 148.442 124.047 148.442C124.501 148.442 124.866 148.077 124.866 147.623C124.866 147.169 124.501 146.791 124.047 146.791Z" fill="#18181B"/>
<path d="M128.156 146.791C127.703 146.791 127.337 147.156 127.337 147.623C127.337 148.089 127.703 148.442 128.156 148.442C128.61 148.442 128.976 148.077 128.976 147.623C128.976 147.169 128.61 146.791 128.156 146.791Z" fill="#18181B"/>
<path d="M132.266 146.791C131.812 146.791 131.434 147.156 131.434 147.623C131.434 148.089 131.799 148.442 132.266 148.442C132.732 148.442 133.085 148.077 133.085 147.623C133.085 147.169 132.72 146.791 132.266 146.791Z" fill="#18181B"/>
<path d="M136.376 146.791C135.922 146.791 135.557 147.156 135.557 147.623C135.557 148.089 135.922 148.442 136.376 148.442C136.83 148.442 137.208 148.077 137.208 147.623C137.208 147.169 136.843 146.791 136.376 146.791Z" fill="#18181B"/>
<path d="M140.485 146.791C140.032 146.791 139.653 147.156 139.653 147.623C139.653 148.089 140.019 148.442 140.485 148.442C140.952 148.442 141.305 148.077 141.305 147.623C141.305 147.169 140.939 146.791 140.485 146.791Z" fill="#18181B"/>
<path d="M144.595 146.791C144.141 146.791 143.775 147.156 143.775 147.623C143.775 148.089 144.141 148.442 144.595 148.442C145.049 148.442 145.427 148.077 145.427 147.623C145.427 147.169 145.049 146.791 144.595 146.791Z" fill="#18181B"/>
<path d="M148.692 146.791C148.239 146.791 147.873 147.156 147.873 147.623C147.873 148.089 148.239 148.442 148.692 148.442C149.146 148.442 149.525 148.077 149.525 147.623C149.525 147.169 149.146 146.791 148.692 146.791Z" fill="#18181B"/>
<path d="M177.461 146.791C177.007 146.791 176.642 147.156 176.642 147.623C176.642 148.089 177.007 148.442 177.461 148.442C177.915 148.442 178.28 148.077 178.28 147.623C178.28 147.169 177.915 146.791 177.461 146.791Z" fill="#18181B"/>
<path d="M177.461 140.601C177.007 140.601 176.642 140.966 176.642 141.433C176.642 141.899 177.007 142.252 177.461 142.252C177.915 142.252 178.28 141.887 178.28 141.433C178.28 140.979 177.915 140.601 177.461 140.601Z" fill="#18181B"/>
<path d="M173.363 146.791C172.91 146.791 172.544 147.156 172.544 147.623C172.544 148.089 172.91 148.442 173.363 148.442C173.817 148.442 174.183 148.077 174.183 147.623C174.183 147.169 173.817 146.791 173.363 146.791Z" fill="#18181B"/>
<path d="M181.57 146.791C181.117 146.791 180.751 147.156 180.751 147.623C180.751 148.089 181.117 148.442 181.57 148.442C182.024 148.442 182.39 148.077 182.39 147.623C182.39 147.169 182.024 146.791 181.57 146.791Z" fill="#18181B"/>
<path d="M126.102 149.933C125.648 149.933 125.282 150.298 125.282 150.752C125.282 151.206 125.648 151.571 126.102 151.571C126.556 151.571 126.921 151.206 126.921 150.752C126.921 150.298 126.556 149.933 126.102 149.933Z" fill="#18181B"/>
<path d="M130.211 149.933C129.757 149.933 129.392 150.298 129.392 150.752C129.392 151.206 129.757 151.571 130.211 151.571C130.665 151.571 131.03 151.206 131.03 150.752C131.03 150.298 130.665 149.933 130.211 149.933Z" fill="#18181B"/>
<path d="M134.32 149.933C133.867 149.933 133.501 150.298 133.501 150.752C133.501 151.206 133.867 151.571 134.32 151.571C134.774 151.571 135.14 151.206 135.14 150.752C135.14 150.298 134.774 149.933 134.32 149.933Z" fill="#18181B"/>
<path d="M138.431 149.933C137.977 149.933 137.611 150.298 137.611 150.752C137.611 151.206 137.977 151.571 138.431 151.571C138.885 151.571 139.25 151.206 139.25 150.752C139.25 150.298 138.885 149.933 138.431 149.933Z" fill="#18181B"/>
<path d="M142.54 149.933C142.086 149.933 141.721 150.298 141.721 150.752C141.721 151.206 142.086 151.571 142.54 151.571C142.994 151.571 143.36 151.206 143.36 150.752C143.36 150.298 142.994 149.933 142.54 149.933Z" fill="#18181B"/>
<path d="M146.65 149.933C146.196 149.933 145.83 150.298 145.83 150.752C145.83 151.206 146.196 151.571 146.65 151.571C147.103 151.571 147.469 151.206 147.469 150.752C147.469 150.298 147.103 149.933 146.65 149.933Z" fill="#18181B"/>
<path d="M150.76 149.933C150.306 149.933 149.941 150.298 149.941 150.752C149.941 151.206 150.306 151.571 150.76 151.571C151.214 151.571 151.58 151.206 151.58 150.752C151.58 150.298 151.214 149.933 150.76 149.933Z" fill="#18181B"/>
<path d="M171.309 149.933C170.855 149.933 170.489 150.298 170.489 150.752C170.489 151.206 170.855 151.571 171.309 151.571C171.763 151.571 172.128 151.206 172.128 150.752C172.128 150.298 171.75 149.933 171.309 149.933Z" fill="#18181B"/>
<path d="M167.199 149.933C166.745 149.933 166.38 150.298 166.38 150.752C166.38 151.206 166.745 151.571 167.199 151.571C167.653 151.571 168.019 151.206 168.019 150.752C168.019 150.298 167.641 149.933 167.199 149.933Z" fill="#18181B"/>
<path d="M175.406 149.933C174.953 149.933 174.587 150.298 174.587 150.752C174.587 151.206 174.953 151.571 175.406 151.571C175.86 151.571 176.226 151.206 176.226 150.752C176.226 150.298 175.86 149.933 175.406 149.933Z" fill="#18181B"/>
<path d="M132.266 153.06C131.812 153.06 131.434 153.425 131.434 153.879C131.434 154.333 131.799 154.698 132.266 154.698C132.732 154.698 133.085 154.333 133.085 153.879C133.085 153.425 132.72 153.06 132.266 153.06Z" fill="#18181B"/>
<path d="M136.376 153.06C135.922 153.06 135.557 153.425 135.557 153.879C135.557 154.333 135.922 154.698 136.376 154.698C136.83 154.698 137.208 154.333 137.208 153.879C137.208 153.425 136.843 153.06 136.376 153.06Z" fill="#18181B"/>
<path d="M140.485 153.06C140.032 153.06 139.653 153.425 139.653 153.879C139.653 154.333 140.019 154.698 140.485 154.698C140.952 154.698 141.305 154.333 141.305 153.879C141.305 153.425 140.939 153.06 140.485 153.06Z" fill="#18181B"/>
<path d="M144.595 153.06C144.141 153.06 143.775 153.425 143.775 153.879C143.775 154.333 144.141 154.698 144.595 154.698C145.049 154.698 145.427 154.333 145.427 153.879C145.427 153.425 145.049 153.06 144.595 153.06Z" fill="#18181B"/>
<path d="M148.705 153.06C148.251 153.06 147.886 153.425 147.886 153.879C147.886 154.333 148.251 154.698 148.705 154.698C149.159 154.698 149.525 154.333 149.525 153.879C149.525 153.425 149.159 153.06 148.705 153.06Z" fill="#18181B"/>
<path d="M152.815 153.06C152.361 153.06 151.995 153.425 151.995 153.879C151.995 154.333 152.361 154.698 152.815 154.698C153.268 154.698 153.634 154.333 153.634 153.879C153.634 153.425 153.268 153.06 152.815 153.06Z" fill="#18181B"/>
<path d="M156.924 153.06C156.47 153.06 156.104 153.425 156.104 153.879C156.104 154.333 156.47 154.698 156.924 154.698C157.378 154.698 157.743 154.333 157.743 153.879C157.743 153.425 157.378 153.06 156.924 153.06Z" fill="#18181B"/>
<path d="M165.144 153.06C164.69 153.06 164.324 153.425 164.324 153.879C164.324 154.333 164.69 154.698 165.144 154.698C165.597 154.698 165.963 154.333 165.963 153.879C165.963 153.425 165.597 153.06 165.144 153.06Z" fill="#18181B"/>
<path d="M161.034 153.06C160.58 153.06 160.215 153.425 160.215 153.879C160.215 154.333 160.58 154.698 161.034 154.698C161.488 154.698 161.854 154.333 161.854 153.879C161.854 153.425 161.488 153.06 161.034 153.06Z" fill="#18181B"/>
<path d="M169.254 153.06C168.8 153.06 168.435 153.425 168.435 153.879C168.435 154.333 168.8 154.698 169.254 154.698C169.708 154.698 170.073 154.333 170.073 153.879C170.073 153.425 169.708 153.06 169.254 153.06Z" fill="#18181B"/>
<path d="M173.363 153.06C172.91 153.06 172.544 153.425 172.544 153.879C172.544 154.333 172.91 154.698 173.363 154.698C173.817 154.698 174.183 154.333 174.183 153.879C174.183 153.425 173.817 153.06 173.363 153.06Z" fill="#18181B"/>
<path d="M179.516 149.933C179.062 149.933 178.696 150.298 178.696 150.752C178.696 151.206 179.062 151.571 179.516 151.571C179.97 151.571 180.335 151.206 180.335 150.752C180.335 150.298 179.97 149.933 179.516 149.933Z" fill="#18181B"/>
<path d="M177.461 153.06C177.007 153.06 176.642 153.425 176.642 153.879C176.642 154.333 177.007 154.698 177.461 154.698C177.915 154.698 178.28 154.333 178.28 153.879C178.28 153.425 177.915 153.06 177.461 153.06Z" fill="#18181B"/>
<path d="M138.431 156.187C137.977 156.187 137.611 156.552 137.611 157.006C137.611 157.46 137.977 157.825 138.431 157.825C138.885 157.825 139.25 157.46 139.25 157.006C139.25 156.552 138.885 156.187 138.431 156.187Z" fill="#18181B"/>
<path d="M142.54 156.187C142.086 156.187 141.721 156.552 141.721 157.006C141.721 157.46 142.086 157.825 142.54 157.825C142.994 157.825 143.36 157.46 143.36 157.006C143.36 156.552 142.994 156.187 142.54 156.187Z" fill="#18181B"/>
<path d="M146.65 157.835C147.103 157.835 147.469 157.47 147.469 157.016C147.469 156.562 147.103 156.197 146.65 156.197C146.196 156.197 145.83 156.562 145.83 157.016C145.83 157.47 146.196 157.835 146.65 157.835Z" fill="#18181B"/>
<path d="M150.76 156.187C150.306 156.187 149.941 156.552 149.941 157.006C149.941 157.46 150.306 157.825 150.76 157.825C151.214 157.825 151.58 157.46 151.58 157.006C151.58 156.552 151.214 156.187 150.76 156.187Z" fill="#18181B"/>
<path d="M154.869 156.187C154.415 156.187 154.05 156.552 154.05 157.006C154.05 157.46 154.415 157.825 154.869 157.825C155.323 157.825 155.689 157.46 155.689 157.006C155.689 156.552 155.323 156.187 154.869 156.187Z" fill="#18181B"/>
<path d="M158.98 156.187C158.526 156.187 158.16 156.552 158.16 157.006C158.16 157.46 158.526 157.825 158.98 157.825C159.433 157.825 159.799 157.46 159.799 157.006C159.799 156.552 159.433 156.187 158.98 156.187Z" fill="#18181B"/>
<path d="M163.077 156.187C162.623 156.187 162.258 156.552 162.258 157.006C162.258 157.46 162.623 157.825 163.077 157.825C163.531 157.825 163.897 157.46 163.897 157.006C163.897 156.552 163.531 156.187 163.077 156.187Z" fill="#18181B"/>
<path d="M167.199 157.835C167.653 157.835 168.019 157.47 168.019 157.016C168.019 156.562 167.653 156.197 167.199 156.197C166.745 156.197 166.38 156.562 166.38 157.016C166.38 157.47 166.745 157.835 167.199 157.835Z" fill="#18181B"/>
<path d="M171.309 156.187C170.855 156.187 170.489 156.552 170.489 157.006C170.489 157.46 170.855 157.825 171.309 157.825C171.763 157.825 172.128 157.46 172.128 157.006C172.128 156.552 171.75 156.187 171.309 156.187Z" fill="#18181B"/>
<path d="M150.76 162.288C150.306 162.288 149.941 162.654 149.941 163.108C149.941 163.561 150.306 163.927 150.76 163.927C151.214 163.927 151.58 163.561 151.58 163.108C151.58 162.654 151.214 162.288 150.76 162.288Z" fill="#18181B"/>
<path d="M154.858 162.288C154.404 162.288 154.038 162.654 154.038 163.108C154.038 163.561 154.404 163.927 154.858 163.927C155.311 163.927 155.677 163.561 155.677 163.108C155.677 162.654 155.311 162.288 154.858 162.288Z" fill="#18181B"/>
<path d="M158.98 162.288C158.526 162.288 158.16 162.654 158.16 163.108C158.16 163.561 158.526 163.927 158.98 163.927C159.433 163.927 159.799 163.561 159.799 163.108C159.799 162.654 159.433 162.288 158.98 162.288Z" fill="#18181B"/>
<path d="M144.595 159.309C144.141 159.309 143.775 159.674 143.775 160.128C143.775 160.582 144.141 160.947 144.595 160.947C145.049 160.947 145.427 160.582 145.427 160.128C145.427 159.674 145.049 159.309 144.595 159.309Z" fill="#18181B"/>
<path d="M148.705 159.309C148.251 159.309 147.886 159.674 147.886 160.128C147.886 160.582 148.251 160.947 148.705 160.947C149.159 160.947 149.525 160.582 149.525 160.128C149.525 159.674 149.159 159.309 148.705 159.309Z" fill="#18181B"/>
<path d="M152.815 159.309C152.361 159.309 151.995 159.674 151.995 160.128C151.995 160.582 152.361 160.947 152.815 160.947C153.268 160.947 153.634 160.582 153.634 160.128C153.634 159.674 153.268 159.309 152.815 159.309Z" fill="#18181B"/>
<path d="M156.924 159.309C156.47 159.309 156.104 159.674 156.104 160.128C156.104 160.582 156.47 160.947 156.924 160.947C157.378 160.947 157.743 160.582 157.743 160.128C157.743 159.674 157.378 159.309 156.924 159.309Z" fill="#18181B"/>
<path d="M161.034 159.309C160.58 159.309 160.215 159.674 160.215 160.128C160.215 160.582 160.58 160.947 161.034 160.947C161.488 160.947 161.854 160.582 161.854 160.128C161.854 159.674 161.488 159.309 161.034 159.309Z" fill="#18181B"/>
<path d="M165.144 159.309C164.69 159.309 164.324 159.674 164.324 160.128C164.324 160.582 164.69 160.947 165.144 160.947C165.597 160.947 165.963 160.582 165.963 160.128C165.963 159.674 165.597 159.309 165.144 159.309Z" fill="#18181B"/>
<path d="M197.607 134.297C197.153 134.297 196.787 134.663 196.787 135.129C196.787 135.596 197.153 135.949 197.607 135.949C198.06 135.949 198.426 135.583 198.426 135.129C198.426 134.676 198.06 134.297 197.607 134.297Z" fill="#18181B"/>
<path d="M193.497 134.297C193.043 134.297 192.678 134.663 192.678 135.129C192.678 135.596 193.043 135.949 193.497 135.949C193.951 135.949 194.317 135.583 194.317 135.129C194.317 134.676 193.951 134.297 193.497 134.297Z" fill="#18181B"/>
<path d="M183.223 149.933C182.769 149.933 182.403 150.298 182.403 150.765C182.403 151.231 182.769 151.584 183.223 151.584C183.677 151.584 184.042 151.218 184.042 150.765C184.042 150.311 183.677 149.933 183.223 149.933Z" fill="#18181B"/>
<path d="M191.442 137.424C190.988 137.424 190.622 137.79 190.622 138.244C190.622 138.698 190.988 139.063 191.442 139.063C191.895 139.063 192.261 138.698 192.261 138.244C192.261 137.79 191.883 137.424 191.442 137.424Z" fill="#18181B"/>
<path d="M187.332 137.424C186.878 137.424 186.513 137.79 186.513 138.244C186.513 138.698 186.878 139.063 187.332 139.063C187.786 139.063 188.152 138.698 188.152 138.244C188.152 137.79 187.773 137.424 187.332 137.424Z" fill="#18181B"/>
<path d="M195.552 137.424C195.098 137.424 194.732 137.79 194.732 138.244C194.732 138.698 195.098 139.063 195.552 139.063C196.006 139.063 196.371 138.698 196.371 138.244C196.371 137.79 196.006 137.424 195.552 137.424Z" fill="#18181B"/>
<path d="M185.277 140.552C184.824 140.552 184.458 140.917 184.458 141.371C184.458 141.825 184.824 142.19 185.277 142.19C185.731 142.19 186.097 141.825 186.097 141.371C186.097 140.917 185.731 140.552 185.277 140.552Z" fill="#18181B"/>
<path d="M181.57 140.552C181.117 140.552 180.751 140.917 180.751 141.371C180.751 141.825 181.117 142.19 181.57 142.19C182.024 142.19 182.39 141.825 182.39 141.371C182.39 140.917 182.024 140.552 181.57 140.552Z" fill="#18181B"/>
<path d="M189.387 140.552C188.933 140.552 188.567 140.917 188.567 141.371C188.567 141.825 188.933 142.19 189.387 142.19C189.841 142.19 190.206 141.825 190.206 141.371C190.206 140.917 189.841 140.552 189.387 140.552Z" fill="#18181B"/>
<path d="M193.497 140.552C193.043 140.552 192.678 140.917 192.678 141.371C192.678 141.825 193.043 142.19 193.497 142.19C193.951 142.19 194.317 141.825 194.317 141.371C194.317 140.917 193.951 140.552 193.497 140.552Z" fill="#18181B"/>
<path d="M199.661 137.424C199.207 137.424 198.842 137.79 198.842 138.244C198.842 138.698 199.207 139.063 199.661 139.063C200.115 139.063 200.481 138.698 200.481 138.244C200.481 137.79 200.115 137.424 199.661 137.424Z" fill="#18181B"/>
<path d="M197.607 140.552C197.153 140.552 196.787 140.917 196.787 141.371C196.787 141.825 197.153 142.19 197.607 142.19C198.06 142.19 198.426 141.825 198.426 141.371C198.426 140.917 198.06 140.552 197.607 140.552Z" fill="#18181B"/>
<path d="M183.223 143.693C182.769 143.693 182.403 144.059 182.403 144.513C182.403 144.967 182.769 145.332 183.223 145.332C183.677 145.332 184.042 144.967 184.042 144.513C184.042 144.059 183.677 143.693 183.223 143.693Z" fill="#18181B"/>
<path d="M179.516 143.678C179.062 143.678 178.696 144.044 178.696 144.498C178.696 144.952 179.062 145.317 179.516 145.317C179.97 145.317 180.335 144.952 180.335 144.498C180.335 144.044 179.97 143.678 179.516 143.678Z" fill="#18181B"/>
<path d="M179.516 137.424C179.062 137.424 178.696 137.79 178.696 138.244C178.696 138.698 179.062 139.063 179.516 139.063C179.97 139.063 180.335 138.698 180.335 138.244C180.335 137.79 179.97 137.424 179.516 137.424Z" fill="#18181B"/>
<path d="M175.406 143.678C174.953 143.678 174.587 144.044 174.587 144.498C174.587 144.952 174.953 145.317 175.406 145.317C175.86 145.317 176.226 144.952 176.226 144.498C176.226 144.044 175.86 143.678 175.406 143.678Z" fill="#18181B"/>
<path d="M175.406 137.424C174.953 137.424 174.587 137.79 174.587 138.244C174.587 138.698 174.953 139.063 175.406 139.063C175.86 139.063 176.226 138.698 176.226 138.244C176.226 137.79 175.86 137.424 175.406 137.424Z" fill="#18181B"/>
<path d="M187.332 145.332C187.786 145.332 188.152 144.967 188.152 144.513C188.152 144.059 187.786 143.693 187.332 143.693C186.878 143.693 186.513 144.059 186.513 144.513C186.513 144.967 186.878 145.332 187.332 145.332Z" fill="#18181B"/>
<path d="M189.387 148.459C189.841 148.459 190.206 148.094 190.206 147.64C190.206 147.186 189.841 146.82 189.387 146.82C188.933 146.82 188.567 147.186 188.567 147.64C188.567 148.094 188.933 148.459 189.387 148.459Z" fill="#18181B"/>
<path d="M191.442 143.693C190.988 143.693 190.622 144.059 190.622 144.513C190.622 144.967 190.988 145.332 191.442 145.332C191.895 145.332 192.261 144.967 192.261 144.513C192.261 144.059 191.883 143.693 191.442 143.693Z" fill="#18181B"/>
<path d="M185.277 146.82C184.824 146.82 184.458 147.186 184.458 147.64C184.458 148.094 184.824 148.459 185.277 148.459C185.731 148.459 186.097 148.094 186.097 147.64C186.097 147.186 185.731 146.82 185.277 146.82Z" fill="#18181B"/>
<path d="M241.012 71.4937C241.012 71.4937 241.05 71.4937 241.062 71.4937C241.226 71.4937 241.39 71.4559 241.541 71.3677L250.833 66.0099C251.69 66.4007 252.686 66.6024 253.644 66.6024C254.602 66.6024 255.547 66.4007 256.253 65.9846C257.098 65.5056 257.577 64.7492 257.577 63.9298C257.577 62.9843 256.947 62.0892 255.863 61.4589C254.085 60.4377 251.475 60.3369 249.925 61.2319C249.08 61.711 248.601 62.4674 248.601 63.2868C248.601 63.8163 248.815 64.3206 249.168 64.7744L240.835 69.5775L233.46 69.1615L238.138 66.4637C238.591 66.1989 238.743 65.619 238.478 65.1778C238.213 64.724 237.633 64.5727 237.192 64.8374L122.105 131.274C121.652 131.539 121.5 132.119 121.765 132.56C121.942 132.863 122.257 133.039 122.584 133.039C122.748 133.039 122.912 133.001 123.051 132.913L230.473 70.9012L241.012 71.4937ZM250.858 62.8834C251.274 62.6439 251.879 62.5178 252.509 62.5178C253.341 62.5178 254.236 62.7195 254.905 63.1103C255.434 63.4129 255.674 63.7533 255.674 63.9424C255.674 64.0684 255.535 64.2197 255.295 64.3584C254.325 64.9257 252.434 64.8122 251.249 64.1315C250.719 63.8289 250.48 63.4885 250.48 63.2994C250.48 63.1734 250.618 63.0221 250.858 62.8834Z" fill="#18181B"/>
<path d="M238.944 56.001C239.361 55.7615 239.966 55.6355 240.596 55.6355C241.428 55.6355 242.323 55.8372 242.991 56.228C243.521 56.5305 243.76 56.8709 243.76 57.06C243.76 57.1861 243.622 57.3373 243.382 57.476C242.411 58.0307 240.52 57.9299 239.335 57.2491C238.806 56.9465 238.566 56.6062 238.566 56.4171C238.566 56.291 238.705 56.1397 238.944 56.001ZM243.937 54.5891C242.159 53.5554 239.562 53.4545 237.999 54.3622C237.167 54.8412 236.675 55.585 236.675 56.4045C236.675 56.9339 236.89 57.4382 237.255 57.892L170.402 96.4934L168.498 97.5902L170.402 98.687L172.293 97.5902L238.907 59.1275C239.777 59.5057 240.76 59.72 241.718 59.72C242.676 59.72 243.622 59.5183 244.34 59.1023C245.172 58.6232 245.651 57.8794 245.651 57.06C245.651 56.1145 245.034 55.2194 243.937 54.5891ZM156.207 104.688L116.117 127.833C115.676 128.098 115.512 128.678 115.777 129.119C115.953 129.422 116.269 129.598 116.596 129.598C116.76 129.598 116.924 129.561 117.075 129.472L158.098 105.785L159.989 104.688L158.098 103.591L156.207 104.688Z" fill="#18181B"/>
<path d="M267.738 68.3285C265.961 67.3074 263.351 67.2065 261.801 68.1016C260.956 68.5806 260.477 69.337 260.477 70.1565C260.477 70.6859 260.691 71.1902 261.044 71.644L237.495 85.2466L219.291 84.2254L229.49 78.3381L239.953 78.9811C239.953 78.9811 239.991 78.9811 240.016 78.9811C240.18 78.9811 240.344 78.9433 240.495 78.855L250.026 73.3585C250.48 73.0938 250.631 72.5139 250.366 72.0727C250.102 71.6314 249.522 71.4675 249.08 71.7323L239.802 77.0901L229.338 76.4471C229.338 76.4471 229.275 76.4598 229.237 76.4598C229.174 76.4598 229.124 76.4724 229.074 76.485C229.01 76.4976 228.96 76.5102 228.91 76.5354C228.872 76.548 228.847 76.548 228.809 76.5732L215.71 84.1372C215.71 84.1372 215.647 84.1624 215.61 84.1876L128.069 134.74C127.615 135.005 127.463 135.585 127.728 136.026C127.905 136.328 128.22 136.505 128.548 136.505C128.711 136.505 128.875 136.467 129.014 136.379L216.316 85.9651L237.696 87.1628C237.696 87.1628 237.734 87.1628 237.747 87.1628C237.911 87.1628 238.075 87.1249 238.226 87.0367L262.733 72.8921C263.591 73.2829 264.587 73.4846 265.545 73.4846C266.503 73.4846 267.448 73.2829 268.154 72.8669C268.999 72.3878 269.478 71.6314 269.478 70.812C269.478 69.8665 268.848 68.9714 267.764 68.3411L267.738 68.3285ZM267.184 71.2154C266.213 71.7827 264.322 71.6692 263.137 70.9885C262.607 70.6859 262.368 70.3456 262.368 70.1565C262.368 70.0304 262.507 69.8791 262.746 69.7404C263.162 69.5009 263.767 69.3748 264.398 69.3748C265.23 69.3748 266.125 69.5765 266.793 69.9674C267.322 70.2699 267.562 70.6103 267.562 70.7994C267.562 70.9255 267.423 71.0767 267.184 71.2154Z" fill="#18181B"/>
<path d="M133.616 89.459L131.712 90.5558L91.6353 113.701C91.1815 113.966 91.0176 114.546 91.2823 114.987C91.4588 115.29 91.774 115.466 92.1018 115.466C92.2657 115.466 92.4295 115.429 92.5808 115.34L133.603 91.6526L135.494 90.5558L133.616 89.459ZM139.553 92.9006L137.662 93.9848L97.5731 117.13C97.1319 117.395 96.968 117.975 97.2327 118.416C97.4092 118.732 97.7244 118.895 98.0521 118.895C98.216 118.895 98.3799 118.858 98.5186 118.769L139.553 95.0816L141.444 93.9974L139.553 92.9006ZM146.701 97.023L145.529 96.3422L143.638 97.439L103.549 120.585C103.107 120.849 102.944 121.429 103.208 121.871C103.385 122.173 103.7 122.35 104.028 122.35C104.192 122.35 104.355 122.312 104.507 122.224L145.529 98.5358L147.433 97.439L146.701 97.023ZM151.706 99.9099L149.815 101.007L109.726 124.152C109.285 124.417 109.121 124.997 109.386 125.438C109.562 125.741 109.877 125.917 110.205 125.917C110.369 125.917 110.533 125.879 110.671 125.791L151.719 102.091L153.597 101.007L151.706 99.9099ZM231.368 47.3277C229.591 46.3066 226.981 46.2058 225.418 47.1008C224.586 47.5925 224.107 48.3363 224.107 49.1557C224.107 49.6852 224.321 50.1894 224.674 50.6433L207.39 60.6277L206.709 56.3163L213.605 52.3326C214.059 52.0678 214.223 51.4879 213.958 51.0341C213.694 50.5803 213.114 50.429 212.66 50.6937L206.382 54.3244L205.701 50.0256L214.425 44.9955C215.282 45.3737 216.265 45.588 217.223 45.588C218.181 45.588 219.127 45.3863 219.846 44.9703C220.678 44.4913 221.169 43.7349 221.169 42.9154C221.169 41.9825 220.539 41.0875 219.442 40.4572C217.677 39.4234 215.068 39.3226 213.504 40.2302C212.672 40.7093 212.193 41.4531 212.193 42.2725C212.193 42.802 212.395 43.3062 212.761 43.7727L204.188 48.7145C203.848 48.9162 203.671 49.2944 203.734 49.6852L204.629 55.3329L194.544 61.1572L194.052 58.2703L193.724 56.2784L187.56 59.8839L184.761 61.5228L183.374 60.7286L181.483 61.8127L179.075 63.2121L178.206 59.9217L177.197 56.0893L176.365 52.9251L202.524 38.1249C203.394 38.5157 204.377 38.7174 205.335 38.7174C206.293 38.7174 207.239 38.5157 207.957 38.1123C208.789 37.6207 209.281 36.8769 209.281 36.0574C209.281 35.112 208.651 34.2169 207.567 33.5866C205.789 32.5654 203.18 32.4646 201.616 33.3596C200.784 33.8513 200.305 34.5951 200.305 35.4145C200.305 35.9314 200.507 36.4356 200.872 36.8895L174.802 51.6266C174.424 51.8409 174.247 52.2821 174.348 52.6982L175.533 57.1735L175.899 58.5854L177.374 64.1954L145.907 82.3615L144.016 83.4583L145.907 84.5424L147.798 83.4457L177.865 66.0864L178.937 70.1583L151.858 85.7905L149.954 86.8873L151.858 87.984L153.749 86.8873L179.441 72.0619L180.513 76.1464L157.833 89.2447L155.93 90.3415L157.833 91.4382L159.724 90.3415L205.966 63.6407L206.684 68.1665L164.01 92.8124L162.107 93.9091L163.998 95.0059L165.889 93.9091L208.197 69.4775C208.197 69.4775 208.21 69.4649 208.222 69.4649L225.758 59.3418C226.199 59.0771 226.363 58.4972 226.099 58.0434C225.834 57.6021 225.254 57.4382 224.8 57.703L208.424 67.1579L207.705 62.6196L226.325 51.8661C227.183 52.2569 228.166 52.4586 229.124 52.4586C230.082 52.4586 231.028 52.2569 231.746 51.8535C232.578 51.3619 233.07 50.6181 233.07 49.7986C233.07 48.8531 232.44 47.9581 231.355 47.3277H231.368ZM214.45 41.8565C214.879 41.617 215.471 41.5035 216.101 41.5035C216.933 41.5035 217.829 41.7052 218.497 42.0834C219.026 42.3986 219.278 42.7389 219.278 42.9154C219.278 43.0415 219.127 43.1928 218.9 43.3315C217.929 43.8988 216.038 43.7853 214.853 43.1045C214.324 42.802 214.084 42.4616 214.084 42.2725C214.084 42.1464 214.223 41.9952 214.45 41.8565ZM202.562 34.9985C202.99 34.759 203.583 34.6329 204.213 34.6329C205.045 34.6329 205.94 34.8346 206.621 35.2254C207.138 35.528 207.39 35.8683 207.39 36.0574C207.39 36.1835 207.239 36.3348 207.012 36.4735C206.041 37.0282 204.15 36.9273 202.965 36.2465C202.436 35.944 202.196 35.6036 202.196 35.4145C202.196 35.2884 202.335 35.1372 202.562 34.9985ZM179.567 65.1157L183.387 62.9095L192.073 57.8921L192.313 59.304L192.792 62.1657L180.639 69.1876L179.567 65.1157ZM182.215 75.1631L181.13 71.0786L204.957 57.3248L205.638 61.6362L182.215 75.1631ZM230.813 50.2147C229.843 50.782 227.952 50.6685 226.767 49.9877C226.237 49.6852 225.998 49.3448 225.998 49.1557C225.998 49.0296 226.136 48.8784 226.363 48.7397C226.792 48.5002 227.384 48.3741 228.015 48.3741C228.847 48.3741 229.742 48.5758 230.423 48.9666C230.939 49.2692 231.192 49.6095 231.192 49.7986C231.192 49.9247 231.04 50.076 230.813 50.2147ZM202.07 44.1761C201.805 43.7223 201.225 43.5584 200.772 43.8231L191.254 49.3196C190.913 49.5213 190.724 49.9121 190.787 50.3029L190.875 50.845L191.291 53.2655L193.422 54.5009L193.006 52.0804L192.766 50.6307L201.717 45.462C202.171 45.1972 202.322 44.6299 202.07 44.1761Z" fill="#18181B"/>
<path d="M164.011 95.0008L141.016 81.7135L139.768 78.8013L130.049 56.1977C129.897 55.8699 129.96 55.4917 130.2 55.2144L143.361 39.7965L144.609 38.3342L149.829 41.3471L157.708 36.7331L157.909 36.6071L159.7 35.5607L159.851 35.4725L160.166 35.2834L159.107 34.6783L152.942 31.1232L148.58 33.6697L152.224 29.4087C152.312 29.3078 152.426 29.2196 152.552 29.1692H152.564C152.564 29.1692 152.678 29.1187 152.741 29.1061C152.968 29.0557 153.207 29.0809 153.409 29.207L160.973 33.5815L162.511 34.4639C162.624 34.527 162.713 34.6152 162.788 34.7161L160.532 36.0398L161.591 36.6449L162.99 37.4517V53.4495C162.99 53.9411 162.612 54.3572 162.12 54.395C161.83 54.4202 161.54 54.4454 161.263 54.4958C160.683 54.5841 160.128 54.7101 159.599 54.8614C158.931 55.0757 158.3 55.3531 157.708 55.6808C156.245 56.5003 155.035 57.6853 154.127 59.1855C152.804 61.3412 152.098 64.1525 152.098 67.5058C152.098 71.2248 152.968 75.2211 154.468 79.2174L154.619 79.4821L154.581 79.5073C155.199 81.1084 155.918 82.7094 156.737 84.2978L157.115 84.9408L157.077 84.966C157.708 86.151 158.389 87.3234 159.12 88.4706H159.145L159.334 88.7858C159.813 89.517 160.305 90.2481 160.822 90.9667C161.818 92.3661 162.889 93.715 164.011 95.0008Z" fill="#18181B"/>
<path d="M219.72 107.308L197.708 133.101C197.519 133.328 197.255 133.441 196.977 133.441C196.826 133.441 196.662 133.391 196.511 133.315L152.463 107.888C152.286 107.774 152.148 107.623 152.072 107.434L149.135 100.614L147.887 97.7014L148.58 98.1048L160.367 104.912L168.89 99.9202C169.394 100.361 169.911 100.79 170.428 101.206C172.029 102.505 173.705 103.652 175.42 104.648C181.963 108.43 188.14 109.186 192.351 106.753C195.88 104.723 197.822 100.551 197.822 95.0036C197.822 87.2758 194.065 77.8334 187.762 69.7526C187.636 69.5887 187.56 69.3744 187.56 69.1727V59.8816L195.099 55.4693L188.506 51.6621L187.56 52.2168V50.5653C187.56 50.225 187.737 49.9098 188.026 49.7459C188.102 49.6955 188.178 49.6703 188.266 49.6451C188.417 49.6072 188.581 49.6072 188.745 49.6451C188.821 49.6703 188.909 49.7081 188.972 49.7459L197.456 54.6373C197.57 54.7003 197.671 54.7886 197.734 54.902C197.771 54.9524 197.809 55.0029 197.822 55.0533C197.835 55.0659 197.847 55.0785 197.847 55.0911L219.871 106.312C220.022 106.652 219.959 107.03 219.72 107.308Z" fill="#18181B"/>
<path d="M180.627 33.9729V56.274L178.168 57.7111L180.627 59.1357V74.6292C180.627 74.9569 180.45 75.2721 180.16 75.436H180.135C179.996 75.5368 179.832 75.5747 179.681 75.5747C179.505 75.5747 179.328 75.5242 179.177 75.4234L170.352 69.8765C170.087 69.7 169.911 69.3974 169.911 69.0697V38.5995L177.79 33.9855L170.869 29.9766L169.911 30.5439V28.8798C169.911 28.552 170.087 28.2621 170.352 28.0856H170.377C170.377 28.0856 170.377 28.073 170.377 28.0604C170.516 27.9721 170.693 27.9343 170.844 27.9343H170.882C171.045 27.9343 171.184 27.9848 171.323 28.0604L180.135 33.1535C180.425 33.33 180.614 33.6325 180.614 33.9729H180.627Z" fill="#18181B"/>
<path d="M161.275 36.4706V54.4603C161.275 54.4603 161.275 54.4855 161.263 54.4981C161.263 54.8259 161.073 55.1158 160.796 55.2797L154.127 59.1877L150.307 61.4191C150.156 61.5074 149.992 61.5578 149.828 61.5578C149.664 61.5578 149.501 61.5074 149.362 61.4317C149.059 61.2552 148.883 60.9527 148.883 60.6123V42.4462C148.883 42.1058 149.059 41.7906 149.349 41.6267L149.828 41.3494L157.909 36.6093L159.851 35.4747C160.141 35.3108 160.506 35.3108 160.796 35.4747C160.91 35.5378 160.998 35.626 161.073 35.7269L160.531 36.042L161.275 36.4706Z" fill="#18181B"/>
<path d="M180.627 33.9748V56.2759L178.169 57.713L180.627 59.1376V74.6311C180.627 74.9589 180.451 75.274 180.161 75.4379H180.136L167.945 82.5985C167.794 82.6867 167.63 82.7245 167.466 82.7245C167.302 82.7245 167.138 82.6867 167 82.6111C166.697 82.4346 166.521 82.1194 166.521 81.779V41.1354C166.521 40.795 166.697 40.4924 166.987 40.3159L167.466 40.0386L169.912 38.6014L177.791 33.9874L179.203 33.1554C179.493 32.9915 179.858 32.9915 180.148 33.1554C180.438 33.3319 180.627 33.6344 180.627 33.9748Z" fill="#18181B"/>
<path d="M138.558 80.3048L123.405 71.5558L122.056 70.7742L120.796 67.862L118.703 62.9833L140.727 37.1902L149.829 42.4471V60.6132C143.273 61.1427 138.937 66.1349 138.937 74.6696C138.937 75.9177 139.025 77.1909 139.214 78.4894C139.315 79.2962 139.466 80.1157 139.643 80.9351L138.558 80.3048Z" fill="white"/>
<path d="M206.798 113.85L184.774 139.643L140.727 114.215L130.175 89.6702L128.927 86.7581L130.288 87.5397L144.95 96.0113L146.702 97.0199C147.547 98.3057 148.455 99.5538 149.413 100.764C153.207 105.592 157.796 109.778 162.738 112.627C175.887 120.216 186.552 115.526 186.552 102.163C186.552 93.906 182.493 84.2746 176.29 76.3198V57.7251L184.774 62.6165L206.798 113.85Z" fill="white"/>
<path d="M207.669 113.472L185.645 62.239C185.556 62.0499 185.418 61.8986 185.241 61.7978L176.769 56.9064C176.467 56.7299 176.114 56.7299 175.824 56.9064C175.521 57.0703 175.345 57.3855 175.345 57.7259V76.3206C175.345 76.5349 175.421 76.7366 175.547 76.9005C181.85 84.9813 185.607 94.4237 185.607 102.164C185.607 107.698 183.665 111.871 180.148 113.913C175.925 116.347 169.748 115.578 163.217 111.808C159.057 109.413 155.136 106.034 151.77 102.126C150.636 100.84 149.577 99.4915 148.581 98.1048L147.888 97.7014L146.702 97.0206L144.95 96.0121C145.694 97.2349 146.501 98.42 147.345 99.5798C151.455 105.253 156.649 110.207 162.272 113.447C169.407 117.569 176.265 118.326 181.094 115.54C185.216 113.157 187.498 108.404 187.498 102.164C187.498 94.1085 183.665 84.351 177.236 76.0054V59.3521L184.031 63.2728L205.689 113.687L184.56 138.433L141.471 113.56L131.537 90.4526L130.289 87.5405L128.927 86.7589L127.553 85.9646L128.801 88.8768L139.857 114.594C139.933 114.783 140.071 114.935 140.248 115.035L184.296 140.463C184.447 140.551 184.611 140.602 184.775 140.602C185.039 140.602 185.304 140.476 185.493 140.261L207.517 114.456C207.744 114.191 207.807 113.8 207.669 113.472ZM119.8 63.1593L140.929 38.3999L148.883 42.9887V59.7681C142.139 60.7262 137.991 66.3614 137.991 74.6691C137.991 75.7281 138.054 76.7996 138.193 77.8964C138.269 78.6906 138.395 79.4975 138.559 80.3043L139.643 80.9346L140.752 81.5649C140.55 80.7329 140.387 79.9135 140.26 79.094C140.008 77.5813 139.882 76.1063 139.882 74.6691C139.882 66.9665 143.626 62.0625 149.905 61.5457C150.396 61.5078 150.774 61.1044 150.774 60.6128V42.4467C150.774 42.1063 150.598 41.7911 150.308 41.6272L141.193 36.3703C140.803 36.1434 140.298 36.2316 140.008 36.572L117.984 62.3777C117.745 62.6424 117.694 63.0332 117.833 63.361L119.422 67.0674L120.682 69.9795L122.056 70.7737L123.405 71.5553L122.157 68.6432L119.8 63.1593Z" fill="#18181B"/>
<path d="M149.829 41.3484L144.61 38.3354L142.605 37.1756L148.581 33.6709L152.943 31.1244L160.167 35.2846L159.851 35.4737L149.829 41.3484ZM162.789 34.7173C162.713 34.6164 162.625 34.5282 162.511 34.4652L160.973 33.5827L153.409 29.2082C153.208 29.0821 152.968 29.0569 152.741 29.1074C152.678 29.12 152.615 29.1326 152.565 29.1704H152.552C152.552 29.1704 152.489 29.1956 152.464 29.2082L140.248 36.3688C139.958 36.5326 139.781 36.8478 139.781 37.1882C139.781 37.5286 139.958 37.8311 140.248 38.0076L143.362 39.7978L148.884 42.9872L149.363 43.2646C149.501 43.3402 149.665 43.3906 149.829 43.3906C149.993 43.3906 150.157 43.3402 150.308 43.252L157.708 38.9279L159.599 37.8185L159.713 37.7555L161.276 36.8352L161.591 36.6461L160.532 36.041L162.789 34.7173Z" fill="#18181B"/>
<path d="M197.823 55.0545C197.823 55.0545 197.772 54.9537 197.734 54.9032C197.671 54.7898 197.571 54.7015 197.457 54.6385L193.007 52.0794L190.876 50.8439L188.973 49.7471C188.91 49.7093 188.822 49.6715 188.746 49.6463C188.582 49.6085 188.418 49.6085 188.267 49.6463C188.179 49.6715 188.103 49.6967 188.027 49.7471L180.627 54.0838L177.198 56.0883L175.811 56.9077C175.698 56.9707 175.597 57.059 175.534 57.1724C175.408 57.3237 175.345 57.5254 175.345 57.7271C175.345 58.0675 175.534 58.3701 175.824 58.5465L175.9 58.5844L178.207 59.9207L180.627 61.32L181.484 61.8117L183.388 62.9084L184.296 63.4379C184.447 63.5262 184.611 63.564 184.775 63.564C184.939 63.564 185.103 63.5135 185.254 63.4379L187.561 62.089L192.314 59.3029L194.053 58.2692L197.457 56.2774C197.747 56.1009 197.936 55.7983 197.924 55.4579C197.924 55.3066 197.886 55.1806 197.823 55.0545ZM193.726 56.2774L187.561 59.8828L184.762 61.5217L183.375 60.7275L180.627 59.1391L178.169 57.7145L180.627 56.2774L187.561 52.218L188.506 51.6633L191.292 53.2644L193.423 54.4998L195.1 55.4705L193.726 56.2774Z" fill="#18181B"/>
<path d="M219.733 106.086C219.443 105.733 218.926 105.645 218.535 105.872L206.319 113.032C206.231 113.083 206.143 113.158 206.08 113.234L184.056 139.04C183.753 139.393 183.753 139.91 184.056 140.263C184.245 140.49 184.51 140.603 184.787 140.603C184.951 140.603 185.115 140.565 185.266 140.477L197.482 133.316C197.57 133.266 197.659 133.19 197.722 133.115L219.746 107.309C220.048 106.956 220.048 106.439 219.746 106.086H219.733Z" fill="#18181B"/>
<path d="M219.885 106.313L197.861 55.0799C197.76 54.8277 197.546 54.6386 197.281 54.5504C197.029 54.4622 196.739 54.5 196.512 54.6386L184.296 61.7992C183.88 62.0387 183.716 62.5556 183.905 62.9842L205.929 114.217C206.03 114.47 206.244 114.659 206.509 114.747C206.61 114.785 206.711 114.797 206.799 114.797C206.963 114.797 207.127 114.76 207.278 114.671L219.494 107.511C219.91 107.271 220.074 106.754 219.885 106.326V106.313Z" fill="#18181B"/>
<path d="M180.148 33.1547L171.336 28.0616C171.197 27.986 171.033 27.9355 170.895 27.9355H170.857C170.693 27.9355 170.529 27.986 170.39 28.0616C170.39 28.0742 170.39 28.0742 170.39 28.0742H170.365L160.986 33.5833L159.12 34.6801L158.187 35.2222C157.897 35.3987 157.721 35.7012 157.721 36.0416C157.721 36.2559 157.784 36.4576 157.922 36.6089C157.985 36.7097 158.074 36.798 158.187 36.861L159.612 37.6804L159.725 37.7435L161.288 38.6512L163.003 39.6345L166.533 41.6767L166.999 41.9541C167.151 42.0423 167.314 42.0802 167.478 42.0802C167.642 42.0802 167.806 42.0297 167.957 41.9541L168.424 41.6767L169.924 40.7943L180.173 34.7935C180.463 34.617 180.64 34.3145 180.64 33.9741C180.64 33.6337 180.451 33.3312 180.161 33.1547H180.148ZM169.911 38.6007L167.466 40.0379L162.99 37.4535L161.591 36.6467L161.276 36.4702L160.532 36.0416L161.074 35.7264L162.789 34.7179L169.911 30.5451L170.87 29.9778L177.791 33.9867L169.911 38.6007Z" fill="#18181B"/>
<path d="M167.466 41.1341V81.7778L158.654 76.6973V36.041L167.466 41.1341Z" fill="white"/>
<path d="M167.932 40.3163L167.466 40.039L162.99 37.4546L161.591 36.6478L160.532 36.0427L159.7 35.5636L159.12 35.2233C158.83 35.0594 158.464 35.0594 158.174 35.2233C157.885 35.3997 157.708 35.7023 157.708 36.0427V76.699C157.708 77.0267 157.885 77.3419 158.174 77.5184L166.987 82.5989C167.138 82.6871 167.302 82.7249 167.466 82.7249C167.629 82.7249 167.793 82.6871 167.932 82.5989C168.235 82.435 168.411 82.1198 168.411 81.7794V41.1358C168.411 40.7954 168.235 40.4802 167.932 40.3163ZM166.52 80.1532L159.599 76.1443V37.6815L159.712 37.7446L162.99 39.6356L166.52 41.6778V80.1532Z" fill="#18181B"/>
<path d="M154.808 79.284L147.748 83.4189L145.857 84.5157L144.016 83.4568L143.979 83.4315L145.857 82.3348L153.862 77.6577L154.808 79.284Z" fill="white"/>
<path d="M157.015 85.1076L153.863 86.9482L151.972 88.0449L151.859 87.9819L150.081 86.9608L151.972 85.8514L156.057 83.4688L157.015 85.1076Z" fill="white"/>
<path d="M160.091 90.1996L159.788 90.3761L157.91 91.4729L157.834 91.4351L156.019 90.3887L157.91 89.2794L159.145 88.5608L160.091 90.1996Z" fill="white"/>
<path d="M90.1487 113.388L102.352 106.227L172.571 146.77L160.381 153.931L90.1487 113.388Z" fill="#18181B" stroke="#18181B" stroke-width="1.891" stroke-linecap="round" stroke-linejoin="round"/>
<path d="M173.517 98.8521V146.77C173.517 147.11 173.34 147.425 173.05 147.589C172.899 147.677 172.735 147.715 172.571 147.715C172.407 147.715 172.244 147.677 172.105 147.589L101.873 107.046C101.583 106.883 101.406 106.567 101.406 106.227V70.8781L160.368 104.916L170.693 98.8647L102.365 59.4061L101.406 59.9608V58.3093C101.406 57.9815 101.57 57.6916 101.835 57.5151L101.886 57.4899C102.176 57.326 102.541 57.326 102.831 57.4899L173.05 98.0327C173.34 98.2092 173.517 98.5117 173.517 98.8521Z" fill="#18181B"/>
<path d="M90.1487 65.4678V113.385L160.368 153.928V106.011L90.1487 65.4678ZM124.439 126.093C120.392 123.761 117.114 118.1 117.114 113.461C117.114 108.822 120.392 106.956 124.439 109.288C128.486 111.621 131.763 117.281 131.763 121.908C131.763 126.534 128.486 128.425 124.439 126.08V126.093Z" fill="white" stroke="#18181B" stroke-width="1.891" stroke-linecap="round" stroke-linejoin="round"/>
<path d="M173.05 98.0327L172.281 97.5915L170.39 96.4947L165.902 93.9103L164.011 92.8135L160.822 90.973L159.788 90.3805L159.725 90.3427L157.91 89.2837L157.834 89.2459L153.863 86.9515L153.749 86.8884L151.972 85.8547L151.858 85.7917L147.799 83.4468L147.749 83.4216L145.908 82.3627L145.858 82.3375L140.26 79.0976L139.769 78.8076L139.214 78.4925L138.193 77.8999L122.157 68.6467L120.796 67.8651L119.421 67.0709L102.831 57.4899C102.541 57.326 102.175 57.326 101.885 57.4899L101.835 57.5151L89.6696 64.6504C89.3796 64.8269 89.2031 65.1295 89.2031 65.4698C89.2031 65.8102 89.3796 66.1128 89.6696 66.2893L101.406 73.059L128.801 88.8803L130.175 89.6745L131.536 90.4561L131.713 90.557L133.604 91.6537L137.663 93.986L139.554 95.0827L143.639 97.4402L145.53 98.5369L147.345 99.5833L149.135 100.617L149.413 100.768L149.816 101.008L151.72 102.092L151.77 102.13L156.195 104.689L158.086 105.786L159.902 106.832C160.04 106.92 160.204 106.958 160.368 106.958C160.532 106.958 160.708 106.92 160.847 106.832L170.428 101.21L173.05 99.6715C173.34 99.4951 173.517 99.1925 173.517 98.8521C173.517 98.5117 173.34 98.2092 173.05 98.0327ZM168.89 99.9237L160.368 104.916L159.977 104.689L158.086 103.592L153.598 101.008L151.707 99.9111L148.581 98.1083L147.887 97.7049L147.434 97.4402L146.702 97.0242L145.53 96.3434L144.95 96.0156L141.445 93.9986L139.554 92.9018L135.495 90.557L133.617 89.4602L130.288 87.544L128.927 86.7624L127.553 85.9682L101.406 70.8781L92.027 65.4572L101.406 59.9608L102.365 59.4061L120.682 69.983L122.056 70.7772L123.405 71.5588L138.558 80.3078L139.643 80.9381L140.752 81.5685L141.017 81.7197L143.979 83.4342L144.017 83.4595L145.858 84.5184L145.908 84.5436L149.955 86.8884L150.081 86.9641L151.858 87.9852L151.972 88.0483L155.93 90.3427L156.019 90.3931L157.834 91.4394L157.91 91.4773L162.108 93.9103L163.999 95.0071L168.474 97.5915L170.378 98.6882L170.68 98.8647L168.878 99.9237H168.89Z" fill="#18181B"/>
<path d="M106.978 87.7075L110.243 89.5859V93.0653C109.499 93.5191 108.365 93.3931 107.255 92.7627C105.125 91.5273 103.31 88.4765 103.31 86.0938C103.31 83.7112 105.125 82.7657 107.255 84.0012C108.365 84.6441 109.499 85.8291 110.243 87.1402L109.096 87.6571C108.655 86.825 107.936 86.0434 107.255 85.6526C105.995 84.9214 104.936 85.5644 104.936 87.0393C104.936 88.5143 105.995 90.3801 107.255 91.1113C107.76 91.4012 108.277 91.5021 108.693 91.4012V90.1027L106.978 89.1068V87.6949V87.7075Z" fill="#18181B"/>
<path d="M114.996 90.5831V92.0959C113.836 91.4277 113.093 91.7555 113.093 92.9531V95.9913L111.529 95.0836V88.7173L113.093 89.625V90.81C113.458 90.1923 114.139 90.0914 114.996 90.5831Z" fill="#18181B"/>
<path d="M120.821 96.6462V100.453L119.308 99.5836V98.9406C118.917 99.2306 118.274 99.1297 117.682 98.7894C116.497 98.1086 115.589 96.7723 115.589 95.5495C115.589 94.2888 116.61 94.0241 117.896 94.7679C118.35 95.0326 118.841 95.4234 119.308 95.9025V95.7764C119.308 95.0956 118.942 94.3014 118.035 93.7719C117.518 93.4694 117.039 93.3937 116.597 93.3937L116.068 91.8936C116.85 91.8936 117.619 92.0827 118.388 92.5365C119.837 93.3685 120.821 94.9948 120.821 96.6462ZM119.308 97.5665V96.974C118.955 96.621 118.551 96.3059 118.11 96.0537C117.543 95.726 117.089 95.852 117.089 96.3689C117.089 96.8858 117.492 97.4405 118.022 97.743C118.627 98.096 119.194 98.096 119.295 97.5665H119.308Z" fill="#18181B"/>
<path d="M127.061 100.251V104.058L125.548 103.188V102.545C125.145 102.835 124.514 102.734 123.922 102.394C122.737 101.713 121.829 100.377 121.829 99.1542C121.829 97.8935 122.85 97.6288 124.136 98.3726C124.59 98.6373 125.082 99.0281 125.548 99.5072V99.3811C125.548 98.7004 125.182 97.9062 124.275 97.3767C123.758 97.0741 123.279 96.9985 122.838 96.9985L122.308 95.4983C123.09 95.4983 123.859 95.6874 124.628 96.1412C126.078 96.9733 127.061 98.5995 127.061 100.251ZM125.548 101.171V100.579C125.195 100.226 124.792 99.9106 124.35 99.6585C123.783 99.3307 123.329 99.4568 123.329 99.9736C123.329 100.491 123.733 101.045 124.262 101.348C124.867 101.701 125.435 101.701 125.535 101.171H125.548Z" fill="#18181B"/>
<path d="M128.385 96.2173L129.948 97.125V105.723L128.385 104.815V96.2173Z" fill="#18181B"/>
<path d="M138.558 102.242L135.557 108.961L133.78 107.94L130.779 97.7537L132.557 98.7874L134.675 105.961L136.793 101.22L138.57 102.242H138.558Z" fill="#18181B"/>
<path d="M139.491 102.786L141.067 103.694L143.349 109.796L145.63 106.329L147.219 107.249V115.708L145.63 114.788V109.518L143.349 112.985L141.067 106.884V112.153L139.491 111.245V102.786Z" fill="#18181B"/>
<path d="M160.381 153.929L172.572 146.768V98.8506L160.381 106.011V153.929Z" fill="#18181B" stroke="#18181B" stroke-width="1.891" stroke-linecap="round" stroke-linejoin="round"/>
<path d="M128.914 115.19L89.9971 137.919" stroke="#18181B" stroke-width="1.891" stroke-linecap="round" stroke-linejoin="round"/>
<path d="M130.094 113.41L118.056 120.444L119.01 122.077L131.048 115.042L130.094 113.41Z" fill="white"/>
<path d="M94.678 144.715C95.2313 140.574 89.7216 136.422 82.3718 135.44C75.0221 134.458 68.6155 137.018 68.0622 141.159C67.509 145.3 73.0187 149.452 80.3684 150.434C87.7182 151.416 94.1248 148.856 94.678 144.715Z" fill="#18181B" stroke="#18181B" stroke-width="1.891" stroke-linecap="round" stroke-linejoin="round"/>
<path d="M86.0486 143.561C86.2431 142.106 84.3062 140.646 81.7224 140.301C79.1387 139.955 76.8865 140.856 76.692 142.311C76.4975 143.767 78.4344 145.227 81.0181 145.572C83.6019 145.917 85.8541 145.017 86.0486 143.561Z" fill="#18181B" stroke="white" stroke-width="1.22818" stroke-linecap="round" stroke-linejoin="round"/>
</g>
<defs>
<clipPath id="clip0_681_15560">
<rect width="202.376" height="136" fill="white" transform="translate(67.0771 27.9395)"/>
</clipPath>
</defs>
</svg>
