<svg width="336" height="190" viewBox="0 0 336 190" fill="none" xmlns="http://www.w3.org/2000/svg">
<path d="M0 4.00001C0 1.79087 1.79086 0 4 0H332C334.209 0 336 1.79086 336 4V186C336 188.209 334.209 190 332 190H4C1.79087 190 0 188.209 0 186V4.00001Z" fill="#E4E4E7"/>
<g clip-path="url(#clip0_681_15557)">
<path d="M121.397 107.129C121.857 107.129 122.233 106.754 122.233 106.29C122.233 105.826 121.857 105.462 121.397 105.462C120.937 105.462 120.561 105.837 120.561 106.29C120.561 106.742 120.937 107.129 121.397 107.129Z" fill="#18181B"/>
<path d="M119.309 110.292C119.769 110.292 120.145 109.917 120.145 109.459C120.145 109 119.769 108.625 119.309 108.625C118.849 108.625 118.473 109 118.473 109.459C118.473 109.917 118.849 110.292 119.309 110.292Z" fill="#18181B"/>
<path d="M117.227 113.461C117.687 113.461 118.063 113.086 118.063 112.628C118.063 112.169 117.687 111.794 117.227 111.794C116.767 111.794 116.391 112.169 116.391 112.628C116.391 113.086 116.767 113.461 117.227 113.461Z" fill="#18181B"/>
<path d="M121.397 113.461C121.857 113.461 122.233 113.086 122.233 112.628C122.233 112.169 121.857 111.794 121.397 111.794C120.937 111.794 120.561 112.169 120.561 112.628C120.561 113.086 120.937 113.461 121.397 113.461Z" fill="#18181B"/>
<path d="M115.139 116.636C115.599 116.636 115.975 116.26 115.975 115.802C115.975 115.344 115.599 114.968 115.139 114.968C114.679 114.968 114.303 115.344 114.303 115.802C114.303 116.26 114.679 116.636 115.139 116.636Z" fill="#18181B"/>
<path d="M119.309 116.636C119.769 116.636 120.145 116.26 120.145 115.802C120.145 115.344 119.769 114.968 119.309 114.968C118.849 114.968 118.473 115.344 118.473 115.802C118.473 116.26 118.849 116.636 119.309 116.636Z" fill="#18181B"/>
<path d="M125.573 107.129C126.032 107.129 126.409 106.754 126.409 106.29C126.409 105.826 126.032 105.462 125.573 105.462C125.113 105.462 124.736 105.837 124.736 106.29C124.736 106.742 125.113 107.129 125.573 107.129Z" fill="#18181B"/>
<path d="M123.485 110.292C123.944 110.292 124.321 109.917 124.321 109.459C124.321 109 123.944 108.625 123.485 108.625C123.025 108.625 122.649 109 122.649 109.459C122.649 109.917 123.025 110.292 123.485 110.292Z" fill="#18181B"/>
<path d="M125.573 113.461C126.032 113.461 126.409 113.086 126.409 112.628C126.409 112.169 126.032 111.794 125.573 111.794C125.113 111.794 124.736 112.169 124.736 112.628C124.736 113.086 125.113 113.461 125.573 113.461Z" fill="#18181B"/>
<path d="M123.485 116.636C123.944 116.636 124.321 116.26 124.321 115.802C124.321 115.344 123.944 114.968 123.485 114.968C123.025 114.968 122.649 115.344 122.649 115.802C122.649 116.26 123.025 116.636 123.485 116.636Z" fill="#18181B"/>
<path d="M128.497 115.797C128.497 115.338 128.12 114.963 127.66 114.963C127.201 114.963 126.824 115.338 126.824 115.797C126.824 116.255 127.201 116.63 127.66 116.63C128.12 116.63 128.497 116.255 128.497 115.797Z" fill="#18181B"/>
<path d="M113.888 118.971C113.888 118.513 113.511 118.137 113.046 118.137C112.581 118.137 112.215 118.513 112.215 118.971C112.215 119.429 112.592 119.804 113.046 119.804C113.5 119.804 113.888 119.429 113.888 118.971Z" fill="#18181B"/>
<path d="M117.227 119.804C117.687 119.804 118.063 119.429 118.063 118.971C118.063 118.513 117.687 118.137 117.227 118.137C116.767 118.137 116.391 118.513 116.391 118.971C116.391 119.429 116.767 119.804 117.227 119.804Z" fill="#18181B"/>
<path d="M121.397 119.804C121.857 119.804 122.233 119.429 122.233 118.971C122.233 118.513 121.857 118.137 121.397 118.137C120.937 118.137 120.561 118.513 120.561 118.971C120.561 119.429 120.937 119.804 121.397 119.804Z" fill="#18181B"/>
<path d="M115.139 122.973C115.601 122.973 115.975 122.6 115.975 122.14C115.975 121.679 115.601 121.306 115.139 121.306C114.677 121.306 114.303 121.679 114.303 122.14C114.303 122.6 114.677 122.973 115.139 122.973Z" fill="#18181B"/>
<path d="M119.309 122.973C119.769 122.973 120.145 122.598 120.145 122.14C120.145 121.682 119.769 121.306 119.309 121.306C118.849 121.306 118.473 121.682 118.473 122.14C118.473 122.598 118.849 122.973 119.309 122.973Z" fill="#18181B"/>
<path d="M117.227 126.142C117.687 126.142 118.063 125.767 118.063 125.309C118.063 124.851 117.687 124.475 117.227 124.475C116.767 124.475 116.391 124.851 116.391 125.309C116.391 125.767 116.767 126.142 117.227 126.142Z" fill="#18181B"/>
<path d="M121.397 130.807C120.937 130.807 120.561 131.183 120.561 131.641C120.561 132.099 120.937 132.475 121.397 132.475C121.857 132.475 122.233 132.099 122.233 131.641C122.233 131.183 121.857 130.807 121.397 130.807Z" fill="#18181B"/>
<path d="M125.573 119.804C126.032 119.804 126.409 119.429 126.409 118.971C126.409 118.513 126.032 118.137 125.573 118.137C125.113 118.137 124.736 118.513 124.736 118.971C124.736 119.429 125.113 119.804 125.573 119.804Z" fill="#18181B"/>
<path d="M123.485 122.973C123.944 122.973 124.321 122.598 124.321 122.14C124.321 121.682 123.944 121.306 123.485 121.306C123.025 121.306 122.649 121.682 122.649 122.14C122.649 122.598 123.025 122.973 123.485 122.973Z" fill="#18181B"/>
<path d="M129.748 124.475C129.289 124.475 128.912 124.851 128.912 125.309C128.912 125.767 129.289 126.142 129.748 126.142C130.208 126.142 130.584 125.767 130.584 125.309C130.584 124.851 130.208 124.475 129.748 124.475Z" fill="#18181B"/>
<path d="M133.918 124.475C133.459 124.475 133.082 124.851 133.082 125.309C133.082 125.767 133.459 126.142 133.918 126.142C134.378 126.142 134.754 125.767 134.754 125.309C134.754 124.851 134.378 124.475 133.918 124.475Z" fill="#18181B"/>
<path d="M138.094 124.475C137.634 124.475 137.258 124.851 137.258 125.309C137.258 125.767 137.634 126.142 138.094 126.142C138.554 126.142 138.93 125.767 138.93 125.309C138.93 124.851 138.554 124.475 138.094 124.475Z" fill="#18181B"/>
<path d="M123.485 127.638C123.025 127.638 122.649 128.014 122.649 128.472C122.649 128.93 123.025 129.306 123.485 129.306C123.944 129.306 124.321 128.93 124.321 128.472C124.321 128.014 123.944 127.638 123.485 127.638Z" fill="#18181B"/>
<path d="M127.66 127.638C127.201 127.638 126.824 128.014 126.824 128.472C126.824 128.93 127.201 129.306 127.66 129.306C128.12 129.306 128.497 128.93 128.497 128.472C128.497 128.014 128.12 127.638 127.66 127.638Z" fill="#18181B"/>
<path d="M131.83 127.638C131.371 127.638 130.994 128.014 130.994 128.472C130.994 128.93 131.371 129.306 131.83 129.306C132.29 129.306 132.667 128.93 132.667 128.472C132.667 128.014 132.29 127.638 131.83 127.638Z" fill="#18181B"/>
<path d="M136.006 127.638C135.546 127.638 135.17 128.014 135.17 128.472C135.17 128.93 135.546 129.306 136.006 129.306C136.466 129.306 136.842 128.93 136.842 128.472C136.842 128.014 136.466 127.638 136.006 127.638Z" fill="#18181B"/>
<path d="M140.176 127.638C139.717 127.638 139.34 128.014 139.34 128.472C139.34 128.93 139.717 129.306 140.176 129.306C140.636 129.306 141.012 128.93 141.012 128.472C141.012 128.014 140.636 127.638 140.176 127.638Z" fill="#18181B"/>
<path d="M125.573 130.807C125.113 130.807 124.736 131.183 124.736 131.641C124.736 132.099 125.113 132.475 125.573 132.475C126.032 132.475 126.409 132.099 126.409 131.641C126.409 131.183 126.032 130.807 125.573 130.807Z" fill="#18181B"/>
<path d="M129.748 130.807C129.289 130.807 128.912 131.183 128.912 131.641C128.912 132.099 129.289 132.475 129.748 132.475C130.208 132.475 130.584 132.099 130.584 131.641C130.584 131.183 130.208 130.807 129.748 130.807Z" fill="#18181B"/>
<path d="M133.918 130.807C133.459 130.807 133.082 131.183 133.082 131.641C133.082 132.099 133.459 132.475 133.918 132.475C134.378 132.475 134.754 132.099 134.754 131.641C134.754 131.183 134.378 130.807 133.918 130.807Z" fill="#18181B"/>
<path d="M138.094 130.807C137.634 130.807 137.258 131.183 137.258 131.641C137.258 132.099 137.634 132.475 138.094 132.475C138.554 132.475 138.93 132.099 138.93 131.641C138.93 131.183 138.554 130.807 138.094 130.807Z" fill="#18181B"/>
<path d="M142.269 130.807C141.81 130.807 141.433 131.183 141.433 131.641C141.433 132.099 141.81 132.475 142.269 132.475C142.729 132.475 143.106 132.099 143.106 131.641C143.106 131.183 142.729 130.807 142.269 130.807Z" fill="#18181B"/>
<path d="M146.44 130.807C145.98 130.807 145.603 131.183 145.603 131.641C145.603 132.099 145.98 132.475 146.44 132.475C146.899 132.475 147.276 132.099 147.276 131.641C147.276 131.183 146.899 130.807 146.44 130.807Z" fill="#18181B"/>
<path d="M204.871 130.807C204.411 130.807 204.034 131.183 204.034 131.641C204.034 132.099 204.411 132.475 204.871 132.475C205.33 132.475 205.707 132.099 205.707 131.641C205.707 131.183 205.33 130.807 204.871 130.807Z" fill="#18181B"/>
<path d="M127.66 133.976C127.201 133.976 126.824 134.351 126.824 134.81C126.824 135.268 127.201 135.643 127.66 135.643C128.12 135.643 128.497 135.268 128.497 134.81C128.497 134.351 128.12 133.976 127.66 133.976Z" fill="#18181B"/>
<path d="M131.83 133.976C131.371 133.976 130.994 134.351 130.994 134.81C130.994 135.268 131.371 135.643 131.83 135.643C132.29 135.643 132.667 135.268 132.667 134.81C132.667 134.351 132.29 133.976 131.83 133.976Z" fill="#18181B"/>
<path d="M136.006 133.976C135.546 133.976 135.17 134.351 135.17 134.81C135.17 135.268 135.546 135.643 136.006 135.643C136.466 135.643 136.842 135.268 136.842 134.81C136.842 134.351 136.466 133.976 136.006 133.976Z" fill="#18181B"/>
<path d="M140.176 133.976C139.717 133.976 139.34 134.351 139.34 134.81C139.34 135.268 139.717 135.643 140.176 135.643C140.636 135.643 141.012 135.268 141.012 134.81C141.012 134.351 140.636 133.976 140.176 133.976Z" fill="#18181B"/>
<path d="M144.352 133.976C143.892 133.976 143.516 134.351 143.516 134.81C143.516 135.268 143.892 135.643 144.352 135.643C144.811 135.643 145.188 135.268 145.188 134.81C145.188 134.351 144.811 133.976 144.352 133.976Z" fill="#18181B"/>
<path d="M148.527 133.976C148.068 133.976 147.691 134.351 147.691 134.81C147.691 135.268 148.068 135.643 148.527 135.643C148.987 135.643 149.364 135.268 149.364 134.81C149.364 134.351 148.987 133.976 148.527 133.976Z" fill="#18181B"/>
<path d="M152.697 133.976C152.238 133.976 151.861 134.351 151.861 134.81C151.861 135.268 152.238 135.643 152.697 135.643C153.157 135.643 153.534 135.268 153.534 134.81C153.534 134.351 153.157 133.976 152.697 133.976Z" fill="#18181B"/>
<path d="M202.788 133.976C202.329 133.976 201.952 134.351 201.952 134.81C201.952 135.268 202.329 135.643 202.788 135.643C203.248 135.643 203.624 135.268 203.624 134.81C203.624 134.351 203.248 133.976 202.788 133.976Z" fill="#18181B"/>
<path d="M206.958 133.976C206.499 133.976 206.122 134.351 206.122 134.81C206.122 135.268 206.499 135.643 206.958 135.643C207.418 135.643 207.795 135.268 207.795 134.81C207.795 134.351 207.418 133.976 206.958 133.976Z" fill="#18181B"/>
<path d="M133.918 137.145C133.459 137.145 133.082 137.52 133.082 137.979C133.082 138.437 133.459 138.812 133.918 138.812C134.378 138.812 134.754 138.437 134.754 137.979C134.754 137.52 134.378 137.145 133.918 137.145Z" fill="#18181B"/>
<path d="M138.094 137.145C137.634 137.145 137.258 137.52 137.258 137.979C137.258 138.437 137.634 138.812 138.094 138.812C138.554 138.812 138.93 138.437 138.93 137.979C138.93 137.52 138.554 137.145 138.094 137.145Z" fill="#18181B"/>
<path d="M142.269 137.145C141.81 137.145 141.433 137.52 141.433 137.979C141.433 138.437 141.81 138.812 142.269 138.812C142.729 138.812 143.106 138.437 143.106 137.979C143.106 137.52 142.729 137.145 142.269 137.145Z" fill="#18181B"/>
<path d="M146.44 138.818C146.901 138.818 147.276 138.445 147.276 137.984C147.276 137.524 146.901 137.151 146.44 137.151C145.978 137.151 145.603 137.524 145.603 137.984C145.603 138.445 145.978 138.818 146.44 138.818Z" fill="#18181B"/>
<path d="M150.615 137.145C150.156 137.145 149.779 137.52 149.779 137.979C149.779 138.437 150.156 138.812 150.615 138.812C151.075 138.812 151.451 138.437 151.451 137.979C151.451 137.52 151.075 137.145 150.615 137.145Z" fill="#18181B"/>
<path d="M154.791 137.145C154.331 137.145 153.955 137.52 153.955 137.979C153.955 138.437 154.331 138.812 154.791 138.812C155.25 138.812 155.627 138.437 155.627 137.979C155.627 137.52 155.25 137.145 154.791 137.145Z" fill="#18181B"/>
<path d="M158.961 137.145C158.501 137.145 158.125 137.52 158.125 137.979C158.125 138.437 158.501 138.812 158.961 138.812C159.421 138.812 159.797 138.437 159.797 137.979C159.797 137.52 159.421 137.145 158.961 137.145Z" fill="#18181B"/>
<path d="M200.7 138.818C201.162 138.818 201.537 138.445 201.537 137.984C201.537 137.524 201.162 137.151 200.7 137.151C200.239 137.151 199.864 137.524 199.864 137.984C199.864 138.445 200.239 138.818 200.7 138.818Z" fill="#18181B"/>
<path d="M204.871 137.145C204.411 137.145 204.034 137.52 204.034 137.979C204.034 138.437 204.411 138.812 204.871 138.812C205.33 138.812 205.707 138.437 205.707 137.979C205.707 137.52 205.33 137.145 204.871 137.145Z" fill="#18181B"/>
<path d="M209.046 137.145C208.586 137.145 208.21 137.52 208.21 137.979C208.21 138.437 208.586 138.812 209.046 138.812C209.506 138.812 209.882 138.437 209.882 137.979C209.882 137.52 209.506 137.145 209.046 137.145Z" fill="#18181B"/>
<path d="M140.176 140.319C139.717 140.319 139.34 140.695 139.34 141.153C139.34 141.611 139.717 141.987 140.176 141.987C140.636 141.987 141.012 141.611 141.012 141.153C141.012 140.695 140.636 140.319 140.176 140.319Z" fill="#18181B"/>
<path d="M144.352 140.319C143.892 140.319 143.516 140.695 143.516 141.153C143.516 141.611 143.892 141.987 144.352 141.987C144.811 141.987 145.188 141.611 145.188 141.153C145.188 140.695 144.811 140.319 144.352 140.319Z" fill="#18181B"/>
<path d="M148.527 140.319C148.068 140.319 147.691 140.695 147.691 141.153C147.691 141.611 148.068 141.987 148.527 141.987C148.987 141.987 149.364 141.611 149.364 141.153C149.364 140.695 148.987 140.319 148.527 140.319Z" fill="#18181B"/>
<path d="M152.697 140.319C152.238 140.319 151.861 140.695 151.861 141.153C151.861 141.611 152.238 141.987 152.697 141.987C153.157 141.987 153.534 141.611 153.534 141.153C153.534 140.695 153.157 140.319 152.697 140.319Z" fill="#18181B"/>
<path d="M156.873 140.319C156.413 140.319 156.042 140.695 156.042 141.153C156.042 141.611 156.419 141.987 156.873 141.987C157.327 141.987 157.709 141.611 157.709 141.153C157.709 140.695 157.333 140.319 156.873 140.319Z" fill="#18181B"/>
<path d="M161.049 140.319C160.589 140.319 160.207 140.695 160.207 141.153C160.207 141.611 160.583 141.987 161.049 141.987C161.514 141.987 161.879 141.611 161.879 141.153C161.879 140.695 161.503 140.319 161.049 140.319Z" fill="#18181B"/>
<path d="M165.219 140.319C164.759 140.319 164.388 140.695 164.388 141.153C164.388 141.611 164.765 141.987 165.219 141.987C165.673 141.987 166.061 141.611 166.061 141.153C166.061 140.695 165.684 140.319 165.219 140.319Z" fill="#18181B"/>
<path d="M198.613 140.319C198.153 140.319 197.776 140.695 197.776 141.153C197.776 141.611 198.153 141.987 198.613 141.987C199.072 141.987 199.449 141.611 199.449 141.153C199.449 140.695 199.072 140.319 198.613 140.319Z" fill="#18181B"/>
<path d="M202.788 140.319C202.329 140.319 201.952 140.695 201.952 141.153C201.952 141.611 202.329 141.987 202.788 141.987C203.248 141.987 203.624 141.611 203.624 141.153C203.624 140.695 203.248 140.319 202.788 140.319Z" fill="#18181B"/>
<path d="M206.958 140.319C206.499 140.319 206.122 140.695 206.122 141.153C206.122 141.611 206.499 141.987 206.958 141.987C207.418 141.987 207.795 141.611 207.795 141.153C207.795 140.695 207.418 140.319 206.958 140.319Z" fill="#18181B"/>
<path d="M211.134 140.319C210.674 140.319 210.298 140.695 210.298 141.153C210.298 141.611 210.674 141.987 211.134 141.987C211.593 141.987 211.97 141.611 211.97 141.153C211.97 140.695 211.593 140.319 211.134 140.319Z" fill="#18181B"/>
<path d="M142.269 143.488C141.81 143.488 141.433 143.864 141.433 144.322C141.433 144.78 141.81 145.156 142.269 145.156C142.729 145.156 143.106 144.78 143.106 144.322C143.106 143.864 142.729 143.488 142.269 143.488Z" fill="#18181B"/>
<path d="M146.44 143.488C145.98 143.488 145.603 143.864 145.603 144.322C145.603 144.78 145.98 145.156 146.44 145.156C146.899 145.156 147.276 144.78 147.276 144.322C147.276 143.864 146.899 143.488 146.44 143.488Z" fill="#18181B"/>
<path d="M150.615 143.488C150.156 143.488 149.779 143.864 149.779 144.322C149.779 144.78 150.156 145.156 150.615 145.156C151.075 145.156 151.451 144.78 151.451 144.322C151.451 143.864 151.075 143.488 150.615 143.488Z" fill="#18181B"/>
<path d="M154.791 143.488C154.331 143.488 153.955 143.864 153.955 144.322C153.955 144.78 154.331 145.156 154.791 145.156C155.25 145.156 155.627 144.78 155.627 144.322C155.627 143.864 155.25 143.488 154.791 143.488Z" fill="#18181B"/>
<path d="M158.961 143.488C158.501 143.488 158.125 143.864 158.125 144.322C158.125 144.78 158.501 145.156 158.961 145.156C159.421 145.156 159.797 144.78 159.797 144.322C159.797 143.864 159.421 143.488 158.961 143.488Z" fill="#18181B"/>
<path d="M163.137 143.488C162.677 143.488 162.3 143.864 162.3 144.322C162.3 144.78 162.677 145.156 163.137 145.156C163.596 145.156 163.973 144.78 163.973 144.322C163.973 143.864 163.596 143.488 163.137 143.488Z" fill="#18181B"/>
<path d="M167.307 143.488C166.847 143.488 166.47 143.864 166.47 144.322C166.47 144.78 166.847 145.156 167.307 145.156C167.766 145.156 168.143 144.78 168.143 144.322C168.143 143.864 167.766 143.488 167.307 143.488Z" fill="#18181B"/>
<path d="M171.482 143.488C171.023 143.488 170.646 143.864 170.646 144.322C170.646 144.78 171.023 145.156 171.482 145.156C171.942 145.156 172.318 144.78 172.318 144.322C172.318 143.864 171.942 143.488 171.482 143.488Z" fill="#18181B"/>
<path d="M192.349 143.488C191.89 143.488 191.513 143.864 191.513 144.322C191.513 144.78 191.89 145.156 192.349 145.156C192.809 145.156 193.185 144.78 193.185 144.322C193.185 143.864 192.809 143.488 192.349 143.488Z" fill="#18181B"/>
<path d="M196.525 143.488C196.065 143.488 195.689 143.864 195.689 144.322C195.689 144.78 196.065 145.156 196.525 145.156C196.984 145.156 197.361 144.78 197.361 144.322C197.361 143.864 196.984 143.488 196.525 143.488Z" fill="#18181B"/>
<path d="M200.7 143.488C200.241 143.488 199.864 143.864 199.864 144.322C199.864 144.78 200.241 145.156 200.7 145.156C201.16 145.156 201.537 144.78 201.537 144.322C201.537 143.864 201.16 143.488 200.7 143.488Z" fill="#18181B"/>
<path d="M204.871 143.488C204.411 143.488 204.034 143.864 204.034 144.322C204.034 144.78 204.411 145.156 204.871 145.156C205.33 145.156 205.707 144.78 205.707 144.322C205.707 143.864 205.33 143.488 204.871 143.488Z" fill="#18181B"/>
<path d="M209.046 143.488C208.586 143.488 208.21 143.864 208.21 144.322C208.21 144.78 208.586 145.156 209.046 145.156C209.506 145.156 209.882 144.78 209.882 144.322C209.882 143.864 209.506 143.488 209.046 143.488Z" fill="#18181B"/>
<path d="M148.527 146.652C148.068 146.652 147.691 147.027 147.691 147.491C147.691 147.954 148.068 148.319 148.527 148.319C148.987 148.319 149.364 147.943 149.364 147.491C149.364 147.038 148.987 146.652 148.527 146.652Z" fill="#18181B"/>
<path d="M152.697 146.652C152.238 146.652 151.861 147.027 151.861 147.491C151.861 147.954 152.238 148.319 152.697 148.319C153.157 148.319 153.534 147.943 153.534 147.491C153.534 147.038 153.157 146.652 152.697 146.652Z" fill="#18181B"/>
<path d="M156.873 146.652C156.413 146.652 156.042 147.027 156.042 147.491C156.042 147.954 156.419 148.319 156.873 148.319C157.327 148.319 157.709 147.943 157.709 147.491C157.709 147.038 157.333 146.652 156.873 146.652Z" fill="#18181B"/>
<path d="M161.049 146.652C160.589 146.652 160.207 147.027 160.207 147.491C160.207 147.954 160.583 148.319 161.049 148.319C161.514 148.319 161.879 147.943 161.879 147.491C161.879 147.038 161.503 146.652 161.049 146.652Z" fill="#18181B"/>
<path d="M165.219 146.652C164.759 146.652 164.388 147.027 164.388 147.491C164.388 147.954 164.765 148.319 165.219 148.319C165.673 148.319 166.061 147.943 166.061 147.491C166.061 147.038 165.684 146.652 165.219 146.652Z" fill="#18181B"/>
<path d="M169.4 146.652C168.94 146.652 168.558 147.027 168.558 147.491C168.558 147.954 168.935 148.319 169.4 148.319C169.865 148.319 170.231 147.943 170.231 147.491C170.231 147.038 169.854 146.652 169.4 146.652Z" fill="#18181B"/>
<path d="M173.57 146.652C173.11 146.652 172.739 147.027 172.739 147.491C172.739 147.954 173.116 148.319 173.57 148.319C174.024 148.319 174.412 147.943 174.412 147.491C174.412 147.038 174.035 146.652 173.57 146.652Z" fill="#18181B"/>
<path d="M186.091 146.652C185.632 146.652 185.255 147.027 185.255 147.491C185.255 147.954 185.632 148.319 186.091 148.319C186.551 148.319 186.928 147.943 186.928 147.491C186.928 147.038 186.551 146.652 186.091 146.652Z" fill="#18181B"/>
<path d="M190.267 146.652C189.807 146.652 189.431 147.027 189.431 147.491C189.431 147.954 189.807 148.319 190.267 148.319C190.727 148.319 191.103 147.943 191.103 147.491C191.103 147.038 190.727 146.652 190.267 146.652Z" fill="#18181B"/>
<path d="M194.437 146.652C193.977 146.652 193.601 147.027 193.601 147.491C193.601 147.954 193.977 148.319 194.437 148.319C194.897 148.319 195.273 147.943 195.273 147.491C195.273 147.038 194.897 146.652 194.437 146.652Z" fill="#18181B"/>
<path d="M198.613 146.652C198.153 146.652 197.776 147.027 197.776 147.491C197.776 147.954 198.153 148.319 198.613 148.319C199.072 148.319 199.449 147.943 199.449 147.491C199.449 147.038 199.072 146.652 198.613 146.652Z" fill="#18181B"/>
<path d="M202.788 146.652C202.329 146.652 201.952 147.027 201.952 147.491C201.952 147.954 202.329 148.319 202.788 148.319C203.248 148.319 203.624 147.943 203.624 147.491C203.624 147.038 203.248 146.652 202.788 146.652Z" fill="#18181B"/>
<path d="M206.958 146.652C206.499 146.652 206.122 147.027 206.122 147.491C206.122 147.954 206.499 148.319 206.958 148.319C207.418 148.319 207.795 147.943 207.795 147.491C207.795 147.038 207.418 146.652 206.958 146.652Z" fill="#18181B"/>
<path d="M154.791 149.821C154.331 149.821 153.955 150.196 153.955 150.654C153.955 151.112 154.331 151.488 154.791 151.488C155.25 151.488 155.627 151.112 155.627 150.654C155.627 150.196 155.25 149.821 154.791 149.821Z" fill="#18181B"/>
<path d="M158.961 149.821C158.501 149.821 158.125 150.196 158.125 150.654C158.125 151.112 158.501 151.488 158.961 151.488C159.421 151.488 159.797 151.112 159.797 150.654C159.797 150.196 159.421 149.821 158.961 149.821Z" fill="#18181B"/>
<path d="M163.137 149.821C162.677 149.821 162.3 150.196 162.3 150.654C162.3 151.112 162.677 151.488 163.137 151.488C163.596 151.488 163.973 151.112 163.973 150.654C163.973 150.196 163.596 149.821 163.137 149.821Z" fill="#18181B"/>
<path d="M167.307 151.488C167.768 151.488 168.143 151.115 168.143 150.654C168.143 150.194 167.768 149.821 167.307 149.821C166.845 149.821 166.47 150.194 166.47 150.654C166.47 151.115 166.845 151.488 167.307 151.488Z" fill="#18181B"/>
<path d="M171.482 149.821C171.023 149.821 170.646 150.196 170.646 150.654C170.646 151.112 171.023 151.488 171.482 151.488C171.942 151.488 172.318 151.112 172.318 150.654C172.318 150.196 171.942 149.821 171.482 149.821Z" fill="#18181B"/>
<path d="M175.658 149.821C175.198 149.821 174.822 150.196 174.822 150.654C174.822 151.112 175.198 151.488 175.658 151.488C176.117 151.488 176.494 151.112 176.494 150.654C176.494 150.196 176.117 149.821 175.658 149.821Z" fill="#18181B"/>
<path d="M179.828 151.488C180.29 151.488 180.664 151.115 180.664 150.654C180.664 150.194 180.29 149.821 179.828 149.821C179.366 149.821 178.992 150.194 178.992 150.654C178.992 151.115 179.366 151.488 179.828 151.488Z" fill="#18181B"/>
<path d="M184.003 149.821C183.544 149.821 183.167 150.196 183.167 150.654C183.167 151.112 183.544 151.488 184.003 151.488C184.463 151.488 184.84 151.112 184.84 150.654C184.84 150.196 184.463 149.821 184.003 149.821Z" fill="#18181B"/>
<path d="M188.179 149.821C187.719 149.821 187.343 150.196 187.343 150.654C187.343 151.112 187.719 151.488 188.179 151.488C188.639 151.488 189.015 151.112 189.015 150.654C189.015 150.196 188.639 149.821 188.179 149.821Z" fill="#18181B"/>
<path d="M192.349 149.821C191.89 149.821 191.513 150.196 191.513 150.654C191.513 151.112 191.89 151.488 192.349 151.488C192.809 151.488 193.185 151.112 193.185 150.654C193.185 150.196 192.809 149.821 192.349 149.821Z" fill="#18181B"/>
<path d="M196.525 149.821C196.065 149.821 195.689 150.196 195.689 150.654C195.689 151.112 196.065 151.488 196.525 151.488C196.984 151.488 197.361 151.112 197.361 150.654C197.361 150.196 196.984 149.821 196.525 149.821Z" fill="#18181B"/>
<path d="M200.7 151.488C201.162 151.488 201.537 151.115 201.537 150.654C201.537 150.194 201.162 149.821 200.7 149.821C200.239 149.821 199.864 150.194 199.864 150.654C199.864 151.115 200.239 151.488 200.7 151.488Z" fill="#18181B"/>
<path d="M204.871 149.821C204.411 149.821 204.034 150.196 204.034 150.654C204.034 151.112 204.411 151.488 204.871 151.488C205.33 151.488 205.707 151.112 205.707 150.654C205.707 150.196 205.33 149.821 204.871 149.821Z" fill="#18181B"/>
<path d="M161.049 152.99C160.589 152.99 160.207 153.365 160.207 153.823C160.207 154.281 160.583 154.657 161.049 154.657C161.514 154.657 161.879 154.281 161.879 153.823C161.879 153.365 161.503 152.99 161.049 152.99Z" fill="#18181B"/>
<path d="M165.219 152.99C164.759 152.99 164.388 153.365 164.388 153.823C164.388 154.281 164.765 154.657 165.219 154.657C165.673 154.657 166.061 154.281 166.061 153.823C166.061 153.365 165.684 152.99 165.219 152.99Z" fill="#18181B"/>
<path d="M169.4 152.99C168.94 152.99 168.558 153.365 168.558 153.823C168.558 154.281 168.935 154.657 169.4 154.657C169.865 154.657 170.231 154.281 170.231 153.823C170.231 153.365 169.854 152.99 169.4 152.99Z" fill="#18181B"/>
<path d="M173.57 152.99C173.11 152.99 172.739 153.365 172.739 153.823C172.739 154.281 173.116 154.657 173.57 154.657C174.024 154.657 174.412 154.281 174.412 153.823C174.412 153.365 174.035 152.99 173.57 152.99Z" fill="#18181B"/>
<path d="M177.746 152.99C177.286 152.99 176.909 153.365 176.909 153.823C176.909 154.281 177.286 154.657 177.746 154.657C178.205 154.657 178.576 154.281 178.576 153.823C178.576 153.365 178.2 152.99 177.746 152.99Z" fill="#18181B"/>
<path d="M181.916 152.99C181.456 152.99 181.079 153.365 181.079 153.823C181.079 154.281 181.456 154.657 181.916 154.657C182.375 154.657 182.752 154.281 182.752 153.823C182.752 153.365 182.375 152.99 181.916 152.99Z" fill="#18181B"/>
<path d="M186.091 152.99C185.632 152.99 185.255 153.365 185.255 153.823C185.255 154.281 185.632 154.657 186.091 154.657C186.551 154.657 186.928 154.281 186.928 153.823C186.928 153.365 186.551 152.99 186.091 152.99Z" fill="#18181B"/>
<path d="M190.267 152.99C189.807 152.99 189.431 153.365 189.431 153.823C189.431 154.281 189.807 154.657 190.267 154.657C190.727 154.657 191.103 154.281 191.103 153.823C191.103 153.365 190.727 152.99 190.267 152.99Z" fill="#18181B"/>
<path d="M194.437 152.99C193.977 152.99 193.601 153.365 193.601 153.823C193.601 154.281 193.977 154.657 194.437 154.657C194.897 154.657 195.273 154.281 195.273 153.823C195.273 153.365 194.897 152.99 194.437 152.99Z" fill="#18181B"/>
<path d="M198.613 152.99C198.153 152.99 197.776 153.365 197.776 153.823C197.776 154.281 198.153 154.657 198.613 154.657C199.072 154.657 199.449 154.281 199.449 153.823C199.449 153.365 199.072 152.99 198.613 152.99Z" fill="#18181B"/>
<path d="M202.788 152.99C202.329 152.99 201.952 153.365 201.952 153.823C201.952 154.281 202.329 154.657 202.788 154.657C203.248 154.657 203.624 154.281 203.624 153.823C203.624 153.365 203.248 152.99 202.788 152.99Z" fill="#18181B"/>
<path d="M167.307 156.158C166.847 156.158 166.47 156.534 166.47 156.992C166.47 157.45 166.847 157.826 167.307 157.826C167.766 157.826 168.143 157.45 168.143 156.992C168.143 156.534 167.766 156.158 167.307 156.158Z" fill="#18181B"/>
<path d="M171.482 156.158C171.023 156.158 170.646 156.534 170.646 156.992C170.646 157.45 171.023 157.826 171.482 157.826C171.942 157.826 172.318 157.45 172.318 156.992C172.318 156.534 171.942 156.158 171.482 156.158Z" fill="#18181B"/>
<path d="M175.658 156.158C175.198 156.158 174.822 156.534 174.822 156.992C174.822 157.45 175.198 157.826 175.658 157.826C176.117 157.826 176.494 157.45 176.494 156.992C176.494 156.534 176.117 156.158 175.658 156.158Z" fill="#18181B"/>
<path d="M179.828 156.158C179.368 156.158 178.992 156.534 178.992 156.992C178.992 157.45 179.368 157.826 179.828 157.826C180.288 157.826 180.664 157.45 180.664 156.992C180.664 156.534 180.288 156.158 179.828 156.158Z" fill="#18181B"/>
<path d="M184.003 156.158C183.544 156.158 183.167 156.534 183.167 156.992C183.167 157.45 183.544 157.826 184.003 157.826C184.463 157.826 184.84 157.45 184.84 156.992C184.84 156.534 184.463 156.158 184.003 156.158Z" fill="#18181B"/>
<path d="M188.179 156.158C187.719 156.158 187.343 156.534 187.343 156.992C187.343 157.45 187.719 157.826 188.179 157.826C188.639 157.826 189.015 157.45 189.015 156.992C189.015 156.534 188.639 156.158 188.179 156.158Z" fill="#18181B"/>
<path d="M192.349 156.158C191.89 156.158 191.513 156.534 191.513 156.992C191.513 157.45 191.89 157.826 192.349 157.826C192.809 157.826 193.185 157.45 193.185 156.992C193.185 156.534 192.809 156.158 192.349 156.158Z" fill="#18181B"/>
<path d="M196.525 156.158C196.065 156.158 195.689 156.534 195.689 156.992C195.689 157.45 196.065 157.826 196.525 157.826C196.984 157.826 197.361 157.45 197.361 156.992C197.361 156.534 196.984 156.158 196.525 156.158Z" fill="#18181B"/>
<path d="M200.7 156.158C200.241 156.158 199.864 156.534 199.864 156.992C199.864 157.45 200.241 157.826 200.7 157.826C201.16 157.826 201.537 157.45 201.537 156.992C201.537 156.534 201.16 156.158 200.7 156.158Z" fill="#18181B"/>
<path d="M173.57 159.327C173.11 159.327 172.739 159.703 172.739 160.161C172.739 160.619 173.116 160.994 173.57 160.994C174.024 160.994 174.412 160.619 174.412 160.161C174.412 159.703 174.035 159.327 173.57 159.327Z" fill="#18181B"/>
<path d="M177.746 159.327C177.286 159.327 176.909 159.703 176.909 160.161C176.909 160.619 177.286 160.994 177.746 160.994C178.205 160.994 178.576 160.619 178.576 160.161C178.576 159.703 178.2 159.327 177.746 159.327Z" fill="#18181B"/>
<path d="M181.916 159.327C181.456 159.327 181.079 159.703 181.079 160.161C181.079 160.619 181.456 160.994 181.916 160.994C182.375 160.994 182.752 160.619 182.752 160.161C182.752 159.703 182.375 159.327 181.916 159.327Z" fill="#18181B"/>
<path d="M186.091 159.327C185.632 159.327 185.255 159.703 185.255 160.161C185.255 160.619 185.632 160.994 186.091 160.994C186.551 160.994 186.928 160.619 186.928 160.161C186.928 159.703 186.551 159.327 186.091 159.327Z" fill="#18181B"/>
<path d="M190.267 159.327C189.807 159.327 189.431 159.703 189.431 160.161C189.431 160.619 189.807 160.994 190.267 160.994C190.727 160.994 191.103 160.619 191.103 160.161C191.103 159.703 190.727 159.327 190.267 159.327Z" fill="#18181B"/>
<path d="M194.437 159.327C193.977 159.327 193.601 159.703 193.601 160.161C193.601 160.619 193.977 160.994 194.437 160.994C194.897 160.994 195.273 160.619 195.273 160.161C195.273 159.703 194.897 159.327 194.437 159.327Z" fill="#18181B"/>
<path d="M260.1 86.1946L246.76 83.2134L235.108 89.921L237.007 100.333L250.343 103.309L262 96.6011L260.1 86.189V86.1946ZM249.927 100.604L239.222 98.2131L237.954 91.235L247.175 85.924L257.88 88.32L259.148 95.2927L249.927 100.604Z" fill="#18181B"/>
<path d="M227.532 86.062L220.377 84.4666L214.091 88.0826L215.177 94.0284L222.332 95.6239L228.617 92.0078L227.532 86.0676V86.062ZM221.911 92.9077L217.386 91.8974L216.932 89.391L220.787 87.1717L225.311 88.182L225.765 90.6829L221.911 92.9022V92.9077Z" fill="#18181B"/>
<path d="M221.7 70.1845L222.98 77.2123L232.699 79.382L241.139 74.5293L239.859 67.5014L230.14 65.3318L221.7 70.1845Z" fill="#18181B"/>
<path d="M230.683 106.257L225.837 109.045L226.568 113.086L232.156 114.333L237.002 111.54L236.265 107.504L230.683 106.257Z" fill="#18181B"/>
<path d="M203.923 119.827L180.581 66.0882L170.308 60.1865V72.0616C180.127 82.2859 186.451 95.9496 186.451 107.002C186.451 114.024 183.871 119.357 179.174 122.029C173.548 125.237 165.501 124.238 157.106 119.297C153.894 117.403 150.809 115.04 147.935 112.346L135.513 119.495L181.312 145.857L203.923 119.832V119.827Z" fill="white"/>
<path d="M146.035 110.486C136.067 100.311 129.072 86.2664 129.072 74.7281C129.072 68.9534 130.8 64.3271 134.068 61.357C136.709 58.9555 140.198 57.7464 144.285 57.8568V45.1703L134.206 39.4011L111.595 65.4257L134.145 117.331L146.035 110.486Z" fill="white"/>
<path d="M201.265 71.4928L200.789 70.3942L226.081 55.7809L232.106 57.0176L238.458 53.2083L237.251 47.1797L229.913 45.6725L223.556 49.4763L224.419 53.7824L199.764 68.0314L195.035 57.1501L184.026 50.8233L205.507 38.457C206.122 38.1036 206.332 37.3252 205.978 36.7124C205.624 36.0996 204.837 35.8843 204.228 36.2432L181.462 49.3438L176.472 52.2146V35.5089L165.197 29L155.688 34.471L146.362 29.138L133.292 36.6627L109.751 63.659C109.573 63.5927 109.38 63.5486 109.18 63.5486C108.272 63.5486 107.53 64.2883 107.53 65.1937C107.53 66.0991 108.272 66.8389 109.18 66.8389C109.263 66.8389 109.335 66.8279 109.413 66.8168L121.774 95.276L97.3955 109.321L90.0134 107.676L82.0055 112.291L83.2238 118.96L92.4501 121.014L100.458 116.398L99.4833 111.065L122.804 97.6334L127.583 108.631C127.162 108.675 126.83 109.023 126.83 109.459C126.83 109.917 127.206 110.292 127.666 110.292C127.876 110.292 128.065 110.21 128.214 110.083L129.1 112.114C128.989 112.258 128.923 112.429 128.923 112.622C128.923 113.053 129.255 113.406 129.682 113.45L131.925 118.612L130.402 119.49C130.518 119.346 130.595 119.164 130.595 118.965C130.595 118.507 130.219 118.132 129.759 118.132C129.3 118.132 128.923 118.507 128.923 118.965C128.923 119.424 129.3 119.799 129.759 119.799C129.804 119.799 129.848 119.793 129.892 119.788L121.674 124.519C121.591 124.492 121.502 124.475 121.414 124.475C121.009 124.475 120.671 124.762 120.594 125.143L88.136 143.825C87.5213 144.178 87.3109 144.957 87.6653 145.57C87.9034 145.978 88.3298 146.21 88.7729 146.21C88.9889 146.21 89.2104 146.155 89.4153 146.039L118.805 129.123C118.949 129.239 119.126 129.311 119.326 129.311C119.785 129.311 120.162 128.936 120.162 128.478C120.162 128.433 120.156 128.395 120.151 128.351L124.83 125.656C124.963 125.944 125.251 126.142 125.589 126.142C126.049 126.142 126.425 125.767 126.425 125.309C126.425 125.126 126.364 124.961 126.27 124.828L131.016 122.096C131.016 122.096 131.016 122.123 131.016 122.14C131.016 122.598 131.393 122.973 131.853 122.973C132.312 122.973 132.689 122.598 132.689 122.14C132.689 121.814 132.501 121.538 132.229 121.4L132.971 120.969L135.198 122.25C135.253 122.659 135.602 122.973 136.023 122.973C136.133 122.973 136.244 122.951 136.338 122.913L144.645 127.694C144.557 127.666 144.468 127.644 144.368 127.644C143.909 127.644 143.532 128.019 143.532 128.478C143.532 128.936 143.909 129.311 144.368 129.311C144.828 129.311 145.205 128.936 145.205 128.478C145.205 128.224 145.088 127.997 144.911 127.848L150.239 130.918C149.973 131.056 149.796 131.332 149.796 131.652C149.796 132.11 150.172 132.486 150.632 132.486C151.091 132.486 151.468 132.11 151.468 131.652C151.468 131.641 151.468 131.635 151.468 131.624L156.203 134.352C156.109 134.484 156.059 134.65 156.059 134.821C156.059 135.279 156.436 135.654 156.89 135.654C157.222 135.654 157.504 135.461 157.643 135.18L162.328 137.874C162.328 137.912 162.317 137.951 162.317 137.99C162.317 138.448 162.693 138.823 163.153 138.823C163.347 138.823 163.524 138.757 163.663 138.647L168.658 141.523C168.796 141.799 169.079 141.998 169.411 141.998C169.433 141.998 169.45 141.998 169.466 141.992L177.613 146.679C177.219 146.751 176.92 147.093 176.92 147.502C176.92 147.96 177.297 148.33 177.757 148.33C178.216 148.33 178.587 147.955 178.587 147.502C178.587 147.397 178.565 147.303 178.532 147.209L181.6 148.976L188.229 145.161C188.506 145.145 188.744 145.001 188.888 144.786L193.977 141.854C194.11 141.943 194.271 141.998 194.448 141.998C194.908 141.998 195.284 141.622 195.284 141.164C195.284 141.048 195.262 140.938 195.218 140.833L219.363 113.141L201.276 71.4984L201.265 71.4928ZM230.373 48.3777L235.063 49.3383L235.584 51.944L231.635 54.3124L226.945 53.3518L226.419 50.7405L230.373 48.3777ZM146.041 110.491L161.375 101.663C162.046 102.276 162.732 102.861 163.424 103.43L147.957 112.335C147.309 111.733 146.667 111.126 146.046 110.486L146.041 110.491ZM175.182 82.1975L160.201 90.8153L170.197 96.59L161.37 101.669C155.738 96.5237 150.92 90.0534 147.625 83.3568L152.775 80.3922L162.765 86.1172L173.57 79.9009C174.129 80.6572 174.666 81.4246 175.187 82.1975H175.182ZM183.893 107.008C183.893 108.857 183.693 110.568 183.306 112.109C179.246 112.203 174.561 110.751 169.677 107.874C167.517 106.605 165.418 105.108 163.408 103.441L175.314 96.59L165.318 90.8153L176.56 84.345C181.174 91.8863 183.893 100.018 183.893 107.002V107.008ZM142.901 65.5139C142.901 64.3932 142.973 63.3277 143.117 62.3174C143.77 61.7543 144.662 61.2023 145.847 60.5177H145.858L151.49 57.2826V78.1784L146.545 81.0216C144.235 75.7327 142.901 70.3832 142.901 65.5139ZM161.481 44.1378V82.4294L154.049 78.1784V39.8482L161.481 44.1433V44.1378ZM181.594 63.7197L171.598 57.9726L181.467 52.2974L191.469 58.0444L181.6 63.7252L181.594 63.7197ZM162.765 41.924L155.334 37.6289L165.208 31.9481L172.645 36.2432L162.771 41.924H162.765ZM111.6 65.4201L134.212 39.401L144.291 45.1701V57.8622C140.204 57.7573 136.715 58.9664 134.073 61.3624C130.806 64.3325 129.078 68.9588 129.078 74.7335C129.078 86.2662 136.073 100.316 146.041 110.491L134.151 117.337L111.6 65.4311V65.4201ZM147.946 112.341C150.82 115.035 153.905 117.403 157.117 119.291C165.512 124.232 173.553 125.237 179.185 122.024C183.876 119.352 186.462 114.019 186.462 106.996C186.462 95.944 180.138 82.2803 170.319 72.056V60.1809L180.592 66.0826L203.935 119.821L181.323 145.846L135.524 119.484L147.946 112.335V112.341ZM146.373 32.0806L153.124 35.945L151.49 36.8836V39.539L145.57 42.9453L136.504 37.7503L146.373 32.075V32.0806Z" fill="#18181B"/>
<path d="M76.6503 41.9351C75.7365 41.9351 75 42.6748 75 43.5802C75 44.4856 75.7421 45.2254 76.6503 45.2254C77.5585 45.2254 78.3006 44.4856 78.3006 43.5802C78.3006 42.6748 77.5585 41.9351 76.6503 41.9351Z" fill="#18181B"/>
<path d="M87.4936 45.2254C88.4073 45.2254 89.1439 44.4856 89.1439 43.5802C89.1439 42.6748 88.4018 41.9351 87.4936 41.9351C86.5853 41.9351 85.8433 42.6748 85.8433 43.5802C85.8433 44.4856 86.5853 45.2254 87.4936 45.2254Z" fill="#18181B"/>
<path d="M98.337 45.2254C99.2452 45.2254 99.9873 44.4856 99.9873 43.5802C99.9873 42.6748 99.2452 41.9351 98.337 41.9351C97.4287 41.9351 96.6866 42.6748 96.6866 43.5802C96.6866 44.4856 97.4287 45.2254 98.337 45.2254Z" fill="#18181B"/>
<path d="M109.175 45.2254C110.088 45.2254 110.825 44.4856 110.825 43.5802C110.825 42.6748 110.083 41.9351 109.175 41.9351C108.266 41.9351 107.524 42.6748 107.524 43.5802C107.524 44.4856 108.266 45.2254 109.175 45.2254Z" fill="#18181B"/>
<path d="M120.018 45.2254C120.926 45.2254 121.668 44.4856 121.668 43.5802C121.668 42.6748 120.926 41.9351 120.018 41.9351C119.11 41.9351 118.368 42.6748 118.368 43.5802C118.368 44.4856 119.11 45.2254 120.018 45.2254Z" fill="#18181B"/>
<path d="M76.6503 52.7446C75.7365 52.7446 75 53.4844 75 54.3898C75 55.2952 75.7421 56.035 76.6503 56.035C77.5585 56.035 78.3006 55.2952 78.3006 54.3898C78.3006 53.4844 77.5585 52.7446 76.6503 52.7446Z" fill="#18181B"/>
<path d="M76.6503 63.5542C75.7365 63.5542 75 64.294 75 65.1994C75 66.1048 75.7421 66.8445 76.6503 66.8445C77.5585 66.8445 78.3006 66.1048 78.3006 65.1994C78.3006 64.294 77.5585 63.5542 76.6503 63.5542Z" fill="#18181B"/>
<path d="M76.6503 74.3635C75.7365 74.3635 75 75.1033 75 76.0087C75 76.9141 75.7421 77.6539 76.6503 77.6539C77.5585 77.6539 78.3006 76.9141 78.3006 76.0087C78.3006 75.1033 77.5585 74.3635 76.6503 74.3635Z" fill="#18181B"/>
<path d="M76.6503 85.1731C75.7365 85.1731 75 85.9129 75 86.8183C75 87.7237 75.7421 88.4634 76.6503 88.4634C77.5585 88.4634 78.3006 87.7237 78.3006 86.8183C78.3006 85.9129 77.5585 85.1731 76.6503 85.1731Z" fill="#18181B"/>
<path d="M87.4936 56.035C88.4073 56.035 89.1439 55.2952 89.1439 54.3898C89.1439 53.4844 88.4018 52.7446 87.4936 52.7446C86.5853 52.7446 85.8433 53.4844 85.8433 54.3898C85.8433 55.2952 86.5853 56.035 87.4936 56.035Z" fill="#18181B"/>
<path d="M87.4936 66.8445C88.4073 66.8445 89.1439 66.1048 89.1439 65.1994C89.1439 64.294 88.4018 63.5542 87.4936 63.5542C86.5853 63.5542 85.8433 64.294 85.8433 65.1994C85.8433 66.1048 86.5853 66.8445 87.4936 66.8445Z" fill="#18181B"/>
<path d="M87.4936 77.6539C88.4073 77.6539 89.1439 76.9141 89.1439 76.0087C89.1439 75.1033 88.4018 74.3635 87.4936 74.3635C86.5853 74.3635 85.8433 75.1033 85.8433 76.0087C85.8433 76.9141 86.5853 77.6539 87.4936 77.6539Z" fill="#18181B"/>
<path d="M87.4936 88.4581C88.4073 88.4581 89.1439 87.7183 89.1439 86.8129C89.1439 85.9075 88.4018 85.1677 87.4936 85.1677C86.5853 85.1677 85.8433 85.9075 85.8433 86.8129C85.8433 87.7183 86.5853 88.4581 87.4936 88.4581Z" fill="#18181B"/>
<path d="M98.337 56.035C99.2452 56.035 99.9873 55.2952 99.9873 54.3898C99.9873 53.4844 99.2452 52.7446 98.337 52.7446C97.4287 52.7446 96.6866 53.4844 96.6866 54.3898C96.6866 55.2952 97.4287 56.035 98.337 56.035Z" fill="#18181B"/>
<path d="M98.337 66.8445C99.2452 66.8445 99.9873 66.1048 99.9873 65.1994C99.9873 64.294 99.2452 63.5542 98.337 63.5542C97.4287 63.5542 96.6866 64.294 96.6866 65.1994C96.6866 66.1048 97.4287 66.8445 98.337 66.8445Z" fill="#18181B"/>
<path d="M98.337 77.6539C99.2452 77.6539 99.9873 76.9141 99.9873 76.0087C99.9873 75.1033 99.2452 74.3635 98.337 74.3635C97.4287 74.3635 96.6866 75.1033 96.6866 76.0087C96.6866 76.9141 97.4287 77.6539 98.337 77.6539Z" fill="#18181B"/>
<path d="M98.337 88.4581C99.2452 88.4581 99.9873 87.7183 99.9873 86.8129C99.9873 85.9075 99.2452 85.1677 98.337 85.1677C97.4287 85.1677 96.6866 85.9075 96.6866 86.8129C96.6866 87.7183 97.4287 88.4581 98.337 88.4581Z" fill="#18181B"/>
<path d="M109.175 56.035C110.088 56.035 110.825 55.2952 110.825 54.3898C110.825 53.4844 110.083 52.7446 109.175 52.7446C108.266 52.7446 107.524 53.4844 107.524 54.3898C107.524 55.2952 108.266 56.035 109.175 56.035Z" fill="#18181B"/>
<path d="M109.175 77.6539C110.088 77.6539 110.825 76.9141 110.825 76.0087C110.825 75.1033 110.083 74.3635 109.175 74.3635C108.266 74.3635 107.524 75.1033 107.524 76.0087C107.524 76.9141 108.266 77.6539 109.175 77.6539Z" fill="#18181B"/>
<path d="M109.175 88.4581C110.088 88.4581 110.825 87.7183 110.825 86.8129C110.825 85.9075 110.083 85.1677 109.175 85.1677C108.266 85.1677 107.524 85.9075 107.524 86.8129C107.524 87.7183 108.266 88.4581 109.175 88.4581Z" fill="#18181B"/>
<path d="M154.049 78.1729L161.481 82.4293V44.1433L154.049 39.8481V78.1729Z" fill="white"/>
</g>
<defs>
<clipPath id="clip0_681_15557">
<rect width="187" height="132" fill="white" transform="translate(75 29)"/>
</clipPath>
</defs>
</svg>
