<svg width="336" height="190" viewBox="0 0 336 190" fill="none" xmlns="http://www.w3.org/2000/svg">
<rect width="336" height="190" fill="#E4E4E7"/>
<g clip-path="url(#clip0_1757_22511)">
<path d="M73.6989 36.063C72.7576 36.063 72 36.8287 72 37.7801C72 38.7314 72.7576 39.4972 73.6989 39.4972C74.6402 39.4972 75.3978 38.7314 75.3978 37.7801C75.3978 36.8287 74.6402 36.063 73.6989 36.063Z" fill="#18181B"/>
<path d="M86.5785 37.7801C86.5785 36.8287 85.8209 36.063 84.8796 36.063C83.9383 36.063 83.1807 36.8287 83.1807 37.7801C83.1807 38.7314 83.9383 39.4972 84.8796 39.4972C85.8209 39.4972 86.5785 38.7314 86.5785 37.7801Z" fill="#18181B"/>
<path d="M96.0602 36.063C95.119 36.063 94.3613 36.8287 94.3613 37.7801C94.3613 38.7314 95.119 39.4972 96.0602 39.4972C97.0015 39.4972 97.7592 38.7314 97.7592 37.7801C97.7592 36.8287 97.0015 36.063 96.0602 36.063Z" fill="#18181B"/>
<path d="M108.94 37.7801C108.94 36.8287 108.182 36.063 107.241 36.063C106.3 36.063 105.542 36.8287 105.542 37.7801C105.542 38.7314 106.3 39.4972 107.241 39.4972C108.182 39.4972 108.94 38.7314 108.94 37.7801Z" fill="#18181B"/>
<path d="M116.723 37.7801C116.723 38.7314 117.48 39.4972 118.422 39.4972C119.363 39.4972 120.12 38.7314 120.12 37.7801C120.12 36.8287 119.363 36.063 118.422 36.063C117.48 36.063 116.723 36.8287 116.723 37.7801Z" fill="#18181B"/>
<path d="M73.6989 47.3633C72.7576 47.3633 72 48.129 72 49.0804C72 50.0317 72.7576 50.7975 73.6989 50.7975C74.6402 50.7975 75.3978 50.0317 75.3978 49.0804C75.3978 48.129 74.6402 47.3633 73.6989 47.3633Z" fill="#18181B"/>
<path d="M73.6989 58.6404C72.7576 58.6404 72 59.4061 72 60.3575C72 61.3088 72.7576 62.0746 73.6989 62.0746C74.6402 62.0746 75.3978 61.3088 75.3978 60.3575C75.3978 59.4293 74.6402 58.6404 73.6989 58.6404Z" fill="#18181B"/>
<path d="M73.6989 69.9409C72.7576 69.9409 72 70.7067 72 71.658C72 72.6094 72.7576 73.3751 73.6989 73.3751C74.6402 73.3751 75.3978 72.6094 75.3978 71.658C75.3978 70.7299 74.6402 69.9409 73.6989 69.9409Z" fill="#18181B"/>
<path d="M73.6989 81.2412C72.7576 81.2412 72 82.0069 72 82.9583C72 83.9097 72.7576 84.6754 73.6989 84.6754C74.6402 84.6754 75.3978 83.9097 75.3978 82.9583C75.3978 82.0069 74.6402 81.2412 73.6989 81.2412Z" fill="#18181B"/>
<path d="M86.5785 49.0804C86.5785 48.129 85.8209 47.3633 84.8796 47.3633C83.9383 47.3633 83.1807 48.129 83.1807 49.0804C83.1807 50.0317 83.9383 50.7975 84.8796 50.7975C85.8209 50.7975 86.5785 50.0317 86.5785 49.0804Z" fill="#18181B"/>
<path d="M86.5785 60.3807C86.5785 59.4293 85.8209 58.6636 84.8796 58.6636C83.9383 58.6636 83.1807 59.4293 83.1807 60.3807C83.1807 61.332 83.9383 62.0978 84.8796 62.0978C85.8209 62.0978 86.5785 61.3088 86.5785 60.3807Z" fill="#18181B"/>
<path d="M86.5785 71.658C86.5785 70.7067 85.8209 69.9409 84.8796 69.9409C83.9383 69.9409 83.1807 70.7067 83.1807 71.658C83.1807 72.6094 83.9383 73.3751 84.8796 73.3751C85.8209 73.3983 86.5785 72.6094 86.5785 71.658Z" fill="#18181B"/>
<path d="M86.5785 82.9583C86.5785 82.0069 85.8209 81.2412 84.8796 81.2412C83.9383 81.2412 83.1807 82.0069 83.1807 82.9583C83.1807 83.9097 83.9383 84.6754 84.8796 84.6754C85.8209 84.6986 86.5785 83.9097 86.5785 82.9583Z" fill="#18181B"/>
<path d="M96.0602 47.3633C95.119 47.3633 94.3613 48.129 94.3613 49.0804C94.3613 50.0317 95.119 50.7975 96.0602 50.7975C97.0015 50.7975 97.7592 50.0317 97.7592 49.0804C97.7592 48.129 97.0015 47.3633 96.0602 47.3633Z" fill="#18181B"/>
<path d="M96.0602 58.6404C95.119 58.6404 94.3613 59.4061 94.3613 60.3575C94.3613 61.3088 95.119 62.0746 96.0602 62.0746C97.0015 62.0746 97.7592 61.3088 97.7592 60.3575C97.7592 59.4293 97.0015 58.6404 96.0602 58.6404Z" fill="#18181B"/>
<path d="M96.0602 69.9409C95.119 69.9409 94.3613 70.7067 94.3613 71.658C94.3613 72.6094 95.119 73.3751 96.0602 73.3751C97.0015 73.3751 97.7592 72.6094 97.7592 71.658C97.7592 70.7299 97.0015 69.9409 96.0602 69.9409Z" fill="#18181B"/>
<path d="M96.0602 84.6754C96.9985 84.6754 97.7592 83.9066 97.7592 82.9583C97.7592 82.01 96.9985 81.2412 96.0602 81.2412C95.122 81.2412 94.3613 82.01 94.3613 82.9583C94.3613 83.9066 95.122 84.6754 96.0602 84.6754Z" fill="#18181B"/>
<path d="M108.94 49.0804C108.94 48.129 108.182 47.3633 107.241 47.3633C106.3 47.3633 105.542 48.129 105.542 49.0804C105.542 50.0317 106.3 50.7975 107.241 50.7975C108.182 50.7975 108.94 50.0317 108.94 49.0804Z" fill="#18181B"/>
<path d="M108.94 60.3807C108.94 59.4293 108.182 58.6636 107.241 58.6636C106.3 58.6636 105.542 59.4293 105.542 60.3807C105.542 61.332 106.3 62.0978 107.241 62.0978C108.182 62.0978 108.94 61.3088 108.94 60.3807Z" fill="#18181B"/>
<path d="M108.94 71.658C108.94 70.7067 108.182 69.9409 107.241 69.9409C106.3 69.9409 105.542 70.7067 105.542 71.658C105.542 72.6094 106.3 73.3751 107.241 73.3751C108.182 73.3983 108.94 72.6094 108.94 71.658Z" fill="#18181B"/>
<path d="M118.422 47.3633C117.48 47.3633 116.723 48.129 116.723 49.0804C116.723 50.0317 117.48 50.7975 118.422 50.7975C119.363 50.7975 120.12 50.0317 120.12 49.0804C120.12 48.129 119.363 47.3633 118.422 47.3633Z" fill="#18181B"/>
<path d="M118.422 58.6404C117.48 58.6404 116.723 59.4061 116.723 60.3575C116.723 61.3088 117.48 62.0746 118.422 62.0746C119.363 62.0746 120.12 61.3088 120.12 60.3575C120.12 59.4293 119.363 58.6404 118.422 58.6404Z" fill="#18181B"/>
<path d="M118.422 69.9409C117.48 69.9409 116.723 70.7067 116.723 71.658C116.723 72.6094 117.48 73.3751 118.422 73.3751C119.363 73.3751 120.12 72.6094 120.12 71.658C120.12 70.7299 119.363 69.9409 118.422 69.9409Z" fill="#18181B"/>
<path d="M250.799 115.908C250.317 115.908 249.927 116.302 249.927 116.813C249.927 117.323 250.317 117.718 250.799 117.718C251.281 117.718 251.671 117.323 251.671 116.813C251.671 116.302 251.281 115.908 250.799 115.908Z" fill="#18181B"/>
<path d="M250.799 122.637C250.317 122.637 249.927 123.032 249.927 123.542C249.927 124.053 250.317 124.447 250.799 124.447C251.281 124.447 251.671 124.053 251.671 123.542C251.671 123.032 251.281 122.637 250.799 122.637Z" fill="#18181B"/>
<path d="M252.705 121.036C253.187 121.036 253.577 120.642 253.577 120.154C253.577 119.667 253.187 119.273 252.705 119.273C252.222 119.273 251.832 119.667 251.832 120.154C251.855 120.642 252.222 121.036 252.705 121.036Z" fill="#18181B"/>
<path d="M250.799 129.343C250.317 129.343 249.927 129.738 249.927 130.248C249.927 130.759 250.317 131.153 250.799 131.153C251.281 131.153 251.671 130.759 251.671 130.248C251.671 129.761 251.281 129.343 250.799 129.343Z" fill="#18181B"/>
<path d="M252.705 127.742C253.187 127.742 253.577 127.348 253.577 126.86C253.577 126.373 253.187 125.979 252.705 125.979C252.222 125.979 251.832 126.373 251.832 126.86C251.832 127.348 252.222 127.742 252.705 127.742Z" fill="#18181B"/>
<path d="M250.799 136.072C250.317 136.072 249.927 136.467 249.927 136.954C249.927 137.441 250.317 137.836 250.799 137.836C251.281 137.836 251.671 137.441 251.671 136.954C251.671 136.467 251.281 136.072 250.799 136.072Z" fill="#18181B"/>
<path d="M252.705 134.448C253.187 134.448 253.577 134.054 253.577 133.566C253.577 133.079 253.187 132.685 252.705 132.685C252.222 132.685 251.832 133.079 251.832 133.566C251.855 134.077 252.222 134.448 252.705 134.448Z" fill="#18181B"/>
<path d="M248.87 114.307C249.353 114.307 249.743 113.912 249.743 113.425C249.743 112.938 249.353 112.543 248.87 112.543C248.388 112.543 247.998 112.938 247.998 113.425C247.998 113.912 248.388 114.307 248.87 114.307Z" fill="#18181B"/>
<path d="M248.87 121.036C249.353 121.036 249.743 120.642 249.743 120.154C249.743 119.667 249.353 119.273 248.87 119.273C248.388 119.273 247.998 119.667 247.998 120.154C247.998 120.642 248.388 121.036 248.87 121.036Z" fill="#18181B"/>
<path d="M246.965 129.343C246.483 129.343 246.093 129.738 246.093 130.248C246.093 130.759 246.483 131.153 246.965 131.153C247.447 131.153 247.837 130.759 247.837 130.248C247.837 129.761 247.447 129.343 246.965 129.343Z" fill="#18181B"/>
<path d="M248.87 127.742C249.353 127.742 249.743 127.348 249.743 126.86C249.743 126.373 249.353 125.979 248.87 125.979C248.388 125.979 247.998 126.373 247.998 126.86C247.998 127.348 248.388 127.742 248.87 127.742Z" fill="#18181B"/>
<path d="M246.942 117.671C247.424 117.671 247.814 117.277 247.814 116.79C247.814 116.302 247.424 115.908 246.942 115.908C246.46 115.908 246.07 116.302 246.07 116.79C246.07 117.254 246.46 117.671 246.942 117.671Z" fill="#18181B"/>
<path d="M246.942 124.378C247.424 124.378 247.814 123.983 247.814 123.496C247.814 123.008 247.424 122.614 246.942 122.614C246.46 122.614 246.07 123.008 246.07 123.496C246.07 123.983 246.46 124.378 246.942 124.378Z" fill="#18181B"/>
<path d="M246.965 136.072C246.483 136.072 246.093 136.467 246.093 136.954C246.093 137.441 246.483 137.836 246.965 137.836C247.447 137.836 247.837 137.441 247.837 136.954C247.837 136.467 247.447 136.072 246.965 136.072Z" fill="#18181B"/>
<path d="M248.87 134.448C249.353 134.448 249.743 134.054 249.743 133.566C249.743 133.079 249.353 132.685 248.87 132.685C248.388 132.685 247.998 133.079 247.998 133.566C247.998 134.077 248.388 134.448 248.87 134.448Z" fill="#18181B"/>
<path d="M246.965 142.755C246.483 142.755 246.093 143.15 246.093 143.637C246.093 144.124 246.483 144.519 246.965 144.519C247.447 144.519 247.837 144.124 247.837 143.637C247.837 143.15 247.447 142.755 246.965 142.755Z" fill="#18181B"/>
<path d="M248.87 139.437C248.388 139.437 247.998 139.831 247.998 140.319C247.998 140.806 248.388 141.201 248.87 141.201C249.353 141.201 249.743 140.806 249.743 140.319C249.743 139.831 249.353 139.437 248.87 139.437Z" fill="#18181B"/>
<path d="M243.108 136.072C242.626 136.072 242.236 136.467 242.236 136.954C242.236 137.441 242.626 137.836 243.108 137.836C243.59 137.836 243.98 137.441 243.98 136.954C243.98 136.467 243.59 136.072 243.108 136.072Z" fill="#18181B"/>
<path d="M245.036 132.708C244.554 132.708 244.164 133.102 244.164 133.613C244.164 134.123 244.554 134.494 245.036 134.494C245.519 134.494 245.909 134.1 245.909 133.613C245.909 133.125 245.519 132.708 245.036 132.708Z" fill="#18181B"/>
<path d="M241.225 132.731C240.743 132.731 240.353 133.125 240.353 133.636C240.353 134.146 240.743 134.518 241.225 134.518C241.708 134.518 242.098 134.123 242.098 133.636C242.098 133.149 241.708 132.731 241.225 132.731Z" fill="#18181B"/>
<path d="M243.108 142.755C242.626 142.755 242.236 143.15 242.236 143.637C242.236 144.124 242.626 144.519 243.108 144.519C243.59 144.519 243.98 144.124 243.98 143.637C244.003 143.15 243.59 142.755 243.108 142.755Z" fill="#18181B"/>
<path d="M245.036 139.437C244.554 139.437 244.164 139.831 244.164 140.319C244.164 140.806 244.554 141.201 245.036 141.201C245.519 141.201 245.909 140.806 245.909 140.319C245.909 139.831 245.519 139.437 245.036 139.437Z" fill="#18181B"/>
<path d="M239.274 136.072C238.792 136.072 238.402 136.467 238.402 136.954C238.402 137.441 238.792 137.836 239.274 137.836C239.756 137.836 240.146 137.441 240.146 136.954C240.146 136.467 239.756 136.072 239.274 136.072Z" fill="#18181B"/>
<path d="M239.274 142.755C238.792 142.755 238.402 143.15 238.402 143.637C238.402 144.124 238.792 144.519 239.274 144.519C239.756 144.519 240.146 144.124 240.146 143.637C240.169 143.15 239.756 142.755 239.274 142.755Z" fill="#18181B"/>
<path d="M241.202 139.437C240.72 139.437 240.33 139.831 240.33 140.319C240.33 140.806 240.72 141.201 241.202 141.201C241.685 141.201 242.075 140.806 242.075 140.319C242.075 139.831 241.685 139.437 241.202 139.437Z" fill="#18181B"/>
<path d="M241.202 147.906C241.685 147.906 242.075 147.512 242.075 147.025C242.075 146.537 241.685 146.143 241.202 146.143C240.72 146.143 240.33 146.537 240.33 147.025C240.33 147.512 240.72 147.906 241.202 147.906Z" fill="#18181B"/>
<path d="M235.44 142.755C234.958 142.755 234.568 143.15 234.568 143.637C234.568 144.124 234.958 144.519 235.44 144.519C235.922 144.519 236.312 144.124 236.312 143.637C236.335 143.15 235.922 142.755 235.44 142.755Z" fill="#18181B"/>
<path d="M237.368 139.437C236.886 139.437 236.496 139.831 236.496 140.319C236.496 140.806 236.886 141.201 237.368 141.201C237.851 141.201 238.241 140.806 238.241 140.319C238.241 139.831 237.851 139.437 237.368 139.437Z" fill="#18181B"/>
<path d="M235.44 149.507C234.958 149.507 234.568 149.902 234.568 150.389C234.568 150.876 234.958 151.271 235.44 151.271C235.922 151.271 236.312 150.876 236.312 150.389C236.335 149.902 235.922 149.507 235.44 149.507Z" fill="#18181B"/>
<path d="M237.368 146.143C236.886 146.143 236.496 146.537 236.496 147.025C236.496 147.512 236.886 147.906 237.368 147.906C237.851 147.906 238.241 147.512 238.241 147.025C238.241 146.537 237.851 146.143 237.368 146.143Z" fill="#18181B"/>
<path d="M231.606 142.755C231.124 142.755 230.734 143.15 230.734 143.637C230.734 144.124 231.124 144.519 231.606 144.519C232.088 144.519 232.478 144.124 232.478 143.637C232.501 143.15 232.088 142.755 231.606 142.755Z" fill="#18181B"/>
<path d="M233.511 139.437C233.029 139.437 232.639 139.831 232.639 140.319C232.639 140.806 233.029 141.201 233.511 141.201C233.994 141.201 234.384 140.806 234.384 140.319C234.407 139.831 234.017 139.437 233.511 139.437Z" fill="#18181B"/>
<path d="M231.606 149.507C231.124 149.507 230.734 149.902 230.734 150.389C230.734 150.876 231.124 151.271 231.606 151.271C232.088 151.271 232.478 150.876 232.478 150.389C232.501 149.902 232.088 149.507 231.606 149.507Z" fill="#18181B"/>
<path d="M233.511 147.906C233.994 147.906 234.384 147.512 234.384 147.025C234.384 146.537 233.994 146.143 233.511 146.143C233.029 146.143 232.639 146.537 232.639 147.025C232.662 147.512 233.052 147.906 233.511 147.906Z" fill="#18181B"/>
<path d="M227.772 142.755C227.29 142.755 226.899 143.15 226.899 143.637C226.899 144.124 227.29 144.519 227.772 144.519C228.254 144.519 228.644 144.124 228.644 143.637C228.644 143.15 228.254 142.755 227.772 142.755Z" fill="#18181B"/>
<path d="M227.772 149.507C227.29 149.507 226.899 149.902 226.899 150.389C226.899 150.876 227.29 151.271 227.772 151.271C228.254 151.271 228.644 150.876 228.644 150.389C228.644 149.902 228.254 149.507 227.772 149.507Z" fill="#18181B"/>
<path d="M229.7 146.143C229.218 146.143 228.828 146.537 228.828 147.025C228.828 147.512 229.218 147.906 229.7 147.906C230.182 147.906 230.573 147.512 230.573 147.025C230.573 146.537 230.182 146.143 229.7 146.143Z" fill="#18181B"/>
<path d="M229.7 152.872C229.218 152.872 228.828 153.267 228.828 153.754C228.828 154.241 229.218 154.636 229.7 154.636C230.182 154.636 230.573 154.241 230.573 153.754C230.573 153.267 230.182 152.872 229.7 152.872Z" fill="#18181B"/>
<path d="M223.938 142.755C223.456 142.755 223.065 143.15 223.065 143.637C223.065 144.124 223.456 144.519 223.938 144.519C224.42 144.519 224.81 144.124 224.81 143.637C224.81 143.15 224.42 142.755 223.938 142.755Z" fill="#18181B"/>
<path d="M223.938 149.507C223.456 149.507 223.065 149.902 223.065 150.389C223.065 150.876 223.456 151.271 223.938 151.271C224.42 151.271 224.81 150.876 224.81 150.389C224.81 149.902 224.42 149.507 223.938 149.507Z" fill="#18181B"/>
<path d="M225.843 147.906C226.325 147.906 226.716 147.512 226.716 147.025C226.716 146.537 226.325 146.143 225.843 146.143C225.361 146.143 224.971 146.537 224.971 147.025C224.994 147.512 225.361 147.906 225.843 147.906Z" fill="#18181B"/>
<path d="M225.843 154.612C226.325 154.612 226.716 154.218 226.716 153.731C226.716 153.243 226.325 152.849 225.843 152.849C225.361 152.849 224.971 153.243 224.971 153.731C224.994 154.218 225.361 154.612 225.843 154.612Z" fill="#18181B"/>
<path d="M220.104 142.755C219.622 142.755 219.231 143.15 219.231 143.637C219.231 144.124 219.622 144.519 220.104 144.519C220.586 144.519 220.976 144.124 220.976 143.637C220.976 143.15 220.586 142.755 220.104 142.755Z" fill="#18181B"/>
<path d="M220.104 149.507C219.622 149.507 219.231 149.902 219.231 150.389C219.231 150.876 219.622 151.271 220.104 151.271C220.586 151.271 220.976 150.876 220.976 150.389C220.976 149.902 220.586 149.507 220.104 149.507Z" fill="#18181B"/>
<path d="M222.009 146.143C221.527 146.143 221.137 146.537 221.137 147.025C221.137 147.512 221.527 147.906 222.009 147.906C222.492 147.906 222.882 147.512 222.882 147.025C222.882 146.537 222.492 146.143 222.009 146.143Z" fill="#18181B"/>
<path d="M220.104 156.213C219.622 156.213 219.231 156.608 219.231 157.095C219.231 157.582 219.622 157.977 220.104 157.977C220.586 157.977 220.976 157.582 220.976 157.095C220.976 156.608 220.586 156.213 220.104 156.213Z" fill="#18181B"/>
<path d="M222.009 152.872C221.527 152.872 221.137 153.267 221.137 153.754C221.137 154.241 221.527 154.636 222.009 154.636C222.492 154.636 222.882 154.241 222.882 153.754C222.882 153.267 222.492 152.872 222.009 152.872Z" fill="#18181B"/>
<path d="M216.27 142.755C215.788 142.755 215.397 143.15 215.397 143.637C215.397 144.124 215.788 144.519 216.27 144.519C216.752 144.519 217.142 144.124 217.142 143.637C217.142 143.15 216.752 142.755 216.27 142.755Z" fill="#18181B"/>
<path d="M216.27 149.507C215.788 149.507 215.397 149.902 215.397 150.389C215.397 150.876 215.788 151.271 216.27 151.271C216.752 151.271 217.142 150.876 217.142 150.389C217.142 149.902 216.752 149.507 216.27 149.507Z" fill="#18181B"/>
<path d="M218.175 147.906C218.657 147.906 219.048 147.512 219.048 147.025C219.048 146.537 218.657 146.143 218.175 146.143C217.693 146.143 217.303 146.537 217.303 147.025C217.303 147.512 217.693 147.906 218.175 147.906Z" fill="#18181B"/>
<path d="M216.27 156.213C215.788 156.213 215.397 156.608 215.397 157.095C215.397 157.582 215.788 157.977 216.27 157.977C216.752 157.977 217.142 157.582 217.142 157.095C217.142 156.608 216.752 156.213 216.27 156.213Z" fill="#18181B"/>
<path d="M218.175 154.612C218.657 154.612 219.048 154.218 219.048 153.731C219.048 153.243 218.657 152.849 218.175 152.849C217.693 152.849 217.303 153.243 217.303 153.731C217.326 154.218 217.693 154.612 218.175 154.612Z" fill="#18181B"/>
<path d="M212.413 142.755C211.931 142.755 211.54 143.15 211.54 143.637C211.54 144.124 211.931 144.519 212.413 144.519C212.895 144.519 213.285 144.124 213.285 143.637C213.308 143.15 212.918 142.755 212.413 142.755Z" fill="#18181B"/>
<path d="M212.413 149.507C211.931 149.507 211.54 149.902 211.54 150.389C211.54 150.876 211.931 151.271 212.413 151.271C212.895 151.271 213.285 150.876 213.285 150.389C213.308 149.902 212.918 149.507 212.413 149.507Z" fill="#18181B"/>
<path d="M214.341 146.143C213.859 146.143 213.469 146.537 213.469 147.025C213.469 147.512 213.859 147.906 214.341 147.906C214.823 147.906 215.214 147.512 215.214 147.025C215.214 146.537 214.823 146.143 214.341 146.143Z" fill="#18181B"/>
<path d="M212.413 156.213C211.931 156.213 211.54 156.608 211.54 157.095C211.54 157.582 211.931 157.977 212.413 157.977C212.895 157.977 213.285 157.582 213.285 157.095C213.308 156.608 212.918 156.213 212.413 156.213Z" fill="#18181B"/>
<path d="M214.341 152.872C213.859 152.872 213.469 153.267 213.469 153.754C213.469 154.241 213.859 154.636 214.341 154.636C214.823 154.636 215.214 154.241 215.214 153.754C215.214 153.267 214.823 152.872 214.341 152.872Z" fill="#18181B"/>
<path d="M208.579 142.755C208.097 142.755 207.706 143.15 207.706 143.637C207.706 144.124 208.097 144.519 208.579 144.519C209.061 144.519 209.451 144.124 209.451 143.637C209.474 143.15 209.084 142.755 208.579 142.755Z" fill="#18181B"/>
<path d="M208.579 149.507C208.097 149.507 207.706 149.902 207.706 150.389C207.706 150.876 208.097 151.271 208.579 151.271C209.061 151.271 209.451 150.876 209.451 150.389C209.474 149.902 209.084 149.507 208.579 149.507Z" fill="#18181B"/>
<path d="M210.507 147.906C210.989 147.906 211.38 147.512 211.38 147.025C211.38 146.537 210.989 146.143 210.507 146.143C210.025 146.143 209.635 146.537 209.635 147.025C209.635 147.512 210.025 147.906 210.507 147.906Z" fill="#18181B"/>
<path d="M208.579 156.213C208.097 156.213 207.706 156.608 207.706 157.095C207.706 157.582 208.097 157.977 208.579 157.977C209.061 157.977 209.451 157.582 209.451 157.095C209.474 156.608 209.084 156.213 208.579 156.213Z" fill="#18181B"/>
<path d="M210.507 154.612C210.989 154.612 211.38 154.218 211.38 153.731C211.38 153.243 210.989 152.849 210.507 152.849C210.025 152.849 209.635 153.243 209.635 153.731C209.635 154.218 210.025 154.612 210.507 154.612Z" fill="#18181B"/>
<path d="M204.699 142.755C204.217 142.755 203.826 143.15 203.826 143.637C203.826 144.124 204.217 144.519 204.699 144.519C205.181 144.519 205.571 144.124 205.571 143.637C205.594 143.15 205.204 142.755 204.699 142.755Z" fill="#18181B"/>
<path d="M204.699 149.507C204.217 149.507 203.826 149.902 203.826 150.389C203.826 150.876 204.217 151.271 204.699 151.271C205.181 151.271 205.571 150.876 205.571 150.389C205.594 149.902 205.204 149.507 204.699 149.507Z" fill="#18181B"/>
<path d="M206.673 147.906C207.155 147.906 207.546 147.512 207.546 147.025C207.546 146.537 207.155 146.143 206.673 146.143C206.191 146.143 205.801 146.537 205.801 147.025C205.801 147.512 206.191 147.906 206.673 147.906Z" fill="#18181B"/>
<path d="M204.699 156.213C204.217 156.213 203.826 156.608 203.826 157.095C203.826 157.582 204.217 157.977 204.699 157.977C205.181 157.977 205.571 157.582 205.571 157.095C205.594 156.608 205.204 156.213 204.699 156.213Z" fill="#18181B"/>
<path d="M206.673 154.612C207.155 154.612 207.546 154.218 207.546 153.731C207.546 153.243 207.155 152.849 206.673 152.849C206.191 152.849 205.801 153.243 205.801 153.731C205.801 154.218 206.191 154.612 206.673 154.612Z" fill="#18181B"/>
<path d="M200.911 142.755C200.429 142.755 200.038 143.15 200.038 143.637C200.038 144.124 200.429 144.519 200.911 144.519C201.393 144.519 201.783 144.124 201.783 143.637C201.806 143.15 201.393 142.755 200.911 142.755Z" fill="#18181B"/>
<path d="M200.911 149.507C200.429 149.507 200.038 149.902 200.038 150.389C200.038 150.876 200.429 151.271 200.911 151.271C201.393 151.271 201.783 150.876 201.783 150.389C201.806 149.902 201.393 149.507 200.911 149.507Z" fill="#18181B"/>
<path d="M202.839 147.906C203.321 147.906 203.712 147.512 203.712 147.025C203.712 146.537 203.321 146.143 202.839 146.143C202.357 146.143 201.967 146.537 201.967 147.025C201.967 147.512 202.357 147.906 202.839 147.906Z" fill="#18181B"/>
<path d="M200.911 156.213C200.429 156.213 200.038 156.608 200.038 157.095C200.038 157.582 200.429 157.977 200.911 157.977C201.393 157.977 201.783 157.582 201.783 157.095C201.806 156.608 201.393 156.213 200.911 156.213Z" fill="#18181B"/>
<path d="M202.839 154.612C203.321 154.612 203.712 154.218 203.712 153.731C203.712 153.243 203.321 152.849 202.839 152.849C202.357 152.849 201.967 153.243 201.967 153.731C201.967 154.218 202.357 154.612 202.839 154.612Z" fill="#18181B"/>
<path d="M197.077 142.755C196.595 142.755 196.204 143.15 196.204 143.637C196.204 144.124 196.595 144.519 197.077 144.519C197.559 144.519 197.949 144.124 197.949 143.637C197.949 143.15 197.559 142.755 197.077 142.755Z" fill="#18181B"/>
<path d="M197.077 149.507C196.595 149.507 196.204 149.902 196.204 150.389C196.204 150.876 196.595 151.271 197.077 151.271C197.559 151.271 197.949 150.876 197.949 150.389C197.949 149.902 197.559 149.507 197.077 149.507Z" fill="#18181B"/>
<path d="M198.982 147.906C199.464 147.906 199.855 147.512 199.855 147.025C199.855 146.537 199.464 146.143 198.982 146.143C198.5 146.143 198.11 146.537 198.11 147.025C198.11 147.512 198.523 147.906 198.982 147.906Z" fill="#18181B"/>
<path d="M197.077 156.213C196.595 156.213 196.204 156.608 196.204 157.095C196.204 157.582 196.595 157.977 197.077 157.977C197.559 157.977 197.949 157.582 197.949 157.095C197.949 156.608 197.559 156.213 197.077 156.213Z" fill="#18181B"/>
<path d="M198.982 154.612C199.464 154.612 199.855 154.218 199.855 153.731C199.855 153.243 199.464 152.849 198.982 152.849C198.5 152.849 198.11 153.243 198.11 153.731C198.133 154.218 198.523 154.612 198.982 154.612Z" fill="#18181B"/>
<path d="M193.266 142.755C192.783 142.755 192.393 143.15 192.393 143.637C192.393 144.124 192.783 144.519 193.266 144.519C193.748 144.519 194.138 144.124 194.138 143.637C194.161 143.15 193.771 142.755 193.266 142.755Z" fill="#18181B"/>
<path d="M193.266 149.507C192.783 149.507 192.393 149.902 192.393 150.389C192.393 150.876 192.783 151.271 193.266 151.271C193.748 151.271 194.138 150.876 194.138 150.389C194.161 149.902 193.771 149.507 193.266 149.507Z" fill="#18181B"/>
<path d="M195.148 147.906C195.63 147.906 196.021 147.512 196.021 147.025C196.021 146.537 195.63 146.143 195.148 146.143C194.666 146.143 194.276 146.537 194.276 147.025C194.299 147.512 194.666 147.906 195.148 147.906Z" fill="#18181B"/>
<path d="M193.266 156.213C192.783 156.213 192.393 156.608 192.393 157.095C192.393 157.582 192.783 157.977 193.266 157.977C193.748 157.977 194.138 157.582 194.138 157.095C194.161 156.608 193.771 156.213 193.266 156.213Z" fill="#18181B"/>
<path d="M195.148 154.612C195.63 154.612 196.021 154.218 196.021 153.731C196.021 153.243 195.63 152.849 195.148 152.849C194.666 152.849 194.276 153.243 194.276 153.731C194.299 154.218 194.666 154.612 195.148 154.612Z" fill="#18181B"/>
<path d="M189.386 142.755C188.903 142.755 188.513 143.15 188.513 143.637C188.513 144.124 188.903 144.519 189.386 144.519C189.868 144.519 190.258 144.124 190.258 143.637C190.281 143.15 189.891 142.755 189.386 142.755Z" fill="#18181B"/>
<path d="M189.386 149.507C188.903 149.507 188.513 149.902 188.513 150.389C188.513 150.876 188.903 151.271 189.386 151.271C189.868 151.271 190.258 150.876 190.258 150.389C190.281 149.902 189.891 149.507 189.386 149.507Z" fill="#18181B"/>
<path d="M191.314 147.906C191.796 147.906 192.187 147.512 192.187 147.025C192.187 146.537 191.796 146.143 191.314 146.143C190.832 146.143 190.442 146.537 190.442 147.025C190.442 147.512 190.832 147.906 191.314 147.906Z" fill="#18181B"/>
<path d="M189.386 156.213C188.903 156.213 188.513 156.608 188.513 157.095C188.513 157.582 188.903 157.977 189.386 157.977C189.868 157.977 190.258 157.582 190.258 157.095C190.281 156.608 189.891 156.213 189.386 156.213Z" fill="#18181B"/>
<path d="M191.314 154.612C191.796 154.612 192.187 154.218 192.187 153.731C192.187 153.243 191.796 152.849 191.314 152.849C190.832 152.849 190.442 153.243 190.442 153.731C190.442 154.218 190.832 154.612 191.314 154.612Z" fill="#18181B"/>
<path d="M185.552 142.755C185.069 142.755 184.679 143.15 184.679 143.637C184.679 144.124 185.069 144.519 185.552 144.519C186.034 144.519 186.424 144.124 186.424 143.637C186.447 143.15 186.057 142.755 185.552 142.755Z" fill="#18181B"/>
<path d="M185.552 149.507C185.069 149.507 184.679 149.902 184.679 150.389C184.679 150.876 185.069 151.271 185.552 151.271C186.034 151.271 186.424 150.876 186.424 150.389C186.447 149.902 186.057 149.507 185.552 149.507Z" fill="#18181B"/>
<path d="M187.48 147.906C187.962 147.906 188.352 147.512 188.352 147.025C188.352 146.537 187.962 146.143 187.48 146.143C186.998 146.143 186.608 146.537 186.608 147.025C186.608 147.512 186.998 147.906 187.48 147.906Z" fill="#18181B"/>
<path d="M185.552 156.213C185.069 156.213 184.679 156.608 184.679 157.095C184.679 157.582 185.069 157.977 185.552 157.977C186.034 157.977 186.424 157.582 186.424 157.095C186.447 156.608 186.057 156.213 185.552 156.213Z" fill="#18181B"/>
<path d="M187.48 154.612C187.962 154.612 188.352 154.218 188.352 153.731C188.352 153.243 187.962 152.849 187.48 152.849C186.998 152.849 186.608 153.243 186.608 153.731C186.608 154.218 186.998 154.612 187.48 154.612Z" fill="#18181B"/>
<path d="M183.646 147.906C184.128 147.906 184.519 147.512 184.519 147.025C184.519 146.537 184.128 146.143 183.646 146.143C183.164 146.143 182.774 146.537 182.774 147.025C182.774 147.512 183.164 147.906 183.646 147.906Z" fill="#18181B"/>
<path d="M183.646 154.612C184.128 154.612 184.519 154.218 184.519 153.731C184.519 153.243 184.128 152.849 183.646 152.849C183.164 152.849 182.774 153.243 182.774 153.731C182.774 154.218 183.164 154.612 183.646 154.612Z" fill="#18181B"/>
<path d="M174.004 142.755C174.486 142.755 174.876 143.15 174.876 143.637C174.876 144.124 174.486 144.519 174.004 144.519C173.521 144.519 173.131 144.124 173.131 143.637C173.108 143.15 173.521 142.755 174.004 142.755Z" fill="#18181B"/>
<path d="M174.004 149.507C174.486 149.507 174.876 149.902 174.876 150.389C174.876 150.876 174.486 151.271 174.004 151.271C173.521 151.271 173.131 150.876 173.131 150.389C173.108 149.902 173.521 149.507 174.004 149.507Z" fill="#18181B"/>
<path d="M172.121 147.906C171.639 147.906 171.249 147.512 171.249 147.025C171.249 146.537 171.639 146.143 172.121 146.143C172.603 146.143 172.993 146.537 172.993 147.025C172.993 147.512 172.603 147.906 172.121 147.906Z" fill="#18181B"/>
<path d="M174.004 156.213C174.486 156.213 174.876 156.608 174.876 157.095C174.876 157.582 174.486 157.977 174.004 157.977C173.521 157.977 173.131 157.582 173.131 157.095C173.108 156.608 173.521 156.213 174.004 156.213Z" fill="#18181B"/>
<path d="M172.121 154.612C171.639 154.612 171.249 154.218 171.249 153.731C171.249 153.243 171.639 152.849 172.121 152.849C172.603 152.849 172.993 153.243 172.993 153.731C172.993 154.218 172.603 154.612 172.121 154.612Z" fill="#18181B"/>
<path d="M177.884 142.755C178.366 142.755 178.756 143.15 178.756 143.637C178.756 144.124 178.366 144.519 177.884 144.519C177.401 144.519 177.011 144.124 177.011 143.637C177.011 143.15 177.401 142.755 177.884 142.755Z" fill="#18181B"/>
<path d="M177.884 149.507C178.366 149.507 178.756 149.902 178.756 150.389C178.756 150.876 178.366 151.271 177.884 151.271C177.401 151.271 177.011 150.876 177.011 150.389C177.011 149.902 177.401 149.507 177.884 149.507Z" fill="#18181B"/>
<path d="M175.955 147.906C175.473 147.906 175.083 147.512 175.083 147.025C175.083 146.537 175.473 146.143 175.955 146.143C176.437 146.143 176.827 146.537 176.827 147.025C176.827 147.512 176.437 147.906 175.955 147.906Z" fill="#18181B"/>
<path d="M177.884 156.213C178.366 156.213 178.756 156.608 178.756 157.095C178.756 157.582 178.366 157.977 177.884 157.977C177.401 157.977 177.011 157.582 177.011 157.095C177.011 156.608 177.401 156.213 177.884 156.213Z" fill="#18181B"/>
<path d="M175.955 154.612C175.473 154.612 175.083 154.218 175.083 153.731C175.083 153.243 175.473 152.849 175.955 152.849C176.437 152.849 176.827 153.243 176.827 153.731C176.827 154.218 176.437 154.612 175.955 154.612Z" fill="#18181B"/>
<path d="M181.718 142.755C182.2 142.755 182.59 143.15 182.59 143.637C182.59 144.124 182.2 144.519 181.718 144.519C181.235 144.519 180.845 144.124 180.845 143.637C180.822 143.15 181.235 142.755 181.718 142.755Z" fill="#18181B"/>
<path d="M181.718 149.507C182.2 149.507 182.59 149.902 182.59 150.389C182.59 150.876 182.2 151.271 181.718 151.271C181.235 151.271 180.845 150.876 180.845 150.389C180.822 149.902 181.235 149.507 181.718 149.507Z" fill="#18181B"/>
<path d="M179.812 147.906C179.33 147.906 178.94 147.512 178.94 147.025C178.94 146.537 179.33 146.143 179.812 146.143C180.294 146.143 180.684 146.537 180.684 147.025C180.661 147.512 180.271 147.906 179.812 147.906Z" fill="#18181B"/>
<path d="M181.718 156.213C182.2 156.213 182.59 156.608 182.59 157.095C182.59 157.582 182.2 157.977 181.718 157.977C181.235 157.977 180.845 157.582 180.845 157.095C180.822 156.608 181.235 156.213 181.718 156.213Z" fill="#18181B"/>
<path d="M179.812 154.612C179.33 154.612 178.94 154.218 178.94 153.731C178.94 153.243 179.33 152.849 179.812 152.849C180.294 152.849 180.684 153.243 180.684 153.731C180.661 154.218 180.271 154.612 179.812 154.612Z" fill="#18181B"/>
<path d="M183.646 147.906C183.164 147.906 182.774 147.512 182.774 147.025C182.774 146.537 183.164 146.143 183.646 146.143C184.128 146.143 184.519 146.537 184.519 147.025C184.519 147.512 184.105 147.906 183.646 147.906Z" fill="#18181B"/>
<path d="M183.646 154.612C183.164 154.612 182.774 154.218 182.774 153.731C182.774 153.243 183.164 152.849 183.646 152.849C184.128 152.849 184.519 153.243 184.519 153.731C184.496 154.218 184.105 154.612 183.646 154.612Z" fill="#18181B"/>
<path d="M89.609 115.908C90.0911 115.908 90.5044 116.302 90.5044 116.813C90.5044 117.323 90.1141 117.718 89.609 117.718C89.1039 117.718 88.7136 117.323 88.7136 116.813C88.7366 116.302 89.1269 115.908 89.609 115.908Z" fill="#18181B"/>
<path d="M89.609 122.637C90.0911 122.637 90.5044 123.032 90.5044 123.542C90.5044 124.053 90.1141 124.447 89.609 124.447C89.1039 124.447 88.7136 124.053 88.7136 123.542C88.7366 123.032 89.1269 122.637 89.609 122.637Z" fill="#18181B"/>
<path d="M87.7035 121.036C87.2213 121.036 86.8311 120.642 86.8311 120.154C86.8311 119.667 87.2213 119.273 87.7035 119.273C88.1856 119.273 88.5759 119.667 88.5759 120.154C88.5759 120.642 88.1856 121.036 87.7035 121.036Z" fill="#18181B"/>
<path d="M89.609 129.343C90.0911 129.343 90.5044 129.738 90.5044 130.248C90.5044 130.759 90.1141 131.153 89.609 131.153C89.1039 131.153 88.7136 130.759 88.7136 130.248C88.7366 129.761 89.1269 129.343 89.609 129.343Z" fill="#18181B"/>
<path d="M87.7035 127.742C87.2213 127.742 86.8311 127.348 86.8311 126.86C86.8311 126.373 87.2213 125.979 87.7035 125.979C88.1856 125.979 88.5759 126.373 88.5759 126.86C88.5759 127.348 88.1856 127.742 87.7035 127.742Z" fill="#18181B"/>
<path d="M89.609 136.072C90.0911 136.072 90.5044 136.467 90.5044 136.954C90.5044 137.441 90.1141 137.836 89.609 137.836C89.1039 137.836 88.7136 137.441 88.7136 136.954C88.7366 136.467 89.1269 136.072 89.609 136.072Z" fill="#18181B"/>
<path d="M87.7035 134.448C87.2213 134.448 86.8311 134.054 86.8311 133.566C86.8311 133.079 87.2213 132.685 87.7035 132.685C88.1856 132.685 88.5759 133.079 88.5759 133.566C88.5759 134.077 88.1856 134.448 87.7035 134.448Z" fill="#18181B"/>
<path d="M91.5375 114.307C91.0553 114.307 90.665 113.912 90.665 113.425C90.665 112.938 91.0553 112.543 91.5375 112.543C92.0196 112.543 92.4099 112.938 92.4099 113.425C92.4099 113.912 92.0196 114.307 91.5375 114.307Z" fill="#18181B"/>
<path d="M91.5375 121.036C91.0553 121.036 90.665 120.642 90.665 120.154C90.665 119.667 91.0553 119.273 91.5375 119.273C92.0196 119.273 92.4099 119.667 92.4099 120.154C92.4099 120.642 92.0196 121.036 91.5375 121.036Z" fill="#18181B"/>
<path d="M93.443 129.343C93.9251 129.343 94.3384 129.738 94.3384 130.248C94.3384 130.759 93.9481 131.153 93.443 131.153C92.9379 131.153 92.5476 130.759 92.5476 130.248C92.5706 129.761 92.9609 129.343 93.443 129.343Z" fill="#18181B"/>
<path d="M91.5375 127.742C91.0553 127.742 90.665 127.348 90.665 126.86C90.665 126.373 91.0553 125.979 91.5375 125.979C92.0196 125.979 92.4099 126.373 92.4099 126.86C92.4099 127.348 92.0196 127.742 91.5375 127.742Z" fill="#18181B"/>
<path d="M93.443 136.072C93.9251 136.072 94.3384 136.467 94.3384 136.954C94.3384 137.441 93.9481 137.836 93.443 137.836C92.9379 137.836 92.5476 137.441 92.5476 136.954C92.5706 136.467 92.9609 136.072 93.443 136.072Z" fill="#18181B"/>
<path d="M91.5375 134.448C91.0553 134.448 90.665 134.054 90.665 133.566C90.665 133.079 91.0553 132.685 91.5375 132.685C92.0196 132.685 92.4099 133.079 92.4099 133.566C92.4099 134.077 92.0196 134.448 91.5375 134.448Z" fill="#18181B"/>
<path d="M93.443 142.755C93.9251 142.755 94.3384 143.15 94.3384 143.637C94.3384 144.124 93.9481 144.519 93.443 144.519C92.9379 144.519 92.5476 144.124 92.5476 143.637C92.5706 143.15 92.9609 142.755 93.443 142.755Z" fill="#18181B"/>
<path d="M91.5375 139.437C92.0196 139.437 92.4328 139.831 92.4328 140.319C92.4328 140.806 92.0425 141.201 91.5375 141.201C91.0324 141.201 90.6421 140.806 90.6421 140.319C90.665 139.831 91.0553 139.437 91.5375 139.437Z" fill="#18181B"/>
<path d="M97.3 136.072C97.7822 136.072 98.1954 136.467 98.1954 136.954C98.1954 137.441 97.8051 137.836 97.3 137.836C96.795 137.836 96.4047 137.441 96.4047 136.954C96.4047 136.467 96.8179 136.072 97.3 136.072Z" fill="#18181B"/>
<path d="M95.3716 132.708C95.8537 132.708 96.2669 133.102 96.2669 133.613C96.2669 134.123 95.8767 134.494 95.3716 134.494C94.8665 134.494 94.4762 134.1 94.4762 133.613C94.4762 133.125 94.8894 132.708 95.3716 132.708Z" fill="#18181B"/>
<path d="M97.3 142.755C97.7822 142.755 98.1954 143.15 98.1954 143.637C98.1954 144.124 97.8051 144.519 97.3 144.519C96.795 144.519 96.4047 144.124 96.4047 143.637C96.4047 143.15 96.8179 142.755 97.3 142.755Z" fill="#18181B"/>
<path d="M95.3716 139.437C95.8537 139.437 96.2669 139.831 96.2669 140.319C96.2669 140.806 95.8767 141.201 95.3716 141.201C94.8665 141.201 94.4762 140.806 94.4762 140.319C94.4762 139.831 94.8894 139.437 95.3716 139.437Z" fill="#18181B"/>
<path d="M101.134 136.072C101.616 136.072 102.029 136.467 102.029 136.954C102.029 137.441 101.639 137.836 101.134 137.836C100.629 137.836 100.239 137.441 100.239 136.954C100.239 136.467 100.652 136.072 101.134 136.072Z" fill="#18181B"/>
<path d="M101.134 142.755C101.616 142.755 102.029 143.15 102.029 143.637C102.029 144.124 101.639 144.519 101.134 144.519C100.629 144.519 100.239 144.124 100.239 143.637C100.239 143.15 100.652 142.755 101.134 142.755Z" fill="#18181B"/>
<path d="M99.2056 139.437C99.6877 139.437 100.101 139.831 100.101 140.319C100.101 140.806 99.7106 141.201 99.2056 141.201C98.7005 141.201 98.3102 140.806 98.3102 140.319C98.3331 139.831 98.7234 139.437 99.2056 139.437Z" fill="#18181B"/>
<path d="M99.2055 147.906C98.7234 147.906 98.3331 147.512 98.3331 147.025C98.3331 146.537 98.7234 146.143 99.2055 146.143C99.6877 146.143 100.078 146.537 100.078 147.025C100.078 147.512 99.6877 147.906 99.2055 147.906Z" fill="#18181B"/>
<path d="M104.968 142.755C105.45 142.755 105.863 143.15 105.863 143.637C105.863 144.124 105.473 144.519 104.968 144.519C104.463 144.519 104.073 144.124 104.073 143.637C104.073 143.15 104.486 142.755 104.968 142.755Z" fill="#18181B"/>
<path d="M103.04 139.437C103.522 139.437 103.935 139.831 103.935 140.319C103.935 140.806 103.545 141.201 103.04 141.201C102.534 141.201 102.144 140.806 102.144 140.319C102.167 139.831 102.557 139.437 103.04 139.437Z" fill="#18181B"/>
<path d="M104.968 149.507C105.45 149.507 105.863 149.902 105.863 150.389C105.863 150.876 105.473 151.271 104.968 151.271C104.463 151.271 104.073 150.876 104.073 150.389C104.073 149.902 104.486 149.507 104.968 149.507Z" fill="#18181B"/>
<path d="M103.04 146.143C103.522 146.143 103.935 146.537 103.935 147.025C103.935 147.512 103.545 147.906 103.04 147.906C102.534 147.906 102.144 147.512 102.144 147.025C102.167 146.537 102.557 146.143 103.04 146.143Z" fill="#18181B"/>
<path d="M108.802 142.755C109.284 142.755 109.697 143.15 109.697 143.637C109.697 144.124 109.307 144.519 108.802 144.519C108.297 144.519 107.907 144.124 107.907 143.637C107.907 143.15 108.32 142.755 108.802 142.755Z" fill="#18181B"/>
<path d="M106.897 139.437C107.379 139.437 107.792 139.831 107.792 140.319C107.792 140.806 107.402 141.201 106.897 141.201C106.392 141.201 106.001 140.806 106.001 140.319C106.001 139.831 106.392 139.437 106.897 139.437Z" fill="#18181B"/>
<path d="M110.731 139.437C111.213 139.437 111.626 139.831 111.626 140.319C111.626 140.806 111.236 141.201 110.731 141.201C110.225 141.201 109.835 140.806 109.835 140.319C109.835 139.831 110.248 139.437 110.731 139.437Z" fill="#18181B"/>
<path d="M108.802 149.507C109.284 149.507 109.697 149.902 109.697 150.389C109.697 150.876 109.307 151.271 108.802 151.271C108.297 151.271 107.907 150.876 107.907 150.389C107.907 149.902 108.32 149.507 108.802 149.507Z" fill="#18181B"/>
<path d="M106.897 147.906C106.414 147.906 106.024 147.512 106.024 147.025C106.024 146.537 106.414 146.143 106.897 146.143C107.379 146.143 107.769 146.537 107.769 147.025C107.746 147.512 107.356 147.906 106.897 147.906Z" fill="#18181B"/>
<path d="M112.636 142.755C113.118 142.755 113.531 143.15 113.531 143.637C113.531 144.124 113.141 144.519 112.636 144.519C112.131 144.519 111.741 144.124 111.741 143.637C111.764 143.15 112.154 142.755 112.636 142.755Z" fill="#18181B"/>
<path d="M112.636 149.507C113.118 149.507 113.531 149.902 113.531 150.389C113.531 150.876 113.141 151.271 112.636 151.271C112.131 151.271 111.741 150.876 111.741 150.389C111.764 149.902 112.154 149.507 112.636 149.507Z" fill="#18181B"/>
<path d="M110.731 146.143C111.213 146.143 111.626 146.537 111.626 147.025C111.626 147.512 111.236 147.906 110.731 147.906C110.225 147.906 109.835 147.512 109.835 147.025C109.835 146.537 110.225 146.143 110.731 146.143Z" fill="#18181B"/>
<path d="M110.731 152.872C111.213 152.872 111.626 153.267 111.626 153.754C111.626 154.241 111.236 154.636 110.731 154.636C110.225 154.636 109.835 154.241 109.835 153.754C109.835 153.267 110.225 152.872 110.731 152.872Z" fill="#18181B"/>
<path d="M116.47 142.755C116.952 142.755 117.366 143.15 117.366 143.637C117.366 144.124 116.975 144.519 116.47 144.519C115.965 144.519 115.575 144.124 115.575 143.637C115.598 143.15 115.988 142.755 116.47 142.755Z" fill="#18181B"/>
<path d="M116.47 149.507C116.952 149.507 117.366 149.902 117.366 150.389C117.366 150.876 116.975 151.271 116.47 151.271C115.965 151.271 115.575 150.876 115.575 150.389C115.598 149.902 115.988 149.507 116.47 149.507Z" fill="#18181B"/>
<path d="M114.565 147.906C114.083 147.906 113.692 147.512 113.692 147.025C113.692 146.537 114.083 146.143 114.565 146.143C115.047 146.143 115.437 146.537 115.437 147.025C115.414 147.512 115.024 147.906 114.565 147.906Z" fill="#18181B"/>
<path d="M114.565 154.612C114.083 154.612 113.692 154.218 113.692 153.731C113.692 153.243 114.083 152.849 114.565 152.849C115.047 152.849 115.437 153.243 115.437 153.731C115.414 154.218 115.024 154.612 114.565 154.612Z" fill="#18181B"/>
<path d="M120.304 142.755C120.786 142.755 121.2 143.15 121.2 143.637C121.2 144.124 120.809 144.519 120.304 144.519C119.799 144.519 119.409 144.124 119.409 143.637C119.432 143.15 119.822 142.755 120.304 142.755Z" fill="#18181B"/>
<path d="M120.304 149.507C120.786 149.507 121.2 149.902 121.2 150.389C121.2 150.876 120.809 151.271 120.304 151.271C119.799 151.271 119.409 150.876 119.409 150.389C119.432 149.902 119.822 149.507 120.304 149.507Z" fill="#18181B"/>
<path d="M118.399 146.143C118.881 146.143 119.294 146.537 119.294 147.025C119.294 147.512 118.904 147.906 118.399 147.906C117.894 147.906 117.503 147.512 117.503 147.025C117.526 146.537 117.917 146.143 118.399 146.143Z" fill="#18181B"/>
<path d="M120.304 156.213C120.786 156.213 121.2 156.608 121.2 157.095C121.2 157.582 120.809 157.977 120.304 157.977C119.799 157.977 119.409 157.582 119.409 157.095C119.432 156.608 119.822 156.213 120.304 156.213Z" fill="#18181B"/>
<path d="M118.399 152.872C118.881 152.872 119.294 153.267 119.294 153.754C119.294 154.241 118.904 154.636 118.399 154.636C117.894 154.636 117.503 154.241 117.503 153.754C117.526 153.267 117.917 152.872 118.399 152.872Z" fill="#18181B"/>
<path d="M124.138 142.755C124.62 142.755 125.034 143.15 125.034 143.637C125.034 144.124 124.643 144.519 124.138 144.519C123.633 144.519 123.243 144.124 123.243 143.637C123.266 143.15 123.656 142.755 124.138 142.755Z" fill="#18181B"/>
<path d="M124.138 149.507C124.62 149.507 125.034 149.902 125.034 150.389C125.034 150.876 124.643 151.271 124.138 151.271C123.633 151.271 123.243 150.876 123.243 150.389C123.266 149.902 123.656 149.507 124.138 149.507Z" fill="#18181B"/>
<path d="M122.233 147.906C121.751 147.906 121.36 147.512 121.36 147.025C121.36 146.537 121.751 146.143 122.233 146.143C122.715 146.143 123.105 146.537 123.105 147.025C123.105 147.512 122.715 147.906 122.233 147.906Z" fill="#18181B"/>
<path d="M124.138 156.213C124.62 156.213 125.034 156.608 125.034 157.095C125.034 157.582 124.643 157.977 124.138 157.977C123.633 157.977 123.243 157.582 123.243 157.095C123.266 156.608 123.656 156.213 124.138 156.213Z" fill="#18181B"/>
<path d="M122.233 154.612C121.751 154.612 121.36 154.218 121.36 153.731C121.36 153.243 121.751 152.849 122.233 152.849C122.715 152.849 123.105 153.243 123.105 153.731C123.105 154.218 122.715 154.612 122.233 154.612Z" fill="#18181B"/>
<path d="M127.995 142.755C128.477 142.755 128.891 143.15 128.891 143.637C128.891 144.124 128.5 144.519 127.995 144.519C127.49 144.519 127.1 144.124 127.1 143.637C127.1 143.15 127.49 142.755 127.995 142.755Z" fill="#18181B"/>
<path d="M127.995 149.507C128.477 149.507 128.891 149.902 128.891 150.389C128.891 150.876 128.5 151.271 127.995 151.271C127.49 151.271 127.1 150.876 127.1 150.389C127.1 149.902 127.49 149.507 127.995 149.507Z" fill="#18181B"/>
<path d="M126.067 146.143C126.549 146.143 126.962 146.537 126.962 147.025C126.962 147.512 126.572 147.906 126.067 147.906C125.562 147.906 125.171 147.512 125.171 147.025C125.194 146.537 125.585 146.143 126.067 146.143Z" fill="#18181B"/>
<path d="M127.995 156.213C128.477 156.213 128.891 156.608 128.891 157.095C128.891 157.582 128.5 157.977 127.995 157.977C127.49 157.977 127.1 157.582 127.1 157.095C127.1 156.608 127.49 156.213 127.995 156.213Z" fill="#18181B"/>
<path d="M126.067 152.872C126.549 152.872 126.962 153.267 126.962 153.754C126.962 154.241 126.572 154.636 126.067 154.636C125.562 154.636 125.171 154.241 125.171 153.754C125.194 153.267 125.585 152.872 126.067 152.872Z" fill="#18181B"/>
<path d="M131.829 142.755C132.311 142.755 132.702 143.15 132.702 143.637C132.702 144.124 132.311 144.519 131.829 144.519C131.347 144.519 130.934 144.124 130.934 143.637C130.957 143.15 131.347 142.755 131.829 142.755Z" fill="#18181B"/>
<path d="M131.829 149.507C132.311 149.507 132.702 149.902 132.702 150.389C132.702 150.876 132.311 151.271 131.829 151.271C131.347 151.271 130.934 150.876 130.934 150.389C130.957 149.902 131.347 149.507 131.829 149.507Z" fill="#18181B"/>
<path d="M129.901 147.906C129.419 147.906 129.028 147.512 129.028 147.025C129.028 146.537 129.419 146.143 129.901 146.143C130.383 146.143 130.773 146.537 130.773 147.025C130.773 147.512 130.383 147.906 129.901 147.906Z" fill="#18181B"/>
<path d="M131.829 156.213C132.311 156.213 132.702 156.608 132.702 157.095C132.702 157.582 132.311 157.977 131.829 157.977C131.347 157.977 130.934 157.582 130.934 157.095C130.957 156.608 131.347 156.213 131.829 156.213Z" fill="#18181B"/>
<path d="M129.901 154.612C129.419 154.612 129.028 154.218 129.028 153.731C129.028 153.243 129.419 152.849 129.901 152.849C130.383 152.849 130.773 153.243 130.773 153.731C130.773 154.218 130.383 154.612 129.901 154.612Z" fill="#18181B"/>
<path d="M135.709 142.755C136.191 142.755 136.582 143.15 136.582 143.637C136.582 144.124 136.191 144.519 135.709 144.519C135.227 144.519 134.814 144.124 134.814 143.637C134.814 143.15 135.204 142.755 135.709 142.755Z" fill="#18181B"/>
<path d="M135.709 149.507C136.191 149.507 136.582 149.902 136.582 150.389C136.582 150.876 136.191 151.271 135.709 151.271C135.227 151.271 134.814 150.876 134.814 150.389C134.814 149.902 135.204 149.507 135.709 149.507Z" fill="#18181B"/>
<path d="M133.735 147.906C133.253 147.906 132.862 147.512 132.862 147.025C132.862 146.537 133.253 146.143 133.735 146.143C134.217 146.143 134.607 146.537 134.607 147.025C134.607 147.512 134.217 147.906 133.735 147.906Z" fill="#18181B"/>
<path d="M135.709 156.213C136.191 156.213 136.582 156.608 136.582 157.095C136.582 157.582 136.191 157.977 135.709 157.977C135.227 157.977 134.814 157.582 134.814 157.095C134.814 156.608 135.204 156.213 135.709 156.213Z" fill="#18181B"/>
<path d="M133.735 154.612C133.253 154.612 132.862 154.218 132.862 153.731C132.862 153.243 133.253 152.849 133.735 152.849C134.217 152.849 134.607 153.243 134.607 153.731C134.607 154.218 134.217 154.612 133.735 154.612Z" fill="#18181B"/>
<path d="M139.497 142.755C139.979 142.755 140.37 143.15 140.37 143.637C140.37 144.124 139.979 144.519 139.497 144.519C139.015 144.519 138.602 144.124 138.602 143.637C138.625 143.15 139.015 142.755 139.497 142.755Z" fill="#18181B"/>
<path d="M139.497 149.507C139.979 149.507 140.37 149.902 140.37 150.389C140.37 150.876 139.979 151.271 139.497 151.271C139.015 151.271 138.602 150.876 138.602 150.389C138.625 149.902 139.015 149.507 139.497 149.507Z" fill="#18181B"/>
<path d="M137.569 147.906C137.087 147.906 136.696 147.512 136.696 147.025C136.696 146.537 137.087 146.143 137.569 146.143C138.051 146.143 138.441 146.537 138.441 147.025C138.441 147.512 138.051 147.906 137.569 147.906Z" fill="#18181B"/>
<path d="M139.497 156.213C139.979 156.213 140.37 156.608 140.37 157.095C140.37 157.582 139.979 157.977 139.497 157.977C139.015 157.977 138.602 157.582 138.602 157.095C138.625 156.608 139.015 156.213 139.497 156.213Z" fill="#18181B"/>
<path d="M137.569 154.612C137.087 154.612 136.696 154.218 136.696 153.731C136.696 153.243 137.087 152.849 137.569 152.849C138.051 152.849 138.441 153.243 138.441 153.731C138.441 154.218 138.051 154.612 137.569 154.612Z" fill="#18181B"/>
<path d="M143.331 142.755C143.814 142.755 144.204 143.15 144.204 143.637C144.204 144.124 143.814 144.519 143.331 144.519C142.849 144.519 142.459 144.124 142.459 143.637C142.459 143.15 142.849 142.755 143.331 142.755Z" fill="#18181B"/>
<path d="M143.331 149.507C143.814 149.507 144.204 149.902 144.204 150.389C144.204 150.876 143.814 151.271 143.331 151.271C142.849 151.271 142.459 150.876 142.459 150.389C142.459 149.902 142.849 149.507 143.331 149.507Z" fill="#18181B"/>
<path d="M141.426 147.906C140.944 147.906 140.553 147.512 140.553 147.025C140.553 146.537 140.944 146.143 141.426 146.143C141.908 146.143 142.298 146.537 142.298 147.025C142.298 147.512 141.885 147.906 141.426 147.906Z" fill="#18181B"/>
<path d="M143.331 156.213C143.814 156.213 144.204 156.608 144.204 157.095C144.204 157.582 143.814 157.977 143.331 157.977C142.849 157.977 142.459 157.582 142.459 157.095C142.459 156.608 142.849 156.213 143.331 156.213Z" fill="#18181B"/>
<path d="M141.426 154.612C140.944 154.612 140.553 154.218 140.553 153.731C140.553 153.243 140.944 152.849 141.426 152.849C141.908 152.849 142.298 153.243 142.298 153.731C142.275 154.218 141.885 154.612 141.426 154.612Z" fill="#18181B"/>
<path d="M147.142 142.755C147.625 142.755 148.015 143.15 148.015 143.637C148.015 144.124 147.625 144.519 147.142 144.519C146.66 144.519 146.27 144.124 146.27 143.637C146.247 143.15 146.637 142.755 147.142 142.755Z" fill="#18181B"/>
<path d="M147.142 149.507C147.625 149.507 148.015 149.902 148.015 150.389C148.015 150.876 147.625 151.271 147.142 151.271C146.66 151.271 146.27 150.876 146.27 150.389C146.247 149.902 146.637 149.507 147.142 149.507Z" fill="#18181B"/>
<path d="M145.26 147.906C144.778 147.906 144.387 147.512 144.387 147.025C144.387 146.537 144.778 146.143 145.26 146.143C145.742 146.143 146.132 146.537 146.132 147.025C146.132 147.512 145.742 147.906 145.26 147.906Z" fill="#18181B"/>
<path d="M147.142 156.213C147.625 156.213 148.015 156.608 148.015 157.095C148.015 157.582 147.625 157.977 147.142 157.977C146.66 157.977 146.27 157.582 146.27 157.095C146.247 156.608 146.637 156.213 147.142 156.213Z" fill="#18181B"/>
<path d="M145.26 154.612C144.778 154.612 144.387 154.218 144.387 153.731C144.387 153.243 144.778 152.849 145.26 152.849C145.742 152.849 146.132 153.243 146.132 153.731C146.132 154.218 145.742 154.612 145.26 154.612Z" fill="#18181B"/>
<path d="M151.022 142.755C151.505 142.755 151.895 143.15 151.895 143.637C151.895 144.124 151.505 144.519 151.022 144.519C150.54 144.519 150.15 144.124 150.15 143.637C150.127 143.15 150.517 142.755 151.022 142.755Z" fill="#18181B"/>
<path d="M151.022 149.507C151.505 149.507 151.895 149.902 151.895 150.389C151.895 150.876 151.505 151.271 151.022 151.271C150.54 151.271 150.15 150.876 150.15 150.389C150.127 149.902 150.517 149.507 151.022 149.507Z" fill="#18181B"/>
<path d="M149.094 147.906C148.612 147.906 148.221 147.512 148.221 147.025C148.221 146.537 148.612 146.143 149.094 146.143C149.576 146.143 149.966 146.537 149.966 147.025C149.966 147.512 149.576 147.906 149.094 147.906Z" fill="#18181B"/>
<path d="M151.022 156.213C151.505 156.213 151.895 156.608 151.895 157.095C151.895 157.582 151.505 157.977 151.022 157.977C150.54 157.977 150.15 157.582 150.15 157.095C150.127 156.608 150.517 156.213 151.022 156.213Z" fill="#18181B"/>
<path d="M149.094 154.612C148.612 154.612 148.221 154.218 148.221 153.731C148.221 153.243 148.612 152.849 149.094 152.849C149.576 152.849 149.966 153.243 149.966 153.731C149.966 154.218 149.576 154.612 149.094 154.612Z" fill="#18181B"/>
<path d="M154.856 142.755C155.338 142.755 155.729 143.15 155.729 143.637C155.729 144.124 155.338 144.519 154.856 144.519C154.374 144.519 153.984 144.124 153.984 143.637C153.961 143.15 154.374 142.755 154.856 142.755Z" fill="#18181B"/>
<path d="M154.856 149.507C155.338 149.507 155.729 149.902 155.729 150.389C155.729 150.876 155.338 151.271 154.856 151.271C154.374 151.271 153.984 150.876 153.984 150.389C153.961 149.902 154.374 149.507 154.856 149.507Z" fill="#18181B"/>
<path d="M152.928 147.906C152.446 147.906 152.056 147.512 152.056 147.025C152.056 146.537 152.446 146.143 152.928 146.143C153.41 146.143 153.8 146.537 153.8 147.025C153.8 147.512 153.41 147.906 152.928 147.906Z" fill="#18181B"/>
<path d="M154.856 156.213C155.338 156.213 155.729 156.608 155.729 157.095C155.729 157.582 155.338 157.977 154.856 157.977C154.374 157.977 153.984 157.582 153.984 157.095C153.961 156.608 154.374 156.213 154.856 156.213Z" fill="#18181B"/>
<path d="M152.928 154.612C152.446 154.612 152.056 154.218 152.056 153.731C152.056 153.243 152.446 152.849 152.928 152.849C153.41 152.849 153.8 153.243 153.8 153.731C153.8 154.218 153.41 154.612 152.928 154.612Z" fill="#18181B"/>
<path d="M156.762 147.906C156.28 147.906 155.89 147.512 155.89 147.025C155.89 146.537 156.28 146.143 156.762 146.143C157.244 146.143 157.634 146.537 157.634 147.025C157.634 147.512 157.244 147.906 156.762 147.906Z" fill="#18181B"/>
<path d="M156.762 154.612C156.28 154.612 155.89 154.218 155.89 153.731C155.89 153.243 156.28 152.849 156.762 152.849C157.244 152.849 157.634 153.243 157.634 153.731C157.634 154.218 157.244 154.612 156.762 154.612Z" fill="#18181B"/>
<path d="M170.215 142.755C169.733 142.755 169.343 143.15 169.343 143.637C169.343 144.124 169.733 144.519 170.215 144.519C170.698 144.519 171.088 144.124 171.088 143.637C171.088 143.15 170.698 142.755 170.215 142.755Z" fill="#18181B"/>
<path d="M170.215 149.507C169.733 149.507 169.343 149.902 169.343 150.389C169.343 150.876 169.733 151.271 170.215 151.271C170.698 151.271 171.088 150.876 171.088 150.389C171.088 149.902 170.698 149.507 170.215 149.507Z" fill="#18181B"/>
<path d="M170.215 156.213C169.733 156.213 169.343 156.608 169.343 157.095C169.343 157.582 169.733 157.977 170.215 157.977C170.698 157.977 171.088 157.582 171.088 157.095C171.088 156.608 170.698 156.213 170.215 156.213Z" fill="#18181B"/>
<path d="M166.404 142.755C165.922 142.755 165.532 143.15 165.532 143.637C165.532 144.124 165.922 144.519 166.404 144.519C166.887 144.519 167.277 144.124 167.277 143.637C167.3 143.15 166.887 142.755 166.404 142.755Z" fill="#18181B"/>
<path d="M166.404 149.507C165.922 149.507 165.532 149.902 165.532 150.389C165.532 150.876 165.922 151.271 166.404 151.271C166.887 151.271 167.277 150.876 167.277 150.389C167.3 149.902 166.887 149.507 166.404 149.507Z" fill="#18181B"/>
<path d="M168.287 147.906C168.769 147.906 169.159 147.512 169.159 147.025C169.159 146.537 168.769 146.143 168.287 146.143C167.805 146.143 167.415 146.537 167.415 147.025C167.415 147.512 167.805 147.906 168.287 147.906Z" fill="#18181B"/>
<path d="M166.404 156.213C165.922 156.213 165.532 156.608 165.532 157.095C165.532 157.582 165.922 157.977 166.404 157.977C166.887 157.977 167.277 157.582 167.277 157.095C167.3 156.608 166.887 156.213 166.404 156.213Z" fill="#18181B"/>
<path d="M168.287 154.612C168.769 154.612 169.159 154.218 169.159 153.731C169.159 153.243 168.769 152.849 168.287 152.849C167.805 152.849 167.415 153.243 167.415 153.731C167.415 154.218 167.805 154.612 168.287 154.612Z" fill="#18181B"/>
<path d="M162.525 142.755C162.042 142.755 161.652 143.15 161.652 143.637C161.652 144.124 162.042 144.519 162.525 144.519C163.007 144.519 163.397 144.124 163.397 143.637C163.42 143.15 163.007 142.755 162.525 142.755Z" fill="#18181B"/>
<path d="M162.525 149.507C162.042 149.507 161.652 149.902 161.652 150.389C161.652 150.876 162.042 151.271 162.525 151.271C163.007 151.271 163.397 150.876 163.397 150.389C163.42 149.902 163.007 149.507 162.525 149.507Z" fill="#18181B"/>
<path d="M164.453 147.906C164.935 147.906 165.325 147.512 165.325 147.025C165.325 146.537 164.935 146.143 164.453 146.143C163.971 146.143 163.581 146.537 163.581 147.025C163.581 147.512 163.971 147.906 164.453 147.906Z" fill="#18181B"/>
<path d="M162.525 156.213C162.042 156.213 161.652 156.608 161.652 157.095C161.652 157.582 162.042 157.977 162.525 157.977C163.007 157.977 163.397 157.582 163.397 157.095C163.42 156.608 163.007 156.213 162.525 156.213Z" fill="#18181B"/>
<path d="M164.453 154.612C164.935 154.612 165.325 154.218 165.325 153.731C165.325 153.243 164.935 152.849 164.453 152.849C163.971 152.849 163.581 153.243 163.581 153.731C163.581 154.218 163.971 154.612 164.453 154.612Z" fill="#18181B"/>
<path d="M158.69 142.755C158.208 142.755 157.818 143.15 157.818 143.637C157.818 144.124 158.208 144.519 158.69 144.519C159.173 144.519 159.563 144.124 159.563 143.637C159.586 143.15 159.173 142.755 158.69 142.755Z" fill="#18181B"/>
<path d="M158.69 149.507C158.208 149.507 157.818 149.902 157.818 150.389C157.818 150.876 158.208 151.271 158.69 151.271C159.173 151.271 159.563 150.876 159.563 150.389C159.586 149.902 159.173 149.507 158.69 149.507Z" fill="#18181B"/>
<path d="M160.596 147.906C161.078 147.906 161.468 147.512 161.468 147.025C161.468 146.537 161.078 146.143 160.596 146.143C160.114 146.143 159.724 146.537 159.724 147.025C159.746 147.512 160.137 147.906 160.596 147.906Z" fill="#18181B"/>
<path d="M158.69 156.213C158.208 156.213 157.818 156.608 157.818 157.095C157.818 157.582 158.208 157.977 158.69 157.977C159.173 157.977 159.563 157.582 159.563 157.095C159.586 156.608 159.173 156.213 158.69 156.213Z" fill="#18181B"/>
<path d="M160.596 154.612C161.078 154.612 161.468 154.218 161.468 153.731C161.468 153.243 161.078 152.849 160.596 152.849C160.114 152.849 159.724 153.243 159.724 153.731C159.746 154.218 160.137 154.612 160.596 154.612Z" fill="#18181B"/>
<path d="M156.762 147.906C157.244 147.906 157.634 147.512 157.634 147.025C157.634 146.537 157.244 146.143 156.762 146.143C156.28 146.143 155.89 146.537 155.89 147.025C155.912 147.512 156.303 147.906 156.762 147.906Z" fill="#18181B"/>
<path d="M156.762 154.612C157.244 154.612 157.634 154.218 157.634 153.731C157.634 153.243 157.244 152.849 156.762 152.849C156.28 152.849 155.89 153.243 155.89 153.731C155.912 154.218 156.303 154.612 156.762 154.612Z" fill="#18181B"/>
<path d="M220.701 96.5791C216.224 95.4885 212.528 91.451 210.966 85.9052C212.665 78.4335 211.127 78.5031 207.018 78.712C200.589 70.869 187.87 64.2095 173.361 64.2095C156.877 64.2095 142.689 72.7718 138.464 81.0556C135.204 87.2975 132.495 88.2488 128.409 88.5505C114.84 89.5482 106.529 97.9481 106.529 103.517C106.529 109.62 116.011 118.484 130.888 118.484H214.318C226.257 118.484 233.879 111.151 233.879 107.323C233.879 104.631 229.471 98.7138 220.701 96.5791Z" fill="white"/>
<path d="M136.191 114.724C136.765 115.073 137.477 115.212 138.946 115.212H142.115C143.607 115.212 144.319 115.073 144.893 114.724C145.673 114.214 146.339 113.286 146.339 110.617C146.339 107.949 145.673 106.998 144.893 106.51C144.319 106.139 143.607 106.023 142.115 106.023H138.946C137.454 106.023 136.765 106.139 136.191 106.51C135.388 106.998 134.745 107.972 134.745 110.617C134.722 113.263 135.365 114.214 136.191 114.724ZM138.533 107.856C138.694 107.763 138.923 107.717 139.635 107.717H141.403C142.138 107.717 142.344 107.763 142.528 107.856C142.734 107.995 143.056 108.343 143.056 110.617C143.056 112.891 142.734 113.239 142.528 113.355C142.344 113.471 142.138 113.495 141.403 113.495H139.635C138.923 113.495 138.694 113.448 138.533 113.355C138.326 113.239 138.005 112.891 138.005 110.617C138.028 108.343 138.326 107.995 138.533 107.856Z" fill="#18181B"/>
<path d="M154.03 106.742V113.239H156.854V105.002H154.627L151.413 105.814L152.124 107.206L154.03 106.742Z" fill="#18181B"/>
<path d="M164.568 109.666C165.004 109.921 165.532 110.037 166.657 110.037H169.045C170.17 110.037 170.698 109.945 171.134 109.666C171.731 109.295 172.236 108.575 172.236 106.58C172.236 104.584 171.731 103.865 171.134 103.494C170.698 103.215 170.17 103.123 169.045 103.123H166.657C165.532 103.123 165.004 103.215 164.568 103.494C163.948 103.865 163.466 104.584 163.466 106.58C163.466 108.575 163.948 109.272 164.568 109.666ZM166.359 104.492C166.473 104.422 166.634 104.376 167.185 104.376H168.517C169.068 104.376 169.228 104.422 169.366 104.492C169.527 104.584 169.756 104.84 169.756 106.557C169.756 108.274 169.527 108.529 169.366 108.622C169.228 108.692 169.068 108.738 168.517 108.738H167.185C166.657 108.738 166.473 108.715 166.359 108.622C166.198 108.529 165.968 108.274 165.968 106.557C165.945 104.84 166.198 104.584 166.359 104.492Z" fill="#18181B"/>
<path d="M178.343 101.754V106.673H180.455V100.431H178.779L176.345 101.034L176.873 102.102L178.343 101.754Z" fill="#18181B"/>
<path d="M186.745 98.6209V103.123H188.697V97.3911H187.159L184.932 97.9712L185.414 98.9226L186.745 98.6209Z" fill="#18181B"/>
<path d="M192.806 98.064C193.082 98.2496 193.449 98.296 194.161 98.296H195.699C196.434 98.296 196.778 98.2264 197.077 98.064C197.467 97.8319 197.788 97.3446 197.788 96.0452C197.788 94.7458 197.467 94.2817 197.077 94.0265C196.801 93.8408 196.434 93.7944 195.699 93.7944H194.161C193.426 93.7944 193.082 93.8408 192.806 94.0265C192.416 94.2585 192.095 94.7458 192.095 96.0452C192.095 97.3446 192.416 97.8087 192.806 98.064ZM193.954 94.6994C194.023 94.653 194.138 94.6298 194.505 94.6298H195.378C195.745 94.6298 195.837 94.653 195.929 94.6994C196.021 94.769 196.181 94.9314 196.181 96.0452C196.181 97.159 196.021 97.3214 195.929 97.3911C195.837 97.4375 195.745 97.4607 195.378 97.4607H194.505C194.161 97.4607 194.046 97.4375 193.954 97.3911C193.863 97.3214 193.702 97.159 193.702 96.0452C193.702 94.9314 193.863 94.769 193.954 94.6994Z" fill="#18181B"/>
<path d="M199.35 92.9823C199.579 93.1216 199.855 93.1912 200.475 93.1912H201.76C202.357 93.1912 202.656 93.1448 202.885 92.9823C203.207 92.7735 203.482 92.4022 203.482 91.3117C203.482 90.2211 203.207 89.8498 202.885 89.641C202.656 89.5017 202.357 89.4321 201.76 89.4321H200.475C199.878 89.4321 199.602 89.4785 199.35 89.641C199.028 89.8498 198.753 90.2211 198.753 91.3117C198.776 92.4022 199.028 92.7735 199.35 92.9823ZM200.291 90.1979C200.36 90.1515 200.452 90.1515 200.75 90.1515H201.462C201.76 90.1515 201.852 90.1747 201.921 90.1979C202.013 90.2443 202.128 90.4067 202.128 91.3117C202.128 92.2166 201.99 92.379 201.921 92.4254C201.852 92.4719 201.76 92.4951 201.462 92.4951H200.75C200.452 92.4951 200.36 92.4719 200.291 92.4254C200.199 92.379 200.084 92.2398 200.084 91.3117C200.084 90.3835 200.222 90.2443 200.291 90.1979Z" fill="#18181B"/>
<path d="M204.354 87.9704C204.538 88.0864 204.722 88.1096 205.181 88.1096H206.099C206.535 88.1096 206.742 88.0632 206.926 87.9704C207.155 87.8312 207.362 87.5527 207.362 86.7638C207.362 85.9749 207.178 85.6964 206.926 85.5572C206.742 85.4412 206.535 85.418 206.099 85.418H205.181C204.745 85.418 204.538 85.4644 204.354 85.5572C204.125 85.6964 203.918 85.9981 203.918 86.7638C203.941 87.5527 204.125 87.808 204.354 87.9704ZM205.043 85.9517C205.089 85.9285 205.158 85.9053 205.365 85.9053H205.893C206.122 85.9053 206.168 85.9285 206.214 85.9517C206.283 85.9981 206.375 86.0909 206.375 86.7638C206.375 87.4367 206.283 87.5295 206.214 87.5759C206.168 87.5991 206.099 87.6223 205.893 87.6223H205.388C205.181 87.6223 205.112 87.6224 205.066 87.5759C204.997 87.5295 204.905 87.4367 204.905 86.7638C204.905 86.0909 204.997 85.9749 205.043 85.9517Z" fill="#18181B"/>
<path d="M215.627 126.976V140.991C232.18 140.527 245.45 131.547 245.45 120.572V113.007C240.514 121.036 229.218 126.628 215.627 126.976Z" fill="white"/>
<path d="M106.874 135.005V121.384C101.455 118.484 97.3918 114.748 94.9583 110.525V117.579C94.9583 124.308 99.2744 130.596 106.874 135.005Z" fill="white"/>
<path d="M248.09 81.1483C248.09 70.8225 238.241 61.6802 224.053 58.7565C218.129 43.7899 197.008 33 173.361 33C153.663 33 134.722 40.843 126.962 52.1201C107.172 53.4891 92.3411 64.6039 92.3411 78.155C92.3411 82.2621 93.6726 86.114 96.0833 89.5482C93.6726 92.9824 92.3411 96.811 92.3411 100.872V117.555C92.3411 117.811 92.3411 118.043 92.364 118.298C92.364 118.368 92.364 118.414 92.364 118.484C92.364 118.669 92.387 118.855 92.387 119.04C92.387 119.11 92.387 119.156 92.4099 119.226C92.4329 119.412 92.4559 119.621 92.4788 119.806C92.4788 119.853 92.4788 119.899 92.5018 119.945C92.5247 120.177 92.5706 120.41 92.5936 120.618V120.642C94.7976 133.775 110.822 143.637 130.888 143.637H214.318C233.259 143.637 248.09 133.497 248.09 120.549V103.865C248.09 99.8043 246.552 95.9061 243.843 92.5183C246.552 89.2001 248.09 85.325 248.09 81.1483ZM245.45 113.007V120.572C245.45 131.547 232.203 140.527 215.627 140.991V126.976C229.218 126.628 240.514 121.036 245.45 113.007ZM94.9583 110.525C97.3919 114.771 101.455 118.507 106.874 121.384V135.005C99.2745 130.573 94.9583 124.308 94.9583 117.555V110.525ZM214.295 124.308H130.888C112.315 124.308 97.0016 115.073 95.1649 103.285V103.262C95.142 103.076 95.119 102.914 95.0961 102.728C95.0961 102.682 95.0731 102.612 95.0731 102.542C95.0501 102.403 95.0501 102.264 95.0272 102.125C95.0272 102.009 95.0042 101.916 95.0042 101.8C95.0042 101.707 94.9813 101.591 94.9813 101.498C94.9813 101.289 94.9583 101.081 94.9583 100.849C94.9583 97.6 95.9455 94.4906 97.7592 91.6829C104.44 99.2474 116.631 104.213 130.888 104.213H139.658V104.167C153.663 104.051 164.843 103.192 176.552 99.4331C194.391 94.2586 205.066 84.4897 207.821 80.8467C209.084 79.176 211.38 80.3594 210.966 82.0765C210.025 85.9283 202.15 107.717 162.065 115.189L151.596 117.138H130.888C115.988 117.138 107.861 110.269 107.861 106.742C107.861 106 107.264 105.397 106.529 105.397C105.795 105.397 105.198 106 105.198 106.742C105.198 112.915 116.172 119.806 130.865 119.806H214.295C226.854 119.806 235.187 113.75 235.187 109.736C235.187 108.993 234.59 108.39 233.856 108.39C233.121 108.39 232.524 108.993 232.524 109.736C232.524 111.592 226.05 117.138 214.272 117.138H194.689C203.597 115.142 209.313 110.942 216.706 104.584C216.867 104.445 217.004 104.306 217.165 104.143C227.542 103.563 236.45 99.9204 242.006 94.4906C244.187 97.3447 245.404 100.524 245.404 103.865C245.45 115.142 231.468 124.308 214.295 124.308ZM226.326 84.7913C232.065 86.3924 236.863 89.1073 240.215 92.4719C235.624 96.9967 228.369 100.245 219.92 101.266C223.984 96.3469 226.004 90.662 226.326 84.7913ZM127.743 77.4821C128.156 77.4589 128.546 77.2268 128.776 76.8788C135.824 65.9961 154.145 58.3852 173.338 58.3852C185.437 58.3852 197.054 61.4481 205.984 66.4602C199.418 70.4049 190.97 73.2822 183.554 74.4656C171.846 76.3451 161.468 74.8136 150.609 77.6213C131.852 82.5174 128.73 93.7249 133.345 101.591H130.865C117.343 101.591 105.542 96.695 99.4122 89.4786C105.014 82.8422 115.368 78.2014 127.743 77.4821ZM245.45 81.1483C245.45 84.5129 244.21 87.6918 242.006 90.4763C238.195 86.6941 232.8 83.7008 226.371 82.0069C226.257 78.5727 225.568 75.1153 224.397 71.7043V61.5409C236.863 64.4182 245.45 72.3308 245.45 81.1483ZM173.338 35.6685C195.814 35.6685 216.545 46.1799 221.734 60.1719V65.6712C220.356 63.0724 218.68 60.52 216.752 58.1299C216.339 57.6195 215.558 57.6891 215.214 58.246C213.721 60.6128 211.403 62.7939 208.602 64.7895C199.166 59.1509 186.654 55.7399 173.361 55.7399C155.224 55.7399 137.73 62.3763 129.028 72.2612V53.8372C136.214 43.1169 154.351 35.6685 173.338 35.6685ZM94.9583 78.155C94.9583 66.2049 108.366 56.3432 126.365 54.8582V74.9064C114.106 75.881 103.797 80.5914 97.8281 87.3206C95.9685 84.5129 94.9583 81.4036 94.9583 78.155Z" fill="#18181B"/>
<path d="M261.337 51.2615H240.422V72.4003H261.337V51.2615Z" fill="white"/>
<path d="M262.668 48.593H239.113C238.379 48.593 237.782 49.1963 237.782 49.9389V73.7462C237.782 74.4887 238.379 75.092 239.113 75.092H262.668C263.403 75.092 264 74.4887 264 73.7462V49.9389C263.977 49.1963 263.403 48.593 262.668 48.593ZM261.337 72.4003H240.422V51.2615H261.337V72.4003Z" fill="#18181B"/>
<path d="M247.883 59.6151C247.424 59.6151 247.263 59.6615 247.172 59.7311C247.034 59.8239 246.827 60.1024 246.827 61.8427C246.827 63.583 247.034 63.8614 247.172 63.9542C247.286 64.0471 247.424 64.0703 247.883 64.0703H249.031C249.513 64.0703 249.651 64.0471 249.766 63.9542C249.904 63.8614 250.11 63.583 250.11 61.8427C250.11 60.1024 249.904 59.8239 249.766 59.7311C249.651 59.6615 249.513 59.6151 249.031 59.6151H247.883ZM249.49 58.3157C250.455 58.3157 250.937 58.4085 251.304 58.6869C251.809 59.0582 252.245 59.8007 252.245 61.8427C252.245 63.8846 251.809 64.604 251.304 64.9984C250.914 65.2769 250.455 65.3697 249.49 65.3697H247.424C246.46 65.3697 246.001 65.2769 245.61 64.9984C245.082 64.6272 244.669 63.8846 244.669 61.8427C244.669 59.8007 245.082 59.0582 245.61 58.6869C246.001 58.4085 246.437 58.3157 247.424 58.3157H249.49Z" fill="#18181B"/>
<path d="M254.955 65.3697V59.8239L253.485 60.1952L252.957 59.0118L255.414 58.3157H257.113V65.3697H254.955Z" fill="#18181B"/>
</g>
<defs>
<clipPath id="clip0_1757_22511">
<rect width="192" height="125" fill="white" transform="translate(72 33)"/>
</clipPath>
</defs>
</svg>
