<svg width="336" height="190" viewBox="0 0 336 190" fill="none" xmlns="http://www.w3.org/2000/svg">
<rect width="336" height="190" fill="#E4E4E7"/>
<g clip-path="url(#clip0_1757_25871)">
<path d="M211.854 39.5881C210.902 39.5881 210.135 40.3472 210.135 41.2903C210.135 42.2334 210.902 42.9924 211.854 42.9924C212.807 42.9924 213.573 42.2334 213.573 41.2903C213.573 40.3702 212.807 39.5881 211.854 39.5881Z" fill="#18181B"/>
<path d="M224.885 41.3132C224.885 40.3701 224.118 39.6111 223.166 39.6111C222.214 39.6111 221.447 40.3701 221.447 41.3132C221.447 42.2563 222.214 43.0154 223.166 43.0154C224.118 43.0154 224.885 42.2333 224.885 41.3132Z" fill="#18181B"/>
<path d="M234.478 39.5881C233.526 39.5881 232.759 40.3472 232.759 41.2903C232.759 42.2334 233.526 42.9924 234.478 42.9924C235.43 42.9924 236.197 42.2334 236.197 41.2903C236.197 40.3702 235.407 39.5881 234.478 39.5881Z" fill="#18181B"/>
<path d="M247.508 41.3132C247.508 40.3701 246.742 39.6111 245.79 39.6111C244.837 39.6111 244.071 40.3701 244.071 41.3132C244.071 42.2563 244.837 43.0154 245.79 43.0154C246.719 43.0154 247.508 42.2333 247.508 41.3132Z" fill="#18181B"/>
<path d="M255.359 41.3132C255.359 42.2563 256.126 43.0154 257.078 43.0154C258.031 43.0154 258.797 42.2563 258.797 41.3132C258.797 40.3701 258.031 39.6111 257.078 39.6111C256.126 39.6111 255.359 40.3701 255.359 41.3132Z" fill="#18181B"/>
<path d="M211.854 50.79C210.902 50.79 210.135 51.5491 210.135 52.4922C210.135 53.4353 210.902 54.1943 211.854 54.1943C212.807 54.1943 213.573 53.4353 213.573 52.4922C213.573 51.5721 212.807 50.79 211.854 50.79Z" fill="#18181B"/>
<path d="M224.885 52.5151C224.885 51.5721 224.118 50.813 223.166 50.813C222.214 50.813 221.447 51.5721 221.447 52.5151C221.447 53.4582 222.214 54.2173 223.166 54.2173C224.118 54.2173 224.885 53.4352 224.885 52.5151Z" fill="#18181B"/>
<path d="M224.885 63.6941C224.885 62.751 224.118 61.9919 223.166 61.9919C222.214 61.9919 221.447 62.751 221.447 63.6941C221.447 64.6372 222.214 65.3962 223.166 65.3962C224.118 65.4192 224.885 64.6372 224.885 63.6941Z" fill="#18181B"/>
<path d="M224.885 74.8962C224.885 73.9532 224.118 73.1941 223.166 73.1941C222.214 73.1941 221.447 73.9532 221.447 74.8962C221.447 75.8393 222.214 76.5984 223.166 76.5984C224.118 76.6214 224.885 75.8393 224.885 74.8962Z" fill="#18181B"/>
<path d="M224.885 86.0981C224.885 85.1551 224.118 84.396 223.166 84.396C222.214 84.396 221.447 85.1551 221.447 86.0981C221.447 87.0412 222.214 87.8003 223.166 87.8003C224.118 87.8003 224.885 87.0412 224.885 86.0981Z" fill="#18181B"/>
<path d="M234.478 50.79C233.526 50.79 232.759 51.5491 232.759 52.4922C232.759 53.4353 233.526 54.1943 234.478 54.1943C235.43 54.1943 236.197 53.4353 236.197 52.4922C236.197 51.5721 235.407 50.79 234.478 50.79Z" fill="#18181B"/>
<path d="M234.478 61.9919C233.526 61.9919 232.759 62.751 232.759 63.6941C232.759 64.6372 233.526 65.3962 234.478 65.3962C235.43 65.3962 236.197 64.6372 236.197 63.6941C236.197 62.774 235.407 61.9919 234.478 61.9919Z" fill="#18181B"/>
<path d="M234.478 73.1941C233.526 73.1941 232.759 73.9532 232.759 74.8962C232.759 75.8393 233.526 76.5984 234.478 76.5984C235.43 76.5984 236.197 75.8393 236.197 74.8962C236.197 73.9762 235.407 73.1941 234.478 73.1941Z" fill="#18181B"/>
<path d="M234.478 87.8003C235.427 87.8003 236.197 87.0382 236.197 86.0981C236.197 85.1581 235.427 84.396 234.478 84.396C233.529 84.396 232.759 85.1581 232.759 86.0981C232.759 87.0382 233.529 87.8003 234.478 87.8003Z" fill="#18181B"/>
<path d="M247.508 52.5151C247.508 51.5721 246.742 50.813 245.79 50.813C244.837 50.813 244.071 51.5721 244.071 52.5151C244.071 53.4582 244.837 54.2173 245.79 54.2173C246.719 54.2173 247.508 53.4352 247.508 52.5151Z" fill="#18181B"/>
<path d="M247.508 63.6941C247.508 62.751 246.742 61.9919 245.79 61.9919C244.837 61.9919 244.071 62.751 244.071 63.6941C244.071 64.6372 244.837 65.3962 245.79 65.3962C246.719 65.4192 247.508 64.6372 247.508 63.6941Z" fill="#18181B"/>
<path d="M247.508 74.8962C247.508 73.9532 246.742 73.1941 245.79 73.1941C244.837 73.1941 244.071 73.9532 244.071 74.8962C244.071 75.8393 244.837 76.5984 245.79 76.5984C246.719 76.6214 247.508 75.8393 247.508 74.8962Z" fill="#18181B"/>
<path d="M247.508 86.0981C247.508 85.1551 246.742 84.396 245.79 84.396C244.837 84.396 244.071 85.1551 244.071 86.0981C244.071 87.0412 244.837 87.8003 245.79 87.8003C246.719 87.8003 247.508 87.0412 247.508 86.0981Z" fill="#18181B"/>
<path d="M257.078 50.79C256.126 50.79 255.359 51.5491 255.359 52.4922C255.359 53.4353 256.126 54.1943 257.078 54.1943C258.031 54.1943 258.797 53.4353 258.797 52.4922C258.82 51.5721 258.031 50.79 257.078 50.79Z" fill="#18181B"/>
<path d="M257.078 61.9919C256.126 61.9919 255.359 62.751 255.359 63.6941C255.359 64.6372 256.126 65.3962 257.078 65.3962C258.031 65.3962 258.797 64.6372 258.797 63.6941C258.82 62.774 258.031 61.9919 257.078 61.9919Z" fill="#18181B"/>
<path d="M257.078 73.1941C256.126 73.1941 255.359 73.9532 255.359 74.8962C255.359 75.8393 256.126 76.5984 257.078 76.5984C258.031 76.5984 258.797 75.8393 258.797 74.8962C258.82 73.9762 258.031 73.1941 257.078 73.1941Z" fill="#18181B"/>
<path d="M257.078 87.8003C258.028 87.8003 258.797 87.0382 258.797 86.0981C258.797 85.1581 258.028 84.396 257.078 84.396C256.129 84.396 255.359 85.1581 255.359 86.0981C255.359 87.0382 256.129 87.8003 257.078 87.8003Z" fill="#18181B"/>
<path d="M211.831 108.042C212.318 108.042 212.714 107.651 212.714 107.168C212.714 106.685 212.318 106.294 211.831 106.294C211.344 106.294 210.948 106.685 210.948 107.168C210.948 107.651 211.344 108.042 211.831 108.042Z" fill="#18181B"/>
<path d="M213.991 111.331C214.479 111.331 214.874 110.94 214.874 110.457C214.874 109.975 214.479 109.583 213.991 109.583C213.504 109.583 213.109 109.975 213.109 110.457C213.109 110.94 213.504 111.331 213.991 111.331Z" fill="#18181B"/>
<path d="M209.648 111.331C210.135 111.331 210.53 110.94 210.53 110.457C210.53 109.975 210.135 109.583 209.648 109.583C209.16 109.583 208.765 109.975 208.765 110.457C208.765 110.94 209.16 111.331 209.648 111.331Z" fill="#18181B"/>
<path d="M211.831 114.621C212.318 114.621 212.714 114.229 212.714 113.747C212.714 113.264 212.318 112.873 211.831 112.873C211.344 112.873 210.948 113.264 210.948 113.747C210.948 114.229 211.344 114.621 211.831 114.621Z" fill="#18181B"/>
<path d="M209.648 117.887C210.135 117.887 210.53 117.495 210.53 117.013C210.53 116.53 210.135 116.139 209.648 116.139C209.16 116.139 208.765 116.53 208.765 117.013C208.765 117.495 209.16 117.887 209.648 117.887Z" fill="#18181B"/>
<path d="M205.281 111.331C205.768 111.331 206.163 110.94 206.163 110.457C206.163 109.975 205.768 109.583 205.281 109.583C204.793 109.583 204.398 109.975 204.398 110.457C204.398 110.94 204.793 111.331 205.281 111.331Z" fill="#18181B"/>
<path d="M207.464 114.621C207.952 114.621 208.347 114.229 208.347 113.747C208.347 113.264 207.952 112.873 207.464 112.873C206.977 112.873 206.582 113.264 206.582 113.747C206.582 114.229 206.977 114.621 207.464 114.621Z" fill="#18181B"/>
<path d="M203.121 114.621C203.608 114.621 204.003 114.229 204.003 113.747C204.003 113.264 203.608 112.873 203.121 112.873C202.633 112.873 202.238 113.264 202.238 113.747C202.238 114.229 202.633 114.621 203.121 114.621Z" fill="#18181B"/>
<path d="M198.754 114.621C199.241 114.621 199.637 114.229 199.637 113.747C199.637 113.264 199.241 112.873 198.754 112.873C198.267 112.873 197.871 113.264 197.871 113.747C197.871 114.229 198.267 114.621 198.754 114.621Z" fill="#18181B"/>
<path d="M205.281 117.887C205.768 117.887 206.163 117.495 206.163 117.013C206.163 116.53 205.768 116.139 205.281 116.139C204.793 116.139 204.398 116.53 204.398 117.013C204.398 117.495 204.793 117.887 205.281 117.887Z" fill="#18181B"/>
<path d="M200.937 117.887C201.425 117.887 201.82 117.495 201.82 117.013C201.82 116.53 201.425 116.139 200.937 116.139C200.45 116.139 200.055 116.53 200.055 117.013C200.055 117.495 200.45 117.887 200.937 117.887Z" fill="#18181B"/>
<path d="M196.594 117.887C197.081 117.887 197.476 117.495 197.476 117.013C197.476 116.53 197.081 116.139 196.594 116.139C196.106 116.139 195.711 116.53 195.711 117.013C195.711 117.495 196.106 117.887 196.594 117.887Z" fill="#18181B"/>
<path d="M192.227 117.887C192.714 117.887 193.11 117.495 193.11 117.013C193.11 116.53 192.714 116.139 192.227 116.139C191.74 116.139 191.344 116.53 191.344 117.013C191.344 117.495 191.74 117.887 192.227 117.887Z" fill="#18181B"/>
<path d="M207.464 121.176C207.952 121.176 208.347 120.785 208.347 120.302C208.347 119.819 207.952 119.428 207.464 119.428C206.977 119.428 206.582 119.819 206.582 120.302C206.582 120.785 206.977 121.176 207.464 121.176Z" fill="#18181B"/>
<path d="M203.121 121.176C203.608 121.176 204.003 120.785 204.003 120.302C204.003 119.819 203.608 119.428 203.121 119.428C202.633 119.428 202.238 119.819 202.238 120.302C202.238 120.785 202.633 121.176 203.121 121.176Z" fill="#18181B"/>
<path d="M198.754 121.176C199.241 121.176 199.637 120.785 199.637 120.302C199.637 119.819 199.241 119.428 198.754 119.428C198.267 119.428 197.871 119.819 197.871 120.302C197.871 120.785 198.267 121.176 198.754 121.176Z" fill="#18181B"/>
<path d="M194.41 121.176C194.898 121.176 195.293 120.785 195.293 120.302C195.293 119.819 194.898 119.428 194.41 119.428C193.923 119.428 193.528 119.819 193.528 120.302C193.528 120.785 193.923 121.176 194.41 121.176Z" fill="#18181B"/>
<path d="M190.067 121.176C190.554 121.176 190.949 120.785 190.949 120.302C190.949 119.819 190.554 119.428 190.067 119.428C189.579 119.428 189.184 119.819 189.184 120.302C189.184 120.785 189.579 121.176 190.067 121.176Z" fill="#18181B"/>
<path d="M205.281 124.465C205.768 124.465 206.163 124.074 206.163 123.591C206.163 123.109 205.768 122.717 205.281 122.717C204.793 122.717 204.398 123.109 204.398 123.591C204.398 124.074 204.793 124.465 205.281 124.465Z" fill="#18181B"/>
<path d="M200.937 124.465C201.425 124.465 201.82 124.074 201.82 123.591C201.82 123.109 201.425 122.717 200.937 122.717C200.45 122.717 200.055 123.109 200.055 123.591C200.055 124.074 200.45 124.465 200.937 124.465Z" fill="#18181B"/>
<path d="M196.594 124.465C197.081 124.465 197.476 124.074 197.476 123.591C197.476 123.109 197.081 122.717 196.594 122.717C196.106 122.717 195.711 123.109 195.711 123.591C195.711 124.074 196.106 124.465 196.594 124.465Z" fill="#18181B"/>
<path d="M192.227 124.465C192.714 124.465 193.11 124.074 193.11 123.591C193.11 123.109 192.714 122.717 192.227 122.717C191.74 122.717 191.344 123.109 191.344 123.591C191.344 124.074 191.74 124.465 192.227 124.465Z" fill="#18181B"/>
<path d="M187.883 124.465C188.371 124.465 188.766 124.074 188.766 123.591C188.766 123.109 188.371 122.717 187.883 122.717C187.396 122.717 187.001 123.109 187.001 123.591C187.001 124.074 187.396 124.465 187.883 124.465Z" fill="#18181B"/>
<path d="M183.517 124.465C184.004 124.465 184.399 124.074 184.399 123.591C184.399 123.109 184.004 122.717 183.517 122.717C183.029 122.717 182.634 123.109 182.634 123.591C182.634 124.074 183.029 124.465 183.517 124.465Z" fill="#18181B"/>
<path d="M198.754 127.755C199.241 127.755 199.637 127.363 199.637 126.881C199.637 126.398 199.241 126.007 198.754 126.007C198.267 126.007 197.871 126.398 197.871 126.881C197.871 127.363 198.267 127.755 198.754 127.755Z" fill="#18181B"/>
<path d="M194.41 127.755C194.898 127.755 195.293 127.363 195.293 126.881C195.293 126.398 194.898 126.007 194.41 126.007C193.923 126.007 193.528 126.398 193.528 126.881C193.528 127.363 193.923 127.755 194.41 127.755Z" fill="#18181B"/>
<path d="M190.067 127.755C190.554 127.755 190.949 127.363 190.949 126.881C190.949 126.398 190.554 126.007 190.067 126.007C189.579 126.007 189.184 126.398 189.184 126.881C189.184 127.363 189.579 127.755 190.067 127.755Z" fill="#18181B"/>
<path d="M185.7 127.755C186.188 127.755 186.583 127.363 186.583 126.881C186.583 126.398 186.188 126.007 185.7 126.007C185.213 126.007 184.817 126.398 184.817 126.881C184.817 127.363 185.213 127.755 185.7 127.755Z" fill="#18181B"/>
<path d="M181.357 127.755C181.844 127.755 182.239 127.363 182.239 126.881C182.239 126.398 181.844 126.007 181.357 126.007C180.869 126.007 180.474 126.398 180.474 126.881C180.474 127.363 180.869 127.755 181.357 127.755Z" fill="#18181B"/>
<path d="M176.99 127.755C177.477 127.755 177.872 127.363 177.872 126.881C177.872 126.398 177.477 126.007 176.99 126.007C176.502 126.007 176.107 126.398 176.107 126.881C176.107 127.363 176.502 127.755 176.99 127.755Z" fill="#18181B"/>
<path d="M192.227 131.021C192.714 131.021 193.11 130.63 193.11 130.147C193.11 129.664 192.714 129.273 192.227 129.273C191.74 129.273 191.344 129.664 191.344 130.147C191.344 130.63 191.74 131.021 192.227 131.021Z" fill="#18181B"/>
<path d="M187.883 131.021C188.371 131.021 188.766 130.63 188.766 130.147C188.766 129.664 188.371 129.273 187.883 129.273C187.396 129.273 187.001 129.664 187.001 130.147C187.001 130.63 187.396 131.021 187.883 131.021Z" fill="#18181B"/>
<path d="M183.517 131.021C184.004 131.021 184.399 130.63 184.399 130.147C184.399 129.664 184.004 129.273 183.517 129.273C183.029 129.273 182.634 129.664 182.634 130.147C182.634 130.63 183.029 131.021 183.517 131.021Z" fill="#18181B"/>
<path d="M179.173 131.021C179.661 131.021 180.056 130.63 180.056 130.147C180.056 129.664 179.661 129.273 179.173 129.273C178.686 129.273 178.291 129.664 178.291 130.147C178.291 130.63 178.686 131.021 179.173 131.021Z" fill="#18181B"/>
<path d="M174.806 131.021C175.294 131.021 175.689 130.63 175.689 130.147C175.689 129.664 175.294 129.273 174.806 129.273C174.319 129.273 173.924 129.664 173.924 130.147C173.924 130.63 174.319 131.021 174.806 131.021Z" fill="#18181B"/>
<path d="M170.463 131.021C170.95 131.021 171.345 130.63 171.345 130.147C171.345 129.664 170.95 129.273 170.463 129.273C169.975 129.273 169.58 129.664 169.58 130.147C169.58 130.63 169.975 131.021 170.463 131.021Z" fill="#18181B"/>
<path d="M185.7 134.31C186.188 134.31 186.583 133.919 186.583 133.436C186.583 132.954 186.188 132.562 185.7 132.562C185.213 132.562 184.817 132.954 184.817 133.436C184.817 133.919 185.213 134.31 185.7 134.31Z" fill="#18181B"/>
<path d="M181.357 134.31C181.844 134.31 182.239 133.919 182.239 133.436C182.239 132.954 181.844 132.562 181.357 132.562C180.869 132.562 180.474 132.954 180.474 133.436C180.474 133.919 180.869 134.31 181.357 134.31Z" fill="#18181B"/>
<path d="M176.99 134.31C177.477 134.31 177.872 133.919 177.872 133.436C177.872 132.954 177.477 132.562 176.99 132.562C176.502 132.562 176.107 132.954 176.107 133.436C176.107 133.919 176.502 134.31 176.99 134.31Z" fill="#18181B"/>
<path d="M172.646 134.31C172.158 134.31 171.764 133.919 171.764 133.436C171.764 132.953 172.158 132.562 172.646 132.562C173.134 132.562 173.506 132.953 173.506 133.436C173.506 133.919 173.111 134.31 172.646 134.31Z" fill="#18181B"/>
<path d="M169.162 133.436C169.162 133.919 168.767 134.31 168.279 134.31C167.792 134.31 167.42 133.919 167.42 133.436C167.42 132.953 167.815 132.562 168.279 132.562C168.767 132.585 169.162 132.976 169.162 133.436Z" fill="#18181B"/>
<path d="M163.936 134.31C163.448 134.31 163.053 133.919 163.053 133.436C163.053 132.953 163.448 132.562 163.936 132.562C164.424 132.562 164.795 132.953 164.795 133.436C164.795 133.919 164.4 134.31 163.936 134.31Z" fill="#18181B"/>
<path d="M179.173 137.6C179.661 137.6 180.056 137.208 180.056 136.726C180.056 136.243 179.661 135.852 179.173 135.852C178.686 135.852 178.291 136.243 178.291 136.726C178.291 137.208 178.686 137.6 179.173 137.6Z" fill="#18181B"/>
<path d="M174.806 137.6C175.294 137.6 175.689 137.208 175.689 136.726C175.689 136.243 175.294 135.852 174.806 135.852C174.319 135.852 173.924 136.243 173.924 136.726C173.924 137.208 174.319 137.6 174.806 137.6Z" fill="#18181B"/>
<path d="M170.463 137.6C170.95 137.6 171.345 137.208 171.345 136.726C171.345 136.243 170.95 135.852 170.463 135.852C169.975 135.852 169.58 136.243 169.58 136.726C169.58 137.208 169.975 137.6 170.463 137.6Z" fill="#18181B"/>
<path d="M166.119 137.6C166.607 137.6 167.002 137.208 167.002 136.726C167.002 136.243 166.607 135.852 166.119 135.852C165.632 135.852 165.237 136.243 165.237 136.726C165.237 137.208 165.632 137.6 166.119 137.6Z" fill="#18181B"/>
<path d="M161.753 137.6C162.24 137.6 162.635 137.208 162.635 136.726C162.635 136.243 162.24 135.852 161.753 135.852C161.265 135.852 160.87 136.243 160.87 136.726C160.87 137.208 161.265 137.6 161.753 137.6Z" fill="#18181B"/>
<path d="M157.409 137.6C157.896 137.6 158.292 137.208 158.292 136.726C158.292 136.243 157.896 135.852 157.409 135.852C156.921 135.852 156.526 136.243 156.526 136.726C156.526 137.208 156.921 137.6 157.409 137.6Z" fill="#18181B"/>
<path d="M171.764 140.015C171.764 139.532 172.158 139.141 172.646 139.141C173.134 139.141 173.506 139.532 173.506 140.015C173.506 140.498 173.111 140.866 172.646 140.866C172.158 140.866 171.764 140.475 171.764 140.015Z" fill="#18181B"/>
<path d="M169.162 140.015C169.162 140.498 168.767 140.866 168.279 140.866C167.792 140.866 167.42 140.475 167.42 140.015C167.42 139.532 167.815 139.141 168.279 139.141C168.767 139.141 169.162 139.532 169.162 140.015Z" fill="#18181B"/>
<path d="M163.936 140.866C163.448 140.866 163.053 140.475 163.053 140.015C163.053 139.532 163.448 139.141 163.936 139.141C164.424 139.141 164.795 139.532 164.795 140.015C164.795 140.475 164.4 140.866 163.936 140.866Z" fill="#18181B"/>
<path d="M160.452 140.015C160.452 140.498 160.057 140.866 159.569 140.866C159.081 140.866 158.71 140.475 158.71 140.015C158.71 139.532 159.105 139.141 159.569 139.141C160.057 139.141 160.452 139.532 160.452 140.015Z" fill="#18181B"/>
<path d="M155.226 140.866C154.738 140.866 154.343 140.475 154.343 140.015C154.343 139.532 154.738 139.141 155.226 139.141C155.713 139.141 156.085 139.532 156.085 140.015C156.085 140.475 155.713 140.866 155.226 140.866Z" fill="#18181B"/>
<path d="M120.384 139.141C120.872 139.141 121.267 139.532 121.267 140.015C121.267 140.498 120.872 140.866 120.384 140.866C119.896 140.866 119.502 140.475 119.502 140.015C119.525 139.532 119.92 139.141 120.384 139.141Z" fill="#18181B"/>
<path d="M170.463 144.155C170.95 144.155 171.345 143.764 171.345 143.281C171.345 142.798 170.95 142.407 170.463 142.407C169.975 142.407 169.58 142.798 169.58 143.281C169.58 143.764 169.975 144.155 170.463 144.155Z" fill="#18181B"/>
<path d="M166.119 144.155C166.607 144.155 167.002 143.764 167.002 143.281C167.002 142.798 166.607 142.407 166.119 142.407C165.632 142.407 165.237 142.798 165.237 143.281C165.237 143.764 165.632 144.155 166.119 144.155Z" fill="#18181B"/>
<path d="M161.753 144.155C162.24 144.155 162.635 143.764 162.635 143.281C162.635 142.798 162.24 142.407 161.753 142.407C161.265 142.407 160.87 142.798 160.87 143.281C160.87 143.764 161.265 144.155 161.753 144.155Z" fill="#18181B"/>
<path d="M157.409 144.155C157.896 144.155 158.292 143.764 158.292 143.281C158.292 142.798 157.896 142.407 157.409 142.407C156.921 142.407 156.526 142.798 156.526 143.281C156.526 143.764 156.921 144.155 157.409 144.155Z" fill="#18181B"/>
<path d="M153.042 144.155C153.53 144.155 153.925 143.764 153.925 143.281C153.925 142.798 153.53 142.407 153.042 142.407C152.555 142.407 152.16 142.798 152.16 143.281C152.16 143.764 152.555 144.155 153.042 144.155Z" fill="#18181B"/>
<path d="M148.699 144.155C149.186 144.155 149.581 143.764 149.581 143.281C149.581 142.798 149.186 142.407 148.699 142.407C148.211 142.407 147.816 142.798 147.816 143.281C147.816 143.764 148.211 144.155 148.699 144.155Z" fill="#18181B"/>
<path d="M126.934 144.155C127.422 144.155 127.817 143.764 127.817 143.281C127.817 142.798 127.422 142.407 126.934 142.407C126.447 142.407 126.052 142.798 126.052 143.281C126.052 143.764 126.447 144.155 126.934 144.155Z" fill="#18181B"/>
<path d="M122.568 144.155C123.055 144.155 123.45 143.764 123.45 143.281C123.45 142.798 123.055 142.407 122.568 142.407C122.08 142.407 121.685 142.798 121.685 143.281C121.685 143.764 122.08 144.155 122.568 144.155Z" fill="#18181B"/>
<path d="M163.053 146.57C163.053 146.087 163.448 145.696 163.936 145.696C164.424 145.696 164.795 146.087 164.795 146.57C164.795 147.053 164.4 147.444 163.936 147.444C163.448 147.444 163.053 147.053 163.053 146.57Z" fill="#18181B"/>
<path d="M159.569 145.719C160.057 145.719 160.452 146.11 160.452 146.593C160.452 147.076 160.057 147.467 159.569 147.467C159.081 147.467 158.71 147.076 158.71 146.593C158.71 146.087 159.105 145.719 159.569 145.719Z" fill="#18181B"/>
<path d="M155.226 147.444C154.738 147.444 154.343 147.053 154.343 146.57C154.343 146.087 154.738 145.696 155.226 145.696C155.713 145.696 156.085 146.087 156.085 146.57C156.085 147.053 155.713 147.444 155.226 147.444Z" fill="#18181B"/>
<path d="M150.859 145.719C151.347 145.719 151.741 146.11 151.741 146.593C151.741 147.076 151.347 147.467 150.859 147.467C150.371 147.467 149.999 147.076 149.999 146.593C149.999 146.087 150.394 145.719 150.859 145.719Z" fill="#18181B"/>
<path d="M146.515 147.444C147.003 147.444 147.398 147.053 147.398 146.57C147.398 146.088 147.003 145.696 146.515 145.696C146.028 145.696 145.633 146.088 145.633 146.57C145.633 147.053 146.028 147.444 146.515 147.444Z" fill="#18181B"/>
<path d="M143.031 146.707C143.109 146.23 142.782 145.781 142.301 145.704C141.819 145.627 141.366 145.95 141.288 146.427C141.21 146.903 141.537 147.352 142.018 147.43C142.499 147.507 142.952 147.183 143.031 146.707Z" fill="#18181B"/>
<path d="M137.805 147.444C138.292 147.444 138.688 147.053 138.688 146.57C138.688 146.088 138.292 145.696 137.805 145.696C137.317 145.696 136.922 146.088 136.922 146.57C136.922 147.053 137.317 147.444 137.805 147.444Z" fill="#18181B"/>
<path d="M133.461 147.444C133.949 147.444 134.344 147.053 134.344 146.57C134.344 146.088 133.949 145.696 133.461 145.696C132.974 145.696 132.579 146.088 132.579 146.57C132.579 147.053 132.974 147.444 133.461 147.444Z" fill="#18181B"/>
<path d="M129.095 147.444C129.582 147.444 129.977 147.053 129.977 146.57C129.977 146.088 129.582 145.696 129.095 145.696C128.607 145.696 128.212 146.088 128.212 146.57C128.212 147.053 128.607 147.444 129.095 147.444Z" fill="#18181B"/>
<path d="M124.751 147.444C125.239 147.444 125.634 147.053 125.634 146.57C125.634 146.088 125.239 145.696 124.751 145.696C124.264 145.696 123.868 146.088 123.868 146.57C123.868 147.053 124.264 147.444 124.751 147.444Z" fill="#18181B"/>
<path d="M157.409 150.734C157.896 150.734 158.292 150.342 158.292 149.86C158.292 149.377 157.896 148.986 157.409 148.986C156.921 148.986 156.526 149.377 156.526 149.86C156.526 150.342 156.921 150.734 157.409 150.734Z" fill="#18181B"/>
<path d="M153.042 150.734C153.53 150.734 153.925 150.342 153.925 149.86C153.925 149.377 153.53 148.986 153.042 148.986C152.555 148.986 152.16 149.377 152.16 149.86C152.16 150.342 152.555 150.734 153.042 150.734Z" fill="#18181B"/>
<path d="M148.699 150.734C149.186 150.734 149.581 150.342 149.581 149.86C149.581 149.377 149.186 148.986 148.699 148.986C148.211 148.986 147.816 149.377 147.816 149.86C147.816 150.342 148.211 150.734 148.699 150.734Z" fill="#18181B"/>
<path d="M144.332 150.734C144.819 150.734 145.215 150.342 145.215 149.86C145.215 149.377 144.819 148.986 144.332 148.986C143.844 148.986 143.449 149.377 143.449 149.86C143.449 150.342 143.844 150.734 144.332 150.734Z" fill="#18181B"/>
<path d="M139.988 150.734C140.476 150.734 140.871 150.342 140.871 149.86C140.871 149.377 140.476 148.986 139.988 148.986C139.501 148.986 139.106 149.377 139.106 149.86C139.106 150.342 139.501 150.734 139.988 150.734Z" fill="#18181B"/>
<path d="M135.622 150.734C136.109 150.734 136.504 150.342 136.504 149.86C136.504 149.377 136.109 148.986 135.622 148.986C135.134 148.986 134.739 149.377 134.739 149.86C134.739 150.342 135.134 150.734 135.622 150.734Z" fill="#18181B"/>
<path d="M131.278 150.734C131.765 150.734 132.161 150.342 132.161 149.86C132.161 149.377 131.765 148.986 131.278 148.986C130.79 148.986 130.395 149.377 130.395 149.86C130.395 150.342 130.79 150.734 131.278 150.734Z" fill="#18181B"/>
<path d="M126.934 150.734C127.422 150.734 127.817 150.342 127.817 149.86C127.817 149.377 127.422 148.986 126.934 148.986C126.447 148.986 126.052 149.377 126.052 149.86C126.052 150.342 126.447 150.734 126.934 150.734Z" fill="#18181B"/>
<path d="M146.515 154.023C147.003 154.023 147.398 153.632 147.398 153.149C147.398 152.666 147.003 152.275 146.515 152.275C146.028 152.275 145.633 152.666 145.633 153.149C145.633 153.632 146.028 154.023 146.515 154.023Z" fill="#18181B"/>
<path d="M143.042 153.276C143.12 152.799 142.793 152.35 142.312 152.273C141.831 152.195 141.378 152.519 141.299 152.996C141.221 153.472 141.548 153.921 142.029 153.998C142.511 154.076 142.964 153.752 143.042 153.276Z" fill="#18181B"/>
<path d="M137.805 154.023C138.292 154.023 138.688 153.632 138.688 153.149C138.688 152.666 138.292 152.275 137.805 152.275C137.317 152.275 136.922 152.666 136.922 153.149C136.922 153.632 137.317 154.023 137.805 154.023Z" fill="#18181B"/>
<path d="M133.461 154.023C133.949 154.023 134.344 153.632 134.344 153.149C134.344 152.666 133.949 152.275 133.461 152.275C132.974 152.275 132.579 152.666 132.579 153.149C132.579 153.632 132.974 154.023 133.461 154.023Z" fill="#18181B"/>
<path d="M212.017 65.4653C211.274 65.4653 210.67 64.8673 210.67 64.1312C210.67 60.4279 209.322 57.5987 207.046 56.5866C204.445 55.4365 200.798 56.6096 196.989 59.8759C196.571 60.2439 195.967 60.3129 195.479 60.0369C192.482 58.4267 189.138 57.6217 185.63 57.6217C181.984 57.6217 178.128 58.4957 174.249 60.2209C161.172 66.0864 150.928 80.2556 146.864 98.1741C146.794 98.4731 146.608 98.7491 146.353 98.9332C127.213 113.171 124.101 132.102 129.211 140.291C132.021 144.799 136.945 145.742 142.706 142.89L204.84 107.352C218.265 99.4852 222.423 84.0509 219.496 73.539C218.126 68.4786 215.315 65.4653 212.017 65.4653ZM207.813 84.81C206.953 88.4903 204.654 93.5967 198.777 97.07L194.945 99.2552L194.898 99.4852L194.016 99.7612L139.036 131.205C139.152 126.443 142.009 117.059 153.576 108.479C156.131 106.593 157.897 103.879 158.594 100.796C162.426 83.9819 171.74 74.4361 179.196 71.1008C181.449 70.0887 183.656 69.5827 185.607 69.5827C187.14 69.5827 188.534 69.9047 189.695 70.5258C193.156 72.4119 197.198 72.6189 200.752 71.3078C202.424 73.861 204.932 75.7932 207.906 76.7593C208.347 78.3694 208.649 81.2677 207.813 84.81Z" fill="white"/>
<path d="M134.437 92.8607C134.205 92.8607 133.972 92.7917 133.763 92.6766L89.5381 66.5464C88.9109 66.1784 88.7019 65.3503 89.0735 64.7293C89.4452 64.1082 90.2813 63.9012 90.9085 64.2692L135.134 90.3995C135.761 90.7675 135.97 91.5955 135.598 92.2166C135.32 92.6306 134.878 92.8607 134.437 92.8607Z" fill="#18181B"/>
<path d="M256.509 123.513C257.204 119.726 252.6 115.726 246.226 114.578C239.852 113.431 234.122 115.572 233.427 119.359C232.732 123.146 237.335 127.146 243.709 128.293C250.083 129.44 255.814 127.3 256.509 123.513Z" fill="#18181B"/>
<path d="M233.131 129.756C231.923 129.526 230.715 129.434 229.577 129.434C227.417 129.434 225.466 129.825 223.863 130.492L213.921 124.397L227.881 116.415L227.904 116.392C228.09 116.277 228.23 116.139 228.323 115.978C228.323 115.955 228.346 115.955 228.369 115.932C228.415 115.886 228.415 115.817 228.439 115.748C228.485 115.656 228.508 115.587 228.532 115.495C228.555 115.403 228.555 115.334 228.555 115.242C228.555 115.15 228.555 115.081 228.555 114.989C228.532 114.897 228.508 114.828 228.462 114.736C228.439 114.69 228.439 114.621 228.392 114.552C228.392 114.529 228.369 114.529 228.346 114.506C228.299 114.437 228.23 114.391 228.183 114.322C228.113 114.253 228.067 114.184 227.974 114.138C227.951 114.138 227.951 114.115 227.928 114.092L203.655 99.1864C204.282 97.9673 204.538 96.6792 204.352 95.5981C204.282 95.207 204.143 94.862 203.98 94.54C206.976 91.3887 208.417 87.8694 209.067 85.0862C210.089 80.7848 209.485 77.5875 209.183 76.3914C209.067 75.9544 208.742 75.6094 208.3 75.4714C205.652 74.6203 203.376 72.8951 201.866 70.5719C201.471 69.9509 200.635 69.7669 200.008 70.1809C199.381 70.5719 199.195 71.4 199.613 71.9981C199.892 72.4351 200.24 72.8491 200.589 73.2632C202.215 75.2643 204.328 76.8285 206.744 77.7256C206.976 79.0137 207.209 81.4059 206.465 84.4651C205.885 86.9493 204.584 90.1466 201.82 92.9528C200.937 92.8148 199.962 93.0449 198.986 93.5739C198.034 94.1029 197.081 94.931 196.269 96.0121C195.479 97.1162 194.991 98.3123 194.828 99.4624C188.743 101.487 181.891 101.901 178.337 102.108C171.369 102.545 164.424 98.7493 163.03 91.5497C165.678 97.7142 173.761 99.7614 181.101 98.2893C186.141 97.2542 195.223 93.8959 195.223 93.8959C201.379 87.3864 201.959 73.6082 190.717 75.7244C185.77 76.6445 181.101 80.3478 175.735 82.1419C170.045 84.0511 163.471 83.591 160.8 79.5657C154.32 91.4807 154.227 105.903 160.661 110.779C160.684 110.779 160.684 110.802 160.707 110.825C162.867 112.458 165.748 112.896 169.185 112.389L140.615 128.721C141.219 125.639 142.985 120.532 148.188 114.943C148.513 114.598 148.536 114.161 148.42 113.747C148.35 113.517 148.304 113.264 148.095 113.08C147.56 112.574 146.701 112.62 146.213 113.149C138.478 121.452 137.689 129.02 137.642 131.136C137.642 131.619 137.874 132.056 138.293 132.309C138.502 132.424 138.734 132.493 138.966 132.493C139.198 132.493 139.431 132.424 139.64 132.309L185.189 106.271C188.209 104.661 191.414 102.821 194.759 100.751V100.728C194.875 101.717 195.316 102.522 196.036 103.028C196.547 103.396 197.128 103.557 197.778 103.557C199.149 103.557 200.705 102.729 202.052 101.303L224.583 115.15L210.6 123.154C210.414 123.269 210.275 123.407 210.159 123.591C210.159 123.591 210.135 123.591 210.135 123.614C210.089 123.66 210.089 123.729 210.066 123.798C210.019 123.89 209.996 123.959 209.973 124.051C209.95 124.143 209.95 124.212 209.95 124.305C209.95 124.397 209.95 124.466 209.95 124.558C209.973 124.65 209.996 124.742 210.042 124.811C210.066 124.857 210.066 124.926 210.089 124.995C210.089 125.018 210.112 125.018 210.135 125.018C210.251 125.179 210.368 125.34 210.553 125.455L221.285 132.056C220.472 132.815 219.891 133.712 219.705 134.747C218.985 138.704 223.793 142.89 230.436 144.086C231.644 144.316 232.852 144.408 233.99 144.408C239.1 144.408 243.211 142.315 243.792 139.095C244.582 135.138 239.774 130.952 233.131 129.756ZM197.685 100.912C197.569 100.82 197.453 100.497 197.5 99.9684C197.546 99.5774 197.685 99.1404 197.871 98.7033C197.894 98.7033 197.894 98.7263 197.918 98.7493L199.822 99.9224C198.847 100.82 197.918 101.096 197.685 100.912ZM199.427 96.5872C200.403 95.7131 201.332 95.4371 201.564 95.6211C201.681 95.7131 201.75 95.9201 201.773 96.0581C201.843 96.4491 201.75 97.0932 201.425 97.8063L199.427 96.5872ZM234.06 141.763C233.061 141.763 232.016 141.671 230.994 141.487C225.605 140.521 222.028 137.393 222.423 135.23C222.701 133.712 225.326 132.079 229.6 132.079C230.599 132.079 231.644 132.171 232.666 132.355C238.055 133.321 241.632 136.45 241.237 138.612C240.958 140.153 238.334 141.763 234.06 141.763Z" fill="#18181B"/>
<path d="M255.127 136.012C255.685 136.012 256.265 136.058 256.846 136.173C259.958 136.726 261.399 138.405 261.329 138.865C261.282 139.164 260.121 139.969 257.891 139.969C257.334 139.969 256.753 139.923 256.172 139.808C253.06 139.256 251.62 137.577 251.689 137.117C251.759 136.818 252.897 136.012 255.127 136.012ZM255.127 133.344C251.968 133.344 249.436 134.632 249.065 136.634C248.623 139.072 251.573 141.648 255.685 142.407C256.428 142.545 257.171 142.614 257.868 142.614C261.027 142.614 263.559 141.326 263.93 139.325C264.372 136.887 261.422 134.31 257.31 133.551C256.567 133.413 255.824 133.344 255.127 133.344Z" fill="#18181B"/>
<path d="M98.6057 66.9359C99.1837 63.7862 95.3651 60.4613 90.0766 59.5095C84.7882 58.5578 80.0324 60.3397 79.4544 63.4895C78.8764 66.6392 82.695 69.9641 87.9835 70.9159C93.272 71.8676 98.0277 70.0857 98.6057 66.9359Z" fill="#18181B"/>
<path d="M103.08 53.0673C103.66 53.0673 104.288 53.1133 104.891 53.2284C106.471 53.5044 107.911 54.1484 108.84 54.9535C109.49 55.5056 109.676 55.9886 109.653 56.1496C109.583 56.4946 108.399 57.3917 105.96 57.3917C105.379 57.3917 104.752 57.3457 104.148 57.2307C100.78 56.6326 99.2936 54.8155 99.3865 54.3094C99.4794 53.9644 100.664 53.0673 103.08 53.0673ZM103.08 50.4221C99.7814 50.4221 97.1567 51.7562 96.7618 53.8494C96.2973 56.4026 99.3865 59.0939 103.66 59.8529C104.45 59.9909 105.217 60.0599 105.937 60.0599C109.235 60.0599 111.86 58.7258 112.255 56.6326C112.719 54.0794 109.63 51.3882 105.356 50.6291C104.589 50.4911 103.823 50.4221 103.08 50.4221Z" fill="#18181B"/>
<path d="M102.482 81.9521C102.95 79.4023 99.8607 76.711 95.582 75.941C91.3032 75.171 87.4553 76.6139 86.9874 79.1637C86.5195 81.7135 89.6087 84.4047 93.8875 85.1747C98.1662 85.9447 102.014 84.5019 102.482 81.9521Z" fill="#18181B"/>
<path d="M81.4316 46.1438C82.2678 46.1438 83.1272 46.2128 83.9866 46.3738C88.6554 47.2018 91.2336 49.8241 90.9781 51.2502C90.7691 52.3773 88.516 53.5964 85.2409 53.5964C84.4047 53.5964 83.5453 53.5274 82.6859 53.3664C80.456 52.9523 78.3888 52.0553 77.0416 50.8822C76.066 50.0541 75.5783 49.157 75.6944 48.49C75.9034 47.3629 78.1565 46.1438 81.4316 46.1438ZM81.4316 43.4985C77.0648 43.4985 73.5807 45.2697 73.0697 48.0299C72.4425 51.4112 76.5538 54.9535 82.2213 55.9886C83.2666 56.1726 84.2653 56.2646 85.2409 56.2646C89.6077 56.2646 93.0918 54.4935 93.6028 51.7332C94.23 48.3519 90.1187 44.8096 84.4512 43.7746C83.4059 43.5905 82.3839 43.4985 81.4316 43.4985Z" fill="#18181B"/>
<path d="M222.098 72.8261C220.913 68.5017 218.73 65.3964 216.012 63.8783L213.225 62.2682C212.76 58.4269 210.995 55.4596 208.184 54.1945L197.082 47.846C195.061 46.9259 190.833 46.1668 184.864 50.9742C178.174 47.6849 170.114 47.869 162.054 51.4803C148.327 57.6218 137.596 72.297 133.252 90.7906C114.252 105.121 109.398 125.018 115.832 135.345C116.993 137.209 118.433 138.566 120.105 139.486L130.953 145.696C132.602 146.662 134.46 147.168 136.504 147.168C138.827 147.168 141.335 146.524 143.96 145.213L206.187 109.629C206.187 109.629 206.187 109.629 206.21 109.629C220.774 101.095 225.257 84.3041 222.098 72.8261ZM195.781 50.1692L202.261 53.8725C200.473 54.3555 198.359 55.3676 195.99 57.2768L187.396 52.3543C190.555 50.0541 193.551 49.2721 195.781 50.1692ZM146.887 67.2596L155.667 72.274C150.603 78.9446 146.91 86.8573 144.657 95.851L135.947 90.8826C138.13 81.9349 141.87 73.7922 146.887 67.2596ZM120.082 136.242C113.904 131.044 114.136 116.484 124.17 103.396L132.95 108.41C124.379 119.75 122.684 131.918 125.866 139.555L120.082 136.242ZM204.84 107.352L142.706 142.89C136.945 145.742 132.021 144.799 129.211 140.291C124.101 132.102 127.213 113.172 146.353 98.9563C146.608 98.7723 146.794 98.4963 146.864 98.1972C150.928 80.2787 161.172 66.1095 174.249 60.244C178.128 58.5189 181.984 57.6448 185.63 57.6448C189.161 57.6448 192.506 58.4499 195.479 60.083C195.967 60.359 196.571 60.29 196.989 59.922C200.798 56.6557 204.468 55.4596 207.046 56.6327C209.322 57.6678 210.67 60.474 210.67 64.1773C210.67 64.9134 211.274 65.5115 212.017 65.5115C215.315 65.5115 218.102 68.5247 219.496 73.5851C222.423 84.051 218.265 99.4853 204.84 107.352Z" fill="#18181B"/>
<path d="M112.812 125.385C107.028 128.238 102.127 127.295 99.3168 122.786C94.2067 114.598 97.3192 95.667 116.459 81.4517C116.714 81.2677 116.9 80.9917 116.97 80.6927C121.035 62.7742 131.278 48.605 144.355 42.7395C148.234 40.9913 152.09 40.1402 155.736 40.1402C159.267 40.1402 162.612 40.9453 165.585 42.5785C166.073 42.8545 166.677 42.7855 167.095 42.4174C170.904 39.1512 174.574 37.9551 177.152 39.1282C179.429 40.1632 180.776 42.9695 180.776 46.6728C180.776 47.4089 181.38 48.0069 182.123 48.0069C183.935 48.0069 185.584 48.95 186.931 50.6061L189.138 49.088C187.558 47.0868 185.607 45.8217 183.424 45.4537C183.098 41.2443 181.24 38.0241 178.267 36.69C176.246 35.7699 172.019 35.0108 166.049 39.8182C159.36 36.5289 151.3 36.713 143.24 40.3243C129.513 46.4658 118.781 61.141 114.461 79.6346C95.461 93.9648 90.6064 113.861 97.0405 124.189C99.2935 127.801 102.638 129.664 106.61 129.664C108.933 129.664 111.442 129.02 114.066 127.732L114.391 127.548V124.488L112.812 125.385Z" fill="#18181B"/>
</g>
<defs>
<clipPath id="clip0_1757_25871">
<rect width="191" height="118" fill="white" transform="translate(73 36)"/>
</clipPath>
</defs>
</svg>
