<svg width="743" height="431" viewBox="0 0 743 431" fill="none" xmlns="http://www.w3.org/2000/svg">
<g clip-path="url(#clip0_102_270292)">
<rect width="743" height="431" fill="#EBF2F2"/>
<circle cx="372" cy="216" r="166" fill="#D7E7E7"/>
<rect x="464.5" y="97.5" width="178" height="71" rx="14.5" fill="white" stroke="#191E1E" stroke-width="3"/>
<path d="M435.5 378.564C435.5 378.996 435.3 379.567 434.602 380.286C433.899 381.011 432.787 381.783 431.222 382.564C428.098 384.123 423.481 385.57 417.652 386.8C406.019 389.256 389.877 390.787 372 390.787C354.123 390.787 337.981 389.256 326.348 386.8C320.519 385.57 315.902 384.123 312.778 382.564C311.214 381.783 310.101 381.011 309.398 380.286C308.7 379.567 308.5 378.996 308.5 378.564L308.5 340.751L308.5 304.425C313.815 302.509 323.068 301.235 334.165 300.448C345.862 299.619 359.383 299.342 372 299.342C384.617 299.342 398.138 299.619 409.835 300.448C420.932 301.235 430.185 302.509 435.5 304.425V304.443V304.502V304.562V304.623V304.686V304.75V304.815V304.882V304.949V305.019V305.089V305.161V305.234V305.308V305.384V305.461V305.539V305.619V305.699V305.781V305.865V305.949V306.035V306.122V306.21V306.299V306.39V306.482V306.575V306.669V306.764V306.861V306.958V307.057V307.157V307.259V307.361V307.464V307.569V307.675V307.782V307.89V307.999V308.109V308.22V308.333V308.446V308.561V308.677V308.793V308.911V309.03V309.15V309.271V309.393V309.516V309.64V309.765V309.891V310.018V310.147V310.276V310.406V310.537V310.669V310.802V310.936V311.071V311.207V311.344V311.482V311.621V311.761V311.901V312.043V312.185V312.329V312.473V312.618V312.764V312.911V313.059V313.208V313.358V313.508V313.66V313.812V313.965V314.119V314.273V314.429V314.585V314.743V314.901V315.059V315.219V315.379V315.54V315.702V315.865V316.029V316.193V316.358V316.524V316.69V316.857V317.025V317.194V317.363V317.533V317.704V317.876V318.048V318.221V318.394V318.569V318.744V318.919V319.095V319.272V319.45V319.628V319.807V319.986V320.166V320.347V320.528V320.71V320.893V321.076V321.26V321.444V321.629V321.814V322V322.187V322.374V322.561V322.75V322.938V323.128V323.317V323.508V323.698V323.89V324.081V324.274V324.466V324.66V324.853V325.048V325.242V325.437V325.633V325.829V326.025V326.222V326.419V326.617V326.815V327.014V327.213V327.412V327.612V327.812V328.012V328.213V328.414V328.616V328.818V329.02V329.223V329.426V329.629V329.832V330.036V330.241V330.445V330.65V330.855V331.061V331.266V331.472V331.678V331.885V332.092V332.299V332.506V332.713V332.921V333.129V333.337V333.546V333.754V333.963V334.172V334.381V334.591V334.8V335.01V335.22V335.43V335.64V335.851V336.061V336.272V336.483V336.694V336.905V337.116V337.327V337.539V337.75V337.962V338.173V338.385V338.597V338.809V339.02V339.232V339.444V339.657V339.869V340.081V340.293V340.505V340.717V340.929V341.142V341.354V341.566V341.778V341.99V342.202V342.415V342.627V342.839V343.05V343.262V343.474V343.686V343.898V344.109V344.321V344.532V344.743V344.954V345.166V345.376V345.587V345.798V346.009V346.219V346.429V346.639V346.849V347.059V347.269V347.478V347.687V347.896V348.105V348.314V348.522V348.731V348.939V349.146V349.354V349.561V349.768V349.975V350.182V350.388V350.594V350.8V351.005V351.21V351.415V351.62V351.824V352.028V352.232V352.435V352.638V352.841V353.043V353.245V353.447V353.648V353.849V354.049V354.25V354.449V354.649V354.848V355.046V355.245V355.442V355.64V355.837V356.033V356.229V356.425V356.62V356.815V357.009V357.203V357.396V357.589V357.781V357.973V358.165V358.356V358.546V358.736V358.925V359.114V359.302V359.49V359.677V359.864V360.05V360.235V360.42V360.605V360.788V360.972V361.154V361.336V361.518V361.699V361.879V362.058V362.237V362.416V362.593V362.77V362.947V363.122V363.297V363.472V363.646V363.819V363.991V364.163V364.334V364.504V364.673V364.842V365.01V365.178V365.344V365.51V365.675V365.84V366.003V366.166V366.328V366.489V366.65V366.81V366.969V367.127V367.284V367.441V367.596V367.751V367.905V368.058V368.211V368.362V368.513V368.663V368.812V368.96V369.107V369.253V369.399V369.543V369.687V369.829V369.971V370.112V370.252V370.391V370.529V370.666V370.802V370.937V371.072V371.205V371.337V371.469V371.599V371.728V371.857V371.984V372.11V372.236V372.36V372.483V372.605V372.726V372.847V372.966V373.084V373.201V373.316V373.431V373.545V373.658V373.769V373.88V373.989V374.097V374.204V374.31V374.415V374.519V374.621V374.723V374.823V374.922V375.02V375.117V375.212V375.307V375.4V375.492V375.583V375.672V375.761V375.848V375.934V376.019V376.102V376.184V376.265V376.345V376.423V376.501V376.577V376.651V376.725V376.797V376.867V376.937V377.005V377.072V377.137V377.201V377.264V377.326V377.386V377.445V377.502V377.558V377.613V377.666V377.718V377.769V377.818V377.866V377.912V377.957V378.001V378.043V378.083V378.123V378.161V378.197V378.232V378.265V378.297V378.328V378.357V378.384V378.41V378.435V378.458V378.48V378.5V378.518V378.535V378.551V378.564Z" fill="#191E1E" stroke="#191E1E" stroke-width="3"/>
<path d="M435.5 304.723C435.5 305.154 435.3 305.725 434.602 306.444C433.899 307.17 432.786 307.941 431.222 308.722C428.098 310.281 423.481 311.728 417.652 312.959C406.019 315.415 389.877 316.946 372 316.946C354.123 316.946 337.981 315.415 326.348 312.959C320.519 311.728 315.902 310.281 312.778 308.722C311.213 307.941 310.101 307.17 309.398 306.444C308.7 305.725 308.5 305.154 308.5 304.723C308.5 304.291 308.7 303.721 309.398 303.001C310.101 302.276 311.213 301.504 312.778 300.723C315.902 299.164 320.519 297.718 326.348 296.487C337.981 294.031 354.123 292.5 372 292.5C389.877 292.5 406.019 294.031 417.652 296.487C423.481 297.718 428.098 299.164 431.222 300.723C432.786 301.504 433.899 302.276 434.602 303.001C435.3 303.721 435.5 304.291 435.5 304.723Z" fill="white" stroke="#191E1E" stroke-width="3"/>
<path d="M544.516 137.168C546.462 137.168 547.834 135.796 547.834 133.864V127.382H545.762V133.696C545.762 134.634 545.146 135.292 544.306 135.292C543.662 135.292 542.976 134.858 542.668 134.228L541.296 135.572C541.94 136.51 543.284 137.168 544.516 137.168ZM553.209 137.168C555.351 137.168 557.143 135.432 557.143 133.374C557.143 131.316 555.351 129.594 553.209 129.594C551.053 129.594 549.247 131.316 549.247 133.374C549.247 135.432 551.053 137.168 553.209 137.168ZM553.209 135.446C552.117 135.446 551.207 134.494 551.207 133.374C551.207 132.254 552.117 131.316 553.209 131.316C554.287 131.316 555.197 132.254 555.197 133.374C555.197 134.494 554.287 135.446 553.209 135.446ZM562.992 129.594C561.984 129.594 561.144 130.028 560.57 130.77V127.214H558.526V137H560.57V135.978C561.144 136.734 561.984 137.168 562.992 137.168C564.924 137.168 566.324 135.6 566.324 133.374C566.324 131.162 564.924 129.594 562.992 129.594ZM562.404 135.446C561.41 135.446 560.682 134.718 560.57 133.654V133.094C560.682 132.044 561.41 131.316 562.404 131.316C563.538 131.316 564.336 132.17 564.336 133.374C564.336 134.592 563.538 135.446 562.404 135.446Z" fill="#191E1E"/>
<path d="M324.864 356.168C326.81 356.168 328.182 354.796 328.182 352.864V346.382H326.11V352.696C326.11 353.634 325.494 354.292 324.654 354.292C324.01 354.292 323.324 353.858 323.016 353.228L321.644 354.572C322.288 355.51 323.632 356.168 324.864 356.168ZM333.556 356.168C335.698 356.168 337.49 354.432 337.49 352.374C337.49 350.316 335.698 348.594 333.556 348.594C331.4 348.594 329.594 350.316 329.594 352.374C329.594 354.432 331.4 356.168 333.556 356.168ZM333.556 354.446C332.464 354.446 331.554 353.494 331.554 352.374C331.554 351.254 332.464 350.316 333.556 350.316C334.634 350.316 335.544 351.254 335.544 352.374C335.544 353.494 334.634 354.446 333.556 354.446ZM343.34 348.594C342.332 348.594 341.492 349.028 340.918 349.77V346.214H338.874V356H340.918V354.978C341.492 355.734 342.332 356.168 343.34 356.168C345.272 356.168 346.672 354.6 346.672 352.374C346.672 350.162 345.272 348.594 343.34 348.594ZM342.752 354.446C341.758 354.446 341.03 353.718 340.918 352.654V352.094C341.03 351.044 341.758 350.316 342.752 350.316C343.886 350.316 344.684 351.17 344.684 352.374C344.684 353.592 343.886 354.446 342.752 354.446ZM356.306 356L353.94 352.64C355.256 352.178 356.124 351.058 356.124 349.63C356.124 347.726 354.584 346.382 352.498 346.382H348.172V356H350.23V352.878H351.756L353.954 356H356.306ZM350.23 348.272H352.274C353.296 348.272 353.996 348.804 353.996 349.63C353.996 350.456 353.296 350.988 352.274 350.988H350.23V348.272ZM361.02 354.362C360.166 354.362 359.536 353.83 359.298 353.046H364.52C364.52 350.316 363.19 348.594 360.922 348.594C358.808 348.594 357.198 350.176 357.198 352.36C357.198 354.586 358.878 356.168 361.034 356.168C362.098 356.168 363.344 355.72 363.988 355.048L362.686 353.718C362.294 354.096 361.594 354.362 361.02 354.362ZM361.006 350.4C361.832 350.4 362.364 350.862 362.56 351.576H359.326C359.592 350.848 360.236 350.4 361.006 350.4ZM370.369 348.594C369.361 348.594 368.521 349.028 367.947 349.77V348.762H365.903V358.408H367.947V354.978C368.521 355.734 369.361 356.168 370.369 356.168C372.301 356.168 373.701 354.6 373.701 352.374C373.701 350.162 372.301 348.594 370.369 348.594ZM369.781 354.446C368.787 354.446 368.059 353.718 367.947 352.654V352.094C368.059 351.044 368.787 350.316 369.781 350.316C370.915 350.316 371.713 351.17 371.713 352.374C371.713 353.592 370.915 354.446 369.781 354.446ZM378.701 356.168C380.843 356.168 382.635 354.432 382.635 352.374C382.635 350.316 380.843 348.594 378.701 348.594C376.545 348.594 374.739 350.316 374.739 352.374C374.739 354.432 376.545 356.168 378.701 356.168ZM378.701 354.446C377.609 354.446 376.699 353.494 376.699 352.374C376.699 351.254 377.609 350.316 378.701 350.316C379.779 350.316 380.689 351.254 380.689 352.374C380.689 353.494 379.779 354.446 378.701 354.446ZM386.734 356.168C388.512 356.168 389.674 355.258 389.674 353.83C389.674 352.248 388.288 351.828 387.042 351.506C386.062 351.24 385.768 351.128 385.768 350.736C385.768 350.484 386.118 350.302 386.622 350.302C387.238 350.302 387.994 350.54 388.652 350.946L389.478 349.49C388.68 348.958 387.658 348.594 386.622 348.594C384.914 348.594 383.78 349.574 383.794 350.946C383.808 352.374 384.956 352.78 386.44 353.144C387.182 353.34 387.714 353.48 387.714 353.928C387.714 354.25 387.322 354.474 386.776 354.474C385.81 354.474 384.998 354.124 384.354 353.662L383.472 355.076C384.34 355.776 385.572 356.168 386.734 356.168ZM392.067 347.768C392.669 347.768 393.159 347.264 393.159 346.648C393.159 346.074 392.669 345.556 392.067 345.556C391.437 345.556 390.947 346.074 390.947 346.648C390.947 347.264 391.437 347.768 392.067 347.768ZM391.031 356H393.075V348.762H391.031V356ZM398.668 354.208C398.528 354.348 398.248 354.446 397.968 354.446C397.59 354.446 397.282 354.11 397.282 353.634V350.414H398.85V348.762H397.282V346.774H395.322V348.762H394.328V350.414H395.322V353.956C395.322 355.258 396.218 356.168 397.492 356.168C398.08 356.168 398.738 355.916 399.158 355.538L398.668 354.208ZM403.994 356.168C406.136 356.168 407.928 354.432 407.928 352.374C407.928 350.316 406.136 348.594 403.994 348.594C401.838 348.594 400.032 350.316 400.032 352.374C400.032 354.432 401.838 356.168 403.994 356.168ZM403.994 354.446C402.902 354.446 401.992 353.494 401.992 352.374C401.992 351.254 402.902 350.316 403.994 350.316C405.072 350.316 405.982 351.254 405.982 352.374C405.982 353.494 405.072 354.446 403.994 354.446ZM411.355 350.106V348.762H409.311V356H411.355V352.542C411.355 351.184 412.321 350.316 413.833 350.316V348.594C412.727 348.594 411.831 349.168 411.355 350.106ZM416.664 358.52C417.798 358.52 418.722 357.778 419.268 356.364L422.236 348.762H420.15L418.344 353.844L416.44 348.762H414.326L417.336 356.07L417.084 356.602C416.93 356.868 416.622 356.994 416.23 356.994C415.992 356.994 415.628 356.868 415.278 356.672L414.844 358.072C415.334 358.338 416.062 358.52 416.664 358.52Z" fill="white"/>
<path d="M280 132C279.448 132 279 132.448 279 133C279 133.552 279.448 134 280 134L280 132ZM463.707 133.707C464.098 133.317 464.098 132.683 463.707 132.293L457.343 125.929C456.953 125.538 456.319 125.538 455.929 125.929C455.538 126.319 455.538 126.953 455.929 127.343L461.586 133L455.929 138.657C455.538 139.047 455.538 139.681 455.929 140.071C456.319 140.462 456.953 140.462 457.343 140.071L463.707 133.707ZM280 134L463 134L463 132L280 132L280 134Z" fill="#191E1E"/>
<path d="M242.757 168.347C242.396 167.928 241.765 167.882 241.347 168.243C240.928 168.604 240.882 169.235 241.243 169.653L242.757 168.347ZM361.927 308.997C362.478 309.038 362.957 308.624 362.997 308.073L363.656 299.097C363.696 298.546 363.282 298.067 362.732 298.027C362.181 297.986 361.702 298.4 361.661 298.951L361.076 306.93L353.097 306.344C352.546 306.304 352.067 306.718 352.027 307.268C351.986 307.819 352.4 308.298 352.951 308.339L361.927 308.997ZM241.243 169.653L361.243 308.653L362.757 307.347L242.757 168.347L241.243 169.653Z" fill="#191E1E"/>
<path d="M500.243 168.347C500.604 167.928 501.235 167.882 501.653 168.243C502.072 168.604 502.118 169.235 501.757 169.653L500.243 168.347ZM381.073 308.997C380.522 309.038 380.043 308.624 380.003 308.073L379.344 299.097C379.304 298.546 379.718 298.067 380.268 298.027C380.819 297.986 381.298 298.4 381.339 298.951L381.924 306.93L389.903 306.344C390.454 306.304 390.933 306.718 390.973 307.268C391.014 307.819 390.6 308.298 390.049 308.339L381.073 308.997ZM501.757 169.653L381.757 308.653L380.243 307.347L500.243 168.347L501.757 169.653Z" fill="#191E1E"/>
<rect width="128" height="14" transform="translate(221 233)" fill="#D7E7E7"/>
<path d="M226.28 245.144C227.456 245.144 228.536 244.64 229.316 243.848L228.464 243.032C227.912 243.632 227.132 244.028 226.28 244.028C224.636 244.028 223.244 242.588 223.244 240.872C223.244 239.168 224.636 237.728 226.28 237.728C227.132 237.728 227.912 238.124 228.464 238.724L229.316 237.908C228.536 237.104 227.456 236.612 226.28 236.612C223.964 236.612 221.996 238.556 221.996 240.872C221.996 243.188 223.964 245.144 226.28 245.144ZM231.747 239.984V238.796H230.559V245H231.747V241.472C231.855 240.392 232.767 239.684 234.051 239.684V238.652C232.983 238.652 232.143 239.168 231.747 239.984ZM238.054 244.088C236.986 244.088 236.23 243.344 236.074 242.312H240.958C240.958 240.092 239.866 238.652 237.97 238.652C236.254 238.652 234.874 240.02 234.874 241.88C234.874 243.788 236.338 245.144 238.066 245.144C238.942 245.144 240.022 244.772 240.574 244.184L239.83 243.416C239.458 243.8 238.702 244.088 238.054 244.088ZM238.018 239.708C239.086 239.708 239.674 240.404 239.806 241.364H236.086C236.278 240.356 237.058 239.708 238.018 239.708ZM244.939 238.652C244.255 238.652 243.475 238.832 242.587 239.276L243.019 240.152C243.559 239.876 244.159 239.636 244.771 239.636C246.007 239.636 246.367 240.464 246.367 241.244V241.436C245.767 241.232 245.107 241.1 244.495 241.1C243.127 241.1 242.011 241.928 242.011 243.164C242.011 244.376 242.983 245.144 244.303 245.144C245.059 245.144 245.911 244.796 246.367 244.148V245H247.531V241.244C247.531 239.708 246.607 238.652 244.939 238.652ZM244.531 244.208C243.751 244.208 243.151 243.8 243.151 243.128C243.151 242.456 243.847 241.988 244.675 241.988C245.287 241.988 245.863 242.072 246.367 242.228V243.056C246.163 243.824 245.299 244.208 244.531 244.208ZM252.153 243.884C252.021 244.016 251.781 244.112 251.517 244.112C251.169 244.112 250.881 243.8 250.881 243.368V239.804H252.345V238.796H250.881V237.092H249.717V238.796H248.781V239.804H249.717V243.452C249.717 244.448 250.389 245.144 251.349 245.144C251.793 245.144 252.249 244.976 252.585 244.7L252.153 243.884ZM256.64 244.088C255.572 244.088 254.816 243.344 254.66 242.312H259.544C259.544 240.092 258.452 238.652 256.556 238.652C254.84 238.652 253.46 240.02 253.46 241.88C253.46 243.788 254.924 245.144 256.652 245.144C257.528 245.144 258.608 244.772 259.16 244.184L258.416 243.416C258.044 243.8 257.288 244.088 256.64 244.088ZM256.604 239.708C257.672 239.708 258.26 240.404 258.392 241.364H254.672C254.864 240.356 255.644 239.708 256.604 239.708ZM263.165 245.144C264.521 245.144 265.517 244.4 265.517 243.224C265.517 241.988 264.425 241.652 263.405 241.352C262.361 241.028 261.977 240.884 261.977 240.404C261.977 239.936 262.457 239.672 263.069 239.672C263.609 239.672 264.233 239.876 264.833 240.248L265.361 239.372C264.689 238.928 263.873 238.652 263.069 238.652C261.749 238.652 260.801 239.396 260.813 240.536C260.813 241.544 261.521 241.952 262.949 242.348C263.717 242.564 264.353 242.744 264.353 243.32C264.353 243.8 263.873 244.124 263.177 244.124C262.445 244.124 261.737 243.848 261.077 243.368L260.513 244.22C261.257 244.82 262.253 245.144 263.165 245.144ZM272.335 245.144C273.907 245.144 275.011 243.968 275.011 242.312V236.756H273.799V242.264C273.799 243.308 273.163 244.04 272.275 244.04C271.579 244.04 270.871 243.584 270.571 242.948L269.719 243.776C270.247 244.58 271.327 245.144 272.335 245.144ZM279.775 245.144C281.539 245.144 283.027 243.656 283.027 241.892C283.027 240.128 281.539 238.652 279.775 238.652C277.999 238.652 276.499 240.128 276.499 241.892C276.499 243.656 277.999 245.144 279.775 245.144ZM279.775 244.112C278.635 244.112 277.687 243.104 277.687 241.892C277.687 240.692 278.635 239.684 279.775 239.684C280.891 239.684 281.839 240.692 281.839 241.892C281.839 243.104 280.891 244.112 279.775 244.112ZM287.861 238.652C286.901 238.652 286.133 239.108 285.653 239.864V236.612H284.477V245H285.653V243.92C286.133 244.688 286.901 245.144 287.861 245.144C289.493 245.144 290.717 243.8 290.717 241.892C290.717 239.996 289.493 238.652 287.861 238.652ZM287.573 244.112C286.457 244.112 285.653 243.188 285.653 241.892C285.653 240.596 286.457 239.684 287.573 239.684C288.713 239.684 289.517 240.596 289.517 241.892C289.517 243.188 288.713 244.112 287.573 244.112ZM298.247 237.884V236.756H292.187V245H298.247V243.872H293.411V241.364H297.779V240.236H293.411V237.884H298.247ZM305.229 245L302.865 241.82L305.121 238.796H303.801L302.205 240.932L300.621 238.796H299.277L301.545 241.832L299.181 245H300.501L302.205 242.72L303.897 245H305.229ZM309.245 244.088C308.177 244.088 307.421 243.344 307.265 242.312H312.149C312.149 240.092 311.057 238.652 309.161 238.652C307.445 238.652 306.065 240.02 306.065 241.88C306.065 243.788 307.529 245.144 309.257 245.144C310.133 245.144 311.213 244.772 311.765 244.184L311.021 243.416C310.649 243.8 309.893 244.088 309.245 244.088ZM309.209 239.708C310.277 239.708 310.865 240.404 310.997 241.364H307.277C307.469 240.356 308.249 239.708 309.209 239.708ZM316.454 245.144C317.378 245.144 318.182 244.76 318.782 244.148L317.978 243.416C317.594 243.848 317.042 244.112 316.466 244.112C315.326 244.112 314.39 243.104 314.39 241.892C314.39 240.692 315.326 239.684 316.454 239.684C317.03 239.684 317.57 239.936 317.942 240.356L318.746 239.612C318.158 239.024 317.354 238.652 316.466 238.652C314.69 238.652 313.19 240.128 313.19 241.892C313.19 243.656 314.69 245.144 316.454 245.144ZM324.325 238.796V242.816C324.229 243.548 323.485 244.112 322.621 244.112C321.781 244.112 321.193 243.464 321.193 242.54V238.796H320.029V242.744C320.029 244.148 320.989 245.144 322.357 245.144C323.197 245.144 323.953 244.712 324.325 244.1V245H325.513V238.796H324.325ZM330.141 243.884C330.009 244.016 329.769 244.112 329.505 244.112C329.157 244.112 328.869 243.8 328.869 243.368V239.804H330.333V238.796H328.869V237.092H327.705V238.796H326.769V239.804H327.705V243.452C327.705 244.448 328.377 245.144 329.337 245.144C329.781 245.144 330.237 244.976 330.573 244.7L330.141 243.884ZM332.372 237.764C332.756 237.764 333.08 237.428 333.08 237.044C333.08 236.672 332.756 236.336 332.372 236.336C331.964 236.336 331.652 236.672 331.652 237.044C331.652 237.428 331.964 237.764 332.372 237.764ZM331.772 245H332.96V238.796H331.772V245ZM337.618 245.144C339.382 245.144 340.87 243.656 340.87 241.892C340.87 240.128 339.382 238.652 337.618 238.652C335.842 238.652 334.342 240.128 334.342 241.892C334.342 243.656 335.842 245.144 337.618 245.144ZM337.618 244.112C336.478 244.112 335.53 243.104 335.53 241.892C335.53 240.692 336.478 239.684 337.618 239.684C338.734 239.684 339.682 240.692 339.682 241.892C339.682 243.104 338.734 244.112 337.618 244.112ZM345.416 238.652C344.576 238.652 343.82 239.084 343.448 239.696V238.796H342.26V245H343.448V240.98C343.544 240.248 344.288 239.684 345.152 239.684C345.992 239.684 346.58 240.332 346.58 241.256V245H347.744V241.052C347.744 239.648 346.784 238.652 345.416 238.652Z" fill="#191E1E"/>
<rect width="62" height="14" transform="translate(428 233)" fill="#D7E7E7"/>
<path d="M435.854 239.444C435.854 237.872 434.534 236.756 432.794 236.756H429.326V245H430.538V242.132H432.434L434.45 245H435.842L433.742 242.012C434.99 241.688 435.854 240.716 435.854 239.444ZM430.538 237.884H432.626C433.814 237.884 434.618 238.472 434.618 239.444C434.618 240.416 433.814 241.004 432.626 241.004H430.538V237.884ZM440.044 244.088C438.976 244.088 438.22 243.344 438.064 242.312H442.948C442.948 240.092 441.856 238.652 439.96 238.652C438.244 238.652 436.864 240.02 436.864 241.88C436.864 243.788 438.328 245.144 440.056 245.144C440.932 245.144 442.012 244.772 442.564 244.184L441.82 243.416C441.448 243.8 440.692 244.088 440.044 244.088ZM440.008 239.708C441.076 239.708 441.664 240.404 441.796 241.364H438.076C438.268 240.356 439.048 239.708 440.008 239.708ZM447.769 238.652C446.809 238.652 446.041 239.108 445.561 239.864V238.796H444.385V247.064H445.561V243.92C446.041 244.688 446.809 245.144 447.769 245.144C449.401 245.144 450.625 243.8 450.625 241.892C450.625 239.996 449.401 238.652 447.769 238.652ZM447.481 244.112C446.365 244.112 445.561 243.188 445.561 241.892C445.561 240.596 446.365 239.684 447.481 239.684C448.621 239.684 449.425 240.596 449.425 241.892C449.425 243.188 448.621 244.112 447.481 244.112ZM454.999 245.144C456.763 245.144 458.251 243.656 458.251 241.892C458.251 240.128 456.763 238.652 454.999 238.652C453.223 238.652 451.723 240.128 451.723 241.892C451.723 243.656 453.223 245.144 454.999 245.144ZM454.999 244.112C453.859 244.112 452.911 243.104 452.911 241.892C452.911 240.692 453.859 239.684 454.999 239.684C456.115 239.684 457.063 240.692 457.063 241.892C457.063 243.104 456.115 244.112 454.999 244.112ZM460.889 239.984V238.796H459.701V245H460.889V241.472C460.997 240.392 461.909 239.684 463.193 239.684V238.652C462.125 238.652 461.285 239.168 460.889 239.984ZM467.256 243.884C467.124 244.016 466.884 244.112 466.62 244.112C466.272 244.112 465.984 243.8 465.984 243.368V239.804H467.448V238.796H465.984V237.092H464.82V238.796H463.884V239.804H464.82V243.452C464.82 244.448 465.492 245.144 466.452 245.144C466.896 245.144 467.352 244.976 467.688 244.7L467.256 243.884ZM471.143 245.144C472.499 245.144 473.495 244.4 473.495 243.224C473.495 241.988 472.403 241.652 471.383 241.352C470.339 241.028 469.955 240.884 469.955 240.404C469.955 239.936 470.435 239.672 471.047 239.672C471.587 239.672 472.211 239.876 472.811 240.248L473.339 239.372C472.667 238.928 471.851 238.652 471.047 238.652C469.727 238.652 468.779 239.396 468.791 240.536C468.791 241.544 469.499 241.952 470.927 242.348C471.695 242.564 472.331 242.744 472.331 243.32C472.331 243.8 471.851 244.124 471.155 244.124C470.423 244.124 469.715 243.848 469.055 243.368L468.491 244.22C469.235 244.82 470.231 245.144 471.143 245.144ZM481.213 243.884C481.081 244.016 480.841 244.112 480.577 244.112C480.229 244.112 479.941 243.8 479.941 243.368V239.804H481.405V238.796H479.941V237.092H478.777V238.796H477.841V239.804H478.777V243.452C478.777 244.448 479.449 245.144 480.409 245.144C480.853 245.144 481.309 244.976 481.645 244.7L481.213 243.884ZM485.796 245.144C487.56 245.144 489.048 243.656 489.048 241.892C489.048 240.128 487.56 238.652 485.796 238.652C484.02 238.652 482.52 240.128 482.52 241.892C482.52 243.656 484.02 245.144 485.796 245.144ZM485.796 244.112C484.656 244.112 483.708 243.104 483.708 241.892C483.708 240.692 484.656 239.684 485.796 239.684C486.912 239.684 487.86 240.692 487.86 241.892C487.86 243.104 486.912 244.112 485.796 244.112Z" fill="#191E1E"/>
<path d="M347.088 154.872V147.756H345.864V156H351.456V154.872H347.088ZM355.302 149.652C354.618 149.652 353.838 149.832 352.95 150.276L353.382 151.152C353.922 150.876 354.522 150.636 355.134 150.636C356.37 150.636 356.73 151.464 356.73 152.244V152.436C356.13 152.232 355.47 152.1 354.858 152.1C353.49 152.1 352.374 152.928 352.374 154.164C352.374 155.376 353.346 156.144 354.666 156.144C355.422 156.144 356.274 155.796 356.73 155.148V156H357.894V152.244C357.894 150.708 356.97 149.652 355.302 149.652ZM354.894 155.208C354.114 155.208 353.514 154.8 353.514 154.128C353.514 153.456 354.21 152.988 355.038 152.988C355.65 152.988 356.226 153.072 356.73 153.228V154.056C356.526 154.824 355.662 155.208 354.894 155.208ZM363.884 149.796V153.816C363.788 154.548 363.044 155.112 362.18 155.112C361.34 155.112 360.752 154.464 360.752 153.54V149.796H359.588V153.744C359.588 155.148 360.548 156.144 361.916 156.144C362.756 156.144 363.512 155.712 363.884 155.1V156H365.072V149.796H363.884ZM369.952 149.652C369.112 149.652 368.356 150.084 367.984 150.696V149.796H366.796V156H367.984V151.98C368.08 151.248 368.824 150.684 369.688 150.684C370.528 150.684 371.116 151.332 371.116 152.256V156H372.28V152.052C372.28 150.648 371.32 149.652 369.952 149.652ZM376.907 156.144C377.831 156.144 378.635 155.76 379.235 155.148L378.431 154.416C378.047 154.848 377.495 155.112 376.919 155.112C375.779 155.112 374.843 154.104 374.843 152.892C374.843 151.692 375.779 150.684 376.907 150.684C377.483 150.684 378.023 150.936 378.395 151.356L379.199 150.612C378.611 150.024 377.807 149.652 376.919 149.652C375.143 149.652 373.643 151.128 373.643 152.892C373.643 154.656 375.143 156.144 376.907 156.144ZM383.663 149.652C382.811 149.652 382.055 150.096 381.683 150.72V147.612H380.507V156H381.683V152.148C381.683 151.344 382.463 150.684 383.399 150.684C384.239 150.684 384.827 151.332 384.827 152.256V156H385.991V152.052C385.991 150.648 385.031 149.652 383.663 149.652ZM390.534 155.088C389.466 155.088 388.71 154.344 388.554 153.312H393.438C393.438 151.092 392.346 149.652 390.45 149.652C388.734 149.652 387.354 151.02 387.354 152.88C387.354 154.788 388.818 156.144 390.546 156.144C391.422 156.144 392.502 155.772 393.054 155.184L392.31 154.416C391.938 154.8 391.182 155.088 390.534 155.088ZM390.498 150.708C391.566 150.708 392.154 151.404 392.286 152.364H388.566C388.758 151.356 389.538 150.708 390.498 150.708ZM397.059 156.144C398.415 156.144 399.411 155.4 399.411 154.224C399.411 152.988 398.319 152.652 397.299 152.352C396.255 152.028 395.871 151.884 395.871 151.404C395.871 150.936 396.351 150.672 396.963 150.672C397.503 150.672 398.127 150.876 398.727 151.248L399.255 150.372C398.583 149.928 397.767 149.652 396.963 149.652C395.643 149.652 394.695 150.396 394.707 151.536C394.707 152.544 395.415 152.952 396.843 153.348C397.611 153.564 398.247 153.744 398.247 154.32C398.247 154.8 397.767 155.124 397.071 155.124C396.339 155.124 395.631 154.848 394.971 154.368L394.407 155.22C395.151 155.82 396.147 156.144 397.059 156.144Z" fill="#191E1E"/>
<circle cx="284.5" cy="219.5" r="11.5" fill="#6DB33F"/>
<path d="M284.29 224H286.066V215.756H284.65L282.178 217.412L282.886 218.66L284.29 217.784V224Z" fill="white"/>
<circle cx="370.5" cy="132.5" r="11.5" fill="#6DB33F"/>
<path d="M367.86 137H374.088V135.404H370.596L372.096 134.24C373.536 133.196 374.016 132.344 374.016 131.24C374.016 129.692 372.744 128.612 370.992 128.612C369.66 128.612 368.616 129.188 367.8 130.22L368.928 131.312C369.528 130.628 370.14 130.22 370.944 130.22C371.616 130.22 372.192 130.628 372.192 131.312C372.192 131.888 371.88 132.428 370.896 133.208L367.86 135.56V137Z" fill="white"/>
<circle cx="458.5" cy="219.5" r="11.5" fill="#6DB33F"/>
<path d="M458.985 224.156C460.905 224.156 462.165 223.124 462.165 221.696C462.165 220.604 461.337 219.968 460.437 219.764C461.337 219.5 461.985 218.816 461.985 217.868C461.985 216.56 460.821 215.612 458.961 215.612C457.497 215.612 456.513 216.248 455.829 217.076L456.849 218.156C457.401 217.58 458.013 217.196 458.793 217.196C459.609 217.196 460.173 217.58 460.173 218.18C460.173 218.768 459.633 219.104 458.733 219.104L457.785 219.092V220.604H458.733C459.849 220.592 460.341 220.916 460.341 221.552C460.341 222.14 459.813 222.56 458.901 222.56C458.073 222.56 457.293 222.212 456.717 221.588L455.673 222.764C456.369 223.568 457.497 224.156 458.985 224.156Z" fill="white"/>
<circle cx="164.318" cy="275.318" r="3.31818" fill="#B6D8D1"/>
<circle cx="180.909" cy="275.318" r="3.31818" fill="#B6D8D1"/>
<circle cx="197.5" cy="275.318" r="3.31818" fill="#B6D8D1"/>
<circle cx="214.091" cy="275.318" r="3.31818" fill="#B6D8D1"/>
<circle cx="230.682" cy="275.318" r="3.31818" fill="#B6D8D1"/>
<circle cx="164.318" cy="291.909" r="3.31818" fill="#B6D8D1"/>
<circle cx="180.909" cy="291.909" r="3.31818" fill="#B6D8D1"/>
<circle cx="197.5" cy="291.909" r="3.31818" fill="#B6D8D1"/>
<circle cx="214.091" cy="291.909" r="3.31818" fill="#B6D8D1"/>
<circle cx="230.682" cy="291.909" r="3.31818" fill="#B6D8D1"/>
<circle cx="164.318" cy="308.5" r="3.31818" fill="#B6D8D1"/>
<circle cx="180.909" cy="308.5" r="3.31818" fill="#B6D8D1"/>
<circle cx="197.5" cy="308.5" r="3.31818" fill="#B6D8D1"/>
<circle cx="214.091" cy="308.5" r="3.31818" fill="#B6D8D1"/>
<circle cx="230.682" cy="308.5" r="3.31818" fill="#B6D8D1"/>
<circle cx="164.318" cy="325.091" r="3.31818" fill="#B6D8D1"/>
<circle cx="180.909" cy="325.091" r="3.31818" fill="#B6D8D1"/>
<circle cx="197.5" cy="325.091" r="3.31818" fill="#B6D8D1"/>
<circle cx="214.091" cy="325.091" r="3.31818" fill="#B6D8D1"/>
<circle cx="230.682" cy="325.091" r="3.31818" fill="#B6D8D1"/>
<circle cx="164.318" cy="341.682" r="3.31818" fill="#B6D8D1"/>
<circle cx="247.273" cy="341.682" r="3.31818" transform="rotate(-90 247.273 341.682)" fill="#B6D8D1"/>
<circle cx="180.909" cy="341.682" r="3.31818" fill="#B6D8D1"/>
<circle cx="247.273" cy="325.091" r="3.31818" transform="rotate(-90 247.273 325.091)" fill="#B6D8D1"/>
<circle cx="197.5" cy="341.682" r="3.31818" fill="#B6D8D1"/>
<circle cx="247.273" cy="308.5" r="3.31818" transform="rotate(-90 247.273 308.5)" fill="#B6D8D1"/>
<circle cx="214.091" cy="341.682" r="3.31818" fill="#B6D8D1"/>
<circle cx="247.273" cy="291.909" r="3.31818" transform="rotate(-90 247.273 291.909)" fill="#B6D8D1"/>
<circle cx="230.682" cy="341.682" r="3.31818" fill="#B6D8D1"/>
<circle cx="247.273" cy="275.318" r="3.31818" transform="rotate(-90 247.273 275.318)" fill="#B6D8D1"/>
<rect x="107.5" y="97.5" width="178" height="71" rx="14.5" fill="white" stroke="#191E1E" stroke-width="3"/>
<path d="M155.654 137.168C157.6 137.168 158.972 135.796 158.972 133.864V127.382H156.9V133.696C156.9 134.634 156.284 135.292 155.444 135.292C154.8 135.292 154.114 134.858 153.806 134.228L152.434 135.572C153.078 136.51 154.422 137.168 155.654 137.168ZM164.347 137.168C166.489 137.168 168.281 135.432 168.281 133.374C168.281 131.316 166.489 129.594 164.347 129.594C162.191 129.594 160.385 131.316 160.385 133.374C160.385 135.432 162.191 137.168 164.347 137.168ZM164.347 135.446C163.255 135.446 162.345 134.494 162.345 133.374C162.345 132.254 163.255 131.316 164.347 131.316C165.425 131.316 166.335 132.254 166.335 133.374C166.335 134.494 165.425 135.446 164.347 135.446ZM174.13 129.594C173.122 129.594 172.282 130.028 171.708 130.77V127.214H169.664V137H171.708V135.978C172.282 136.734 173.122 137.168 174.13 137.168C176.062 137.168 177.462 135.6 177.462 133.374C177.462 131.162 176.062 129.594 174.13 129.594ZM173.542 135.446C172.548 135.446 171.82 134.718 171.708 133.654V133.094C171.82 132.044 172.548 131.316 173.542 131.316C174.676 131.316 175.474 132.17 175.474 133.374C175.474 134.592 174.676 135.446 173.542 135.446ZM180.964 135.138V127.382H178.892V137H185.752V135.138H180.964ZM190.261 129.594C189.253 129.594 188.259 129.874 187.237 130.392L187.923 131.75C188.497 131.456 189.127 131.232 189.799 131.232C190.989 131.232 191.465 131.904 191.465 132.674V132.814C190.849 132.576 190.205 132.45 189.617 132.45C187.937 132.45 186.607 133.43 186.607 134.858C186.607 136.244 187.797 137.168 189.337 137.168C190.121 137.168 190.947 136.86 191.465 136.272V137H193.439V132.674C193.439 130.784 192.151 129.594 190.261 129.594ZM189.799 135.754C189.099 135.754 188.581 135.39 188.581 134.802C188.581 134.214 189.169 133.78 189.911 133.78C190.471 133.78 191.003 133.878 191.465 134.046V134.718C191.325 135.39 190.583 135.754 189.799 135.754ZM199.964 129.762V134.088L199.95 134.046C199.95 134.83 199.292 135.446 198.438 135.446C197.626 135.446 197.066 134.83 197.066 133.934V129.762H195.092V134.368C195.092 136.006 196.212 137.168 197.78 137.168C198.718 137.168 199.53 136.748 199.964 136.09V137H202.008V129.762H199.964ZM207.947 129.594C207.009 129.594 206.197 130.014 205.763 130.672V129.762H203.719V137H205.763V132.674L205.777 132.716C205.777 131.932 206.435 131.316 207.289 131.316C208.101 131.316 208.661 131.932 208.661 132.828V137H210.635V132.394C210.635 130.756 209.515 129.594 207.947 129.594ZM215.903 137.168C217.107 137.168 218.087 136.678 218.801 135.894L217.443 134.746C217.065 135.166 216.477 135.446 215.917 135.446C214.839 135.446 213.943 134.494 213.943 133.36C213.943 132.254 214.839 131.316 215.903 131.316C216.463 131.316 217.037 131.582 217.401 131.988L218.759 130.826C218.059 130.07 217.093 129.594 215.917 129.594C213.775 129.594 211.955 131.316 211.955 133.374C211.955 135.432 213.761 137.168 215.903 137.168ZM224.217 129.594C223.293 129.594 222.495 130.014 222.047 130.644V127.214H220.003V137H222.047V132.716C222.047 131.932 222.705 131.316 223.559 131.316C224.371 131.316 224.931 131.932 224.931 132.828V137H226.905V132.394C226.905 130.756 225.785 129.594 224.217 129.594ZM232.046 135.362C231.192 135.362 230.562 134.83 230.324 134.046H235.546C235.546 131.316 234.216 129.594 231.948 129.594C229.834 129.594 228.224 131.176 228.224 133.36C228.224 135.586 229.904 137.168 232.06 137.168C233.124 137.168 234.37 136.72 235.014 136.048L233.712 134.718C233.32 135.096 232.62 135.362 232.046 135.362ZM232.032 131.4C232.858 131.4 233.39 131.862 233.586 132.576H230.352C230.618 131.848 231.262 131.4 232.032 131.4ZM238.973 131.106V129.762H236.929V137H238.973V133.542C238.973 132.184 239.939 131.316 241.451 131.316V129.594C240.345 129.594 239.449 130.168 238.973 131.106Z" fill="#191E1E"/>
</g>
<defs>
<clipPath id="clip0_102_270292">
<rect width="743" height="431" fill="white"/>
</clipPath>
</defs>
</svg>
