<svg width="743" height="431" viewBox="0 0 743 431" fill="none" xmlns="http://www.w3.org/2000/svg">
<g clip-path="url(#clip0_303_269720)">
<rect width="743" height="431" fill="white"/>
<circle cx="511.5" cy="272.5" r="364.5" fill="#F9FAFB"/>
<circle cx="57.9489" cy="215.949" r="2.94888" fill="#EAEEF0"/>
<circle cx="57.9489" cy="230.847" r="2.94888" fill="#EAEEF0"/>
<circle cx="57.9489" cy="245.744" r="2.94888" fill="#EAEEF0"/>
<circle cx="57.9489" cy="260.642" r="2.94888" fill="#EAEEF0"/>
<circle cx="57.9489" cy="275.54" r="2.94888" fill="#EAEEF0"/>
<circle cx="57.9489" cy="290.438" r="2.94888" fill="#EAEEF0"/>
<circle cx="57.9489" cy="305.336" r="2.94888" fill="#EAEEF0"/>
<circle cx="57.9489" cy="320.233" r="2.94888" fill="#EAEEF0"/>
<circle cx="57.9489" cy="335.131" r="2.94888" fill="#EAEEF0"/>
<circle cx="57.9489" cy="350.029" r="2.94888" fill="#EAEEF0"/>
<circle cx="57.9489" cy="364.926" r="2.94888" fill="#EAEEF0"/>
<circle cx="57.9489" cy="379.824" r="2.94888" fill="#EAEEF0"/>
<circle cx="72.8468" cy="215.949" r="2.94888" fill="#EAEEF0"/>
<circle cx="72.8468" cy="230.847" r="2.94888" fill="#EAEEF0"/>
<circle cx="72.8468" cy="245.744" r="2.94888" fill="#EAEEF0"/>
<circle cx="72.8468" cy="260.642" r="2.94888" fill="#EAEEF0"/>
<circle cx="72.8468" cy="275.54" r="2.94888" fill="#EAEEF0"/>
<circle cx="72.8468" cy="290.438" r="2.94888" fill="#EAEEF0"/>
<circle cx="72.8468" cy="305.336" r="2.94888" fill="#EAEEF0"/>
<circle cx="72.8468" cy="320.233" r="2.94888" fill="#EAEEF0"/>
<circle cx="72.8468" cy="335.131" r="2.94888" fill="#EAEEF0"/>
<circle cx="72.8468" cy="350.029" r="2.94888" fill="#EAEEF0"/>
<circle cx="72.8468" cy="364.926" r="2.94888" fill="#EAEEF0"/>
<circle cx="72.8468" cy="379.824" r="2.94888" fill="#EAEEF0"/>
<circle cx="87.7443" cy="215.949" r="2.94888" fill="#EAEEF0"/>
<circle cx="87.7443" cy="230.847" r="2.94888" fill="#EAEEF0"/>
<circle cx="87.7443" cy="245.744" r="2.94888" fill="#EAEEF0"/>
<circle cx="87.7443" cy="260.642" r="2.94888" fill="#EAEEF0"/>
<circle cx="87.7443" cy="275.54" r="2.94888" fill="#EAEEF0"/>
<circle cx="87.7443" cy="290.438" r="2.94888" fill="#EAEEF0"/>
<circle cx="87.7443" cy="305.336" r="2.94888" fill="#EAEEF0"/>
<circle cx="87.7443" cy="320.233" r="2.94888" fill="#EAEEF0"/>
<circle cx="87.7443" cy="335.131" r="2.94888" fill="#EAEEF0"/>
<circle cx="87.7443" cy="350.029" r="2.94888" fill="#EAEEF0"/>
<circle cx="87.7443" cy="364.926" r="2.94888" fill="#EAEEF0"/>
<circle cx="87.7443" cy="379.824" r="2.94888" fill="#EAEEF0"/>
<circle cx="102.642" cy="215.949" r="2.94888" fill="#EAEEF0"/>
<circle cx="102.642" cy="230.847" r="2.94888" fill="#EAEEF0"/>
<circle cx="102.642" cy="245.744" r="2.94888" fill="#EAEEF0"/>
<circle cx="102.642" cy="260.642" r="2.94888" fill="#EAEEF0"/>
<circle cx="102.642" cy="275.54" r="2.94888" fill="#EAEEF0"/>
<circle cx="102.642" cy="290.438" r="2.94888" fill="#EAEEF0"/>
<circle cx="102.642" cy="305.336" r="2.94888" fill="#EAEEF0"/>
<circle cx="102.642" cy="320.233" r="2.94888" fill="#EAEEF0"/>
<circle cx="102.642" cy="335.131" r="2.94888" fill="#EAEEF0"/>
<circle cx="102.642" cy="350.029" r="2.94888" fill="#EAEEF0"/>
<circle cx="102.642" cy="364.926" r="2.94888" fill="#EAEEF0"/>
<circle cx="102.642" cy="379.824" r="2.94888" fill="#EAEEF0"/>
<circle cx="117.54" cy="215.949" r="2.94888" fill="#EAEEF0"/>
<circle cx="117.54" cy="230.847" r="2.94888" fill="#EAEEF0"/>
<circle cx="117.54" cy="245.744" r="2.94888" fill="#EAEEF0"/>
<circle cx="117.54" cy="260.642" r="2.94888" fill="#EAEEF0"/>
<circle cx="117.54" cy="275.54" r="2.94888" fill="#EAEEF0"/>
<circle cx="117.54" cy="290.438" r="2.94888" fill="#EAEEF0"/>
<circle cx="117.54" cy="305.336" r="2.94888" fill="#EAEEF0"/>
<circle cx="117.54" cy="320.233" r="2.94888" fill="#EAEEF0"/>
<circle cx="117.54" cy="335.131" r="2.94888" fill="#EAEEF0"/>
<circle cx="117.54" cy="350.029" r="2.94888" fill="#EAEEF0"/>
<circle cx="117.54" cy="364.926" r="2.94888" fill="#EAEEF0"/>
<circle cx="117.54" cy="379.824" r="2.94888" fill="#EAEEF0"/>
<circle cx="132.438" cy="215.949" r="2.94888" fill="#EAEEF0"/>
<circle cx="132.438" cy="230.847" r="2.94888" fill="#EAEEF0"/>
<circle cx="132.438" cy="245.744" r="2.94888" fill="#EAEEF0"/>
<circle cx="132.438" cy="260.642" r="2.94888" fill="#EAEEF0"/>
<circle cx="132.438" cy="275.54" r="2.94888" fill="#EAEEF0"/>
<circle cx="132.438" cy="290.438" r="2.94888" fill="#EAEEF0"/>
<circle cx="132.438" cy="305.336" r="2.94888" fill="#EAEEF0"/>
<circle cx="132.438" cy="320.233" r="2.94888" fill="#EAEEF0"/>
<circle cx="132.438" cy="335.131" r="2.94888" fill="#EAEEF0"/>
<circle cx="132.438" cy="350.029" r="2.94888" fill="#EAEEF0"/>
<circle cx="132.438" cy="364.926" r="2.94888" fill="#EAEEF0"/>
<circle cx="132.438" cy="379.824" r="2.94888" fill="#EAEEF0"/>
<circle cx="147.336" cy="215.949" r="2.94888" fill="#EAEEF0"/>
<circle cx="147.336" cy="230.847" r="2.94888" fill="#EAEEF0"/>
<circle cx="147.336" cy="245.744" r="2.94888" fill="#EAEEF0"/>
<circle cx="147.336" cy="260.642" r="2.94888" fill="#EAEEF0"/>
<circle cx="147.336" cy="275.54" r="2.94888" fill="#EAEEF0"/>
<circle cx="147.336" cy="290.438" r="2.94888" fill="#EAEEF0"/>
<circle cx="147.336" cy="305.336" r="2.94888" fill="#EAEEF0"/>
<circle cx="147.336" cy="320.233" r="2.94888" fill="#EAEEF0"/>
<circle cx="147.336" cy="335.131" r="2.94888" fill="#EAEEF0"/>
<circle cx="147.336" cy="350.029" r="2.94888" fill="#EAEEF0"/>
<circle cx="147.336" cy="364.926" r="2.94888" fill="#EAEEF0"/>
<circle cx="147.336" cy="379.824" r="2.94888" fill="#EAEEF0"/>
<circle cx="162.233" cy="215.949" r="2.94888" fill="#EAEEF0"/>
<circle cx="162.233" cy="230.847" r="2.94888" fill="#EAEEF0"/>
<circle cx="162.233" cy="245.744" r="2.94888" fill="#EAEEF0"/>
<circle cx="162.233" cy="260.642" r="2.94888" fill="#EAEEF0"/>
<circle cx="162.233" cy="275.54" r="2.94888" fill="#EAEEF0"/>
<circle cx="162.233" cy="290.438" r="2.94888" fill="#EAEEF0"/>
<circle cx="162.233" cy="305.336" r="2.94888" fill="#EAEEF0"/>
<circle cx="162.233" cy="320.233" r="2.94888" fill="#EAEEF0"/>
<circle cx="162.233" cy="335.131" r="2.94888" fill="#EAEEF0"/>
<circle cx="162.233" cy="350.029" r="2.94888" fill="#EAEEF0"/>
<circle cx="162.233" cy="364.926" r="2.94888" fill="#EAEEF0"/>
<circle cx="162.233" cy="379.824" r="2.94888" fill="#EAEEF0"/>
<circle cx="177.131" cy="215.949" r="2.94888" fill="#EAEEF0"/>
<circle cx="177.131" cy="230.847" r="2.94888" fill="#EAEEF0"/>
<circle cx="177.131" cy="245.744" r="2.94888" fill="#EAEEF0"/>
<circle cx="177.131" cy="260.642" r="2.94888" fill="#EAEEF0"/>
<circle cx="177.131" cy="275.54" r="2.94888" fill="#EAEEF0"/>
<circle cx="177.131" cy="290.438" r="2.94888" fill="#EAEEF0"/>
<circle cx="177.131" cy="305.336" r="2.94888" fill="#EAEEF0"/>
<circle cx="177.131" cy="320.233" r="2.94888" fill="#EAEEF0"/>
<circle cx="177.131" cy="335.131" r="2.94888" fill="#EAEEF0"/>
<circle cx="177.131" cy="350.029" r="2.94888" fill="#EAEEF0"/>
<circle cx="177.131" cy="364.926" r="2.94888" fill="#EAEEF0"/>
<circle cx="177.131" cy="379.824" r="2.94888" fill="#EAEEF0"/>
<circle cx="192.029" cy="215.949" r="2.94888" fill="#EAEEF0"/>
<circle cx="192.029" cy="230.847" r="2.94888" fill="#EAEEF0"/>
<circle cx="192.029" cy="245.744" r="2.94888" fill="#EAEEF0"/>
<circle cx="192.029" cy="260.642" r="2.94888" fill="#EAEEF0"/>
<circle cx="192.029" cy="275.54" r="2.94888" fill="#EAEEF0"/>
<circle cx="192.029" cy="290.438" r="2.94888" fill="#EAEEF0"/>
<circle cx="192.029" cy="305.336" r="2.94888" fill="#EAEEF0"/>
<circle cx="192.029" cy="320.233" r="2.94888" fill="#EAEEF0"/>
<circle cx="192.029" cy="335.131" r="2.94888" fill="#EAEEF0"/>
<circle cx="192.029" cy="350.029" r="2.94888" fill="#EAEEF0"/>
<circle cx="192.029" cy="364.926" r="2.94888" fill="#EAEEF0"/>
<circle cx="192.029" cy="379.824" r="2.94888" fill="#EAEEF0"/>
<circle cx="206.926" cy="215.949" r="2.94888" fill="#EAEEF0"/>
<circle cx="206.926" cy="230.847" r="2.94888" fill="#EAEEF0"/>
<circle cx="206.926" cy="245.744" r="2.94888" fill="#EAEEF0"/>
<circle cx="206.926" cy="260.642" r="2.94888" fill="#EAEEF0"/>
<circle cx="206.926" cy="275.54" r="2.94888" fill="#EAEEF0"/>
<circle cx="206.926" cy="290.438" r="2.94888" fill="#EAEEF0"/>
<circle cx="206.926" cy="305.336" r="2.94888" fill="#EAEEF0"/>
<circle cx="206.926" cy="320.233" r="2.94888" fill="#EAEEF0"/>
<circle cx="206.926" cy="335.131" r="2.94888" fill="#EAEEF0"/>
<circle cx="206.926" cy="350.029" r="2.94888" fill="#EAEEF0"/>
<circle cx="206.926" cy="364.926" r="2.94888" fill="#EAEEF0"/>
<circle cx="206.926" cy="379.824" r="2.94888" fill="#EAEEF0"/>
<circle cx="221.824" cy="215.949" r="2.94888" fill="#EAEEF0"/>
<circle cx="221.824" cy="230.847" r="2.94888" fill="#EAEEF0"/>
<circle cx="221.824" cy="245.744" r="2.94888" fill="#EAEEF0"/>
<circle cx="221.824" cy="260.642" r="2.94888" fill="#EAEEF0"/>
<circle cx="221.824" cy="275.54" r="2.94888" fill="#EAEEF0"/>
<circle cx="221.824" cy="290.438" r="2.94888" fill="#EAEEF0"/>
<circle cx="221.824" cy="305.336" r="2.94888" fill="#EAEEF0"/>
<circle cx="221.824" cy="320.233" r="2.94888" fill="#EAEEF0"/>
<circle cx="221.824" cy="335.131" r="2.94888" fill="#EAEEF0"/>
<circle cx="221.824" cy="350.029" r="2.94888" fill="#EAEEF0"/>
<circle cx="221.824" cy="364.926" r="2.94888" fill="#EAEEF0"/>
<circle cx="221.824" cy="379.824" r="2.94888" fill="#EAEEF0"/>
<path d="M85.515 94.168C84.283 94.168 82.939 93.51 82.295 92.572L83.667 91.228C83.975 91.858 84.661 92.292 85.305 92.292C86.145 92.292 86.761 91.634 86.761 90.696V84.382H88.833V90.864C88.833 92.796 87.461 94.168 85.515 94.168ZM94.2079 94.168C92.0519 94.168 90.2459 92.432 90.2459 90.374C90.2459 88.316 92.0519 86.594 94.2079 86.594C96.3499 86.594 98.1419 88.316 98.1419 90.374C98.1419 92.432 96.3499 94.168 94.2079 94.168ZM94.2079 92.446C95.2859 92.446 96.1959 91.494 96.1959 90.374C96.1959 89.254 95.2859 88.316 94.2079 88.316C93.1159 88.316 92.2059 89.254 92.2059 90.374C92.2059 91.494 93.1159 92.446 94.2079 92.446ZM103.991 86.594C105.923 86.594 107.323 88.162 107.323 90.374C107.323 92.6 105.923 94.168 103.991 94.168C102.983 94.168 102.143 93.734 101.569 92.978V94H99.5249V84.214H101.569V87.77C102.143 87.028 102.983 86.594 103.991 86.594ZM103.403 92.446C104.537 92.446 105.335 91.592 105.335 90.374C105.335 89.17 104.537 88.316 103.403 88.316C102.409 88.316 101.681 89.044 101.569 90.094V90.654C101.681 91.718 102.409 92.446 103.403 92.446ZM117.143 86.594C119.075 86.594 120.475 88.162 120.475 90.374C120.475 92.6 119.075 94.168 117.143 94.168C116.135 94.168 115.295 93.734 114.721 92.978V96.408H112.677V86.762H114.721V87.77C115.295 87.028 116.135 86.594 117.143 86.594ZM116.555 92.446C117.689 92.446 118.487 91.592 118.487 90.374C118.487 89.17 117.689 88.316 116.555 88.316C115.561 88.316 114.833 89.044 114.721 90.094V90.654C114.833 91.718 115.561 92.446 116.555 92.446ZM125.153 86.594C127.043 86.594 128.331 87.784 128.331 89.674V94H126.357V93.272C125.839 93.86 125.013 94.168 124.229 94.168C122.689 94.168 121.499 93.244 121.499 91.858C121.499 90.43 122.829 89.45 124.509 89.45C125.097 89.45 125.741 89.576 126.357 89.814V89.674C126.357 88.904 125.881 88.232 124.691 88.232C124.019 88.232 123.389 88.456 122.815 88.75L122.129 87.392C123.151 86.874 124.145 86.594 125.153 86.594ZM124.691 92.754C125.475 92.754 126.217 92.39 126.357 91.718V91.046C125.895 90.878 125.363 90.78 124.803 90.78C124.061 90.78 123.473 91.214 123.473 91.802C123.473 92.39 123.991 92.754 124.691 92.754ZM132.098 88.106C132.574 87.168 133.47 86.594 134.576 86.594V88.316C133.064 88.316 132.098 89.184 132.098 90.542V94H130.054V86.762H132.098V88.106ZM138.989 86.594C140.879 86.594 142.167 87.784 142.167 89.674V94H140.193V93.272C139.675 93.86 138.849 94.168 138.065 94.168C136.525 94.168 135.335 93.244 135.335 91.858C135.335 90.43 136.665 89.45 138.345 89.45C138.933 89.45 139.577 89.576 140.193 89.814V89.674C140.193 88.904 139.717 88.232 138.527 88.232C137.855 88.232 137.225 88.456 136.651 88.75L135.965 87.392C136.987 86.874 137.981 86.594 138.989 86.594ZM138.527 92.754C139.311 92.754 140.053 92.39 140.193 91.718V91.046C139.731 90.878 139.199 90.78 138.639 90.78C137.897 90.78 137.309 91.214 137.309 91.802C137.309 92.39 137.827 92.754 138.527 92.754ZM152.5 86.594C154.012 86.594 155.174 87.756 155.174 89.394V94.014H153.214V89.744C153.214 88.904 152.682 88.316 151.926 88.316C151.114 88.316 150.526 88.862 150.526 89.632V94.014H148.566V89.744C148.566 88.904 148.034 88.316 147.292 88.316C146.466 88.316 145.892 88.862 145.892 89.632V94H143.848V86.762H145.892V87.714C146.242 87.028 146.956 86.594 147.852 86.594C148.846 86.594 149.7 87.098 150.148 87.91C150.526 87.112 151.422 86.594 152.5 86.594ZM160.308 92.362C160.882 92.362 161.582 92.096 161.974 91.718L163.276 93.048C162.632 93.72 161.386 94.168 160.322 94.168C158.166 94.168 156.486 92.586 156.486 90.36C156.486 88.176 158.096 86.594 160.21 86.594C162.478 86.594 163.808 88.316 163.808 91.046H158.586C158.824 91.83 159.454 92.362 160.308 92.362ZM160.294 88.4C159.524 88.4 158.88 88.848 158.614 89.576H161.848C161.652 88.862 161.12 88.4 160.294 88.4ZM168.999 92.208L169.489 93.538C169.069 93.916 168.411 94.168 167.823 94.168C166.549 94.168 165.653 93.258 165.653 91.956V88.414H164.659V86.762H165.653V84.774H167.613V86.762H169.181V88.414H167.613V91.634C167.613 92.11 167.921 92.446 168.299 92.446C168.579 92.446 168.859 92.348 168.999 92.208ZM174.185 92.362C174.759 92.362 175.459 92.096 175.851 91.718L177.153 93.048C176.509 93.72 175.263 94.168 174.199 94.168C172.043 94.168 170.363 92.586 170.363 90.36C170.363 88.176 171.973 86.594 174.087 86.594C176.355 86.594 177.685 88.316 177.685 91.046H172.463C172.701 91.83 173.331 92.362 174.185 92.362ZM174.171 88.4C173.401 88.4 172.757 88.848 172.491 89.576H175.725C175.529 88.862 174.997 88.4 174.171 88.4ZM181.112 88.106C181.588 87.168 182.484 86.594 183.59 86.594V88.316C182.078 88.316 181.112 89.184 181.112 90.542V94H179.068V86.762H181.112V88.106Z" fill="#161B1D"/>
<path d="M327.686 372.168C326.454 372.168 325.11 371.51 324.466 370.572L325.838 369.228C326.146 369.858 326.832 370.292 327.476 370.292C328.316 370.292 328.932 369.634 328.932 368.696V362.382H331.004V368.864C331.004 370.796 329.632 372.168 327.686 372.168ZM336.379 372.168C334.223 372.168 332.417 370.432 332.417 368.374C332.417 366.316 334.223 364.594 336.379 364.594C338.521 364.594 340.313 366.316 340.313 368.374C340.313 370.432 338.521 372.168 336.379 372.168ZM336.379 370.446C337.457 370.446 338.367 369.494 338.367 368.374C338.367 367.254 337.457 366.316 336.379 366.316C335.287 366.316 334.377 367.254 334.377 368.374C334.377 369.494 335.287 370.446 336.379 370.446ZM346.162 364.594C348.094 364.594 349.494 366.162 349.494 368.374C349.494 370.6 348.094 372.168 346.162 372.168C345.154 372.168 344.314 371.734 343.74 370.978V372H341.696V362.214H343.74V365.77C344.314 365.028 345.154 364.594 346.162 364.594ZM345.574 370.446C346.708 370.446 347.506 369.592 347.506 368.374C347.506 367.17 346.708 366.316 345.574 366.316C344.58 366.316 343.852 367.044 343.74 368.094V368.654C343.852 369.718 344.58 370.446 345.574 370.446ZM355.87 363.768C355.24 363.768 354.75 363.264 354.75 362.648C354.75 362.074 355.24 361.556 355.87 361.556C356.472 361.556 356.962 362.074 356.962 362.648C356.962 363.264 356.472 363.768 355.87 363.768ZM354.834 372V364.762H356.878V372H354.834ZM362.849 364.594C364.417 364.594 365.537 365.756 365.537 367.394V372H363.563V367.828C363.563 366.932 363.003 366.316 362.191 366.316C361.337 366.316 360.679 366.932 360.679 367.716L360.665 367.674V372H358.621V364.762H360.665V365.672C361.099 365.014 361.911 364.594 362.849 364.594ZM369.978 372.168C368.816 372.168 367.584 371.776 366.716 371.076L367.598 369.662C368.242 370.124 369.054 370.474 370.02 370.474C370.566 370.474 370.958 370.25 370.958 369.928C370.958 369.48 370.426 369.34 369.684 369.144C368.2 368.78 367.052 368.374 367.038 366.946C367.024 365.574 368.158 364.594 369.866 364.594C370.902 364.594 371.924 364.958 372.722 365.49L371.896 366.946C371.238 366.54 370.482 366.302 369.866 366.302C369.362 366.302 369.012 366.484 369.012 366.736C369.012 367.128 369.306 367.24 370.286 367.506C371.532 367.828 372.918 368.248 372.918 369.83C372.918 371.258 371.756 372.168 369.978 372.168ZM378.098 370.208L378.588 371.538C378.168 371.916 377.51 372.168 376.922 372.168C375.648 372.168 374.752 371.258 374.752 369.956V366.414H373.758V364.762H374.752V362.774H376.712V364.762H378.28V366.414H376.712V369.634C376.712 370.11 377.02 370.446 377.398 370.446C377.678 370.446 377.958 370.348 378.098 370.208ZM383.102 364.594C384.992 364.594 386.28 365.784 386.28 367.674V372H384.306V371.272C383.788 371.86 382.962 372.168 382.178 372.168C380.638 372.168 379.448 371.244 379.448 369.858C379.448 368.43 380.778 367.45 382.458 367.45C383.046 367.45 383.69 367.576 384.306 367.814V367.674C384.306 366.904 383.83 366.232 382.64 366.232C381.968 366.232 381.338 366.456 380.764 366.75L380.078 365.392C381.1 364.874 382.094 364.594 383.102 364.594ZM382.64 370.754C383.424 370.754 384.166 370.39 384.306 369.718V369.046C383.844 368.878 383.312 368.78 382.752 368.78C382.01 368.78 381.422 369.214 381.422 369.802C381.422 370.39 381.94 370.754 382.64 370.754ZM392.188 364.594C393.756 364.594 394.876 365.756 394.876 367.394V372H392.902V367.828C392.902 366.932 392.342 366.316 391.53 366.316C390.676 366.316 390.018 366.932 390.018 367.716L390.004 367.674V372H387.96V364.762H390.004V365.672C390.438 365.014 391.25 364.594 392.188 364.594ZM400.144 372.168C398.002 372.168 396.196 370.432 396.196 368.374C396.196 366.316 398.016 364.594 400.158 364.594C401.334 364.594 402.3 365.07 403 365.826L401.642 366.988C401.278 366.582 400.704 366.316 400.144 366.316C399.08 366.316 398.184 367.254 398.184 368.36C398.184 369.494 399.08 370.446 400.158 370.446C400.718 370.446 401.306 370.166 401.684 369.746L403.042 370.894C402.328 371.678 401.348 372.168 400.144 372.168ZM407.688 370.362C408.262 370.362 408.962 370.096 409.354 369.718L410.656 371.048C410.012 371.72 408.766 372.168 407.702 372.168C405.546 372.168 403.866 370.586 403.866 368.36C403.866 366.176 405.476 364.594 407.59 364.594C409.858 364.594 411.188 366.316 411.188 369.046H405.966C406.204 369.83 406.834 370.362 407.688 370.362ZM407.674 366.4C406.904 366.4 406.26 366.848 405.994 367.576H409.228C409.032 366.862 408.5 366.4 407.674 366.4ZM415.287 372.168C414.125 372.168 412.893 371.776 412.025 371.076L412.907 369.662C413.551 370.124 414.363 370.474 415.329 370.474C415.875 370.474 416.267 370.25 416.267 369.928C416.267 369.48 415.735 369.34 414.993 369.144C413.509 368.78 412.361 368.374 412.347 366.946C412.333 365.574 413.467 364.594 415.175 364.594C416.211 364.594 417.233 364.958 418.031 365.49L417.205 366.946C416.547 366.54 415.791 366.302 415.175 366.302C414.671 366.302 414.321 366.484 414.321 366.736C414.321 367.128 414.615 367.24 415.595 367.506C416.841 367.828 418.227 368.248 418.227 369.83C418.227 371.258 417.065 372.168 415.287 372.168Z" fill="#161B1D"/>
<path d="M552.516 67.168C551.284 67.168 549.94 66.51 549.296 65.572L550.668 64.228C550.976 64.858 551.662 65.292 552.306 65.292C553.146 65.292 553.762 64.634 553.762 63.696V57.382H555.834V63.864C555.834 65.796 554.462 67.168 552.516 67.168ZM561.209 67.168C559.053 67.168 557.247 65.432 557.247 63.374C557.247 61.316 559.053 59.594 561.209 59.594C563.351 59.594 565.143 61.316 565.143 63.374C565.143 65.432 563.351 67.168 561.209 67.168ZM561.209 65.446C562.287 65.446 563.197 64.494 563.197 63.374C563.197 62.254 562.287 61.316 561.209 61.316C560.117 61.316 559.207 62.254 559.207 63.374C559.207 64.494 560.117 65.446 561.209 65.446ZM570.992 59.594C572.924 59.594 574.324 61.162 574.324 63.374C574.324 65.6 572.924 67.168 570.992 67.168C569.984 67.168 569.144 66.734 568.57 65.978V67H566.526V57.214H568.57V60.77C569.144 60.028 569.984 59.594 570.992 59.594ZM570.404 65.446C571.538 65.446 572.336 64.592 572.336 63.374C572.336 62.17 571.538 61.316 570.404 61.316C569.41 61.316 568.682 62.044 568.57 63.094V63.654C568.682 64.718 569.41 65.446 570.404 65.446Z" fill="#161B1D"/>
<path d="M543 63.5C543.276 63.5 543.5 63.2761 543.5 63C543.5 62.7239 543.276 62.5 543 62.5V63.5ZM445.646 62.6464C445.451 62.8417 445.451 63.1583 445.646 63.3536L448.828 66.5355C449.024 66.7308 449.34 66.7308 449.536 66.5355C449.731 66.3403 449.731 66.0237 449.536 65.8284L446.707 63L449.536 60.1716C449.731 59.9763 449.731 59.6597 449.536 59.4645C449.34 59.2692 449.024 59.2692 448.828 59.4645L445.646 62.6464ZM543 62.5H541.484V63.5H543V62.5ZM538.453 62.5H535.422V63.5H538.453V62.5ZM532.391 62.5H529.359V63.5H532.391V62.5ZM526.328 62.5H523.297V63.5H526.328V62.5ZM520.266 62.5H517.234V63.5H520.266V62.5ZM514.203 62.5L511.172 62.5V63.5L514.203 63.5V62.5ZM508.141 62.5H505.109V63.5H508.141V62.5ZM502.078 62.5H499.047V63.5H502.078V62.5ZM496.016 62.5H492.984V63.5H496.016V62.5ZM489.953 62.5H486.922V63.5H489.953V62.5ZM483.891 62.5H480.859V63.5H483.891V62.5ZM477.828 62.5H474.797V63.5H477.828V62.5ZM471.766 62.5H468.734V63.5H471.766V62.5ZM465.703 62.5H462.672V63.5H465.703V62.5ZM459.641 62.5H456.609V63.5H459.641V62.5ZM453.578 62.5H450.547V63.5H453.578V62.5ZM447.516 62.5H446V63.5H447.516V62.5ZM543 64C543.552 64 544 63.5523 544 63C544 62.4477 543.552 62 543 62V64ZM445.293 62.2929C444.902 62.6834 444.902 63.3166 445.293 63.7071L451.657 70.0711C452.047 70.4616 452.681 70.4616 453.071 70.0711C453.462 69.6805 453.462 69.0474 453.071 68.6569L447.414 63L453.071 57.3431C453.462 56.9526 453.462 56.3195 453.071 55.9289C452.681 55.5384 452.047 55.5384 451.657 55.9289L445.293 62.2929ZM543 62H541.484V64H543V62ZM538.453 62H535.422V64H538.453V62ZM532.391 62H529.359V64H532.391V62ZM526.328 62H523.297V64H526.328V62ZM520.266 62H517.234V64H520.266V62ZM514.203 62L511.172 62V64H514.203V62ZM508.141 62H505.109V64H508.141V62ZM502.078 62H499.047V64H502.078V62ZM496.016 62H492.984V64H496.016V62ZM489.953 62H486.922V64H489.953V62ZM483.891 62H480.859V64H483.891V62ZM477.828 62H474.797V64H477.828V62ZM471.766 62H468.734V64H471.766V62ZM465.703 62H462.672V64H465.703V62ZM459.641 62H456.609V64H459.641V62ZM453.578 62H450.547V64H453.578V62ZM447.516 62H446V64H447.516V62Z" fill="#161B1D"/>
<path d="M190 89.5C189.724 89.5 189.5 89.7239 189.5 90C189.5 90.2761 189.724 90.5 190 90.5V89.5ZM236.646 151.354C236.842 151.549 237.158 151.549 237.354 151.354L240.536 148.172C240.731 147.976 240.731 147.66 240.536 147.464C240.34 147.269 240.024 147.269 239.828 147.464L237 150.293L234.172 147.464C233.976 147.269 233.66 147.269 233.464 147.464C233.269 147.66 233.269 147.976 233.464 148.172L236.646 151.354ZM190 90.5H191.464V89.5H190V90.5ZM194.393 90.5H197.321V89.5H194.393V90.5ZM200.25 90.5H203.179V89.5H200.25V90.5ZM206.107 90.5H209.036V89.5H206.107V90.5ZM211.964 90.5H214.893V89.5H211.964V90.5ZM217.821 90.5H220.75V89.5H217.821V90.5ZM223.679 90.5H226.607V89.5H223.679V90.5ZM229.536 90.5H231V89.5H229.536V90.5ZM231 90.5C231.368 90.5 231.727 90.5361 232.074 90.6047L232.268 89.6237C231.857 89.5425 231.433 89.5 231 89.5V90.5ZM234.056 91.4261C234.656 91.8278 235.172 92.3445 235.574 92.9445L236.405 92.3881C235.93 91.6795 235.32 91.0695 234.612 90.5951L234.056 91.4261ZM236.395 94.9261C236.464 95.273 236.5 95.632 236.5 96H237.5C237.5 95.5665 237.458 95.1425 237.376 94.732L236.395 94.9261ZM236.5 96V97.5278H237.5V96H236.5ZM236.5 100.583V103.639H237.5V100.583H236.5ZM236.5 106.694V109.75H237.5V106.694H236.5ZM236.5 112.806V115.861H237.5V112.806H236.5ZM236.5 118.917V121.972H237.5V118.917H236.5ZM236.5 125.028V128.083H237.5V125.028H236.5ZM236.5 131.139V134.194H237.5V131.139H236.5ZM236.5 137.25V140.306H237.5V137.25H236.5ZM236.5 143.361V146.417H237.5V143.361H236.5ZM236.5 149.472V151H237.5V149.472H236.5ZM190 89C189.448 89 189 89.4477 189 90C189 90.5523 189.448 91 190 91V89ZM236.293 151.707C236.683 152.098 237.317 152.098 237.707 151.707L244.071 145.343C244.462 144.953 244.462 144.319 244.071 143.929C243.681 143.538 243.047 143.538 242.657 143.929L237 149.586L231.343 143.929C230.953 143.538 230.319 143.538 229.929 143.929C229.538 144.319 229.538 144.953 229.929 145.343L236.293 151.707ZM190 91H191.464V89H190V91ZM194.393 91H197.321V89H194.393V91ZM200.25 91H203.179V89H200.25V91ZM206.107 91H209.036V89H206.107V91ZM211.964 91H214.893V89H211.964V91ZM217.821 91H220.75V89H217.821V91ZM223.679 91H226.607V89H223.679V91ZM229.536 91H231V89H229.536V91ZM231 91C231.335 91 231.662 91.0328 231.977 91.0952L232.365 89.1332C231.923 89.0457 231.466 89 231 89V91ZM233.777 91.8416C234.323 92.2069 234.793 92.6769 235.158 93.2226L236.82 92.11C236.31 91.3471 235.653 90.6904 234.89 90.1796L233.777 91.8416ZM235.905 95.0231C235.967 95.3382 236 95.6648 236 96H238C238 95.5338 237.954 95.0773 237.867 94.635L235.905 95.0231ZM236 96V97.5278H238V96H236ZM236 100.583V103.639H238V100.583H236ZM236 106.694V109.75H238V106.694H236ZM236 112.806V115.861H238V112.806H236ZM236 118.917V121.972H238V118.917H236ZM236 125.028V128.083H238V125.028H236ZM236 131.139V134.194H238V131.139H236ZM236 137.25V140.306H238V137.25H236ZM236 143.361V146.417H238V143.361H236ZM236 149.472V151H238V149.472H236Z" fill="#161B1D"/>
<path d="M318 368.5C318.276 368.5 318.5 368.276 318.5 368C318.5 367.724 318.276 367.5 318 367.5L318 368.5ZM274.354 301.646C274.158 301.451 273.842 301.451 273.646 301.646L270.464 304.828C270.269 305.024 270.269 305.34 270.464 305.536C270.66 305.731 270.976 305.731 271.172 305.536L274 302.707L276.828 305.536C277.024 305.731 277.34 305.731 277.536 305.536C277.731 305.34 277.731 305.024 277.536 304.828L274.354 301.646ZM318 367.5L316.417 367.5L316.417 368.5L318 368.5L318 367.5ZM313.25 367.5L310.083 367.5L310.083 368.5L313.25 368.5L313.25 367.5ZM306.917 367.5L303.75 367.5L303.75 368.5L306.917 368.5L306.917 367.5ZM300.583 367.5L297.417 367.5L297.417 368.5L300.583 368.5L300.583 367.5ZM294.25 367.5L291.083 367.5L291.083 368.5L294.25 368.5L294.25 367.5ZM287.917 367.5L284.75 367.5L284.75 368.5L287.917 368.5L287.917 367.5ZM281.583 367.5L280 367.5L280 368.5L281.583 368.5L281.583 367.5ZM280 367.5C279.632 367.5 279.273 367.464 278.926 367.395L278.732 368.376C279.143 368.458 279.567 368.5 280 368.5L280 367.5ZM276.944 366.574C276.344 366.172 275.828 365.656 275.426 365.056L274.595 365.612C275.07 366.32 275.68 366.93 276.388 367.405L276.944 366.574ZM274.605 363.074C274.536 362.727 274.5 362.368 274.5 362L273.5 362C273.5 362.433 273.543 362.858 273.624 363.268L274.605 363.074ZM274.5 362L274.5 360.5L273.5 360.5L273.5 362L274.5 362ZM274.5 357.5L274.5 354.5L273.5 354.5L273.5 357.5L274.5 357.5ZM274.5 351.5L274.5 348.5L273.5 348.5L273.5 351.5L274.5 351.5ZM274.5 345.5L274.5 342.5L273.5 342.5L273.5 345.5L274.5 345.5ZM274.5 339.5L274.5 336.5L273.5 336.5L273.5 339.5L274.5 339.5ZM274.5 333.5L274.5 330.5L273.5 330.5L273.5 333.5L274.5 333.5ZM274.5 327.5L274.5 324.5L273.5 324.5L273.5 327.5L274.5 327.5ZM274.5 321.5L274.5 318.5L273.5 318.5L273.5 321.5L274.5 321.5ZM274.5 315.5L274.5 312.5L273.5 312.5L273.5 315.5L274.5 315.5ZM274.5 309.5L274.5 306.5L273.5 306.5L273.5 309.5L274.5 309.5ZM274.5 303.5L274.5 302L273.5 302L273.5 303.5L274.5 303.5ZM318 369C318.552 369 319 368.552 319 368C319 367.448 318.552 367 318 367L318 369ZM274.707 301.293C274.317 300.902 273.683 300.902 273.293 301.293L266.929 307.657C266.538 308.047 266.538 308.681 266.929 309.071C267.319 309.462 267.953 309.462 268.343 309.071L274 303.414L279.657 309.071C280.047 309.462 280.681 309.462 281.071 309.071C281.462 308.681 281.462 308.047 281.071 307.657L274.707 301.293ZM318 367L316.417 367L316.417 369L318 369L318 367ZM313.25 367L310.083 367L310.083 369L313.25 369L313.25 367ZM306.917 367L303.75 367L303.75 369L306.917 369L306.917 367ZM300.583 367L297.417 367L297.417 369L300.583 369L300.583 367ZM294.25 367L291.083 367L291.083 369L294.25 369L294.25 367ZM287.917 367L284.75 367L284.75 369L287.917 369L287.917 367ZM281.583 367L280 367L280 369L281.583 369L281.583 367ZM280 367C279.665 367 279.338 366.967 279.023 366.905L278.635 368.867C279.077 368.954 279.534 369 280 369L280 367ZM277.223 366.158C276.677 365.793 276.207 365.323 275.842 364.777L274.18 365.89C274.69 366.653 275.347 367.31 276.11 367.82L277.223 366.158ZM275.095 362.977C275.033 362.662 275 362.335 275 362L273 362C273 362.466 273.046 362.923 273.133 363.365L275.095 362.977ZM275 362L275 360.5L273 360.5L273 362L275 362ZM275 357.5L275 354.5L273 354.5L273 357.5L275 357.5ZM275 351.5L275 348.5L273 348.5L273 351.5L275 351.5ZM275 345.5L275 342.5L273 342.5L273 345.5L275 345.5ZM275 339.5L275 336.5L273 336.5L273 339.5L275 339.5ZM275 333.5L275 330.5L273 330.5L273 333.5L275 333.5ZM275 327.5L275 324.5L273 324.5L273 327.5L275 327.5ZM275 321.5L275 318.5L273 318.5L273 321.5L275 321.5ZM275 315.5L275 312.5L273 312.5L273 315.5L275 315.5ZM275 309.5L275 306.5L273 306.5L273 309.5L275 309.5ZM275 303.5L275 302L273 302L273 303.5L275 303.5Z" fill="#161B1D"/>
<path d="M426 368.5C425.724 368.5 425.5 368.276 425.5 368C425.5 367.724 425.724 367.5 426 367.5L426 368.5ZM467.646 301.646C467.842 301.451 468.158 301.451 468.354 301.646L471.536 304.828C471.731 305.024 471.731 305.34 471.536 305.536C471.34 305.731 471.024 305.731 470.828 305.536L468 302.707L465.172 305.536C464.976 305.731 464.66 305.731 464.464 305.536C464.269 305.34 464.269 305.024 464.464 304.828L467.646 301.646ZM426 367.5L427.5 367.5L427.5 368.5L426 368.5L426 367.5ZM430.5 367.5L433.5 367.5L433.5 368.5L430.5 368.5L430.5 367.5ZM436.5 367.5L439.5 367.5L439.5 368.5L436.5 368.5L436.5 367.5ZM442.5 367.5L445.5 367.5L445.5 368.5L442.5 368.5L442.5 367.5ZM448.5 367.5L451.5 367.5L451.5 368.5L448.5 368.5L448.5 367.5ZM454.5 367.5L457.5 367.5L457.5 368.5L454.5 368.5L454.5 367.5ZM460.5 367.5L462 367.5L462 368.5L460.5 368.5L460.5 367.5ZM462 367.5C462.368 367.5 462.727 367.464 463.074 367.395L463.268 368.376C462.857 368.458 462.433 368.5 462 368.5L462 367.5ZM465.056 366.574C465.656 366.172 466.172 365.656 466.574 365.056L467.405 365.612C466.93 366.32 466.32 366.93 465.612 367.405L465.056 366.574ZM467.395 363.074C467.464 362.727 467.5 362.368 467.5 362L468.5 362C468.5 362.433 468.457 362.858 468.376 363.268L467.395 363.074ZM467.5 362L467.5 360.5L468.5 360.5L468.5 362L467.5 362ZM467.5 357.5L467.5 354.5L468.5 354.5L468.5 357.5L467.5 357.5ZM467.5 351.5L467.5 348.5L468.5 348.5L468.5 351.5L467.5 351.5ZM467.5 345.5L467.5 342.5L468.5 342.5L468.5 345.5L467.5 345.5ZM467.5 339.5L467.5 336.5L468.5 336.5L468.5 339.5L467.5 339.5ZM467.5 333.5L467.5 330.5L468.5 330.5L468.5 333.5L467.5 333.5ZM467.5 327.5L467.5 324.5L468.5 324.5L468.5 327.5L467.5 327.5ZM467.5 321.5L467.5 318.5L468.5 318.5L468.5 321.5L467.5 321.5ZM467.5 315.5L467.5 312.5L468.5 312.5L468.5 315.5L467.5 315.5ZM467.5 309.5L467.5 306.5L468.5 306.5L468.5 309.5L467.5 309.5ZM467.5 303.5L467.5 302L468.5 302L468.5 303.5L467.5 303.5ZM426 369C425.448 369 425 368.552 425 368C425 367.448 425.448 367 426 367L426 369ZM467.293 301.293C467.683 300.902 468.317 300.902 468.707 301.293L475.071 307.657C475.462 308.047 475.462 308.681 475.071 309.071C474.681 309.462 474.047 309.462 473.657 309.071L468 303.414L462.343 309.071C461.953 309.462 461.319 309.462 460.929 309.071C460.538 308.681 460.538 308.047 460.929 307.657L467.293 301.293ZM426 367L427.5 367L427.5 369L426 369L426 367ZM430.5 367L433.5 367L433.5 369L430.5 369L430.5 367ZM436.5 367L439.5 367L439.5 369L436.5 369L436.5 367ZM442.5 367L445.5 367L445.5 369L442.5 369L442.5 367ZM448.5 367L451.5 367L451.5 369L448.5 369L448.5 367ZM454.5 367L457.5 367L457.5 369L454.5 369L454.5 367ZM460.5 367L462 367L462 369L460.5 369L460.5 367ZM462 367C462.335 367 462.662 366.967 462.977 366.905L463.365 368.867C462.923 368.954 462.466 369 462 369L462 367ZM464.777 366.158C465.323 365.793 465.793 365.323 466.158 364.777L467.82 365.89C467.31 366.653 466.653 367.31 465.89 367.82L464.777 366.158ZM466.905 362.977C466.967 362.662 467 362.335 467 362L469 362C469 362.466 468.954 362.923 468.867 363.365L466.905 362.977ZM467 362L467 360.5L469 360.5L469 362L467 362ZM467 357.5L467 354.5L469 354.5L469 357.5L467 357.5ZM467 351.5L467 348.5L469 348.5L469 351.5L467 351.5ZM467 345.5L467 342.5L469 342.5L469 345.5L467 345.5ZM467 339.5L467 336.5L469 336.5L469 339.5L467 339.5ZM467 333.5L467 330.5L469 330.5L469 333.5L467 333.5ZM467 327.5L467 324.5L469 324.5L469 327.5L467 327.5ZM467 321.5L467 318.5L469 318.5L469 321.5L467 321.5ZM467 315.5L467 312.5L469 312.5L469 315.5L467 315.5ZM467 309.5L467 306.5L469 306.5L469 309.5L467 309.5ZM467 303.5L467 302L469 302L469 303.5L467 303.5Z" fill="#161B1D"/>
<rect x="199" y="230" width="149" height="71" rx="7" fill="white"/>
<path d="M228.237 261.168C227.005 261.168 225.661 260.51 225.017 259.572L226.389 258.228C226.697 258.858 227.383 259.292 228.027 259.292C228.867 259.292 229.483 258.634 229.483 257.696V251.382H231.555V257.864C231.555 259.796 230.183 261.168 228.237 261.168ZM236.93 261.168C234.774 261.168 232.968 259.432 232.968 257.374C232.968 255.316 234.774 253.594 236.93 253.594C239.072 253.594 240.864 255.316 240.864 257.374C240.864 259.432 239.072 261.168 236.93 261.168ZM236.93 259.446C238.008 259.446 238.918 258.494 238.918 257.374C238.918 256.254 238.008 255.316 236.93 255.316C235.838 255.316 234.928 256.254 234.928 257.374C234.928 258.494 235.838 259.446 236.93 259.446ZM246.713 253.594C248.645 253.594 250.045 255.162 250.045 257.374C250.045 259.6 248.645 261.168 246.713 261.168C245.705 261.168 244.865 260.734 244.291 259.978V261H242.247V251.214H244.291V254.77C244.865 254.028 245.705 253.594 246.713 253.594ZM246.125 259.446C247.259 259.446 248.057 258.592 248.057 257.374C248.057 256.17 247.259 255.316 246.125 255.316C245.131 255.316 244.403 256.044 244.291 257.094V257.654C244.403 258.718 245.131 259.446 246.125 259.446ZM255.483 261V251.382H257.555V261H255.483ZM263.604 253.594C265.172 253.594 266.292 254.756 266.292 256.394V261H264.318V256.828C264.318 255.932 263.758 255.316 262.946 255.316C262.092 255.316 261.434 255.932 261.434 256.716L261.42 256.674V261H259.376V253.762H261.42V254.672C261.854 254.014 262.666 253.594 263.604 253.594ZM270.734 261.168C269.572 261.168 268.34 260.776 267.472 260.076L268.354 258.662C268.998 259.124 269.81 259.474 270.776 259.474C271.322 259.474 271.714 259.25 271.714 258.928C271.714 258.48 271.182 258.34 270.44 258.144C268.956 257.78 267.808 257.374 267.794 255.946C267.78 254.574 268.914 253.594 270.622 253.594C271.658 253.594 272.68 253.958 273.478 254.49L272.652 255.946C271.994 255.54 271.238 255.302 270.622 255.302C270.118 255.302 269.768 255.484 269.768 255.736C269.768 256.128 270.062 256.24 271.042 256.506C272.288 256.828 273.674 257.248 273.674 258.83C273.674 260.258 272.512 261.168 270.734 261.168ZM278.853 259.208L279.343 260.538C278.923 260.916 278.265 261.168 277.677 261.168C276.403 261.168 275.507 260.258 275.507 258.956V255.414H274.513V253.762H275.507V251.774H277.467V253.762H279.035V255.414H277.467V258.634C277.467 259.11 277.775 259.446 278.153 259.446C278.433 259.446 278.713 259.348 278.853 259.208ZM283.858 253.594C285.748 253.594 287.036 254.784 287.036 256.674V261H285.062V260.272C284.544 260.86 283.718 261.168 282.934 261.168C281.394 261.168 280.204 260.244 280.204 258.858C280.204 257.43 281.534 256.45 283.214 256.45C283.802 256.45 284.446 256.576 285.062 256.814V256.674C285.062 255.904 284.586 255.232 283.396 255.232C282.724 255.232 282.094 255.456 281.52 255.75L280.834 254.392C281.856 253.874 282.85 253.594 283.858 253.594ZM283.396 259.754C284.18 259.754 284.922 259.39 285.062 258.718V258.046C284.6 257.878 284.068 257.78 283.508 257.78C282.766 257.78 282.178 258.214 282.178 258.802C282.178 259.39 282.696 259.754 283.396 259.754ZM292.944 253.594C294.512 253.594 295.632 254.756 295.632 256.394V261H293.658V256.828C293.658 255.932 293.098 255.316 292.286 255.316C291.432 255.316 290.774 255.932 290.774 256.716L290.76 256.674V261H288.716V253.762H290.76V254.672C291.194 254.014 292.006 253.594 292.944 253.594ZM300.9 261.168C298.758 261.168 296.952 259.432 296.952 257.374C296.952 255.316 298.772 253.594 300.914 253.594C302.09 253.594 303.056 254.07 303.756 254.826L302.398 255.988C302.034 255.582 301.46 255.316 300.9 255.316C299.836 255.316 298.94 256.254 298.94 257.36C298.94 258.494 299.836 259.446 300.914 259.446C301.474 259.446 302.062 259.166 302.44 258.746L303.798 259.894C303.084 260.678 302.104 261.168 300.9 261.168ZM308.444 259.362C309.018 259.362 309.718 259.096 310.11 258.718L311.412 260.048C310.768 260.72 309.522 261.168 308.458 261.168C306.302 261.168 304.622 259.586 304.622 257.36C304.622 255.176 306.232 253.594 308.346 253.594C310.614 253.594 311.944 255.316 311.944 258.046H306.722C306.96 258.83 307.59 259.362 308.444 259.362ZM308.43 255.4C307.66 255.4 307.016 255.848 306.75 256.576H309.984C309.788 255.862 309.256 255.4 308.43 255.4ZM319.001 261V253.748L317.363 254.77L316.537 253.314L319.421 251.382H321.073V261H319.001ZM230.316 279.04C228.708 277.696 227.808 275.884 227.808 273.82C227.808 271.744 228.708 269.944 230.316 268.6L230.796 269.104C229.488 270.448 228.768 271.852 228.768 273.82C228.768 275.776 229.488 277.192 230.796 278.524L230.316 279.04ZM233.67 269.944V270.796H235.194V271.6H233.67V277H232.77V271.6H231.798V270.796H232.77V269.944C232.77 269.02 233.394 268.36 234.282 268.36C234.702 268.36 235.11 268.504 235.434 268.756L234.99 269.416C234.858 269.272 234.618 269.164 234.342 269.164C233.982 269.164 233.67 269.488 233.67 269.944ZM239.353 277.144C237.613 277.144 236.137 275.656 236.137 273.892C236.137 272.128 237.613 270.652 239.353 270.652C241.093 270.652 242.557 272.128 242.557 273.892C242.557 275.656 241.093 277.144 239.353 277.144ZM239.353 276.34C240.577 276.34 241.609 275.224 241.609 273.892C241.609 272.572 240.577 271.456 239.353 271.456C238.117 271.456 237.085 272.572 237.085 273.892C237.085 275.224 238.117 276.34 239.353 276.34ZM245.027 272.008C245.399 271.18 246.287 270.652 247.427 270.652V271.456C246.023 271.456 245.027 272.32 245.027 273.532V277H244.127V270.796H245.027V272.008ZM251.828 277V276.22L254.84 273.652C256.004 272.656 256.484 271.864 256.484 271.048C256.484 270.04 255.644 269.452 254.768 269.452C253.808 269.452 253.124 269.968 252.56 270.736L251.9 270.196C252.584 269.224 253.508 268.612 254.804 268.612C256.232 268.612 257.432 269.56 257.432 271.036C257.432 272.152 256.88 273.04 255.488 274.24L253.328 276.112H257.516V277H251.828ZM262.447 277.144C260.431 277.144 259.015 275.38 259.015 272.872C259.015 270.376 260.431 268.612 262.447 268.612C264.451 268.612 265.867 270.376 265.867 272.872C265.867 275.38 264.451 277.144 262.447 277.144ZM262.447 276.28C263.899 276.28 264.919 274.864 264.919 272.872C264.919 270.88 263.899 269.476 262.447 269.476C260.995 269.476 259.963 270.88 259.963 272.872C259.963 274.864 260.995 276.28 262.447 276.28ZM267.168 277V276.22L270.18 273.652C271.344 272.656 271.824 271.864 271.824 271.048C271.824 270.04 270.984 269.452 270.108 269.452C269.148 269.452 268.464 269.968 267.9 270.736L267.24 270.196C267.924 269.224 268.848 268.612 270.144 268.612C271.572 268.612 272.772 269.56 272.772 271.036C272.772 272.152 272.22 273.04 270.828 274.24L268.668 276.112H272.856V277H267.168ZM277.126 277.144C275.77 277.144 274.726 276.52 274.126 275.728L274.774 275.116C275.314 275.812 276.118 276.292 277.126 276.292C278.278 276.292 279.046 275.656 279.046 274.72C279.046 273.748 278.218 273.256 276.922 273.256H276.046V272.392L276.934 272.404C278.038 272.416 278.866 271.888 278.866 270.952C278.866 270.088 278.074 269.464 277.042 269.464C276.13 269.464 275.482 269.92 274.894 270.628L274.27 270.064C274.894 269.236 275.806 268.612 277.09 268.612C278.662 268.612 279.814 269.524 279.814 270.844C279.814 271.9 279.07 272.524 278.218 272.776C279.058 272.968 279.994 273.58 279.994 274.768C279.994 276.148 278.842 277.144 277.126 277.144ZM280.486 277.888L284.698 268.084H285.718L281.506 277.888H280.486ZM289.798 277.144C287.782 277.144 286.366 275.38 286.366 272.872C286.366 270.376 287.782 268.612 289.798 268.612C291.802 268.612 293.218 270.376 293.218 272.872C293.218 275.38 291.802 277.144 289.798 277.144ZM289.798 276.28C291.25 276.28 292.27 274.864 292.27 272.872C292.27 270.88 291.25 269.476 289.798 269.476C288.346 269.476 287.314 270.88 287.314 272.872C287.314 274.864 288.346 276.28 289.798 276.28ZM296.092 277V269.896L294.652 270.832L294.244 270.136L296.272 268.756H297.028V277H296.092ZM297.97 277.888L302.182 268.084H303.202L298.99 277.888H297.97ZM307.283 277.144C305.267 277.144 303.851 275.38 303.851 272.872C303.851 270.376 305.267 268.612 307.283 268.612C309.287 268.612 310.703 270.376 310.703 272.872C310.703 275.38 309.287 277.144 307.283 277.144ZM307.283 276.28C308.735 276.28 309.755 274.864 309.755 272.872C309.755 270.88 308.735 269.476 307.283 269.476C305.831 269.476 304.799 270.88 304.799 272.872C304.799 274.864 305.831 276.28 307.283 276.28ZM313.576 277V269.896L312.136 270.832L311.728 270.136L313.756 268.756H314.512V277H313.576ZM316.678 279.04L316.198 278.524C317.506 277.192 318.226 275.776 318.226 273.82C318.226 271.852 317.506 270.448 316.198 269.104L316.678 268.6C318.286 269.944 319.186 271.744 319.186 273.82C319.186 275.884 318.286 277.696 316.678 279.04Z" fill="#161B1D"/>
<rect x="199" y="230" width="149" height="71" rx="7" stroke="#161B1D" stroke-width="2"/>
<rect x="393" y="230" width="149" height="71" rx="7" fill="white"/>
<path d="M420.863 261.168C419.631 261.168 418.287 260.51 417.643 259.572L419.015 258.228C419.323 258.858 420.009 259.292 420.653 259.292C421.493 259.292 422.109 258.634 422.109 257.696V251.382H424.181V257.864C424.181 259.796 422.809 261.168 420.863 261.168ZM429.556 261.168C427.4 261.168 425.594 259.432 425.594 257.374C425.594 255.316 427.4 253.594 429.556 253.594C431.698 253.594 433.49 255.316 433.49 257.374C433.49 259.432 431.698 261.168 429.556 261.168ZM429.556 259.446C430.634 259.446 431.544 258.494 431.544 257.374C431.544 256.254 430.634 255.316 429.556 255.316C428.464 255.316 427.554 256.254 427.554 257.374C427.554 258.494 428.464 259.446 429.556 259.446ZM439.339 253.594C441.271 253.594 442.671 255.162 442.671 257.374C442.671 259.6 441.271 261.168 439.339 261.168C438.331 261.168 437.491 260.734 436.917 259.978V261H434.873V251.214H436.917V254.77C437.491 254.028 438.331 253.594 439.339 253.594ZM438.751 259.446C439.885 259.446 440.683 258.592 440.683 257.374C440.683 256.17 439.885 255.316 438.751 255.316C437.757 255.316 437.029 256.044 436.917 257.094V257.654C437.029 258.718 437.757 259.446 438.751 259.446ZM448.109 261V251.382H450.181V261H448.109ZM456.23 253.594C457.798 253.594 458.918 254.756 458.918 256.394V261H456.944V256.828C456.944 255.932 456.384 255.316 455.572 255.316C454.718 255.316 454.06 255.932 454.06 256.716L454.046 256.674V261H452.002V253.762H454.046V254.672C454.48 254.014 455.292 253.594 456.23 253.594ZM463.36 261.168C462.198 261.168 460.966 260.776 460.098 260.076L460.98 258.662C461.624 259.124 462.436 259.474 463.402 259.474C463.948 259.474 464.34 259.25 464.34 258.928C464.34 258.48 463.808 258.34 463.066 258.144C461.582 257.78 460.434 257.374 460.42 255.946C460.406 254.574 461.54 253.594 463.248 253.594C464.284 253.594 465.306 253.958 466.104 254.49L465.278 255.946C464.62 255.54 463.864 255.302 463.248 255.302C462.744 255.302 462.394 255.484 462.394 255.736C462.394 256.128 462.688 256.24 463.668 256.506C464.914 256.828 466.3 257.248 466.3 258.83C466.3 260.258 465.138 261.168 463.36 261.168ZM471.479 259.208L471.969 260.538C471.549 260.916 470.891 261.168 470.303 261.168C469.029 261.168 468.133 260.258 468.133 258.956V255.414H467.139V253.762H468.133V251.774H470.093V253.762H471.661V255.414H470.093V258.634C470.093 259.11 470.401 259.446 470.779 259.446C471.059 259.446 471.339 259.348 471.479 259.208ZM476.484 253.594C478.374 253.594 479.662 254.784 479.662 256.674V261H477.688V260.272C477.17 260.86 476.344 261.168 475.56 261.168C474.02 261.168 472.83 260.244 472.83 258.858C472.83 257.43 474.16 256.45 475.84 256.45C476.428 256.45 477.072 256.576 477.688 256.814V256.674C477.688 255.904 477.212 255.232 476.022 255.232C475.35 255.232 474.72 255.456 474.146 255.75L473.46 254.392C474.482 253.874 475.476 253.594 476.484 253.594ZM476.022 259.754C476.806 259.754 477.548 259.39 477.688 258.718V258.046C477.226 257.878 476.694 257.78 476.134 257.78C475.392 257.78 474.804 258.214 474.804 258.802C474.804 259.39 475.322 259.754 476.022 259.754ZM485.57 253.594C487.138 253.594 488.258 254.756 488.258 256.394V261H486.284V256.828C486.284 255.932 485.724 255.316 484.912 255.316C484.058 255.316 483.4 255.932 483.4 256.716L483.386 256.674V261H481.342V253.762H483.386V254.672C483.82 254.014 484.632 253.594 485.57 253.594ZM493.526 261.168C491.384 261.168 489.578 259.432 489.578 257.374C489.578 255.316 491.398 253.594 493.54 253.594C494.716 253.594 495.682 254.07 496.382 254.826L495.024 255.988C494.66 255.582 494.086 255.316 493.526 255.316C492.462 255.316 491.566 256.254 491.566 257.36C491.566 258.494 492.462 259.446 493.54 259.446C494.1 259.446 494.688 259.166 495.066 258.746L496.424 259.894C495.71 260.678 494.73 261.168 493.526 261.168ZM501.07 259.362C501.644 259.362 502.344 259.096 502.736 258.718L504.038 260.048C503.394 260.72 502.148 261.168 501.084 261.168C498.928 261.168 497.248 259.586 497.248 257.36C497.248 255.176 498.858 253.594 500.972 253.594C503.24 253.594 504.57 255.316 504.57 258.046H499.348C499.586 258.83 500.216 259.362 501.07 259.362ZM501.056 255.4C500.286 255.4 499.642 255.848 499.376 256.576H502.61C502.414 255.862 501.882 255.4 501.056 255.4ZM509.583 261V259.32L513.125 256.576C514.273 255.666 514.637 255.036 514.637 254.364C514.637 253.566 513.965 253.09 513.181 253.09C512.243 253.09 511.529 253.566 510.829 254.364L509.513 253.09C510.465 251.886 511.683 251.214 513.237 251.214C515.281 251.214 516.765 252.474 516.765 254.28C516.765 255.568 516.205 256.562 514.525 257.78L512.775 259.138H516.849V261H509.583ZM422.898 279.04C421.29 277.696 420.39 275.884 420.39 273.82C420.39 271.744 421.29 269.944 422.898 268.6L423.378 269.104C422.07 270.448 421.35 271.852 421.35 273.82C421.35 275.776 422.07 277.192 423.378 278.524L422.898 279.04ZM426.252 269.944V270.796H427.776V271.6H426.252V277H425.352V271.6H424.38V270.796H425.352V269.944C425.352 269.02 425.976 268.36 426.864 268.36C427.284 268.36 427.692 268.504 428.016 268.756L427.572 269.416C427.44 269.272 427.2 269.164 426.924 269.164C426.564 269.164 426.252 269.488 426.252 269.944ZM431.935 277.144C430.195 277.144 428.719 275.656 428.719 273.892C428.719 272.128 430.195 270.652 431.935 270.652C433.675 270.652 435.139 272.128 435.139 273.892C435.139 275.656 433.675 277.144 431.935 277.144ZM431.935 276.34C433.159 276.34 434.191 275.224 434.191 273.892C434.191 272.572 433.159 271.456 431.935 271.456C430.699 271.456 429.667 272.572 429.667 273.892C429.667 275.224 430.699 276.34 431.935 276.34ZM437.609 272.008C437.981 271.18 438.869 270.652 440.009 270.652V271.456C438.605 271.456 437.609 272.32 437.609 273.532V277H436.709V270.796H437.609V272.008ZM444.41 277V276.22L447.422 273.652C448.586 272.656 449.066 271.864 449.066 271.048C449.066 270.04 448.226 269.452 447.35 269.452C446.39 269.452 445.706 269.968 445.142 270.736L444.482 270.196C445.166 269.224 446.09 268.612 447.386 268.612C448.814 268.612 450.014 269.56 450.014 271.036C450.014 272.152 449.462 273.04 448.07 274.24L445.91 276.112H450.098V277H444.41ZM455.029 277.144C453.013 277.144 451.597 275.38 451.597 272.872C451.597 270.376 453.013 268.612 455.029 268.612C457.033 268.612 458.449 270.376 458.449 272.872C458.449 275.38 457.033 277.144 455.029 277.144ZM455.029 276.28C456.481 276.28 457.501 274.864 457.501 272.872C457.501 270.88 456.481 269.476 455.029 269.476C453.577 269.476 452.545 270.88 452.545 272.872C452.545 274.864 453.577 276.28 455.029 276.28ZM459.75 277V276.22L462.762 273.652C463.926 272.656 464.406 271.864 464.406 271.048C464.406 270.04 463.566 269.452 462.69 269.452C461.73 269.452 461.046 269.968 460.482 270.736L459.822 270.196C460.506 269.224 461.43 268.612 462.726 268.612C464.154 268.612 465.354 269.56 465.354 271.036C465.354 272.152 464.802 273.04 463.41 274.24L461.25 276.112H465.438V277H459.75ZM469.709 277.144C468.353 277.144 467.309 276.52 466.709 275.728L467.357 275.116C467.897 275.812 468.701 276.292 469.709 276.292C470.861 276.292 471.629 275.656 471.629 274.72C471.629 273.748 470.801 273.256 469.505 273.256H468.629V272.392L469.517 272.404C470.621 272.416 471.449 271.888 471.449 270.952C471.449 270.088 470.657 269.464 469.625 269.464C468.713 269.464 468.065 269.92 467.477 270.628L466.853 270.064C467.477 269.236 468.389 268.612 469.673 268.612C471.245 268.612 472.397 269.524 472.397 270.844C472.397 271.9 471.653 272.524 470.801 272.776C471.641 272.968 472.577 273.58 472.577 274.768C472.577 276.148 471.425 277.144 469.709 277.144ZM473.068 277.888L477.28 268.084H478.3L474.088 277.888H473.068ZM482.38 277.144C480.364 277.144 478.948 275.38 478.948 272.872C478.948 270.376 480.364 268.612 482.38 268.612C484.384 268.612 485.8 270.376 485.8 272.872C485.8 275.38 484.384 277.144 482.38 277.144ZM482.38 276.28C483.832 276.28 484.852 274.864 484.852 272.872C484.852 270.88 483.832 269.476 482.38 269.476C480.928 269.476 479.896 270.88 479.896 272.872C479.896 274.864 480.928 276.28 482.38 276.28ZM488.674 277V269.896L487.234 270.832L486.826 270.136L488.854 268.756H489.61V277H488.674ZM490.552 277.888L494.764 268.084H495.784L491.572 277.888H490.552ZM499.865 277.144C497.849 277.144 496.433 275.38 496.433 272.872C496.433 270.376 497.849 268.612 499.865 268.612C501.869 268.612 503.285 270.376 503.285 272.872C503.285 275.38 501.869 277.144 499.865 277.144ZM499.865 276.28C501.317 276.28 502.337 274.864 502.337 272.872C502.337 270.88 501.317 269.476 499.865 269.476C498.413 269.476 497.381 270.88 497.381 272.872C497.381 274.864 498.413 276.28 499.865 276.28ZM504.586 277V276.22L507.598 273.652C508.762 272.656 509.242 271.864 509.242 271.048C509.242 270.04 508.402 269.452 507.526 269.452C506.566 269.452 505.882 269.968 505.318 270.736L504.658 270.196C505.342 269.224 506.266 268.612 507.562 268.612C508.99 268.612 510.19 269.56 510.19 271.036C510.19 272.152 509.638 273.04 508.246 274.24L506.086 276.112H510.274V277H504.586ZM512.096 279.04L511.616 278.524C512.924 277.192 513.644 275.776 513.644 273.82C513.644 271.852 512.924 270.448 511.616 269.104L512.096 268.6C513.704 269.944 514.604 271.744 514.604 273.82C514.604 275.884 513.704 277.696 512.096 279.04Z" fill="#161B1D"/>
<rect x="393" y="230" width="149" height="71" rx="7" stroke="#161B1D" stroke-width="2"/>
<rect x="296" y="37" width="149" height="52" rx="7" fill="white"/>
<path d="M330.651 59.244H325.317V61.162H330.147V63.024H325.317V65.138H330.651V67H323.245V57.382H330.651V59.244ZM336.344 59.594C337.912 59.594 339.032 60.756 339.032 62.394V67H337.058V62.828C337.058 61.932 336.498 61.316 335.686 61.316C334.832 61.316 334.174 61.932 334.174 62.716L334.16 62.674V67H332.116V59.762H334.16V60.672C334.594 60.014 335.406 59.594 336.344 59.594ZM346.161 57.214H348.205V67H346.161V65.964C345.587 66.72 344.747 67.168 343.725 67.168C341.793 67.168 340.393 65.6 340.393 63.374C340.393 61.162 341.793 59.594 343.725 59.594C344.747 59.594 345.587 60.042 346.161 60.798V57.214ZM344.313 65.446C345.391 65.446 346.161 64.592 346.161 63.374C346.161 62.17 345.391 61.316 344.313 61.316C343.179 61.316 342.381 62.17 342.381 63.374C342.381 64.592 343.179 65.446 344.313 65.446ZM354.788 67.168C352.03 67.168 349.678 64.886 349.678 62.184C349.678 59.482 352.03 57.214 354.788 57.214C357.574 57.214 359.898 59.482 359.898 62.184C359.898 64.886 357.574 67.168 354.788 67.168ZM354.788 65.292C356.412 65.292 357.784 63.864 357.784 62.184C357.784 60.518 356.412 59.09 354.788 59.09C353.178 59.09 351.806 60.518 351.806 62.184C351.806 63.864 353.178 65.292 354.788 65.292ZM363.783 59.37V59.762H365.351V61.414H363.783V67H361.823V61.414H360.829V59.762H361.823V59.132C361.823 57.83 362.719 56.92 363.993 56.92C364.581 56.92 365.239 57.172 365.659 57.55L365.169 58.796C365.029 58.656 364.749 58.558 364.469 58.558C364.091 58.558 363.783 58.894 363.783 59.37ZM366.806 67V57.382H370.25C373.484 57.382 375.78 59.37 375.78 62.184C375.78 64.998 373.484 67 370.25 67H366.806ZM368.864 65.124H370.516C372.35 65.124 373.652 63.906 373.652 62.184C373.652 60.476 372.35 59.258 370.516 59.258H368.864V65.124ZM380.55 59.594C382.44 59.594 383.728 60.784 383.728 62.674V67H381.754V66.272C381.236 66.86 380.41 67.168 379.626 67.168C378.086 67.168 376.896 66.244 376.896 64.858C376.896 63.43 378.226 62.45 379.906 62.45C380.494 62.45 381.138 62.576 381.754 62.814V62.674C381.754 61.904 381.278 61.232 380.088 61.232C379.416 61.232 378.786 61.456 378.212 61.75L377.526 60.392C378.548 59.874 379.542 59.594 380.55 59.594ZM380.088 65.754C380.872 65.754 381.614 65.39 381.754 64.718V64.046C381.292 63.878 380.76 63.78 380.2 63.78C379.458 63.78 378.87 64.214 378.87 64.802C378.87 65.39 379.388 65.754 380.088 65.754ZM387.103 69.52C386.501 69.52 385.773 69.338 385.283 69.072L385.717 67.672C386.067 67.868 386.431 67.994 386.669 67.994C387.061 67.994 387.369 67.868 387.523 67.602L387.775 67.07L384.765 59.762H386.879L388.783 64.844L390.589 59.762H392.675L389.707 67.364C389.161 68.778 388.237 69.52 387.103 69.52ZM396.351 67.168C395.119 67.168 393.775 66.51 393.131 65.572L394.503 64.228C394.811 64.858 395.497 65.292 396.141 65.292C396.981 65.292 397.597 64.634 397.597 63.696V57.382H399.669V63.864C399.669 65.796 398.297 67.168 396.351 67.168ZM405.044 67.168C402.888 67.168 401.082 65.432 401.082 63.374C401.082 61.316 402.888 59.594 405.044 59.594C407.186 59.594 408.978 61.316 408.978 63.374C408.978 65.432 407.186 67.168 405.044 67.168ZM405.044 65.446C406.122 65.446 407.032 64.494 407.032 63.374C407.032 62.254 406.122 61.316 405.044 61.316C403.952 61.316 403.042 62.254 403.042 63.374C403.042 64.494 403.952 65.446 405.044 65.446ZM414.827 59.594C416.759 59.594 418.159 61.162 418.159 63.374C418.159 65.6 416.759 67.168 414.827 67.168C413.819 67.168 412.979 66.734 412.405 65.978V67H410.361V57.214H412.405V60.77C412.979 60.028 413.819 59.594 414.827 59.594ZM414.239 65.446C415.373 65.446 416.171 64.592 416.171 63.374C416.171 62.17 415.373 61.316 414.239 61.316C413.245 61.316 412.517 62.044 412.405 63.094V63.654C412.517 64.718 413.245 65.446 414.239 65.446Z" fill="#161B1D"/>
<rect x="296" y="37" width="149" height="52" rx="7" stroke="#161B1D" stroke-width="2"/>
<path d="M168.079 168.168C167.071 168.168 165.951 167.79 165.083 167.09L165.629 166.32C166.455 166.922 167.281 167.23 168.079 167.23C169.031 167.23 169.675 166.782 169.675 166.096C169.675 165.312 168.835 165.06 167.855 164.78C166.105 164.276 165.433 163.758 165.433 162.722C165.433 161.406 166.525 160.594 167.967 160.594C168.863 160.594 169.787 160.902 170.557 161.406L170.053 162.218C169.325 161.756 168.611 161.532 167.967 161.532C167.155 161.532 166.483 161.896 166.483 162.596C166.483 163.226 167.015 163.422 168.359 163.856C169.521 164.22 170.725 164.612 170.725 165.984C170.725 167.314 169.577 168.168 168.079 168.168ZM175.822 168.168C173.792 168.168 172.07 166.432 172.07 164.374C172.07 162.316 173.792 160.594 175.822 160.594C176.802 160.594 177.712 161 178.398 161.658L177.67 162.372C177.194 161.854 176.536 161.532 175.822 161.532C174.38 161.532 173.176 162.834 173.176 164.374C173.176 165.928 174.38 167.23 175.822 167.23C176.55 167.23 177.222 166.894 177.712 166.348L178.44 167.062C177.754 167.748 176.83 168.168 175.822 168.168ZM183.494 160.594C185.09 160.594 186.21 161.756 186.21 163.394V168H185.16V163.534C185.16 162.358 184.418 161.532 183.354 161.532C182.136 161.532 181.114 162.386 181.114 163.394V168H180.064V158.214H181.114V161.924C181.534 161.154 182.472 160.594 183.494 160.594ZM191.597 167.23C192.451 167.23 193.431 166.852 193.879 166.362L194.523 167.048C193.893 167.734 192.619 168.168 191.611 168.168C189.679 168.168 187.943 166.586 187.943 164.36C187.943 162.204 189.567 160.594 191.513 160.594C193.697 160.594 194.943 162.246 194.943 164.78H189.021C189.175 166.194 190.169 167.23 191.597 167.23ZM191.555 161.532C190.267 161.532 189.231 162.442 189.035 163.842H193.907C193.767 162.54 192.997 161.532 191.555 161.532ZM202.318 158.214H203.368V168H202.318V166.642C201.772 167.594 200.848 168.168 199.686 168.168C197.782 168.168 196.354 166.6 196.354 164.374C196.354 162.162 197.782 160.594 199.686 160.594C200.848 160.594 201.772 161.168 202.318 162.12V158.214ZM199.882 167.23C201.31 167.23 202.318 166.04 202.318 164.374C202.318 162.708 201.31 161.532 199.882 161.532C198.468 161.532 197.46 162.708 197.46 164.374C197.46 166.04 198.468 167.23 199.882 167.23ZM210.685 160.762H211.735V168H210.685V166.838C210.265 167.608 209.327 168.168 208.305 168.168C206.709 168.168 205.589 167.006 205.589 165.368V160.762H206.639V165.228C206.639 166.404 207.381 167.23 208.445 167.23C209.663 167.23 210.685 166.376 210.685 165.368V160.762ZM213.875 168V158.214H214.925V168H213.875ZM220.308 167.23C221.162 167.23 222.142 166.852 222.59 166.362L223.234 167.048C222.604 167.734 221.33 168.168 220.322 168.168C218.39 168.168 216.654 166.586 216.654 164.36C216.654 162.204 218.278 160.594 220.224 160.594C222.408 160.594 223.654 162.246 223.654 164.78H217.732C217.886 166.194 218.88 167.23 220.308 167.23ZM220.266 161.532C218.978 161.532 217.942 162.442 217.746 163.842H222.618C222.478 162.54 221.708 161.532 220.266 161.532ZM226.101 168.168C225.667 168.168 225.331 167.818 225.331 167.398C225.331 167.006 225.667 166.656 226.101 166.656C226.507 166.656 226.843 167.006 226.843 167.398C226.843 167.818 226.507 168.168 226.101 168.168ZM234.57 158.214H235.62V168H234.57V166.642C234.024 167.594 233.1 168.168 231.938 168.168C230.034 168.168 228.606 166.6 228.606 164.374C228.606 162.162 230.034 160.594 231.938 160.594C233.1 160.594 234.024 161.168 234.57 162.12V158.214ZM232.134 167.23C233.562 167.23 234.57 166.04 234.57 164.374C234.57 162.708 233.562 161.532 232.134 161.532C230.72 161.532 229.712 162.708 229.712 164.374C229.712 166.04 230.72 167.23 232.134 167.23ZM240.781 160.594C242.755 160.594 243.721 161.84 243.721 163.59V168H242.671V166.866C242.153 167.72 241.075 168.168 240.123 168.168C238.597 168.168 237.477 167.286 237.477 165.858C237.477 164.416 238.765 163.45 240.319 163.45C241.103 163.45 241.929 163.618 242.671 163.856V163.59C242.671 162.61 242.279 161.49 240.711 161.49C239.983 161.49 239.255 161.812 238.597 162.148L238.177 161.294C239.213 160.776 240.081 160.594 240.781 160.594ZM240.305 167.244C241.257 167.244 242.391 166.754 242.671 165.732V164.626C242.013 164.444 241.271 164.332 240.487 164.332C239.409 164.332 238.499 164.948 238.499 165.816C238.499 166.712 239.283 167.244 240.305 167.244ZM249.045 166.936L249.563 167.706C249.185 168 248.709 168.168 248.219 168.168C247.183 168.168 246.455 167.398 246.455 166.32V161.7H245.321V160.762H246.455V158.774H247.505V160.762H249.283V161.7H247.505V166.32C247.505 166.852 247.869 167.23 248.289 167.23C248.611 167.23 248.891 167.104 249.045 166.936ZM254.31 167.23C255.164 167.23 256.144 166.852 256.592 166.362L257.236 167.048C256.606 167.734 255.332 168.168 254.324 168.168C252.392 168.168 250.656 166.586 250.656 164.36C250.656 162.204 252.28 160.594 254.226 160.594C256.41 160.594 257.656 162.246 257.656 164.78H251.734C251.888 166.194 252.882 167.23 254.31 167.23ZM254.268 161.532C252.98 161.532 251.944 162.442 251.748 163.842H256.62C256.48 162.54 255.71 161.532 254.268 161.532ZM263.309 162.302V161.266H269.735V162.302H263.309ZM263.309 165.382V164.346H269.735V165.382H263.309ZM275.346 168V166.32L278.888 163.576C280.036 162.666 280.4 162.036 280.4 161.364C280.4 160.566 279.728 160.09 278.944 160.09C278.006 160.09 277.292 160.566 276.592 161.364L275.276 160.09C276.228 158.886 277.446 158.214 279 158.214C281.044 158.214 282.528 159.474 282.528 161.28C282.528 162.568 281.968 163.562 280.288 164.78L278.538 166.138H282.612V168H275.346ZM288.231 168.168C285.697 168.168 283.919 166.11 283.919 163.184C283.919 160.272 285.697 158.214 288.231 158.214C290.765 158.214 292.557 160.272 292.557 163.184C292.557 166.11 290.765 168.168 288.231 168.168ZM288.231 166.292C289.533 166.292 290.429 164.99 290.429 163.184C290.429 161.378 289.533 160.09 288.231 160.09C286.943 160.09 286.033 161.378 286.033 163.184C286.033 164.99 286.943 166.292 288.231 166.292ZM293.79 168V166.32L297.332 163.576C298.48 162.666 298.844 162.036 298.844 161.364C298.844 160.566 298.172 160.09 297.388 160.09C296.45 160.09 295.736 160.566 295.036 161.364L293.72 160.09C294.672 158.886 295.89 158.214 297.444 158.214C299.488 158.214 300.972 159.474 300.972 161.28C300.972 162.568 300.412 163.562 298.732 164.78L296.982 166.138H301.056V168H293.79ZM305.96 168.182C304.224 168.182 302.908 167.496 302.096 166.558L303.314 165.186C303.986 165.914 304.896 166.32 305.862 166.32C306.926 166.32 307.542 165.83 307.542 165.144C307.542 164.402 306.968 164.024 305.666 164.038H304.56V162.274L305.666 162.288C306.716 162.288 307.346 161.896 307.346 161.21C307.346 160.51 306.688 160.062 305.736 160.062C304.826 160.062 304.112 160.51 303.468 161.182L302.278 159.922C303.076 158.956 304.224 158.214 305.932 158.214C308.102 158.214 309.46 159.32 309.46 160.846C309.46 161.952 308.704 162.75 307.654 163.058C308.704 163.296 309.67 164.038 309.67 165.312C309.67 166.978 308.2 168.182 305.96 168.182ZM309.887 169.036L314.717 157.598H316.873L312.043 169.036H309.887ZM321.631 168.168C319.097 168.168 317.319 166.11 317.319 163.184C317.319 160.272 319.097 158.214 321.631 158.214C324.165 158.214 325.957 160.272 325.957 163.184C325.957 166.11 324.165 168.168 321.631 168.168ZM321.631 166.292C322.933 166.292 323.829 164.99 323.829 163.184C323.829 161.378 322.933 160.09 321.631 160.09C320.343 160.09 319.433 161.378 319.433 163.184C319.433 164.99 320.343 166.292 321.631 166.292ZM329.234 168V160.748L327.596 161.77L326.77 160.314L329.654 158.382H331.306V168H329.234ZM332.049 169.036L336.879 157.598H339.035L334.205 169.036H332.049ZM343.794 168.168C341.26 168.168 339.482 166.11 339.482 163.184C339.482 160.272 341.26 158.214 343.794 158.214C346.328 158.214 348.12 160.272 348.12 163.184C348.12 166.11 346.328 168.168 343.794 168.168ZM343.794 166.292C345.096 166.292 345.992 164.99 345.992 163.184C345.992 161.378 345.096 160.09 343.794 160.09C342.506 160.09 341.596 161.378 341.596 163.184C341.596 164.99 342.506 166.292 343.794 166.292ZM351.396 168V160.748L349.758 161.77L348.932 160.314L351.816 158.382H353.468V168H351.396Z" fill="#161B1D"/>
<path d="M390.705 168.168C389.697 168.168 388.577 167.79 387.709 167.09L388.255 166.32C389.081 166.922 389.907 167.23 390.705 167.23C391.657 167.23 392.301 166.782 392.301 166.096C392.301 165.312 391.461 165.06 390.481 164.78C388.731 164.276 388.059 163.758 388.059 162.722C388.059 161.406 389.151 160.594 390.593 160.594C391.489 160.594 392.413 160.902 393.183 161.406L392.679 162.218C391.951 161.756 391.237 161.532 390.593 161.532C389.781 161.532 389.109 161.896 389.109 162.596C389.109 163.226 389.641 163.422 390.985 163.856C392.147 164.22 393.351 164.612 393.351 165.984C393.351 167.314 392.203 168.168 390.705 168.168ZM398.448 168.168C396.418 168.168 394.696 166.432 394.696 164.374C394.696 162.316 396.418 160.594 398.448 160.594C399.428 160.594 400.338 161 401.024 161.658L400.296 162.372C399.82 161.854 399.162 161.532 398.448 161.532C397.006 161.532 395.802 162.834 395.802 164.374C395.802 165.928 397.006 167.23 398.448 167.23C399.176 167.23 399.848 166.894 400.338 166.348L401.066 167.062C400.38 167.748 399.456 168.168 398.448 168.168ZM406.12 160.594C407.716 160.594 408.836 161.756 408.836 163.394V168H407.786V163.534C407.786 162.358 407.044 161.532 405.98 161.532C404.762 161.532 403.74 162.386 403.74 163.394V168H402.69V158.214H403.74V161.924C404.16 161.154 405.098 160.594 406.12 160.594ZM414.223 167.23C415.077 167.23 416.057 166.852 416.505 166.362L417.149 167.048C416.519 167.734 415.245 168.168 414.237 168.168C412.305 168.168 410.569 166.586 410.569 164.36C410.569 162.204 412.193 160.594 414.139 160.594C416.323 160.594 417.569 162.246 417.569 164.78H411.647C411.801 166.194 412.795 167.23 414.223 167.23ZM414.181 161.532C412.893 161.532 411.857 162.442 411.661 163.842H416.533C416.393 162.54 415.623 161.532 414.181 161.532ZM424.944 158.214H425.994V168H424.944V166.642C424.398 167.594 423.474 168.168 422.312 168.168C420.408 168.168 418.98 166.6 418.98 164.374C418.98 162.162 420.408 160.594 422.312 160.594C423.474 160.594 424.398 161.168 424.944 162.12V158.214ZM422.508 167.23C423.936 167.23 424.944 166.04 424.944 164.374C424.944 162.708 423.936 161.532 422.508 161.532C421.094 161.532 420.086 162.708 420.086 164.374C420.086 166.04 421.094 167.23 422.508 167.23ZM433.311 160.762H434.361V168H433.311V166.838C432.891 167.608 431.953 168.168 430.931 168.168C429.335 168.168 428.215 167.006 428.215 165.368V160.762H429.265V165.228C429.265 166.404 430.007 167.23 431.071 167.23C432.289 167.23 433.311 166.376 433.311 165.368V160.762ZM436.501 168V158.214H437.551V168H436.501ZM442.934 167.23C443.788 167.23 444.768 166.852 445.216 166.362L445.86 167.048C445.23 167.734 443.956 168.168 442.948 168.168C441.016 168.168 439.28 166.586 439.28 164.36C439.28 162.204 440.904 160.594 442.85 160.594C445.034 160.594 446.28 162.246 446.28 164.78H440.358C440.512 166.194 441.506 167.23 442.934 167.23ZM442.892 161.532C441.604 161.532 440.568 162.442 440.372 163.842H445.244C445.104 162.54 444.334 161.532 442.892 161.532ZM448.727 168.168C448.293 168.168 447.957 167.818 447.957 167.398C447.957 167.006 448.293 166.656 448.727 166.656C449.133 166.656 449.469 167.006 449.469 167.398C449.469 167.818 449.133 168.168 448.727 168.168ZM457.196 158.214H458.246V168H457.196V166.642C456.65 167.594 455.726 168.168 454.564 168.168C452.66 168.168 451.232 166.6 451.232 164.374C451.232 162.162 452.66 160.594 454.564 160.594C455.726 160.594 456.65 161.168 457.196 162.12V158.214ZM454.76 167.23C456.188 167.23 457.196 166.04 457.196 164.374C457.196 162.708 456.188 161.532 454.76 161.532C453.346 161.532 452.338 162.708 452.338 164.374C452.338 166.04 453.346 167.23 454.76 167.23ZM463.407 160.594C465.381 160.594 466.347 161.84 466.347 163.59V168H465.297V166.866C464.779 167.72 463.701 168.168 462.749 168.168C461.223 168.168 460.103 167.286 460.103 165.858C460.103 164.416 461.391 163.45 462.945 163.45C463.729 163.45 464.555 163.618 465.297 163.856V163.59C465.297 162.61 464.905 161.49 463.337 161.49C462.609 161.49 461.881 161.812 461.223 162.148L460.803 161.294C461.839 160.776 462.707 160.594 463.407 160.594ZM462.931 167.244C463.883 167.244 465.017 166.754 465.297 165.732V164.626C464.639 164.444 463.897 164.332 463.113 164.332C462.035 164.332 461.125 164.948 461.125 165.816C461.125 166.712 461.909 167.244 462.931 167.244ZM471.671 166.936L472.189 167.706C471.811 168 471.335 168.168 470.845 168.168C469.809 168.168 469.081 167.398 469.081 166.32V161.7H467.947V160.762H469.081V158.774H470.131V160.762H471.909V161.7H470.131V166.32C470.131 166.852 470.495 167.23 470.915 167.23C471.237 167.23 471.517 167.104 471.671 166.936ZM476.936 167.23C477.79 167.23 478.77 166.852 479.218 166.362L479.862 167.048C479.232 167.734 477.958 168.168 476.95 168.168C475.018 168.168 473.282 166.586 473.282 164.36C473.282 162.204 474.906 160.594 476.852 160.594C479.036 160.594 480.282 162.246 480.282 164.78H474.36C474.514 166.194 475.508 167.23 476.936 167.23ZM476.894 161.532C475.606 161.532 474.57 162.442 474.374 163.842H479.246C479.106 162.54 478.336 161.532 476.894 161.532ZM485.935 162.302V161.266H492.361V162.302H485.935ZM485.935 165.382V164.346H492.361V165.382H485.935ZM497.972 168V166.32L501.514 163.576C502.662 162.666 503.026 162.036 503.026 161.364C503.026 160.566 502.354 160.09 501.57 160.09C500.632 160.09 499.918 160.566 499.218 161.364L497.902 160.09C498.854 158.886 500.072 158.214 501.626 158.214C503.67 158.214 505.154 159.474 505.154 161.28C505.154 162.568 504.594 163.562 502.914 164.78L501.164 166.138H505.238V168H497.972ZM510.857 168.168C508.323 168.168 506.545 166.11 506.545 163.184C506.545 160.272 508.323 158.214 510.857 158.214C513.391 158.214 515.183 160.272 515.183 163.184C515.183 166.11 513.391 168.168 510.857 168.168ZM510.857 166.292C512.159 166.292 513.055 164.99 513.055 163.184C513.055 161.378 512.159 160.09 510.857 160.09C509.569 160.09 508.659 161.378 508.659 163.184C508.659 164.99 509.569 166.292 510.857 166.292ZM516.416 168V166.32L519.958 163.576C521.106 162.666 521.47 162.036 521.47 161.364C521.47 160.566 520.798 160.09 520.014 160.09C519.076 160.09 518.362 160.566 517.662 161.364L516.346 160.09C517.298 158.886 518.516 158.214 520.07 158.214C522.114 158.214 523.598 159.474 523.598 161.28C523.598 162.568 523.038 163.562 521.358 164.78L519.608 166.138H523.682V168H516.416ZM528.586 168.182C526.85 168.182 525.534 167.496 524.722 166.558L525.94 165.186C526.612 165.914 527.522 166.32 528.488 166.32C529.552 166.32 530.168 165.83 530.168 165.144C530.168 164.402 529.594 164.024 528.292 164.038H527.186V162.274L528.292 162.288C529.342 162.288 529.972 161.896 529.972 161.21C529.972 160.51 529.314 160.062 528.362 160.062C527.452 160.062 526.738 160.51 526.094 161.182L524.904 159.922C525.702 158.956 526.85 158.214 528.558 158.214C530.728 158.214 532.086 159.32 532.086 160.846C532.086 161.952 531.33 162.75 530.28 163.058C531.33 163.296 532.296 164.038 532.296 165.312C532.296 166.978 530.826 168.182 528.586 168.182ZM532.513 169.036L537.343 157.598H539.499L534.669 169.036H532.513ZM544.257 168.168C541.723 168.168 539.945 166.11 539.945 163.184C539.945 160.272 541.723 158.214 544.257 158.214C546.791 158.214 548.583 160.272 548.583 163.184C548.583 166.11 546.791 168.168 544.257 168.168ZM544.257 166.292C545.559 166.292 546.455 164.99 546.455 163.184C546.455 161.378 545.559 160.09 544.257 160.09C542.969 160.09 542.059 161.378 542.059 163.184C542.059 164.99 542.969 166.292 544.257 166.292ZM551.86 168V160.748L550.222 161.77L549.396 160.314L552.28 158.382H553.932V168H551.86ZM554.675 169.036L559.505 157.598H561.661L556.831 169.036H554.675ZM566.42 168.168C563.886 168.168 562.108 166.11 562.108 163.184C562.108 160.272 563.886 158.214 566.42 158.214C568.954 158.214 570.746 160.272 570.746 163.184C570.746 166.11 568.954 168.168 566.42 168.168ZM566.42 166.292C567.722 166.292 568.618 164.99 568.618 163.184C568.618 161.378 567.722 160.09 566.42 160.09C565.132 160.09 564.222 161.378 564.222 163.184C564.222 164.99 565.132 166.292 566.42 166.292ZM571.978 168V166.32L575.52 163.576C576.668 162.666 577.032 162.036 577.032 161.364C577.032 160.566 576.36 160.09 575.576 160.09C574.638 160.09 573.924 160.566 573.224 161.364L571.908 160.09C572.86 158.886 574.078 158.214 575.632 158.214C577.676 158.214 579.16 159.474 579.16 161.28C579.16 162.568 578.6 163.562 576.92 164.78L575.17 166.138H579.244V168H571.978Z" fill="#161B1D"/>
<path d="M273.293 228.707C273.683 229.098 274.317 229.098 274.707 228.707L281.071 222.343C281.462 221.953 281.462 221.319 281.071 220.929C280.681 220.538 280.047 220.538 279.657 220.929L274 226.586L268.343 220.929C267.953 220.538 267.319 220.538 266.929 220.929C266.538 221.319 266.538 221.953 266.929 222.343L273.293 228.707ZM280 180L280 179L280 180ZM462 180L462 181L462 180ZM468 186L469 186L468 186ZM467.293 228.707C467.683 229.098 468.317 229.098 468.707 228.707L475.071 222.343C475.462 221.953 475.462 221.319 475.071 220.929C474.681 220.538 474.047 220.538 473.657 220.929L468 226.586L462.343 220.929C461.953 220.538 461.319 220.538 460.929 220.929C460.538 221.319 460.538 221.953 460.929 222.343L467.293 228.707ZM273 186L273 228L275 228L275 186L273 186ZM280 181L462 181L462 179L280 179L280 181ZM467 186L467 228L469 228L469 186L467 186ZM462 181C464.761 181 467 183.239 467 186L469 186C469 182.134 465.866 179 462 179L462 181ZM275 186C275 183.239 277.239 181 280 181L280 179C276.134 179 273 182.134 273 186L275 186Z" fill="#161B1D"/>
<path d="M371 179L371 90" stroke="#161B1D" stroke-width="2"/>
</g>
<defs>
<clipPath id="clip0_303_269720">
<rect width="743" height="431" fill="white"/>
</clipPath>
</defs>
</svg>
