<svg width="743" height="431" viewBox="0 0 743 431" fill="none" xmlns="http://www.w3.org/2000/svg">
<g clip-path="url(#clip0_303_269530)">
<rect width="743" height="431" fill="#F3F5F6"/>
<path d="M610 476L309.559 -13H0V476H610Z" fill="white"/>
<circle cx="8.64224" cy="220.949" r="2.94888" fill="#EAEEF0"/>
<circle cx="8.64224" cy="235.847" r="2.94888" fill="#EAEEF0"/>
<circle cx="8.64224" cy="250.744" r="2.94888" fill="#EAEEF0"/>
<circle cx="8.64224" cy="265.642" r="2.94888" fill="#EAEEF0"/>
<circle cx="8.64224" cy="280.54" r="2.94888" fill="#EAEEF0"/>
<circle cx="8.64224" cy="295.438" r="2.94888" fill="#EAEEF0"/>
<circle cx="8.64224" cy="310.336" r="2.94888" fill="#EAEEF0"/>
<circle cx="8.64224" cy="325.233" r="2.94888" fill="#EAEEF0"/>
<circle cx="8.64224" cy="340.131" r="2.94888" fill="#EAEEF0"/>
<circle cx="8.64224" cy="355.029" r="2.94888" fill="#EAEEF0"/>
<circle cx="8.64224" cy="369.926" r="2.94888" fill="#EAEEF0"/>
<circle cx="8.64224" cy="384.824" r="2.94888" fill="#EAEEF0"/>
<circle cx="23.5397" cy="220.949" r="2.94888" fill="#EAEEF0"/>
<circle cx="23.5397" cy="235.847" r="2.94888" fill="#EAEEF0"/>
<circle cx="23.5397" cy="250.744" r="2.94888" fill="#EAEEF0"/>
<circle cx="23.5397" cy="265.642" r="2.94888" fill="#EAEEF0"/>
<circle cx="23.5397" cy="280.54" r="2.94888" fill="#EAEEF0"/>
<circle cx="23.5397" cy="295.438" r="2.94888" fill="#EAEEF0"/>
<circle cx="23.5397" cy="310.336" r="2.94888" fill="#EAEEF0"/>
<circle cx="23.5397" cy="325.233" r="2.94888" fill="#EAEEF0"/>
<circle cx="23.5397" cy="340.131" r="2.94888" fill="#EAEEF0"/>
<circle cx="23.5397" cy="355.029" r="2.94888" fill="#EAEEF0"/>
<circle cx="23.5397" cy="369.926" r="2.94888" fill="#EAEEF0"/>
<circle cx="23.5397" cy="384.824" r="2.94888" fill="#EAEEF0"/>
<circle cx="38.4377" cy="220.949" r="2.94888" fill="#EAEEF0"/>
<circle cx="38.4377" cy="235.847" r="2.94888" fill="#EAEEF0"/>
<circle cx="38.4377" cy="250.744" r="2.94888" fill="#EAEEF0"/>
<circle cx="38.4377" cy="265.642" r="2.94888" fill="#EAEEF0"/>
<circle cx="38.4377" cy="280.54" r="2.94888" fill="#EAEEF0"/>
<circle cx="38.4377" cy="295.438" r="2.94888" fill="#EAEEF0"/>
<circle cx="38.4377" cy="310.336" r="2.94888" fill="#EAEEF0"/>
<circle cx="38.4377" cy="325.233" r="2.94888" fill="#EAEEF0"/>
<circle cx="38.4377" cy="340.131" r="2.94888" fill="#EAEEF0"/>
<circle cx="38.4377" cy="355.029" r="2.94888" fill="#EAEEF0"/>
<circle cx="38.4377" cy="369.926" r="2.94888" fill="#EAEEF0"/>
<circle cx="38.4377" cy="384.824" r="2.94888" fill="#EAEEF0"/>
<circle cx="53.3356" cy="220.949" r="2.94888" fill="#EAEEF0"/>
<circle cx="53.3356" cy="235.847" r="2.94888" fill="#EAEEF0"/>
<circle cx="53.3356" cy="250.744" r="2.94888" fill="#EAEEF0"/>
<circle cx="53.3356" cy="265.642" r="2.94888" fill="#EAEEF0"/>
<circle cx="53.3356" cy="280.54" r="2.94888" fill="#EAEEF0"/>
<circle cx="53.3356" cy="295.438" r="2.94888" fill="#EAEEF0"/>
<circle cx="53.3356" cy="310.336" r="2.94888" fill="#EAEEF0"/>
<circle cx="53.3356" cy="325.233" r="2.94888" fill="#EAEEF0"/>
<circle cx="53.3356" cy="340.131" r="2.94888" fill="#EAEEF0"/>
<circle cx="53.3356" cy="355.029" r="2.94888" fill="#EAEEF0"/>
<circle cx="53.3356" cy="369.926" r="2.94888" fill="#EAEEF0"/>
<circle cx="53.3356" cy="384.824" r="2.94888" fill="#EAEEF0"/>
<circle cx="68.2331" cy="220.949" r="2.94888" fill="#EAEEF0"/>
<circle cx="68.2331" cy="235.847" r="2.94888" fill="#EAEEF0"/>
<circle cx="68.2331" cy="250.744" r="2.94888" fill="#EAEEF0"/>
<circle cx="68.2331" cy="265.642" r="2.94888" fill="#EAEEF0"/>
<circle cx="68.2331" cy="280.54" r="2.94888" fill="#EAEEF0"/>
<circle cx="68.2331" cy="295.438" r="2.94888" fill="#EAEEF0"/>
<circle cx="68.2331" cy="310.336" r="2.94888" fill="#EAEEF0"/>
<circle cx="68.2331" cy="325.233" r="2.94888" fill="#EAEEF0"/>
<circle cx="68.2331" cy="340.131" r="2.94888" fill="#EAEEF0"/>
<circle cx="68.2331" cy="355.029" r="2.94888" fill="#EAEEF0"/>
<circle cx="68.2331" cy="369.926" r="2.94888" fill="#EAEEF0"/>
<circle cx="68.2331" cy="384.824" r="2.94888" fill="#EAEEF0"/>
<circle cx="83.131" cy="220.949" r="2.94888" fill="#EAEEF0"/>
<circle cx="83.131" cy="235.847" r="2.94888" fill="#EAEEF0"/>
<circle cx="83.131" cy="250.744" r="2.94888" fill="#EAEEF0"/>
<circle cx="83.131" cy="265.642" r="2.94888" fill="#EAEEF0"/>
<circle cx="83.131" cy="280.54" r="2.94888" fill="#EAEEF0"/>
<circle cx="83.131" cy="295.438" r="2.94888" fill="#EAEEF0"/>
<circle cx="83.131" cy="310.336" r="2.94888" fill="#EAEEF0"/>
<circle cx="83.131" cy="325.233" r="2.94888" fill="#EAEEF0"/>
<circle cx="83.131" cy="340.131" r="2.94888" fill="#EAEEF0"/>
<circle cx="83.131" cy="355.029" r="2.94888" fill="#EAEEF0"/>
<circle cx="83.131" cy="369.926" r="2.94888" fill="#EAEEF0"/>
<circle cx="83.131" cy="384.824" r="2.94888" fill="#EAEEF0"/>
<circle cx="98.029" cy="220.949" r="2.94888" fill="#EAEEF0"/>
<circle cx="98.029" cy="235.847" r="2.94888" fill="#EAEEF0"/>
<circle cx="98.029" cy="250.744" r="2.94888" fill="#EAEEF0"/>
<circle cx="98.029" cy="265.642" r="2.94888" fill="#EAEEF0"/>
<circle cx="98.029" cy="280.54" r="2.94888" fill="#EAEEF0"/>
<circle cx="98.029" cy="295.438" r="2.94888" fill="#EAEEF0"/>
<circle cx="98.029" cy="310.336" r="2.94888" fill="#EAEEF0"/>
<circle cx="98.029" cy="325.233" r="2.94888" fill="#EAEEF0"/>
<circle cx="98.029" cy="340.131" r="2.94888" fill="#EAEEF0"/>
<circle cx="98.029" cy="355.029" r="2.94888" fill="#EAEEF0"/>
<circle cx="98.029" cy="369.926" r="2.94888" fill="#EAEEF0"/>
<circle cx="98.029" cy="384.824" r="2.94888" fill="#EAEEF0"/>
<circle cx="112.926" cy="220.949" r="2.94888" fill="#EAEEF0"/>
<circle cx="112.926" cy="235.847" r="2.94888" fill="#EAEEF0"/>
<circle cx="112.926" cy="250.744" r="2.94888" fill="#EAEEF0"/>
<circle cx="112.926" cy="265.642" r="2.94888" fill="#EAEEF0"/>
<circle cx="112.926" cy="280.54" r="2.94888" fill="#EAEEF0"/>
<circle cx="112.926" cy="295.438" r="2.94888" fill="#EAEEF0"/>
<circle cx="112.926" cy="310.336" r="2.94888" fill="#EAEEF0"/>
<circle cx="112.926" cy="325.233" r="2.94888" fill="#EAEEF0"/>
<circle cx="112.926" cy="340.131" r="2.94888" fill="#EAEEF0"/>
<circle cx="112.926" cy="355.029" r="2.94888" fill="#EAEEF0"/>
<circle cx="112.926" cy="369.926" r="2.94888" fill="#EAEEF0"/>
<circle cx="112.926" cy="384.824" r="2.94888" fill="#EAEEF0"/>
<circle cx="127.824" cy="220.949" r="2.94888" fill="#EAEEF0"/>
<circle cx="127.824" cy="235.847" r="2.94888" fill="#EAEEF0"/>
<circle cx="127.824" cy="250.744" r="2.94888" fill="#EAEEF0"/>
<circle cx="127.824" cy="265.642" r="2.94888" fill="#EAEEF0"/>
<circle cx="127.824" cy="280.54" r="2.94888" fill="#EAEEF0"/>
<circle cx="127.824" cy="295.438" r="2.94888" fill="#EAEEF0"/>
<circle cx="127.824" cy="310.336" r="2.94888" fill="#EAEEF0"/>
<circle cx="127.824" cy="325.233" r="2.94888" fill="#EAEEF0"/>
<circle cx="127.824" cy="340.131" r="2.94888" fill="#EAEEF0"/>
<circle cx="127.824" cy="355.029" r="2.94888" fill="#EAEEF0"/>
<circle cx="127.824" cy="369.926" r="2.94888" fill="#EAEEF0"/>
<circle cx="127.824" cy="384.824" r="2.94888" fill="#EAEEF0"/>
<rect x="322" y="135" width="137" height="54" rx="8" fill="#161B1D"/>
<path d="M341.456 166.168C340.224 166.168 338.88 165.51 338.236 164.572L339.608 163.228C339.916 163.858 340.602 164.292 341.246 164.292C342.086 164.292 342.702 163.634 342.702 162.696V156.382H344.774V162.864C344.774 164.796 343.402 166.168 341.456 166.168ZM350.149 166.168C347.993 166.168 346.187 164.432 346.187 162.374C346.187 160.316 347.993 158.594 350.149 158.594C352.291 158.594 354.083 160.316 354.083 162.374C354.083 164.432 352.291 166.168 350.149 166.168ZM350.149 164.446C351.227 164.446 352.137 163.494 352.137 162.374C352.137 161.254 351.227 160.316 350.149 160.316C349.057 160.316 348.147 161.254 348.147 162.374C348.147 163.494 349.057 164.446 350.149 164.446ZM359.932 158.594C361.864 158.594 363.264 160.162 363.264 162.374C363.264 164.6 361.864 166.168 359.932 166.168C358.924 166.168 358.084 165.734 357.51 164.978V166H355.466V156.214H357.51V159.77C358.084 159.028 358.924 158.594 359.932 158.594ZM359.344 164.446C360.478 164.446 361.276 163.592 361.276 162.374C361.276 161.17 360.478 160.316 359.344 160.316C358.35 160.316 357.622 161.044 357.51 162.094V162.654C357.622 163.718 358.35 164.446 359.344 164.446ZM364.765 166V156.382H369.091C371.177 156.382 372.717 157.726 372.717 159.63C372.717 161.534 371.177 162.878 369.091 162.878H366.823V166H364.765ZM366.823 160.988H368.867C369.889 160.988 370.589 160.456 370.589 159.63C370.589 158.804 369.889 158.272 368.867 158.272H366.823V160.988ZM377.185 158.594C379.075 158.594 380.363 159.784 380.363 161.674V166H378.389V165.272C377.871 165.86 377.045 166.168 376.261 166.168C374.721 166.168 373.531 165.244 373.531 163.858C373.531 162.43 374.861 161.45 376.541 161.45C377.129 161.45 377.773 161.576 378.389 161.814V161.674C378.389 160.904 377.913 160.232 376.723 160.232C376.051 160.232 375.421 160.456 374.847 160.75L374.161 159.392C375.183 158.874 376.177 158.594 377.185 158.594ZM376.723 164.754C377.507 164.754 378.249 164.39 378.389 163.718V163.046C377.927 162.878 377.395 162.78 376.835 162.78C376.093 162.78 375.505 163.214 375.505 163.802C375.505 164.39 376.023 164.754 376.723 164.754ZM384.129 160.106C384.605 159.168 385.501 158.594 386.607 158.594V160.316C385.095 160.316 384.129 161.184 384.129 162.542V166H382.085V158.762H384.129V160.106ZM391.021 158.594C392.911 158.594 394.199 159.784 394.199 161.674V166H392.225V165.272C391.707 165.86 390.881 166.168 390.097 166.168C388.557 166.168 387.367 165.244 387.367 163.858C387.367 162.43 388.697 161.45 390.377 161.45C390.965 161.45 391.609 161.576 392.225 161.814V161.674C392.225 160.904 391.749 160.232 390.559 160.232C389.887 160.232 389.257 160.456 388.683 160.75L387.997 159.392C389.019 158.874 390.013 158.594 391.021 158.594ZM390.559 164.754C391.343 164.754 392.085 164.39 392.225 163.718V163.046C391.763 162.878 391.231 162.78 390.671 162.78C389.929 162.78 389.341 163.214 389.341 163.802C389.341 164.39 389.859 164.754 390.559 164.754ZM404.531 158.594C406.043 158.594 407.205 159.756 407.205 161.394V166.014H405.245V161.744C405.245 160.904 404.713 160.316 403.957 160.316C403.145 160.316 402.557 160.862 402.557 161.632V166.014H400.597V161.744C400.597 160.904 400.065 160.316 399.323 160.316C398.497 160.316 397.923 160.862 397.923 161.632V166H395.879V158.762H397.923V159.714C398.273 159.028 398.987 158.594 399.883 158.594C400.877 158.594 401.731 159.098 402.179 159.91C402.557 159.112 403.453 158.594 404.531 158.594ZM412.339 164.362C412.913 164.362 413.613 164.096 414.005 163.718L415.307 165.048C414.663 165.72 413.417 166.168 412.353 166.168C410.197 166.168 408.517 164.586 408.517 162.36C408.517 160.176 410.127 158.594 412.241 158.594C414.509 158.594 415.839 160.316 415.839 163.046H410.617C410.855 163.83 411.485 164.362 412.339 164.362ZM412.325 160.4C411.555 160.4 410.911 160.848 410.645 161.576H413.879C413.683 160.862 413.151 160.4 412.325 160.4ZM421.03 164.208L421.52 165.538C421.1 165.916 420.442 166.168 419.854 166.168C418.58 166.168 417.684 165.258 417.684 163.956V160.414H416.69V158.762H417.684V156.774H419.644V158.762H421.212V160.414H419.644V163.634C419.644 164.11 419.952 164.446 420.33 164.446C420.61 164.446 420.89 164.348 421.03 164.208ZM426.216 164.362C426.79 164.362 427.49 164.096 427.882 163.718L429.184 165.048C428.54 165.72 427.294 166.168 426.23 166.168C424.074 166.168 422.394 164.586 422.394 162.36C422.394 160.176 424.004 158.594 426.118 158.594C428.386 158.594 429.716 160.316 429.716 163.046H424.494C424.732 163.83 425.362 164.362 426.216 164.362ZM426.202 160.4C425.432 160.4 424.788 160.848 424.522 161.576H427.756C427.56 160.862 427.028 160.4 426.202 160.4ZM433.143 160.106C433.619 159.168 434.515 158.594 435.621 158.594V160.316C434.109 160.316 433.143 161.184 433.143 162.542V166H431.099V158.762H433.143V160.106ZM439.516 166.168C438.354 166.168 437.122 165.776 436.254 165.076L437.136 163.662C437.78 164.124 438.592 164.474 439.558 164.474C440.104 164.474 440.496 164.25 440.496 163.928C440.496 163.48 439.964 163.34 439.222 163.144C437.738 162.78 436.59 162.374 436.576 160.946C436.562 159.574 437.696 158.594 439.404 158.594C440.44 158.594 441.462 158.958 442.26 159.49L441.434 160.946C440.776 160.54 440.02 160.302 439.404 160.302C438.9 160.302 438.55 160.484 438.55 160.736C438.55 161.128 438.844 161.24 439.824 161.506C441.07 161.828 442.456 162.248 442.456 163.83C442.456 165.258 441.294 166.168 439.516 166.168Z" fill="white"/>
<rect x="45" y="55" width="145" height="54" rx="8" fill="#161B1D"/>
<path d="M108.016 86.168C106.784 86.168 105.44 85.51 104.796 84.572L106.168 83.228C106.476 83.858 107.162 84.292 107.806 84.292C108.646 84.292 109.262 83.634 109.262 82.696V76.382H111.334V82.864C111.334 84.796 109.962 86.168 108.016 86.168ZM116.709 86.168C114.553 86.168 112.747 84.432 112.747 82.374C112.747 80.316 114.553 78.594 116.709 78.594C118.851 78.594 120.643 80.316 120.643 82.374C120.643 84.432 118.851 86.168 116.709 86.168ZM116.709 84.446C117.787 84.446 118.697 83.494 118.697 82.374C118.697 81.254 117.787 80.316 116.709 80.316C115.617 80.316 114.707 81.254 114.707 82.374C114.707 83.494 115.617 84.446 116.709 84.446ZM126.492 78.594C128.424 78.594 129.824 80.162 129.824 82.374C129.824 84.6 128.424 86.168 126.492 86.168C125.484 86.168 124.644 85.734 124.07 84.978V86H122.026V76.214H124.07V79.77C124.644 79.028 125.484 78.594 126.492 78.594ZM125.904 84.446C127.038 84.446 127.836 83.592 127.836 82.374C127.836 81.17 127.038 80.316 125.904 80.316C124.91 80.316 124.182 81.044 124.07 82.094V82.654C124.182 83.718 124.91 84.446 125.904 84.446Z" fill="white"/>
<path d="M295.244 90V81.418H292.01V80.382H299.57V81.418H296.336V90H295.244ZM304.706 82.594C306.302 82.594 307.422 83.756 307.422 85.394V90H306.372V85.534C306.372 84.358 305.63 83.532 304.566 83.532C303.348 83.532 302.326 84.386 302.326 85.394V90H301.276V80.214H302.326V83.924C302.746 83.154 303.684 82.594 304.706 82.594ZM312.809 89.23C313.663 89.23 314.643 88.852 315.091 88.362L315.735 89.048C315.105 89.734 313.831 90.168 312.823 90.168C310.891 90.168 309.155 88.586 309.155 86.36C309.155 84.204 310.779 82.594 312.725 82.594C314.909 82.594 316.155 84.246 316.155 86.78H310.233C310.387 88.194 311.381 89.23 312.809 89.23ZM312.767 83.532C311.479 83.532 310.443 84.442 310.247 85.842H315.119C314.979 84.54 314.209 83.532 312.767 83.532ZM329.078 82.244H323.744V84.162H328.574V86.024H323.744V88.138H329.078V90H321.672V80.382H329.078V82.244ZM334.77 82.594C336.338 82.594 337.458 83.756 337.458 85.394V90H335.484V85.828C335.484 84.932 334.924 84.316 334.112 84.316C333.258 84.316 332.6 84.932 332.6 85.716L332.586 85.674V90H330.542V82.762H332.586V83.672C333.02 83.014 333.832 82.594 334.77 82.594ZM344.588 80.214H346.632V90H344.588V88.964C344.014 89.72 343.174 90.168 342.152 90.168C340.22 90.168 338.82 88.6 338.82 86.374C338.82 84.162 340.22 82.594 342.152 82.594C343.174 82.594 344.014 83.042 344.588 83.798V80.214ZM342.74 88.446C343.818 88.446 344.588 87.592 344.588 86.374C344.588 85.17 343.818 84.316 342.74 84.316C341.606 84.316 340.808 85.17 340.808 86.374C340.808 87.592 341.606 88.446 342.74 88.446ZM353.214 90.168C350.456 90.168 348.104 87.886 348.104 85.184C348.104 82.482 350.456 80.214 353.214 80.214C356 80.214 358.324 82.482 358.324 85.184C358.324 87.886 356 90.168 353.214 90.168ZM353.214 88.292C354.838 88.292 356.21 86.864 356.21 85.184C356.21 83.518 354.838 82.09 353.214 82.09C351.604 82.09 350.232 83.518 350.232 85.184C350.232 86.864 351.604 88.292 353.214 88.292ZM362.21 82.37V82.762H363.778V84.414H362.21V90H360.25V84.414H359.256V82.762H360.25V82.132C360.25 80.83 361.146 79.92 362.42 79.92C363.008 79.92 363.666 80.172 364.086 80.55L363.596 81.796C363.456 81.656 363.176 81.558 362.896 81.558C362.518 81.558 362.21 81.894 362.21 82.37ZM365.232 90V80.382H368.676C371.91 80.382 374.206 82.37 374.206 85.184C374.206 87.998 371.91 90 368.676 90H365.232ZM367.29 88.124H368.942C370.776 88.124 372.078 86.906 372.078 85.184C372.078 83.476 370.776 82.258 368.942 82.258H367.29V88.124ZM378.977 82.594C380.867 82.594 382.155 83.784 382.155 85.674V90H380.181V89.272C379.663 89.86 378.837 90.168 378.053 90.168C376.513 90.168 375.323 89.244 375.323 87.858C375.323 86.43 376.653 85.45 378.333 85.45C378.921 85.45 379.565 85.576 380.181 85.814V85.674C380.181 84.904 379.705 84.232 378.515 84.232C377.843 84.232 377.213 84.456 376.639 84.75L375.953 83.392C376.975 82.874 377.969 82.594 378.977 82.594ZM378.515 88.754C379.299 88.754 380.041 88.39 380.181 87.718V87.046C379.719 86.878 379.187 86.78 378.627 86.78C377.885 86.78 377.297 87.214 377.297 87.802C377.297 88.39 377.815 88.754 378.515 88.754ZM385.529 92.52C384.927 92.52 384.199 92.338 383.709 92.072L384.143 90.672C384.493 90.868 384.857 90.994 385.095 90.994C385.487 90.994 385.795 90.868 385.949 90.602L386.201 90.07L383.191 82.762H385.305L387.209 87.844L389.015 82.762H391.101L388.133 90.364C387.587 91.778 386.663 92.52 385.529 92.52ZM398.618 90.168C397.484 90.168 396.252 89.51 395.664 88.572L396.462 87.788C396.84 88.6 397.736 89.174 398.618 89.174C399.752 89.174 400.564 88.222 400.564 86.864V80.382H401.656V86.864C401.656 88.796 400.396 90.168 398.618 90.168ZM407.284 90.168C405.254 90.168 403.532 88.432 403.532 86.374C403.532 84.316 405.254 82.594 407.284 82.594C409.314 82.594 411.022 84.316 411.022 86.374C411.022 88.432 409.314 90.168 407.284 90.168ZM407.284 89.23C408.712 89.23 409.916 87.928 409.916 86.374C409.916 84.834 408.712 83.532 407.284 83.532C405.842 83.532 404.638 84.834 404.638 86.374C404.638 87.928 405.842 89.23 407.284 89.23ZM416.536 82.594C418.44 82.594 419.868 84.162 419.868 86.374C419.868 88.6 418.44 90.168 416.536 90.168C415.374 90.168 414.45 89.594 413.904 88.642V90H412.854V80.214H413.904V84.12C414.45 83.168 415.374 82.594 416.536 82.594ZM416.34 89.23C417.754 89.23 418.762 88.04 418.762 86.374C418.762 84.708 417.754 83.532 416.34 83.532C414.912 83.532 413.904 84.708 413.904 86.374C413.904 88.04 414.912 89.23 416.34 89.23Z" fill="#161B1D"/>
<path d="M168.995 164.72C168.491 164.72 168.083 164.336 168.083 163.88C168.083 163.016 168.467 161.984 168.587 161.12C167.891 161.648 167.195 162.512 166.475 162.944C166.091 163.16 165.539 162.992 165.275 162.56C165.035 162.104 165.179 161.576 165.563 161.36C166.283 160.928 167.363 160.76 168.179 160.424C167.363 160.088 166.283 159.92 165.563 159.488C165.179 159.272 165.035 158.72 165.275 158.288C165.539 157.832 166.091 157.664 166.475 157.904C167.195 158.336 167.891 159.2 168.587 159.728C168.467 158.864 168.059 157.832 168.059 156.968C168.059 156.512 168.467 156.128 168.995 156.128C169.499 156.128 169.907 156.512 169.907 156.968C169.907 157.832 169.499 158.864 169.379 159.728C170.075 159.2 170.771 158.336 171.491 157.904C171.875 157.688 172.427 157.856 172.691 158.288C172.931 158.744 172.811 159.272 172.427 159.488C171.683 159.92 170.579 160.088 169.787 160.424C170.603 160.76 171.683 160.928 172.427 161.36C172.811 161.576 172.931 162.128 172.691 162.56C172.427 163.016 171.875 163.184 171.491 162.944C170.771 162.512 170.075 161.648 169.379 161.12C169.499 161.984 169.907 163.016 169.907 163.88C169.907 164.336 169.499 164.72 168.995 164.72Z" fill="#161B1D"/>
<path d="M248.995 298.72C248.491 298.72 248.083 298.336 248.083 297.88C248.083 297.016 248.467 295.984 248.587 295.12C247.891 295.648 247.195 296.512 246.475 296.944C246.091 297.16 245.539 296.992 245.275 296.56C245.035 296.104 245.179 295.576 245.563 295.36C246.283 294.928 247.363 294.76 248.179 294.424C247.363 294.088 246.283 293.92 245.563 293.488C245.179 293.272 245.035 292.72 245.275 292.288C245.539 291.832 246.091 291.664 246.475 291.904C247.195 292.336 247.891 293.2 248.587 293.728C248.467 292.864 248.059 291.832 248.059 290.968C248.059 290.512 248.467 290.128 248.995 290.128C249.499 290.128 249.907 290.512 249.907 290.968C249.907 291.832 249.499 292.864 249.379 293.728C250.075 293.2 250.771 292.336 251.491 291.904C251.875 291.688 252.427 291.856 252.691 292.288C252.931 292.744 252.811 293.272 252.427 293.488C251.683 293.92 250.579 294.088 249.787 294.424C250.603 294.76 251.683 294.928 252.427 295.36C252.811 295.576 252.931 296.128 252.691 296.56C252.427 297.016 251.875 297.184 251.491 296.944C250.771 296.512 250.075 295.648 249.379 295.12C249.499 295.984 249.907 297.016 249.907 297.88C249.907 298.336 249.499 298.72 248.995 298.72Z" fill="#161B1D"/>
<path d="M394.864 236V227.418H391.63V226.382H399.19V227.418H395.956V236H394.864ZM404.326 228.594C405.922 228.594 407.042 229.756 407.042 231.394V236H405.992V231.534C405.992 230.358 405.25 229.532 404.186 229.532C402.968 229.532 401.946 230.386 401.946 231.394V236H400.896V226.214H401.946V229.924C402.366 229.154 403.304 228.594 404.326 228.594ZM412.43 235.23C413.284 235.23 414.264 234.852 414.712 234.362L415.356 235.048C414.726 235.734 413.452 236.168 412.444 236.168C410.512 236.168 408.776 234.586 408.776 232.36C408.776 230.204 410.4 228.594 412.346 228.594C414.53 228.594 415.776 230.246 415.776 232.78H409.854C410.008 234.194 411.002 235.23 412.43 235.23ZM412.388 229.532C411.1 229.532 410.064 230.442 409.868 231.842H414.74C414.6 230.54 413.83 229.532 412.388 229.532ZM428.698 228.244H423.364V230.162H428.194V232.024H423.364V234.138H428.698V236H421.292V226.382H428.698V228.244ZM434.391 228.594C435.959 228.594 437.079 229.756 437.079 231.394V236H435.105V231.828C435.105 230.932 434.545 230.316 433.733 230.316C432.879 230.316 432.221 230.932 432.221 231.716L432.207 231.674V236H430.163V228.762H432.207V229.672C432.641 229.014 433.453 228.594 434.391 228.594ZM444.208 226.214H446.252V236H444.208V234.964C443.634 235.72 442.794 236.168 441.772 236.168C439.84 236.168 438.44 234.6 438.44 232.374C438.44 230.162 439.84 228.594 441.772 228.594C442.794 228.594 443.634 229.042 444.208 229.798V226.214ZM442.36 234.446C443.438 234.446 444.208 233.592 444.208 232.374C444.208 231.17 443.438 230.316 442.36 230.316C441.226 230.316 440.428 231.17 440.428 232.374C440.428 233.592 441.226 234.446 442.36 234.446ZM452.834 236.168C450.076 236.168 447.724 233.886 447.724 231.184C447.724 228.482 450.076 226.214 452.834 226.214C455.62 226.214 457.944 228.482 457.944 231.184C457.944 233.886 455.62 236.168 452.834 236.168ZM452.834 234.292C454.458 234.292 455.83 232.864 455.83 231.184C455.83 229.518 454.458 228.09 452.834 228.09C451.224 228.09 449.852 229.518 449.852 231.184C449.852 232.864 451.224 234.292 452.834 234.292ZM461.83 228.37V228.762H463.398V230.414H461.83V236H459.87V230.414H458.876V228.762H459.87V228.132C459.87 226.83 460.766 225.92 462.04 225.92C462.628 225.92 463.286 226.172 463.706 226.55L463.216 227.796C463.076 227.656 462.796 227.558 462.516 227.558C462.138 227.558 461.83 227.894 461.83 228.37ZM464.852 236V226.382H468.296C471.53 226.382 473.826 228.37 473.826 231.184C473.826 233.998 471.53 236 468.296 236H464.852ZM466.91 234.124H468.562C470.396 234.124 471.698 232.906 471.698 231.184C471.698 229.476 470.396 228.258 468.562 228.258H466.91V234.124ZM478.597 228.594C480.487 228.594 481.775 229.784 481.775 231.674V236H479.801V235.272C479.283 235.86 478.457 236.168 477.673 236.168C476.133 236.168 474.943 235.244 474.943 233.858C474.943 232.43 476.273 231.45 477.953 231.45C478.541 231.45 479.185 231.576 479.801 231.814V231.674C479.801 230.904 479.325 230.232 478.135 230.232C477.463 230.232 476.833 230.456 476.259 230.75L475.573 229.392C476.595 228.874 477.589 228.594 478.597 228.594ZM478.135 234.754C478.919 234.754 479.661 234.39 479.801 233.718V233.046C479.339 232.878 478.807 232.78 478.247 232.78C477.505 232.78 476.917 233.214 476.917 233.802C476.917 234.39 477.435 234.754 478.135 234.754ZM485.15 238.52C484.548 238.52 483.82 238.338 483.33 238.072L483.764 236.672C484.114 236.868 484.478 236.994 484.716 236.994C485.108 236.994 485.416 236.868 485.57 236.602L485.822 236.07L482.812 228.762H484.926L486.83 233.844L488.636 228.762H490.722L487.754 236.364C487.208 237.778 486.284 238.52 485.15 238.52ZM498.238 236.168C497.104 236.168 495.872 235.51 495.284 234.572L496.082 233.788C496.46 234.6 497.356 235.174 498.238 235.174C499.372 235.174 500.184 234.222 500.184 232.864V226.382H501.276V232.864C501.276 234.796 500.016 236.168 498.238 236.168ZM506.904 236.168C504.874 236.168 503.152 234.432 503.152 232.374C503.152 230.316 504.874 228.594 506.904 228.594C508.934 228.594 510.642 230.316 510.642 232.374C510.642 234.432 508.934 236.168 506.904 236.168ZM506.904 235.23C508.332 235.23 509.536 233.928 509.536 232.374C509.536 230.834 508.332 229.532 506.904 229.532C505.462 229.532 504.258 230.834 504.258 232.374C504.258 233.928 505.462 235.23 506.904 235.23ZM516.157 228.594C518.061 228.594 519.489 230.162 519.489 232.374C519.489 234.6 518.061 236.168 516.157 236.168C514.995 236.168 514.071 235.594 513.525 234.642V236H512.475V226.214H513.525V230.12C514.071 229.168 514.995 228.594 516.157 228.594ZM515.961 235.23C517.375 235.23 518.382 234.04 518.382 232.374C518.382 230.708 517.375 229.532 515.961 229.532C514.533 229.532 513.525 230.708 513.525 232.374C513.525 234.04 514.533 235.23 515.961 235.23ZM527.003 227.768V228.762H528.781V229.7H527.003V236H525.953V229.7H524.819V228.762H525.953V227.768C525.953 226.69 526.681 225.92 527.717 225.92C528.207 225.92 528.683 226.088 529.061 226.382L528.543 227.152C528.389 226.984 528.109 226.858 527.787 226.858C527.367 226.858 527.003 227.236 527.003 227.768ZM533.633 236.168C531.603 236.168 529.881 234.432 529.881 232.374C529.881 230.316 531.603 228.594 533.633 228.594C535.663 228.594 537.371 230.316 537.371 232.374C537.371 234.432 535.663 236.168 533.633 236.168ZM533.633 235.23C535.061 235.23 536.265 233.928 536.265 232.374C536.265 230.834 535.061 229.532 533.633 229.532C532.191 229.532 530.987 230.834 530.987 232.374C530.987 233.928 532.191 235.23 533.633 235.23ZM540.253 230.176C540.687 229.21 541.723 228.594 543.053 228.594V229.532C541.415 229.532 540.253 230.54 540.253 231.954V236H539.203V228.762H540.253V230.176ZM548.118 236V234.32L551.66 231.576C552.808 230.666 553.172 230.036 553.172 229.364C553.172 228.566 552.5 228.09 551.716 228.09C550.778 228.09 550.064 228.566 549.364 229.364L548.048 228.09C549 226.886 550.218 226.214 551.772 226.214C553.816 226.214 555.3 227.474 555.3 229.28C555.3 230.568 554.74 231.562 553.06 232.78L551.31 234.138H555.384V236H548.118ZM561.003 236.168C558.469 236.168 556.691 234.11 556.691 231.184C556.691 228.272 558.469 226.214 561.003 226.214C563.537 226.214 565.329 228.272 565.329 231.184C565.329 234.11 563.537 236.168 561.003 236.168ZM561.003 234.292C562.305 234.292 563.201 232.99 563.201 231.184C563.201 229.378 562.305 228.09 561.003 228.09C559.715 228.09 558.805 229.378 558.805 231.184C558.805 232.99 559.715 234.292 561.003 234.292ZM566.561 236V234.32L570.103 231.576C571.251 230.666 571.615 230.036 571.615 229.364C571.615 228.566 570.943 228.09 570.159 228.09C569.221 228.09 568.507 228.566 567.807 229.364L566.491 228.09C567.443 226.886 568.661 226.214 570.215 226.214C572.259 226.214 573.743 227.474 573.743 229.28C573.743 230.568 573.183 231.562 571.503 232.78L569.753 234.138H573.827V236H566.561ZM578.732 236.182C576.996 236.182 575.68 235.496 574.868 234.558L576.086 233.186C576.758 233.914 577.668 234.32 578.634 234.32C579.698 234.32 580.314 233.83 580.314 233.144C580.314 232.402 579.74 232.024 578.438 232.038H577.332V230.274L578.438 230.288C579.488 230.288 580.118 229.896 580.118 229.21C580.118 228.51 579.46 228.062 578.508 228.062C577.598 228.062 576.884 228.51 576.24 229.182L575.05 227.922C575.848 226.956 576.996 226.214 578.704 226.214C580.874 226.214 582.232 227.32 582.232 228.846C582.232 229.952 581.476 230.75 580.426 231.058C581.476 231.296 582.442 232.038 582.442 233.312C582.442 234.978 580.972 236.182 578.732 236.182ZM582.658 237.036L587.488 225.598H589.644L584.814 237.036H582.658ZM594.403 236.168C591.869 236.168 590.091 234.11 590.091 231.184C590.091 228.272 591.869 226.214 594.403 226.214C596.937 226.214 598.729 228.272 598.729 231.184C598.729 234.11 596.937 236.168 594.403 236.168ZM594.403 234.292C595.705 234.292 596.601 232.99 596.601 231.184C596.601 229.378 595.705 228.09 594.403 228.09C593.115 228.09 592.205 229.378 592.205 231.184C592.205 232.99 593.115 234.292 594.403 234.292ZM602.006 236V228.748L600.368 229.77L599.542 228.314L602.426 226.382H604.078V236H602.006ZM604.82 237.036L609.65 225.598H611.806L606.976 237.036H604.82ZM616.565 236.168C614.031 236.168 612.253 234.11 612.253 231.184C612.253 228.272 614.031 226.214 616.565 226.214C619.099 226.214 620.891 228.272 620.891 231.184C620.891 234.11 619.099 236.168 616.565 236.168ZM616.565 234.292C617.867 234.292 618.763 232.99 618.763 231.184C618.763 229.378 617.867 228.09 616.565 228.09C615.277 228.09 614.367 229.378 614.367 231.184C614.367 232.99 615.277 234.292 616.565 234.292ZM624.168 236V228.748L622.53 229.77L621.704 228.314L624.588 226.382H626.24V236H624.168Z" fill="#161B1D"/>
<path d="M519.864 337V328.418H516.63V327.382H524.19V328.418H520.956V337H519.864ZM529.326 329.594C530.922 329.594 532.042 330.756 532.042 332.394V337H530.992V332.534C530.992 331.358 530.25 330.532 529.186 330.532C527.968 330.532 526.946 331.386 526.946 332.394V337H525.896V327.214H526.946V330.924C527.366 330.154 528.304 329.594 529.326 329.594ZM537.43 336.23C538.284 336.23 539.264 335.852 539.712 335.362L540.356 336.048C539.726 336.734 538.452 337.168 537.444 337.168C535.512 337.168 533.776 335.586 533.776 333.36C533.776 331.204 535.4 329.594 537.346 329.594C539.53 329.594 540.776 331.246 540.776 333.78H534.854C535.008 335.194 536.002 336.23 537.43 336.23ZM537.388 330.532C536.1 330.532 535.064 331.442 534.868 332.842H539.74C539.6 331.54 538.83 330.532 537.388 330.532ZM548.658 329.37V329.762H550.226V331.414H548.658V337H546.698V331.414H545.704V329.762H546.698V329.132C546.698 327.83 547.594 326.92 548.868 326.92C549.456 326.92 550.114 327.172 550.534 327.55L550.044 328.796C549.904 328.656 549.624 328.558 549.344 328.558C548.966 328.558 548.658 328.894 548.658 329.37ZM552.563 328.768C551.933 328.768 551.443 328.264 551.443 327.648C551.443 327.074 551.933 326.556 552.563 326.556C553.165 326.556 553.655 327.074 553.655 327.648C553.655 328.264 553.165 328.768 552.563 328.768ZM551.527 337V329.762H553.571V337H551.527ZM557.399 331.106C557.875 330.168 558.771 329.594 559.877 329.594V331.316C558.365 331.316 557.399 332.184 557.399 333.542V337H555.355V329.762H557.399V331.106ZM563.772 337.168C562.61 337.168 561.378 336.776 560.51 336.076L561.392 334.662C562.036 335.124 562.848 335.474 563.814 335.474C564.36 335.474 564.752 335.25 564.752 334.928C564.752 334.48 564.22 334.34 563.478 334.144C561.994 333.78 560.846 333.374 560.832 331.946C560.818 330.574 561.952 329.594 563.66 329.594C564.696 329.594 565.718 329.958 566.516 330.49L565.69 331.946C565.032 331.54 564.276 331.302 563.66 331.302C563.156 331.302 562.806 331.484 562.806 331.736C562.806 332.128 563.1 332.24 564.08 332.506C565.326 332.828 566.712 333.248 566.712 334.83C566.712 336.258 565.55 337.168 563.772 337.168ZM571.892 335.208L572.382 336.538C571.962 336.916 571.303 337.168 570.716 337.168C569.442 337.168 568.546 336.258 568.546 334.956V331.414H567.552V329.762H568.546V327.774H570.506V329.762H572.074V331.414H570.506V334.634C570.506 335.11 570.814 335.446 571.192 335.446C571.472 335.446 571.752 335.348 571.892 335.208ZM580.806 329.594C582.696 329.594 583.984 330.784 583.984 332.674V337H582.01V336.272C581.492 336.86 580.666 337.168 579.882 337.168C578.342 337.168 577.152 336.244 577.152 334.858C577.152 333.43 578.482 332.45 580.162 332.45C580.75 332.45 581.394 332.576 582.01 332.814V332.674C582.01 331.904 581.534 331.232 580.344 331.232C579.672 331.232 579.042 331.456 578.468 331.75L577.782 330.392C578.804 329.874 579.798 329.594 580.806 329.594ZM580.344 335.754C581.128 335.754 581.87 335.39 582.01 334.718V334.046C581.548 333.878 581.016 333.78 580.456 333.78C579.714 333.78 579.126 334.214 579.126 334.802C579.126 335.39 579.644 335.754 580.344 335.754ZM589.515 335.208L590.005 336.538C589.585 336.916 588.927 337.168 588.339 337.168C587.065 337.168 586.169 336.258 586.169 334.956V331.414H585.175V329.762H586.169V327.774H588.129V329.762H589.697V331.414H588.129V334.634C588.129 335.11 588.437 335.446 588.815 335.446C589.095 335.446 589.375 335.348 589.515 335.208ZM595.093 335.208L595.583 336.538C595.163 336.916 594.505 337.168 593.917 337.168C592.643 337.168 591.747 336.258 591.747 334.956V331.414H590.753V329.762H591.747V327.774H593.707V329.762H595.275V331.414H593.707V334.634C593.707 335.11 594.015 335.446 594.393 335.446C594.673 335.446 594.953 335.348 595.093 335.208ZM600.279 335.362C600.853 335.362 601.553 335.096 601.945 334.718L603.247 336.048C602.603 336.72 601.357 337.168 600.293 337.168C598.137 337.168 596.457 335.586 596.457 333.36C596.457 331.176 598.067 329.594 600.181 329.594C602.449 329.594 603.779 331.316 603.779 334.046H598.557C598.795 334.83 599.425 335.362 600.279 335.362ZM600.265 331.4C599.495 331.4 598.851 331.848 598.585 332.576H601.819C601.623 331.862 601.091 331.4 600.265 331.4ZM613.772 329.594C615.284 329.594 616.446 330.756 616.446 332.394V337.014H614.486V332.744C614.486 331.904 613.954 331.316 613.198 331.316C612.386 331.316 611.798 331.862 611.798 332.632V337.014H609.838V332.744C609.838 331.904 609.306 331.316 608.564 331.316C607.738 331.316 607.164 331.862 607.164 332.632V337H605.12V329.762H607.164V330.714C607.514 330.028 608.228 329.594 609.124 329.594C610.118 329.594 610.972 330.098 611.42 330.91C611.798 330.112 612.694 329.594 613.772 329.594ZM622.63 329.594C624.562 329.594 625.962 331.162 625.962 333.374C625.962 335.6 624.562 337.168 622.63 337.168C621.622 337.168 620.782 336.734 620.208 335.978V339.408H618.164V329.762H620.208V330.77C620.782 330.028 621.622 329.594 622.63 329.594ZM622.042 335.446C623.176 335.446 623.974 334.592 623.974 333.374C623.974 332.17 623.176 331.316 622.042 331.316C621.048 331.316 620.32 332.044 620.208 333.094V333.654C620.32 334.718 621.048 335.446 622.042 335.446ZM631.214 335.208L631.704 336.538C631.284 336.916 630.626 337.168 630.038 337.168C628.764 337.168 627.868 336.258 627.868 334.956V331.414H626.874V329.762H627.868V327.774H629.828V329.762H631.396V331.414H629.828V334.634C629.828 335.11 630.136 335.446 630.514 335.446C630.794 335.446 631.074 335.348 631.214 335.208ZM640.002 329.594C641.976 329.594 642.942 330.84 642.942 332.59V337H641.892V335.866C641.374 336.72 640.296 337.168 639.344 337.168C637.818 337.168 636.698 336.286 636.698 334.858C636.698 333.416 637.986 332.45 639.54 332.45C640.324 332.45 641.15 332.618 641.892 332.856V332.59C641.892 331.61 641.5 330.49 639.932 330.49C639.204 330.49 638.476 330.812 637.818 331.148L637.398 330.294C638.434 329.776 639.302 329.594 640.002 329.594ZM639.526 336.244C640.478 336.244 641.612 335.754 641.892 334.732V333.626C641.234 333.444 640.492 333.332 639.708 333.332C638.63 333.332 637.72 333.948 637.72 334.816C637.72 335.712 638.504 336.244 639.526 336.244ZM648.265 335.936L648.783 336.706C648.405 337 647.929 337.168 647.439 337.168C646.403 337.168 645.675 336.398 645.675 335.32V330.7H644.541V329.762H645.675V327.774H646.725V329.762H648.503V330.7H646.725V335.32C646.725 335.852 647.089 336.23 647.509 336.23C647.831 336.23 648.111 336.104 648.265 335.936ZM524.358 346.244H519.024V348.162H523.854V350.024H519.024V352.138H524.358V354H516.952V344.382H524.358V346.244ZM530.051 346.594C531.619 346.594 532.739 347.756 532.739 349.394V354H530.765V349.828C530.765 348.932 530.205 348.316 529.393 348.316C528.539 348.316 527.881 348.932 527.881 349.716L527.867 349.674V354H525.823V346.762H527.867V347.672C528.301 347.014 529.113 346.594 530.051 346.594ZM539.868 344.214H541.912V354H539.868V352.964C539.294 353.72 538.454 354.168 537.432 354.168C535.5 354.168 534.1 352.6 534.1 350.374C534.1 348.162 535.5 346.594 537.432 346.594C538.454 346.594 539.294 347.042 539.868 347.798V344.214ZM538.02 352.446C539.098 352.446 539.868 351.592 539.868 350.374C539.868 349.17 539.098 348.316 538.02 348.316C536.886 348.316 536.088 349.17 536.088 350.374C536.088 351.592 536.886 352.446 538.02 352.446ZM548.495 354.168C545.737 354.168 543.385 351.886 543.385 349.184C543.385 346.482 545.737 344.214 548.495 344.214C551.281 344.214 553.605 346.482 553.605 349.184C553.605 351.886 551.281 354.168 548.495 354.168ZM548.495 352.292C550.119 352.292 551.491 350.864 551.491 349.184C551.491 347.518 550.119 346.09 548.495 346.09C546.885 346.09 545.513 347.518 545.513 349.184C545.513 350.864 546.885 352.292 548.495 352.292ZM557.49 346.37V346.762H559.058V348.414H557.49V354H555.53V348.414H554.536V346.762H555.53V346.132C555.53 344.83 556.426 343.92 557.7 343.92C558.288 343.92 558.946 344.172 559.366 344.55L558.876 345.796C558.736 345.656 558.456 345.558 558.176 345.558C557.798 345.558 557.49 345.894 557.49 346.37ZM560.513 354V344.382H563.957C567.191 344.382 569.487 346.37 569.487 349.184C569.487 351.998 567.191 354 563.957 354H560.513ZM562.571 352.124H564.223C566.057 352.124 567.359 350.906 567.359 349.184C567.359 347.476 566.057 346.258 564.223 346.258H562.571V352.124ZM574.257 346.594C576.147 346.594 577.435 347.784 577.435 349.674V354H575.461V353.272C574.943 353.86 574.117 354.168 573.333 354.168C571.793 354.168 570.603 353.244 570.603 351.858C570.603 350.43 571.933 349.45 573.613 349.45C574.201 349.45 574.845 349.576 575.461 349.814V349.674C575.461 348.904 574.985 348.232 573.795 348.232C573.123 348.232 572.493 348.456 571.919 348.75L571.233 347.392C572.255 346.874 573.249 346.594 574.257 346.594ZM573.795 352.754C574.579 352.754 575.321 352.39 575.461 351.718V351.046C574.999 350.878 574.467 350.78 573.907 350.78C573.165 350.78 572.577 351.214 572.577 351.802C572.577 352.39 573.095 352.754 573.795 352.754ZM580.81 356.52C580.208 356.52 579.48 356.338 578.99 356.072L579.424 354.672C579.774 354.868 580.138 354.994 580.376 354.994C580.768 354.994 581.076 354.868 581.23 354.602L581.482 354.07L578.472 346.762H580.586L582.49 351.844L584.296 346.762H586.382L583.414 354.364C582.868 355.778 581.944 356.52 580.81 356.52ZM593.898 354.168C592.764 354.168 591.532 353.51 590.944 352.572L591.742 351.788C592.12 352.6 593.016 353.174 593.898 353.174C595.032 353.174 595.844 352.222 595.844 350.864V344.382H596.936V350.864C596.936 352.796 595.676 354.168 593.898 354.168ZM602.565 354.168C600.535 354.168 598.813 352.432 598.813 350.374C598.813 348.316 600.535 346.594 602.565 346.594C604.595 346.594 606.303 348.316 606.303 350.374C606.303 352.432 604.595 354.168 602.565 354.168ZM602.565 353.23C603.993 353.23 605.197 351.928 605.197 350.374C605.197 348.834 603.993 347.532 602.565 347.532C601.123 347.532 599.919 348.834 599.919 350.374C599.919 351.928 601.123 353.23 602.565 353.23ZM611.817 346.594C613.721 346.594 615.149 348.162 615.149 350.374C615.149 352.6 613.721 354.168 611.817 354.168C610.655 354.168 609.731 353.594 609.185 352.642V354H608.135V344.214H609.185V348.12C609.731 347.168 610.655 346.594 611.817 346.594ZM611.621 353.23C613.035 353.23 614.043 352.04 614.043 350.374C614.043 348.708 613.035 347.532 611.621 347.532C610.193 347.532 609.185 348.708 609.185 350.374C609.185 352.04 610.193 353.23 611.621 353.23ZM518.702 362.768V363.762H520.48V364.7H518.702V371H517.652V364.7H516.518V363.762H517.652V362.768C517.652 361.69 518.38 360.92 519.416 360.92C519.906 360.92 520.382 361.088 520.76 361.382L520.242 362.152C520.088 361.984 519.808 361.858 519.486 361.858C519.066 361.858 518.702 362.236 518.702 362.768ZM525.332 371.168C523.302 371.168 521.58 369.432 521.58 367.374C521.58 365.316 523.302 363.594 525.332 363.594C527.362 363.594 529.07 365.316 529.07 367.374C529.07 369.432 527.362 371.168 525.332 371.168ZM525.332 370.23C526.76 370.23 527.964 368.928 527.964 367.374C527.964 365.834 526.76 364.532 525.332 364.532C523.89 364.532 522.686 365.834 522.686 367.374C522.686 368.928 523.89 370.23 525.332 370.23ZM531.952 365.176C532.386 364.21 533.422 363.594 534.752 363.594V364.532C533.114 364.532 531.952 365.54 531.952 366.954V371H530.902V363.762H531.952V365.176ZM539.817 371V369.32L543.359 366.576C544.507 365.666 544.871 365.036 544.871 364.364C544.871 363.566 544.199 363.09 543.415 363.09C542.477 363.09 541.763 363.566 541.063 364.364L539.747 363.09C540.699 361.886 541.917 361.214 543.471 361.214C545.515 361.214 546.999 362.474 546.999 364.28C546.999 365.568 546.439 366.562 544.759 367.78L543.009 369.138H547.083V371H539.817ZM552.702 371.168C550.168 371.168 548.39 369.11 548.39 366.184C548.39 363.272 550.168 361.214 552.702 361.214C555.236 361.214 557.028 363.272 557.028 366.184C557.028 369.11 555.236 371.168 552.702 371.168ZM552.702 369.292C554.004 369.292 554.9 367.99 554.9 366.184C554.9 364.378 554.004 363.09 552.702 363.09C551.414 363.09 550.504 364.378 550.504 366.184C550.504 367.99 551.414 369.292 552.702 369.292ZM558.261 371V369.32L561.803 366.576C562.951 365.666 563.315 365.036 563.315 364.364C563.315 363.566 562.643 363.09 561.859 363.09C560.921 363.09 560.207 363.566 559.507 364.364L558.191 363.09C559.143 361.886 560.361 361.214 561.915 361.214C563.959 361.214 565.443 362.474 565.443 364.28C565.443 365.568 564.883 366.562 563.203 367.78L561.453 369.138H565.527V371H558.261ZM570.431 371.182C568.695 371.182 567.379 370.496 566.567 369.558L567.785 368.186C568.457 368.914 569.367 369.32 570.333 369.32C571.397 369.32 572.013 368.83 572.013 368.144C572.013 367.402 571.439 367.024 570.137 367.038H569.031V365.274L570.137 365.288C571.187 365.288 571.817 364.896 571.817 364.21C571.817 363.51 571.159 363.062 570.207 363.062C569.297 363.062 568.583 363.51 567.939 364.182L566.749 362.922C567.547 361.956 568.695 361.214 570.403 361.214C572.573 361.214 573.931 362.32 573.931 363.846C573.931 364.952 573.175 365.75 572.125 366.058C573.175 366.296 574.141 367.038 574.141 368.312C574.141 369.978 572.671 371.182 570.431 371.182ZM574.357 372.036L579.187 360.598H581.343L576.513 372.036H574.357ZM586.102 371.168C583.568 371.168 581.79 369.11 581.79 366.184C581.79 363.272 583.568 361.214 586.102 361.214C588.636 361.214 590.428 363.272 590.428 366.184C590.428 369.11 588.636 371.168 586.102 371.168ZM586.102 369.292C587.404 369.292 588.3 367.99 588.3 366.184C588.3 364.378 587.404 363.09 586.102 363.09C584.814 363.09 583.904 364.378 583.904 366.184C583.904 367.99 584.814 369.292 586.102 369.292ZM593.705 371V363.748L592.067 364.77L591.241 363.314L594.125 361.382H595.777V371H593.705ZM596.519 372.036L601.349 360.598H603.505L598.675 372.036H596.519ZM608.264 371.168C605.73 371.168 603.952 369.11 603.952 366.184C603.952 363.272 605.73 361.214 608.264 361.214C610.798 361.214 612.59 363.272 612.59 366.184C612.59 369.11 610.798 371.168 608.264 371.168ZM608.264 369.292C609.566 369.292 610.462 367.99 610.462 366.184C610.462 364.378 609.566 363.09 608.264 363.09C606.976 363.09 606.066 364.378 606.066 366.184C606.066 367.99 606.976 369.292 608.264 369.292ZM615.867 371V363.748L614.229 364.77L613.403 363.314L616.287 361.382H617.939V371H615.867Z" fill="#161B1D"/>
<path d="M522.079 166.168C521.071 166.168 519.951 165.79 519.083 165.09L519.629 164.32C520.455 164.922 521.281 165.23 522.079 165.23C523.031 165.23 523.675 164.782 523.675 164.096C523.675 163.312 522.835 163.06 521.855 162.78C520.105 162.276 519.433 161.758 519.433 160.722C519.433 159.406 520.525 158.594 521.967 158.594C522.863 158.594 523.787 158.902 524.557 159.406L524.053 160.218C523.325 159.756 522.611 159.532 521.967 159.532C521.155 159.532 520.483 159.896 520.483 160.596C520.483 161.226 521.015 161.422 522.359 161.856C523.521 162.22 524.725 162.612 524.725 163.984C524.725 165.314 523.577 166.168 522.079 166.168ZM529.822 166.168C527.792 166.168 526.07 164.432 526.07 162.374C526.07 160.316 527.792 158.594 529.822 158.594C530.802 158.594 531.712 159 532.398 159.658L531.67 160.372C531.194 159.854 530.536 159.532 529.822 159.532C528.38 159.532 527.176 160.834 527.176 162.374C527.176 163.928 528.38 165.23 529.822 165.23C530.55 165.23 531.222 164.894 531.712 164.348L532.44 165.062C531.754 165.748 530.83 166.168 529.822 166.168ZM537.494 158.594C539.09 158.594 540.21 159.756 540.21 161.394V166H539.16V161.534C539.16 160.358 538.418 159.532 537.354 159.532C536.136 159.532 535.114 160.386 535.114 161.394V166H534.064V156.214H535.114V159.924C535.534 159.154 536.472 158.594 537.494 158.594ZM545.597 165.23C546.451 165.23 547.431 164.852 547.879 164.362L548.523 165.048C547.893 165.734 546.619 166.168 545.611 166.168C543.679 166.168 541.943 164.586 541.943 162.36C541.943 160.204 543.567 158.594 545.513 158.594C547.697 158.594 548.943 160.246 548.943 162.78H543.021C543.175 164.194 544.169 165.23 545.597 165.23ZM545.555 159.532C544.267 159.532 543.231 160.442 543.035 161.842H547.907C547.767 160.54 546.997 159.532 545.555 159.532ZM556.318 156.214H557.368V166H556.318V164.642C555.772 165.594 554.848 166.168 553.686 166.168C551.782 166.168 550.354 164.6 550.354 162.374C550.354 160.162 551.782 158.594 553.686 158.594C554.848 158.594 555.772 159.168 556.318 160.12V156.214ZM553.882 165.23C555.31 165.23 556.318 164.04 556.318 162.374C556.318 160.708 555.31 159.532 553.882 159.532C552.468 159.532 551.46 160.708 551.46 162.374C551.46 164.04 552.468 165.23 553.882 165.23ZM564.685 158.762H565.735V166H564.685V164.838C564.265 165.608 563.327 166.168 562.305 166.168C560.709 166.168 559.589 165.006 559.589 163.368V158.762H560.639V163.228C560.639 164.404 561.381 165.23 562.445 165.23C563.663 165.23 564.685 164.376 564.685 163.368V158.762ZM567.875 166V156.214H568.925V166H567.875ZM574.308 165.23C575.162 165.23 576.142 164.852 576.59 164.362L577.234 165.048C576.604 165.734 575.33 166.168 574.322 166.168C572.39 166.168 570.654 164.586 570.654 162.36C570.654 160.204 572.278 158.594 574.224 158.594C576.408 158.594 577.654 160.246 577.654 162.78H571.732C571.886 164.194 572.88 165.23 574.308 165.23ZM574.266 159.532C572.978 159.532 571.942 160.442 571.746 161.842H576.618C576.478 160.54 575.708 159.532 574.266 159.532ZM580.101 166.168C579.667 166.168 579.331 165.818 579.331 165.398C579.331 165.006 579.667 164.656 580.101 164.656C580.507 164.656 580.843 165.006 580.843 165.398C580.843 165.818 580.507 166.168 580.101 166.168ZM588.57 156.214H589.62V166H588.57V164.642C588.024 165.594 587.1 166.168 585.938 166.168C584.034 166.168 582.606 164.6 582.606 162.374C582.606 160.162 584.034 158.594 585.938 158.594C587.1 158.594 588.024 159.168 588.57 160.12V156.214ZM586.134 165.23C587.562 165.23 588.57 164.04 588.57 162.374C588.57 160.708 587.562 159.532 586.134 159.532C584.72 159.532 583.712 160.708 583.712 162.374C583.712 164.04 584.72 165.23 586.134 165.23ZM594.781 158.594C596.755 158.594 597.721 159.84 597.721 161.59V166H596.671V164.866C596.153 165.72 595.075 166.168 594.123 166.168C592.597 166.168 591.477 165.286 591.477 163.858C591.477 162.416 592.765 161.45 594.319 161.45C595.103 161.45 595.929 161.618 596.671 161.856V161.59C596.671 160.61 596.279 159.49 594.711 159.49C593.983 159.49 593.255 159.812 592.597 160.148L592.177 159.294C593.213 158.776 594.081 158.594 594.781 158.594ZM594.305 165.244C595.257 165.244 596.391 164.754 596.671 163.732V162.626C596.013 162.444 595.271 162.332 594.487 162.332C593.409 162.332 592.499 162.948 592.499 163.816C592.499 164.712 593.283 165.244 594.305 165.244ZM603.045 164.936L603.563 165.706C603.185 166 602.709 166.168 602.219 166.168C601.183 166.168 600.455 165.398 600.455 164.32V159.7H599.321V158.762H600.455V156.774H601.505V158.762H603.283V159.7H601.505V164.32C601.505 164.852 601.869 165.23 602.289 165.23C602.611 165.23 602.891 165.104 603.045 164.936ZM608.31 165.23C609.164 165.23 610.144 164.852 610.592 164.362L611.236 165.048C610.606 165.734 609.332 166.168 608.324 166.168C606.392 166.168 604.656 164.586 604.656 162.36C604.656 160.204 606.28 158.594 608.226 158.594C610.41 158.594 611.656 160.246 611.656 162.78H605.734C605.888 164.194 606.882 165.23 608.31 165.23ZM608.268 159.532C606.98 159.532 605.944 160.442 605.748 161.842H610.62C610.48 160.54 609.71 159.532 608.268 159.532ZM617.309 160.302V159.266H623.735V160.302H617.309ZM617.309 163.382V162.346H623.735V163.382H617.309ZM629.346 166V164.32L632.888 161.576C634.036 160.666 634.4 160.036 634.4 159.364C634.4 158.566 633.728 158.09 632.944 158.09C632.006 158.09 631.292 158.566 630.592 159.364L629.276 158.09C630.228 156.886 631.446 156.214 633 156.214C635.044 156.214 636.528 157.474 636.528 159.28C636.528 160.568 635.968 161.562 634.288 162.78L632.538 164.138H636.612V166H629.346ZM642.231 166.168C639.697 166.168 637.919 164.11 637.919 161.184C637.919 158.272 639.697 156.214 642.231 156.214C644.765 156.214 646.557 158.272 646.557 161.184C646.557 164.11 644.765 166.168 642.231 166.168ZM642.231 164.292C643.533 164.292 644.429 162.99 644.429 161.184C644.429 159.378 643.533 158.09 642.231 158.09C640.943 158.09 640.033 159.378 640.033 161.184C640.033 162.99 640.943 164.292 642.231 164.292ZM647.79 166V164.32L651.332 161.576C652.48 160.666 652.844 160.036 652.844 159.364C652.844 158.566 652.172 158.09 651.388 158.09C650.45 158.09 649.736 158.566 649.036 159.364L647.72 158.09C648.672 156.886 649.89 156.214 651.444 156.214C653.488 156.214 654.972 157.474 654.972 159.28C654.972 160.568 654.412 161.562 652.732 162.78L650.982 164.138H655.056V166H647.79ZM659.96 166.182C658.224 166.182 656.908 165.496 656.096 164.558L657.314 163.186C657.986 163.914 658.896 164.32 659.862 164.32C660.926 164.32 661.542 163.83 661.542 163.144C661.542 162.402 660.968 162.024 659.666 162.038H658.56V160.274L659.666 160.288C660.716 160.288 661.346 159.896 661.346 159.21C661.346 158.51 660.688 158.062 659.736 158.062C658.826 158.062 658.112 158.51 657.468 159.182L656.278 157.922C657.076 156.956 658.224 156.214 659.932 156.214C662.102 156.214 663.46 157.32 663.46 158.846C663.46 159.952 662.704 160.75 661.654 161.058C662.704 161.296 663.67 162.038 663.67 163.312C663.67 164.978 662.2 166.182 659.96 166.182ZM663.887 167.036L668.717 155.598H670.873L666.043 167.036H663.887ZM675.631 166.168C673.097 166.168 671.319 164.11 671.319 161.184C671.319 158.272 673.097 156.214 675.631 156.214C678.165 156.214 679.957 158.272 679.957 161.184C679.957 164.11 678.165 166.168 675.631 166.168ZM675.631 164.292C676.933 164.292 677.829 162.99 677.829 161.184C677.829 159.378 676.933 158.09 675.631 158.09C674.343 158.09 673.433 159.378 673.433 161.184C673.433 162.99 674.343 164.292 675.631 164.292ZM683.234 166V158.748L681.596 159.77L680.77 158.314L683.654 156.382H685.306V166H683.234ZM686.049 167.036L690.879 155.598H693.035L688.205 167.036H686.049ZM697.794 166.168C695.26 166.168 693.482 164.11 693.482 161.184C693.482 158.272 695.26 156.214 697.794 156.214C700.328 156.214 702.12 158.272 702.12 161.184C702.12 164.11 700.328 166.168 697.794 166.168ZM697.794 164.292C699.096 164.292 699.992 162.99 699.992 161.184C699.992 159.378 699.096 158.09 697.794 158.09C696.506 158.09 695.596 159.378 695.596 161.184C695.596 162.99 696.506 164.292 697.794 164.292ZM705.396 166V158.748L703.758 159.77L702.932 158.314L705.816 156.382H707.468V166H705.396Z" fill="#161B1D"/>
<rect x="119" y="190" width="149" height="52" rx="7" fill="white"/>
<path d="M155.052 220.168C153.82 220.168 152.476 219.51 151.832 218.572L153.204 217.228C153.512 217.858 154.198 218.292 154.842 218.292C155.682 218.292 156.298 217.634 156.298 216.696V210.382H158.37V216.864C158.37 218.796 156.998 220.168 155.052 220.168ZM163.745 220.168C161.589 220.168 159.783 218.432 159.783 216.374C159.783 214.316 161.589 212.594 163.745 212.594C165.887 212.594 167.679 214.316 167.679 216.374C167.679 218.432 165.887 220.168 163.745 220.168ZM163.745 218.446C164.823 218.446 165.733 217.494 165.733 216.374C165.733 215.254 164.823 214.316 163.745 214.316C162.653 214.316 161.743 215.254 161.743 216.374C161.743 217.494 162.653 218.446 163.745 218.446ZM173.528 212.594C175.46 212.594 176.86 214.162 176.86 216.374C176.86 218.6 175.46 220.168 173.528 220.168C172.52 220.168 171.68 219.734 171.106 218.978V220H169.062V210.214H171.106V213.77C171.68 213.028 172.52 212.594 173.528 212.594ZM172.94 218.446C174.074 218.446 174.872 217.592 174.872 216.374C174.872 215.17 174.074 214.316 172.94 214.316C171.946 214.316 171.218 215.044 171.106 216.094V216.654C171.218 217.718 171.946 218.446 172.94 218.446ZM178.388 220V210.382H180.46V220H178.388ZM186.51 212.594C188.078 212.594 189.198 213.756 189.198 215.394V220H187.224V215.828C187.224 214.932 186.664 214.316 185.852 214.316C184.998 214.316 184.34 214.932 184.34 215.716L184.326 215.674V220H182.282V212.762H184.326V213.672C184.76 213.014 185.572 212.594 186.51 212.594ZM193.639 220.168C192.477 220.168 191.245 219.776 190.377 219.076L191.259 217.662C191.903 218.124 192.715 218.474 193.681 218.474C194.227 218.474 194.619 218.25 194.619 217.928C194.619 217.48 194.087 217.34 193.345 217.144C191.861 216.78 190.713 216.374 190.699 214.946C190.685 213.574 191.819 212.594 193.527 212.594C194.563 212.594 195.585 212.958 196.383 213.49L195.557 214.946C194.899 214.54 194.143 214.302 193.527 214.302C193.023 214.302 192.673 214.484 192.673 214.736C192.673 215.128 192.967 215.24 193.947 215.506C195.193 215.828 196.579 216.248 196.579 217.83C196.579 219.258 195.417 220.168 193.639 220.168ZM201.759 218.208L202.249 219.538C201.829 219.916 201.171 220.168 200.583 220.168C199.309 220.168 198.413 219.258 198.413 217.956V214.414H197.419V212.762H198.413V210.774H200.373V212.762H201.941V214.414H200.373V217.634C200.373 218.11 200.681 218.446 201.059 218.446C201.339 218.446 201.619 218.348 201.759 218.208ZM206.763 212.594C208.653 212.594 209.941 213.784 209.941 215.674V220H207.967V219.272C207.449 219.86 206.623 220.168 205.839 220.168C204.299 220.168 203.109 219.244 203.109 217.858C203.109 216.43 204.439 215.45 206.119 215.45C206.707 215.45 207.351 215.576 207.967 215.814V215.674C207.967 214.904 207.491 214.232 206.301 214.232C205.629 214.232 204.999 214.456 204.425 214.75L203.739 213.392C204.761 212.874 205.755 212.594 206.763 212.594ZM206.301 218.754C207.085 218.754 207.827 218.39 207.967 217.718V217.046C207.505 216.878 206.973 216.78 206.413 216.78C205.671 216.78 205.083 217.214 205.083 217.802C205.083 218.39 205.601 218.754 206.301 218.754ZM215.85 212.594C217.418 212.594 218.538 213.756 218.538 215.394V220H216.564V215.828C216.564 214.932 216.004 214.316 215.192 214.316C214.338 214.316 213.68 214.932 213.68 215.716L213.666 215.674V220H211.622V212.762H213.666V213.672C214.1 213.014 214.912 212.594 215.85 212.594ZM223.805 220.168C221.663 220.168 219.857 218.432 219.857 216.374C219.857 214.316 221.677 212.594 223.819 212.594C224.995 212.594 225.961 213.07 226.661 213.826L225.303 214.988C224.939 214.582 224.365 214.316 223.805 214.316C222.741 214.316 221.845 215.254 221.845 216.36C221.845 217.494 222.741 218.446 223.819 218.446C224.379 218.446 224.967 218.166 225.345 217.746L226.703 218.894C225.989 219.678 225.009 220.168 223.805 220.168ZM231.349 218.362C231.923 218.362 232.623 218.096 233.015 217.718L234.317 219.048C233.673 219.72 232.427 220.168 231.363 220.168C229.207 220.168 227.527 218.586 227.527 216.36C227.527 214.176 229.137 212.594 231.251 212.594C233.519 212.594 234.849 214.316 234.849 217.046H229.627C229.865 217.83 230.495 218.362 231.349 218.362ZM231.335 214.4C230.565 214.4 229.921 214.848 229.655 215.576H232.889C232.693 214.862 232.161 214.4 231.335 214.4Z" fill="#161B1D"/>
<rect x="119" y="190" width="149" height="52" rx="7" stroke="#161B1D" stroke-width="2"/>
<rect x="191" y="324" width="149" height="52" rx="7" fill="white"/>
<path d="M221.85 354.168C220.618 354.168 219.274 353.51 218.63 352.572L220.002 351.228C220.31 351.858 220.996 352.292 221.64 352.292C222.48 352.292 223.096 351.634 223.096 350.696V344.382H225.168V350.864C225.168 352.796 223.796 354.168 221.85 354.168ZM230.543 354.168C228.387 354.168 226.581 352.432 226.581 350.374C226.581 348.316 228.387 346.594 230.543 346.594C232.685 346.594 234.477 348.316 234.477 350.374C234.477 352.432 232.685 354.168 230.543 354.168ZM230.543 352.446C231.621 352.446 232.531 351.494 232.531 350.374C232.531 349.254 231.621 348.316 230.543 348.316C229.451 348.316 228.541 349.254 228.541 350.374C228.541 351.494 229.451 352.446 230.543 352.446ZM240.326 346.594C242.258 346.594 243.658 348.162 243.658 350.374C243.658 352.6 242.258 354.168 240.326 354.168C239.318 354.168 238.478 353.734 237.904 352.978V354H235.86V344.214H237.904V347.77C238.478 347.028 239.318 346.594 240.326 346.594ZM239.738 352.446C240.872 352.446 241.67 351.592 241.67 350.374C241.67 349.17 240.872 348.316 239.738 348.316C238.744 348.316 238.016 349.044 237.904 350.094V350.654C238.016 351.718 238.744 352.446 239.738 352.446ZM252.564 346.244H247.23V348.162H252.06V350.024H247.23V352.138H252.564V354H245.158V344.382H252.564V346.244ZM260.889 354H258.691L257.123 351.816L255.541 354H253.385L256.045 350.318L253.497 346.762H255.709L257.151 348.778L258.607 346.762H260.763L258.229 350.276L260.889 354ZM265.416 352.362C265.99 352.362 266.69 352.096 267.082 351.718L268.384 353.048C267.74 353.72 266.494 354.168 265.43 354.168C263.274 354.168 261.594 352.586 261.594 350.36C261.594 348.176 263.204 346.594 265.318 346.594C267.586 346.594 268.916 348.316 268.916 351.046H263.694C263.932 351.83 264.562 352.362 265.416 352.362ZM265.402 348.4C264.632 348.4 263.988 348.848 263.722 349.576H266.956C266.76 348.862 266.228 348.4 265.402 348.4ZM273.841 354.168C271.699 354.168 269.893 352.432 269.893 350.374C269.893 348.316 271.713 346.594 273.855 346.594C275.031 346.594 275.997 347.07 276.697 347.826L275.339 348.988C274.975 348.582 274.401 348.316 273.841 348.316C272.777 348.316 271.881 349.254 271.881 350.36C271.881 351.494 272.777 352.446 273.855 352.446C274.415 352.446 275.003 352.166 275.381 351.746L276.739 352.894C276.025 353.678 275.045 354.168 273.841 354.168ZM282.771 346.762H284.815V354H282.771V353.09C282.337 353.748 281.525 354.168 280.587 354.168C279.019 354.168 277.899 353.006 277.899 351.368V346.762H279.873V350.934C279.873 351.83 280.433 352.446 281.245 352.446C282.099 352.446 282.757 351.83 282.757 351.046L282.771 351.088V346.762ZM290.377 352.208L290.867 353.538C290.447 353.916 289.789 354.168 289.201 354.168C287.927 354.168 287.031 353.258 287.031 351.956V348.414H286.037V346.762H287.031V344.774H288.991V346.762H290.559V348.414H288.991V351.634C288.991 352.11 289.299 352.446 289.677 352.446C289.957 352.446 290.237 352.348 290.377 352.208ZM293.169 345.768C292.539 345.768 292.049 345.264 292.049 344.648C292.049 344.074 292.539 343.556 293.169 343.556C293.771 343.556 294.261 344.074 294.261 344.648C294.261 345.264 293.771 345.768 293.169 345.768ZM292.133 354V346.762H294.177V354H292.133ZM299.517 354.168C297.361 354.168 295.555 352.432 295.555 350.374C295.555 348.316 297.361 346.594 299.517 346.594C301.659 346.594 303.451 348.316 303.451 350.374C303.451 352.432 301.659 354.168 299.517 354.168ZM299.517 352.446C300.595 352.446 301.505 351.494 301.505 350.374C301.505 349.254 300.595 348.316 299.517 348.316C298.425 348.316 297.515 349.254 297.515 350.374C297.515 351.494 298.425 352.446 299.517 352.446ZM309.02 346.594C310.588 346.594 311.708 347.756 311.708 349.394V354H309.734V349.828C309.734 348.932 309.174 348.316 308.362 348.316C307.508 348.316 306.85 348.932 306.85 349.716L306.836 349.674V354H304.792V346.762H306.836V347.672C307.27 347.014 308.082 346.594 309.02 346.594Z" fill="#161B1D"/>
<rect x="191" y="324" width="149" height="52" rx="7" stroke="#161B1D" stroke-width="2"/>
<path d="M283 87C283.552 87 284 86.5523 284 86C284 85.4477 283.552 85 283 85L283 87ZM197.293 85.2929C196.902 85.6834 196.902 86.3166 197.293 86.7071L203.657 93.0711C204.047 93.4616 204.681 93.4616 205.071 93.0711C205.462 92.6806 205.462 92.0474 205.071 91.6569L199.414 86L205.071 80.3432C205.462 79.9526 205.462 79.3195 205.071 78.9289C204.681 78.5384 204.047 78.5384 203.657 78.9289L197.293 85.2929ZM283 85L198 85L198 87L283 87L283 85Z" fill="#4F822E"/>
<path d="M510 163C510.552 163 511 162.552 511 162C511 161.448 510.552 161 510 161L510 163ZM466.293 161.293C465.902 161.683 465.902 162.317 466.293 162.707L472.657 169.071C473.047 169.462 473.681 169.462 474.071 169.071C474.462 168.681 474.462 168.047 474.071 167.657L468.414 162L474.071 156.343C474.462 155.953 474.462 155.319 474.071 154.929C473.681 154.538 473.047 154.538 472.657 154.929L466.293 161.293ZM510 161L467 161L467 163L510 163L510 161Z" fill="#4F822E"/>
<path d="M383 232C383.552 232 384 231.552 384 231C384 230.448 383.552 230 383 230L383 232ZM301.293 230.293C300.902 230.683 300.902 231.317 301.293 231.707L307.657 238.071C308.047 238.462 308.681 238.462 309.071 238.071C309.462 237.681 309.462 237.047 309.071 236.657L303.414 231L309.071 225.343C309.462 224.953 309.462 224.319 309.071 223.929C308.681 223.538 308.047 223.538 307.657 223.929L301.293 230.293ZM383 230L302 230L302 232L383 232L383 230Z" fill="#4F822E"/>
<path d="M508 351C508.552 351 509 350.552 509 350C509 349.448 508.552 349 508 349V351ZM348.293 349.293C347.902 349.683 347.902 350.317 348.293 350.707L354.657 357.071C355.047 357.462 355.681 357.462 356.071 357.071C356.462 356.681 356.462 356.047 356.071 355.657L350.414 350L356.071 344.343C356.462 343.953 356.462 343.319 356.071 342.929C355.681 342.538 355.047 342.538 354.657 342.929L348.293 349.293ZM508 349H349V351H508V349Z" fill="#4F822E"/>
<rect x="117.822" y="117.279" width="8" height="63.7989" rx="2" transform="rotate(-30 117.822 117.279)" fill="#161B1D"/>
<path d="M159.654 178.618C159.459 179.881 158.146 180.639 156.955 180.177L143.837 175.088C142.271 174.481 142.106 172.331 143.56 171.492L158.83 162.675C160.284 161.836 162.063 163.054 161.807 164.713L159.654 178.618Z" fill="#161B1D"/>
<rect width="8" height="41.1434" rx="2" transform="matrix(-0.549508 -0.835488 -0.835488 0.549508 320.988 195.874)" fill="#161B1D"/>
<path d="M275.006 219.465C274.614 220.681 275.447 221.947 276.719 222.069L290.725 223.409C292.397 223.569 293.509 221.722 292.586 220.319L282.897 205.588C281.975 204.185 279.838 204.475 279.323 206.073L275.006 219.465Z" fill="#161B1D"/>
<rect x="199.526" y="252.5" width="8" height="63.7989" rx="2" transform="rotate(-30 199.526 252.5)" fill="#161B1D"/>
<path d="M241.358 313.838C241.163 315.101 239.85 315.859 238.659 315.397L225.541 310.309C223.975 309.701 223.81 307.552 225.264 306.712L240.534 297.896C241.989 297.056 243.768 298.274 243.511 299.934L241.358 313.838Z" fill="#161B1D"/>
</g>
<defs>
<clipPath id="clip0_303_269530">
<rect width="743" height="431" fill="white"/>
</clipPath>
</defs>
</svg>
