<svg width="743" height="431" viewBox="0 0 743 431" fill="none" xmlns="http://www.w3.org/2000/svg">
<g clip-path="url(#clip0_125_268743)">
<rect width="743" height="431" fill="#EBF2F2"/>
<path d="M89.0675 537L538.568 -3.5C339.068 -8.66667 -63.1325 -19 -75.9325 -19C-88.7325 -19 -81.2658 280.333 -75.9325 430L89.0675 537Z" fill="#D7E7E7"/>
<circle cx="489.318" cy="38.3182" r="3.31818" fill="#B6D8D1" style="mix-blend-mode:multiply"/>
<circle cx="505.909" cy="38.3182" r="3.31818" fill="#B6D8D1" style="mix-blend-mode:multiply"/>
<circle cx="522.5" cy="38.3182" r="3.31818" fill="#B6D8D1" style="mix-blend-mode:multiply"/>
<circle cx="539.091" cy="38.3182" r="3.31818" fill="#B6D8D1" style="mix-blend-mode:multiply"/>
<circle cx="555.682" cy="38.3182" r="3.31818" fill="#B6D8D1" style="mix-blend-mode:multiply"/>
<circle cx="489.318" cy="54.9091" r="3.31818" fill="#B6D8D1" style="mix-blend-mode:multiply"/>
<circle cx="505.909" cy="54.9091" r="3.31818" fill="#B6D8D1" style="mix-blend-mode:multiply"/>
<circle cx="522.5" cy="54.9091" r="3.31818" fill="#B6D8D1" style="mix-blend-mode:multiply"/>
<circle cx="539.091" cy="54.9091" r="3.31818" fill="#B6D8D1" style="mix-blend-mode:multiply"/>
<circle cx="555.682" cy="54.9091" r="3.31818" fill="#B6D8D1" style="mix-blend-mode:multiply"/>
<circle cx="489.318" cy="71.5" r="3.31818" fill="#B6D8D1" style="mix-blend-mode:multiply"/>
<circle cx="505.909" cy="71.5" r="3.31818" fill="#B6D8D1" style="mix-blend-mode:multiply"/>
<circle cx="522.5" cy="71.5" r="3.31818" fill="#B6D8D1" style="mix-blend-mode:multiply"/>
<circle cx="539.091" cy="71.5" r="3.31818" fill="#B6D8D1" style="mix-blend-mode:multiply"/>
<circle cx="555.682" cy="71.5" r="3.31818" fill="#B6D8D1" style="mix-blend-mode:multiply"/>
<circle cx="489.318" cy="88.0909" r="3.31818" fill="#B6D8D1" style="mix-blend-mode:multiply"/>
<circle cx="505.909" cy="88.0909" r="3.31818" fill="#B6D8D1" style="mix-blend-mode:multiply"/>
<circle cx="522.5" cy="88.0909" r="3.31818" fill="#B6D8D1" style="mix-blend-mode:multiply"/>
<circle cx="539.091" cy="88.0909" r="3.31818" fill="#B6D8D1" style="mix-blend-mode:multiply"/>
<circle cx="555.682" cy="88.0909" r="3.31818" fill="#B6D8D1" style="mix-blend-mode:multiply"/>
<circle cx="489.318" cy="104.682" r="3.31818" fill="#B6D8D1" style="mix-blend-mode:multiply"/>
<circle cx="489.318" cy="121.318" r="3.31818" fill="#B6D8D1" style="mix-blend-mode:multiply"/>
<circle cx="572.273" cy="104.682" r="3.31818" transform="rotate(-90 572.273 104.682)" fill="#B6D8D1" style="mix-blend-mode:multiply"/>
<circle cx="572.273" cy="121.318" r="3.31818" transform="rotate(-90 572.273 121.318)" fill="#B6D8D1" style="mix-blend-mode:multiply"/>
<circle cx="505.909" cy="104.682" r="3.31818" fill="#B6D8D1" style="mix-blend-mode:multiply"/>
<circle cx="505.909" cy="121.318" r="3.31818" fill="#B6D8D1" style="mix-blend-mode:multiply"/>
<circle cx="572.273" cy="88.0909" r="3.31818" transform="rotate(-90 572.273 88.0909)" fill="#B6D8D1" style="mix-blend-mode:multiply"/>
<circle cx="522.5" cy="104.682" r="3.31818" fill="#B6D8D1" style="mix-blend-mode:multiply"/>
<circle cx="522.5" cy="121.318" r="3.31818" fill="#B6D8D1" style="mix-blend-mode:multiply"/>
<circle cx="572.273" cy="71.5" r="3.31818" transform="rotate(-90 572.273 71.5)" fill="#B6D8D1" style="mix-blend-mode:multiply"/>
<circle cx="539.091" cy="104.682" r="3.31818" fill="#B6D8D1" style="mix-blend-mode:multiply"/>
<circle cx="539.091" cy="121.318" r="3.31818" fill="#B6D8D1" style="mix-blend-mode:multiply"/>
<circle cx="572.273" cy="54.9091" r="3.31818" transform="rotate(-90 572.273 54.9091)" fill="#B6D8D1" style="mix-blend-mode:multiply"/>
<circle cx="555.682" cy="104.682" r="3.31818" fill="#B6D8D1" style="mix-blend-mode:multiply"/>
<circle cx="555.682" cy="121.318" r="3.31818" fill="#B6D8D1" style="mix-blend-mode:multiply"/>
<circle cx="572.273" cy="38.3182" r="3.31818" transform="rotate(-90 572.273 38.3182)" fill="#B6D8D1" style="mix-blend-mode:multiply"/>
<path d="M373 132C373 131.448 372.552 131 372 131C371.448 131 371 131.448 371 132L373 132ZM371.293 178.707C371.683 179.098 372.317 179.098 372.707 178.707L379.071 172.343C379.462 171.953 379.462 171.319 379.071 170.929C378.681 170.538 378.047 170.538 377.657 170.929L372 176.586L366.343 170.929C365.953 170.538 365.319 170.538 364.929 170.929C364.538 171.319 364.538 171.953 364.929 172.343L371.293 178.707ZM371 132L371 178L373 178L373 132L371 132Z" fill="#191E1E"/>
<path d="M230 96L230 95L230 96ZM280.207 336.707C280.598 336.317 280.598 335.683 280.207 335.293L273.843 328.929C273.453 328.538 272.819 328.538 272.429 328.929C272.038 329.319 272.038 329.953 272.429 330.343L278.086 336L272.429 341.657C272.038 342.047 272.038 342.681 272.429 343.071C272.819 343.462 273.453 343.462 273.843 343.071L280.207 336.707ZM213 112L213 320L215 320L215 112L213 112ZM230 97L283 97L283 95L230 95L230 97ZM230 337L279.5 337L279.5 335L230 335L230 337ZM213 320C213 329.389 220.611 337 230 337L230 335C221.716 335 215 328.284 215 320L213 320ZM215 112C215 103.716 221.716 97 230 97L230 95C220.611 95 213 102.611 213 112L215 112Z" fill="#191E1E"/>
<path d="M373 252C373 251.448 372.552 251 372 251C371.448 251 371 251.448 371 252L373 252ZM371.293 298.707C371.683 299.098 372.317 299.098 372.707 298.707L379.071 292.343C379.462 291.953 379.462 291.319 379.071 290.929C378.681 290.538 378.047 290.538 377.657 290.929L372 296.586L366.343 290.929C365.953 290.538 365.319 290.538 364.929 290.929C364.538 291.319 364.538 291.953 364.929 292.343L371.293 298.707ZM371 252L371 298L373 298L373 252L371 252Z" fill="#191E1E"/>
<rect x="282" y="180" width="180" height="72" rx="16" fill="#161B1D"/>
<path d="M334.385 220H339.439C341.273 220 342.589 218.936 342.589 217.396C342.589 216.332 341.945 215.436 340.825 214.932C341.679 214.484 342.169 213.77 342.169 212.79C342.169 211.39 340.979 210.382 339.257 210.382H334.385V220ZM336.443 214.26V212.146H338.739C339.509 212.146 340.055 212.594 340.055 213.196C340.055 213.812 339.509 214.26 338.739 214.26H336.443ZM336.443 218.236V215.884H339.061C339.887 215.884 340.475 216.374 340.475 217.06C340.475 217.746 339.887 218.236 339.061 218.236H336.443ZM347.268 212.594C346.26 212.594 345.266 212.874 344.244 213.392L344.93 214.75C345.504 214.456 346.134 214.232 346.806 214.232C347.996 214.232 348.472 214.904 348.472 215.674V215.814C347.856 215.576 347.212 215.45 346.624 215.45C344.944 215.45 343.614 216.43 343.614 217.858C343.614 219.244 344.804 220.168 346.344 220.168C347.128 220.168 347.954 219.86 348.472 219.272V220H350.446V215.674C350.446 213.784 349.158 212.594 347.268 212.594ZM346.806 218.754C346.106 218.754 345.588 218.39 345.588 217.802C345.588 217.214 346.176 216.78 346.918 216.78C347.478 216.78 348.01 216.878 348.472 217.046V217.718C348.332 218.39 347.59 218.754 346.806 218.754ZM355.976 218.208C355.836 218.348 355.556 218.446 355.276 218.446C354.898 218.446 354.59 218.11 354.59 217.634V214.414H356.158V212.762H354.59V210.774H352.63V212.762H351.636V214.414H352.63V217.956C352.63 219.258 353.526 220.168 354.8 220.168C355.388 220.168 356.046 219.916 356.466 219.538L355.976 218.208ZM361.289 220.168C362.493 220.168 363.473 219.678 364.187 218.894L362.829 217.746C362.451 218.166 361.863 218.446 361.303 218.446C360.225 218.446 359.329 217.494 359.329 216.36C359.329 215.254 360.225 214.316 361.289 214.316C361.849 214.316 362.423 214.582 362.787 214.988L364.145 213.826C363.445 213.07 362.479 212.594 361.303 212.594C359.161 212.594 357.341 214.316 357.341 216.374C357.341 218.432 359.147 220.168 361.289 220.168ZM369.603 212.594C368.679 212.594 367.881 213.014 367.433 213.644V210.214H365.389V220H367.433V215.716C367.433 214.932 368.091 214.316 368.945 214.316C369.757 214.316 370.317 214.932 370.317 215.828V220H372.291V215.394C372.291 213.756 371.171 212.594 369.603 212.594ZM382.714 220.168C384.17 220.168 385.514 219.538 386.452 218.558L384.954 217.214C384.394 217.858 383.596 218.292 382.714 218.292C381.104 218.292 379.732 216.864 379.732 215.184C379.732 213.518 381.104 212.09 382.714 212.09C383.596 212.09 384.394 212.524 384.954 213.168L386.452 211.824C385.514 210.83 384.17 210.214 382.714 210.214C379.956 210.214 377.604 212.482 377.604 215.184C377.604 217.886 379.956 220.168 382.714 220.168ZM391.23 220.168C393.372 220.168 395.164 218.432 395.164 216.374C395.164 214.316 393.372 212.594 391.23 212.594C389.074 212.594 387.268 214.316 387.268 216.374C387.268 218.432 389.074 220.168 391.23 220.168ZM391.23 218.446C390.138 218.446 389.228 217.494 389.228 216.374C389.228 215.254 390.138 214.316 391.23 214.316C392.308 214.316 393.218 215.254 393.218 216.374C393.218 217.494 392.308 218.446 391.23 218.446ZM398.591 214.106V212.762H396.547V220H398.591V216.542C398.591 215.184 399.557 214.316 401.069 214.316V212.594C399.963 212.594 399.067 213.168 398.591 214.106ZM405.665 218.362C404.811 218.362 404.181 217.83 403.943 217.046H409.165C409.165 214.316 407.835 212.594 405.567 212.594C403.453 212.594 401.843 214.176 401.843 216.36C401.843 218.586 403.523 220.168 405.679 220.168C406.743 220.168 407.989 219.72 408.633 219.048L407.331 217.718C406.939 218.096 406.239 218.362 405.665 218.362ZM405.651 214.4C406.477 214.4 407.009 214.862 407.205 215.576H403.971C404.237 214.848 404.881 214.4 405.651 214.4Z" fill="white"/>
<rect x="281" y="300" width="180" height="72" rx="16" fill="#161B1D"/>
<path d="M302.438 340H307.492C309.326 340 310.642 338.936 310.642 337.396C310.642 336.332 309.998 335.436 308.878 334.932C309.732 334.484 310.222 333.77 310.222 332.79C310.222 331.39 309.032 330.382 307.31 330.382H302.438V340ZM304.496 334.26V332.146H306.792C307.562 332.146 308.108 332.594 308.108 333.196C308.108 333.812 307.562 334.26 306.792 334.26H304.496ZM304.496 338.236V335.884H307.114C307.94 335.884 308.528 336.374 308.528 337.06C308.528 337.746 307.94 338.236 307.114 338.236H304.496ZM315.321 332.594C314.313 332.594 313.319 332.874 312.297 333.392L312.983 334.75C313.557 334.456 314.187 334.232 314.859 334.232C316.049 334.232 316.525 334.904 316.525 335.674V335.814C315.909 335.576 315.265 335.45 314.677 335.45C312.997 335.45 311.667 336.43 311.667 337.858C311.667 339.244 312.857 340.168 314.397 340.168C315.181 340.168 316.007 339.86 316.525 339.272V340H318.499V335.674C318.499 333.784 317.211 332.594 315.321 332.594ZM314.859 338.754C314.159 338.754 313.641 338.39 313.641 337.802C313.641 337.214 314.229 336.78 314.971 336.78C315.531 336.78 316.063 336.878 316.525 337.046V337.718C316.385 338.39 315.643 338.754 314.859 338.754ZM324.03 338.208C323.89 338.348 323.61 338.446 323.33 338.446C322.952 338.446 322.644 338.11 322.644 337.634V334.414H324.212V332.762H322.644V330.774H320.684V332.762H319.69V334.414H320.684V337.956C320.684 339.258 321.58 340.168 322.854 340.168C323.442 340.168 324.1 339.916 324.52 339.538L324.03 338.208ZM329.342 340.168C330.546 340.168 331.526 339.678 332.24 338.894L330.882 337.746C330.504 338.166 329.916 338.446 329.356 338.446C328.278 338.446 327.382 337.494 327.382 336.36C327.382 335.254 328.278 334.316 329.342 334.316C329.902 334.316 330.476 334.582 330.84 334.988L332.198 333.826C331.498 333.07 330.532 332.594 329.356 332.594C327.214 332.594 325.394 334.316 325.394 336.374C325.394 338.432 327.2 340.168 329.342 340.168ZM337.656 332.594C336.732 332.594 335.934 333.014 335.486 333.644V330.214H333.442V340H335.486V335.716C335.486 334.932 336.144 334.316 336.998 334.316C337.81 334.316 338.37 334.932 338.37 335.828V340H340.344V335.394C340.344 333.756 339.224 332.594 337.656 332.594ZM346.064 340H348.136V330.382H346.064V340ZM354.186 332.594C353.248 332.594 352.436 333.014 352.002 333.672V332.762H349.958V340H352.002V335.674L352.016 335.716C352.016 334.932 352.674 334.316 353.528 334.316C354.34 334.316 354.9 334.932 354.9 335.828V340H356.874V335.394C356.874 333.756 355.754 332.594 354.186 332.594ZM361.021 332.37C361.021 331.894 361.329 331.558 361.707 331.558C361.987 331.558 362.267 331.656 362.407 331.796L362.897 330.55C362.477 330.172 361.819 329.92 361.231 329.92C359.957 329.92 359.061 330.83 359.061 332.132V332.762H358.067V334.414H359.061V340H361.021V334.414H362.589V332.762H361.021V332.37ZM365.948 334.106V332.762H363.904V340H365.948V336.542C365.948 335.184 366.914 334.316 368.426 334.316V332.594C367.32 332.594 366.424 333.168 365.948 334.106ZM372.839 332.594C371.831 332.594 370.837 332.874 369.815 333.392L370.501 334.75C371.075 334.456 371.705 334.232 372.377 334.232C373.567 334.232 374.043 334.904 374.043 335.674V335.814C373.427 335.576 372.783 335.45 372.195 335.45C370.515 335.45 369.185 336.43 369.185 337.858C369.185 339.244 370.375 340.168 371.915 340.168C372.699 340.168 373.525 339.86 374.043 339.272V340H376.017V335.674C376.017 333.784 374.729 332.594 372.839 332.594ZM372.377 338.754C371.677 338.754 371.159 338.39 371.159 337.802C371.159 337.214 371.747 336.78 372.489 336.78C373.049 336.78 373.581 336.878 374.043 337.046V337.718C373.903 338.39 373.161 338.754 372.377 338.754ZM380.456 340.168C382.234 340.168 383.396 339.258 383.396 337.83C383.396 336.248 382.01 335.828 380.764 335.506C379.784 335.24 379.49 335.128 379.49 334.736C379.49 334.484 379.84 334.302 380.344 334.302C380.96 334.302 381.716 334.54 382.374 334.946L383.2 333.49C382.402 332.958 381.38 332.594 380.344 332.594C378.636 332.594 377.502 333.574 377.516 334.946C377.53 336.374 378.678 336.78 380.162 337.144C380.904 337.34 381.436 337.48 381.436 337.928C381.436 338.25 381.044 338.474 380.498 338.474C379.532 338.474 378.72 338.124 378.076 337.662L377.194 339.076C378.062 339.776 379.294 340.168 380.456 340.168ZM388.575 338.208C388.435 338.348 388.155 338.446 387.875 338.446C387.497 338.446 387.189 338.11 387.189 337.634V334.414H388.757V332.762H387.189V330.774H385.229V332.762H384.235V334.414H385.229V337.956C385.229 339.258 386.125 340.168 387.399 340.168C387.987 340.168 388.645 339.916 389.065 339.538L388.575 338.208ZM392.389 334.106V332.762H390.345V340H392.389V336.542C392.389 335.184 393.355 334.316 394.867 334.316V332.594C393.761 332.594 392.865 333.168 392.389 334.106ZM400.848 332.762V337.088L400.834 337.046C400.834 337.83 400.176 338.446 399.322 338.446C398.51 338.446 397.95 337.83 397.95 336.934V332.762H395.976V337.368C395.976 339.006 397.096 340.168 398.664 340.168C399.602 340.168 400.414 339.748 400.848 339.09V340H402.892V332.762H400.848ZM408.188 340.168C409.392 340.168 410.372 339.678 411.086 338.894L409.728 337.746C409.35 338.166 408.762 338.446 408.202 338.446C407.124 338.446 406.228 337.494 406.228 336.36C406.228 335.254 407.124 334.316 408.188 334.316C408.748 334.316 409.322 334.582 409.686 334.988L411.044 333.826C410.344 333.07 409.378 332.594 408.202 332.594C406.06 332.594 404.24 334.316 404.24 336.374C404.24 338.432 406.046 340.168 408.188 340.168ZM416.124 338.208C415.984 338.348 415.704 338.446 415.424 338.446C415.046 338.446 414.738 338.11 414.738 337.634V334.414H416.306V332.762H414.738V330.774H412.778V332.762H411.784V334.414H412.778V337.956C412.778 339.258 413.674 340.168 414.948 340.168C415.536 340.168 416.194 339.916 416.614 339.538L416.124 338.208ZM422.696 332.762V337.088L422.682 337.046C422.682 337.83 422.024 338.446 421.17 338.446C420.358 338.446 419.798 337.83 419.798 336.934V332.762H417.824V337.368C417.824 339.006 418.944 340.168 420.512 340.168C421.45 340.168 422.262 339.748 422.696 339.09V340H424.74V332.762H422.696ZM428.538 334.106V332.762H426.494V340H428.538V336.542C428.538 335.184 429.504 334.316 431.016 334.316V332.594C429.91 332.594 429.014 333.168 428.538 334.106ZM435.611 338.362C434.757 338.362 434.127 337.83 433.889 337.046H439.111C439.111 334.316 437.781 332.594 435.513 332.594C433.399 332.594 431.789 334.176 431.789 336.36C431.789 338.586 433.469 340.168 435.625 340.168C436.689 340.168 437.935 339.72 438.579 339.048L437.277 337.718C436.885 338.096 436.185 338.362 435.611 338.362ZM435.597 334.4C436.423 334.4 436.955 334.862 437.151 335.576H433.917C434.183 334.848 434.827 334.4 435.597 334.4Z" fill="white"/>
<rect x="283" y="61" width="178" height="70" rx="15" fill="white"/>
<path d="M339.353 100H341.677L337.757 90.382H335.447L331.527 100H333.837L334.453 98.488H338.737L339.353 100ZM335.167 96.738L336.595 93.224L338.023 96.738H335.167ZM347.22 92.594C346.212 92.594 345.372 93.028 344.798 93.77V92.762H342.754V102.408H344.798V98.978C345.372 99.734 346.212 100.168 347.22 100.168C349.152 100.168 350.552 98.6 350.552 96.374C350.552 94.162 349.152 92.594 347.22 92.594ZM346.632 98.446C345.638 98.446 344.91 97.718 344.798 96.654V96.094C344.91 95.044 345.638 94.316 346.632 94.316C347.766 94.316 348.564 95.17 348.564 96.374C348.564 97.592 347.766 98.446 346.632 98.446ZM356.463 92.594C355.455 92.594 354.615 93.028 354.041 93.77V92.762H351.997V102.408H354.041V98.978C354.615 99.734 355.455 100.168 356.463 100.168C358.395 100.168 359.795 98.6 359.795 96.374C359.795 94.162 358.395 92.594 356.463 92.594ZM355.875 98.446C354.881 98.446 354.153 97.718 354.041 96.654V96.094C354.153 95.044 354.881 94.316 355.875 94.316C357.009 94.316 357.807 95.17 357.807 96.374C357.807 97.592 357.009 98.446 355.875 98.446ZM361.239 100H363.283V90.214H361.239V100ZM366.089 91.768C366.691 91.768 367.181 91.264 367.181 90.648C367.181 90.074 366.691 89.556 366.089 89.556C365.459 89.556 364.969 90.074 364.969 90.648C364.969 91.264 365.459 91.768 366.089 91.768ZM365.053 100H367.097V92.762H365.053V100ZM372.423 100.168C373.627 100.168 374.607 99.678 375.321 98.894L373.963 97.746C373.585 98.166 372.997 98.446 372.437 98.446C371.359 98.446 370.463 97.494 370.463 96.36C370.463 95.254 371.359 94.316 372.423 94.316C372.983 94.316 373.557 94.582 373.921 94.988L375.279 93.826C374.579 93.07 373.613 92.594 372.437 92.594C370.295 92.594 368.475 94.316 368.475 96.374C368.475 98.432 370.281 100.168 372.423 100.168ZM379.785 92.594C378.777 92.594 377.783 92.874 376.761 93.392L377.447 94.75C378.021 94.456 378.651 94.232 379.323 94.232C380.513 94.232 380.989 94.904 380.989 95.674V95.814C380.373 95.576 379.729 95.45 379.141 95.45C377.461 95.45 376.131 96.43 376.131 97.858C376.131 99.244 377.321 100.168 378.861 100.168C379.645 100.168 380.471 99.86 380.989 99.272V100H382.963V95.674C382.963 93.784 381.675 92.594 379.785 92.594ZM379.323 98.754C378.623 98.754 378.105 98.39 378.105 97.802C378.105 97.214 378.693 96.78 379.435 96.78C379.995 96.78 380.527 96.878 380.989 97.046V97.718C380.849 98.39 380.107 98.754 379.323 98.754ZM388.494 98.208C388.354 98.348 388.074 98.446 387.794 98.446C387.416 98.446 387.108 98.11 387.108 97.634V94.414H388.676V92.762H387.108V90.774H385.148V92.762H384.154V94.414H385.148V97.956C385.148 99.258 386.044 100.168 387.318 100.168C387.906 100.168 388.564 99.916 388.984 99.538L388.494 98.208ZM391.286 91.768C391.888 91.768 392.378 91.264 392.378 90.648C392.378 90.074 391.888 89.556 391.286 89.556C390.656 89.556 390.166 90.074 390.166 90.648C390.166 91.264 390.656 91.768 391.286 91.768ZM390.25 100H392.294V92.762H390.25V100ZM397.635 100.168C399.777 100.168 401.569 98.432 401.569 96.374C401.569 94.316 399.777 92.594 397.635 92.594C395.479 92.594 393.673 94.316 393.673 96.374C393.673 98.432 395.479 100.168 397.635 100.168ZM397.635 98.446C396.543 98.446 395.633 97.494 395.633 96.374C395.633 95.254 396.543 94.316 397.635 94.316C398.713 94.316 399.623 95.254 399.623 96.374C399.623 97.494 398.713 98.446 397.635 98.446ZM407.138 92.594C406.2 92.594 405.388 93.014 404.954 93.672V92.762H402.91V100H404.954V95.674L404.968 95.716C404.968 94.932 405.626 94.316 406.48 94.316C407.292 94.316 407.852 94.932 407.852 95.828V100H409.826V95.394C409.826 93.756 408.706 92.594 407.138 92.594Z" fill="#161B1D"/>
<rect x="283" y="61" width="178" height="70" rx="15" stroke="#161B1D" stroke-width="2"/>
<path d="M331 458L-30.5 286L-37 458H331Z" fill="#B6D8D1" fill-opacity="0.8" style="mix-blend-mode:multiply"/>
</g>
<defs>
<clipPath id="clip0_125_268743">
<rect width="743" height="431" fill="white"/>
</clipPath>
</defs>
</svg>
