<svg width="743" height="431" viewBox="0 0 743 431" fill="none" xmlns="http://www.w3.org/2000/svg">
<g clip-path="url(#clip0_303_269455)">
<rect width="743" height="431" fill="white"/>
<circle cx="99" cy="210" r="335" fill="#F3F5F6"/>
<path d="M434.707 229.293C434.317 228.902 433.683 228.902 433.293 229.293L426.929 235.657C426.538 236.047 426.538 236.681 426.929 237.071C427.319 237.462 427.953 237.462 428.343 237.071L434 231.414L439.657 237.071C440.047 237.462 440.681 237.462 441.071 237.071C441.462 236.681 441.462 236.047 441.071 235.657L434.707 229.293ZM433.293 282.707C433.683 283.098 434.317 283.098 434.707 282.707L441.071 276.343C441.462 275.953 441.462 275.319 441.071 274.929C440.681 274.538 440.047 274.538 439.657 274.929L434 280.586L428.343 274.929C427.953 274.538 427.319 274.538 426.929 274.929C426.538 275.319 426.538 275.953 426.929 276.343L433.293 282.707ZM433 230L433 282L435 282L435 230L433 230Z" fill="#191E1E"/>
<path d="M267.707 229.293C267.317 228.902 266.683 228.902 266.293 229.293L259.929 235.657C259.538 236.047 259.538 236.681 259.929 237.071C260.319 237.462 260.953 237.462 261.343 237.071L267 231.414L272.657 237.071C273.047 237.462 273.681 237.462 274.071 237.071C274.462 236.681 274.462 236.047 274.071 235.657L267.707 229.293ZM266.293 282.707C266.683 283.098 267.317 283.098 267.707 282.707L274.071 276.343C274.462 275.953 274.462 275.319 274.071 274.929C273.681 274.538 273.047 274.538 272.657 274.929L267 280.586L261.343 274.929C260.953 274.538 260.319 274.538 259.929 274.929C259.538 275.319 259.538 275.953 259.929 276.343L266.293 282.707ZM266 230L266 282L268 282L268 230L266 230Z" fill="#191E1E"/>
<path d="M100.707 229.293C100.317 228.902 99.6834 228.902 99.2929 229.293L92.9289 235.657C92.5384 236.047 92.5384 236.681 92.9289 237.071C93.3195 237.462 93.9526 237.462 94.3431 237.071L100 231.414L105.657 237.071C106.047 237.462 106.681 237.462 107.071 237.071C107.462 236.681 107.462 236.047 107.071 235.657L100.707 229.293ZM99.2929 282.707C99.6834 283.098 100.317 283.098 100.707 282.707L107.071 276.343C107.462 275.953 107.462 275.319 107.071 274.929C106.681 274.538 106.047 274.538 105.657 274.929L100 280.586L94.3431 274.929C93.9526 274.538 93.3195 274.538 92.9289 274.929C92.5384 275.319 92.5384 275.953 92.9289 276.343L99.2929 282.707ZM99 230L99 282L101 282L101 230L99 230Z" fill="#191E1E"/>
<path d="M207 199H160" stroke="#191E1E" stroke-width="2"/>
<path d="M374 199H327" stroke="#191E1E" stroke-width="2"/>
<path d="M574 199H494" stroke="#191E1E" stroke-width="2"/>
<path d="M576 117L494 199" stroke="#191E1E" stroke-width="2"/>
<path d="M575 280L494 199" stroke="#191E1E" stroke-width="2"/>
<rect x="40" y="171" width="120" height="56" rx="8" fill="#161B1D"/>
<path d="M58.1536 205.168C60.0996 205.168 61.4716 203.796 61.4716 201.864V195.382H59.3996V201.696C59.3996 202.634 58.7836 203.292 57.9436 203.292C57.2996 203.292 56.6136 202.858 56.3056 202.228L54.9336 203.572C55.5776 204.51 56.9216 205.168 58.1536 205.168ZM66.8465 205.168C68.9885 205.168 70.7805 203.432 70.7805 201.374C70.7805 199.316 68.9885 197.594 66.8465 197.594C64.6905 197.594 62.8845 199.316 62.8845 201.374C62.8845 203.432 64.6905 205.168 66.8465 205.168ZM66.8465 203.446C65.7545 203.446 64.8445 202.494 64.8445 201.374C64.8445 200.254 65.7545 199.316 66.8465 199.316C67.9245 199.316 68.8345 200.254 68.8345 201.374C68.8345 202.494 67.9245 203.446 66.8465 203.446ZM76.6296 197.594C75.6216 197.594 74.7816 198.028 74.2076 198.77V195.214H72.1636V205H74.2076V203.978C74.7816 204.734 75.6216 205.168 76.6296 205.168C78.5616 205.168 79.9616 203.6 79.9616 201.374C79.9616 199.162 78.5616 197.594 76.6296 197.594ZM76.0416 203.446C75.0476 203.446 74.3196 202.718 74.2076 201.654V201.094C74.3196 200.044 75.0476 199.316 76.0416 199.316C77.1756 199.316 77.9736 200.17 77.9736 201.374C77.9736 202.592 77.1756 203.446 76.0416 203.446ZM83.4638 203.138V195.382H81.3918V205H88.2518V203.138H83.4638ZM92.7609 197.594C91.7529 197.594 90.7589 197.874 89.7369 198.392L90.4229 199.75C90.9969 199.456 91.6269 199.232 92.2989 199.232C93.4889 199.232 93.9649 199.904 93.9649 200.674V200.814C93.3489 200.576 92.7049 200.45 92.1169 200.45C90.4369 200.45 89.1069 201.43 89.1069 202.858C89.1069 204.244 90.2969 205.168 91.8369 205.168C92.6209 205.168 93.4469 204.86 93.9649 204.272V205H95.9389V200.674C95.9389 198.784 94.6509 197.594 92.7609 197.594ZM92.2989 203.754C91.5989 203.754 91.0809 203.39 91.0809 202.802C91.0809 202.214 91.6689 201.78 92.4109 201.78C92.9709 201.78 93.5029 201.878 93.9649 202.046V202.718C93.8249 203.39 93.0829 203.754 92.2989 203.754ZM102.464 197.762V202.088L102.45 202.046C102.45 202.83 101.792 203.446 100.938 203.446C100.126 203.446 99.5656 202.83 99.5656 201.934V197.762H97.5916V202.368C97.5916 204.006 98.7116 205.168 100.28 205.168C101.218 205.168 102.03 204.748 102.464 204.09V205H104.508V197.762H102.464ZM110.447 197.594C109.509 197.594 108.697 198.014 108.263 198.672V197.762H106.219V205H108.263V200.674L108.277 200.716C108.277 199.932 108.935 199.316 109.789 199.316C110.601 199.316 111.161 199.932 111.161 200.828V205H113.135V200.394C113.135 198.756 112.015 197.594 110.447 197.594ZM118.403 205.168C119.607 205.168 120.587 204.678 121.301 203.894L119.943 202.746C119.565 203.166 118.977 203.446 118.417 203.446C117.339 203.446 116.443 202.494 116.443 201.36C116.443 200.254 117.339 199.316 118.403 199.316C118.963 199.316 119.537 199.582 119.901 199.988L121.259 198.826C120.559 198.07 119.593 197.594 118.417 197.594C116.275 197.594 114.455 199.316 114.455 201.374C114.455 203.432 116.261 205.168 118.403 205.168ZM126.717 197.594C125.793 197.594 124.995 198.014 124.547 198.644V195.214H122.503V205H124.547V200.716C124.547 199.932 125.205 199.316 126.059 199.316C126.871 199.316 127.431 199.932 127.431 200.828V205H129.405V200.394C129.405 198.756 128.285 197.594 126.717 197.594ZM134.546 203.362C133.692 203.362 133.062 202.83 132.824 202.046H138.046C138.046 199.316 136.716 197.594 134.448 197.594C132.334 197.594 130.724 199.176 130.724 201.36C130.724 203.586 132.404 205.168 134.56 205.168C135.624 205.168 136.87 204.72 137.514 204.048L136.212 202.718C135.82 203.096 135.12 203.362 134.546 203.362ZM134.532 199.4C135.358 199.4 135.89 199.862 136.086 200.576H132.852C133.118 199.848 133.762 199.4 134.532 199.4ZM141.473 199.106V197.762H139.429V205H141.473V201.542C141.473 200.184 142.439 199.316 143.951 199.316V197.594C142.845 197.594 141.949 198.168 141.473 199.106Z" fill="white"/>
<rect x="207" y="171" width="120" height="56" rx="8" fill="#161B1D"/>
<path d="M257.016 205.168C258.962 205.168 260.334 203.796 260.334 201.864V195.382H258.262V201.696C258.262 202.634 257.646 203.292 256.806 203.292C256.162 203.292 255.476 202.858 255.168 202.228L253.796 203.572C254.44 204.51 255.784 205.168 257.016 205.168ZM265.709 205.168C267.851 205.168 269.643 203.432 269.643 201.374C269.643 199.316 267.851 197.594 265.709 197.594C263.553 197.594 261.747 199.316 261.747 201.374C261.747 203.432 263.553 205.168 265.709 205.168ZM265.709 203.446C264.617 203.446 263.707 202.494 263.707 201.374C263.707 200.254 264.617 199.316 265.709 199.316C266.787 199.316 267.697 200.254 267.697 201.374C267.697 202.494 266.787 203.446 265.709 203.446ZM275.492 197.594C274.484 197.594 273.644 198.028 273.07 198.77V195.214H271.026V205H273.07V203.978C273.644 204.734 274.484 205.168 275.492 205.168C277.424 205.168 278.824 203.6 278.824 201.374C278.824 199.162 277.424 197.594 275.492 197.594ZM274.904 203.446C273.91 203.446 273.182 202.718 273.07 201.654V201.094C273.182 200.044 273.91 199.316 274.904 199.316C276.038 199.316 276.836 200.17 276.836 201.374C276.836 202.592 276.038 203.446 274.904 203.446Z" fill="white"/>
<path d="M333.755 194H335.827V184.382H334.175L331.291 186.314L332.117 187.77L333.755 186.748V194Z" fill="#161B1D"/>
<path d="M500.755 182H502.827V172.382H501.175L498.291 174.314L499.117 175.77L500.755 174.748V182Z" fill="#161B1D"/>
<path d="M515.755 194H517.827V184.382H516.175L513.291 186.314L514.117 187.77L515.755 186.748V194Z" fill="#161B1D"/>
<path d="M515.755 215H517.827V205.382H516.175L513.291 207.314L514.117 208.77L515.755 207.748V215Z" fill="#161B1D"/>
<path d="M567.755 263H569.827V253.382H568.175L565.291 255.314L566.117 256.77L567.755 255.748V263Z" fill="#161B1D"/>
<path d="M567.755 116H569.827V106.382H568.175L565.291 108.314L566.117 109.77L567.755 108.748V116Z" fill="#161B1D"/>
<path d="M552.126 194.168C554.66 194.168 556.452 192.11 556.452 189.184C556.452 186.272 554.66 184.214 552.126 184.214C549.592 184.214 547.814 186.272 547.814 189.184C547.814 192.11 549.592 194.168 552.126 194.168ZM552.126 192.292C550.838 192.292 549.928 190.99 549.928 189.184C549.928 187.378 550.838 186.09 552.126 186.09C553.428 186.09 554.324 187.378 554.324 189.184C554.324 190.99 553.428 192.292 552.126 192.292ZM559.126 194.168C559.812 194.168 560.372 193.58 560.372 192.866C560.372 192.208 559.812 191.62 559.126 191.62C558.398 191.62 557.824 192.208 557.824 192.866C557.824 193.58 558.398 194.168 559.126 194.168ZM563.187 194.168C563.873 194.168 564.433 193.58 564.433 192.866C564.433 192.208 563.873 191.62 563.187 191.62C562.459 191.62 561.885 192.208 561.885 192.866C561.885 193.58 562.459 194.168 563.187 194.168ZM567.849 194H569.921V184.382H568.269L565.385 186.314L566.211 187.77L567.849 186.748V194Z" fill="#161B1D"/>
<path d="M368.997 189.17C369.291 189.17 369.529 188.946 369.529 188.68C369.529 188.176 369.291 187.574 369.221 187.07C369.627 187.378 370.033 187.882 370.453 188.134C370.677 188.274 370.999 188.176 371.153 187.91C371.293 187.658 371.223 187.336 370.999 187.21C370.565 186.958 369.935 186.86 369.459 186.664C369.921 186.468 370.565 186.37 370.999 186.118C371.223 185.992 371.293 185.684 371.153 185.418C370.999 185.166 370.677 185.068 370.453 185.194C370.033 185.446 369.627 185.95 369.221 186.258C369.291 185.754 369.529 185.152 369.529 184.648C369.529 184.382 369.291 184.158 368.997 184.158C368.689 184.158 368.451 184.382 368.451 184.648C368.451 185.152 368.689 185.754 368.759 186.258C368.353 185.95 367.947 185.446 367.527 185.194C367.303 185.054 366.981 185.152 366.827 185.418C366.687 185.67 366.771 185.992 366.995 186.118C367.415 186.37 368.045 186.468 368.521 186.664C368.045 186.86 367.415 186.958 366.995 187.21C366.771 187.336 366.687 187.644 366.827 187.91C366.981 188.162 367.303 188.26 367.527 188.134C367.947 187.882 368.353 187.378 368.759 187.07C368.689 187.574 368.465 188.176 368.465 188.68C368.465 188.946 368.703 189.17 368.997 189.17Z" fill="#161B1D"/>
<rect x="374" y="171" width="120" height="56" rx="8" fill="#161B1D"/>
<path d="M422.103 205.168C424.455 205.168 425.841 203.95 425.841 202.116C425.841 200.338 424.469 199.722 422.397 199.26C420.913 198.924 420.339 198.7 420.339 198C420.339 197.426 420.871 196.964 421.753 196.964C422.677 196.964 423.643 197.342 424.497 198.028L425.575 196.544C424.595 195.704 423.377 195.214 421.809 195.214C419.709 195.214 418.253 196.432 418.253 198.21C418.253 200.072 419.695 200.646 421.725 201.108C423.195 201.444 423.755 201.654 423.755 202.34C423.755 202.942 423.223 203.418 422.187 203.418C420.969 203.418 419.933 202.942 419.023 202.158L417.833 203.572C418.953 204.608 420.437 205.168 422.103 205.168ZM431.074 203.208C430.934 203.348 430.654 203.446 430.374 203.446C429.996 203.446 429.688 203.11 429.688 202.634V199.414H431.256V197.762H429.688V195.774H427.728V197.762H426.734V199.414H427.728V202.956C427.728 204.258 428.624 205.168 429.898 205.168C430.486 205.168 431.144 204.916 431.564 204.538L431.074 203.208ZM436.26 203.362C435.406 203.362 434.776 202.83 434.538 202.046H439.76C439.76 199.316 438.43 197.594 436.162 197.594C434.048 197.594 432.438 199.176 432.438 201.36C432.438 203.586 434.118 205.168 436.274 205.168C437.338 205.168 438.584 204.72 439.228 204.048L437.926 202.718C437.534 203.096 436.834 203.362 436.26 203.362ZM436.246 199.4C437.072 199.4 437.604 199.862 437.8 200.576H434.566C434.832 199.848 435.476 199.4 436.246 199.4ZM445.609 197.594C444.601 197.594 443.761 198.028 443.187 198.77V197.762H441.143V207.408H443.187V203.978C443.761 204.734 444.601 205.168 445.609 205.168C447.541 205.168 448.941 203.6 448.941 201.374C448.941 199.162 447.541 197.594 445.609 197.594ZM445.021 203.446C444.027 203.446 443.299 202.718 443.187 201.654V201.094C443.299 200.044 444.027 199.316 445.021 199.316C446.155 199.316 446.953 200.17 446.953 201.374C446.953 202.592 446.155 203.446 445.021 203.446Z" fill="white"/>
<rect x="575" y="92" width="128" height="54" rx="7" fill="white"/>
<path d="M599.449 125H601.521V115.382H599.449V125ZM607.192 123.208C607.052 123.348 606.772 123.446 606.492 123.446C606.114 123.446 605.806 123.11 605.806 122.634V119.414H607.374V117.762H605.806V115.774H603.846V117.762H602.852V119.414H603.846V122.956C603.846 124.258 604.742 125.168 606.016 125.168C606.604 125.168 607.262 124.916 607.682 124.538L607.192 123.208ZM612.378 123.362C611.524 123.362 610.894 122.83 610.656 122.046H615.878C615.878 119.316 614.548 117.594 612.28 117.594C610.166 117.594 608.556 119.176 608.556 121.36C608.556 123.586 610.236 125.168 612.392 125.168C613.456 125.168 614.702 124.72 615.346 124.048L614.044 122.718C613.652 123.096 612.952 123.362 612.378 123.362ZM612.364 119.4C613.19 119.4 613.722 119.862 613.918 120.576H610.684C610.95 119.848 611.594 119.4 612.364 119.4ZM625.871 117.594C624.793 117.594 623.897 118.112 623.519 118.91C623.071 118.098 622.217 117.594 621.223 117.594C620.327 117.594 619.613 118.028 619.263 118.714V117.762H617.219V125H619.263V120.632C619.263 119.862 619.837 119.316 620.663 119.316C621.405 119.316 621.937 119.904 621.937 120.744V125.014H623.897V120.632C623.897 119.862 624.485 119.316 625.297 119.316C626.053 119.316 626.585 119.904 626.585 120.744V125.014H628.545V120.394C628.545 118.756 627.383 117.594 625.871 117.594ZM638.453 125L636.087 121.64C637.403 121.178 638.271 120.058 638.271 118.63C638.271 116.726 636.731 115.382 634.645 115.382H630.319V125H632.377V121.878H633.903L636.101 125H638.453ZM632.377 117.272H634.421C635.443 117.272 636.143 117.804 636.143 118.63C636.143 119.456 635.443 119.988 634.421 119.988H632.377V117.272ZM643.167 123.362C642.313 123.362 641.683 122.83 641.445 122.046H646.667C646.667 119.316 645.337 117.594 643.069 117.594C640.955 117.594 639.345 119.176 639.345 121.36C639.345 123.586 641.025 125.168 643.181 125.168C644.245 125.168 645.491 124.72 646.135 124.048L644.833 122.718C644.441 123.096 643.741 123.362 643.167 123.362ZM643.153 119.4C643.979 119.4 644.511 119.862 644.707 120.576H641.473C641.739 119.848 642.383 119.4 643.153 119.4ZM651.284 117.594C650.276 117.594 649.282 117.874 648.26 118.392L648.946 119.75C649.52 119.456 650.15 119.232 650.822 119.232C652.012 119.232 652.488 119.904 652.488 120.674V120.814C651.872 120.576 651.228 120.45 650.64 120.45C648.96 120.45 647.63 121.43 647.63 122.858C647.63 124.244 648.82 125.168 650.36 125.168C651.144 125.168 651.97 124.86 652.488 124.272V125H654.462V120.674C654.462 118.784 653.174 117.594 651.284 117.594ZM650.822 123.754C650.122 123.754 649.604 123.39 649.604 122.802C649.604 122.214 650.192 121.78 650.934 121.78C651.494 121.78 652.026 121.878 652.488 122.046V122.718C652.348 123.39 651.606 123.754 650.822 123.754ZM661.589 115.214V118.798C661.015 118.042 660.175 117.594 659.153 117.594C657.221 117.594 655.821 119.162 655.821 121.374C655.821 123.6 657.221 125.168 659.153 125.168C660.175 125.168 661.015 124.72 661.589 123.964V125H663.633V115.214H661.589ZM659.741 123.446C658.607 123.446 657.809 122.592 657.809 121.374C657.809 120.17 658.607 119.316 659.741 119.316C660.819 119.316 661.589 120.17 661.589 121.374C661.589 122.592 660.819 123.446 659.741 123.446ZM668.843 123.362C667.989 123.362 667.359 122.83 667.121 122.046H672.343C672.343 119.316 671.013 117.594 668.745 117.594C666.631 117.594 665.021 119.176 665.021 121.36C665.021 123.586 666.701 125.168 668.857 125.168C669.921 125.168 671.167 124.72 671.811 124.048L670.509 122.718C670.117 123.096 669.417 123.362 668.843 123.362ZM668.829 119.4C669.655 119.4 670.187 119.862 670.383 120.576H667.149C667.415 119.848 668.059 119.4 668.829 119.4ZM675.77 119.106V117.762H673.726V125H675.77V121.542C675.77 120.184 676.736 119.316 678.248 119.316V117.594C677.142 117.594 676.246 118.168 675.77 119.106Z" fill="#161B1D"/>
<rect x="575" y="92" width="128" height="54" rx="7" stroke="#161B1D" stroke-width="2"/>
<rect x="575" y="172" width="128" height="54" rx="7" fill="white"/>
<path d="M589.906 205H591.978V195.382H589.906V205ZM597.649 203.208C597.509 203.348 597.229 203.446 596.949 203.446C596.571 203.446 596.263 203.11 596.263 202.634V199.414H597.831V197.762H596.263V195.774H594.303V197.762H593.309V199.414H594.303V202.956C594.303 204.258 595.199 205.168 596.473 205.168C597.061 205.168 597.719 204.916 598.139 204.538L597.649 203.208ZM602.835 203.362C601.981 203.362 601.351 202.83 601.113 202.046H606.335C606.335 199.316 605.005 197.594 602.737 197.594C600.623 197.594 599.013 199.176 599.013 201.36C599.013 203.586 600.693 205.168 602.849 205.168C603.913 205.168 605.159 204.72 605.803 204.048L604.501 202.718C604.109 203.096 603.409 203.362 602.835 203.362ZM602.821 199.4C603.647 199.4 604.179 199.862 604.375 200.576H601.141C601.407 199.848 602.051 199.4 602.821 199.4ZM616.328 197.594C615.25 197.594 614.354 198.112 613.976 198.91C613.528 198.098 612.674 197.594 611.68 197.594C610.784 197.594 610.07 198.028 609.72 198.714V197.762H607.676V205H609.72V200.632C609.72 199.862 610.294 199.316 611.12 199.316C611.862 199.316 612.394 199.904 612.394 200.744V205.014H614.354V200.632C614.354 199.862 614.942 199.316 615.754 199.316C616.51 199.316 617.042 199.904 617.042 200.744V205.014H619.002V200.394C619.002 198.756 617.84 197.594 616.328 197.594ZM620.776 205H622.834V201.878H625.102C627.188 201.878 628.728 200.534 628.728 198.63C628.728 196.726 627.188 195.382 625.102 195.382H620.776V205ZM622.834 199.988V197.272H624.878C625.9 197.272 626.6 197.804 626.6 198.63C626.6 199.456 625.9 199.988 624.878 199.988H622.834ZM632.006 199.106V197.762H629.962V205H632.006V201.542C632.006 200.184 632.972 199.316 634.484 199.316V197.594C633.378 197.594 632.482 198.168 632.006 199.106ZM639.056 205.168C641.198 205.168 642.99 203.432 642.99 201.374C642.99 199.316 641.198 197.594 639.056 197.594C636.9 197.594 635.094 199.316 635.094 201.374C635.094 203.432 636.9 205.168 639.056 205.168ZM639.056 203.446C637.964 203.446 637.054 202.494 637.054 201.374C637.054 200.254 637.964 199.316 639.056 199.316C640.134 199.316 641.044 200.254 641.044 201.374C641.044 202.494 640.134 203.446 639.056 203.446ZM647.915 205.168C649.119 205.168 650.099 204.678 650.813 203.894L649.455 202.746C649.077 203.166 648.489 203.446 647.929 203.446C646.851 203.446 645.955 202.494 645.955 201.36C645.955 200.254 646.851 199.316 647.915 199.316C648.475 199.316 649.049 199.582 649.413 199.988L650.771 198.826C650.071 198.07 649.105 197.594 647.929 197.594C645.787 197.594 643.967 199.316 643.967 201.374C643.967 203.432 645.773 205.168 647.915 205.168ZM655.458 203.362C654.604 203.362 653.974 202.83 653.736 202.046H658.958C658.958 199.316 657.628 197.594 655.36 197.594C653.246 197.594 651.636 199.176 651.636 201.36C651.636 203.586 653.316 205.168 655.472 205.168C656.536 205.168 657.782 204.72 658.426 204.048L657.124 202.718C656.732 203.096 656.032 203.362 655.458 203.362ZM655.444 199.4C656.27 199.4 656.802 199.862 656.998 200.576H653.764C654.03 199.848 654.674 199.4 655.444 199.4ZM663.057 205.168C664.835 205.168 665.997 204.258 665.997 202.83C665.997 201.248 664.611 200.828 663.365 200.506C662.385 200.24 662.091 200.128 662.091 199.736C662.091 199.484 662.441 199.302 662.945 199.302C663.561 199.302 664.317 199.54 664.975 199.946L665.801 198.49C665.003 197.958 663.981 197.594 662.945 197.594C661.237 197.594 660.103 198.574 660.117 199.946C660.131 201.374 661.279 201.78 662.763 202.144C663.505 202.34 664.037 202.48 664.037 202.928C664.037 203.25 663.645 203.474 663.099 203.474C662.133 203.474 661.321 203.124 660.677 202.662L659.795 204.076C660.663 204.776 661.895 205.168 663.057 205.168ZM670.085 205.168C671.863 205.168 673.025 204.258 673.025 202.83C673.025 201.248 671.639 200.828 670.393 200.506C669.413 200.24 669.119 200.128 669.119 199.736C669.119 199.484 669.469 199.302 669.973 199.302C670.589 199.302 671.345 199.54 672.003 199.946L672.829 198.49C672.031 197.958 671.009 197.594 669.973 197.594C668.265 197.594 667.131 198.574 667.145 199.946C667.159 201.374 668.307 201.78 669.791 202.144C670.533 202.34 671.065 202.48 671.065 202.928C671.065 203.25 670.673 203.474 670.127 203.474C669.161 203.474 668.349 203.124 667.705 202.662L666.823 204.076C667.691 204.776 668.923 205.168 670.085 205.168ZM677.952 205.168C680.094 205.168 681.886 203.432 681.886 201.374C681.886 199.316 680.094 197.594 677.952 197.594C675.796 197.594 673.99 199.316 673.99 201.374C673.99 203.432 675.796 205.168 677.952 205.168ZM677.952 203.446C676.86 203.446 675.95 202.494 675.95 201.374C675.95 200.254 676.86 199.316 677.952 199.316C679.03 199.316 679.94 200.254 679.94 201.374C679.94 202.494 679.03 203.446 677.952 203.446ZM685.313 199.106V197.762H683.269V205H685.313V201.542C685.313 200.184 686.279 199.316 687.791 199.316V197.594C686.685 197.594 685.789 198.168 685.313 199.106Z" fill="#161B1D"/>
<rect x="575" y="172" width="128" height="54" rx="7" stroke="#161B1D" stroke-width="2"/>
<rect x="575" y="252" width="128" height="54" rx="7" fill="white"/>
<path d="M601.937 285H604.009V275.382H601.937V285ZM609.681 283.208C609.541 283.348 609.261 283.446 608.981 283.446C608.603 283.446 608.295 283.11 608.295 282.634V279.414H609.863V277.762H608.295V275.774H606.335V277.762H605.341V279.414H606.335V282.956C606.335 284.258 607.231 285.168 608.505 285.168C609.093 285.168 609.751 284.916 610.171 284.538L609.681 283.208ZM614.867 283.362C614.013 283.362 613.383 282.83 613.145 282.046H618.367C618.367 279.316 617.037 277.594 614.769 277.594C612.655 277.594 611.045 279.176 611.045 281.36C611.045 283.586 612.725 285.168 614.881 285.168C615.945 285.168 617.191 284.72 617.835 284.048L616.533 282.718C616.141 283.096 615.441 283.362 614.867 283.362ZM614.853 279.4C615.679 279.4 616.211 279.862 616.407 280.576H613.173C613.439 279.848 614.083 279.4 614.853 279.4ZM628.36 277.594C627.282 277.594 626.386 278.112 626.008 278.91C625.56 278.098 624.706 277.594 623.712 277.594C622.816 277.594 622.102 278.028 621.752 278.714V277.762H619.708V285H621.752V280.632C621.752 279.862 622.326 279.316 623.152 279.316C623.894 279.316 624.426 279.904 624.426 280.744V285.014H626.386V280.632C626.386 279.862 626.974 279.316 627.786 279.316C628.542 279.316 629.074 279.904 629.074 280.744V285.014H631.034V280.394C631.034 278.756 629.872 277.594 628.36 277.594ZM635.047 285H637.133L639.415 278.392L641.683 285H643.755L646.667 275.382H644.427L642.649 281.836L640.521 275.382H638.281L636.153 281.836L634.375 275.382H632.135L635.047 285ZM649.889 279.106V277.762H647.845V285H649.889V281.542C649.889 280.184 650.855 279.316 652.367 279.316V277.594C651.261 277.594 650.365 278.168 649.889 279.106ZM654.568 276.768C655.17 276.768 655.66 276.264 655.66 275.648C655.66 275.074 655.17 274.556 654.568 274.556C653.938 274.556 653.448 275.074 653.448 275.648C653.448 276.264 653.938 276.768 654.568 276.768ZM653.532 285H655.576V277.762H653.532V285ZM661.169 283.208C661.029 283.348 660.749 283.446 660.469 283.446C660.091 283.446 659.783 283.11 659.783 282.634V279.414H661.351V277.762H659.783V275.774H657.823V277.762H656.829V279.414H657.823V282.956C657.823 284.258 658.719 285.168 659.993 285.168C660.581 285.168 661.239 284.916 661.659 284.538L661.169 283.208ZM666.355 283.362C665.501 283.362 664.871 282.83 664.633 282.046H669.855C669.855 279.316 668.525 277.594 666.257 277.594C664.143 277.594 662.533 279.176 662.533 281.36C662.533 283.586 664.213 285.168 666.369 285.168C667.433 285.168 668.679 284.72 669.323 284.048L668.021 282.718C667.629 283.096 666.929 283.362 666.355 283.362ZM666.341 279.4C667.167 279.4 667.699 279.862 667.895 280.576H664.661C664.927 279.848 665.571 279.4 666.341 279.4ZM673.282 279.106V277.762H671.238V285H673.282V281.542C673.282 280.184 674.248 279.316 675.76 279.316V277.594C674.654 277.594 673.758 278.168 673.282 279.106Z" fill="#161B1D"/>
<rect x="575" y="252" width="128" height="54" rx="7" stroke="#161B1D" stroke-width="2"/>
<rect x="40" y="285" width="454" height="56" rx="8" fill="#161B1D"/>
<path d="M219.364 319.168C221.31 319.168 222.682 317.796 222.682 315.864V309.382H220.61V315.696C220.61 316.634 219.994 317.292 219.154 317.292C218.51 317.292 217.824 316.858 217.516 316.228L216.144 317.572C216.788 318.51 218.132 319.168 219.364 319.168ZM228.056 319.168C230.198 319.168 231.99 317.432 231.99 315.374C231.99 313.316 230.198 311.594 228.056 311.594C225.9 311.594 224.094 313.316 224.094 315.374C224.094 317.432 225.9 319.168 228.056 319.168ZM228.056 317.446C226.964 317.446 226.054 316.494 226.054 315.374C226.054 314.254 226.964 313.316 228.056 313.316C229.134 313.316 230.044 314.254 230.044 315.374C230.044 316.494 229.134 317.446 228.056 317.446ZM237.84 311.594C236.832 311.594 235.992 312.028 235.418 312.77V309.214H233.374V319H235.418V317.978C235.992 318.734 236.832 319.168 237.84 319.168C239.772 319.168 241.172 317.6 241.172 315.374C241.172 313.162 239.772 311.594 237.84 311.594ZM237.252 317.446C236.258 317.446 235.53 316.718 235.418 315.654V315.094C235.53 314.044 236.258 313.316 237.252 313.316C238.386 313.316 239.184 314.17 239.184 315.374C239.184 316.592 238.386 317.446 237.252 317.446ZM250.806 319L248.44 315.64C249.756 315.178 250.624 314.058 250.624 312.63C250.624 310.726 249.084 309.382 246.998 309.382H242.672V319H244.73V315.878H246.256L248.454 319H250.806ZM244.73 311.272H246.774C247.796 311.272 248.496 311.804 248.496 312.63C248.496 313.456 247.796 313.988 246.774 313.988H244.73V311.272ZM255.52 317.362C254.666 317.362 254.036 316.83 253.798 316.046H259.02C259.02 313.316 257.69 311.594 255.422 311.594C253.308 311.594 251.698 313.176 251.698 315.36C251.698 317.586 253.378 319.168 255.534 319.168C256.598 319.168 257.844 318.72 258.488 318.048L257.186 316.718C256.794 317.096 256.094 317.362 255.52 317.362ZM255.506 313.4C256.332 313.4 256.864 313.862 257.06 314.576H253.826C254.092 313.848 254.736 313.4 255.506 313.4ZM264.869 311.594C263.861 311.594 263.021 312.028 262.447 312.77V311.762H260.403V321.408H262.447V317.978C263.021 318.734 263.861 319.168 264.869 319.168C266.801 319.168 268.201 317.6 268.201 315.374C268.201 313.162 266.801 311.594 264.869 311.594ZM264.281 317.446C263.287 317.446 262.559 316.718 262.447 315.654V315.094C262.559 314.044 263.287 313.316 264.281 313.316C265.415 313.316 266.213 314.17 266.213 315.374C266.213 316.592 265.415 317.446 264.281 317.446ZM273.201 319.168C275.343 319.168 277.135 317.432 277.135 315.374C277.135 313.316 275.343 311.594 273.201 311.594C271.045 311.594 269.239 313.316 269.239 315.374C269.239 317.432 271.045 319.168 273.201 319.168ZM273.201 317.446C272.109 317.446 271.199 316.494 271.199 315.374C271.199 314.254 272.109 313.316 273.201 313.316C274.279 313.316 275.189 314.254 275.189 315.374C275.189 316.494 274.279 317.446 273.201 317.446ZM281.234 319.168C283.012 319.168 284.174 318.258 284.174 316.83C284.174 315.248 282.788 314.828 281.542 314.506C280.562 314.24 280.268 314.128 280.268 313.736C280.268 313.484 280.618 313.302 281.122 313.302C281.738 313.302 282.494 313.54 283.152 313.946L283.978 312.49C283.18 311.958 282.158 311.594 281.122 311.594C279.414 311.594 278.28 312.574 278.294 313.946C278.308 315.374 279.456 315.78 280.94 316.144C281.682 316.34 282.214 316.48 282.214 316.928C282.214 317.25 281.822 317.474 281.276 317.474C280.31 317.474 279.498 317.124 278.854 316.662L277.972 318.076C278.84 318.776 280.072 319.168 281.234 319.168ZM286.567 310.768C287.169 310.768 287.659 310.264 287.659 309.648C287.659 309.074 287.169 308.556 286.567 308.556C285.937 308.556 285.447 309.074 285.447 309.648C285.447 310.264 285.937 310.768 286.567 310.768ZM285.531 319H287.575V311.762H285.531V319ZM293.168 317.208C293.028 317.348 292.748 317.446 292.468 317.446C292.09 317.446 291.782 317.11 291.782 316.634V313.414H293.35V311.762H291.782V309.774H289.822V311.762H288.828V313.414H289.822V316.956C289.822 318.258 290.718 319.168 291.992 319.168C292.58 319.168 293.238 318.916 293.658 318.538L293.168 317.208ZM298.494 319.168C300.636 319.168 302.428 317.432 302.428 315.374C302.428 313.316 300.636 311.594 298.494 311.594C296.338 311.594 294.532 313.316 294.532 315.374C294.532 317.432 296.338 319.168 298.494 319.168ZM298.494 317.446C297.402 317.446 296.492 316.494 296.492 315.374C296.492 314.254 297.402 313.316 298.494 313.316C299.572 313.316 300.482 314.254 300.482 315.374C300.482 316.494 299.572 317.446 298.494 317.446ZM305.855 313.106V311.762H303.811V319H305.855V315.542C305.855 314.184 306.821 313.316 308.333 313.316V311.594C307.227 311.594 306.331 312.168 305.855 313.106ZM311.164 321.52C312.298 321.52 313.222 320.778 313.768 319.364L316.736 311.762H314.65L312.844 316.844L310.94 311.762H308.826L311.836 319.07L311.584 319.602C311.43 319.868 311.122 319.994 310.73 319.994C310.492 319.994 310.128 319.868 309.778 319.672L309.344 321.072C309.834 321.338 310.562 321.52 311.164 321.52Z" fill="white"/>
<path fill-rule="evenodd" clip-rule="evenodd" d="M494 206C497.866 206 501 202.866 501 199C501 195.134 497.866 192 494 192V206Z" fill="#F3F5F6"/>
</g>
<defs>
<clipPath id="clip0_303_269455">
<rect width="743" height="431" fill="white"/>
</clipPath>
</defs>
</svg>
