<svg width="743" height="431" viewBox="0 0 743 431" fill="none" xmlns="http://www.w3.org/2000/svg">
<g clip-path="url(#clip0_321_268384)">
<rect width="743" height="431" fill="#F3F5F6"/>
<path d="M137 476L437.441 -13H747V476H137Z" fill="white"/>
<circle cx="2.94888" cy="2.94888" r="2.94888" transform="matrix(-1 0 0 1 741.307 218)" fill="#EAEEF0"/>
<circle cx="2.94888" cy="2.94888" r="2.94888" transform="matrix(-1 0 0 1 741.307 232.898)" fill="#EAEEF0"/>
<circle cx="2.94888" cy="2.94888" r="2.94888" transform="matrix(-1 0 0 1 741.307 247.796)" fill="#EAEEF0"/>
<circle cx="2.94888" cy="2.94888" r="2.94888" transform="matrix(-1 0 0 1 741.307 262.693)" fill="#EAEEF0"/>
<circle cx="2.94888" cy="2.94888" r="2.94888" transform="matrix(-1 0 0 1 741.307 277.591)" fill="#EAEEF0"/>
<circle cx="2.94888" cy="2.94888" r="2.94888" transform="matrix(-1 0 0 1 741.307 292.489)" fill="#EAEEF0"/>
<circle cx="2.94888" cy="2.94888" r="2.94888" transform="matrix(-1 0 0 1 741.307 307.387)" fill="#EAEEF0"/>
<circle cx="2.94888" cy="2.94888" r="2.94888" transform="matrix(-1 0 0 1 741.307 322.284)" fill="#EAEEF0"/>
<circle cx="2.94888" cy="2.94888" r="2.94888" transform="matrix(-1 0 0 1 741.307 337.182)" fill="#EAEEF0"/>
<circle cx="2.94888" cy="2.94888" r="2.94888" transform="matrix(-1 0 0 1 741.307 352.08)" fill="#EAEEF0"/>
<circle cx="2.94888" cy="2.94888" r="2.94888" transform="matrix(-1 0 0 1 741.307 366.978)" fill="#EAEEF0"/>
<circle cx="2.94888" cy="2.94888" r="2.94888" transform="matrix(-1 0 0 1 741.307 381.875)" fill="#EAEEF0"/>
<circle cx="2.94888" cy="2.94888" r="2.94888" transform="matrix(-1 0 0 1 726.409 218)" fill="#EAEEF0"/>
<circle cx="2.94888" cy="2.94888" r="2.94888" transform="matrix(-1 0 0 1 726.409 232.898)" fill="#EAEEF0"/>
<circle cx="2.94888" cy="2.94888" r="2.94888" transform="matrix(-1 0 0 1 726.409 247.796)" fill="#EAEEF0"/>
<circle cx="2.94888" cy="2.94888" r="2.94888" transform="matrix(-1 0 0 1 726.409 262.693)" fill="#EAEEF0"/>
<circle cx="2.94888" cy="2.94888" r="2.94888" transform="matrix(-1 0 0 1 726.409 277.591)" fill="#EAEEF0"/>
<circle cx="2.94888" cy="2.94888" r="2.94888" transform="matrix(-1 0 0 1 726.409 292.489)" fill="#EAEEF0"/>
<circle cx="2.94888" cy="2.94888" r="2.94888" transform="matrix(-1 0 0 1 726.409 307.387)" fill="#EAEEF0"/>
<circle cx="2.94888" cy="2.94888" r="2.94888" transform="matrix(-1 0 0 1 726.409 322.284)" fill="#EAEEF0"/>
<circle cx="2.94888" cy="2.94888" r="2.94888" transform="matrix(-1 0 0 1 726.409 337.182)" fill="#EAEEF0"/>
<circle cx="2.94888" cy="2.94888" r="2.94888" transform="matrix(-1 0 0 1 726.409 352.08)" fill="#EAEEF0"/>
<circle cx="2.94888" cy="2.94888" r="2.94888" transform="matrix(-1 0 0 1 726.409 366.978)" fill="#EAEEF0"/>
<circle cx="2.94888" cy="2.94888" r="2.94888" transform="matrix(-1 0 0 1 726.409 381.875)" fill="#EAEEF0"/>
<circle cx="2.94888" cy="2.94888" r="2.94888" transform="matrix(-1 0 0 1 711.511 218)" fill="#EAEEF0"/>
<circle cx="2.94888" cy="2.94888" r="2.94888" transform="matrix(-1 0 0 1 711.511 232.898)" fill="#EAEEF0"/>
<circle cx="2.94888" cy="2.94888" r="2.94888" transform="matrix(-1 0 0 1 711.511 247.796)" fill="#EAEEF0"/>
<circle cx="2.94888" cy="2.94888" r="2.94888" transform="matrix(-1 0 0 1 711.511 262.693)" fill="#EAEEF0"/>
<circle cx="2.94888" cy="2.94888" r="2.94888" transform="matrix(-1 0 0 1 711.511 277.591)" fill="#EAEEF0"/>
<circle cx="2.94888" cy="2.94888" r="2.94888" transform="matrix(-1 0 0 1 711.511 292.489)" fill="#EAEEF0"/>
<circle cx="2.94888" cy="2.94888" r="2.94888" transform="matrix(-1 0 0 1 711.511 307.387)" fill="#EAEEF0"/>
<circle cx="2.94888" cy="2.94888" r="2.94888" transform="matrix(-1 0 0 1 711.511 322.284)" fill="#EAEEF0"/>
<circle cx="2.94888" cy="2.94888" r="2.94888" transform="matrix(-1 0 0 1 711.511 337.182)" fill="#EAEEF0"/>
<circle cx="2.94888" cy="2.94888" r="2.94888" transform="matrix(-1 0 0 1 711.511 352.08)" fill="#EAEEF0"/>
<circle cx="2.94888" cy="2.94888" r="2.94888" transform="matrix(-1 0 0 1 711.511 366.978)" fill="#EAEEF0"/>
<circle cx="2.94888" cy="2.94888" r="2.94888" transform="matrix(-1 0 0 1 711.511 381.875)" fill="#EAEEF0"/>
<circle cx="2.94888" cy="2.94888" r="2.94888" transform="matrix(-1 0 0 1 696.613 218)" fill="#EAEEF0"/>
<circle cx="2.94888" cy="2.94888" r="2.94888" transform="matrix(-1 0 0 1 696.613 232.898)" fill="#EAEEF0"/>
<circle cx="2.94888" cy="2.94888" r="2.94888" transform="matrix(-1 0 0 1 696.613 247.796)" fill="#EAEEF0"/>
<circle cx="2.94888" cy="2.94888" r="2.94888" transform="matrix(-1 0 0 1 696.613 262.693)" fill="#EAEEF0"/>
<circle cx="2.94888" cy="2.94888" r="2.94888" transform="matrix(-1 0 0 1 696.613 277.591)" fill="#EAEEF0"/>
<circle cx="2.94888" cy="2.94888" r="2.94888" transform="matrix(-1 0 0 1 696.613 292.489)" fill="#EAEEF0"/>
<circle cx="2.94888" cy="2.94888" r="2.94888" transform="matrix(-1 0 0 1 696.613 307.387)" fill="#EAEEF0"/>
<circle cx="2.94888" cy="2.94888" r="2.94888" transform="matrix(-1 0 0 1 696.613 322.284)" fill="#EAEEF0"/>
<circle cx="2.94888" cy="2.94888" r="2.94888" transform="matrix(-1 0 0 1 696.613 337.182)" fill="#EAEEF0"/>
<circle cx="2.94888" cy="2.94888" r="2.94888" transform="matrix(-1 0 0 1 696.613 352.08)" fill="#EAEEF0"/>
<circle cx="2.94888" cy="2.94888" r="2.94888" transform="matrix(-1 0 0 1 696.613 366.978)" fill="#EAEEF0"/>
<circle cx="2.94888" cy="2.94888" r="2.94888" transform="matrix(-1 0 0 1 696.613 381.875)" fill="#EAEEF0"/>
<circle cx="2.94888" cy="2.94888" r="2.94888" transform="matrix(-1 0 0 1 681.716 218)" fill="#EAEEF0"/>
<circle cx="2.94888" cy="2.94888" r="2.94888" transform="matrix(-1 0 0 1 681.716 232.898)" fill="#EAEEF0"/>
<circle cx="2.94888" cy="2.94888" r="2.94888" transform="matrix(-1 0 0 1 681.716 247.796)" fill="#EAEEF0"/>
<circle cx="2.94888" cy="2.94888" r="2.94888" transform="matrix(-1 0 0 1 681.716 262.693)" fill="#EAEEF0"/>
<circle cx="2.94888" cy="2.94888" r="2.94888" transform="matrix(-1 0 0 1 681.716 277.591)" fill="#EAEEF0"/>
<circle cx="2.94888" cy="2.94888" r="2.94888" transform="matrix(-1 0 0 1 681.716 292.489)" fill="#EAEEF0"/>
<circle cx="2.94888" cy="2.94888" r="2.94888" transform="matrix(-1 0 0 1 681.716 307.387)" fill="#EAEEF0"/>
<circle cx="2.94888" cy="2.94888" r="2.94888" transform="matrix(-1 0 0 1 681.716 322.284)" fill="#EAEEF0"/>
<circle cx="2.94888" cy="2.94888" r="2.94888" transform="matrix(-1 0 0 1 681.716 337.182)" fill="#EAEEF0"/>
<circle cx="2.94888" cy="2.94888" r="2.94888" transform="matrix(-1 0 0 1 681.716 352.08)" fill="#EAEEF0"/>
<circle cx="2.94888" cy="2.94888" r="2.94888" transform="matrix(-1 0 0 1 681.716 366.978)" fill="#EAEEF0"/>
<circle cx="2.94888" cy="2.94888" r="2.94888" transform="matrix(-1 0 0 1 681.716 381.875)" fill="#EAEEF0"/>
<circle cx="2.94888" cy="2.94888" r="2.94888" transform="matrix(-1 0 0 1 666.818 218)" fill="#EAEEF0"/>
<circle cx="2.94888" cy="2.94888" r="2.94888" transform="matrix(-1 0 0 1 666.818 232.898)" fill="#EAEEF0"/>
<circle cx="2.94888" cy="2.94888" r="2.94888" transform="matrix(-1 0 0 1 666.818 247.796)" fill="#EAEEF0"/>
<circle cx="2.94888" cy="2.94888" r="2.94888" transform="matrix(-1 0 0 1 666.818 262.693)" fill="#EAEEF0"/>
<circle cx="2.94888" cy="2.94888" r="2.94888" transform="matrix(-1 0 0 1 666.818 277.591)" fill="#EAEEF0"/>
<circle cx="2.94888" cy="2.94888" r="2.94888" transform="matrix(-1 0 0 1 666.818 292.489)" fill="#EAEEF0"/>
<circle cx="2.94888" cy="2.94888" r="2.94888" transform="matrix(-1 0 0 1 666.818 307.387)" fill="#EAEEF0"/>
<circle cx="2.94888" cy="2.94888" r="2.94888" transform="matrix(-1 0 0 1 666.818 322.284)" fill="#EAEEF0"/>
<circle cx="2.94888" cy="2.94888" r="2.94888" transform="matrix(-1 0 0 1 666.818 337.182)" fill="#EAEEF0"/>
<circle cx="2.94888" cy="2.94888" r="2.94888" transform="matrix(-1 0 0 1 666.818 352.08)" fill="#EAEEF0"/>
<circle cx="2.94888" cy="2.94888" r="2.94888" transform="matrix(-1 0 0 1 666.818 366.978)" fill="#EAEEF0"/>
<circle cx="2.94888" cy="2.94888" r="2.94888" transform="matrix(-1 0 0 1 666.818 381.875)" fill="#EAEEF0"/>
<circle cx="2.94888" cy="2.94888" r="2.94888" transform="matrix(-1 0 0 1 651.92 218)" fill="#EAEEF0"/>
<circle cx="2.94888" cy="2.94888" r="2.94888" transform="matrix(-1 0 0 1 651.92 232.898)" fill="#EAEEF0"/>
<circle cx="2.94888" cy="2.94888" r="2.94888" transform="matrix(-1 0 0 1 651.92 247.796)" fill="#EAEEF0"/>
<circle cx="2.94888" cy="2.94888" r="2.94888" transform="matrix(-1 0 0 1 651.92 262.693)" fill="#EAEEF0"/>
<circle cx="2.94888" cy="2.94888" r="2.94888" transform="matrix(-1 0 0 1 651.92 277.591)" fill="#EAEEF0"/>
<circle cx="2.94888" cy="2.94888" r="2.94888" transform="matrix(-1 0 0 1 651.92 292.489)" fill="#EAEEF0"/>
<circle cx="2.94888" cy="2.94888" r="2.94888" transform="matrix(-1 0 0 1 651.92 307.387)" fill="#EAEEF0"/>
<circle cx="2.94888" cy="2.94888" r="2.94888" transform="matrix(-1 0 0 1 651.92 322.284)" fill="#EAEEF0"/>
<circle cx="2.94888" cy="2.94888" r="2.94888" transform="matrix(-1 0 0 1 651.92 337.182)" fill="#EAEEF0"/>
<circle cx="2.94888" cy="2.94888" r="2.94888" transform="matrix(-1 0 0 1 651.92 352.08)" fill="#EAEEF0"/>
<circle cx="2.94888" cy="2.94888" r="2.94888" transform="matrix(-1 0 0 1 651.92 366.978)" fill="#EAEEF0"/>
<circle cx="2.94888" cy="2.94888" r="2.94888" transform="matrix(-1 0 0 1 651.92 381.875)" fill="#EAEEF0"/>
<circle cx="2.94888" cy="2.94888" r="2.94888" transform="matrix(-1 0 0 1 637.022 218)" fill="#EAEEF0"/>
<circle cx="2.94888" cy="2.94888" r="2.94888" transform="matrix(-1 0 0 1 637.022 232.898)" fill="#EAEEF0"/>
<circle cx="2.94888" cy="2.94888" r="2.94888" transform="matrix(-1 0 0 1 637.022 247.796)" fill="#EAEEF0"/>
<circle cx="2.94888" cy="2.94888" r="2.94888" transform="matrix(-1 0 0 1 637.022 262.693)" fill="#EAEEF0"/>
<circle cx="2.94888" cy="2.94888" r="2.94888" transform="matrix(-1 0 0 1 637.022 277.591)" fill="#EAEEF0"/>
<circle cx="2.94888" cy="2.94888" r="2.94888" transform="matrix(-1 0 0 1 637.022 292.489)" fill="#EAEEF0"/>
<circle cx="2.94888" cy="2.94888" r="2.94888" transform="matrix(-1 0 0 1 637.022 307.387)" fill="#EAEEF0"/>
<circle cx="2.94888" cy="2.94888" r="2.94888" transform="matrix(-1 0 0 1 637.022 322.284)" fill="#EAEEF0"/>
<circle cx="2.94888" cy="2.94888" r="2.94888" transform="matrix(-1 0 0 1 637.022 337.182)" fill="#EAEEF0"/>
<circle cx="2.94888" cy="2.94888" r="2.94888" transform="matrix(-1 0 0 1 637.022 352.08)" fill="#EAEEF0"/>
<circle cx="2.94888" cy="2.94888" r="2.94888" transform="matrix(-1 0 0 1 637.022 366.978)" fill="#EAEEF0"/>
<circle cx="2.94888" cy="2.94888" r="2.94888" transform="matrix(-1 0 0 1 637.022 381.875)" fill="#EAEEF0"/>
<circle cx="2.94888" cy="2.94888" r="2.94888" transform="matrix(-1 0 0 1 622.125 218)" fill="#EAEEF0"/>
<circle cx="2.94888" cy="2.94888" r="2.94888" transform="matrix(-1 0 0 1 622.125 232.898)" fill="#EAEEF0"/>
<circle cx="2.94888" cy="2.94888" r="2.94888" transform="matrix(-1 0 0 1 622.125 247.796)" fill="#EAEEF0"/>
<circle cx="2.94888" cy="2.94888" r="2.94888" transform="matrix(-1 0 0 1 622.125 262.693)" fill="#EAEEF0"/>
<circle cx="2.94888" cy="2.94888" r="2.94888" transform="matrix(-1 0 0 1 622.125 277.591)" fill="#EAEEF0"/>
<circle cx="2.94888" cy="2.94888" r="2.94888" transform="matrix(-1 0 0 1 622.125 292.489)" fill="#EAEEF0"/>
<circle cx="2.94888" cy="2.94888" r="2.94888" transform="matrix(-1 0 0 1 622.125 307.387)" fill="#EAEEF0"/>
<circle cx="2.94888" cy="2.94888" r="2.94888" transform="matrix(-1 0 0 1 622.125 322.284)" fill="#EAEEF0"/>
<circle cx="2.94888" cy="2.94888" r="2.94888" transform="matrix(-1 0 0 1 622.125 337.182)" fill="#EAEEF0"/>
<circle cx="2.94888" cy="2.94888" r="2.94888" transform="matrix(-1 0 0 1 622.125 352.08)" fill="#EAEEF0"/>
<circle cx="2.94888" cy="2.94888" r="2.94888" transform="matrix(-1 0 0 1 622.125 366.978)" fill="#EAEEF0"/>
<circle cx="2.94888" cy="2.94888" r="2.94888" transform="matrix(-1 0 0 1 622.125 381.875)" fill="#EAEEF0"/>
<rect x="222" y="232" width="120" height="42" rx="8" fill="#161B1D"/>
<path d="M260.541 257V249.244H257.545V247.382H265.609V249.244H262.613V257H260.541ZM270.168 249.594C272.058 249.594 273.346 250.784 273.346 252.674V257H271.372V256.272C270.854 256.86 270.028 257.168 269.244 257.168C267.704 257.168 266.514 256.244 266.514 254.858C266.514 253.43 267.844 252.45 269.524 252.45C270.112 252.45 270.756 252.576 271.372 252.814V252.674C271.372 251.904 270.896 251.232 269.706 251.232C269.034 251.232 268.404 251.456 267.83 251.75L267.144 250.392C268.166 249.874 269.16 249.594 270.168 249.594ZM269.706 255.754C270.49 255.754 271.232 255.39 271.372 254.718V254.046C270.91 253.878 270.378 253.78 269.818 253.78C269.076 253.78 268.488 254.214 268.488 254.802C268.488 255.39 269.006 255.754 269.706 255.754ZM277.785 257.168C276.623 257.168 275.391 256.776 274.523 256.076L275.405 254.662C276.049 255.124 276.861 255.474 277.827 255.474C278.373 255.474 278.765 255.25 278.765 254.928C278.765 254.48 278.233 254.34 277.491 254.144C276.007 253.78 274.859 253.374 274.845 251.946C274.831 250.574 275.965 249.594 277.673 249.594C278.709 249.594 279.731 249.958 280.529 250.49L279.703 251.946C279.045 251.54 278.289 251.302 277.673 251.302C277.169 251.302 276.819 251.484 276.819 251.736C276.819 252.128 277.113 252.24 278.093 252.506C279.339 252.828 280.725 253.248 280.725 254.83C280.725 256.258 279.563 257.168 277.785 257.168ZM289.138 249.762L286.324 252.968L289.11 257H286.758L284.966 254.284L284.098 255.222V257H282.054V247.214H284.098V252.884L286.786 249.762H289.138ZM290.094 257V247.214H292.138V257H290.094ZM297.338 255.362C297.912 255.362 298.612 255.096 299.004 254.718L300.306 256.048C299.662 256.72 298.416 257.168 297.352 257.168C295.196 257.168 293.516 255.586 293.516 253.36C293.516 251.176 295.126 249.594 297.24 249.594C299.508 249.594 300.838 251.316 300.838 254.046H295.616C295.854 254.83 296.484 255.362 297.338 255.362ZM297.324 251.4C296.554 251.4 295.91 251.848 295.644 252.576H298.878C298.682 251.862 298.15 251.4 297.324 251.4ZM306.029 255.208L306.519 256.538C306.099 256.916 305.441 257.168 304.853 257.168C303.579 257.168 302.683 256.258 302.683 254.956V251.414H301.689V249.762H302.683V247.774H304.643V249.762H306.211V251.414H304.643V254.634C304.643 255.11 304.951 255.446 305.329 255.446C305.609 255.446 305.889 255.348 306.029 255.208Z" fill="white"/>
<rect x="312" y="24" width="120" height="42" rx="8" fill="#161B1D"/>
<path d="M360.603 49.168C358.937 49.168 357.453 48.608 356.333 47.572L357.523 46.158C358.433 46.942 359.469 47.418 360.687 47.418C361.723 47.418 362.255 46.942 362.255 46.34C362.255 45.654 361.695 45.444 360.225 45.108C358.195 44.646 356.753 44.072 356.753 42.21C356.753 40.432 358.209 39.214 360.309 39.214C361.877 39.214 363.095 39.704 364.075 40.544L362.997 42.028C362.143 41.342 361.177 40.964 360.253 40.964C359.371 40.964 358.839 41.426 358.839 42C358.839 42.7 359.413 42.924 360.897 43.26C362.969 43.722 364.341 44.338 364.341 46.116C364.341 47.95 362.955 49.168 360.603 49.168ZM369.574 47.208L370.064 48.538C369.644 48.916 368.986 49.168 368.398 49.168C367.124 49.168 366.228 48.258 366.228 46.956V43.414H365.234V41.762H366.228V39.774H368.188V41.762H369.756V43.414H368.188V46.634C368.188 47.11 368.496 47.446 368.874 47.446C369.154 47.446 369.434 47.348 369.574 47.208ZM374.76 47.362C375.334 47.362 376.034 47.096 376.426 46.718L377.728 48.048C377.084 48.72 375.838 49.168 374.774 49.168C372.618 49.168 370.938 47.586 370.938 45.36C370.938 43.176 372.548 41.594 374.662 41.594C376.93 41.594 378.26 43.316 378.26 46.046H373.038C373.276 46.83 373.906 47.362 374.76 47.362ZM374.746 43.4C373.976 43.4 373.332 43.848 373.066 44.576H376.3C376.104 43.862 375.572 43.4 374.746 43.4ZM384.109 41.594C386.041 41.594 387.441 43.162 387.441 45.374C387.441 47.6 386.041 49.168 384.109 49.168C383.101 49.168 382.261 48.734 381.687 47.978V51.408H379.643V41.762H381.687V42.77C382.261 42.028 383.101 41.594 384.109 41.594ZM383.521 47.446C384.655 47.446 385.453 46.592 385.453 45.374C385.453 44.17 384.655 43.316 383.521 43.316C382.527 43.316 381.799 44.044 381.687 45.094V45.654C381.799 46.718 382.527 47.446 383.521 47.446Z" fill="white"/>
<path d="M334.904 90.446C334.512 90.446 334.204 90.124 334.204 89.746C334.204 89.382 334.512 89.06 334.904 89.06C335.282 89.06 335.59 89.382 335.59 89.746C335.59 90.124 335.282 90.446 334.904 90.446ZM334.372 99V91.762H335.422V99H334.372ZM345.357 91.594C346.869 91.594 347.933 92.756 347.933 94.394V99H346.883V94.534C346.883 93.358 346.197 92.532 345.217 92.532C344.069 92.532 343.257 93.302 343.257 94.394V99H342.207V94.534C342.207 93.358 341.521 92.532 340.541 92.532C339.393 92.532 338.581 93.302 338.581 94.394V99H337.531V91.762H338.581V92.826C338.945 92.07 339.729 91.594 340.681 91.594C341.773 91.594 342.627 92.196 343.019 93.134C343.313 92.196 344.265 91.594 345.357 91.594ZM353.834 91.594C355.738 91.594 357.166 93.162 357.166 95.374C357.166 97.6 355.738 99.168 353.834 99.168C352.672 99.168 351.748 98.594 351.202 97.642V101.408H350.152V91.762H351.202V93.12C351.748 92.168 352.672 91.594 353.834 91.594ZM353.638 98.23C355.052 98.23 356.06 97.04 356.06 95.374C356.06 93.708 355.052 92.532 353.638 92.532C352.21 92.532 351.202 93.708 351.202 95.374C351.202 97.04 352.21 98.23 353.638 98.23ZM358.982 99V89.214H360.032V99H358.982ZM365.416 98.23C366.27 98.23 367.25 97.852 367.698 97.362L368.342 98.048C367.712 98.734 366.438 99.168 365.43 99.168C363.498 99.168 361.762 97.586 361.762 95.36C361.762 93.204 363.386 91.594 365.332 91.594C367.516 91.594 368.762 93.246 368.762 95.78H362.84C362.994 97.194 363.988 98.23 365.416 98.23ZM365.374 92.532C364.086 92.532 363.05 93.442 362.854 94.842H367.726C367.586 93.54 366.816 92.532 365.374 92.532ZM378.306 91.594C379.818 91.594 380.882 92.756 380.882 94.394V99H379.832V94.534C379.832 93.358 379.146 92.532 378.166 92.532C377.018 92.532 376.206 93.302 376.206 94.394V99H375.156V94.534C375.156 93.358 374.47 92.532 373.49 92.532C372.342 92.532 371.53 93.302 371.53 94.394V99H370.48V91.762H371.53V92.826C371.894 92.07 372.678 91.594 373.63 91.594C374.722 91.594 375.576 92.196 375.968 93.134C376.262 92.196 377.214 91.594 378.306 91.594ZM386.265 98.23C387.119 98.23 388.099 97.852 388.547 97.362L389.191 98.048C388.561 98.734 387.287 99.168 386.279 99.168C384.347 99.168 382.611 97.586 382.611 95.36C382.611 93.204 384.235 91.594 386.181 91.594C388.365 91.594 389.611 93.246 389.611 95.78H383.689C383.843 97.194 384.837 98.23 386.265 98.23ZM386.223 92.532C384.935 92.532 383.899 93.442 383.703 94.842H388.575C388.435 93.54 387.665 92.532 386.223 92.532ZM394.774 91.594C396.37 91.594 397.49 92.756 397.49 94.394V99H396.44V94.534C396.44 93.358 395.698 92.532 394.634 92.532C393.416 92.532 392.394 93.386 392.394 94.394V99H391.344V91.762H392.394V92.924C392.814 92.154 393.752 91.594 394.774 91.594ZM402.793 97.936L403.311 98.706C402.933 99 402.457 99.168 401.967 99.168C400.931 99.168 400.203 98.398 400.203 97.32V92.7H399.069V91.762H400.203V89.774H401.253V91.762H403.031V92.7H401.253V97.32C401.253 97.852 401.617 98.23 402.037 98.23C402.359 98.23 402.639 98.104 402.793 97.936ZM407.358 99.168C406.35 99.168 405.23 98.79 404.362 98.09L404.908 97.32C405.734 97.922 406.56 98.23 407.358 98.23C408.31 98.23 408.954 97.782 408.954 97.096C408.954 96.312 408.114 96.06 407.134 95.78C405.384 95.276 404.712 94.758 404.712 93.722C404.712 92.406 405.804 91.594 407.246 91.594C408.142 91.594 409.066 91.902 409.836 92.406L409.332 93.218C408.604 92.756 407.89 92.532 407.246 92.532C406.434 92.532 405.762 92.896 405.762 93.596C405.762 94.226 406.294 94.422 407.638 94.856C408.8 95.22 410.004 95.612 410.004 96.984C410.004 98.314 408.856 99.168 407.358 99.168Z" fill="#161B1D"/>
<path d="M244.904 295.446C244.512 295.446 244.204 295.124 244.204 294.746C244.204 294.382 244.512 294.06 244.904 294.06C245.282 294.06 245.59 294.382 245.59 294.746C245.59 295.124 245.282 295.446 244.904 295.446ZM244.372 304V296.762H245.422V304H244.372ZM255.357 296.594C256.869 296.594 257.933 297.756 257.933 299.394V304H256.883V299.534C256.883 298.358 256.197 297.532 255.217 297.532C254.069 297.532 253.257 298.302 253.257 299.394V304H252.207V299.534C252.207 298.358 251.521 297.532 250.541 297.532C249.393 297.532 248.581 298.302 248.581 299.394V304H247.531V296.762H248.581V297.826C248.945 297.07 249.729 296.594 250.681 296.594C251.773 296.594 252.627 297.196 253.019 298.134C253.313 297.196 254.265 296.594 255.357 296.594ZM263.834 296.594C265.738 296.594 267.166 298.162 267.166 300.374C267.166 302.6 265.738 304.168 263.834 304.168C262.672 304.168 261.748 303.594 261.202 302.642V306.408H260.152V296.762H261.202V298.12C261.748 297.168 262.672 296.594 263.834 296.594ZM263.638 303.23C265.052 303.23 266.06 302.04 266.06 300.374C266.06 298.708 265.052 297.532 263.638 297.532C262.21 297.532 261.202 298.708 261.202 300.374C261.202 302.04 262.21 303.23 263.638 303.23ZM268.982 304V294.214H270.032V304H268.982ZM275.416 303.23C276.27 303.23 277.25 302.852 277.698 302.362L278.342 303.048C277.712 303.734 276.438 304.168 275.43 304.168C273.498 304.168 271.762 302.586 271.762 300.36C271.762 298.204 273.386 296.594 275.332 296.594C277.516 296.594 278.762 298.246 278.762 300.78H272.84C272.994 302.194 273.988 303.23 275.416 303.23ZM275.374 297.532C274.086 297.532 273.05 298.442 272.854 299.842H277.726C277.586 298.54 276.816 297.532 275.374 297.532ZM288.306 296.594C289.818 296.594 290.882 297.756 290.882 299.394V304H289.832V299.534C289.832 298.358 289.146 297.532 288.166 297.532C287.018 297.532 286.206 298.302 286.206 299.394V304H285.156V299.534C285.156 298.358 284.47 297.532 283.49 297.532C282.342 297.532 281.53 298.302 281.53 299.394V304H280.48V296.762H281.53V297.826C281.894 297.07 282.678 296.594 283.63 296.594C284.722 296.594 285.576 297.196 285.968 298.134C286.262 297.196 287.214 296.594 288.306 296.594ZM296.265 303.23C297.119 303.23 298.099 302.852 298.547 302.362L299.191 303.048C298.561 303.734 297.287 304.168 296.279 304.168C294.347 304.168 292.611 302.586 292.611 300.36C292.611 298.204 294.235 296.594 296.181 296.594C298.365 296.594 299.611 298.246 299.611 300.78H293.689C293.843 302.194 294.837 303.23 296.265 303.23ZM296.223 297.532C294.935 297.532 293.899 298.442 293.703 299.842H298.575C298.435 298.54 297.665 297.532 296.223 297.532ZM304.774 296.594C306.37 296.594 307.49 297.756 307.49 299.394V304H306.44V299.534C306.44 298.358 305.698 297.532 304.634 297.532C303.416 297.532 302.394 298.386 302.394 299.394V304H301.344V296.762H302.394V297.924C302.814 297.154 303.752 296.594 304.774 296.594ZM312.793 302.936L313.311 303.706C312.933 304 312.457 304.168 311.967 304.168C310.931 304.168 310.203 303.398 310.203 302.32V297.7H309.069V296.762H310.203V294.774H311.253V296.762H313.031V297.7H311.253V302.32C311.253 302.852 311.617 303.23 312.037 303.23C312.359 303.23 312.639 303.104 312.793 302.936ZM317.358 304.168C316.35 304.168 315.23 303.79 314.362 303.09L314.908 302.32C315.734 302.922 316.56 303.23 317.358 303.23C318.31 303.23 318.954 302.782 318.954 302.096C318.954 301.312 318.114 301.06 317.134 300.78C315.384 300.276 314.712 299.758 314.712 298.722C314.712 297.406 315.804 296.594 317.246 296.594C318.142 296.594 319.066 296.902 319.836 297.406L319.332 298.218C318.604 297.756 317.89 297.532 317.246 297.532C316.434 297.532 315.762 297.896 315.762 298.596C315.762 299.226 316.294 299.422 317.638 299.856C318.8 300.22 320.004 300.612 320.004 301.984C320.004 303.314 318.856 304.168 317.358 304.168Z" fill="#161B1D"/>
<path d="M272.409 200.762H273.459V208H272.409V206.838C271.989 207.608 271.051 208.168 270.029 208.168C268.433 208.168 267.313 207.006 267.313 205.368V200.762H268.363V205.228C268.363 206.404 269.105 207.23 270.169 207.23C271.387 207.23 272.409 206.376 272.409 205.368V200.762ZM278.16 208.168C277.152 208.168 276.032 207.79 275.164 207.09L275.71 206.32C276.536 206.922 277.362 207.23 278.16 207.23C279.112 207.23 279.756 206.782 279.756 206.096C279.756 205.312 278.916 205.06 277.936 204.78C276.186 204.276 275.514 203.758 275.514 202.722C275.514 201.406 276.606 200.594 278.048 200.594C278.944 200.594 279.868 200.902 280.638 201.406L280.134 202.218C279.406 201.756 278.692 201.532 278.048 201.532C277.236 201.532 276.564 201.896 276.564 202.596C276.564 203.226 277.096 203.422 278.44 203.856C279.602 204.22 280.806 204.612 280.806 205.984C280.806 207.314 279.658 208.168 278.16 208.168ZM285.805 207.23C286.659 207.23 287.639 206.852 288.087 206.362L288.731 207.048C288.101 207.734 286.827 208.168 285.819 208.168C283.887 208.168 282.151 206.586 282.151 204.36C282.151 202.204 283.775 200.594 285.721 200.594C287.905 200.594 289.151 202.246 289.151 204.78H283.229C283.383 206.194 284.377 207.23 285.805 207.23ZM285.763 201.532C284.475 201.532 283.439 202.442 283.243 203.842H288.115C287.975 202.54 287.205 201.532 285.763 201.532ZM293.432 208.168C292.424 208.168 291.304 207.79 290.436 207.09L290.982 206.32C291.808 206.922 292.634 207.23 293.432 207.23C294.384 207.23 295.028 206.782 295.028 206.096C295.028 205.312 294.188 205.06 293.208 204.78C291.458 204.276 290.786 203.758 290.786 202.722C290.786 201.406 291.878 200.594 293.32 200.594C294.216 200.594 295.14 200.902 295.91 201.406L295.406 202.218C294.678 201.756 293.964 201.532 293.32 201.532C292.508 201.532 291.836 201.896 291.836 202.596C291.836 203.226 292.368 203.422 293.712 203.856C294.874 204.22 296.078 204.612 296.078 205.984C296.078 207.314 294.93 208.168 293.432 208.168Z" fill="#161B1D"/>
<rect x="78" y="350" width="194" height="36" rx="7" fill="white"/>
<path d="M103.561 372.168C100.803 372.168 98.451 369.886 98.451 367.184C98.451 364.482 100.803 362.214 103.561 362.214C105.017 362.214 106.361 362.83 107.299 363.824L105.801 365.168C105.241 364.524 104.443 364.09 103.561 364.09C101.951 364.09 100.579 365.518 100.579 367.184C100.579 368.864 101.951 370.292 103.561 370.292C104.443 370.292 105.241 369.858 105.801 369.214L107.299 370.558C106.361 371.538 105.017 372.168 103.561 372.168ZM112.707 364.594C114.275 364.594 115.395 365.756 115.395 367.394V372H113.421V367.828C113.421 366.932 112.861 366.316 112.049 366.316C111.195 366.316 110.537 366.932 110.537 367.716V372H108.493V362.214H110.537V365.644C110.985 365.014 111.783 364.594 112.707 364.594ZM121.923 364.762H123.967V372H121.923V371.09C121.489 371.748 120.677 372.168 119.739 372.168C118.171 372.168 117.051 371.006 117.051 369.368V364.762H119.025V368.934C119.025 369.83 119.585 370.446 120.397 370.446C121.251 370.446 121.909 369.83 121.909 369.046L121.923 369.088V364.762ZM129.906 364.594C131.474 364.594 132.594 365.756 132.594 367.394V372H130.62V367.828C130.62 366.932 130.06 366.316 129.248 366.316C128.394 366.316 127.736 366.932 127.736 367.716L127.722 367.674V372H125.678V364.762H127.722V365.672C128.156 365.014 128.968 364.594 129.906 364.594ZM141.362 364.762L138.548 367.968L141.334 372H138.982L137.19 369.284L136.322 370.222V372H134.278V362.214H136.322V367.884L139.01 364.762H141.362ZM147.106 372.168C144.348 372.168 141.996 369.886 141.996 367.184C141.996 364.482 144.348 362.214 147.106 362.214C149.892 362.214 152.216 364.482 152.216 367.184C152.216 369.886 149.892 372.168 147.106 372.168ZM147.106 370.292C148.73 370.292 150.102 368.864 150.102 367.184C150.102 365.518 148.73 364.09 147.106 364.09C145.496 364.09 144.124 365.518 144.124 367.184C144.124 368.864 145.496 370.292 147.106 370.292ZM155.723 366.106C156.199 365.168 157.095 364.594 158.201 364.594V366.316C156.689 366.316 155.723 367.184 155.723 368.542V372H153.679V364.762H155.723V366.106ZM160.402 363.768C159.772 363.768 159.282 363.264 159.282 362.648C159.282 362.074 159.772 361.556 160.402 361.556C161.004 361.556 161.494 362.074 161.494 362.648C161.494 363.264 161.004 363.768 160.402 363.768ZM159.366 372V364.762H161.41V372H159.366ZM166.611 370.362C167.185 370.362 167.885 370.096 168.277 369.718L169.579 371.048C168.935 371.72 167.689 372.168 166.625 372.168C164.469 372.168 162.789 370.586 162.789 368.36C162.789 366.176 164.399 364.594 166.513 364.594C168.781 364.594 170.111 366.316 170.111 369.046H164.889C165.127 369.83 165.757 370.362 166.611 370.362ZM166.597 366.4C165.827 366.4 165.183 366.848 164.917 367.576H168.151C167.955 366.862 167.423 366.4 166.597 366.4ZM175.68 364.594C177.248 364.594 178.368 365.756 178.368 367.394V372H176.394V367.828C176.394 366.932 175.834 366.316 175.022 366.316C174.168 366.316 173.51 366.932 173.51 367.716L173.496 367.674V372H171.452V364.762H173.496V365.672C173.93 365.014 174.742 364.594 175.68 364.594ZM183.901 370.208L184.391 371.538C183.971 371.916 183.313 372.168 182.725 372.168C181.451 372.168 180.555 371.258 180.555 369.956V366.414H179.561V364.762H180.555V362.774H182.515V364.762H184.083V366.414H182.515V369.634C182.515 370.11 182.823 370.446 183.201 370.446C183.481 370.446 183.761 370.348 183.901 370.208ZM189.087 370.362C189.661 370.362 190.361 370.096 190.753 369.718L192.055 371.048C191.411 371.72 190.165 372.168 189.101 372.168C186.945 372.168 185.265 370.586 185.265 368.36C185.265 366.176 186.875 364.594 188.989 364.594C191.257 364.594 192.587 366.316 192.587 369.046H187.365C187.603 369.83 188.233 370.362 189.087 370.362ZM189.073 366.4C188.303 366.4 187.659 366.848 187.393 367.576H190.627C190.431 366.862 189.899 366.4 189.073 366.4ZM199.374 362.214H201.418V372H199.374V370.964C198.8 371.72 197.96 372.168 196.938 372.168C195.006 372.168 193.606 370.6 193.606 368.374C193.606 366.162 195.006 364.594 196.938 364.594C197.96 364.594 198.8 365.042 199.374 365.798V362.214ZM197.526 370.446C198.604 370.446 199.374 369.592 199.374 368.374C199.374 367.17 198.604 366.316 197.526 366.316C196.392 366.316 195.594 367.17 195.594 368.374C195.594 369.592 196.392 370.446 197.526 370.446ZM205.76 372V364.244H202.764V362.382H210.828V364.244H207.832V372H205.76ZM215.388 364.594C217.278 364.594 218.566 365.784 218.566 367.674V372H216.592V371.272C216.074 371.86 215.248 372.168 214.464 372.168C212.924 372.168 211.734 371.244 211.734 369.858C211.734 368.43 213.064 367.45 214.744 367.45C215.332 367.45 215.976 367.576 216.592 367.814V367.674C216.592 366.904 216.116 366.232 214.926 366.232C214.254 366.232 213.624 366.456 213.05 366.75L212.364 365.392C213.386 364.874 214.38 364.594 215.388 364.594ZM214.926 370.754C215.71 370.754 216.452 370.39 216.592 369.718V369.046C216.13 368.878 215.598 368.78 215.038 368.78C214.296 368.78 213.708 369.214 213.708 369.802C213.708 370.39 214.226 370.754 214.926 370.754ZM223.005 372.168C221.843 372.168 220.611 371.776 219.743 371.076L220.625 369.662C221.269 370.124 222.081 370.474 223.047 370.474C223.593 370.474 223.985 370.25 223.985 369.928C223.985 369.48 223.453 369.34 222.711 369.144C221.227 368.78 220.079 368.374 220.065 366.946C220.051 365.574 221.185 364.594 222.893 364.594C223.929 364.594 224.951 364.958 225.749 365.49L224.923 366.946C224.265 366.54 223.509 366.302 222.893 366.302C222.389 366.302 222.039 366.484 222.039 366.736C222.039 367.128 222.333 367.24 223.313 367.506C224.559 367.828 225.945 368.248 225.945 369.83C225.945 371.258 224.783 372.168 223.005 372.168ZM234.358 364.762L231.544 367.968L234.33 372H231.978L230.186 369.284L229.318 370.222V372H227.274V362.214H229.318V367.884L232.006 364.762H234.358ZM235.314 372V362.214H237.358V372H235.314ZM242.558 370.362C243.132 370.362 243.832 370.096 244.224 369.718L245.526 371.048C244.882 371.72 243.636 372.168 242.572 372.168C240.416 372.168 238.736 370.586 238.736 368.36C238.736 366.176 240.346 364.594 242.46 364.594C244.728 364.594 246.058 366.316 246.058 369.046H240.836C241.074 369.83 241.704 370.362 242.558 370.362ZM242.544 366.4C241.774 366.4 241.13 366.848 240.864 367.576H244.098C243.902 366.862 243.37 366.4 242.544 366.4ZM251.249 370.208L251.739 371.538C251.319 371.916 250.661 372.168 250.073 372.168C248.799 372.168 247.903 371.258 247.903 369.956V366.414H246.909V364.762H247.903V362.774H249.863V364.762H251.431V366.414H249.863V369.634C249.863 370.11 250.171 370.446 250.549 370.446C250.829 370.446 251.109 370.348 251.249 370.208Z" fill="#161B1D"/>
<rect x="78" y="350" width="194" height="36" rx="7" stroke="#161B1D" stroke-width="2"/>
<rect x="292" y="350" width="194" height="36" rx="7" fill="white"/>
<path d="M307.801 372.168C306.135 372.168 304.651 371.608 303.531 370.572L304.721 369.158C305.631 369.942 306.667 370.418 307.885 370.418C308.921 370.418 309.453 369.942 309.453 369.34C309.453 368.654 308.893 368.444 307.423 368.108C305.393 367.646 303.951 367.072 303.951 365.21C303.951 363.432 305.407 362.214 307.507 362.214C309.075 362.214 310.293 362.704 311.273 363.544L310.195 365.028C309.341 364.342 308.375 363.964 307.451 363.964C306.569 363.964 306.037 364.426 306.037 365C306.037 365.7 306.611 365.924 308.095 366.26C310.167 366.722 311.539 367.338 311.539 369.116C311.539 370.95 310.153 372.168 307.801 372.168ZM314.616 374.52C314.014 374.52 313.286 374.338 312.796 374.072L313.23 372.672C313.58 372.868 313.944 372.994 314.182 372.994C314.574 372.994 314.882 372.868 315.036 372.602L315.288 372.07L312.278 364.762H314.392L316.296 369.844L318.102 364.762H320.188L317.22 372.364C316.674 373.778 315.75 374.52 314.616 374.52ZM324.089 372.168C322.927 372.168 321.695 371.776 320.827 371.076L321.709 369.662C322.353 370.124 323.165 370.474 324.131 370.474C324.677 370.474 325.069 370.25 325.069 369.928C325.069 369.48 324.537 369.34 323.795 369.144C322.311 368.78 321.163 368.374 321.149 366.946C321.135 365.574 322.269 364.594 323.977 364.594C325.013 364.594 326.035 364.958 326.833 365.49L326.007 366.946C325.349 366.54 324.593 366.302 323.977 366.302C323.473 366.302 323.123 366.484 323.123 366.736C323.123 367.128 323.417 367.24 324.397 367.506C325.643 367.828 327.029 368.248 327.029 369.83C327.029 371.258 325.867 372.168 324.089 372.168ZM332.208 370.208L332.698 371.538C332.278 371.916 331.62 372.168 331.032 372.168C329.758 372.168 328.862 371.258 328.862 369.956V366.414H327.868V364.762H328.862V362.774H330.822V364.762H332.39V366.414H330.822V369.634C330.822 370.11 331.13 370.446 331.508 370.446C331.788 370.446 332.068 370.348 332.208 370.208ZM337.394 370.362C337.968 370.362 338.668 370.096 339.06 369.718L340.362 371.048C339.718 371.72 338.472 372.168 337.408 372.168C335.252 372.168 333.572 370.586 333.572 368.36C333.572 366.176 335.182 364.594 337.296 364.594C339.564 364.594 340.894 366.316 340.894 369.046H335.672C335.91 369.83 336.54 370.362 337.394 370.362ZM337.38 366.4C336.61 366.4 335.966 366.848 335.7 367.576H338.934C338.738 366.862 338.206 366.4 337.38 366.4ZM350.887 364.594C352.399 364.594 353.561 365.756 353.561 367.394V372.014H351.601V367.744C351.601 366.904 351.069 366.316 350.313 366.316C349.501 366.316 348.913 366.862 348.913 367.632V372.014H346.953V367.744C346.953 366.904 346.421 366.316 345.679 366.316C344.853 366.316 344.279 366.862 344.279 367.632V372H342.235V364.762H344.279V365.714C344.629 365.028 345.343 364.594 346.239 364.594C347.233 364.594 348.087 365.098 348.535 365.91C348.913 365.112 349.809 364.594 350.887 364.594ZM360.067 372.168C357.309 372.168 354.957 369.886 354.957 367.184C354.957 364.482 357.309 362.214 360.067 362.214C361.523 362.214 362.867 362.83 363.805 363.824L362.307 365.168C361.747 364.524 360.949 364.09 360.067 364.09C358.457 364.09 357.085 365.518 357.085 367.184C357.085 368.864 358.457 370.292 360.067 370.292C360.949 370.292 361.747 369.858 362.307 369.214L363.805 370.558C362.867 371.538 361.523 372.168 360.067 372.168ZM368.583 372.168C366.427 372.168 364.621 370.432 364.621 368.374C364.621 366.316 366.427 364.594 368.583 364.594C370.725 364.594 372.517 366.316 372.517 368.374C372.517 370.432 370.725 372.168 368.583 372.168ZM368.583 370.446C369.661 370.446 370.571 369.494 370.571 368.374C370.571 367.254 369.661 366.316 368.583 366.316C367.491 366.316 366.581 367.254 366.581 368.374C366.581 369.494 367.491 370.446 368.583 370.446ZM382.51 364.594C384.022 364.594 385.184 365.756 385.184 367.394V372.014H383.224V367.744C383.224 366.904 382.692 366.316 381.936 366.316C381.124 366.316 380.536 366.862 380.536 367.632V372.014H378.576V367.744C378.576 366.904 378.044 366.316 377.302 366.316C376.476 366.316 375.902 366.862 375.902 367.632V372H373.858V364.762H375.902V365.714C376.252 365.028 376.966 364.594 377.862 364.594C378.856 364.594 379.71 365.098 380.158 365.91C380.536 365.112 381.432 364.594 382.51 364.594ZM395.512 364.594C397.024 364.594 398.186 365.756 398.186 367.394V372.014H396.226V367.744C396.226 366.904 395.694 366.316 394.938 366.316C394.126 366.316 393.538 366.862 393.538 367.632V372.014H391.578V367.744C391.578 366.904 391.046 366.316 390.304 366.316C389.478 366.316 388.904 366.862 388.904 367.632V372H386.86V364.762H388.904V365.714C389.254 365.028 389.968 364.594 390.864 364.594C391.858 364.594 392.712 365.098 393.16 365.91C393.538 365.112 394.434 364.594 395.512 364.594ZM403.138 364.594C405.028 364.594 406.316 365.784 406.316 367.674V372H404.342V371.272C403.824 371.86 402.998 372.168 402.214 372.168C400.674 372.168 399.484 371.244 399.484 369.858C399.484 368.43 400.814 367.45 402.494 367.45C403.082 367.45 403.726 367.576 404.342 367.814V367.674C404.342 366.904 403.866 366.232 402.676 366.232C402.004 366.232 401.374 366.456 400.8 366.75L400.114 365.392C401.136 364.874 402.13 364.594 403.138 364.594ZM402.676 370.754C403.46 370.754 404.202 370.39 404.342 369.718V369.046C403.88 368.878 403.348 368.78 402.788 368.78C402.046 368.78 401.458 369.214 401.458 369.802C401.458 370.39 401.976 370.754 402.676 370.754ZM412.225 364.594C413.793 364.594 414.913 365.756 414.913 367.394V372H412.939V367.828C412.939 366.932 412.379 366.316 411.567 366.316C410.713 366.316 410.055 366.932 410.055 367.716L410.041 367.674V372H407.997V364.762H410.041V365.672C410.475 365.014 411.287 364.594 412.225 364.594ZM422.042 362.214H424.086V372H422.042V370.964C421.468 371.72 420.628 372.168 419.606 372.168C417.674 372.168 416.274 370.6 416.274 368.374C416.274 366.162 417.674 364.594 419.606 364.594C420.628 364.594 421.468 365.042 422.042 365.798V362.214ZM420.194 370.446C421.272 370.446 422.042 369.592 422.042 368.374C422.042 367.17 421.272 366.316 420.194 366.316C419.06 366.316 418.262 367.17 418.262 368.374C418.262 369.592 419.06 370.446 420.194 370.446ZM428.428 372V364.244H425.432V362.382H433.496V364.244H430.5V372H428.428ZM438.056 364.594C439.946 364.594 441.234 365.784 441.234 367.674V372H439.26V371.272C438.742 371.86 437.916 372.168 437.132 372.168C435.592 372.168 434.402 371.244 434.402 369.858C434.402 368.43 435.732 367.45 437.412 367.45C438 367.45 438.644 367.576 439.26 367.814V367.674C439.26 366.904 438.784 366.232 437.594 366.232C436.922 366.232 436.292 366.456 435.718 366.75L435.032 365.392C436.054 364.874 437.048 364.594 438.056 364.594ZM437.594 370.754C438.378 370.754 439.12 370.39 439.26 369.718V369.046C438.798 368.878 438.266 368.78 437.706 368.78C436.964 368.78 436.376 369.214 436.376 369.802C436.376 370.39 436.894 370.754 437.594 370.754ZM445.673 372.168C444.511 372.168 443.279 371.776 442.411 371.076L443.293 369.662C443.937 370.124 444.749 370.474 445.715 370.474C446.261 370.474 446.653 370.25 446.653 369.928C446.653 369.48 446.121 369.34 445.379 369.144C443.895 368.78 442.747 368.374 442.733 366.946C442.719 365.574 443.853 364.594 445.561 364.594C446.597 364.594 447.619 364.958 448.417 365.49L447.591 366.946C446.933 366.54 446.177 366.302 445.561 366.302C445.057 366.302 444.707 366.484 444.707 366.736C444.707 367.128 445.001 367.24 445.981 367.506C447.227 367.828 448.613 368.248 448.613 369.83C448.613 371.258 447.451 372.168 445.673 372.168ZM457.026 364.762L454.212 367.968L456.998 372H454.646L452.854 369.284L451.986 370.222V372H449.942V362.214H451.986V367.884L454.674 364.762H457.026ZM457.982 372V362.214H460.026V372H457.982ZM465.226 370.362C465.8 370.362 466.5 370.096 466.892 369.718L468.194 371.048C467.55 371.72 466.304 372.168 465.24 372.168C463.084 372.168 461.404 370.586 461.404 368.36C461.404 366.176 463.014 364.594 465.128 364.594C467.396 364.594 468.726 366.316 468.726 369.046H463.504C463.742 369.83 464.372 370.362 465.226 370.362ZM465.212 366.4C464.442 366.4 463.798 366.848 463.532 367.576H466.766C466.57 366.862 466.038 366.4 465.212 366.4ZM473.917 370.208L474.407 371.538C473.987 371.916 473.329 372.168 472.741 372.168C471.467 372.168 470.571 371.258 470.571 369.956V366.414H469.577V364.762H470.571V362.774H472.531V364.762H474.099V366.414H472.531V369.634C472.531 370.11 472.839 370.446 473.217 370.446C473.497 370.446 473.777 370.348 473.917 370.208Z" fill="#161B1D"/>
<rect x="292" y="350" width="194" height="36" rx="7" stroke="#161B1D" stroke-width="2"/>
<rect x="33" y="144" width="149" height="36" rx="7" fill="white"/>
<path d="M54.0243 166V156.382H58.3503C60.4363 156.382 61.9763 157.726 61.9763 159.63C61.9763 161.534 60.4363 162.878 58.3503 162.878H56.0823V166H54.0243ZM56.0823 160.988H58.1263C59.1483 160.988 59.8483 160.456 59.8483 159.63C59.8483 158.804 59.1483 158.272 58.1263 158.272H56.0823V160.988ZM66.4445 158.594C68.3345 158.594 69.6225 159.784 69.6225 161.674V166H67.6485V165.272C67.1305 165.86 66.3045 166.168 65.5205 166.168C63.9805 166.168 62.7905 165.244 62.7905 163.858C62.7905 162.43 64.1205 161.45 65.8005 161.45C66.3885 161.45 67.0325 161.576 67.6485 161.814V161.674C67.6485 160.904 67.1725 160.232 65.9825 160.232C65.3105 160.232 64.6805 160.456 64.1065 160.75L63.4205 159.392C64.4425 158.874 65.4365 158.594 66.4445 158.594ZM65.9825 164.754C66.7665 164.754 67.5085 164.39 67.6485 163.718V163.046C67.1865 162.878 66.6545 162.78 66.0945 162.78C65.3525 162.78 64.7645 163.214 64.7645 163.802C64.7645 164.39 65.2825 164.754 65.9825 164.754ZM73.3892 160.106C73.8652 159.168 74.7612 158.594 75.8672 158.594V160.316C74.3552 160.316 73.3892 161.184 73.3892 162.542V166H71.3452V158.762H73.3892V160.106ZM80.8544 164.208L81.3444 165.538C80.9244 165.916 80.2664 166.168 79.6784 166.168C78.4044 166.168 77.5084 165.258 77.5084 163.956V160.414H76.5144V158.762H77.5084V156.774H79.4684V158.762H81.0364V160.414H79.4684V163.634C79.4684 164.11 79.7764 164.446 80.1544 164.446C80.4344 164.446 80.7144 164.348 80.8544 164.208ZM83.6465 157.768C83.0165 157.768 82.5265 157.264 82.5265 156.648C82.5265 156.074 83.0165 155.556 83.6465 155.556C84.2485 155.556 84.7385 156.074 84.7385 156.648C84.7385 157.264 84.2485 157.768 83.6465 157.768ZM82.6105 166V158.762H84.6545V166H82.6105ZM90.247 164.208L90.737 165.538C90.317 165.916 89.659 166.168 89.071 166.168C87.797 166.168 86.901 165.258 86.901 163.956V160.414H85.907V158.762H86.901V156.774H88.861V158.762H90.429V160.414H88.861V163.634C88.861 164.11 89.169 164.446 89.547 164.446C89.827 164.446 90.107 164.348 90.247 164.208ZM93.0391 157.768C92.4091 157.768 91.9191 157.264 91.9191 156.648C91.9191 156.074 92.4091 155.556 93.0391 155.556C93.6411 155.556 94.1311 156.074 94.1311 156.648C94.1311 157.264 93.6411 157.768 93.0391 157.768ZM92.0031 166V158.762H94.0471V166H92.0031ZM99.3875 166.168C97.2315 166.168 95.4255 164.432 95.4255 162.374C95.4255 160.316 97.2315 158.594 99.3875 158.594C101.53 158.594 103.322 160.316 103.322 162.374C103.322 164.432 101.53 166.168 99.3875 166.168ZM99.3875 164.446C100.466 164.446 101.376 163.494 101.376 162.374C101.376 161.254 100.466 160.316 99.3875 160.316C98.2955 160.316 97.3855 161.254 97.3855 162.374C97.3855 163.494 98.2955 164.446 99.3875 164.446ZM108.891 158.594C110.459 158.594 111.579 159.756 111.579 161.394V166H109.605V161.828C109.605 160.932 109.045 160.316 108.233 160.316C107.379 160.316 106.721 160.932 106.721 161.716L106.707 161.674V166H104.663V158.762H106.707V159.672C107.141 159.014 107.953 158.594 108.891 158.594ZM116.72 164.362C117.294 164.362 117.994 164.096 118.386 163.718L119.688 165.048C119.044 165.72 117.798 166.168 116.734 166.168C114.578 166.168 112.898 164.586 112.898 162.36C112.898 160.176 114.508 158.594 116.622 158.594C118.89 158.594 120.22 160.316 120.22 163.046H114.998C115.236 163.83 115.866 164.362 116.72 164.362ZM116.706 160.4C115.936 160.4 115.292 160.848 115.026 161.576H118.26C118.064 160.862 117.532 160.4 116.706 160.4ZM127.007 156.214H129.051V166H127.007V164.964C126.433 165.72 125.593 166.168 124.571 166.168C122.639 166.168 121.239 164.6 121.239 162.374C121.239 160.162 122.639 158.594 124.571 158.594C125.593 158.594 126.433 159.042 127.007 159.798V156.214ZM125.159 164.446C126.237 164.446 127.007 163.592 127.007 162.374C127.007 161.17 126.237 160.316 125.159 160.316C124.025 160.316 123.227 161.17 123.227 162.374C123.227 163.592 124.025 164.446 125.159 164.446ZM134.541 166.168C132.875 166.168 131.391 165.608 130.271 164.572L131.461 163.158C132.371 163.942 133.407 164.418 134.625 164.418C135.661 164.418 136.193 163.942 136.193 163.34C136.193 162.654 135.633 162.444 134.163 162.108C132.133 161.646 130.691 161.072 130.691 159.21C130.691 157.432 132.147 156.214 134.247 156.214C135.815 156.214 137.033 156.704 138.013 157.544L136.935 159.028C136.081 158.342 135.115 157.964 134.191 157.964C133.309 157.964 132.777 158.426 132.777 159C132.777 159.7 133.351 159.924 134.835 160.26C136.907 160.722 138.279 161.338 138.279 163.116C138.279 164.95 136.893 166.168 134.541 166.168ZM143.513 164.208L144.003 165.538C143.583 165.916 142.925 166.168 142.337 166.168C141.063 166.168 140.167 165.258 140.167 163.956V160.414H139.173V158.762H140.167V156.774H142.127V158.762H143.695V160.414H142.127V163.634C142.127 164.11 142.435 164.446 142.813 164.446C143.093 164.446 143.373 164.348 143.513 164.208ZM148.699 164.362C149.273 164.362 149.973 164.096 150.365 163.718L151.667 165.048C151.023 165.72 149.777 166.168 148.713 166.168C146.557 166.168 144.877 164.586 144.877 162.36C144.877 160.176 146.487 158.594 148.601 158.594C150.869 158.594 152.199 160.316 152.199 163.046H146.977C147.215 163.83 147.845 164.362 148.699 164.362ZM148.685 160.4C147.915 160.4 147.271 160.848 147.005 161.576H150.239C150.043 160.862 149.511 160.4 148.685 160.4ZM158.048 158.594C159.98 158.594 161.38 160.162 161.38 162.374C161.38 164.6 159.98 166.168 158.048 166.168C157.04 166.168 156.2 165.734 155.626 164.978V168.408H153.582V158.762H155.626V159.77C156.2 159.028 157.04 158.594 158.048 158.594ZM157.46 164.446C158.594 164.446 159.392 163.592 159.392 162.374C159.392 161.17 158.594 160.316 157.46 160.316C156.466 160.316 155.738 161.044 155.626 162.094V162.654C155.738 163.718 156.466 164.446 157.46 164.446Z" fill="#161B1D"/>
<rect x="33" y="144" width="149" height="36" rx="7" stroke="#161B1D" stroke-width="2"/>
<rect x="209" y="144" width="149" height="36" rx="7" fill="white"/>
<path d="M246.051 166V158.244H243.055V156.382H251.119V158.244H248.123V166H246.051ZM255.679 158.594C257.569 158.594 258.857 159.784 258.857 161.674V166H256.883V165.272C256.365 165.86 255.539 166.168 254.755 166.168C253.215 166.168 252.025 165.244 252.025 163.858C252.025 162.43 253.355 161.45 255.035 161.45C255.623 161.45 256.267 161.576 256.883 161.814V161.674C256.883 160.904 256.407 160.232 255.217 160.232C254.545 160.232 253.915 160.456 253.341 160.75L252.655 159.392C253.677 158.874 254.671 158.594 255.679 158.594ZM255.217 164.754C256.001 164.754 256.743 164.39 256.883 163.718V163.046C256.421 162.878 255.889 162.78 255.329 162.78C254.587 162.78 253.999 163.214 253.999 163.802C253.999 164.39 254.517 164.754 255.217 164.754ZM263.296 166.168C262.134 166.168 260.902 165.776 260.034 165.076L260.916 163.662C261.56 164.124 262.372 164.474 263.338 164.474C263.884 164.474 264.276 164.25 264.276 163.928C264.276 163.48 263.744 163.34 263.002 163.144C261.518 162.78 260.37 162.374 260.356 160.946C260.342 159.574 261.476 158.594 263.184 158.594C264.22 158.594 265.242 158.958 266.04 159.49L265.214 160.946C264.556 160.54 263.8 160.302 263.184 160.302C262.68 160.302 262.33 160.484 262.33 160.736C262.33 161.128 262.624 161.24 263.604 161.506C264.85 161.828 266.236 162.248 266.236 163.83C266.236 165.258 265.074 166.168 263.296 166.168ZM274.649 158.762L271.835 161.968L274.621 166H272.269L270.477 163.284L269.609 164.222V166H267.565V156.214H269.609V161.884L272.297 158.762H274.649ZM275.605 166V156.214H277.649V166H275.605ZM282.849 164.362C283.423 164.362 284.123 164.096 284.515 163.718L285.817 165.048C285.173 165.72 283.927 166.168 282.863 166.168C280.707 166.168 279.027 164.586 279.027 162.36C279.027 160.176 280.637 158.594 282.751 158.594C285.019 158.594 286.349 160.316 286.349 163.046H281.127C281.365 163.83 281.995 164.362 282.849 164.362ZM282.835 160.4C282.065 160.4 281.421 160.848 281.155 161.576H284.389C284.193 160.862 283.661 160.4 282.835 160.4ZM291.54 164.208L292.03 165.538C291.61 165.916 290.952 166.168 290.364 166.168C289.09 166.168 288.194 165.258 288.194 163.956V160.414H287.2V158.762H288.194V156.774H290.154V158.762H291.722V160.414H290.154V163.634C290.154 164.11 290.462 164.446 290.84 164.446C291.12 164.446 291.4 164.348 291.54 164.208ZM297.006 166.168C295.34 166.168 293.856 165.608 292.736 164.572L293.926 163.158C294.836 163.942 295.872 164.418 297.09 164.418C298.126 164.418 298.658 163.942 298.658 163.34C298.658 162.654 298.098 162.444 296.628 162.108C294.598 161.646 293.156 161.072 293.156 159.21C293.156 157.432 294.612 156.214 296.712 156.214C298.28 156.214 299.498 156.704 300.478 157.544L299.4 159.028C298.546 158.342 297.58 157.964 296.656 157.964C295.774 157.964 295.242 158.426 295.242 159C295.242 159.7 295.816 159.924 297.3 160.26C299.372 160.722 300.744 161.338 300.744 163.116C300.744 164.95 299.358 166.168 297.006 166.168ZM305.977 164.208L306.467 165.538C306.047 165.916 305.389 166.168 304.801 166.168C303.527 166.168 302.631 165.258 302.631 163.956V160.414H301.637V158.762H302.631V156.774H304.591V158.762H306.159V160.414H304.591V163.634C304.591 164.11 304.899 164.446 305.277 164.446C305.557 164.446 305.837 164.348 305.977 164.208ZM311.164 164.362C311.738 164.362 312.438 164.096 312.83 163.718L314.132 165.048C313.488 165.72 312.242 166.168 311.178 166.168C309.022 166.168 307.342 164.586 307.342 162.36C307.342 160.176 308.952 158.594 311.066 158.594C313.334 158.594 314.664 160.316 314.664 163.046H309.442C309.68 163.83 310.31 164.362 311.164 164.362ZM311.15 160.4C310.38 160.4 309.736 160.848 309.47 161.576H312.704C312.508 160.862 311.976 160.4 311.15 160.4ZM320.512 158.594C322.444 158.594 323.844 160.162 323.844 162.374C323.844 164.6 322.444 166.168 320.512 166.168C319.504 166.168 318.664 165.734 318.09 164.978V168.408H316.046V158.762H318.09V159.77C318.664 159.028 319.504 158.594 320.512 158.594ZM319.924 164.446C321.058 164.446 321.856 163.592 321.856 162.374C321.856 161.17 321.058 160.316 319.924 160.316C318.93 160.316 318.202 161.044 318.09 162.094V162.654C318.202 163.718 318.93 164.446 319.924 164.446Z" fill="#161B1D"/>
<rect x="209" y="144" width="149" height="36" rx="7" stroke="#161B1D" stroke-width="2"/>
<rect x="385" y="144" width="149" height="36" rx="7" fill="white"/>
<path d="M435.367 158.244H430.033V160.33H434.863V162.192H430.033V166H427.961V156.382H435.367V158.244ZM436.778 166V156.214H438.822V166H436.778ZM444.162 166.168C442.006 166.168 440.2 164.432 440.2 162.374C440.2 160.316 442.006 158.594 444.162 158.594C446.304 158.594 448.096 160.316 448.096 162.374C448.096 164.432 446.304 166.168 444.162 166.168ZM444.162 164.446C445.24 164.446 446.15 163.494 446.15 162.374C446.15 161.254 445.24 160.316 444.162 160.316C443.07 160.316 442.16 161.254 442.16 162.374C442.16 163.494 443.07 164.446 444.162 164.446ZM450.957 166L448.493 158.762H450.495L451.867 163.27L453.295 158.762H454.989L456.417 163.27L457.789 158.762H459.791L457.327 166H455.493L454.149 161.45L452.791 166H450.957ZM464.605 166.168C462.939 166.168 461.455 165.608 460.335 164.572L461.525 163.158C462.435 163.942 463.471 164.418 464.689 164.418C465.725 164.418 466.257 163.942 466.257 163.34C466.257 162.654 465.697 162.444 464.227 162.108C462.197 161.646 460.755 161.072 460.755 159.21C460.755 157.432 462.211 156.214 464.311 156.214C465.879 156.214 467.097 156.704 468.077 157.544L466.999 159.028C466.145 158.342 465.179 157.964 464.255 157.964C463.373 157.964 462.841 158.426 462.841 159C462.841 159.7 463.415 159.924 464.899 160.26C466.971 160.722 468.343 161.338 468.343 163.116C468.343 164.95 466.957 166.168 464.605 166.168ZM473.576 164.208L474.066 165.538C473.646 165.916 472.988 166.168 472.4 166.168C471.126 166.168 470.23 165.258 470.23 163.956V160.414H469.236V158.762H470.23V156.774H472.19V158.762H473.758V160.414H472.19V163.634C472.19 164.11 472.498 164.446 472.876 164.446C473.156 164.446 473.436 164.348 473.576 164.208ZM478.762 164.362C479.336 164.362 480.036 164.096 480.428 163.718L481.73 165.048C481.086 165.72 479.84 166.168 478.776 166.168C476.62 166.168 474.94 164.586 474.94 162.36C474.94 160.176 476.55 158.594 478.664 158.594C480.932 158.594 482.262 160.316 482.262 163.046H477.04C477.278 163.83 477.908 164.362 478.762 164.362ZM478.748 160.4C477.978 160.4 477.334 160.848 477.068 161.576H480.302C480.106 160.862 479.574 160.4 478.748 160.4ZM488.111 158.594C490.043 158.594 491.443 160.162 491.443 162.374C491.443 164.6 490.043 166.168 488.111 166.168C487.103 166.168 486.263 165.734 485.689 164.978V168.408H483.645V158.762H485.689V159.77C486.263 159.028 487.103 158.594 488.111 158.594ZM487.523 164.446C488.657 164.446 489.455 163.592 489.455 162.374C489.455 161.17 488.657 160.316 487.523 160.316C486.529 160.316 485.801 161.044 485.689 162.094V162.654C485.801 163.718 486.529 164.446 487.523 164.446Z" fill="#161B1D"/>
<rect x="385" y="144" width="149" height="36" rx="7" stroke="#161B1D" stroke-width="2"/>
<rect x="561" y="144" width="149" height="36" rx="7" fill="white"/>
<path d="M610.027 166.168C608.795 166.168 607.451 165.51 606.807 164.572L608.179 163.228C608.487 163.858 609.173 164.292 609.817 164.292C610.657 164.292 611.273 163.634 611.273 162.696V156.382H613.345V162.864C613.345 164.796 611.973 166.168 610.027 166.168ZM618.72 166.168C616.564 166.168 614.758 164.432 614.758 162.374C614.758 160.316 616.564 158.594 618.72 158.594C620.862 158.594 622.654 160.316 622.654 162.374C622.654 164.432 620.862 166.168 618.72 166.168ZM618.72 164.446C619.798 164.446 620.708 163.494 620.708 162.374C620.708 161.254 619.798 160.316 618.72 160.316C617.628 160.316 616.718 161.254 616.718 162.374C616.718 163.494 617.628 164.446 618.72 164.446ZM628.503 158.594C630.435 158.594 631.835 160.162 631.835 162.374C631.835 164.6 630.435 166.168 628.503 166.168C627.495 166.168 626.655 165.734 626.081 164.978V166H624.037V156.214H626.081V159.77C626.655 159.028 627.495 158.594 628.503 158.594ZM627.915 164.446C629.049 164.446 629.847 163.592 629.847 162.374C629.847 161.17 629.049 160.316 627.915 160.316C626.921 160.316 626.193 161.044 626.081 162.094V162.654C626.193 163.718 626.921 164.446 627.915 164.446ZM636.975 166.168C635.309 166.168 633.825 165.608 632.705 164.572L633.895 163.158C634.805 163.942 635.841 164.418 637.059 164.418C638.095 164.418 638.627 163.942 638.627 163.34C638.627 162.654 638.067 162.444 636.597 162.108C634.567 161.646 633.125 161.072 633.125 159.21C633.125 157.432 634.581 156.214 636.681 156.214C638.249 156.214 639.467 156.704 640.447 157.544L639.369 159.028C638.515 158.342 637.549 157.964 636.625 157.964C635.743 157.964 635.211 158.426 635.211 159C635.211 159.7 635.785 159.924 637.269 160.26C639.341 160.722 640.713 161.338 640.713 163.116C640.713 164.95 639.327 166.168 636.975 166.168ZM645.946 164.208L646.436 165.538C646.016 165.916 645.358 166.168 644.77 166.168C643.496 166.168 642.6 165.258 642.6 163.956V160.414H641.606V158.762H642.6V156.774H644.56V158.762H646.128V160.414H644.56V163.634C644.56 164.11 644.868 164.446 645.246 164.446C645.526 164.446 645.806 164.348 645.946 164.208ZM651.132 164.362C651.706 164.362 652.406 164.096 652.798 163.718L654.1 165.048C653.456 165.72 652.21 166.168 651.146 166.168C648.99 166.168 647.31 164.586 647.31 162.36C647.31 160.176 648.92 158.594 651.034 158.594C653.302 158.594 654.632 160.316 654.632 163.046H649.41C649.648 163.83 650.278 164.362 651.132 164.362ZM651.118 160.4C650.348 160.4 649.704 160.848 649.438 161.576H652.672C652.476 160.862 651.944 160.4 651.118 160.4ZM660.481 158.594C662.413 158.594 663.813 160.162 663.813 162.374C663.813 164.6 662.413 166.168 660.481 166.168C659.473 166.168 658.633 165.734 658.059 164.978V168.408H656.015V158.762H658.059V159.77C658.633 159.028 659.473 158.594 660.481 158.594ZM659.893 164.446C661.027 164.446 661.825 163.592 661.825 162.374C661.825 161.17 661.027 160.316 659.893 160.316C658.899 160.316 658.171 161.044 658.059 162.094V162.654C658.171 163.718 658.899 164.446 659.893 164.446Z" fill="#161B1D"/>
<rect x="561" y="144" width="149" height="36" rx="7" stroke="#161B1D" stroke-width="2"/>
<path d="M371 86L371 87L373 87L373 86L371 86ZM372.707 66.2929C372.317 65.9024 371.683 65.9024 371.293 66.2929L364.929 72.6569C364.538 73.0474 364.538 73.6805 364.929 74.0711C365.319 74.4616 365.953 74.4616 366.343 74.0711L372 68.4142L377.657 74.0711C378.047 74.4616 378.681 74.4616 379.071 74.0711C379.462 73.6805 379.462 73.0474 379.071 72.6569L372.707 66.2929ZM373 86L373 67L371 67L371 86L373 86Z" fill="#161B1D"/>
<path d="M371 120L371 121L373 121L373 120L371 120ZM373 120L373 104L371 104L371 120L373 120Z" fill="#161B1D"/>
<path d="M107 144L107 145L109 145L109 144L107 144ZM109 144L109 120L107 120L107 144L109 144Z" fill="#161B1D"/>
<path d="M174 349L174 350L176 350L176 349L174 349ZM176 349L176 325L174 325L174 349L176 349Z" fill="#161B1D"/>
<path d="M388 349L388 350L390 350L390 349L388 349ZM390 349L390 325L388 325L388 349L390 349Z" fill="#161B1D"/>
<path d="M281 144L281 145L283 145L283 144L281 144ZM283 144L283 120L281 120L281 144L283 144Z" fill="#161B1D"/>
<path d="M459 144L459 145L461 145L461 144L459 144ZM461 144L461 120L459 120L459 144L461 144Z" fill="#161B1D"/>
<path d="M635 144L635 145L637 145L637 144L635 144ZM637 144L637 120L635 120L635 144L637 144Z" fill="#161B1D"/>
<path d="M283 214L283 213L281 213L281 214L283 214ZM281.293 231.707C281.683 232.098 282.317 232.098 282.707 231.707L289.071 225.343C289.462 224.953 289.462 224.319 289.071 223.929C288.681 223.538 288.047 223.538 287.657 223.929L282 229.586L276.343 223.929C275.953 223.538 275.319 223.538 274.929 223.929C274.538 224.319 274.538 224.953 274.929 225.343L281.293 231.707ZM281 214L281 231L283 231L283 214L281 214Z" fill="#161B1D"/>
<path d="M281 292L281 293L283 293L283 292L281 292ZM282.707 274.293C282.317 273.902 281.683 273.902 281.293 274.293L274.929 280.657C274.538 281.047 274.538 281.681 274.929 282.071C275.319 282.462 275.953 282.462 276.343 282.071L282 276.414L287.657 282.071C288.047 282.462 288.681 282.462 289.071 282.071C289.462 281.681 289.462 281.047 289.071 280.657L282.707 274.293ZM283 292L283 275L281 275L281 292L283 292Z" fill="#161B1D"/>
<path d="M283 181C283 180.448 282.552 180 282 180C281.448 180 281 180.448 281 181L283 181ZM281 181L281 195L283 195L283 181L281 181Z" fill="#161B1D"/>
<path d="M283 310L283 309L281 309L281 310L283 310ZM281 310L281 326L283 326L283 310L281 310Z" fill="#161B1D"/>
<line x1="637" y1="121" x2="108" y2="121" stroke="#161B1D" stroke-width="2"/>
<line x1="390" y1="326" x2="175" y2="326" stroke="#161B1D" stroke-width="2"/>
</g>
<defs>
<clipPath id="clip0_321_268384">
<rect width="743" height="431" fill="white"/>
</clipPath>
</defs>
</svg>
