<svg width="743" height="287" viewBox="0 0 743 287" fill="none" xmlns="http://www.w3.org/2000/svg">
<g clip-path="url(#clip0_421_628)">
<rect width="743" height="287" fill="white"/>
<circle cx="371.5" cy="493.5" r="447.5" fill="#F4F4F5"/>
<circle cx="429.949" cy="36.9489" r="2.94888" fill="#FAFAFA"/>
<circle cx="429.949" cy="51.8466" r="2.94888" fill="#FAFAFA"/>
<circle cx="429.949" cy="66.7444" r="2.94888" fill="#FAFAFA"/>
<circle cx="429.949" cy="81.6422" r="2.94888" fill="#FAFAFA"/>
<circle cx="429.949" cy="96.5399" r="2.94888" fill="#FAFAFA"/>
<circle cx="429.949" cy="111.438" r="2.94888" fill="#FAFAFA"/>
<circle cx="429.949" cy="126.335" r="2.94888" fill="#FAFAFA"/>
<circle cx="429.949" cy="141.233" r="2.94888" fill="#FAFAFA"/>
<circle cx="429.949" cy="156.131" r="2.94888" fill="#FAFAFA"/>
<circle cx="429.949" cy="171.029" r="2.94888" fill="#FAFAFA"/>
<circle cx="429.949" cy="185.927" r="2.94888" fill="#FAFAFA"/>
<circle cx="429.949" cy="200.824" r="2.94888" fill="#FAFAFA"/>
<circle cx="444.847" cy="36.9489" r="2.94888" fill="#FAFAFA"/>
<circle cx="444.847" cy="51.8466" r="2.94888" fill="#FAFAFA"/>
<circle cx="444.847" cy="66.7444" r="2.94888" fill="#FAFAFA"/>
<circle cx="444.847" cy="81.6422" r="2.94888" fill="#FAFAFA"/>
<circle cx="444.847" cy="96.5399" r="2.94888" fill="#FAFAFA"/>
<circle cx="444.847" cy="111.438" r="2.94888" fill="#FAFAFA"/>
<circle cx="444.847" cy="126.335" r="2.94888" fill="#FAFAFA"/>
<circle cx="444.847" cy="141.233" r="2.94888" fill="#FAFAFA"/>
<circle cx="444.847" cy="156.131" r="2.94888" fill="#FAFAFA"/>
<circle cx="444.847" cy="171.029" r="2.94888" fill="#FAFAFA"/>
<circle cx="444.847" cy="185.927" r="2.94888" fill="#FAFAFA"/>
<circle cx="444.847" cy="200.824" r="2.94888" fill="#FAFAFA"/>
<circle cx="459.744" cy="36.9489" r="2.94888" fill="#FAFAFA"/>
<circle cx="459.744" cy="51.8466" r="2.94888" fill="#FAFAFA"/>
<circle cx="459.744" cy="66.7444" r="2.94888" fill="#FAFAFA"/>
<circle cx="459.744" cy="81.6422" r="2.94888" fill="#FAFAFA"/>
<circle cx="459.744" cy="96.5399" r="2.94888" fill="#FAFAFA"/>
<circle cx="459.744" cy="111.438" r="2.94888" fill="#FAFAFA"/>
<circle cx="459.744" cy="126.335" r="2.94888" fill="#FAFAFA"/>
<circle cx="459.744" cy="141.233" r="2.94888" fill="#FAFAFA"/>
<circle cx="459.744" cy="156.131" r="2.94888" fill="#FAFAFA"/>
<circle cx="459.744" cy="171.029" r="2.94888" fill="#FAFAFA"/>
<circle cx="459.744" cy="185.927" r="2.94888" fill="#FAFAFA"/>
<circle cx="459.744" cy="200.824" r="2.94888" fill="#FAFAFA"/>
<circle cx="474.642" cy="36.9489" r="2.94888" fill="#FAFAFA"/>
<circle cx="474.642" cy="51.8466" r="2.94888" fill="#FAFAFA"/>
<circle cx="474.642" cy="66.7444" r="2.94888" fill="#FAFAFA"/>
<circle cx="474.642" cy="81.6422" r="2.94888" fill="#FAFAFA"/>
<circle cx="474.642" cy="96.5399" r="2.94888" fill="#FAFAFA"/>
<circle cx="474.642" cy="111.438" r="2.94888" fill="#FAFAFA"/>
<circle cx="474.642" cy="126.335" r="2.94888" fill="#FAFAFA"/>
<circle cx="474.642" cy="141.233" r="2.94888" fill="#FAFAFA"/>
<circle cx="474.642" cy="156.131" r="2.94888" fill="#FAFAFA"/>
<circle cx="474.642" cy="171.029" r="2.94888" fill="#FAFAFA"/>
<circle cx="474.642" cy="185.927" r="2.94888" fill="#FAFAFA"/>
<circle cx="474.642" cy="200.824" r="2.94888" fill="#FAFAFA"/>
<circle cx="489.54" cy="36.9489" r="2.94888" fill="#FAFAFA"/>
<circle cx="489.54" cy="51.8466" r="2.94888" fill="#FAFAFA"/>
<circle cx="489.54" cy="66.7444" r="2.94888" fill="#FAFAFA"/>
<circle cx="489.54" cy="81.6422" r="2.94888" fill="#FAFAFA"/>
<circle cx="489.54" cy="96.5399" r="2.94888" fill="#FAFAFA"/>
<circle cx="489.54" cy="111.438" r="2.94888" fill="#FAFAFA"/>
<circle cx="489.54" cy="126.335" r="2.94888" fill="#FAFAFA"/>
<circle cx="489.54" cy="141.233" r="2.94888" fill="#FAFAFA"/>
<circle cx="489.54" cy="156.131" r="2.94888" fill="#FAFAFA"/>
<circle cx="489.54" cy="171.029" r="2.94888" fill="#FAFAFA"/>
<circle cx="489.54" cy="185.927" r="2.94888" fill="#FAFAFA"/>
<circle cx="489.54" cy="200.824" r="2.94888" fill="#FAFAFA"/>
<circle cx="504.438" cy="36.9489" r="2.94888" fill="#FAFAFA"/>
<circle cx="504.438" cy="51.8466" r="2.94888" fill="#FAFAFA"/>
<circle cx="504.438" cy="66.7444" r="2.94888" fill="#FAFAFA"/>
<circle cx="504.438" cy="81.6422" r="2.94888" fill="#FAFAFA"/>
<circle cx="504.438" cy="96.5399" r="2.94888" fill="#FAFAFA"/>
<circle cx="504.438" cy="111.438" r="2.94888" fill="#FAFAFA"/>
<circle cx="504.438" cy="126.335" r="2.94888" fill="#FAFAFA"/>
<circle cx="504.438" cy="141.233" r="2.94888" fill="#FAFAFA"/>
<circle cx="504.438" cy="156.131" r="2.94888" fill="#FAFAFA"/>
<circle cx="504.438" cy="171.029" r="2.94888" fill="#FAFAFA"/>
<circle cx="504.438" cy="185.927" r="2.94888" fill="#FAFAFA"/>
<circle cx="504.438" cy="200.824" r="2.94888" fill="#FAFAFA"/>
<circle cx="519.335" cy="36.9489" r="2.94888" fill="#FAFAFA"/>
<circle cx="519.335" cy="51.8466" r="2.94888" fill="#FAFAFA"/>
<circle cx="519.335" cy="66.7444" r="2.94888" fill="#FAFAFA"/>
<circle cx="519.335" cy="81.6422" r="2.94888" fill="#FAFAFA"/>
<circle cx="519.335" cy="96.5399" r="2.94888" fill="#FAFAFA"/>
<circle cx="519.335" cy="111.438" r="2.94888" fill="#FAFAFA"/>
<circle cx="519.335" cy="126.335" r="2.94888" fill="#FAFAFA"/>
<circle cx="519.335" cy="141.233" r="2.94888" fill="#FAFAFA"/>
<circle cx="519.335" cy="156.131" r="2.94888" fill="#FAFAFA"/>
<circle cx="519.335" cy="171.029" r="2.94888" fill="#FAFAFA"/>
<circle cx="519.335" cy="185.927" r="2.94888" fill="#FAFAFA"/>
<circle cx="519.335" cy="200.824" r="2.94888" fill="#FAFAFA"/>
<circle cx="534.233" cy="36.9489" r="2.94888" fill="#FAFAFA"/>
<circle cx="534.233" cy="51.8466" r="2.94888" fill="#FAFAFA"/>
<circle cx="534.233" cy="66.7444" r="2.94888" fill="#FAFAFA"/>
<circle cx="534.233" cy="81.6422" r="2.94888" fill="#FAFAFA"/>
<circle cx="534.233" cy="96.5399" r="2.94888" fill="#FAFAFA"/>
<circle cx="534.233" cy="111.438" r="2.94888" fill="#FAFAFA"/>
<circle cx="534.233" cy="126.335" r="2.94888" fill="#FAFAFA"/>
<circle cx="534.233" cy="141.233" r="2.94888" fill="#FAFAFA"/>
<circle cx="534.233" cy="156.131" r="2.94888" fill="#FAFAFA"/>
<circle cx="534.233" cy="171.029" r="2.94888" fill="#FAFAFA"/>
<circle cx="534.233" cy="185.927" r="2.94888" fill="#FAFAFA"/>
<circle cx="534.233" cy="200.824" r="2.94888" fill="#FAFAFA"/>
<circle cx="549.131" cy="36.9489" r="2.94888" fill="#FAFAFA"/>
<circle cx="549.131" cy="51.8466" r="2.94888" fill="#FAFAFA"/>
<circle cx="549.131" cy="66.7444" r="2.94888" fill="#FAFAFA"/>
<circle cx="549.131" cy="81.6422" r="2.94888" fill="#FAFAFA"/>
<circle cx="549.131" cy="96.5399" r="2.94888" fill="#FAFAFA"/>
<circle cx="549.131" cy="111.438" r="2.94888" fill="#FAFAFA"/>
<circle cx="549.131" cy="126.335" r="2.94888" fill="#FAFAFA"/>
<circle cx="549.131" cy="141.233" r="2.94888" fill="#FAFAFA"/>
<circle cx="549.131" cy="156.131" r="2.94888" fill="#FAFAFA"/>
<circle cx="549.131" cy="171.029" r="2.94888" fill="#FAFAFA"/>
<circle cx="549.131" cy="185.927" r="2.94888" fill="#FAFAFA"/>
<circle cx="549.131" cy="200.824" r="2.94888" fill="#FAFAFA"/>
<circle cx="564.029" cy="36.9489" r="2.94888" fill="#FAFAFA"/>
<circle cx="564.029" cy="51.8466" r="2.94888" fill="#FAFAFA"/>
<circle cx="564.029" cy="66.7444" r="2.94888" fill="#FAFAFA"/>
<circle cx="564.029" cy="81.6422" r="2.94888" fill="#FAFAFA"/>
<circle cx="564.029" cy="96.5399" r="2.94888" fill="#FAFAFA"/>
<circle cx="564.029" cy="111.438" r="2.94888" fill="#FAFAFA"/>
<circle cx="564.029" cy="126.335" r="2.94888" fill="#FAFAFA"/>
<circle cx="564.029" cy="141.233" r="2.94888" fill="#FAFAFA"/>
<circle cx="564.029" cy="156.131" r="2.94888" fill="#FAFAFA"/>
<circle cx="564.029" cy="171.029" r="2.94888" fill="#FAFAFA"/>
<circle cx="564.029" cy="185.927" r="2.94888" fill="#FAFAFA"/>
<circle cx="564.029" cy="200.824" r="2.94888" fill="#FAFAFA"/>
<circle cx="578.927" cy="36.9489" r="2.94888" fill="#FAFAFA"/>
<circle cx="578.927" cy="51.8466" r="2.94888" fill="#FAFAFA"/>
<circle cx="578.927" cy="66.7444" r="2.94888" fill="#FAFAFA"/>
<circle cx="578.927" cy="81.6422" r="2.94888" fill="#FAFAFA"/>
<circle cx="578.927" cy="96.5399" r="2.94888" fill="#FAFAFA"/>
<circle cx="578.927" cy="111.438" r="2.94888" fill="#FAFAFA"/>
<circle cx="578.927" cy="126.335" r="2.94888" fill="#FAFAFA"/>
<circle cx="578.927" cy="141.233" r="2.94888" fill="#FAFAFA"/>
<circle cx="578.927" cy="156.131" r="2.94888" fill="#FAFAFA"/>
<circle cx="578.927" cy="171.029" r="2.94888" fill="#FAFAFA"/>
<circle cx="578.927" cy="185.927" r="2.94888" fill="#FAFAFA"/>
<circle cx="578.927" cy="200.824" r="2.94888" fill="#FAFAFA"/>
<circle cx="593.824" cy="36.9489" r="2.94888" fill="#FAFAFA"/>
<circle cx="593.824" cy="51.8466" r="2.94888" fill="#FAFAFA"/>
<circle cx="593.824" cy="66.7444" r="2.94888" fill="#FAFAFA"/>
<circle cx="593.824" cy="81.6422" r="2.94888" fill="#FAFAFA"/>
<circle cx="593.824" cy="96.5399" r="2.94888" fill="#FAFAFA"/>
<circle cx="593.824" cy="111.438" r="2.94888" fill="#FAFAFA"/>
<circle cx="593.824" cy="126.335" r="2.94888" fill="#FAFAFA"/>
<circle cx="593.824" cy="141.233" r="2.94888" fill="#FAFAFA"/>
<circle cx="593.824" cy="156.131" r="2.94888" fill="#FAFAFA"/>
<circle cx="593.824" cy="171.029" r="2.94888" fill="#FAFAFA"/>
<circle cx="593.824" cy="185.927" r="2.94888" fill="#FAFAFA"/>
<circle cx="593.824" cy="200.824" r="2.94888" fill="#FAFAFA"/>
<circle cx="82" cy="144" r="50" fill="#52525B"/>
<path d="M70.4933 149.192C67.5653 149.192 65.5173 147.144 65.5173 144.248V138.008H67.8693V144.152C67.8693 145.848 68.9573 147.048 70.4933 147.048C72.0133 147.048 73.1013 145.848 73.1013 144.152V138.008H75.4693V144.248C75.4693 147.144 73.4053 149.192 70.4933 149.192ZM80.6514 149.192C79.3234 149.192 77.9154 148.744 76.9234 147.944L77.9314 146.328C78.6674 146.856 79.5954 147.256 80.6994 147.256C81.3234 147.256 81.7714 147 81.7714 146.632C81.7714 146.12 81.1634 145.96 80.3154 145.736C78.6194 145.32 77.3074 144.856 77.2914 143.224C77.2754 141.656 78.5714 140.536 80.5234 140.536C81.7074 140.536 82.8754 140.952 83.7874 141.56L82.8434 143.224C82.0914 142.76 81.2274 142.488 80.5234 142.488C79.9474 142.488 79.5474 142.696 79.5474 142.984C79.5474 143.432 79.8834 143.56 81.0034 143.864C82.4274 144.232 84.0114 144.712 84.0114 146.52C84.0114 148.152 82.6834 149.192 80.6514 149.192ZM89.4827 147.128C90.1387 147.128 90.9387 146.824 91.3867 146.392L92.8747 147.912C92.1387 148.68 90.7147 149.192 89.4987 149.192C87.0347 149.192 85.1147 147.384 85.1147 144.84C85.1147 142.344 86.9547 140.536 89.3707 140.536C91.9627 140.536 93.4827 142.504 93.4827 145.624H87.5147C87.7867 146.52 88.5067 147.128 89.4827 147.128ZM89.4667 142.6C88.5867 142.6 87.8507 143.112 87.5467 143.944H91.2427C91.0187 143.128 90.4107 142.6 89.4667 142.6ZM97.3991 142.264C97.9431 141.192 98.9671 140.536 100.231 140.536V142.504C98.5031 142.504 97.3991 143.496 97.3991 145.048V149H95.0631V140.728H97.3991V142.264Z" fill="white"/>
<rect x="259.5" y="108.5" width="150" height="71" rx="14.5" fill="white" stroke="#18181B" stroke-width="3"/>
<path d="M315.679 138.216C312.133 138.216 309.109 135.282 309.109 131.808C309.109 128.334 312.133 125.418 315.679 125.418C317.551 125.418 319.279 126.21 320.485 127.488L318.559 129.216C317.839 128.388 316.813 127.83 315.679 127.83C313.609 127.83 311.845 129.666 311.845 131.808C311.845 133.968 313.609 135.804 315.679 135.804C316.813 135.804 317.839 135.246 318.559 134.418L320.485 136.146C319.279 137.406 317.551 138.216 315.679 138.216ZM322.056 138V125.418H324.684V138H322.056ZM328.292 127.416C327.482 127.416 326.852 126.768 326.852 125.976C326.852 125.238 327.482 124.572 328.292 124.572C329.066 124.572 329.696 125.238 329.696 125.976C329.696 126.768 329.066 127.416 328.292 127.416ZM326.96 138V128.694H329.588V138H326.96ZM336.274 135.894C337.012 135.894 337.912 135.552 338.416 135.066L340.09 136.776C339.262 137.64 337.66 138.216 336.292 138.216C333.52 138.216 331.36 136.182 331.36 133.32C331.36 130.512 333.43 128.478 336.148 128.478C339.064 128.478 340.774 130.692 340.774 134.202H334.06C334.366 135.21 335.176 135.894 336.274 135.894ZM336.256 130.8C335.266 130.8 334.438 131.376 334.096 132.312H338.254C338.002 131.394 337.318 130.8 336.256 130.8ZM347.934 128.478C349.95 128.478 351.39 129.972 351.39 132.078V138H348.852V132.636C348.852 131.484 348.132 130.692 347.088 130.692C345.99 130.692 345.144 131.484 345.144 132.492L345.126 132.438V138H342.498V128.694H345.126V129.864C345.684 129.018 346.728 128.478 347.934 128.478ZM358.505 135.696L359.135 137.406C358.595 137.892 357.749 138.216 356.993 138.216C355.355 138.216 354.203 137.046 354.203 135.372V130.818H352.925V128.694H354.203V126.138H356.723V128.694H358.739V130.818H356.723V134.958C356.723 135.57 357.119 136.002 357.605 136.002C357.965 136.002 358.325 135.876 358.505 135.696ZM317.828 162.72C315.684 160.928 314.484 158.512 314.484 155.76C314.484 152.992 315.684 150.592 317.828 148.8L318.468 149.472C316.724 151.264 315.764 153.136 315.764 155.76C315.764 158.368 316.724 160.256 318.468 162.032L317.828 162.72ZM323.787 151.536C326.043 151.536 327.147 152.96 327.147 154.96V160H325.947V158.704C325.355 159.68 324.123 160.192 323.035 160.192C321.291 160.192 320.011 159.184 320.011 157.552C320.011 155.904 321.483 154.8 323.259 154.8C324.155 154.8 325.099 154.992 325.947 155.264V154.96C325.947 153.84 325.499 152.56 323.707 152.56C322.875 152.56 322.043 152.928 321.291 153.312L320.811 152.336C321.995 151.744 322.987 151.536 323.787 151.536ZM323.243 159.136C324.331 159.136 325.627 158.576 325.947 157.408V156.144C325.195 155.936 324.347 155.808 323.451 155.808C322.219 155.808 321.179 156.512 321.179 157.504C321.179 158.528 322.075 159.136 323.243 159.136ZM333.919 151.536C336.095 151.536 337.727 153.328 337.727 155.856C337.727 158.4 336.095 160.192 333.919 160.192C332.591 160.192 331.535 159.536 330.911 158.448V162.752H329.711V151.728H330.911V153.28C331.535 152.192 332.591 151.536 333.919 151.536ZM333.695 159.12C335.311 159.12 336.463 157.76 336.463 155.856C336.463 153.952 335.311 152.608 333.695 152.608C332.063 152.608 330.911 153.952 330.911 155.856C330.911 157.76 332.063 159.12 333.695 159.12ZM344.122 151.536C346.298 151.536 347.93 153.328 347.93 155.856C347.93 158.4 346.298 160.192 344.122 160.192C342.794 160.192 341.738 159.536 341.114 158.448V162.752H339.914V151.728H341.114V153.28C341.738 152.192 342.794 151.536 344.122 151.536ZM343.898 159.12C345.514 159.12 346.666 157.76 346.666 155.856C346.666 153.952 345.514 152.608 343.898 152.608C342.266 152.608 341.114 153.952 341.114 155.856C341.114 157.76 342.266 159.12 343.898 159.12ZM350.165 162.72L349.525 162.032C351.269 160.256 352.229 158.368 352.229 155.76C352.229 153.136 351.269 151.264 349.525 149.472L350.165 148.8C352.309 150.592 353.509 152.992 353.509 155.76C353.509 158.512 352.309 160.928 350.165 162.72Z" fill="#18181B"/>
<rect x="561.5" y="109.5" width="148" height="71" rx="14.5" fill="#18181B" stroke="#18181B" stroke-width="3"/>
<path d="M605.576 139H602.552L599.726 134.986H597.764V139H595.118V126.634H600.68C603.362 126.634 605.342 128.362 605.342 130.81C605.342 132.646 604.226 134.086 602.534 134.68L605.576 139ZM597.764 129.064V132.556H600.392C601.706 132.556 602.606 131.872 602.606 130.81C602.606 129.748 601.706 129.064 600.392 129.064H597.764ZM616.839 129.028H609.981V131.494H616.191V133.888H609.981V136.606H616.839V139H607.317V126.634H616.839V129.028ZM623.528 139.216C621.386 139.216 619.478 138.496 618.038 137.164L619.568 135.346C620.738 136.354 622.07 136.966 623.636 136.966C624.968 136.966 625.652 136.354 625.652 135.58C625.652 134.698 624.932 134.428 623.042 133.996C620.432 133.402 618.578 132.664 618.578 130.27C618.578 127.984 620.45 126.418 623.15 126.418C625.166 126.418 626.732 127.048 627.992 128.128L626.606 130.036C625.508 129.154 624.266 128.668 623.078 128.668C621.944 128.668 621.26 129.262 621.26 130C621.26 130.9 621.998 131.188 623.906 131.62C626.57 132.214 628.334 133.006 628.334 135.292C628.334 137.65 626.552 139.216 623.528 139.216ZM633.443 139V129.028H629.591V126.634H639.959V129.028H636.107V139H633.443ZM655.834 139L655.042 137.056H649.534L648.742 139H645.772L650.812 126.634H653.782L658.822 139H655.834ZM650.452 134.806H654.124L652.288 130.288L650.452 134.806ZM660.28 139V126.634H665.842C668.524 126.634 670.504 128.362 670.504 130.81C670.504 133.258 668.524 134.986 665.842 134.986H662.926V139H660.28ZM662.926 132.556H665.554C666.868 132.556 667.768 131.872 667.768 130.81C667.768 129.748 666.868 129.064 665.554 129.064H662.926V132.556ZM672.198 139V126.634H674.862V139H672.198ZM596.609 163.72C594.465 161.928 593.265 159.512 593.265 156.76C593.265 153.992 594.465 151.592 596.609 149.8L597.249 150.472C595.505 152.264 594.545 154.136 594.545 156.76C594.545 159.368 595.505 161.256 597.249 163.032L596.609 163.72ZM600.44 163.88C599.96 163.88 599.512 163.784 599.128 163.608L599.416 162.584C599.704 162.728 600.04 162.792 600.392 162.792C600.92 162.792 601.272 162.616 601.592 162.056L602.072 161.032L598.472 152.728H599.8L602.696 159.608L605.432 152.728H606.728L602.952 161.928C602.376 163.336 601.576 163.864 600.44 163.88ZM612.22 161.192C609.9 161.192 607.932 159.208 607.932 156.856C607.932 154.504 609.9 152.536 612.22 152.536C614.54 152.536 616.492 154.504 616.492 156.856C616.492 159.208 614.54 161.192 612.22 161.192ZM612.22 160.12C613.852 160.12 615.228 158.632 615.228 156.856C615.228 155.096 613.852 153.608 612.22 153.608C610.572 153.608 609.196 155.096 609.196 156.856C609.196 158.632 610.572 160.12 612.22 160.12ZM624.298 152.728H625.498V161H624.298V159.672C623.818 160.552 622.746 161.192 621.578 161.192C619.754 161.192 618.474 159.864 618.474 157.992V152.728H619.674V157.832C619.674 159.176 620.522 160.12 621.738 160.12C623.13 160.12 624.298 159.144 624.298 157.992V152.728ZM629.255 154.344C629.751 153.24 630.935 152.536 632.455 152.536V153.608C630.583 153.608 629.255 154.76 629.255 156.376V161H628.055V152.728H629.255V154.344ZM645.219 149.816H646.419V161H645.219V159.448C644.595 160.536 643.539 161.192 642.211 161.192C640.035 161.192 638.403 159.4 638.403 156.856C638.403 154.328 640.035 152.536 642.211 152.536C643.539 152.536 644.595 153.192 645.219 154.28V149.816ZM642.435 160.12C644.067 160.12 645.219 158.76 645.219 156.856C645.219 154.952 644.067 153.608 642.435 153.608C640.819 153.608 639.667 154.952 639.667 156.856C639.667 158.76 640.819 160.12 642.435 160.12ZM652.318 152.536C654.574 152.536 655.678 153.96 655.678 155.96V161H654.478V159.704C653.886 160.68 652.654 161.192 651.566 161.192C649.822 161.192 648.542 160.184 648.542 158.552C648.542 156.904 650.014 155.8 651.79 155.8C652.686 155.8 653.63 155.992 654.478 156.264V155.96C654.478 154.84 654.03 153.56 652.238 153.56C651.406 153.56 650.574 153.928 649.822 154.312L649.342 153.336C650.526 152.744 651.518 152.536 652.318 152.536ZM651.774 160.136C652.862 160.136 654.158 159.576 654.478 158.408V157.144C653.726 156.936 652.878 156.808 651.982 156.808C650.75 156.808 649.71 157.512 649.71 158.504C649.71 159.528 650.606 160.136 651.774 160.136ZM661.762 159.784L662.354 160.664C661.922 161 661.378 161.192 660.818 161.192C659.634 161.192 658.802 160.312 658.802 159.08V153.8H657.506V152.728H658.802V150.456H660.002V152.728H662.034V153.8H660.002V159.08C660.002 159.688 660.418 160.12 660.898 160.12C661.266 160.12 661.586 159.976 661.762 159.784ZM667.412 152.536C669.668 152.536 670.772 153.96 670.772 155.96V161H669.572V159.704C668.98 160.68 667.748 161.192 666.66 161.192C664.916 161.192 663.636 160.184 663.636 158.552C663.636 156.904 665.108 155.8 666.884 155.8C667.78 155.8 668.724 155.992 669.572 156.264V155.96C669.572 154.84 669.124 153.56 667.332 153.56C666.5 153.56 665.668 153.928 664.916 154.312L664.436 153.336C665.62 152.744 666.612 152.536 667.412 152.536ZM666.868 160.136C667.956 160.136 669.252 159.576 669.572 158.408V157.144C668.82 156.936 667.972 156.808 667.076 156.808C665.844 156.808 664.804 157.512 664.804 158.504C664.804 159.528 665.7 160.136 666.868 160.136ZM673.384 163.72L672.744 163.032C674.488 161.256 675.448 159.368 675.448 156.76C675.448 154.136 674.488 152.264 672.744 150.472L673.384 149.8C675.528 151.592 676.728 153.992 676.728 156.76C676.728 159.512 675.528 161.928 673.384 163.72Z" fill="white"/>
<path d="M132 143C131.448 143 131 143.448 131 144C131 144.552 131.448 145 132 145V143ZM254.707 144.707C255.098 144.317 255.098 143.683 254.707 143.293L248.343 136.929C247.953 136.538 247.319 136.538 246.929 136.929C246.538 137.319 246.538 137.953 246.929 138.343L252.586 144L246.929 149.657C246.538 150.047 246.538 150.681 246.929 151.071C247.319 151.462 247.953 151.462 248.343 151.071L254.707 144.707ZM132 145L254 145V143L132 143V145Z" fill="#18181B"/>
<path d="M411 143C410.448 143 410 143.448 410 144C410 144.552 410.448 145 411 145V143ZM560.707 144.707C561.098 144.317 561.098 143.683 560.707 143.293L554.343 136.929C553.953 136.538 553.319 136.538 552.929 136.929C552.538 137.319 552.538 137.953 552.929 138.343L558.586 144L552.929 149.657C552.538 150.047 552.538 150.681 552.929 151.071C553.319 151.462 553.953 151.462 554.343 151.071L560.707 144.707ZM411 145L560 145V143L411 143V145Z" fill="#18181B"/>
<path d="M152.065 132.616V131.56H155.473V134.848C154.693 135.64 153.397 136.144 152.233 136.144C149.917 136.144 147.937 134.188 147.937 131.872C147.937 129.556 149.917 127.612 152.233 127.612C153.397 127.612 154.693 128.104 155.473 128.908L154.621 129.724C154.057 129.112 153.085 128.728 152.233 128.728C150.577 128.728 149.185 130.168 149.185 131.872C149.185 133.588 150.577 135.028 152.233 135.028C152.929 135.028 153.709 134.776 154.273 134.344V132.616H152.065ZM157.743 128.764C157.335 128.764 157.023 128.428 157.023 128.044C157.023 127.672 157.335 127.336 157.743 127.336C158.127 127.336 158.451 127.672 158.451 128.044C158.451 128.428 158.127 128.764 157.743 128.764ZM157.143 136V129.796H158.331V136H157.143ZM162.114 136L159.45 129.796H160.734L162.666 134.62L164.562 129.796H165.846L163.23 136H162.114ZM169.409 135.088C170.057 135.088 170.813 134.8 171.185 134.416L171.929 135.184C171.377 135.772 170.297 136.144 169.421 136.144C167.693 136.144 166.229 134.788 166.229 132.88C166.229 131.02 167.609 129.652 169.325 129.652C171.221 129.652 172.313 131.092 172.313 133.312H167.429C167.585 134.344 168.341 135.088 169.409 135.088ZM169.373 130.708C168.413 130.708 167.633 131.356 167.441 132.364H171.161C171.029 131.404 170.441 130.708 169.373 130.708ZM175.934 136.144C175.022 136.144 174.026 135.82 173.282 135.22L173.846 134.368C174.506 134.848 175.214 135.124 175.946 135.124C176.642 135.124 177.122 134.8 177.122 134.32C177.122 133.744 176.486 133.564 175.718 133.348C174.29 132.952 173.582 132.544 173.582 131.536C173.57 130.396 174.518 129.652 175.838 129.652C176.642 129.652 177.458 129.928 178.13 130.372L177.602 131.248C177.002 130.876 176.378 130.672 175.838 130.672C175.226 130.672 174.746 130.936 174.746 131.404C174.746 131.884 175.13 132.028 176.174 132.352C177.194 132.652 178.286 132.988 178.286 134.224C178.286 135.4 177.29 136.144 175.934 136.144ZM186.544 129.652C188.176 129.652 189.4 130.996 189.4 132.892C189.4 134.8 188.176 136.144 186.544 136.144C185.584 136.144 184.816 135.688 184.336 134.92V138.064H183.16V129.796H184.336V130.864C184.816 130.108 185.584 129.652 186.544 129.652ZM186.256 135.112C187.396 135.112 188.2 134.188 188.2 132.892C188.2 131.596 187.396 130.684 186.256 130.684C185.14 130.684 184.336 131.596 184.336 132.892C184.336 134.188 185.14 135.112 186.256 135.112ZM193.439 129.652C195.107 129.652 196.031 130.708 196.031 132.244V136H194.867V135.148C194.411 135.796 193.559 136.144 192.803 136.144C191.483 136.144 190.511 135.376 190.511 134.164C190.511 132.928 191.627 132.1 192.995 132.1C193.607 132.1 194.267 132.232 194.867 132.436V132.244C194.867 131.464 194.507 130.636 193.271 130.636C192.659 130.636 192.059 130.876 191.519 131.152L191.087 130.276C191.975 129.832 192.755 129.652 193.439 129.652ZM193.031 135.208C193.799 135.208 194.663 134.824 194.867 134.056V133.228C194.363 133.072 193.787 132.988 193.175 132.988C192.347 132.988 191.651 133.456 191.651 134.128C191.651 134.8 192.251 135.208 193.031 135.208ZM199.993 136.144C199.081 136.144 198.085 135.82 197.341 135.22L197.905 134.368C198.565 134.848 199.273 135.124 200.005 135.124C200.701 135.124 201.181 134.8 201.181 134.32C201.181 133.744 200.545 133.564 199.777 133.348C198.349 132.952 197.641 132.544 197.641 131.536C197.629 130.396 198.577 129.652 199.897 129.652C200.701 129.652 201.517 129.928 202.189 130.372L201.661 131.248C201.061 130.876 200.437 130.672 199.897 130.672C199.285 130.672 198.805 130.936 198.805 131.404C198.805 131.884 199.189 132.028 200.233 132.352C201.253 132.652 202.345 132.988 202.345 134.224C202.345 135.4 201.349 136.144 199.993 136.144ZM205.969 136.144C205.057 136.144 204.061 135.82 203.317 135.22L203.881 134.368C204.541 134.848 205.249 135.124 205.981 135.124C206.677 135.124 207.157 134.8 207.157 134.32C207.157 133.744 206.521 133.564 205.753 133.348C204.325 132.952 203.617 132.544 203.617 131.536C203.605 130.396 204.553 129.652 205.873 129.652C206.677 129.652 207.493 129.928 208.165 130.372L207.637 131.248C207.037 130.876 206.413 130.672 205.873 130.672C205.261 130.672 204.781 130.936 204.781 131.404C204.781 131.884 205.165 132.028 206.209 132.352C207.229 132.652 208.321 132.988 208.321 134.224C208.321 135.4 207.325 136.144 205.969 136.144ZM211.274 136L209.186 129.796H210.398L211.826 134.416L213.362 129.796H214.37L215.906 134.416L217.322 129.796H218.534L216.446 136H215.354L213.866 131.392L212.366 136H211.274ZM222.415 136.144C220.639 136.144 219.139 134.656 219.139 132.892C219.139 131.128 220.639 129.652 222.415 129.652C224.179 129.652 225.667 131.128 225.667 132.892C225.667 134.656 224.179 136.144 222.415 136.144ZM222.415 135.112C223.531 135.112 224.479 134.104 224.479 132.892C224.479 131.692 223.531 130.684 222.415 130.684C221.275 130.684 220.327 131.692 220.327 132.892C220.327 134.104 221.275 135.112 222.415 135.112ZM228.305 130.984C228.701 130.168 229.541 129.652 230.609 129.652V130.684C229.325 130.684 228.413 131.392 228.305 132.472V136H227.117V129.796H228.305V130.984ZM236.544 127.612H237.72V136H236.544V134.92C236.064 135.688 235.296 136.144 234.336 136.144C232.704 136.144 231.48 134.8 231.48 132.892C231.48 130.996 232.704 129.652 234.336 129.652C235.296 129.652 236.064 130.108 236.544 130.864V127.612ZM234.624 135.112C235.74 135.112 236.544 134.188 236.544 132.892C236.544 131.596 235.74 130.684 234.624 130.684C233.484 130.684 232.68 131.596 232.68 132.892C232.68 134.188 233.484 135.112 234.624 135.112Z" fill="#18181B"/>
<path d="M434.548 136L433.828 134.32H429.532L428.812 136H427.468L431.008 127.756H432.352L435.892 136H434.548ZM430 133.228H433.36L431.68 129.316L430 133.228ZM441.339 129.796H442.527V136H441.339V135.1C440.967 135.712 440.211 136.144 439.371 136.144C438.003 136.144 437.043 135.148 437.043 133.744V129.796H438.207V133.54C438.207 134.464 438.795 135.112 439.635 135.112C440.499 135.112 441.243 134.548 441.339 133.816V129.796ZM447.155 134.884L447.587 135.7C447.251 135.976 446.795 136.144 446.351 136.144C445.391 136.144 444.719 135.448 444.719 134.452V130.804H443.783V129.796H444.719V128.092H445.883V129.796H447.347V130.804H445.883V134.368C445.883 134.8 446.171 135.112 446.519 135.112C446.783 135.112 447.023 135.016 447.155 134.884ZM451.954 129.652C453.322 129.652 454.282 130.648 454.282 132.052V136H453.118V132.256C453.118 131.332 452.53 130.684 451.69 130.684C450.754 130.684 449.974 131.344 449.974 132.148V136H448.798V127.612H449.974V130.72C450.346 130.096 451.102 129.652 451.954 129.652ZM458.921 136.144C457.145 136.144 455.645 134.656 455.645 132.892C455.645 131.128 457.145 129.652 458.921 129.652C460.685 129.652 462.173 131.128 462.173 132.892C462.173 134.656 460.685 136.144 458.921 136.144ZM458.921 135.112C460.037 135.112 460.985 134.104 460.985 132.892C460.985 131.692 460.037 130.684 458.921 130.684C457.781 130.684 456.833 131.692 456.833 132.892C456.833 134.104 457.781 135.112 458.921 135.112ZM464.811 130.984C465.207 130.168 466.047 129.652 467.115 129.652V130.684C465.831 130.684 464.919 131.392 464.811 132.472V136H463.623V129.796H464.811V130.984ZM468.862 128.764C468.454 128.764 468.142 128.428 468.142 128.044C468.142 127.672 468.454 127.336 468.862 127.336C469.246 127.336 469.57 127.672 469.57 128.044C469.57 128.428 469.246 128.764 468.862 128.764ZM468.262 136V129.796H469.45V136H468.262ZM470.905 136V135.112L474.385 130.864H470.977V129.796H475.945V130.684L472.465 134.932H475.969V136H470.905ZM480.007 129.652C481.675 129.652 482.599 130.708 482.599 132.244V136H481.435V135.148C480.979 135.796 480.127 136.144 479.371 136.144C478.051 136.144 477.079 135.376 477.079 134.164C477.079 132.928 478.195 132.1 479.563 132.1C480.175 132.1 480.835 132.232 481.435 132.436V132.244C481.435 131.464 481.075 130.636 479.839 130.636C479.227 130.636 478.627 130.876 478.087 131.152L477.655 130.276C478.543 129.832 479.323 129.652 480.007 129.652ZM479.599 135.208C480.367 135.208 481.231 134.824 481.435 134.056V133.228C480.931 133.072 480.355 132.988 479.743 132.988C478.915 132.988 478.219 133.456 478.219 134.128C478.219 134.8 478.819 135.208 479.599 135.208ZM487.221 134.884L487.653 135.7C487.317 135.976 486.861 136.144 486.417 136.144C485.457 136.144 484.785 135.448 484.785 134.452V130.804H483.849V129.796H484.785V128.092H485.949V129.796H487.413V130.804H485.949V134.368C485.949 134.8 486.237 135.112 486.585 135.112C486.849 135.112 487.089 135.016 487.221 134.884ZM489.452 128.764C489.044 128.764 488.732 128.428 488.732 128.044C488.732 127.672 489.044 127.336 489.452 127.336C489.836 127.336 490.16 127.672 490.16 128.044C490.16 128.428 489.836 128.764 489.452 128.764ZM488.852 136V129.796H490.04V136H488.852ZM494.699 136.144C492.923 136.144 491.423 134.656 491.423 132.892C491.423 131.128 492.923 129.652 494.699 129.652C496.463 129.652 497.951 131.128 497.951 132.892C497.951 134.656 496.463 136.144 494.699 136.144ZM494.699 135.112C495.815 135.112 496.763 134.104 496.763 132.892C496.763 131.692 495.815 130.684 494.699 130.684C493.559 130.684 492.611 131.692 492.611 132.892C492.611 134.104 493.559 135.112 494.699 135.112ZM502.497 129.652C503.865 129.652 504.825 130.648 504.825 132.052V136H503.661V132.256C503.661 131.332 503.073 130.684 502.233 130.684C501.369 130.684 500.625 131.248 500.529 131.98V136H499.341V129.796H500.529V130.696C500.901 130.084 501.657 129.652 502.497 129.652ZM507.268 131.38C506.812 131.38 506.464 131.008 506.464 130.564C506.464 130.156 506.812 129.784 507.268 129.784C507.7 129.784 508.048 130.156 508.048 130.564C508.048 131.008 507.7 131.38 507.268 131.38ZM507.268 136.144C506.812 136.144 506.464 135.772 506.464 135.328C506.464 134.92 506.812 134.548 507.268 134.548C507.7 134.548 508.048 134.92 508.048 135.328C508.048 135.772 507.7 136.144 507.268 136.144ZM513.314 136V127.756H517.226C518.606 127.756 519.578 128.608 519.578 129.808C519.578 130.672 519.146 131.212 518.402 131.632C519.362 132.1 519.914 132.844 519.914 133.756C519.914 135.076 518.858 136 517.382 136H513.314ZM514.526 131.188H516.926C517.754 131.188 518.342 130.696 518.342 130.012C518.342 129.328 517.754 128.824 516.926 128.824H514.526V131.188ZM514.526 134.932H517.106C518.03 134.932 518.678 134.368 518.678 133.576C518.678 132.784 518.03 132.22 517.106 132.22H514.526V134.932ZM523.999 129.652C525.667 129.652 526.591 130.708 526.591 132.244V136H525.427V135.148C524.971 135.796 524.119 136.144 523.363 136.144C522.043 136.144 521.071 135.376 521.071 134.164C521.071 132.928 522.187 132.1 523.555 132.1C524.167 132.1 524.827 132.232 525.427 132.436V132.244C525.427 131.464 525.067 130.636 523.831 130.636C523.219 130.636 522.619 130.876 522.079 131.152L521.647 130.276C522.535 129.832 523.315 129.652 523.999 129.652ZM523.591 135.208C524.359 135.208 525.223 134.824 525.427 134.056V133.228C524.923 133.072 524.347 132.988 523.735 132.988C522.907 132.988 522.211 133.456 522.211 134.128C522.211 134.8 522.811 135.208 523.591 135.208ZM530.553 136.144C529.641 136.144 528.645 135.82 527.901 135.22L528.465 134.368C529.125 134.848 529.833 135.124 530.565 135.124C531.261 135.124 531.741 134.8 531.741 134.32C531.741 133.744 531.105 133.564 530.337 133.348C528.909 132.952 528.201 132.544 528.201 131.536C528.189 130.396 529.137 129.652 530.457 129.652C531.261 129.652 532.077 129.928 532.749 130.372L532.221 131.248C531.621 130.876 530.997 130.672 530.457 130.672C529.845 130.672 529.365 130.936 529.365 131.404C529.365 131.884 529.749 132.028 530.793 132.352C531.813 132.652 532.905 132.988 532.905 134.224C532.905 135.4 531.909 136.144 530.553 136.144ZM534.874 128.764C534.466 128.764 534.154 128.428 534.154 128.044C534.154 127.672 534.466 127.336 534.874 127.336C535.258 127.336 535.582 127.672 535.582 128.044C535.582 128.428 535.258 128.764 534.874 128.764ZM534.274 136V129.796H535.462V136H534.274ZM540.108 136.144C538.344 136.144 536.844 134.656 536.844 132.892C536.844 131.128 538.344 129.652 540.12 129.652C541.008 129.652 541.812 130.024 542.4 130.612L541.596 131.356C541.224 130.936 540.684 130.684 540.108 130.684C538.98 130.684 538.044 131.692 538.044 132.892C538.044 134.104 538.98 135.112 540.12 135.112C540.696 135.112 541.248 134.848 541.632 134.416L542.436 135.148C541.836 135.76 541.032 136.144 540.108 136.144Z" fill="#18181B"/>
</g>
<defs>
<clipPath id="clip0_421_628">
<rect width="743" height="287" fill="white"/>
</clipPath>
</defs>
</svg>
