<svg width="741" height="431" viewBox="0 0 741 431" fill="none" xmlns="http://www.w3.org/2000/svg">
<g clip-path="url(#clip0_421_1276)">
<rect width="741" height="431" fill="white"/>
<circle cx="372" cy="216" r="254" fill="#F4F4F5"/>
<circle cx="96.096" cy="329.096" r="4.09596" fill="#E4E4E7"/>
<circle cx="116.576" cy="329.096" r="4.09596" fill="#E4E4E7"/>
<circle cx="137.056" cy="329.096" r="4.09596" fill="#E4E4E7"/>
<circle cx="157.535" cy="329.096" r="4.09596" fill="#E4E4E7"/>
<circle cx="178.015" cy="329.096" r="4.09596" fill="#E4E4E7"/>
<circle cx="96.096" cy="349.576" r="4.09596" fill="#E4E4E7"/>
<circle cx="116.576" cy="349.576" r="4.09596" fill="#E4E4E7"/>
<circle cx="137.056" cy="349.576" r="4.09596" fill="#E4E4E7"/>
<circle cx="157.535" cy="349.576" r="4.09596" fill="#E4E4E7"/>
<circle cx="178.015" cy="349.576" r="4.09596" fill="#E4E4E7"/>
<circle cx="96.096" cy="370.056" r="4.09596" fill="#E4E4E7"/>
<circle cx="116.576" cy="370.056" r="4.09596" fill="#E4E4E7"/>
<circle cx="137.056" cy="370.056" r="4.09596" fill="#E4E4E7"/>
<circle cx="157.535" cy="370.056" r="4.09596" fill="#E4E4E7"/>
<circle cx="178.015" cy="370.056" r="4.09596" fill="#E4E4E7"/>
<circle cx="96.096" cy="390.535" r="4.09596" fill="#E4E4E7"/>
<circle cx="116.576" cy="390.535" r="4.09596" fill="#E4E4E7"/>
<circle cx="137.056" cy="390.535" r="4.09596" fill="#E4E4E7"/>
<circle cx="157.535" cy="390.535" r="4.09596" fill="#E4E4E7"/>
<circle cx="178.015" cy="390.535" r="4.09596" fill="#E4E4E7"/>
<circle cx="96.096" cy="411.015" r="4.09596" fill="#E4E4E7"/>
<circle cx="198.495" cy="411.015" r="4.09596" transform="rotate(-90 198.495 411.015)" fill="#E4E4E7"/>
<circle cx="116.576" cy="411.015" r="4.09596" fill="#E4E4E7"/>
<circle cx="198.495" cy="390.535" r="4.09596" transform="rotate(-90 198.495 390.535)" fill="#E4E4E7"/>
<circle cx="137.056" cy="411.015" r="4.09596" fill="#E4E4E7"/>
<circle cx="198.495" cy="370.055" r="4.09596" transform="rotate(-90 198.495 370.055)" fill="#E4E4E7"/>
<circle cx="157.535" cy="411.015" r="4.09596" fill="#E4E4E7"/>
<circle cx="198.495" cy="349.576" r="4.09596" transform="rotate(-90 198.495 349.576)" fill="#E4E4E7"/>
<circle cx="178.015" cy="411.015" r="4.09596" fill="#E4E4E7"/>
<circle cx="198.495" cy="329.096" r="4.09596" transform="rotate(-90 198.495 329.096)" fill="#E4E4E7"/>
<circle cx="372" cy="216" r="254" fill="#F4F4F5"/>
<circle cx="96.096" cy="329.096" r="4.09596" fill="#E4E4E7"/>
<circle cx="116.576" cy="329.096" r="4.09596" fill="#E4E4E7"/>
<circle cx="137.056" cy="329.096" r="4.09596" fill="#E4E4E7"/>
<circle cx="157.535" cy="329.096" r="4.09596" fill="#E4E4E7"/>
<circle cx="178.015" cy="329.096" r="4.09596" fill="#E4E4E7"/>
<circle cx="96.096" cy="349.576" r="4.09596" fill="#E4E4E7"/>
<circle cx="116.576" cy="349.576" r="4.09596" fill="#E4E4E7"/>
<circle cx="137.056" cy="349.576" r="4.09596" fill="#E4E4E7"/>
<circle cx="157.535" cy="349.576" r="4.09596" fill="#E4E4E7"/>
<circle cx="178.015" cy="349.576" r="4.09596" fill="#E4E4E7"/>
<circle cx="96.096" cy="370.056" r="4.09596" fill="#E4E4E7"/>
<circle cx="116.576" cy="370.056" r="4.09596" fill="#E4E4E7"/>
<circle cx="137.056" cy="370.056" r="4.09596" fill="#E4E4E7"/>
<circle cx="157.535" cy="370.056" r="4.09596" fill="#E4E4E7"/>
<circle cx="178.015" cy="370.056" r="4.09596" fill="#E4E4E7"/>
<circle cx="96.096" cy="390.535" r="4.09596" fill="#E4E4E7"/>
<circle cx="116.576" cy="390.535" r="4.09596" fill="#E4E4E7"/>
<circle cx="137.056" cy="390.535" r="4.09596" fill="#E4E4E7"/>
<circle cx="157.535" cy="390.535" r="4.09596" fill="#E4E4E7"/>
<circle cx="178.015" cy="390.535" r="4.09596" fill="#E4E4E7"/>
<circle cx="96.096" cy="411.015" r="4.09596" fill="#E4E4E7"/>
<circle cx="198.495" cy="411.015" r="4.09596" transform="rotate(-90 198.495 411.015)" fill="#E4E4E7"/>
<circle cx="116.576" cy="411.015" r="4.09596" fill="#E4E4E7"/>
<circle cx="198.495" cy="390.535" r="4.09596" transform="rotate(-90 198.495 390.535)" fill="#E4E4E7"/>
<circle cx="137.056" cy="411.015" r="4.09596" fill="#E4E4E7"/>
<circle cx="198.495" cy="370.055" r="4.09596" transform="rotate(-90 198.495 370.055)" fill="#E4E4E7"/>
<circle cx="157.535" cy="411.015" r="4.09596" fill="#E4E4E7"/>
<circle cx="198.495" cy="349.576" r="4.09596" transform="rotate(-90 198.495 349.576)" fill="#E4E4E7"/>
<circle cx="178.015" cy="411.015" r="4.09596" fill="#E4E4E7"/>
<circle cx="198.495" cy="329.096" r="4.09596" transform="rotate(-90 198.495 329.096)" fill="#E4E4E7"/>
<path d="M134 118C133.448 118 133 118.448 133 119C133 119.552 133.448 120 134 120V118ZM186.707 119.707C187.098 119.317 187.098 118.683 186.707 118.293L180.343 111.929C179.953 111.538 179.319 111.538 178.929 111.929C178.538 112.319 178.538 112.953 178.929 113.343L184.586 119L178.929 124.657C178.538 125.047 178.538 125.681 178.929 126.071C179.319 126.462 179.953 126.462 180.343 126.071L186.707 119.707ZM134 120L186 120V118L134 118V120Z" fill="#18181B"/>
<path d="M262 155C262 154.448 261.552 154 261 154C260.448 154 260 154.448 260 155L262 155ZM260.293 299.707C260.683 300.098 261.317 300.098 261.707 299.707L268.071 293.343C268.462 292.953 268.462 292.319 268.071 291.929C267.681 291.538 267.047 291.538 266.657 291.929L261 297.586L255.343 291.929C254.953 291.538 254.319 291.538 253.929 291.929C253.538 292.319 253.538 292.953 253.929 293.343L260.293 299.707ZM260 155L260 299L262 299L262 155L260 155Z" fill="#18181B"/>
<path d="M292 299C292 299.552 292.448 300 293 300C293.552 300 294 299.552 294 299L292 299ZM293.707 154.293C293.317 153.902 292.683 153.902 292.293 154.293L285.929 160.657C285.538 161.047 285.538 161.681 285.929 162.071C286.319 162.462 286.953 162.462 287.343 162.071L293 156.414L298.657 162.071C299.047 162.462 299.681 162.462 300.071 162.071C300.462 161.681 300.462 161.047 300.071 160.657L293.707 154.293ZM294 299L294 155L292 155L292 299L294 299Z" fill="#18181B"/>
<path d="M366 118C365.448 118 365 118.448 365 119C365 119.552 365.448 120 366 120V118ZM510.707 119.707C511.098 119.317 511.098 118.683 510.707 118.293L504.343 111.929C503.953 111.538 503.319 111.538 502.929 111.929C502.538 112.319 502.538 112.953 502.929 113.343L508.586 119L502.929 124.657C502.538 125.047 502.538 125.681 502.929 126.071C503.319 126.462 503.953 126.462 504.343 126.071L510.707 119.707ZM366 120L510 120V118L366 118V120Z" fill="#18181B"/>
<path d="M402.864 109.132C401.484 109.132 400.344 108.652 399.468 107.812L400.2 106.912C400.932 107.608 401.796 108.064 402.912 108.064C404.052 108.064 404.64 107.464 404.64 106.804C404.64 106.024 403.956 105.724 402.576 105.412C400.896 105.016 399.78 104.512 399.78 103.024C399.78 101.644 400.98 100.6 402.636 100.6C403.908 100.6 404.856 101.068 405.648 101.764L404.952 102.676C404.256 102.04 403.428 101.668 402.588 101.668C401.664 101.668 401.016 102.256 401.016 102.916C401.016 103.684 401.724 103.948 403.08 104.272C404.724 104.656 405.864 105.208 405.864 106.684C405.864 108.076 404.808 109.132 402.864 109.132ZM410.161 108.088C410.809 108.088 411.565 107.8 411.937 107.416L412.681 108.184C412.129 108.772 411.049 109.144 410.173 109.144C408.445 109.144 406.981 107.788 406.981 105.88C406.981 104.02 408.361 102.652 410.077 102.652C411.973 102.652 413.065 104.092 413.065 106.312H408.181C408.337 107.344 409.093 108.088 410.161 108.088ZM410.125 103.708C409.165 103.708 408.385 104.356 408.193 105.364H411.913C411.781 104.404 411.193 103.708 410.125 103.708ZM417.598 102.652C418.966 102.652 419.926 103.648 419.926 105.052V109H418.762V105.256C418.762 104.332 418.174 103.684 417.334 103.684C416.47 103.684 415.726 104.248 415.63 104.98V109H414.442V102.796H415.63V103.696C416.002 103.084 416.758 102.652 417.598 102.652ZM426.402 100.612H427.578V109H426.402V107.92C425.922 108.688 425.154 109.144 424.194 109.144C422.562 109.144 421.338 107.8 421.338 105.892C421.338 103.996 422.562 102.652 424.194 102.652C425.154 102.652 425.922 103.108 426.402 103.864V100.612ZM424.482 108.112C425.598 108.112 426.402 107.188 426.402 105.892C426.402 104.596 425.598 103.684 424.482 103.684C423.342 103.684 422.538 104.596 422.538 105.892C422.538 107.188 423.342 108.112 424.482 108.112ZM435.698 107.884L436.13 108.7C435.794 108.976 435.338 109.144 434.894 109.144C433.934 109.144 433.262 108.448 433.262 107.452V103.804H432.326V102.796H433.262V101.092H434.426V102.796H435.89V103.804H434.426V107.368C434.426 107.8 434.714 108.112 435.062 108.112C435.326 108.112 435.566 108.016 435.698 107.884ZM440.281 109.144C438.505 109.144 437.005 107.656 437.005 105.892C437.005 104.128 438.505 102.652 440.281 102.652C442.045 102.652 443.533 104.128 443.533 105.892C443.533 107.656 442.045 109.144 440.281 109.144ZM440.281 108.112C441.397 108.112 442.345 107.104 442.345 105.892C442.345 104.692 441.397 103.684 440.281 103.684C439.141 103.684 438.193 104.692 438.193 105.892C438.193 107.104 439.141 108.112 440.281 108.112ZM450.563 102.796L447.887 105.604L450.443 109H449.027L447.083 106.396L446.087 107.404V109H444.911V100.612H446.087V105.964L449.123 102.796H450.563ZM454.388 108.088C455.036 108.088 455.792 107.8 456.164 107.416L456.908 108.184C456.356 108.772 455.276 109.144 454.4 109.144C452.672 109.144 451.208 107.788 451.208 105.88C451.208 104.02 452.588 102.652 454.304 102.652C456.2 102.652 457.292 104.092 457.292 106.312H452.408C452.564 107.344 453.32 108.088 454.388 108.088ZM454.352 103.708C453.392 103.708 452.612 104.356 452.42 105.364H456.14C456.008 104.404 455.42 103.708 454.352 103.708ZM461.825 102.652C463.193 102.652 464.153 103.648 464.153 105.052V109H462.989V105.256C462.989 104.332 462.401 103.684 461.561 103.684C460.697 103.684 459.953 104.248 459.857 104.98V109H458.669V102.796H459.857V103.696C460.229 103.084 460.985 102.652 461.825 102.652Z" fill="#18181B"/>
<path d="M332.725 282.616V281.56H336.133V284.848C335.353 285.64 334.057 286.144 332.893 286.144C330.577 286.144 328.597 284.188 328.597 281.872C328.597 279.556 330.577 277.612 332.893 277.612C334.057 277.612 335.353 278.104 336.133 278.908L335.281 279.724C334.717 279.112 333.745 278.728 332.893 278.728C331.237 278.728 329.845 280.168 329.845 281.872C329.845 283.588 331.237 285.028 332.893 285.028C333.589 285.028 334.369 284.776 334.933 284.344V282.616H332.725ZM338.403 278.764C337.995 278.764 337.683 278.428 337.683 278.044C337.683 277.672 337.995 277.336 338.403 277.336C338.787 277.336 339.111 277.672 339.111 278.044C339.111 278.428 338.787 278.764 338.403 278.764ZM337.803 286V279.796H338.991V286H337.803ZM342.774 286L340.11 279.796H341.394L343.326 284.62L345.222 279.796H346.506L343.89 286H342.774ZM350.069 285.088C350.717 285.088 351.473 284.8 351.845 284.416L352.589 285.184C352.037 285.772 350.957 286.144 350.081 286.144C348.353 286.144 346.889 284.788 346.889 282.88C346.889 281.02 348.269 279.652 349.985 279.652C351.881 279.652 352.973 281.092 352.973 283.312H348.089C348.245 284.344 349.001 285.088 350.069 285.088ZM350.033 280.708C349.073 280.708 348.293 281.356 348.101 282.364H351.821C351.689 281.404 351.101 280.708 350.033 280.708ZM360.688 284.884L361.12 285.7C360.784 285.976 360.328 286.144 359.884 286.144C358.924 286.144 358.252 285.448 358.252 284.452V280.804H357.316V279.796H358.252V278.092H359.416V279.796H360.88V280.804H359.416V284.368C359.416 284.8 359.704 285.112 360.052 285.112C360.316 285.112 360.556 285.016 360.688 284.884ZM365.271 286.144C363.495 286.144 361.995 284.656 361.995 282.892C361.995 281.128 363.495 279.652 365.271 279.652C367.035 279.652 368.523 281.128 368.523 282.892C368.523 284.656 367.035 286.144 365.271 286.144ZM365.271 285.112C366.387 285.112 367.335 284.104 367.335 282.892C367.335 281.692 366.387 280.684 365.271 280.684C364.131 280.684 363.183 281.692 363.183 282.892C363.183 284.104 364.131 285.112 365.271 285.112ZM375.553 279.796L372.877 282.604L375.433 286H374.017L372.073 283.396L371.077 284.404V286H369.901V277.612H371.077V282.964L374.113 279.796H375.553ZM379.378 285.088C380.026 285.088 380.782 284.8 381.154 284.416L381.898 285.184C381.346 285.772 380.266 286.144 379.39 286.144C377.662 286.144 376.198 284.788 376.198 282.88C376.198 281.02 377.578 279.652 379.294 279.652C381.19 279.652 382.282 281.092 382.282 283.312H377.398C377.554 284.344 378.31 285.088 379.378 285.088ZM379.342 280.708C378.382 280.708 377.602 281.356 377.41 282.364H381.13C380.998 281.404 380.41 280.708 379.342 280.708ZM386.815 279.652C388.183 279.652 389.143 280.648 389.143 282.052V286H387.979V282.256C387.979 281.332 387.391 280.684 386.551 280.684C385.687 280.684 384.943 281.248 384.847 281.98V286H383.659V279.796H384.847V280.696C385.219 280.084 385.975 279.652 386.815 279.652Z" fill="#18181B"/>
<path d="M154.798 180L154.078 178.32H149.782L149.062 180H147.718L151.258 171.756H152.602L156.142 180H154.798ZM150.25 177.228H153.61L151.93 173.316L150.25 177.228ZM159.561 180.144C158.649 180.144 157.653 179.82 156.909 179.22L157.473 178.368C158.133 178.848 158.841 179.124 159.573 179.124C160.269 179.124 160.749 178.8 160.749 178.32C160.749 177.744 160.113 177.564 159.345 177.348C157.917 176.952 157.209 176.544 157.209 175.536C157.197 174.396 158.145 173.652 159.465 173.652C160.269 173.652 161.085 173.928 161.757 174.372L161.229 175.248C160.629 174.876 160.005 174.672 159.465 174.672C158.853 174.672 158.373 174.936 158.373 175.404C158.373 175.884 158.757 176.028 159.801 176.352C160.821 176.652 161.913 176.988 161.913 178.224C161.913 179.4 160.917 180.144 159.561 180.144ZM168.934 173.796L166.258 176.604L168.814 180H167.398L165.454 177.396L164.458 178.404V180H163.282V171.612H164.458V176.964L167.494 173.796H168.934ZM174.98 173.112V173.796H176.444V174.804H174.98V180H173.816V174.804H172.88V173.796H173.816V173.052C173.816 172.056 174.488 171.36 175.448 171.36C175.892 171.36 176.348 171.528 176.684 171.804L176.252 172.596C176.12 172.464 175.88 172.368 175.616 172.368C175.268 172.368 174.98 172.68 174.98 173.112ZM180.613 180.144C178.837 180.144 177.337 178.656 177.337 176.892C177.337 175.128 178.837 173.652 180.613 173.652C182.377 173.652 183.865 175.128 183.865 176.892C183.865 178.656 182.377 180.144 180.613 180.144ZM180.613 179.112C181.729 179.112 182.677 178.104 182.677 176.892C182.677 175.692 181.729 174.684 180.613 174.684C179.473 174.684 178.525 175.692 178.525 176.892C178.525 178.104 179.473 179.112 180.613 179.112ZM186.503 174.984C186.899 174.168 187.739 173.652 188.807 173.652V174.684C187.523 174.684 186.611 175.392 186.503 176.472V180H185.315V173.796H186.503V174.984ZM196.303 178.884L196.735 179.7C196.399 179.976 195.943 180.144 195.499 180.144C194.539 180.144 193.867 179.448 193.867 178.452V174.804H192.931V173.796H193.867V172.092H195.031V173.796H196.495V174.804H195.031V178.368C195.031 178.8 195.319 179.112 195.667 179.112C195.931 179.112 196.171 179.016 196.303 178.884ZM200.886 180.144C199.11 180.144 197.61 178.656 197.61 176.892C197.61 175.128 199.11 173.652 200.886 173.652C202.65 173.652 204.138 175.128 204.138 176.892C204.138 178.656 202.65 180.144 200.886 180.144ZM200.886 179.112C202.002 179.112 202.95 178.104 202.95 176.892C202.95 175.692 202.002 174.684 200.886 174.684C199.746 174.684 198.798 175.692 198.798 176.892C198.798 178.104 199.746 179.112 200.886 179.112ZM211.168 173.796L208.492 176.604L211.048 180H209.632L207.688 177.396L206.692 178.404V180H205.516V171.612H206.692V176.964L209.728 173.796H211.168ZM214.993 179.088C215.641 179.088 216.397 178.8 216.769 178.416L217.513 179.184C216.961 179.772 215.881 180.144 215.005 180.144C213.277 180.144 211.813 178.788 211.813 176.88C211.813 175.02 213.193 173.652 214.909 173.652C216.805 173.652 217.897 175.092 217.897 177.312H213.013C213.169 178.344 213.925 179.088 214.993 179.088ZM214.957 174.708C213.997 174.708 213.217 175.356 213.025 176.364H216.745C216.613 175.404 216.025 174.708 214.957 174.708ZM222.43 173.652C223.798 173.652 224.758 174.648 224.758 176.052V180H223.594V176.256C223.594 175.332 223.006 174.684 222.166 174.684C221.302 174.684 220.558 175.248 220.462 175.98V180H219.274V173.796H220.462V174.696C220.834 174.084 221.59 173.652 222.43 173.652Z" fill="#18181B"/>
<circle cx="241.5" cy="175.5" r="11.5" fill="#4C7C2C"/>
<path d="M240.524 180V173.784L239.12 174.66L238.412 173.412L240.884 171.756H242.3V180H240.524Z" fill="white"/>
<circle cx="312.5" cy="281.5" r="11.5" fill="#4C7C2C"/>
<path d="M311.75 286.156C310.262 286.156 309.134 285.568 308.438 284.764L309.482 283.588C310.058 284.212 310.838 284.56 311.666 284.56C312.578 284.56 313.106 284.14 313.106 283.552C313.106 282.916 312.614 282.592 311.498 282.604H310.55V281.092L311.498 281.104C312.398 281.104 312.938 280.768 312.938 280.18C312.938 279.58 312.374 279.196 311.558 279.196C310.778 279.196 310.166 279.58 309.614 280.156L308.594 279.076C309.278 278.248 310.262 277.612 311.726 277.612C313.586 277.612 314.75 278.56 314.75 279.868C314.75 280.816 314.102 281.5 313.202 281.764C314.102 281.968 314.93 282.604 314.93 283.696C314.93 285.124 313.67 286.156 311.75 286.156Z" fill="white"/>
<rect x="188.5" y="83.5" width="178" height="71" rx="14.5" fill="white" stroke="#18181B" stroke-width="3"/>
<path d="M258.679 113.216C255.133 113.216 252.109 110.282 252.109 106.808C252.109 103.334 255.133 100.418 258.679 100.418C260.551 100.418 262.279 101.21 263.485 102.488L261.559 104.216C260.839 103.388 259.813 102.83 258.679 102.83C256.609 102.83 254.845 104.666 254.845 106.808C254.845 108.968 256.609 110.804 258.679 110.804C259.813 110.804 260.839 110.246 261.559 109.418L263.485 111.146C262.279 112.406 260.551 113.216 258.679 113.216ZM265.056 113V100.418H267.684V113H265.056ZM271.292 102.416C270.482 102.416 269.852 101.768 269.852 100.976C269.852 100.238 270.482 99.572 271.292 99.572C272.066 99.572 272.696 100.238 272.696 100.976C272.696 101.768 272.066 102.416 271.292 102.416ZM269.96 113V103.694H272.588V113H269.96ZM279.274 110.894C280.012 110.894 280.912 110.552 281.416 110.066L283.09 111.776C282.262 112.64 280.66 113.216 279.292 113.216C276.52 113.216 274.36 111.182 274.36 108.32C274.36 105.512 276.43 103.478 279.148 103.478C282.064 103.478 283.774 105.692 283.774 109.202H277.06C277.366 110.21 278.176 110.894 279.274 110.894ZM279.256 105.8C278.266 105.8 277.438 106.376 277.096 107.312H281.254C281.002 106.394 280.318 105.8 279.256 105.8ZM290.934 103.478C292.95 103.478 294.39 104.972 294.39 107.078V113H291.852V107.636C291.852 106.484 291.132 105.692 290.088 105.692C288.99 105.692 288.144 106.484 288.144 107.492L288.126 107.438V113H285.498V103.694H288.126V104.864C288.684 104.018 289.728 103.478 290.934 103.478ZM301.505 110.696L302.135 112.406C301.595 112.892 300.749 113.216 299.993 113.216C298.355 113.216 297.203 112.046 297.203 110.372V105.818H295.925V103.694H297.203V101.138H299.723V103.694H301.739V105.818H299.723V109.958C299.723 110.57 300.119 111.002 300.605 111.002C300.965 111.002 301.325 110.876 301.505 110.696ZM260.828 137.72C258.684 135.928 257.484 133.512 257.484 130.76C257.484 127.992 258.684 125.592 260.828 123.8L261.468 124.472C259.724 126.264 258.764 128.136 258.764 130.76C258.764 133.368 259.724 135.256 261.468 137.032L260.828 137.72ZM266.787 126.536C269.043 126.536 270.147 127.96 270.147 129.96V135H268.947V133.704C268.355 134.68 267.123 135.192 266.035 135.192C264.291 135.192 263.011 134.184 263.011 132.552C263.011 130.904 264.483 129.8 266.259 129.8C267.155 129.8 268.099 129.992 268.947 130.264V129.96C268.947 128.84 268.499 127.56 266.707 127.56C265.875 127.56 265.043 127.928 264.291 128.312L263.811 127.336C264.995 126.744 265.987 126.536 266.787 126.536ZM266.243 134.136C267.331 134.136 268.627 133.576 268.947 132.408V131.144C268.195 130.936 267.347 130.808 266.451 130.808C265.219 130.808 264.179 131.512 264.179 132.504C264.179 133.528 265.075 134.136 266.243 134.136ZM276.919 126.536C279.095 126.536 280.727 128.328 280.727 130.856C280.727 133.4 279.095 135.192 276.919 135.192C275.591 135.192 274.535 134.536 273.911 133.448V137.752H272.711V126.728H273.911V128.28C274.535 127.192 275.591 126.536 276.919 126.536ZM276.695 134.12C278.311 134.12 279.463 132.76 279.463 130.856C279.463 128.952 278.311 127.608 276.695 127.608C275.063 127.608 273.911 128.952 273.911 130.856C273.911 132.76 275.063 134.12 276.695 134.12ZM287.122 126.536C289.298 126.536 290.93 128.328 290.93 130.856C290.93 133.4 289.298 135.192 287.122 135.192C285.794 135.192 284.738 134.536 284.114 133.448V137.752H282.914V126.728H284.114V128.28C284.738 127.192 285.794 126.536 287.122 126.536ZM286.898 134.12C288.514 134.12 289.666 132.76 289.666 130.856C289.666 128.952 288.514 127.608 286.898 127.608C285.266 127.608 284.114 128.952 284.114 130.856C284.114 132.76 285.266 134.12 286.898 134.12ZM293.165 137.72L292.525 137.032C294.269 135.256 295.229 133.368 295.229 130.76C295.229 128.136 294.269 126.264 292.525 124.472L293.165 123.8C295.309 125.592 296.509 127.992 296.509 130.76C296.509 133.512 295.309 135.928 293.165 137.72Z" fill="#18181B"/>
<rect x="512.5" y="83.5" width="178" height="71" rx="14.5" fill="#18181B" stroke="#18181B" stroke-width="3"/>
<path d="M571.567 113H568.543L565.717 108.986H563.755V113H561.109V100.634H566.671C569.353 100.634 571.333 102.362 571.333 104.81C571.333 106.646 570.217 108.086 568.525 108.68L571.567 113ZM563.755 103.064V106.556H566.383C567.697 106.556 568.597 105.872 568.597 104.81C568.597 103.748 567.697 103.064 566.383 103.064H563.755ZM577.628 110.894C578.366 110.894 579.266 110.552 579.77 110.066L581.444 111.776C580.616 112.64 579.014 113.216 577.646 113.216C574.874 113.216 572.714 111.182 572.714 108.32C572.714 105.512 574.784 103.478 577.502 103.478C580.418 103.478 582.128 105.692 582.128 109.202H575.414C575.72 110.21 576.53 110.894 577.628 110.894ZM577.61 105.8C576.62 105.8 575.792 106.376 575.45 107.312H579.608C579.356 106.394 578.672 105.8 577.61 105.8ZM587.398 113.216C585.904 113.216 584.32 112.712 583.204 111.812L584.338 109.994C585.166 110.588 586.21 111.038 587.452 111.038C588.154 111.038 588.658 110.75 588.658 110.336C588.658 109.76 587.974 109.58 587.02 109.328C585.112 108.86 583.636 108.338 583.618 106.502C583.6 104.738 585.058 103.478 587.254 103.478C588.586 103.478 589.9 103.946 590.926 104.63L589.864 106.502C589.018 105.98 588.046 105.674 587.254 105.674C586.606 105.674 586.156 105.908 586.156 106.232C586.156 106.736 586.534 106.88 587.794 107.222C589.396 107.636 591.178 108.176 591.178 110.21C591.178 112.046 589.684 113.216 587.398 113.216ZM597.513 113.216C594.741 113.216 592.419 110.984 592.419 108.338C592.419 105.692 594.741 103.478 597.513 103.478C600.267 103.478 602.571 105.692 602.571 108.338C602.571 110.984 600.267 113.216 597.513 113.216ZM597.513 111.002C598.899 111.002 600.069 109.778 600.069 108.338C600.069 106.898 598.899 105.692 597.513 105.692C596.109 105.692 594.939 106.898 594.939 108.338C594.939 109.778 596.109 111.002 597.513 111.002ZM610.523 103.694H613.151V113H610.523V111.83C609.965 112.676 608.921 113.216 607.715 113.216C605.699 113.216 604.259 111.722 604.259 109.616V103.694H606.797V109.058C606.797 110.21 607.517 111.002 608.561 111.002C609.659 111.002 610.505 110.21 610.505 109.202L610.523 109.256V103.694ZM618.034 105.422C618.646 104.216 619.798 103.478 621.22 103.478V105.692C619.276 105.692 618.034 106.808 618.034 108.554V113H615.406V103.694H618.034V105.422ZM627.29 113.216C624.536 113.216 622.214 110.984 622.214 108.338C622.214 105.692 624.554 103.478 627.308 103.478C628.82 103.478 630.062 104.09 630.962 105.062L629.216 106.556C628.748 106.034 628.01 105.692 627.29 105.692C625.922 105.692 624.77 106.898 624.77 108.32C624.77 109.778 625.922 111.002 627.308 111.002C628.028 111.002 628.784 110.642 629.27 110.102L631.016 111.578C630.098 112.586 628.838 113.216 627.29 113.216ZM636.989 110.894C637.727 110.894 638.627 110.552 639.131 110.066L640.805 111.776C639.977 112.64 638.375 113.216 637.007 113.216C634.235 113.216 632.075 111.182 632.075 108.32C632.075 105.512 634.145 103.478 636.863 103.478C639.779 103.478 641.489 105.692 641.489 109.202H634.775C635.081 110.21 635.891 110.894 636.989 110.894ZM636.971 105.8C635.981 105.8 635.153 106.376 634.811 107.312H638.969C638.717 106.394 638.033 105.8 636.971 105.8ZM562.609 137.72C560.465 135.928 559.265 133.512 559.265 130.76C559.265 127.992 560.465 125.592 562.609 123.8L563.249 124.472C561.505 126.264 560.545 128.136 560.545 130.76C560.545 133.368 561.505 135.256 563.249 137.032L562.609 137.72ZM566.44 137.88C565.96 137.88 565.512 137.784 565.128 137.608L565.416 136.584C565.704 136.728 566.04 136.792 566.392 136.792C566.92 136.792 567.272 136.616 567.592 136.056L568.072 135.032L564.472 126.728H565.8L568.696 133.608L571.432 126.728H572.728L568.952 135.928C568.376 137.336 567.576 137.864 566.44 137.88ZM578.22 135.192C575.9 135.192 573.932 133.208 573.932 130.856C573.932 128.504 575.9 126.536 578.22 126.536C580.54 126.536 582.492 128.504 582.492 130.856C582.492 133.208 580.54 135.192 578.22 135.192ZM578.22 134.12C579.852 134.12 581.228 132.632 581.228 130.856C581.228 129.096 579.852 127.608 578.22 127.608C576.572 127.608 575.196 129.096 575.196 130.856C575.196 132.632 576.572 134.12 578.22 134.12ZM590.298 126.728H591.498V135H590.298V133.672C589.818 134.552 588.746 135.192 587.578 135.192C585.754 135.192 584.474 133.864 584.474 131.992V126.728H585.674V131.832C585.674 133.176 586.522 134.12 587.738 134.12C589.13 134.12 590.298 133.144 590.298 131.992V126.728ZM595.255 128.344C595.751 127.24 596.935 126.536 598.455 126.536V127.608C596.583 127.608 595.255 128.76 595.255 130.376V135H594.055V126.728H595.255V128.344ZM611.219 123.816H612.419V135H611.219V133.448C610.595 134.536 609.539 135.192 608.211 135.192C606.035 135.192 604.403 133.4 604.403 130.856C604.403 128.328 606.035 126.536 608.211 126.536C609.539 126.536 610.595 127.192 611.219 128.28V123.816ZM608.435 134.12C610.067 134.12 611.219 132.76 611.219 130.856C611.219 128.952 610.067 127.608 608.435 127.608C606.819 127.608 605.667 128.952 605.667 130.856C605.667 132.76 606.819 134.12 608.435 134.12ZM618.318 126.536C620.574 126.536 621.678 127.96 621.678 129.96V135H620.478V133.704C619.886 134.68 618.654 135.192 617.566 135.192C615.822 135.192 614.542 134.184 614.542 132.552C614.542 130.904 616.014 129.8 617.79 129.8C618.686 129.8 619.63 129.992 620.478 130.264V129.96C620.478 128.84 620.03 127.56 618.238 127.56C617.406 127.56 616.574 127.928 615.822 128.312L615.342 127.336C616.526 126.744 617.518 126.536 618.318 126.536ZM617.774 134.136C618.862 134.136 620.158 133.576 620.478 132.408V131.144C619.726 130.936 618.878 130.808 617.982 130.808C616.75 130.808 615.71 131.512 615.71 132.504C615.71 133.528 616.606 134.136 617.774 134.136ZM627.762 133.784L628.354 134.664C627.922 135 627.378 135.192 626.818 135.192C625.634 135.192 624.802 134.312 624.802 133.08V127.8H623.506V126.728H624.802V124.456H626.002V126.728H628.034V127.8H626.002V133.08C626.002 133.688 626.418 134.12 626.898 134.12C627.266 134.12 627.586 133.976 627.762 133.784ZM633.412 126.536C635.668 126.536 636.772 127.96 636.772 129.96V135H635.572V133.704C634.98 134.68 633.748 135.192 632.66 135.192C630.916 135.192 629.636 134.184 629.636 132.552C629.636 130.904 631.108 129.8 632.884 129.8C633.78 129.8 634.724 129.992 635.572 130.264V129.96C635.572 128.84 635.124 127.56 633.332 127.56C632.5 127.56 631.668 127.928 630.916 128.312L630.436 127.336C631.62 126.744 632.612 126.536 633.412 126.536ZM632.868 134.136C633.956 134.136 635.252 133.576 635.572 132.408V131.144C634.82 130.936 633.972 130.808 633.076 130.808C631.844 130.808 630.804 131.512 630.804 132.504C630.804 133.528 631.7 134.136 632.868 134.136ZM639.384 137.72L638.744 137.032C640.488 135.256 641.448 133.368 641.448 130.76C641.448 128.136 640.488 126.264 638.744 124.472L639.384 123.8C641.528 125.592 642.728 127.992 642.728 130.76C642.728 133.512 641.528 135.928 639.384 137.72Z" fill="white"/>
<rect x="188.5" y="301.5" width="178" height="71" rx="14.5" fill="#18181B" stroke="#18181B" stroke-width="3"/>
<path d="M261.605 331L260.813 329.056H255.305L254.513 331H251.543L256.583 318.634H259.553L264.593 331H261.605ZM256.223 326.806H259.895L258.059 322.288L256.223 326.806ZM272.152 321.694H274.78V331H272.152V329.83C271.594 330.676 270.55 331.216 269.344 331.216C267.328 331.216 265.888 329.722 265.888 327.616V321.694H268.426V327.058C268.426 328.21 269.146 329.002 270.19 329.002C271.288 329.002 272.134 328.21 272.134 327.202L272.152 327.256V321.694ZM281.931 328.696L282.561 330.406C282.021 330.892 281.175 331.216 280.419 331.216C278.781 331.216 277.629 330.046 277.629 328.372V323.818H276.351V321.694H277.629V319.138H280.149V321.694H282.165V323.818H280.149V327.958C280.149 328.57 280.545 329.002 281.031 329.002C281.391 329.002 281.751 328.876 281.931 328.696ZM289.589 321.478C291.605 321.478 293.045 322.972 293.045 325.078V331H290.507V325.636C290.507 324.484 289.787 323.692 288.743 323.692C287.645 323.692 286.799 324.484 286.799 325.492V331H284.171V318.418H286.799V322.828C287.375 322.018 288.401 321.478 289.589 321.478ZM294.849 331V329.146L299.529 323.926H294.975V321.694H302.949V323.548L298.269 328.768H302.985V331H294.849ZM261.328 355.72C259.184 353.928 257.984 351.512 257.984 348.76C257.984 345.992 259.184 343.592 261.328 341.8L261.968 342.472C260.224 344.264 259.264 346.136 259.264 348.76C259.264 351.368 260.224 353.256 261.968 355.032L261.328 355.72ZM267.287 344.536C269.543 344.536 270.647 345.96 270.647 347.96V353H269.447V351.704C268.855 352.68 267.623 353.192 266.535 353.192C264.791 353.192 263.511 352.184 263.511 350.552C263.511 348.904 264.983 347.8 266.759 347.8C267.655 347.8 268.599 347.992 269.447 348.264V347.96C269.447 346.84 268.999 345.56 267.207 345.56C266.375 345.56 265.543 345.928 264.791 346.312L264.311 345.336C265.495 344.744 266.487 344.536 267.287 344.536ZM266.743 352.136C267.831 352.136 269.127 351.576 269.447 350.408V349.144C268.695 348.936 267.847 348.808 266.951 348.808C265.719 348.808 264.679 349.512 264.679 350.504C264.679 351.528 265.575 352.136 266.743 352.136ZM277.419 344.536C279.595 344.536 281.227 346.328 281.227 348.856C281.227 351.4 279.595 353.192 277.419 353.192C276.091 353.192 275.035 352.536 274.411 351.448V355.752H273.211V344.728H274.411V346.28C275.035 345.192 276.091 344.536 277.419 344.536ZM277.195 352.12C278.811 352.12 279.963 350.76 279.963 348.856C279.963 346.952 278.811 345.608 277.195 345.608C275.563 345.608 274.411 346.952 274.411 348.856C274.411 350.76 275.563 352.12 277.195 352.12ZM287.622 344.536C289.798 344.536 291.43 346.328 291.43 348.856C291.43 351.4 289.798 353.192 287.622 353.192C286.294 353.192 285.238 352.536 284.614 351.448V355.752H283.414V344.728H284.614V346.28C285.238 345.192 286.294 344.536 287.622 344.536ZM287.398 352.12C289.014 352.12 290.166 350.76 290.166 348.856C290.166 346.952 289.014 345.608 287.398 345.608C285.766 345.608 284.614 346.952 284.614 348.856C284.614 350.76 285.766 352.12 287.398 352.12ZM293.665 355.72L293.025 355.032C294.769 353.256 295.729 351.368 295.729 348.76C295.729 346.136 294.769 344.264 293.025 342.472L293.665 341.8C295.809 343.592 297.009 345.992 297.009 348.76C297.009 351.512 295.809 353.928 293.665 355.72Z" fill="white"/>
<circle cx="91" cy="119" r="43" fill="#52525B"/>
<path d="M79.4933 124.192C76.5653 124.192 74.5173 122.144 74.5173 119.248V113.008H76.8693V119.152C76.8693 120.848 77.9573 122.048 79.4933 122.048C81.0133 122.048 82.1013 120.848 82.1013 119.152V113.008H84.4693V119.248C84.4693 122.144 82.4053 124.192 79.4933 124.192ZM89.6514 124.192C88.3234 124.192 86.9154 123.744 85.9234 122.944L86.9314 121.328C87.6674 121.856 88.5954 122.256 89.6994 122.256C90.3234 122.256 90.7714 122 90.7714 121.632C90.7714 121.12 90.1634 120.96 89.3154 120.736C87.6194 120.32 86.3074 119.856 86.2914 118.224C86.2754 116.656 87.5714 115.536 89.5234 115.536C90.7074 115.536 91.8754 115.952 92.7874 116.56L91.8434 118.224C91.0914 117.76 90.2274 117.488 89.5234 117.488C88.9474 117.488 88.5474 117.696 88.5474 117.984C88.5474 118.432 88.8834 118.56 90.0034 118.864C91.4274 119.232 93.0114 119.712 93.0114 121.52C93.0114 123.152 91.6834 124.192 89.6514 124.192ZM98.4827 122.128C99.1387 122.128 99.9387 121.824 100.387 121.392L101.875 122.912C101.139 123.68 99.7147 124.192 98.4987 124.192C96.0347 124.192 94.1147 122.384 94.1147 119.84C94.1147 117.344 95.9547 115.536 98.3707 115.536C100.963 115.536 102.483 117.504 102.483 120.624H96.5147C96.7867 121.52 97.5067 122.128 98.4827 122.128ZM98.4667 117.6C97.5867 117.6 96.8507 118.112 96.5467 118.944H100.243C100.019 118.128 99.4107 117.6 98.4667 117.6ZM106.399 117.264C106.943 116.192 107.967 115.536 109.231 115.536V117.504C107.503 117.504 106.399 118.496 106.399 120.048V124H104.063V115.728H106.399V117.264Z" fill="white"/>
<circle cx="383.5" cy="104.5" r="11.5" fill="#4C7C2C"/>
<path d="M383.362 109V107.32H379.342L379.174 105.952L382.99 100.768H385.138V105.832H386.23V107.32H385.138V109H383.362ZM381.034 105.832H383.362V102.64L381.034 105.832Z" fill="white"/>
<circle cx="511.5" cy="100.5" r="11.5" fill="#4C7C2C"/>
<path d="M510.679 105.156C509.299 105.156 508.255 104.652 507.487 103.884L508.531 102.636C509.143 103.224 509.899 103.608 510.691 103.608C511.615 103.608 512.191 103.056 512.191 102.348C512.191 101.628 511.603 101.148 510.703 101.148C510.079 101.148 509.551 101.352 509.107 101.688L507.919 101.208L508.039 96.756H513.499V98.352H509.671L509.623 100.176C510.031 99.888 510.559 99.672 511.231 99.672C512.695 99.672 513.955 100.608 513.955 102.288C513.955 104.04 512.647 105.156 510.679 105.156Z" fill="white"/>
<circle cx="183.5" cy="337.5" r="11.5" fill="#4C7C2C"/>
<path d="M179.861 342V340.56L182.897 338.208C183.881 337.428 184.193 336.888 184.193 336.312C184.193 335.628 183.617 335.22 182.945 335.22C182.141 335.22 181.529 335.628 180.929 336.312L179.801 335.22C180.617 334.188 181.661 333.612 182.993 333.612C184.745 333.612 186.017 334.692 186.017 336.24C186.017 337.344 185.537 338.196 184.097 339.24L182.597 340.404H186.089V342H179.861Z" fill="white"/>
</g>
<defs>
<clipPath id="clip0_421_1276">
<rect width="741" height="431" fill="white"/>
</clipPath>
</defs>
</svg>
