<svg width="743" height="431" viewBox="0 0 743 431" fill="none" xmlns="http://www.w3.org/2000/svg">
<g clip-path="url(#clip0_421_1115)">
<rect width="743" height="431" fill="white"/>
<circle cx="511.5" cy="272.5" r="364.5" fill="#FAFAFA"/>
<circle cx="57.9489" cy="215.949" r="2.94888" fill="#E4E4E7"/>
<circle cx="57.9489" cy="230.847" r="2.94888" fill="#E4E4E7"/>
<circle cx="57.9489" cy="245.744" r="2.94888" fill="#E4E4E7"/>
<circle cx="57.9489" cy="260.642" r="2.94888" fill="#E4E4E7"/>
<circle cx="57.9489" cy="275.54" r="2.94888" fill="#E4E4E7"/>
<circle cx="57.9489" cy="290.438" r="2.94888" fill="#E4E4E7"/>
<circle cx="57.9489" cy="305.335" r="2.94888" fill="#E4E4E7"/>
<circle cx="57.9489" cy="320.233" r="2.94888" fill="#E4E4E7"/>
<circle cx="57.9489" cy="335.131" r="2.94888" fill="#E4E4E7"/>
<circle cx="57.9489" cy="350.029" r="2.94888" fill="#E4E4E7"/>
<circle cx="57.9489" cy="364.927" r="2.94888" fill="#E4E4E7"/>
<circle cx="57.9489" cy="379.824" r="2.94888" fill="#E4E4E7"/>
<circle cx="72.8466" cy="215.949" r="2.94888" fill="#E4E4E7"/>
<circle cx="72.8466" cy="230.847" r="2.94888" fill="#E4E4E7"/>
<circle cx="72.8466" cy="245.744" r="2.94888" fill="#E4E4E7"/>
<circle cx="72.8466" cy="260.642" r="2.94888" fill="#E4E4E7"/>
<circle cx="72.8466" cy="275.54" r="2.94888" fill="#E4E4E7"/>
<circle cx="72.8466" cy="290.438" r="2.94888" fill="#E4E4E7"/>
<circle cx="72.8466" cy="305.335" r="2.94888" fill="#E4E4E7"/>
<circle cx="72.8466" cy="320.233" r="2.94888" fill="#E4E4E7"/>
<circle cx="72.8466" cy="335.131" r="2.94888" fill="#E4E4E7"/>
<circle cx="72.8466" cy="350.029" r="2.94888" fill="#E4E4E7"/>
<circle cx="72.8466" cy="364.927" r="2.94888" fill="#E4E4E7"/>
<circle cx="72.8466" cy="379.824" r="2.94888" fill="#E4E4E7"/>
<circle cx="87.7444" cy="215.949" r="2.94888" fill="#E4E4E7"/>
<circle cx="87.7444" cy="230.847" r="2.94888" fill="#E4E4E7"/>
<circle cx="87.7444" cy="245.744" r="2.94888" fill="#E4E4E7"/>
<circle cx="87.7444" cy="260.642" r="2.94888" fill="#E4E4E7"/>
<circle cx="87.7444" cy="275.54" r="2.94888" fill="#E4E4E7"/>
<circle cx="87.7444" cy="290.438" r="2.94888" fill="#E4E4E7"/>
<circle cx="87.7444" cy="305.335" r="2.94888" fill="#E4E4E7"/>
<circle cx="87.7444" cy="320.233" r="2.94888" fill="#E4E4E7"/>
<circle cx="87.7444" cy="335.131" r="2.94888" fill="#E4E4E7"/>
<circle cx="87.7444" cy="350.029" r="2.94888" fill="#E4E4E7"/>
<circle cx="87.7444" cy="364.927" r="2.94888" fill="#E4E4E7"/>
<circle cx="87.7444" cy="379.824" r="2.94888" fill="#E4E4E7"/>
<circle cx="102.642" cy="215.949" r="2.94888" fill="#E4E4E7"/>
<circle cx="102.642" cy="230.847" r="2.94888" fill="#E4E4E7"/>
<circle cx="102.642" cy="245.744" r="2.94888" fill="#E4E4E7"/>
<circle cx="102.642" cy="260.642" r="2.94888" fill="#E4E4E7"/>
<circle cx="102.642" cy="275.54" r="2.94888" fill="#E4E4E7"/>
<circle cx="102.642" cy="290.438" r="2.94888" fill="#E4E4E7"/>
<circle cx="102.642" cy="305.335" r="2.94888" fill="#E4E4E7"/>
<circle cx="102.642" cy="320.233" r="2.94888" fill="#E4E4E7"/>
<circle cx="102.642" cy="335.131" r="2.94888" fill="#E4E4E7"/>
<circle cx="102.642" cy="350.029" r="2.94888" fill="#E4E4E7"/>
<circle cx="102.642" cy="364.927" r="2.94888" fill="#E4E4E7"/>
<circle cx="102.642" cy="379.824" r="2.94888" fill="#E4E4E7"/>
<circle cx="117.54" cy="215.949" r="2.94888" fill="#E4E4E7"/>
<circle cx="117.54" cy="230.847" r="2.94888" fill="#E4E4E7"/>
<circle cx="117.54" cy="245.744" r="2.94888" fill="#E4E4E7"/>
<circle cx="117.54" cy="260.642" r="2.94888" fill="#E4E4E7"/>
<circle cx="117.54" cy="275.54" r="2.94888" fill="#E4E4E7"/>
<circle cx="117.54" cy="290.438" r="2.94888" fill="#E4E4E7"/>
<circle cx="117.54" cy="305.335" r="2.94888" fill="#E4E4E7"/>
<circle cx="117.54" cy="320.233" r="2.94888" fill="#E4E4E7"/>
<circle cx="117.54" cy="335.131" r="2.94888" fill="#E4E4E7"/>
<circle cx="117.54" cy="350.029" r="2.94888" fill="#E4E4E7"/>
<circle cx="117.54" cy="364.927" r="2.94888" fill="#E4E4E7"/>
<circle cx="117.54" cy="379.824" r="2.94888" fill="#E4E4E7"/>
<circle cx="132.438" cy="215.949" r="2.94888" fill="#E4E4E7"/>
<circle cx="132.438" cy="230.847" r="2.94888" fill="#E4E4E7"/>
<circle cx="132.438" cy="245.744" r="2.94888" fill="#E4E4E7"/>
<circle cx="132.438" cy="260.642" r="2.94888" fill="#E4E4E7"/>
<circle cx="132.438" cy="275.54" r="2.94888" fill="#E4E4E7"/>
<circle cx="132.438" cy="290.438" r="2.94888" fill="#E4E4E7"/>
<circle cx="132.438" cy="305.335" r="2.94888" fill="#E4E4E7"/>
<circle cx="132.438" cy="320.233" r="2.94888" fill="#E4E4E7"/>
<circle cx="132.438" cy="335.131" r="2.94888" fill="#E4E4E7"/>
<circle cx="132.438" cy="350.029" r="2.94888" fill="#E4E4E7"/>
<circle cx="132.438" cy="364.927" r="2.94888" fill="#E4E4E7"/>
<circle cx="132.438" cy="379.824" r="2.94888" fill="#E4E4E7"/>
<circle cx="147.335" cy="215.949" r="2.94888" fill="#E4E4E7"/>
<circle cx="147.335" cy="230.847" r="2.94888" fill="#E4E4E7"/>
<circle cx="147.335" cy="245.744" r="2.94888" fill="#E4E4E7"/>
<circle cx="147.335" cy="260.642" r="2.94888" fill="#E4E4E7"/>
<circle cx="147.335" cy="275.54" r="2.94888" fill="#E4E4E7"/>
<circle cx="147.335" cy="290.438" r="2.94888" fill="#E4E4E7"/>
<circle cx="147.335" cy="305.335" r="2.94888" fill="#E4E4E7"/>
<circle cx="147.335" cy="320.233" r="2.94888" fill="#E4E4E7"/>
<circle cx="147.335" cy="335.131" r="2.94888" fill="#E4E4E7"/>
<circle cx="147.335" cy="350.029" r="2.94888" fill="#E4E4E7"/>
<circle cx="147.335" cy="364.927" r="2.94888" fill="#E4E4E7"/>
<circle cx="147.335" cy="379.824" r="2.94888" fill="#E4E4E7"/>
<circle cx="162.233" cy="215.949" r="2.94888" fill="#E4E4E7"/>
<circle cx="162.233" cy="230.847" r="2.94888" fill="#E4E4E7"/>
<circle cx="162.233" cy="245.744" r="2.94888" fill="#E4E4E7"/>
<circle cx="162.233" cy="260.642" r="2.94888" fill="#E4E4E7"/>
<circle cx="162.233" cy="275.54" r="2.94888" fill="#E4E4E7"/>
<circle cx="162.233" cy="290.438" r="2.94888" fill="#E4E4E7"/>
<circle cx="162.233" cy="305.335" r="2.94888" fill="#E4E4E7"/>
<circle cx="162.233" cy="320.233" r="2.94888" fill="#E4E4E7"/>
<circle cx="162.233" cy="335.131" r="2.94888" fill="#E4E4E7"/>
<circle cx="162.233" cy="350.029" r="2.94888" fill="#E4E4E7"/>
<circle cx="162.233" cy="364.927" r="2.94888" fill="#E4E4E7"/>
<circle cx="162.233" cy="379.824" r="2.94888" fill="#E4E4E7"/>
<circle cx="177.131" cy="215.949" r="2.94888" fill="#E4E4E7"/>
<circle cx="177.131" cy="230.847" r="2.94888" fill="#E4E4E7"/>
<circle cx="177.131" cy="245.744" r="2.94888" fill="#E4E4E7"/>
<circle cx="177.131" cy="260.642" r="2.94888" fill="#E4E4E7"/>
<circle cx="177.131" cy="275.54" r="2.94888" fill="#E4E4E7"/>
<circle cx="177.131" cy="290.438" r="2.94888" fill="#E4E4E7"/>
<circle cx="177.131" cy="305.335" r="2.94888" fill="#E4E4E7"/>
<circle cx="177.131" cy="320.233" r="2.94888" fill="#E4E4E7"/>
<circle cx="177.131" cy="335.131" r="2.94888" fill="#E4E4E7"/>
<circle cx="177.131" cy="350.029" r="2.94888" fill="#E4E4E7"/>
<circle cx="177.131" cy="364.927" r="2.94888" fill="#E4E4E7"/>
<circle cx="177.131" cy="379.824" r="2.94888" fill="#E4E4E7"/>
<circle cx="192.029" cy="215.949" r="2.94888" fill="#E4E4E7"/>
<circle cx="192.029" cy="230.847" r="2.94888" fill="#E4E4E7"/>
<circle cx="192.029" cy="245.744" r="2.94888" fill="#E4E4E7"/>
<circle cx="192.029" cy="260.642" r="2.94888" fill="#E4E4E7"/>
<circle cx="192.029" cy="275.54" r="2.94888" fill="#E4E4E7"/>
<circle cx="192.029" cy="290.438" r="2.94888" fill="#E4E4E7"/>
<circle cx="192.029" cy="305.335" r="2.94888" fill="#E4E4E7"/>
<circle cx="192.029" cy="320.233" r="2.94888" fill="#E4E4E7"/>
<circle cx="192.029" cy="335.131" r="2.94888" fill="#E4E4E7"/>
<circle cx="192.029" cy="350.029" r="2.94888" fill="#E4E4E7"/>
<circle cx="192.029" cy="364.927" r="2.94888" fill="#E4E4E7"/>
<circle cx="192.029" cy="379.824" r="2.94888" fill="#E4E4E7"/>
<circle cx="206.927" cy="215.949" r="2.94888" fill="#E4E4E7"/>
<circle cx="206.927" cy="230.847" r="2.94888" fill="#E4E4E7"/>
<circle cx="206.927" cy="245.744" r="2.94888" fill="#E4E4E7"/>
<circle cx="206.927" cy="260.642" r="2.94888" fill="#E4E4E7"/>
<circle cx="206.927" cy="275.54" r="2.94888" fill="#E4E4E7"/>
<circle cx="206.927" cy="290.438" r="2.94888" fill="#E4E4E7"/>
<circle cx="206.927" cy="305.335" r="2.94888" fill="#E4E4E7"/>
<circle cx="206.927" cy="320.233" r="2.94888" fill="#E4E4E7"/>
<circle cx="206.927" cy="335.131" r="2.94888" fill="#E4E4E7"/>
<circle cx="206.927" cy="350.029" r="2.94888" fill="#E4E4E7"/>
<circle cx="206.927" cy="364.927" r="2.94888" fill="#E4E4E7"/>
<circle cx="206.927" cy="379.824" r="2.94888" fill="#E4E4E7"/>
<circle cx="221.824" cy="215.949" r="2.94888" fill="#E4E4E7"/>
<circle cx="221.824" cy="230.847" r="2.94888" fill="#E4E4E7"/>
<circle cx="221.824" cy="245.744" r="2.94888" fill="#E4E4E7"/>
<circle cx="221.824" cy="260.642" r="2.94888" fill="#E4E4E7"/>
<circle cx="221.824" cy="275.54" r="2.94888" fill="#E4E4E7"/>
<circle cx="221.824" cy="290.438" r="2.94888" fill="#E4E4E7"/>
<circle cx="221.824" cy="305.335" r="2.94888" fill="#E4E4E7"/>
<circle cx="221.824" cy="320.233" r="2.94888" fill="#E4E4E7"/>
<circle cx="221.824" cy="335.131" r="2.94888" fill="#E4E4E7"/>
<circle cx="221.824" cy="350.029" r="2.94888" fill="#E4E4E7"/>
<circle cx="221.824" cy="364.927" r="2.94888" fill="#E4E4E7"/>
<circle cx="221.824" cy="379.824" r="2.94888" fill="#E4E4E7"/>
<rect x="137" y="95" width="470" height="240" rx="4" fill="#E4E4E7"/>
<path d="M276.408 127.216C274.266 127.216 272.358 126.496 270.918 125.164L272.448 123.346C273.618 124.354 274.95 124.966 276.516 124.966C277.848 124.966 278.532 124.354 278.532 123.58C278.532 122.698 277.812 122.428 275.922 121.996C273.312 121.402 271.458 120.664 271.458 118.27C271.458 115.984 273.33 114.418 276.03 114.418C278.046 114.418 279.612 115.048 280.872 116.128L279.486 118.036C278.388 117.154 277.146 116.668 275.958 116.668C274.824 116.668 274.14 117.262 274.14 118C274.14 118.9 274.878 119.188 276.786 119.62C279.45 120.214 281.214 121.006 281.214 123.292C281.214 125.65 279.432 127.216 276.408 127.216ZM287.439 124.894C288.177 124.894 289.077 124.552 289.581 124.066L291.255 125.776C290.427 126.64 288.825 127.216 287.457 127.216C284.685 127.216 282.525 125.182 282.525 122.32C282.525 119.512 284.595 117.478 287.313 117.478C290.229 117.478 291.939 119.692 291.939 123.202H285.225C285.531 124.21 286.341 124.894 287.439 124.894ZM287.421 119.8C286.431 119.8 285.603 120.376 285.261 121.312H289.419C289.167 120.394 288.483 119.8 287.421 119.8ZM298.27 127.216C295.516 127.216 293.194 124.984 293.194 122.338C293.194 119.692 295.534 117.478 298.288 117.478C299.8 117.478 301.042 118.09 301.942 119.062L300.196 120.556C299.728 120.034 298.99 119.692 298.27 119.692C296.902 119.692 295.75 120.898 295.75 122.32C295.75 123.778 296.902 125.002 298.288 125.002C299.008 125.002 299.764 124.642 300.25 124.102L301.996 125.578C301.078 126.586 299.818 127.216 298.27 127.216ZM309.752 117.694H312.38V127H309.752V125.83C309.194 126.676 308.15 127.216 306.944 127.216C304.928 127.216 303.488 125.722 303.488 123.616V117.694H306.026V123.058C306.026 124.21 306.746 125.002 307.79 125.002C308.888 125.002 309.734 124.21 309.734 123.202L309.752 123.256V117.694ZM317.262 119.422C317.874 118.216 319.026 117.478 320.448 117.478V119.692C318.504 119.692 317.262 120.808 317.262 122.554V127H314.634V117.694H317.262V119.422ZM323.279 116.416C322.469 116.416 321.839 115.768 321.839 114.976C321.839 114.238 322.469 113.572 323.279 113.572C324.053 113.572 324.683 114.238 324.683 114.976C324.683 115.768 324.053 116.416 323.279 116.416ZM321.947 127V117.694H324.575V127H321.947ZM331.765 124.696L332.395 126.406C331.855 126.892 331.009 127.216 330.253 127.216C328.615 127.216 327.463 126.046 327.463 124.372V119.818H326.185V117.694H327.463V115.138H329.983V117.694H331.999V119.818H329.983V123.958C329.983 124.57 330.379 125.002 330.865 125.002C331.225 125.002 331.585 124.876 331.765 124.696ZM336.165 130.24C335.391 130.24 334.455 130.006 333.825 129.664L334.383 127.864C334.833 128.116 335.301 128.278 335.607 128.278C336.111 128.278 336.507 128.116 336.705 127.774L337.029 127.09L333.159 117.694H335.877L338.325 124.228L340.647 117.694H343.329L339.513 127.468C338.811 129.286 337.623 130.24 336.165 130.24ZM351.007 127.216C347.461 127.216 344.437 124.282 344.437 120.808C344.437 117.334 347.461 114.418 351.007 114.418C352.879 114.418 354.607 115.21 355.813 116.488L353.887 118.216C353.167 117.388 352.141 116.83 351.007 116.83C348.937 116.83 347.173 118.666 347.173 120.808C347.173 122.968 348.937 124.804 351.007 124.804C352.141 124.804 353.167 124.246 353.887 123.418L355.813 125.146C354.607 126.406 352.879 127.216 351.007 127.216ZM361.956 127.216C359.184 127.216 356.862 124.984 356.862 122.338C356.862 119.692 359.184 117.478 361.956 117.478C364.71 117.478 367.014 119.692 367.014 122.338C367.014 124.984 364.71 127.216 361.956 127.216ZM361.956 125.002C363.342 125.002 364.512 123.778 364.512 122.338C364.512 120.898 363.342 119.692 361.956 119.692C360.552 119.692 359.382 120.898 359.382 122.338C359.382 123.778 360.552 125.002 361.956 125.002ZM374.175 117.478C376.191 117.478 377.631 118.972 377.631 121.078V127H375.093V121.636C375.093 120.484 374.373 119.692 373.329 119.692C372.231 119.692 371.385 120.484 371.385 121.492L371.367 121.438V127H368.739V117.694H371.367V118.864C371.925 118.018 372.969 117.478 374.175 117.478ZM384.745 124.696L385.375 126.406C384.835 126.892 383.989 127.216 383.233 127.216C381.595 127.216 380.443 126.046 380.443 124.372V119.818H379.165V117.694H380.443V115.138H382.963V117.694H384.979V119.818H382.963V123.958C382.963 124.57 383.359 125.002 383.845 125.002C384.205 125.002 384.565 124.876 384.745 124.696ZM391.413 124.894C392.151 124.894 393.051 124.552 393.555 124.066L395.229 125.776C394.401 126.64 392.799 127.216 391.431 127.216C388.659 127.216 386.499 125.182 386.499 122.32C386.499 119.512 388.569 117.478 391.287 117.478C394.203 117.478 395.913 119.692 395.913 123.202H389.199C389.505 124.21 390.315 124.894 391.413 124.894ZM391.395 119.8C390.405 119.8 389.577 120.376 389.235 121.312H393.393C393.141 120.394 392.457 119.8 391.395 119.8ZM406.457 127H403.631L401.615 124.192L399.581 127H396.809L400.229 122.266L396.953 117.694H399.797L401.651 120.286L403.523 117.694H406.295L403.037 122.212L406.457 127ZM412.782 124.696L413.412 126.406C412.872 126.892 412.026 127.216 411.27 127.216C409.632 127.216 408.48 126.046 408.48 124.372V119.818H407.202V117.694H408.48V115.138H411V117.694H413.016V119.818H411V123.958C411 124.57 411.396 125.002 411.882 125.002C412.242 125.002 412.602 124.876 412.782 124.696ZM423.41 114.634H426.056V127H423.41V121.888H417.776V127H415.13V114.634H417.776V119.494H423.41V114.634ZM433.007 127.216C430.235 127.216 427.913 124.984 427.913 122.338C427.913 119.692 430.235 117.478 433.007 117.478C435.761 117.478 438.065 119.692 438.065 122.338C438.065 124.984 435.761 127.216 433.007 127.216ZM433.007 125.002C434.393 125.002 435.563 123.778 435.563 122.338C435.563 120.898 434.393 119.692 433.007 119.692C431.603 119.692 430.433 120.898 430.433 122.338C430.433 123.778 431.603 125.002 433.007 125.002ZM439.843 127V114.418H442.471V127H439.843ZM451.713 114.418H454.341V127H451.713V125.668C450.975 126.64 449.895 127.216 448.581 127.216C446.097 127.216 444.297 125.2 444.297 122.338C444.297 119.494 446.097 117.478 448.581 117.478C449.895 117.478 450.975 118.054 451.713 119.026V114.418ZM449.337 125.002C450.723 125.002 451.713 123.904 451.713 122.338C451.713 120.79 450.723 119.692 449.337 119.692C447.879 119.692 446.853 120.79 446.853 122.338C446.853 123.904 447.879 125.002 449.337 125.002ZM461.04 124.894C461.778 124.894 462.678 124.552 463.182 124.066L464.856 125.776C464.028 126.64 462.426 127.216 461.058 127.216C458.286 127.216 456.126 125.182 456.126 122.32C456.126 119.512 458.196 117.478 460.914 117.478C463.83 117.478 465.54 119.692 465.54 123.202H458.826C459.132 124.21 459.942 124.894 461.04 124.894ZM461.022 119.8C460.032 119.8 459.204 120.376 458.862 121.312H463.02C462.768 120.394 462.084 119.8 461.022 119.8ZM469.946 119.422C470.558 118.216 471.71 117.478 473.132 117.478V119.692C471.188 119.692 469.946 120.808 469.946 122.554V127H467.318V117.694H469.946V119.422Z" fill="black"/>
<rect x="161.5" y="149.5" width="421" height="169" rx="3.5" fill="white"/>
<path d="M306.203 181.216C304.061 181.216 302.153 180.496 300.713 179.164L302.243 177.346C303.413 178.354 304.745 178.966 306.311 178.966C307.643 178.966 308.327 178.354 308.327 177.58C308.327 176.698 307.607 176.428 305.717 175.996C303.107 175.402 301.253 174.664 301.253 172.27C301.253 169.984 303.125 168.418 305.825 168.418C307.841 168.418 309.407 169.048 310.667 170.128L309.281 172.036C308.183 171.154 306.941 170.668 305.753 170.668C304.619 170.668 303.935 171.262 303.935 172C303.935 172.9 304.673 173.188 306.581 173.62C309.245 174.214 311.009 175.006 311.009 177.292C311.009 179.65 309.227 181.216 306.203 181.216ZM317.233 178.894C317.971 178.894 318.871 178.552 319.375 178.066L321.049 179.776C320.221 180.64 318.619 181.216 317.251 181.216C314.479 181.216 312.319 179.182 312.319 176.32C312.319 173.512 314.389 171.478 317.107 171.478C320.023 171.478 321.733 173.692 321.733 177.202H315.019C315.325 178.21 316.135 178.894 317.233 178.894ZM317.215 173.8C316.225 173.8 315.397 174.376 315.055 175.312H319.213C318.961 174.394 318.277 173.8 317.215 173.8ZM328.065 181.216C325.311 181.216 322.989 178.984 322.989 176.338C322.989 173.692 325.329 171.478 328.083 171.478C329.595 171.478 330.837 172.09 331.737 173.062L329.991 174.556C329.523 174.034 328.785 173.692 328.065 173.692C326.697 173.692 325.545 174.898 325.545 176.32C325.545 177.778 326.697 179.002 328.083 179.002C328.803 179.002 329.559 178.642 330.045 178.102L331.791 179.578C330.873 180.586 329.613 181.216 328.065 181.216ZM339.547 171.694H342.175V181H339.547V179.83C338.989 180.676 337.945 181.216 336.739 181.216C334.723 181.216 333.283 179.722 333.283 177.616V171.694H335.821V177.058C335.821 178.21 336.541 179.002 337.585 179.002C338.683 179.002 339.529 178.21 339.529 177.202L339.547 177.256V171.694ZM347.057 173.422C347.669 172.216 348.821 171.478 350.243 171.478V173.692C348.299 173.692 347.057 174.808 347.057 176.554V181H344.429V171.694H347.057V173.422ZM353.073 170.416C352.263 170.416 351.633 169.768 351.633 168.976C351.633 168.238 352.263 167.572 353.073 167.572C353.847 167.572 354.477 168.238 354.477 168.976C354.477 169.768 353.847 170.416 353.073 170.416ZM351.741 181V171.694H354.369V181H351.741ZM361.56 178.696L362.19 180.406C361.65 180.892 360.804 181.216 360.048 181.216C358.41 181.216 357.258 180.046 357.258 178.372V173.818H355.98V171.694H357.258V169.138H359.778V171.694H361.794V173.818H359.778V177.958C359.778 178.57 360.174 179.002 360.66 179.002C361.02 179.002 361.38 178.876 361.56 178.696ZM365.96 184.24C365.186 184.24 364.25 184.006 363.62 183.664L364.178 181.864C364.628 182.116 365.096 182.278 365.402 182.278C365.906 182.278 366.302 182.116 366.5 181.774L366.824 181.09L362.954 171.694H365.672L368.12 178.228L370.442 171.694H373.124L369.308 181.468C368.606 183.286 367.418 184.24 365.96 184.24ZM380.802 181.216C377.256 181.216 374.232 178.282 374.232 174.808C374.232 171.334 377.256 168.418 380.802 168.418C382.674 168.418 384.402 169.21 385.608 170.488L383.682 172.216C382.962 171.388 381.936 170.83 380.802 170.83C378.732 170.83 376.968 172.666 376.968 174.808C376.968 176.968 378.732 178.804 380.802 178.804C381.936 178.804 382.962 178.246 383.682 177.418L385.608 179.146C384.402 180.406 382.674 181.216 380.802 181.216ZM391.751 181.216C388.979 181.216 386.657 178.984 386.657 176.338C386.657 173.692 388.979 171.478 391.751 171.478C394.505 171.478 396.809 173.692 396.809 176.338C396.809 178.984 394.505 181.216 391.751 181.216ZM391.751 179.002C393.137 179.002 394.307 177.778 394.307 176.338C394.307 174.898 393.137 173.692 391.751 173.692C390.347 173.692 389.177 174.898 389.177 176.338C389.177 177.778 390.347 179.002 391.751 179.002ZM403.97 171.478C405.986 171.478 407.426 172.972 407.426 175.078V181H404.888V175.636C404.888 174.484 404.168 173.692 403.124 173.692C402.026 173.692 401.18 174.484 401.18 175.492L401.162 175.438V181H398.534V171.694H401.162V172.864C401.72 172.018 402.764 171.478 403.97 171.478ZM414.54 178.696L415.17 180.406C414.63 180.892 413.784 181.216 413.028 181.216C411.39 181.216 410.238 180.046 410.238 178.372V173.818H408.96V171.694H410.238V169.138H412.758V171.694H414.774V173.818H412.758V177.958C412.758 178.57 413.154 179.002 413.64 179.002C414 179.002 414.36 178.876 414.54 178.696ZM421.208 178.894C421.946 178.894 422.846 178.552 423.35 178.066L425.024 179.776C424.196 180.64 422.594 181.216 421.226 181.216C418.454 181.216 416.294 179.182 416.294 176.32C416.294 173.512 418.364 171.478 421.082 171.478C423.998 171.478 425.708 173.692 425.708 177.202H418.994C419.3 178.21 420.11 178.894 421.208 178.894ZM421.19 173.8C420.2 173.8 419.372 174.376 419.03 175.312H423.188C422.936 174.394 422.252 173.8 421.19 173.8ZM436.252 181H433.426L431.41 178.192L429.376 181H426.604L430.024 176.266L426.748 171.694H429.592L431.446 174.286L433.318 171.694H436.09L432.832 176.212L436.252 181ZM442.577 178.696L443.207 180.406C442.667 180.892 441.821 181.216 441.065 181.216C439.427 181.216 438.275 180.046 438.275 178.372V173.818H436.997V171.694H438.275V169.138H440.795V171.694H442.811V173.818H440.795V177.958C440.795 178.57 441.191 179.002 441.677 179.002C442.037 179.002 442.397 178.876 442.577 178.696Z" fill="black"/>
<rect x="173" y="203" width="398" height="100" rx="4" fill="#E4E4E7"/>
<path d="M316.563 231L315.771 229.056H310.263L309.471 231H306.501L311.541 218.634H314.511L319.551 231H316.563ZM311.181 226.806H314.853L313.017 222.288L311.181 226.806ZM327.11 221.694H329.738V231H327.11V229.83C326.552 230.676 325.508 231.216 324.302 231.216C322.286 231.216 320.846 229.722 320.846 227.616V221.694H323.384V227.058C323.384 228.21 324.104 229.002 325.148 229.002C326.246 229.002 327.092 228.21 327.092 227.202L327.11 227.256V221.694ZM336.889 228.696L337.519 230.406C336.979 230.892 336.133 231.216 335.377 231.216C333.739 231.216 332.587 230.046 332.587 228.372V223.818H331.309V221.694H332.587V219.138H335.107V221.694H337.123V223.818H335.107V227.958C335.107 228.57 335.503 229.002 335.989 229.002C336.349 229.002 336.709 228.876 336.889 228.696ZM344.547 221.478C346.563 221.478 348.003 222.972 348.003 225.078V231H345.465V225.636C345.465 224.484 344.745 223.692 343.701 223.692C342.603 223.692 341.757 224.484 341.757 225.492V231H339.129V218.418H341.757V222.828C342.333 222.018 343.359 221.478 344.547 221.478ZM354.613 228.894C355.351 228.894 356.251 228.552 356.755 228.066L358.429 229.776C357.601 230.64 355.999 231.216 354.631 231.216C351.859 231.216 349.699 229.182 349.699 226.32C349.699 223.512 351.769 221.478 354.487 221.478C357.403 221.478 359.113 223.692 359.113 227.202H352.399C352.705 228.21 353.515 228.894 354.613 228.894ZM354.595 223.8C353.605 223.8 352.777 224.376 352.435 225.312H356.593C356.341 224.394 355.657 223.8 354.595 223.8ZM366.273 221.478C368.289 221.478 369.729 222.972 369.729 225.078V231H367.191V225.636C367.191 224.484 366.471 223.692 365.427 223.692C364.329 223.692 363.483 224.484 363.483 225.492L363.465 225.438V231H360.837V221.694H363.465V222.864C364.023 222.018 365.067 221.478 366.273 221.478ZM376.844 228.696L377.474 230.406C376.934 230.892 376.088 231.216 375.332 231.216C373.694 231.216 372.542 230.046 372.542 228.372V223.818H371.264V221.694H372.542V219.138H375.062V221.694H377.078V223.818H375.062V227.958C375.062 228.57 375.458 229.002 375.944 229.002C376.304 229.002 376.664 228.876 376.844 228.696ZM380.434 220.416C379.624 220.416 378.994 219.768 378.994 218.976C378.994 218.238 379.624 217.572 380.434 217.572C381.208 217.572 381.838 218.238 381.838 218.976C381.838 219.768 381.208 220.416 380.434 220.416ZM379.102 231V221.694H381.73V231H379.102ZM388.578 231.216C385.824 231.216 383.502 228.984 383.502 226.338C383.502 223.692 385.842 221.478 388.596 221.478C390.108 221.478 391.35 222.09 392.25 223.062L390.504 224.556C390.036 224.034 389.298 223.692 388.578 223.692C387.21 223.692 386.058 224.898 386.058 226.32C386.058 227.778 387.21 229.002 388.596 229.002C389.316 229.002 390.072 228.642 390.558 228.102L392.304 229.578C391.386 230.586 390.126 231.216 388.578 231.216ZM398.043 221.478C400.473 221.478 402.129 223.008 402.129 225.438V231H399.591V230.064C398.925 230.82 397.863 231.216 396.855 231.216C394.875 231.216 393.345 230.028 393.345 228.246C393.345 226.41 395.055 225.15 397.215 225.15C397.971 225.15 398.799 225.312 399.591 225.618V225.438C399.591 224.448 398.979 223.584 397.449 223.584C396.585 223.584 395.775 223.872 395.037 224.25L394.155 222.504C395.469 221.838 396.747 221.478 398.043 221.478ZM397.449 229.398C398.457 229.398 399.411 228.93 399.591 228.066V227.202C398.997 226.986 398.313 226.86 397.593 226.86C396.639 226.86 395.883 227.418 395.883 228.174C395.883 228.93 396.549 229.398 397.449 229.398ZM409.24 228.696L409.87 230.406C409.33 230.892 408.484 231.216 407.728 231.216C406.09 231.216 404.938 230.046 404.938 228.372V223.818H403.66V221.694H404.938V219.138H407.458V221.694H409.474V223.818H407.458V227.958C407.458 228.57 407.854 229.002 408.34 229.002C408.7 229.002 409.06 228.876 409.24 228.696ZM412.83 220.416C412.02 220.416 411.39 219.768 411.39 218.976C411.39 218.238 412.02 217.572 412.83 217.572C413.604 217.572 414.234 218.238 414.234 218.976C414.234 219.768 413.604 220.416 412.83 220.416ZM411.498 231V221.694H414.126V231H411.498ZM420.993 231.216C418.221 231.216 415.899 228.984 415.899 226.338C415.899 223.692 418.221 221.478 420.993 221.478C423.747 221.478 426.051 223.692 426.051 226.338C426.051 228.984 423.747 231.216 420.993 231.216ZM420.993 229.002C422.379 229.002 423.549 227.778 423.549 226.338C423.549 224.898 422.379 223.692 420.993 223.692C419.589 223.692 418.419 224.898 418.419 226.338C418.419 227.778 419.589 229.002 420.993 229.002ZM433.211 221.478C435.227 221.478 436.667 222.972 436.667 225.078V231H434.129V225.636C434.129 224.484 433.409 223.692 432.365 223.692C431.267 223.692 430.421 224.484 430.421 225.492L430.403 225.438V231H427.775V221.694H430.403V222.864C430.961 222.018 432.005 221.478 433.211 221.478Z" fill="black"/>
<rect x="189.5" y="253.5" width="101" height="37" rx="3.5" fill="white"/>
<path d="M202.622 277V264.634H208.184C210.866 264.634 212.846 266.362 212.846 268.81C212.846 271.258 210.866 272.986 208.184 272.986H205.268V277H202.622ZM205.268 270.556H207.896C209.21 270.556 210.11 269.872 210.11 268.81C210.11 267.748 209.21 267.064 207.896 267.064H205.268V270.556ZM217.061 269.422C217.673 268.216 218.825 267.478 220.247 267.478V269.692C218.303 269.692 217.061 270.808 217.061 272.554V277H214.433V267.694H217.061V269.422ZM223.077 266.416C222.267 266.416 221.637 265.768 221.637 264.976C221.637 264.238 222.267 263.572 223.077 263.572C223.851 263.572 224.481 264.238 224.481 264.976C224.481 265.768 223.851 266.416 223.077 266.416ZM221.745 277V267.694H224.373V277H221.745ZM232.05 267.478C234.066 267.478 235.506 268.972 235.506 271.078V277H232.968V271.636C232.968 270.484 232.248 269.692 231.204 269.692C230.106 269.692 229.26 270.484 229.26 271.492L229.242 271.438V277H226.614V267.694H229.242V268.864C229.8 268.018 230.844 267.478 232.05 267.478ZM242.278 277.216C239.524 277.216 237.202 274.984 237.202 272.338C237.202 269.692 239.542 267.478 242.296 267.478C243.808 267.478 245.05 268.09 245.95 269.062L244.204 270.556C243.736 270.034 242.998 269.692 242.278 269.692C240.91 269.692 239.758 270.898 239.758 272.32C239.758 273.778 240.91 275.002 242.296 275.002C243.016 275.002 243.772 274.642 244.258 274.102L246.004 275.578C245.086 276.586 243.826 277.216 242.278 277.216ZM248.9 266.416C248.09 266.416 247.46 265.768 247.46 264.976C247.46 264.238 248.09 263.572 248.9 263.572C249.674 263.572 250.304 264.238 250.304 264.976C250.304 265.768 249.674 266.416 248.9 266.416ZM247.568 277V267.694H250.196V277H247.568ZM258.232 267.478C260.716 267.478 262.516 269.494 262.516 272.338C262.516 275.2 260.716 277.216 258.232 277.216C256.936 277.216 255.856 276.658 255.118 275.686V280.096H252.49V267.694H255.118V268.99C255.856 268.036 256.936 267.478 258.232 267.478ZM257.476 275.002C258.934 275.002 259.96 273.904 259.96 272.338C259.96 270.79 258.934 269.692 257.476 269.692C256.198 269.692 255.262 270.628 255.118 271.978V272.698C255.262 274.066 256.198 275.002 257.476 275.002ZM268.531 267.478C270.961 267.478 272.617 269.008 272.617 271.438V277H270.079V276.064C269.413 276.82 268.351 277.216 267.343 277.216C265.363 277.216 263.833 276.028 263.833 274.246C263.833 272.41 265.543 271.15 267.703 271.15C268.459 271.15 269.287 271.312 270.079 271.618V271.438C270.079 270.448 269.467 269.584 267.937 269.584C267.073 269.584 266.263 269.872 265.525 270.25L264.643 268.504C265.957 267.838 267.235 267.478 268.531 267.478ZM267.937 275.398C268.945 275.398 269.899 274.93 270.079 274.066V273.202C269.485 272.986 268.801 272.86 268.081 272.86C267.127 272.86 266.371 273.418 266.371 274.174C266.371 274.93 267.037 275.398 267.937 275.398ZM274.832 277V264.418H277.46V277H274.832Z" fill="#18181B"/>
<rect x="189.5" y="253.5" width="101" height="37" rx="3.5" stroke="#18181B"/>
<rect x="299.5" y="253.5" width="124" height="37" rx="3.5" fill="white"/>
<path d="M318.491 277.216C314.945 277.216 311.921 274.282 311.921 270.808C311.921 267.334 314.945 264.418 318.491 264.418C320.363 264.418 322.091 265.21 323.297 266.488L321.371 268.216C320.651 267.388 319.625 266.83 318.491 266.83C316.421 266.83 314.657 268.666 314.657 270.808C314.657 272.968 316.421 274.804 318.491 274.804C319.625 274.804 320.651 274.246 321.371 273.418L323.297 275.146C322.091 276.406 320.363 277.216 318.491 277.216ZM327.496 269.422C328.108 268.216 329.26 267.478 330.682 267.478V269.692C328.738 269.692 327.496 270.808 327.496 272.554V277H324.868V267.694H327.496V269.422ZM336.59 274.894C337.328 274.894 338.228 274.552 338.732 274.066L340.406 275.776C339.578 276.64 337.976 277.216 336.608 277.216C333.836 277.216 331.676 275.182 331.676 272.32C331.676 269.512 333.746 267.478 336.464 267.478C339.38 267.478 341.09 269.692 341.09 273.202H334.376C334.682 274.21 335.492 274.894 336.59 274.894ZM336.572 269.8C335.582 269.8 334.754 270.376 334.412 271.312H338.57C338.318 270.394 337.634 269.8 336.572 269.8ZM349.816 264.418H352.444V277H349.816V275.668C349.078 276.64 347.998 277.216 346.684 277.216C344.2 277.216 342.4 275.2 342.4 272.338C342.4 269.494 344.2 267.478 346.684 267.478C347.998 267.478 349.078 268.054 349.816 269.026V264.418ZM347.44 275.002C348.826 275.002 349.816 273.904 349.816 272.338C349.816 270.79 348.826 269.692 347.44 269.692C345.982 269.692 344.956 270.79 344.956 272.338C344.956 273.904 345.982 275.002 347.44 275.002ZM359.143 274.894C359.881 274.894 360.781 274.552 361.285 274.066L362.959 275.776C362.131 276.64 360.529 277.216 359.161 277.216C356.389 277.216 354.229 275.182 354.229 272.32C354.229 269.512 356.299 267.478 359.017 267.478C361.933 267.478 363.643 269.692 363.643 273.202H356.929C357.235 274.21 358.045 274.894 359.143 274.894ZM359.125 269.8C358.135 269.8 357.307 270.376 356.965 271.312H361.123C360.871 270.394 360.187 269.8 359.125 269.8ZM370.803 267.478C372.819 267.478 374.259 268.972 374.259 271.078V277H371.721V271.636C371.721 270.484 371.001 269.692 369.957 269.692C368.859 269.692 368.013 270.484 368.013 271.492L367.995 271.438V277H365.367V267.694H367.995V268.864C368.553 268.018 369.597 267.478 370.803 267.478ZM381.373 274.696L382.003 276.406C381.463 276.892 380.617 277.216 379.861 277.216C378.223 277.216 377.071 276.046 377.071 274.372V269.818H375.793V267.694H377.071V265.138H379.591V267.694H381.607V269.818H379.591V273.958C379.591 274.57 379.987 275.002 380.473 275.002C380.833 275.002 381.193 274.876 381.373 274.696ZM384.963 266.416C384.153 266.416 383.523 265.768 383.523 264.976C383.523 264.238 384.153 263.572 384.963 263.572C385.737 263.572 386.367 264.238 386.367 264.976C386.367 265.768 385.737 266.416 384.963 266.416ZM383.631 277V267.694H386.259V277H383.631ZM392.711 267.478C395.141 267.478 396.797 269.008 396.797 271.438V277H394.259V276.064C393.593 276.82 392.531 277.216 391.523 277.216C389.543 277.216 388.013 276.028 388.013 274.246C388.013 272.41 389.723 271.15 391.883 271.15C392.639 271.15 393.467 271.312 394.259 271.618V271.438C394.259 270.448 393.647 269.584 392.117 269.584C391.253 269.584 390.443 269.872 389.705 270.25L388.823 268.504C390.137 267.838 391.415 267.478 392.711 267.478ZM392.117 275.398C393.125 275.398 394.079 274.93 394.259 274.066V273.202C393.665 272.986 392.981 272.86 392.261 272.86C391.307 272.86 390.551 273.418 390.551 274.174C390.551 274.93 391.217 275.398 392.117 275.398ZM399.012 277V264.418H401.64V277H399.012ZM407.426 277.216C405.932 277.216 404.348 276.712 403.232 275.812L404.366 273.994C405.194 274.588 406.238 275.038 407.48 275.038C408.182 275.038 408.686 274.75 408.686 274.336C408.686 273.76 408.002 273.58 407.048 273.328C405.14 272.86 403.664 272.338 403.646 270.502C403.628 268.738 405.086 267.478 407.282 267.478C408.614 267.478 409.928 267.946 410.954 268.63L409.892 270.502C409.046 269.98 408.074 269.674 407.282 269.674C406.634 269.674 406.184 269.908 406.184 270.232C406.184 270.736 406.562 270.88 407.822 271.222C409.424 271.636 411.206 272.176 411.206 274.21C411.206 276.046 409.712 277.216 407.426 277.216Z" fill="#18181B"/>
<rect x="299.5" y="253.5" width="124" height="37" rx="3.5" stroke="#18181B"/>
<rect x="432.5" y="253.5" width="122" height="37" rx="3.5" fill="white"/>
<path d="M454.683 277L453.891 275.056H448.383L447.591 277H444.621L449.661 264.634H452.631L457.671 277H454.683ZM449.301 272.806H452.973L451.137 268.288L449.301 272.806ZM465.23 267.694H467.858V277H465.23V275.83C464.672 276.676 463.628 277.216 462.422 277.216C460.406 277.216 458.966 275.722 458.966 273.616V267.694H461.504V273.058C461.504 274.21 462.224 275.002 463.268 275.002C464.366 275.002 465.212 274.21 465.212 273.202L465.23 273.256V267.694ZM475.009 274.696L475.639 276.406C475.099 276.892 474.253 277.216 473.497 277.216C471.859 277.216 470.707 276.046 470.707 274.372V269.818H469.429V267.694H470.707V265.138H473.227V267.694H475.243V269.818H473.227V273.958C473.227 274.57 473.623 275.002 474.109 275.002C474.469 275.002 474.829 274.876 475.009 274.696ZM482.667 267.478C484.683 267.478 486.123 268.972 486.123 271.078V277H483.585V271.636C483.585 270.484 482.865 269.692 481.821 269.692C480.723 269.692 479.877 270.484 479.877 271.492V277H477.249V264.418H479.877V268.828C480.453 268.018 481.479 267.478 482.667 267.478ZM492.913 277.216C490.141 277.216 487.819 274.984 487.819 272.338C487.819 269.692 490.141 267.478 492.913 267.478C495.667 267.478 497.971 269.692 497.971 272.338C497.971 274.984 495.667 277.216 492.913 277.216ZM492.913 275.002C494.299 275.002 495.469 273.778 495.469 272.338C495.469 270.898 494.299 269.692 492.913 269.692C491.509 269.692 490.339 270.898 490.339 272.338C490.339 273.778 491.509 275.002 492.913 275.002ZM502.378 269.422C502.99 268.216 504.142 267.478 505.564 267.478V269.692C503.62 269.692 502.378 270.808 502.378 272.554V277H499.75V267.694H502.378V269.422ZM508.394 266.416C507.584 266.416 506.954 265.768 506.954 264.976C506.954 264.238 507.584 263.572 508.394 263.572C509.168 263.572 509.798 264.238 509.798 264.976C509.798 265.768 509.168 266.416 508.394 266.416ZM507.062 277V267.694H509.69V277H507.062ZM516.88 274.696L517.51 276.406C516.97 276.892 516.124 277.216 515.368 277.216C513.73 277.216 512.578 276.046 512.578 274.372V269.818H511.3V267.694H512.578V265.138H515.098V267.694H517.114V269.818H515.098V273.958C515.098 274.57 515.494 275.002 515.98 275.002C516.34 275.002 516.7 274.876 516.88 274.696ZM520.47 266.416C519.66 266.416 519.03 265.768 519.03 264.976C519.03 264.238 519.66 263.572 520.47 263.572C521.244 263.572 521.874 264.238 521.874 264.976C521.874 265.768 521.244 266.416 520.47 266.416ZM519.138 277V267.694H521.766V277H519.138ZM528.452 274.894C529.19 274.894 530.09 274.552 530.594 274.066L532.268 275.776C531.44 276.64 529.838 277.216 528.47 277.216C525.698 277.216 523.538 275.182 523.538 272.32C523.538 269.512 525.608 267.478 528.326 267.478C531.242 267.478 532.952 269.692 532.952 273.202H526.238C526.544 274.21 527.354 274.894 528.452 274.894ZM528.434 269.8C527.444 269.8 526.616 270.376 526.274 271.312H530.432C530.18 270.394 529.496 269.8 528.434 269.8ZM538.222 277.216C536.728 277.216 535.144 276.712 534.028 275.812L535.162 273.994C535.99 274.588 537.034 275.038 538.276 275.038C538.978 275.038 539.482 274.75 539.482 274.336C539.482 273.76 538.798 273.58 537.844 273.328C535.936 272.86 534.46 272.338 534.442 270.502C534.424 268.738 535.882 267.478 538.078 267.478C539.41 267.478 540.724 267.946 541.75 268.63L540.688 270.502C539.842 269.98 538.87 269.674 538.078 269.674C537.43 269.674 536.98 269.908 536.98 270.232C536.98 270.736 537.358 270.88 538.618 271.222C540.22 271.636 542.002 272.176 542.002 274.21C542.002 276.046 540.508 277.216 538.222 277.216Z" fill="#18181B"/>
<rect x="432.5" y="253.5" width="122" height="37" rx="3.5" stroke="#18181B"/>
<rect x="161.5" y="149.5" width="421" height="169" rx="3.5" stroke="#18181B"/>
</g>
<defs>
<clipPath id="clip0_421_1115">
<rect width="743" height="431" fill="white"/>
</clipPath>
</defs>
</svg>
