<svg width="743" height="431" viewBox="0 0 743 431" fill="none" xmlns="http://www.w3.org/2000/svg">
<g clip-path="url(#clip0_421_788)">
<rect width="743" height="431" fill="white"/>
<circle cx="99" cy="210" r="335" fill="#F4F4F5"/>
<rect x="63.5" y="21.5" width="218" height="37" rx="3.5" fill="white"/>
<path d="M154.179 45.216C150.633 45.216 147.609 42.282 147.609 38.808C147.609 35.334 150.633 32.418 154.179 32.418C156.051 32.418 157.779 33.21 158.985 34.488L157.059 36.216C156.339 35.388 155.313 34.83 154.179 34.83C152.109 34.83 150.345 36.666 150.345 38.808C150.345 40.968 152.109 42.804 154.179 42.804C155.313 42.804 156.339 42.246 157.059 41.418L158.985 43.146C157.779 44.406 156.051 45.216 154.179 45.216ZM160.556 45V32.418H163.184V45H160.556ZM166.792 34.416C165.982 34.416 165.352 33.768 165.352 32.976C165.352 32.238 165.982 31.572 166.792 31.572C167.566 31.572 168.196 32.238 168.196 32.976C168.196 33.768 167.566 34.416 166.792 34.416ZM165.46 45V35.694H168.088V45H165.46ZM174.774 42.894C175.512 42.894 176.412 42.552 176.916 42.066L178.59 43.776C177.762 44.64 176.16 45.216 174.792 45.216C172.02 45.216 169.86 43.182 169.86 40.32C169.86 37.512 171.93 35.478 174.648 35.478C177.564 35.478 179.274 37.692 179.274 41.202H172.56C172.866 42.21 173.676 42.894 174.774 42.894ZM174.756 37.8C173.766 37.8 172.938 38.376 172.596 39.312H176.754C176.502 38.394 175.818 37.8 174.756 37.8ZM186.434 35.478C188.45 35.478 189.89 36.972 189.89 39.078V45H187.352V39.636C187.352 38.484 186.632 37.692 185.588 37.692C184.49 37.692 183.644 38.484 183.644 39.492L183.626 39.438V45H180.998V35.694H183.626V36.864C184.184 36.018 185.228 35.478 186.434 35.478ZM197.005 42.696L197.635 44.406C197.095 44.892 196.249 45.216 195.493 45.216C193.855 45.216 192.703 44.046 192.703 42.372V37.818H191.425V35.694H192.703V33.138H195.223V35.694H197.239V37.818H195.223V41.958C195.223 42.57 195.619 43.002 196.105 43.002C196.465 43.002 196.825 42.876 197.005 42.696Z" fill="#18181B"/>
<rect x="63.5" y="21.5" width="218" height="37" rx="3.5" stroke="#18181B"/>
<path d="M57.4546 78.326H50.2006V81.926H56.7526V83.618H50.2006V89H48.3646V76.634H57.4546V78.326ZM60.302 78.146C59.69 78.146 59.222 77.642 59.222 77.066C59.222 76.508 59.69 76.004 60.302 76.004C60.878 76.004 61.364 76.508 61.364 77.066C61.364 77.642 60.878 78.146 60.302 78.146ZM59.402 89V79.694H61.184V89H59.402ZM63.7618 89V76.418H65.5258V89H63.7618ZM72.4772 87.326L73.1252 88.55C72.6212 88.964 71.9372 89.216 71.2712 89.216C69.8312 89.216 68.8232 88.172 68.8232 86.678V81.206H67.4192V79.694H68.8232V77.138H70.5692V79.694H72.7652V81.206H70.5692V86.552C70.5692 87.2 71.0012 87.668 71.5232 87.668C71.9192 87.668 72.2792 87.524 72.4772 87.326ZM79.2075 87.632C80.1795 87.632 81.3135 87.2 81.8715 86.624L82.9875 87.776C82.1595 88.658 80.5395 89.216 79.2255 89.216C76.6335 89.216 74.4375 87.182 74.4375 84.32C74.4375 81.53 76.5075 79.478 79.0815 79.478C81.9255 79.478 83.5635 81.638 83.5635 84.968H76.2375C76.4715 86.516 77.6055 87.632 79.2075 87.632ZM79.1535 81.062C77.7135 81.062 76.5435 82.034 76.2555 83.546H81.8355C81.6375 82.106 80.7555 81.062 79.1535 81.062ZM87.501 81.476C88.095 80.252 89.355 79.478 90.957 79.478V81.026C89.031 81.026 87.663 82.088 87.501 83.708V89H85.719V79.694H87.501V81.476ZM98.6894 89.216C95.2154 89.216 92.2634 86.282 92.2634 82.808C92.2634 79.334 95.2154 76.418 98.6894 76.418C100.453 76.418 102.073 77.156 103.243 78.362L101.965 79.586C101.137 78.686 99.9674 78.092 98.6894 78.092C96.2234 78.092 94.1354 80.252 94.1354 82.808C94.1354 85.382 96.2234 87.542 98.6894 87.542C99.9674 87.542 101.137 86.948 101.965 86.048L103.243 87.272C102.073 88.46 100.453 89.216 98.6894 89.216ZM109.752 79.478C111.804 79.478 113.244 80.972 113.244 83.078V89H111.498V83.384C111.498 81.998 110.616 81.026 109.356 81.026C107.952 81.026 106.782 82.016 106.782 83.222V89H105.018V76.418H106.782V81.08C107.34 80.144 108.474 79.478 109.752 79.478ZM119.699 79.478C122.201 79.478 123.587 81.062 123.587 83.366V89H121.841V87.722C121.157 88.694 119.879 89.216 118.745 89.216C116.765 89.216 115.307 88.064 115.307 86.246C115.307 84.392 116.981 83.15 119.033 83.15C119.951 83.15 120.941 83.348 121.841 83.654V83.366C121.841 82.196 121.301 80.954 119.447 80.954C118.529 80.954 117.629 81.314 116.819 81.728L116.171 80.414C117.503 79.748 118.673 79.478 119.699 79.478ZM119.087 87.812C120.239 87.812 121.535 87.236 121.841 86.084V84.842C121.085 84.608 120.221 84.482 119.303 84.482C118.061 84.482 117.017 85.184 117.017 86.192C117.017 87.2 117.917 87.812 119.087 87.812ZM127.046 78.146C126.434 78.146 125.966 77.642 125.966 77.066C125.966 76.508 126.434 76.004 127.046 76.004C127.622 76.004 128.108 76.508 128.108 77.066C128.108 77.642 127.622 78.146 127.046 78.146ZM126.146 89V79.694H127.928V89H126.146ZM135.24 79.478C137.292 79.478 138.732 80.972 138.732 83.078V89H136.986V83.384C136.986 81.998 136.104 81.026 134.844 81.026C133.548 81.026 132.432 81.872 132.288 82.97V89H130.506V79.694H132.288V81.044C132.846 80.126 133.98 79.478 135.24 79.478Z" fill="#18181B"/>
<rect x="63" y="115" width="219" height="38" rx="4" fill="#4C7C2C"/>
<path d="M156.23 129.028H149.372V131.71H155.582V134.104H149.372V139H146.708V126.634H156.23V129.028ZM159.358 128.416C158.548 128.416 157.918 127.768 157.918 126.976C157.918 126.238 158.548 125.572 159.358 125.572C160.132 125.572 160.762 126.238 160.762 126.976C160.762 127.768 160.132 128.416 159.358 128.416ZM158.026 139V129.694H160.654V139H158.026ZM162.949 139V126.418H165.577V139H162.949ZM172.767 136.696L173.397 138.406C172.857 138.892 172.011 139.216 171.255 139.216C169.617 139.216 168.465 138.046 168.465 136.372V131.818H167.187V129.694H168.465V127.138H170.985V129.694H173.001V131.818H170.985V135.958C170.985 136.57 171.381 137.002 171.867 137.002C172.227 137.002 172.587 136.876 172.767 136.696ZM179.434 136.894C180.172 136.894 181.072 136.552 181.576 136.066L183.25 137.776C182.422 138.64 180.82 139.216 179.452 139.216C176.68 139.216 174.52 137.182 174.52 134.32C174.52 131.512 176.59 129.478 179.308 129.478C182.224 129.478 183.934 131.692 183.934 135.202H177.22C177.526 136.21 178.336 136.894 179.434 136.894ZM179.416 131.8C178.426 131.8 177.598 132.376 177.256 133.312H181.414C181.162 132.394 180.478 131.8 179.416 131.8ZM188.34 131.422C188.952 130.216 190.104 129.478 191.526 129.478V131.692C189.582 131.692 188.34 132.808 188.34 134.554V139H185.712V129.694H188.34V131.422ZM195.703 143.13C193.748 143.13 192.376 141.542 192.376 139.285C192.376 137.038 193.748 135.451 195.703 135.451C197.658 135.451 199.04 137.038 199.04 139.285C199.04 141.542 197.658 143.13 195.703 143.13ZM195.703 141.682C196.707 141.682 197.398 140.678 197.398 139.285C197.398 137.892 196.707 136.898 195.703 136.898C194.709 136.898 194.007 137.892 194.007 139.285C194.007 140.678 194.709 141.682 195.703 141.682Z" fill="white"/>
<path d="M171.793 180.707C172.183 181.098 172.817 181.098 173.207 180.707L179.571 174.343C179.962 173.953 179.962 173.319 179.571 172.929C179.181 172.538 178.547 172.538 178.157 172.929L172.5 178.586L166.843 172.929C166.453 172.538 165.819 172.538 165.429 172.929C165.038 173.319 165.038 173.953 165.429 174.343L171.793 180.707ZM173.207 152.293C172.817 151.902 172.183 151.902 171.793 152.293L165.429 158.657C165.038 159.047 165.038 159.681 165.429 160.071C165.819 160.462 166.453 160.462 166.843 160.071L172.5 154.414L178.157 160.071C178.547 160.462 179.181 160.462 179.571 160.071C179.962 159.681 179.962 159.047 179.571 158.657L173.207 152.293ZM173.5 180L173.5 153L171.5 153L171.5 180L173.5 180Z" fill="#18181B"/>
<rect x="63" y="180" width="219" height="84" rx="4" fill="#4C7C2C"/>
<path d="M76.458 204V191.634H80.886C85.044 191.634 87.996 194.19 87.996 197.808C87.996 201.426 85.044 204 80.886 204H76.458ZM79.104 201.588H81.228C83.586 201.588 85.26 200.022 85.26 197.808C85.26 195.612 83.586 194.046 81.228 194.046H79.104V201.588ZM94.3633 201.894C95.1013 201.894 96.0013 201.552 96.5053 201.066L98.1793 202.776C97.3513 203.64 95.7493 204.216 94.3813 204.216C91.6093 204.216 89.4493 202.182 89.4493 199.32C89.4493 196.512 91.5193 194.478 94.2373 194.478C97.1533 194.478 98.8633 196.692 98.8633 200.202H92.1493C92.4553 201.21 93.2653 201.894 94.3633 201.894ZM94.3453 196.8C93.3553 196.8 92.5273 197.376 92.1853 198.312H96.3433C96.0913 197.394 95.4073 196.8 94.3453 196.8ZM100.641 204V191.418H103.269V204H100.641ZM109.955 201.894C110.693 201.894 111.593 201.552 112.097 201.066L113.771 202.776C112.943 203.64 111.341 204.216 109.973 204.216C107.201 204.216 105.041 202.182 105.041 199.32C105.041 196.512 107.111 194.478 109.829 194.478C112.745 194.478 114.455 196.692 114.455 200.202H107.741C108.047 201.21 108.857 201.894 109.955 201.894ZM109.937 196.8C108.947 196.8 108.119 197.376 107.777 198.312H111.935C111.683 197.394 110.999 196.8 109.937 196.8ZM122.965 194.694H125.611V203.01C125.611 205.404 123.541 207.096 120.607 207.096C118.969 207.096 117.421 206.574 116.503 205.854L117.421 204C118.033 204.54 119.113 204.882 120.193 204.882C121.885 204.882 122.965 204.108 122.965 202.902V201.876C122.227 202.776 121.111 203.316 119.887 203.316C117.547 203.316 115.765 201.48 115.765 198.888C115.765 196.296 117.547 194.478 119.887 194.478C121.147 194.478 122.335 195.072 122.965 195.954V194.694ZM120.715 201.102C122.029 201.102 122.965 200.184 122.965 198.888C122.965 197.592 122.029 196.692 120.715 196.692C119.401 196.692 118.465 197.592 118.465 198.888C118.465 200.184 119.401 201.102 120.715 201.102ZM132.081 194.478C134.511 194.478 136.167 196.008 136.167 198.438V204H133.629V203.064C132.963 203.82 131.901 204.216 130.893 204.216C128.913 204.216 127.383 203.028 127.383 201.246C127.383 199.41 129.093 198.15 131.253 198.15C132.009 198.15 132.837 198.312 133.629 198.618V198.438C133.629 197.448 133.017 196.584 131.487 196.584C130.623 196.584 129.813 196.872 129.075 197.25L128.193 195.504C129.507 194.838 130.785 194.478 132.081 194.478ZM131.487 202.398C132.495 202.398 133.449 201.93 133.629 201.066V200.202C133.035 199.986 132.351 199.86 131.631 199.86C130.677 199.86 129.921 200.418 129.921 201.174C129.921 201.93 130.587 202.398 131.487 202.398ZM143.277 201.696L143.907 203.406C143.367 203.892 142.521 204.216 141.765 204.216C140.127 204.216 138.975 203.046 138.975 201.372V196.818H137.697V194.694H138.975V192.138H141.495V194.694H143.511V196.818H141.495V200.958C141.495 201.57 141.891 202.002 142.377 202.002C142.737 202.002 143.097 201.876 143.277 201.696ZM146.867 193.416C146.057 193.416 145.427 192.768 145.427 191.976C145.427 191.238 146.057 190.572 146.867 190.572C147.641 190.572 148.271 191.238 148.271 191.976C148.271 192.768 147.641 193.416 146.867 193.416ZM145.535 204V194.694H148.163V204H145.535ZM155.84 194.478C157.856 194.478 159.296 195.972 159.296 198.078V204H156.758V198.636C156.758 197.484 156.038 196.692 154.994 196.692C153.896 196.692 153.05 197.484 153.05 198.492L153.032 198.438V204H150.404V194.694H153.032V195.864C153.59 195.018 154.634 194.478 155.84 194.478ZM168.246 194.694H170.892V203.01C170.892 205.404 168.822 207.096 165.888 207.096C164.25 207.096 162.702 206.574 161.784 205.854L162.702 204C163.314 204.54 164.394 204.882 165.474 204.882C167.166 204.882 168.246 204.108 168.246 202.902V201.876C167.508 202.776 166.392 203.316 165.168 203.316C162.828 203.316 161.046 201.48 161.046 198.888C161.046 196.296 162.828 194.478 165.168 194.478C166.428 194.478 167.616 195.072 168.246 195.954V194.694ZM165.996 201.102C167.31 201.102 168.246 200.184 168.246 198.888C168.246 197.592 167.31 196.692 165.996 196.692C164.682 196.692 163.746 197.592 163.746 198.888C163.746 200.184 164.682 201.102 165.996 201.102ZM182.798 194.028H175.94V196.71H182.15V199.104H175.94V204H173.276V191.634H182.798V194.028ZM185.926 193.416C185.116 193.416 184.486 192.768 184.486 191.976C184.486 191.238 185.116 190.572 185.926 190.572C186.7 190.572 187.33 191.238 187.33 191.976C187.33 192.768 186.7 193.416 185.926 193.416ZM184.594 204V194.694H187.222V204H184.594ZM189.516 204V191.418H192.144V204H189.516ZM199.334 201.696L199.964 203.406C199.424 203.892 198.578 204.216 197.822 204.216C196.184 204.216 195.032 203.046 195.032 201.372V196.818H193.754V194.694H195.032V192.138H197.552V194.694H199.568V196.818H197.552V200.958C197.552 201.57 197.948 202.002 198.434 202.002C198.794 202.002 199.154 201.876 199.334 201.696ZM206.002 201.894C206.74 201.894 207.64 201.552 208.144 201.066L209.818 202.776C208.99 203.64 207.388 204.216 206.02 204.216C203.248 204.216 201.088 202.182 201.088 199.32C201.088 196.512 203.158 194.478 205.876 194.478C208.792 194.478 210.502 196.692 210.502 200.202H203.788C204.094 201.21 204.904 201.894 206.002 201.894ZM205.984 196.8C204.994 196.8 204.166 197.376 203.824 198.312H207.982C207.73 197.394 207.046 196.8 205.984 196.8ZM214.908 196.422C215.52 195.216 216.672 194.478 218.094 194.478V196.692C216.15 196.692 214.908 197.808 214.908 199.554V204H212.28V194.694H214.908V196.422ZM219.682 204V191.634H225.244C227.926 191.634 229.906 193.362 229.906 195.81C229.906 198.258 227.926 199.986 225.244 199.986H222.328V204H219.682ZM222.328 197.556H224.956C226.27 197.556 227.17 196.872 227.17 195.81C227.17 194.748 226.27 194.064 224.956 194.064H222.328V197.556ZM234.121 196.422C234.733 195.216 235.885 194.478 237.307 194.478V196.692C235.363 196.692 234.121 197.808 234.121 199.554V204H231.493V194.694H234.121V196.422ZM243.184 204.216C240.412 204.216 238.09 201.984 238.09 199.338C238.09 196.692 240.412 194.478 243.184 194.478C245.938 194.478 248.242 196.692 248.242 199.338C248.242 201.984 245.938 204.216 243.184 204.216ZM243.184 202.002C244.57 202.002 245.74 200.778 245.74 199.338C245.74 197.898 244.57 196.692 243.184 196.692C241.78 196.692 240.61 197.898 240.61 199.338C240.61 200.778 241.78 202.002 243.184 202.002ZM258.786 204H255.96L253.944 201.192L251.91 204H249.138L252.558 199.266L249.282 194.694H252.126L253.98 197.286L255.852 194.694H258.624L255.366 199.212L258.786 204ZM262.339 207.24C261.565 207.24 260.629 207.006 259.999 206.664L260.557 204.864C261.007 205.116 261.475 205.278 261.781 205.278C262.285 205.278 262.681 205.116 262.879 204.774L263.203 204.09L259.333 194.694H262.051L264.499 201.228L266.821 194.694H269.503L265.687 204.468C264.985 206.286 263.797 207.24 262.339 207.24Z" fill="white"/>
<rect x="77" y="220" width="191" height="34" fill="#F4F4F5"/>
<path d="M109.33 232.028H102.472V234.71H108.682V237.104H102.472V242H99.808V229.634H109.33V232.028ZM112.458 231.416C111.648 231.416 111.018 230.768 111.018 229.976C111.018 229.238 111.648 228.572 112.458 228.572C113.232 228.572 113.862 229.238 113.862 229.976C113.862 230.768 113.232 231.416 112.458 231.416ZM111.126 242V232.694H113.754V242H111.126ZM116.048 242V229.418H118.676V242H116.048ZM125.866 239.696L126.496 241.406C125.956 241.892 125.11 242.216 124.354 242.216C122.716 242.216 121.564 241.046 121.564 239.372V234.818H120.286V232.694H121.564V230.138H124.084V232.694H126.1V234.818H124.084V238.958C124.084 239.57 124.48 240.002 124.966 240.002C125.326 240.002 125.686 239.876 125.866 239.696ZM132.534 239.894C133.272 239.894 134.172 239.552 134.676 239.066L136.35 240.776C135.522 241.64 133.92 242.216 132.552 242.216C129.78 242.216 127.62 240.182 127.62 237.32C127.62 234.512 129.69 232.478 132.408 232.478C135.324 232.478 137.034 234.692 137.034 238.202H130.32C130.626 239.21 131.436 239.894 132.534 239.894ZM132.516 234.8C131.526 234.8 130.698 235.376 130.356 236.312H134.514C134.262 235.394 133.578 234.8 132.516 234.8ZM141.44 234.422C142.052 233.216 143.204 232.478 144.626 232.478V234.692C142.682 234.692 141.44 235.808 141.44 237.554V242H138.812V232.694H141.44V234.422ZM152.298 242.216C148.752 242.216 145.728 239.282 145.728 235.808C145.728 232.334 148.752 229.418 152.298 229.418C154.17 229.418 155.898 230.21 157.104 231.488L155.178 233.216C154.458 232.388 153.432 231.83 152.298 231.83C150.228 231.83 148.464 233.666 148.464 235.808C148.464 237.968 150.228 239.804 152.298 239.804C153.432 239.804 154.458 239.246 155.178 238.418L157.104 240.146C155.898 241.406 154.17 242.216 152.298 242.216ZM164.057 232.478C166.073 232.478 167.513 233.972 167.513 236.078V242H164.975V236.636C164.975 235.484 164.255 234.692 163.211 234.692C162.113 234.692 161.267 235.484 161.267 236.492V242H158.639V229.418H161.267V233.828C161.843 233.018 162.869 232.478 164.057 232.478ZM173.89 232.478C176.32 232.478 177.976 234.008 177.976 236.438V242H175.438V241.064C174.772 241.82 173.71 242.216 172.702 242.216C170.722 242.216 169.192 241.028 169.192 239.246C169.192 237.41 170.902 236.15 173.062 236.15C173.818 236.15 174.646 236.312 175.438 236.618V236.438C175.438 235.448 174.826 234.584 173.296 234.584C172.432 234.584 171.622 234.872 170.884 235.25L170.002 233.504C171.316 232.838 172.594 232.478 173.89 232.478ZM173.296 240.398C174.304 240.398 175.258 239.93 175.438 239.066V238.202C174.844 237.986 174.16 237.86 173.44 237.86C172.486 237.86 171.73 238.418 171.73 239.174C171.73 239.93 172.396 240.398 173.296 240.398ZM181.505 231.416C180.695 231.416 180.065 230.768 180.065 229.976C180.065 229.238 180.695 228.572 181.505 228.572C182.279 228.572 182.909 229.238 182.909 229.976C182.909 230.768 182.279 231.416 181.505 231.416ZM180.173 242V232.694H182.801V242H180.173ZM190.477 232.478C192.493 232.478 193.933 233.972 193.933 236.078V242H191.395V236.636C191.395 235.484 190.675 234.692 189.631 234.692C188.533 234.692 187.687 235.484 187.687 236.492L187.669 236.438V242H185.041V232.694H187.669V233.864C188.227 233.018 189.271 232.478 190.477 232.478ZM196.224 242V229.634H201.786C204.468 229.634 206.448 231.362 206.448 233.81C206.448 236.258 204.468 237.986 201.786 237.986H198.87V242H196.224ZM198.87 235.556H201.498C202.812 235.556 203.712 234.872 203.712 233.81C203.712 232.748 202.812 232.064 201.498 232.064H198.87V235.556ZM210.663 234.422C211.275 233.216 212.427 232.478 213.849 232.478V234.692C211.905 234.692 210.663 235.808 210.663 237.554V242H208.035V232.694H210.663V234.422ZM219.726 242.216C216.954 242.216 214.632 239.984 214.632 237.338C214.632 234.692 216.954 232.478 219.726 232.478C222.48 232.478 224.784 234.692 224.784 237.338C224.784 239.984 222.48 242.216 219.726 242.216ZM219.726 240.002C221.112 240.002 222.282 238.778 222.282 237.338C222.282 235.898 221.112 234.692 219.726 234.692C218.322 234.692 217.152 235.898 217.152 237.338C217.152 238.778 218.322 240.002 219.726 240.002ZM235.328 242H232.502L230.486 239.192L228.452 242H225.68L229.1 237.266L225.824 232.694H228.668L230.522 235.286L232.394 232.694H235.166L231.908 237.212L235.328 242ZM238.881 245.24C238.107 245.24 237.171 245.006 236.541 244.664L237.099 242.864C237.549 243.116 238.017 243.278 238.323 243.278C238.827 243.278 239.223 243.116 239.421 242.774L239.745 242.09L235.875 232.694H238.593L241.041 239.228L243.363 232.694H246.045L242.229 242.468C241.527 244.286 240.339 245.24 238.881 245.24Z" fill="#18181B"/>
<rect x="77" y="220" width="191" height="34" stroke="#4C7C2C" stroke-width="4" stroke-dasharray="2 2"/>
<path d="M171.793 291.707C172.183 292.098 172.817 292.098 173.207 291.707L179.571 285.343C179.962 284.953 179.962 284.319 179.571 283.929C179.181 283.538 178.547 283.538 178.157 283.929L172.5 289.586L166.843 283.929C166.453 283.538 165.819 283.538 165.429 283.929C165.038 284.319 165.038 284.953 165.429 285.343L171.793 291.707ZM173.207 263.293C172.817 262.902 172.183 262.902 171.793 263.293L165.429 269.657C165.038 270.047 165.038 270.681 165.429 271.071C165.819 271.462 166.453 271.462 166.843 271.071L172.5 265.414L178.157 271.071C178.547 271.462 179.181 271.462 179.571 271.071C179.962 270.681 179.962 270.047 179.571 269.657L173.207 263.293ZM173.5 291L173.5 264L171.5 264L171.5 291L173.5 291Z" fill="#18181B"/>
<rect x="63" y="291" width="219" height="38" rx="4" fill="#4C7C2C"/>
<path d="M156.742 305.028H149.884V307.71H156.094V310.104H149.884V315H147.22V302.634H156.742V305.028ZM159.87 304.416C159.06 304.416 158.43 303.768 158.43 302.976C158.43 302.238 159.06 301.572 159.87 301.572C160.644 301.572 161.274 302.238 161.274 302.976C161.274 303.768 160.644 304.416 159.87 304.416ZM158.538 315V305.694H161.166V315H158.538ZM163.46 315V302.418H166.088V315H163.46ZM173.278 312.696L173.908 314.406C173.368 314.892 172.522 315.216 171.766 315.216C170.128 315.216 168.976 314.046 168.976 312.372V307.818H167.698V305.694H168.976V303.138H171.496V305.694H173.512V307.818H171.496V311.958C171.496 312.57 171.892 313.002 172.378 313.002C172.738 313.002 173.098 312.876 173.278 312.696ZM179.946 312.894C180.684 312.894 181.584 312.552 182.088 312.066L183.762 313.776C182.934 314.64 181.332 315.216 179.964 315.216C177.192 315.216 175.032 313.182 175.032 310.32C175.032 307.512 177.102 305.478 179.82 305.478C182.736 305.478 184.446 307.692 184.446 311.202H177.732C178.038 312.21 178.848 312.894 179.946 312.894ZM179.928 307.8C178.938 307.8 178.11 308.376 177.768 309.312H181.926C181.674 308.394 180.99 307.8 179.928 307.8ZM188.852 307.422C189.464 306.216 190.616 305.478 192.038 305.478V307.692C190.094 307.692 188.852 308.808 188.852 310.554V315H186.224V305.694H188.852V307.422ZM192.877 319V317.704L195.61 315.587C196.495 314.885 196.776 314.399 196.776 313.881C196.776 313.265 196.258 312.898 195.653 312.898C194.929 312.898 194.378 313.265 193.838 313.881L192.823 312.898C193.558 311.969 194.497 311.451 195.696 311.451C197.273 311.451 198.418 312.423 198.418 313.816C198.418 314.81 197.986 315.576 196.69 316.516L195.34 317.564H198.482V319H192.877Z" fill="white"/>
<path d="M171.793 356.707C172.183 357.098 172.817 357.098 173.207 356.707L179.571 350.343C179.962 349.953 179.962 349.319 179.571 348.929C179.181 348.538 178.547 348.538 178.157 348.929L172.5 354.586L166.843 348.929C166.453 348.538 165.819 348.538 165.429 348.929C165.038 349.319 165.038 349.953 165.429 350.343L171.793 356.707ZM173.207 328.293C172.817 327.902 172.183 327.902 171.793 328.293L165.429 334.657C165.038 335.047 165.038 335.681 165.429 336.071C165.819 336.462 166.453 336.462 166.843 336.071L172.5 330.414L178.157 336.071C178.547 336.462 179.181 336.462 179.571 336.071C179.962 335.681 179.962 335.047 179.571 334.657L173.207 328.293ZM173.5 356L173.5 329L171.5 329L171.5 356L173.5 356Z" fill="#18181B"/>
<rect x="63" y="356" width="219" height="38" rx="4" fill="#4C7C2C"/>
<path d="M146.869 380.216C144.727 380.216 142.819 379.496 141.379 378.164L142.909 376.346C144.079 377.354 145.411 377.966 146.977 377.966C148.309 377.966 148.993 377.354 148.993 376.58C148.993 375.698 148.273 375.428 146.383 374.996C143.773 374.402 141.919 373.664 141.919 371.27C141.919 368.984 143.791 367.418 146.491 367.418C148.507 367.418 150.073 368.048 151.333 369.128L149.947 371.036C148.849 370.154 147.607 369.668 146.419 369.668C145.285 369.668 144.601 370.262 144.601 371C144.601 371.9 145.339 372.188 147.247 372.62C149.911 373.214 151.675 374.006 151.675 376.292C151.675 378.65 149.893 380.216 146.869 380.216ZM157.899 377.894C158.637 377.894 159.537 377.552 160.041 377.066L161.715 378.776C160.887 379.64 159.285 380.216 157.917 380.216C155.145 380.216 152.985 378.182 152.985 375.32C152.985 372.512 155.055 370.478 157.773 370.478C160.689 370.478 162.399 372.692 162.399 376.202H155.685C155.991 377.21 156.801 377.894 157.899 377.894ZM157.881 372.8C156.891 372.8 156.063 373.376 155.721 374.312H159.879C159.627 373.394 158.943 372.8 157.881 372.8ZM166.805 372.422C167.417 371.216 168.569 370.478 169.991 370.478V372.692C168.047 372.692 166.805 373.808 166.805 375.554V380H164.177V370.694H166.805V372.422ZM174.621 380L170.589 370.694H173.343L175.845 376.976L178.293 370.694H181.029L177.051 380H174.621ZM182.423 380V367.418H185.051V380H182.423ZM191.737 377.894C192.475 377.894 193.375 377.552 193.879 377.066L195.553 378.776C194.725 379.64 193.123 380.216 191.755 380.216C188.983 380.216 186.823 378.182 186.823 375.32C186.823 372.512 188.893 370.478 191.611 370.478C194.527 370.478 196.237 372.692 196.237 376.202H189.523C189.829 377.21 190.639 377.894 191.737 377.894ZM191.719 372.8C190.729 372.8 189.901 373.376 189.559 374.312H193.717C193.465 373.394 192.781 372.8 191.719 372.8ZM202.911 377.696L203.541 379.406C203.001 379.892 202.155 380.216 201.399 380.216C199.761 380.216 198.609 379.046 198.609 377.372V372.818H197.331V370.694H198.609V368.138H201.129V370.694H203.145V372.818H201.129V376.958C201.129 377.57 201.525 378.002 202.011 378.002C202.371 378.002 202.731 377.876 202.911 377.696Z" fill="white"/>
<rect x="47.5" y="99.5" width="250" height="310" rx="3.5" stroke="#18181B" stroke-dasharray="2 2"/>
<path d="M465.109 93.198C463.039 93.198 461.329 92.478 460.015 91.218L461.113 89.868C462.211 90.912 463.507 91.596 465.181 91.596C466.891 91.596 467.773 90.696 467.773 89.706C467.773 88.536 466.747 88.086 464.677 87.618C462.157 87.024 460.483 86.268 460.483 84.036C460.483 81.966 462.283 80.4 464.767 80.4C466.675 80.4 468.097 81.102 469.285 82.146L468.241 83.514C467.197 82.56 465.955 82.002 464.695 82.002C463.309 82.002 462.337 82.884 462.337 83.874C462.337 85.026 463.399 85.422 465.433 85.908C467.899 86.484 469.609 87.312 469.609 89.526C469.609 91.614 468.025 93.198 465.109 93.198ZM476.055 91.632C477.027 91.632 478.161 91.2 478.719 90.624L479.835 91.776C479.007 92.658 477.387 93.216 476.073 93.216C473.481 93.216 471.285 91.182 471.285 88.32C471.285 85.53 473.355 83.478 475.929 83.478C478.773 83.478 480.411 85.638 480.411 88.968H473.085C473.319 90.516 474.453 91.632 476.055 91.632ZM476.001 85.062C474.561 85.062 473.391 86.034 473.103 87.546H478.683C478.485 86.106 477.603 85.062 476.001 85.062ZM486.869 93.216C484.223 93.216 481.973 90.984 481.973 88.338C481.973 85.692 484.223 83.478 486.887 83.478C488.219 83.478 489.425 84.036 490.307 84.918L489.101 86.034C488.543 85.404 487.733 85.026 486.869 85.026C485.177 85.026 483.773 86.538 483.773 88.338C483.773 90.156 485.177 91.668 486.887 91.668C487.751 91.668 488.579 91.272 489.155 90.624L490.361 91.722C489.461 92.64 488.255 93.216 486.869 93.216ZM498.676 83.694H500.458V93H498.676V91.65C498.118 92.568 496.984 93.216 495.724 93.216C493.672 93.216 492.232 91.722 492.232 89.616V83.694H493.978V89.31C493.978 90.696 494.86 91.668 496.12 91.668C497.416 91.668 498.532 90.822 498.676 89.724V83.694ZM504.915 85.476C505.509 84.252 506.769 83.478 508.371 83.478V85.026C506.445 85.026 505.077 86.088 504.915 87.708V93H503.133V83.694H504.915V85.476ZM510.991 82.146C510.379 82.146 509.911 81.642 509.911 81.066C509.911 80.508 510.379 80.004 510.991 80.004C511.567 80.004 512.053 80.508 512.053 81.066C512.053 81.642 511.567 82.146 510.991 82.146ZM510.091 93V83.694H511.873V93H510.091ZM518.807 91.326L519.455 92.55C518.951 92.964 518.267 93.216 517.601 93.216C516.161 93.216 515.153 92.172 515.153 90.678V85.206H513.749V83.694H515.153V81.138H516.899V83.694H519.095V85.206H516.899V90.552C516.899 91.2 517.331 91.668 517.853 91.668C518.249 91.668 518.609 91.524 518.807 91.326ZM522.91 96.24C522.28 96.24 521.632 96.096 521.146 95.844L521.542 94.476C521.902 94.674 522.316 94.764 522.676 94.764C523.252 94.764 523.648 94.584 523.954 94.044L524.422 93.054L520.426 83.694H522.334L525.322 91.038L528.148 83.694H530.002L525.898 93.846C525.232 95.52 524.242 96.222 522.91 96.24ZM541.138 82.326H533.884V85.926H540.436V87.618H533.884V93H532.048V80.634H541.138V82.326ZM543.986 82.146C543.374 82.146 542.906 81.642 542.906 81.066C542.906 80.508 543.374 80.004 543.986 80.004C544.562 80.004 545.048 80.508 545.048 81.066C545.048 81.642 544.562 82.146 543.986 82.146ZM543.086 93V83.694H544.868V93H543.086ZM547.445 93V80.418H549.209V93H547.445ZM556.161 91.326L556.809 92.55C556.305 92.964 555.621 93.216 554.955 93.216C553.515 93.216 552.507 92.172 552.507 90.678V85.206H551.103V83.694H552.507V81.138H554.253V83.694H556.449V85.206H554.253V90.552C554.253 91.2 554.685 91.668 555.207 91.668C555.603 91.668 555.963 91.524 556.161 91.326ZM562.891 91.632C563.863 91.632 564.997 91.2 565.555 90.624L566.671 91.776C565.843 92.658 564.223 93.216 562.909 93.216C560.317 93.216 558.121 91.182 558.121 88.32C558.121 85.53 560.191 83.478 562.765 83.478C565.609 83.478 567.247 85.638 567.247 88.968H559.921C560.155 90.516 561.289 91.632 562.891 91.632ZM562.837 85.062C561.397 85.062 560.227 86.034 559.939 87.546H565.519C565.321 86.106 564.439 85.062 562.837 85.062ZM571.185 85.476C571.779 84.252 573.039 83.478 574.641 83.478V85.026C572.715 85.026 571.347 86.088 571.185 87.708V93H569.403V83.694H571.185V85.476ZM582.373 93.216C578.899 93.216 575.947 90.282 575.947 86.808C575.947 83.334 578.899 80.418 582.373 80.418C584.137 80.418 585.757 81.156 586.927 82.362L585.649 83.586C584.821 82.686 583.651 82.092 582.373 82.092C579.907 82.092 577.819 84.252 577.819 86.808C577.819 89.382 579.907 91.542 582.373 91.542C583.651 91.542 584.821 90.948 585.649 90.048L586.927 91.272C585.757 92.46 584.137 93.216 582.373 93.216ZM593.435 83.478C595.487 83.478 596.927 84.972 596.927 87.078V93H595.181V87.384C595.181 85.998 594.299 85.026 593.039 85.026C591.635 85.026 590.465 86.016 590.465 87.222V93H588.701V80.418H590.465V85.08C591.023 84.144 592.157 83.478 593.435 83.478ZM603.383 83.478C605.885 83.478 607.271 85.062 607.271 87.366V93H605.525V91.722C604.841 92.694 603.563 93.216 602.429 93.216C600.449 93.216 598.991 92.064 598.991 90.246C598.991 88.392 600.665 87.15 602.717 87.15C603.635 87.15 604.625 87.348 605.525 87.654V87.366C605.525 86.196 604.985 84.954 603.131 84.954C602.213 84.954 601.313 85.314 600.503 85.728L599.855 84.414C601.187 83.748 602.357 83.478 603.383 83.478ZM602.771 91.812C603.923 91.812 605.219 91.236 605.525 90.084V88.842C604.769 88.608 603.905 88.482 602.987 88.482C601.745 88.482 600.701 89.184 600.701 90.192C600.701 91.2 601.601 91.812 602.771 91.812ZM610.73 82.146C610.118 82.146 609.65 81.642 609.65 81.066C609.65 80.508 610.118 80.004 610.73 80.004C611.306 80.004 611.792 80.508 611.792 81.066C611.792 81.642 611.306 82.146 610.73 82.146ZM609.83 93V83.694H611.612V93H609.83ZM618.924 83.478C620.976 83.478 622.416 84.972 622.416 87.078V93H620.67V87.384C620.67 85.998 619.788 85.026 618.528 85.026C617.232 85.026 616.116 85.872 615.972 86.97V93H614.19V83.694H615.972V85.044C616.53 84.126 617.664 83.478 618.924 83.478Z" fill="#18181B"/>
<rect x="475" y="119" width="205" height="38" rx="4" fill="#4C7C2C"/>
<path d="M517.277 143.216C515.135 143.216 513.227 142.496 511.787 141.164L513.317 139.346C514.487 140.354 515.819 140.966 517.385 140.966C518.717 140.966 519.401 140.354 519.401 139.58C519.401 138.698 518.681 138.428 516.791 137.996C514.181 137.402 512.327 136.664 512.327 134.27C512.327 131.984 514.199 130.418 516.899 130.418C518.915 130.418 520.481 131.048 521.741 132.128L520.355 134.036C519.257 133.154 518.015 132.668 516.827 132.668C515.693 132.668 515.009 133.262 515.009 134C515.009 134.9 515.747 135.188 517.655 135.62C520.319 136.214 522.083 137.006 522.083 139.292C522.083 141.65 520.301 143.216 517.277 143.216ZM528.307 140.894C529.045 140.894 529.945 140.552 530.449 140.066L532.123 141.776C531.295 142.64 529.693 143.216 528.325 143.216C525.553 143.216 523.393 141.182 523.393 138.32C523.393 135.512 525.463 133.478 528.181 133.478C531.097 133.478 532.807 135.692 532.807 139.202H526.093C526.399 140.21 527.209 140.894 528.307 140.894ZM528.289 135.8C527.299 135.8 526.471 136.376 526.129 137.312H530.287C530.035 136.394 529.351 135.8 528.289 135.8ZM539.139 143.216C536.385 143.216 534.063 140.984 534.063 138.338C534.063 135.692 536.403 133.478 539.157 133.478C540.669 133.478 541.911 134.09 542.811 135.062L541.065 136.556C540.597 136.034 539.859 135.692 539.139 135.692C537.771 135.692 536.619 136.898 536.619 138.32C536.619 139.778 537.771 141.002 539.157 141.002C539.877 141.002 540.633 140.642 541.119 140.102L542.865 141.578C541.947 142.586 540.687 143.216 539.139 143.216ZM550.621 133.694H553.249V143H550.621V141.83C550.063 142.676 549.019 143.216 547.813 143.216C545.797 143.216 544.357 141.722 544.357 139.616V133.694H546.895V139.058C546.895 140.21 547.615 141.002 548.659 141.002C549.757 141.002 550.603 140.21 550.603 139.202L550.621 139.256V133.694ZM558.131 135.422C558.743 134.216 559.895 133.478 561.317 133.478V135.692C559.373 135.692 558.131 136.808 558.131 138.554V143H555.503V133.694H558.131V135.422ZM564.147 132.416C563.337 132.416 562.707 131.768 562.707 130.976C562.707 130.238 563.337 129.572 564.147 129.572C564.921 129.572 565.551 130.238 565.551 130.976C565.551 131.768 564.921 132.416 564.147 132.416ZM562.815 143V133.694H565.443V143H562.815ZM572.634 140.696L573.264 142.406C572.724 142.892 571.878 143.216 571.122 143.216C569.484 143.216 568.332 142.046 568.332 140.372V135.818H567.054V133.694H568.332V131.138H570.852V133.694H572.868V135.818H570.852V139.958C570.852 140.57 571.248 141.002 571.734 141.002C572.094 141.002 572.454 140.876 572.634 140.696ZM577.034 146.24C576.26 146.24 575.324 146.006 574.694 145.664L575.252 143.864C575.702 144.116 576.17 144.278 576.476 144.278C576.98 144.278 577.376 144.116 577.574 143.774L577.898 143.09L574.028 133.694H576.746L579.194 140.228L581.516 133.694H584.198L580.382 143.468C579.68 145.286 578.492 146.24 577.034 146.24ZM600.342 133.028H593.484V135.71H599.694V138.104H593.484V143H590.82V130.634H600.342V133.028ZM603.47 132.416C602.66 132.416 602.03 131.768 602.03 130.976C602.03 130.238 602.66 129.572 603.47 129.572C604.244 129.572 604.874 130.238 604.874 130.976C604.874 131.768 604.244 132.416 603.47 132.416ZM602.138 143V133.694H604.766V143H602.138ZM607.06 143V130.418H609.688V143H607.06ZM616.878 140.696L617.508 142.406C616.968 142.892 616.122 143.216 615.366 143.216C613.728 143.216 612.576 142.046 612.576 140.372V135.818H611.298V133.694H612.576V131.138H615.096V133.694H617.112V135.818H615.096V139.958C615.096 140.57 615.492 141.002 615.978 141.002C616.338 141.002 616.698 140.876 616.878 140.696ZM623.546 140.894C624.284 140.894 625.184 140.552 625.688 140.066L627.362 141.776C626.534 142.64 624.932 143.216 623.564 143.216C620.792 143.216 618.632 141.182 618.632 138.32C618.632 135.512 620.702 133.478 623.42 133.478C626.336 133.478 628.046 135.692 628.046 139.202H621.332C621.638 140.21 622.448 140.894 623.546 140.894ZM623.528 135.8C622.538 135.8 621.71 136.376 621.368 137.312H625.526C625.274 136.394 624.59 135.8 623.528 135.8ZM632.452 135.422C633.064 134.216 634.216 133.478 635.638 133.478V135.692C633.694 135.692 632.452 136.808 632.452 138.554V143H629.824V133.694H632.452V135.422ZM639.814 147.13C637.859 147.13 636.488 145.542 636.488 143.285C636.488 141.038 637.859 139.451 639.814 139.451C641.769 139.451 643.151 141.038 643.151 143.285C643.151 145.542 641.769 147.13 639.814 147.13ZM639.814 145.682C640.819 145.682 641.51 144.678 641.51 143.285C641.51 141.892 640.819 140.898 639.814 140.898C638.821 140.898 638.119 141.892 638.119 143.285C638.119 144.678 638.821 145.682 639.814 145.682Z" fill="white"/>
<path d="M576.793 203.707C577.183 204.098 577.817 204.098 578.207 203.707L584.571 197.343C584.962 196.953 584.962 196.319 584.571 195.929C584.181 195.538 583.547 195.538 583.157 195.929L577.5 201.586L571.843 195.929C571.453 195.538 570.819 195.538 570.429 195.929C570.038 196.319 570.038 196.953 570.429 197.343L576.793 203.707ZM578.207 157.293C577.817 156.902 577.183 156.902 576.793 157.293L570.429 163.657C570.038 164.047 570.038 164.681 570.429 165.071C570.819 165.462 571.453 165.462 571.843 165.071L577.5 159.414L583.157 165.071C583.547 165.462 584.181 165.462 584.571 165.071C584.962 164.681 584.962 164.047 584.571 163.657L578.207 157.293ZM578.5 203L578.5 158L576.5 158L576.5 203L578.5 203Z" fill="#18181B"/>
<rect x="540" y="204" width="75" height="12" rx="2" fill="#4C7C2C"/>
<rect x="540" y="222" width="75" height="12" rx="2" fill="#4C7C2C"/>
<rect x="540" y="240" width="75" height="12" rx="2" fill="#4C7C2C"/>
<path d="M576.793 298.707C577.183 299.098 577.817 299.098 578.207 298.707L584.571 292.343C584.962 291.953 584.962 291.319 584.571 290.929C584.181 290.538 583.547 290.538 583.157 290.929L577.5 296.586L571.843 290.929C571.453 290.538 570.819 290.538 570.429 290.929C570.038 291.319 570.038 291.953 570.429 292.343L576.793 298.707ZM578.207 252.293C577.817 251.902 577.183 251.902 576.793 252.293L570.429 258.657C570.038 259.047 570.038 259.681 570.429 260.071C570.819 260.462 571.453 260.462 571.843 260.071L577.5 254.414L583.157 260.071C583.547 260.462 584.181 260.462 584.571 260.071C584.962 259.681 584.962 259.047 584.571 258.657L578.207 252.293ZM578.5 298L578.5 253L576.5 253L576.5 298L578.5 298Z" fill="#18181B"/>
<rect x="475" y="299" width="205" height="38" rx="4" fill="#4C7C2C"/>
<path d="M517.773 323.216C515.631 323.216 513.723 322.496 512.283 321.164L513.813 319.346C514.983 320.354 516.315 320.966 517.881 320.966C519.213 320.966 519.897 320.354 519.897 319.58C519.897 318.698 519.177 318.428 517.287 317.996C514.677 317.402 512.823 316.664 512.823 314.27C512.823 311.984 514.695 310.418 517.395 310.418C519.411 310.418 520.977 311.048 522.237 312.128L520.851 314.036C519.753 313.154 518.511 312.668 517.323 312.668C516.189 312.668 515.505 313.262 515.505 314C515.505 314.9 516.243 315.188 518.151 315.62C520.815 316.214 522.579 317.006 522.579 319.292C522.579 321.65 520.797 323.216 517.773 323.216ZM528.803 320.894C529.541 320.894 530.441 320.552 530.945 320.066L532.619 321.776C531.791 322.64 530.189 323.216 528.821 323.216C526.049 323.216 523.889 321.182 523.889 318.32C523.889 315.512 525.959 313.478 528.677 313.478C531.593 313.478 533.303 315.692 533.303 319.202H526.589C526.895 320.21 527.705 320.894 528.803 320.894ZM528.785 315.8C527.795 315.8 526.967 316.376 526.625 317.312H530.783C530.531 316.394 529.847 315.8 528.785 315.8ZM539.635 323.216C536.881 323.216 534.559 320.984 534.559 318.338C534.559 315.692 536.899 313.478 539.653 313.478C541.165 313.478 542.407 314.09 543.307 315.062L541.561 316.556C541.093 316.034 540.355 315.692 539.635 315.692C538.267 315.692 537.115 316.898 537.115 318.32C537.115 319.778 538.267 321.002 539.653 321.002C540.373 321.002 541.129 320.642 541.615 320.102L543.361 321.578C542.443 322.586 541.183 323.216 539.635 323.216ZM551.116 313.694H553.744V323H551.116V321.83C550.558 322.676 549.514 323.216 548.308 323.216C546.292 323.216 544.852 321.722 544.852 319.616V313.694H547.39V319.058C547.39 320.21 548.11 321.002 549.154 321.002C550.252 321.002 551.098 320.21 551.098 319.202L551.116 319.256V313.694ZM558.627 315.422C559.239 314.216 560.391 313.478 561.813 313.478V315.692C559.869 315.692 558.627 316.808 558.627 318.554V323H555.999V313.694H558.627V315.422ZM564.643 312.416C563.833 312.416 563.203 311.768 563.203 310.976C563.203 310.238 563.833 309.572 564.643 309.572C565.417 309.572 566.047 310.238 566.047 310.976C566.047 311.768 565.417 312.416 564.643 312.416ZM563.311 323V313.694H565.939V323H563.311ZM573.129 320.696L573.759 322.406C573.219 322.892 572.373 323.216 571.617 323.216C569.979 323.216 568.827 322.046 568.827 320.372V315.818H567.549V313.694H568.827V311.138H571.347V313.694H573.363V315.818H571.347V319.958C571.347 320.57 571.743 321.002 572.229 321.002C572.589 321.002 572.949 320.876 573.129 320.696ZM577.529 326.24C576.755 326.24 575.819 326.006 575.189 325.664L575.747 323.864C576.197 324.116 576.665 324.278 576.971 324.278C577.475 324.278 577.871 324.116 578.069 323.774L578.393 323.09L574.523 313.694H577.241L579.689 320.228L582.011 313.694H584.693L580.877 323.468C580.175 325.286 578.987 326.24 577.529 326.24ZM600.837 313.028H593.979V315.71H600.189V318.104H593.979V323H591.315V310.634H600.837V313.028ZM603.965 312.416C603.155 312.416 602.525 311.768 602.525 310.976C602.525 310.238 603.155 309.572 603.965 309.572C604.739 309.572 605.369 310.238 605.369 310.976C605.369 311.768 604.739 312.416 603.965 312.416ZM602.633 323V313.694H605.261V323H602.633ZM607.556 323V310.418H610.184V323H607.556ZM617.374 320.696L618.004 322.406C617.464 322.892 616.618 323.216 615.862 323.216C614.224 323.216 613.072 322.046 613.072 320.372V315.818H611.794V313.694H613.072V311.138H615.592V313.694H617.608V315.818H615.592V319.958C615.592 320.57 615.988 321.002 616.474 321.002C616.834 321.002 617.194 320.876 617.374 320.696ZM624.041 320.894C624.779 320.894 625.679 320.552 626.183 320.066L627.857 321.776C627.029 322.64 625.427 323.216 624.059 323.216C621.287 323.216 619.127 321.182 619.127 318.32C619.127 315.512 621.197 313.478 623.915 313.478C626.831 313.478 628.541 315.692 628.541 319.202H621.827C622.133 320.21 622.943 320.894 624.041 320.894ZM624.023 315.8C623.033 315.8 622.205 316.376 621.863 317.312H626.021C625.769 316.394 625.085 315.8 624.023 315.8ZM632.947 315.422C633.559 314.216 634.711 313.478 636.133 313.478V315.692C634.189 315.692 632.947 316.808 632.947 318.554V323H630.319V313.694H632.947V315.422ZM640.418 321.287C641.627 321.287 642.491 322.183 642.491 323.447V327H640.969V323.782C640.969 323.09 640.537 322.615 639.91 322.615C639.251 322.615 638.744 323.09 638.744 323.695L638.733 323.663V327H637.156V321.416H638.733V322.118C639.068 321.611 639.694 321.287 640.418 321.287Z" fill="white"/>
<rect x="459.5" y="103.5" width="236" height="249" rx="3.5" stroke="#18181B" stroke-dasharray="2 2"/>
<path d="M172.293 115.707C172.683 116.098 173.317 116.098 173.707 115.707L180.071 109.343C180.462 108.953 180.462 108.319 180.071 107.929C179.681 107.538 179.047 107.538 178.657 107.929L173 113.586L167.343 107.929C166.953 107.538 166.319 107.538 165.929 107.929C165.538 108.319 165.538 108.953 165.929 109.343L172.293 115.707ZM173.707 58.2929C173.317 57.9024 172.683 57.9024 172.293 58.2929L165.929 64.6569C165.538 65.0474 165.538 65.6805 165.929 66.0711C166.319 66.4616 166.953 66.4616 167.343 66.0711L173 60.4142L178.657 66.0711C179.047 66.4616 179.681 66.4616 180.071 66.0711C180.462 65.6805 180.462 65.0474 180.071 64.6569L173.707 58.2929ZM174 115L174 59L172 59L172 115L174 115Z" fill="#18181B"/>
<path d="M459.707 226.707C460.098 226.317 460.098 225.683 459.707 225.293L453.343 218.929C452.953 218.538 452.319 218.538 451.929 218.929C451.538 219.319 451.538 219.953 451.929 220.343L457.586 226L451.929 231.657C451.538 232.047 451.538 232.681 451.929 233.071C452.319 233.462 452.953 233.462 453.343 233.071L459.707 226.707ZM282 227H459V225H282V227Z" fill="#18181B"/>
</g>
<defs>
<clipPath id="clip0_421_788">
<rect width="743" height="431" fill="white"/>
</clipPath>
</defs>
</svg>
