<svg width="336" height="190" viewBox="0 0 336 190" fill="none" xmlns="http://www.w3.org/2000/svg">
<path d="M0 4.00001C0 1.79087 1.79086 0 4 0H332C334.209 0 336 1.79086 336 4V186C336 188.209 334.209 190 332 190H4C1.79087 190 0 188.209 0 186V4.00001Z" fill="#E4E4E7"/>
<path d="M129.965 106.548C129.965 107.024 130.351 107.412 130.826 107.412C131.302 107.412 131.688 107.021 131.688 106.548C131.688 106.077 131.302 105.691 130.826 105.691C130.351 105.691 129.965 106.077 129.965 106.548Z" fill="#18181B"/>
<path d="M128.676 110.679C129.152 110.679 129.537 110.293 129.537 109.817C129.537 109.341 129.152 108.956 128.676 108.956C128.2 108.956 127.814 109.341 127.814 109.817C127.814 110.293 128.2 110.679 128.676 110.679Z" fill="#18181B"/>
<path d="M126.532 113.95C127.008 113.95 127.394 113.564 127.394 113.089C127.394 112.613 127.008 112.227 126.532 112.227C126.057 112.227 125.671 112.613 125.671 113.089C125.671 113.564 126.057 113.95 126.532 113.95Z" fill="#18181B"/>
<path d="M130.824 113.95C131.3 113.95 131.685 113.564 131.685 113.089C131.685 112.613 131.3 112.227 130.824 112.227C130.348 112.227 129.962 112.613 129.962 113.089C129.962 113.564 130.348 113.95 130.824 113.95Z" fill="#18181B"/>
<path d="M124.382 117.221C124.858 117.221 125.244 116.836 125.244 116.36C125.244 115.884 124.858 115.498 124.382 115.498C123.906 115.498 123.521 115.884 123.521 116.36C123.521 116.836 123.906 117.221 124.382 117.221Z" fill="#18181B"/>
<path d="M128.676 117.221C129.152 117.221 129.537 116.836 129.537 116.36C129.537 115.884 129.152 115.498 128.676 115.498C128.2 115.498 127.814 115.884 127.814 116.36C127.814 116.836 128.2 117.221 128.676 117.221Z" fill="#18181B"/>
<path d="M134.256 106.548C134.256 107.024 134.642 107.412 135.117 107.412C135.593 107.412 135.979 107.021 135.979 106.548C135.979 106.077 135.593 105.691 135.117 105.691C134.642 105.691 134.256 106.077 134.256 106.548Z" fill="#18181B"/>
<path d="M132.969 110.679C133.445 110.679 133.831 110.293 133.831 109.817C133.831 109.341 133.445 108.956 132.969 108.956C132.494 108.956 132.108 109.341 132.108 109.817C132.108 110.293 132.494 110.679 132.969 110.679Z" fill="#18181B"/>
<path d="M137.263 110.679C137.739 110.679 138.125 110.293 138.125 109.817C138.125 109.341 137.739 108.956 137.263 108.956C136.787 108.956 136.402 109.341 136.402 109.817C136.402 110.293 136.787 110.679 137.263 110.679Z" fill="#18181B"/>
<path d="M135.117 113.95C135.593 113.95 135.979 113.564 135.979 113.089C135.979 112.613 135.593 112.227 135.117 112.227C134.642 112.227 134.256 112.613 134.256 113.089C134.256 113.564 134.642 113.95 135.117 113.95Z" fill="#18181B"/>
<path d="M139.411 113.95C139.887 113.95 140.273 113.564 140.273 113.089C140.273 112.613 139.887 112.227 139.411 112.227C138.935 112.227 138.55 112.613 138.55 113.089C138.55 113.564 138.935 113.95 139.411 113.95Z" fill="#18181B"/>
<path d="M132.969 117.221C133.445 117.221 133.831 116.836 133.831 116.36C133.831 115.884 133.445 115.498 132.969 115.498C132.494 115.498 132.108 115.884 132.108 116.36C132.108 116.836 132.494 117.221 132.969 117.221Z" fill="#18181B"/>
<path d="M137.263 117.221C137.739 117.221 138.125 116.836 138.125 116.36C138.125 115.884 137.739 115.498 137.263 115.498C136.787 115.498 136.402 115.884 136.402 116.36C136.402 116.836 136.787 117.221 137.263 117.221Z" fill="#18181B"/>
<path d="M141.555 117.221C142.03 117.221 142.416 116.836 142.416 116.36C142.416 115.884 142.03 115.498 141.555 115.498C141.079 115.498 140.693 115.884 140.693 116.36C140.693 116.836 141.079 117.221 141.555 117.221Z" fill="#18181B"/>
<path d="M126.532 120.49C127.008 120.49 127.394 120.105 127.394 119.629C127.394 119.153 127.008 118.767 126.532 118.767C126.057 118.767 125.671 119.153 125.671 119.629C125.671 120.105 126.057 120.49 126.532 120.49Z" fill="#18181B"/>
<path d="M130.824 120.49C131.3 120.49 131.685 120.105 131.685 119.629C131.685 119.153 131.3 118.767 130.824 118.767C130.348 118.767 129.962 119.153 129.962 119.629C129.962 120.105 130.348 120.49 130.824 120.49Z" fill="#18181B"/>
<path d="M124.382 123.762C124.858 123.762 125.244 123.376 125.244 122.9C125.244 122.425 124.858 122.039 124.382 122.039C123.906 122.039 123.521 122.425 123.521 122.9C123.521 123.376 123.906 123.762 124.382 123.762Z" fill="#18181B"/>
<path d="M128.676 123.762C129.152 123.762 129.537 123.376 129.537 122.9C129.537 122.425 129.152 122.039 128.676 122.039C128.2 122.039 127.814 122.425 127.814 122.9C127.814 123.376 128.2 123.762 128.676 123.762Z" fill="#18181B"/>
<path d="M126.532 127.031C127.008 127.031 127.394 126.645 127.394 126.169C127.394 125.694 127.008 125.308 126.532 125.308C126.057 125.308 125.671 125.694 125.671 126.169C125.671 126.645 126.057 127.031 126.532 127.031Z" fill="#18181B"/>
<path d="M130.824 127.031C131.3 127.031 131.685 126.645 131.685 126.169C131.685 125.694 131.3 125.308 130.824 125.308C130.348 125.308 129.962 125.694 129.962 126.169C129.962 126.645 130.348 127.031 130.824 127.031Z" fill="#18181B"/>
<path d="M128.676 130.298C129.152 130.298 129.537 129.912 129.537 129.436C129.537 128.96 129.152 128.575 128.676 128.575C128.2 128.575 127.814 128.96 127.814 129.436C127.814 129.912 128.2 130.298 128.676 130.298Z" fill="#18181B"/>
<path d="M130.824 133.569C131.3 133.569 131.685 133.183 131.685 132.708C131.685 132.232 131.3 131.846 130.824 131.846C130.348 131.846 129.962 132.232 129.962 132.708C129.962 133.183 130.348 133.569 130.824 133.569Z" fill="#18181B"/>
<path d="M135.117 120.49C135.593 120.49 135.979 120.105 135.979 119.629C135.979 119.153 135.593 118.767 135.117 118.767C134.642 118.767 134.256 119.153 134.256 119.629C134.256 120.105 134.642 120.49 135.117 120.49Z" fill="#18181B"/>
<path d="M139.411 120.49C139.887 120.49 140.273 120.105 140.273 119.629C140.273 119.153 139.887 118.767 139.411 118.767C138.935 118.767 138.55 119.153 138.55 119.629C138.55 120.105 138.935 120.49 139.411 120.49Z" fill="#18181B"/>
<path d="M143.705 120.49C144.181 120.49 144.566 120.105 144.566 119.629C144.566 119.153 144.181 118.767 143.705 118.767C143.229 118.767 142.843 119.153 142.843 119.629C142.843 120.105 143.229 120.49 143.705 120.49Z" fill="#18181B"/>
<path d="M132.969 123.762C133.445 123.762 133.831 123.376 133.831 122.9C133.831 122.425 133.445 122.039 132.969 122.039C132.494 122.039 132.108 122.425 132.108 122.9C132.108 123.376 132.494 123.762 132.969 123.762Z" fill="#18181B"/>
<path d="M137.263 123.762C137.739 123.762 138.125 123.376 138.125 122.9C138.125 122.425 137.739 122.039 137.263 122.039C136.787 122.039 136.402 122.425 136.402 122.9C136.402 123.376 136.787 123.762 137.263 123.762Z" fill="#18181B"/>
<path d="M141.555 123.762C142.03 123.762 142.416 123.376 142.416 122.9C142.416 122.425 142.03 122.039 141.555 122.039C141.079 122.039 140.693 122.425 140.693 122.9C140.693 123.376 141.079 123.762 141.555 123.762Z" fill="#18181B"/>
<path d="M145.848 123.762C146.324 123.762 146.71 123.376 146.71 122.9C146.71 122.425 146.324 122.039 145.848 122.039C145.372 122.039 144.987 122.425 144.987 122.9C144.987 123.376 145.372 123.762 145.848 123.762Z" fill="#18181B"/>
<path d="M135.117 127.031C135.593 127.031 135.979 126.645 135.979 126.169C135.979 125.694 135.593 125.308 135.117 125.308C134.642 125.308 134.256 125.694 134.256 126.169C134.256 126.645 134.642 127.031 135.117 127.031Z" fill="#18181B"/>
<path d="M139.411 127.031C139.887 127.031 140.273 126.645 140.273 126.169C140.273 125.694 139.887 125.308 139.411 125.308C138.935 125.308 138.55 125.694 138.55 126.169C138.55 126.645 138.935 127.031 139.411 127.031Z" fill="#18181B"/>
<path d="M143.705 127.031C144.181 127.031 144.566 126.645 144.566 126.169C144.566 125.694 144.181 125.308 143.705 125.308C143.229 125.308 142.843 125.694 142.843 126.169C142.843 126.645 143.229 127.031 143.705 127.031Z" fill="#18181B"/>
<path d="M147.996 127.031C148.472 127.031 148.858 126.645 148.858 126.169C148.858 125.694 148.472 125.308 147.996 125.308C147.52 125.308 147.135 125.694 147.135 126.169C147.135 126.645 147.52 127.031 147.996 127.031Z" fill="#18181B"/>
<path d="M152.29 127.031C152.766 127.031 153.151 126.645 153.151 126.169C153.151 125.694 152.766 125.308 152.29 125.308C151.814 125.308 151.428 125.694 151.428 126.169C151.428 126.645 151.814 127.031 152.29 127.031Z" fill="#18181B"/>
<path d="M132.969 130.298C133.445 130.298 133.831 129.912 133.831 129.436C133.831 128.96 133.445 128.575 132.969 128.575C132.494 128.575 132.108 128.96 132.108 129.436C132.108 129.912 132.494 130.298 132.969 130.298Z" fill="#18181B"/>
<path d="M137.263 130.298C137.739 130.298 138.125 129.912 138.125 129.436C138.125 128.96 137.739 128.575 137.263 128.575C136.787 128.575 136.402 128.96 136.402 129.436C136.402 129.912 136.787 130.298 137.263 130.298Z" fill="#18181B"/>
<path d="M141.555 130.298C142.03 130.298 142.416 129.912 142.416 129.436C142.416 128.96 142.03 128.575 141.555 128.575C141.079 128.575 140.693 128.96 140.693 129.436C140.693 129.912 141.079 130.298 141.555 130.298Z" fill="#18181B"/>
<path d="M145.848 130.298C146.324 130.298 146.71 129.912 146.71 129.436C146.71 128.96 146.324 128.575 145.848 128.575C145.372 128.575 144.987 128.96 144.987 129.436C144.987 129.912 145.372 130.298 145.848 130.298Z" fill="#18181B"/>
<path d="M150.142 130.298C150.618 130.298 151.003 129.912 151.003 129.436C151.003 128.96 150.618 128.575 150.142 128.575C149.666 128.575 149.28 128.96 149.28 129.436C149.28 129.912 149.666 130.298 150.142 130.298Z" fill="#18181B"/>
<path d="M154.436 130.298C154.911 130.298 155.297 129.912 155.297 129.436C155.297 128.96 154.911 128.575 154.436 128.575C153.96 128.575 153.574 128.96 153.574 129.436C153.574 129.912 153.96 130.298 154.436 130.298Z" fill="#18181B"/>
<path d="M158.727 130.298C159.203 130.298 159.589 129.912 159.589 129.436C159.589 128.96 159.203 128.575 158.727 128.575C158.251 128.575 157.866 128.96 157.866 129.436C157.866 129.912 158.251 130.298 158.727 130.298Z" fill="#18181B"/>
<path d="M135.117 133.569C135.593 133.569 135.979 133.183 135.979 132.708C135.979 132.232 135.593 131.846 135.117 131.846C134.642 131.846 134.256 132.232 134.256 132.708C134.256 133.183 134.642 133.569 135.117 133.569Z" fill="#18181B"/>
<path d="M139.411 133.569C139.887 133.569 140.273 133.183 140.273 132.708C140.273 132.232 139.887 131.846 139.411 131.846C138.935 131.846 138.55 132.232 138.55 132.708C138.55 133.183 138.935 133.569 139.411 133.569Z" fill="#18181B"/>
<path d="M143.705 133.569C144.181 133.569 144.566 133.183 144.566 132.708C144.566 132.232 144.181 131.846 143.705 131.846C143.229 131.846 142.843 132.232 142.843 132.708C142.843 133.183 143.229 133.569 143.705 133.569Z" fill="#18181B"/>
<path d="M147.996 133.569C148.472 133.569 148.858 133.183 148.858 132.708C148.858 132.232 148.472 131.846 147.996 131.846C147.52 131.846 147.135 132.232 147.135 132.708C147.135 133.183 147.52 133.569 147.996 133.569Z" fill="#18181B"/>
<path d="M152.29 133.569C152.766 133.569 153.151 133.183 153.151 132.708C153.151 132.232 152.766 131.846 152.29 131.846C151.814 131.846 151.428 132.232 151.428 132.708C151.428 133.183 151.814 133.569 152.29 133.569Z" fill="#18181B"/>
<path d="M156.584 133.569C157.059 133.569 157.445 133.183 157.445 132.708C157.445 132.232 157.059 131.846 156.584 131.846C156.108 131.846 155.722 132.232 155.722 132.708C155.722 133.183 156.108 133.569 156.584 133.569Z" fill="#18181B"/>
<path d="M160.875 133.569C161.351 133.569 161.737 133.183 161.737 132.708C161.737 132.232 161.351 131.846 160.875 131.846C160.399 131.846 160.014 132.232 160.014 132.708C160.014 133.183 160.399 133.569 160.875 133.569Z" fill="#18181B"/>
<path d="M165.169 133.569C165.645 133.569 166.03 133.183 166.03 132.708C166.03 132.232 165.645 131.846 165.169 131.846C164.693 131.846 164.307 132.232 164.307 132.708C164.307 133.183 164.693 133.569 165.169 133.569Z" fill="#18181B"/>
<path d="M216.686 133.569C217.162 133.569 217.548 133.183 217.548 132.708C217.548 132.232 217.162 131.846 216.686 131.846C216.21 131.846 215.825 132.232 215.825 132.708C215.825 133.183 216.21 133.569 216.686 133.569Z" fill="#18181B"/>
<path d="M137.263 136.838C137.739 136.838 138.125 136.453 138.125 135.977C138.125 135.501 137.739 135.115 137.263 135.115C136.787 135.115 136.402 135.501 136.402 135.977C136.402 136.453 136.787 136.838 137.263 136.838Z" fill="#18181B"/>
<path d="M141.555 136.838C142.03 136.838 142.416 136.453 142.416 135.977C142.416 135.501 142.03 135.115 141.555 135.115C141.079 135.115 140.693 135.501 140.693 135.977C140.693 136.453 141.079 136.838 141.555 136.838Z" fill="#18181B"/>
<path d="M145.848 136.838C146.324 136.838 146.71 136.453 146.71 135.977C146.71 135.501 146.324 135.115 145.848 135.115C145.372 135.115 144.987 135.501 144.987 135.977C144.987 136.453 145.372 136.838 145.848 136.838Z" fill="#18181B"/>
<path d="M150.142 136.838C150.618 136.838 151.003 136.453 151.003 135.977C151.003 135.501 150.618 135.115 150.142 135.115C149.666 135.115 149.28 135.501 149.28 135.977C149.28 136.453 149.666 136.838 150.142 136.838Z" fill="#18181B"/>
<path d="M154.436 136.838C154.911 136.838 155.297 136.453 155.297 135.977C155.297 135.501 154.911 135.115 154.436 135.115C153.96 135.115 153.574 135.501 153.574 135.977C153.574 136.453 153.96 136.838 154.436 136.838Z" fill="#18181B"/>
<path d="M158.727 136.838C159.203 136.838 159.589 136.453 159.589 135.977C159.589 135.501 159.203 135.115 158.727 135.115C158.251 135.115 157.866 135.501 157.866 135.977C157.866 136.453 158.251 136.838 158.727 136.838Z" fill="#18181B"/>
<path d="M163.021 136.838C163.496 136.838 163.882 136.453 163.882 135.977C163.882 135.501 163.496 135.115 163.021 135.115C162.545 135.115 162.159 135.501 162.159 135.977C162.159 136.453 162.545 136.838 163.021 136.838Z" fill="#18181B"/>
<path d="M167.314 136.838C167.79 136.838 168.176 136.452 168.176 135.977C168.176 135.501 167.79 135.115 167.314 135.115C166.843 135.115 166.457 135.501 166.457 135.977C166.457 136.452 166.843 136.838 167.314 136.838Z" fill="#18181B"/>
<path d="M210.249 136.838C210.725 136.838 211.11 136.453 211.11 135.977C211.11 135.501 210.725 135.115 210.249 135.115C209.773 135.115 209.387 135.501 209.387 135.977C209.387 136.453 209.773 136.838 210.249 136.838Z" fill="#18181B"/>
<path d="M214.54 136.838C215.016 136.838 215.402 136.453 215.402 135.977C215.402 135.501 215.016 135.115 214.54 135.115C214.065 135.115 213.679 135.501 213.679 135.977C213.679 136.453 214.065 136.838 214.54 136.838Z" fill="#18181B"/>
<path d="M218.834 136.838C219.31 136.838 219.696 136.453 219.696 135.977C219.696 135.501 219.31 135.115 218.834 135.115C218.358 135.115 217.973 135.501 217.973 135.977C217.973 136.453 218.358 136.838 218.834 136.838Z" fill="#18181B"/>
<path d="M143.705 140.109C144.181 140.109 144.566 139.724 144.566 139.248C144.566 138.772 144.181 138.386 143.705 138.386C143.229 138.386 142.843 138.772 142.843 139.248C142.843 139.724 143.229 140.109 143.705 140.109Z" fill="#18181B"/>
<path d="M147.996 140.109C148.472 140.109 148.858 139.724 148.858 139.248C148.858 138.772 148.472 138.386 147.996 138.386C147.52 138.386 147.135 138.772 147.135 139.248C147.135 139.724 147.52 140.109 147.996 140.109Z" fill="#18181B"/>
<path d="M152.29 140.109C152.766 140.109 153.151 139.724 153.151 139.248C153.151 138.772 152.766 138.386 152.29 138.386C151.814 138.386 151.428 138.772 151.428 139.248C151.428 139.724 151.814 140.109 152.29 140.109Z" fill="#18181B"/>
<path d="M156.584 140.109C157.059 140.109 157.445 139.724 157.445 139.248C157.445 138.772 157.059 138.386 156.584 138.386C156.108 138.386 155.722 138.772 155.722 139.248C155.722 139.724 156.108 140.109 156.584 140.109Z" fill="#18181B"/>
<path d="M160.875 140.109C161.351 140.109 161.737 139.724 161.737 139.248C161.737 138.772 161.351 138.386 160.875 138.386C160.399 138.386 160.014 138.772 160.014 139.248C160.014 139.724 160.399 140.109 160.875 140.109Z" fill="#18181B"/>
<path d="M165.169 140.109C165.645 140.109 166.03 139.724 166.03 139.248C166.03 138.772 165.645 138.386 165.169 138.386C164.693 138.386 164.307 138.772 164.307 139.248C164.307 139.724 164.693 140.109 165.169 140.109Z" fill="#18181B"/>
<path d="M169.462 140.109C169.938 140.109 170.324 139.724 170.324 139.248C170.324 138.772 169.938 138.386 169.462 138.386C168.987 138.386 168.601 138.772 168.601 139.248C168.601 139.724 168.987 140.109 169.462 140.109Z" fill="#18181B"/>
<path d="M173.756 140.109C174.232 140.109 174.618 139.724 174.618 139.248C174.618 138.772 174.232 138.386 173.756 138.386C173.28 138.386 172.895 138.772 172.895 139.248C172.895 139.724 173.28 140.109 173.756 140.109Z" fill="#18181B"/>
<path d="M208.101 140.109C208.577 140.109 208.962 139.724 208.962 139.248C208.962 138.772 208.577 138.386 208.101 138.386C207.625 138.386 207.239 138.772 207.239 139.248C207.239 139.724 207.625 140.109 208.101 140.109Z" fill="#18181B"/>
<path d="M212.392 140.109C212.868 140.109 213.254 139.724 213.254 139.248C213.254 138.772 212.868 138.386 212.392 138.386C211.917 138.386 211.531 138.772 211.531 139.248C211.531 139.724 211.917 140.109 212.392 140.109Z" fill="#18181B"/>
<path d="M216.686 140.109C217.162 140.109 217.548 139.724 217.548 139.248C217.548 138.772 217.162 138.386 216.686 138.386C216.21 138.386 215.825 138.772 215.825 139.248C215.825 139.724 216.21 140.109 216.686 140.109Z" fill="#18181B"/>
<path d="M220.98 140.109C221.456 140.109 221.841 139.724 221.841 139.248C221.841 138.772 221.456 138.386 220.98 138.386C220.504 138.386 220.118 138.772 220.118 139.248C220.118 139.724 220.504 140.109 220.98 140.109Z" fill="#18181B"/>
<path d="M150.142 143.381C150.618 143.381 151.003 142.995 151.003 142.519C151.003 142.044 150.618 141.658 150.142 141.658C149.666 141.658 149.28 142.044 149.28 142.519C149.28 142.995 149.666 143.381 150.142 143.381Z" fill="#18181B"/>
<path d="M154.436 143.381C154.911 143.381 155.297 142.995 155.297 142.519C155.297 142.044 154.911 141.658 154.436 141.658C153.96 141.658 153.574 142.044 153.574 142.519C153.574 142.995 153.96 143.381 154.436 143.381Z" fill="#18181B"/>
<path d="M158.727 143.381C159.203 143.381 159.589 142.995 159.589 142.519C159.589 142.044 159.203 141.658 158.727 141.658C158.251 141.658 157.866 142.044 157.866 142.519C157.866 142.995 158.251 143.381 158.727 143.381Z" fill="#18181B"/>
<path d="M163.021 143.381C163.496 143.381 163.882 142.995 163.882 142.519C163.882 142.044 163.496 141.658 163.021 141.658C162.545 141.658 162.159 142.044 162.159 142.519C162.159 142.995 162.545 143.381 163.021 143.381Z" fill="#18181B"/>
<path d="M167.314 143.379C167.79 143.379 168.176 142.993 168.176 142.517C168.176 142.042 167.79 141.656 167.314 141.656C166.843 141.656 166.457 142.042 166.457 142.517C166.457 142.993 166.843 143.379 167.314 143.379Z" fill="#18181B"/>
<path d="M170.747 142.519C170.747 142.995 171.137 143.381 171.61 143.381C172.081 143.381 172.467 142.995 172.467 142.519C172.467 142.044 172.081 141.658 171.61 141.658C171.137 141.658 170.747 142.044 170.747 142.519Z" fill="#18181B"/>
<path d="M175.899 143.379C176.375 143.379 176.763 142.993 176.763 142.517C176.763 142.042 176.373 141.656 175.899 141.656C175.429 141.656 175.043 142.042 175.043 142.517C175.043 142.993 175.429 143.379 175.899 143.379Z" fill="#18181B"/>
<path d="M179.332 142.519C179.332 142.995 179.722 143.381 180.195 143.381C180.666 143.381 181.052 142.995 181.052 142.519C181.052 142.044 180.666 141.658 180.195 141.658C179.722 141.658 179.332 142.044 179.332 142.519Z" fill="#18181B"/>
<path d="M205.955 143.381C206.431 143.381 206.817 142.995 206.817 142.519C206.817 142.044 206.431 141.658 205.955 141.658C205.479 141.658 205.094 142.044 205.094 142.519C205.094 142.995 205.479 143.381 205.955 143.381Z" fill="#18181B"/>
<path d="M210.249 143.381C210.725 143.381 211.11 142.995 211.11 142.519C211.11 142.044 210.725 141.658 210.249 141.658C209.773 141.658 209.387 142.044 209.387 142.519C209.387 142.995 209.773 143.381 210.249 143.381Z" fill="#18181B"/>
<path d="M214.54 143.381C215.016 143.381 215.402 142.995 215.402 142.519C215.402 142.044 215.016 141.658 214.54 141.658C214.065 141.658 213.679 142.044 213.679 142.519C213.679 142.995 214.065 143.381 214.54 143.381Z" fill="#18181B"/>
<path d="M218.834 143.381C219.31 143.381 219.696 142.995 219.696 142.519C219.696 142.044 219.31 141.658 218.834 141.658C218.358 141.658 217.973 142.044 217.973 142.519C217.973 142.995 218.358 143.381 218.834 143.381Z" fill="#18181B"/>
<path d="M223.128 143.381C223.604 143.381 223.989 142.995 223.989 142.519C223.989 142.044 223.604 141.658 223.128 141.658C222.652 141.658 222.266 142.044 222.266 142.519C222.266 142.995 222.652 143.381 223.128 143.381Z" fill="#18181B"/>
<path d="M152.29 146.65C152.766 146.65 153.151 146.264 153.151 145.788C153.151 145.313 152.766 144.927 152.29 144.927C151.814 144.927 151.428 145.313 151.428 145.788C151.428 146.264 151.814 146.65 152.29 146.65Z" fill="#18181B"/>
<path d="M156.584 146.65C157.059 146.65 157.445 146.264 157.445 145.788C157.445 145.313 157.059 144.927 156.584 144.927C156.108 144.927 155.722 145.313 155.722 145.788C155.722 146.264 156.108 146.65 156.584 146.65Z" fill="#18181B"/>
<path d="M160.875 146.65C161.351 146.65 161.737 146.264 161.737 145.788C161.737 145.313 161.351 144.927 160.875 144.927C160.399 144.927 160.014 145.313 160.014 145.788C160.014 146.264 160.399 146.65 160.875 146.65Z" fill="#18181B"/>
<path d="M165.169 146.65C165.645 146.65 166.03 146.264 166.03 145.788C166.03 145.313 165.645 144.927 165.169 144.927C164.693 144.927 164.307 145.313 164.307 145.788C164.307 146.264 164.693 146.65 165.169 146.65Z" fill="#18181B"/>
<path d="M169.462 146.65C169.938 146.65 170.324 146.264 170.324 145.788C170.324 145.313 169.938 144.927 169.462 144.927C168.987 144.927 168.601 145.313 168.601 145.788C168.601 146.264 168.987 146.65 169.462 146.65Z" fill="#18181B"/>
<path d="M173.756 146.65C174.232 146.65 174.618 146.264 174.618 145.788C174.618 145.313 174.232 144.927 173.756 144.927C173.28 144.927 172.895 145.313 172.895 145.788C172.895 146.264 173.28 146.65 173.756 146.65Z" fill="#18181B"/>
<path d="M178.047 146.65C178.523 146.65 178.909 146.264 178.909 145.788C178.909 145.313 178.523 144.927 178.047 144.927C177.572 144.927 177.186 145.313 177.186 145.788C177.186 146.264 177.572 146.65 178.047 146.65Z" fill="#18181B"/>
<path d="M182.341 146.65C182.817 146.65 183.203 146.264 183.203 145.788C183.203 145.313 182.817 144.927 182.341 144.927C181.865 144.927 181.48 145.313 181.48 145.788C181.48 146.264 181.865 146.65 182.341 146.65Z" fill="#18181B"/>
<path d="M199.514 146.65C199.989 146.65 200.375 146.264 200.375 145.788C200.375 145.313 199.989 144.927 199.514 144.927C199.038 144.927 198.652 145.313 198.652 145.788C198.652 146.264 199.038 146.65 199.514 146.65Z" fill="#18181B"/>
<path d="M203.807 146.65C204.283 146.65 204.669 146.264 204.669 145.788C204.669 145.313 204.283 144.927 203.807 144.927C203.331 144.927 202.946 145.313 202.946 145.788C202.946 146.264 203.331 146.65 203.807 146.65Z" fill="#18181B"/>
<path d="M208.101 146.65C208.577 146.65 208.962 146.264 208.962 145.788C208.962 145.313 208.577 144.927 208.101 144.927C207.625 144.927 207.239 145.313 207.239 145.788C207.239 146.264 207.625 146.65 208.101 146.65Z" fill="#18181B"/>
<path d="M212.392 146.65C212.868 146.65 213.254 146.264 213.254 145.788C213.254 145.313 212.868 144.927 212.392 144.927C211.917 144.927 211.531 145.313 211.531 145.788C211.531 146.264 211.917 146.65 212.392 146.65Z" fill="#18181B"/>
<path d="M216.686 146.65C217.162 146.65 217.548 146.264 217.548 145.788C217.548 145.313 217.162 144.927 216.686 144.927C216.21 144.927 215.825 145.313 215.825 145.788C215.825 146.264 216.21 146.65 216.686 146.65Z" fill="#18181B"/>
<path d="M220.98 146.65C221.456 146.65 221.841 146.264 221.841 145.788C221.841 145.313 221.456 144.927 220.98 144.927C220.504 144.927 220.118 145.313 220.118 145.788C220.118 146.264 220.504 146.65 220.98 146.65Z" fill="#18181B"/>
<path d="M159.589 149.06C159.589 148.584 159.203 148.196 158.727 148.196C158.251 148.196 157.866 148.587 157.866 149.06C157.866 149.531 158.251 149.917 158.727 149.917C159.203 149.917 159.589 149.531 159.589 149.06Z" fill="#18181B"/>
<path d="M163.882 149.06C163.882 148.584 163.496 148.196 163.021 148.196C162.545 148.196 162.159 148.587 162.159 149.06C162.159 149.531 162.545 149.917 163.021 149.917C163.496 149.917 163.882 149.531 163.882 149.06Z" fill="#18181B"/>
<path d="M168.174 149.06C168.174 148.584 167.788 148.196 167.312 148.196C166.841 148.196 166.455 148.587 166.455 149.06C166.455 149.531 166.841 149.917 167.312 149.917C167.788 149.917 168.174 149.531 168.174 149.06Z" fill="#18181B"/>
<path d="M170.747 149.06C170.747 149.531 171.137 149.917 171.61 149.917C172.081 149.917 172.467 149.531 172.467 149.06C172.467 148.584 172.081 148.196 171.61 148.196C171.137 148.194 170.747 148.584 170.747 149.06Z" fill="#18181B"/>
<path d="M175.899 149.917C176.375 149.917 176.763 149.531 176.763 149.06C176.763 148.584 176.373 148.196 175.899 148.196C175.429 148.196 175.043 148.587 175.043 149.06C175.043 149.531 175.429 149.917 175.899 149.917Z" fill="#18181B"/>
<path d="M179.332 149.06C179.332 149.531 179.722 149.917 180.195 149.917C180.666 149.917 181.052 149.531 181.052 149.06C181.052 148.584 180.666 148.196 180.195 148.196C179.722 148.194 179.332 148.584 179.332 149.06Z" fill="#18181B"/>
<path d="M184.487 149.917C184.962 149.917 185.351 149.531 185.351 149.06C185.351 148.584 184.96 148.196 184.487 148.196C184.016 148.196 183.63 148.587 183.63 149.06C183.63 149.531 184.016 149.917 184.487 149.917Z" fill="#18181B"/>
<path d="M187.921 149.06C187.921 149.531 188.307 149.917 188.783 149.917C189.254 149.917 189.64 149.531 189.64 149.06C189.64 148.584 189.254 148.196 188.783 148.196C188.307 148.194 187.921 148.584 187.921 149.06Z" fill="#18181B"/>
<path d="M192.215 149.06C192.215 149.531 192.601 149.917 193.077 149.917C193.552 149.917 193.938 149.531 193.938 149.06C193.938 148.584 193.552 148.196 193.077 148.196C192.601 148.194 192.215 148.584 192.215 149.06Z" fill="#18181B"/>
<path d="M196.509 149.06C196.509 149.531 196.895 149.917 197.37 149.917C197.846 149.917 198.232 149.531 198.232 149.06C198.232 148.584 197.846 148.196 197.37 148.196C196.895 148.194 196.509 148.584 196.509 149.06Z" fill="#18181B"/>
<path d="M200.802 149.06C200.802 149.531 201.188 149.917 201.664 149.917C202.139 149.917 202.525 149.531 202.525 149.06C202.525 148.584 202.139 148.196 201.664 148.196C201.188 148.196 200.802 148.584 200.802 149.06Z" fill="#18181B"/>
<path d="M205.955 148.194C205.48 148.194 205.094 148.584 205.094 149.058C205.094 149.529 205.48 149.915 205.955 149.915C206.431 149.915 206.817 149.529 206.817 149.058C206.817 148.584 206.431 148.194 205.955 148.194Z" fill="#18181B"/>
<path d="M209.387 149.06C209.387 149.531 209.773 149.917 210.249 149.917C210.724 149.917 211.11 149.531 211.11 149.06C211.11 148.584 210.724 148.196 210.249 148.196C209.773 148.194 209.387 148.584 209.387 149.06Z" fill="#18181B"/>
<path d="M213.681 149.06C213.681 149.531 214.067 149.917 214.543 149.917C215.018 149.917 215.404 149.531 215.404 149.06C215.404 148.584 215.018 148.196 214.543 148.196C214.067 148.194 213.681 148.584 213.681 149.06Z" fill="#18181B"/>
<path d="M218.834 148.194C218.359 148.194 217.973 148.584 217.973 149.058C217.973 149.529 218.359 149.915 218.834 149.915C219.31 149.915 219.696 149.529 219.696 149.058C219.696 148.584 219.31 148.194 218.834 148.194Z" fill="#18181B"/>
<path d="M165.169 153.188C165.645 153.188 166.03 152.802 166.03 152.327C166.03 151.851 165.645 151.465 165.169 151.465C164.693 151.465 164.307 151.851 164.307 152.327C164.307 152.802 164.693 153.188 165.169 153.188Z" fill="#18181B"/>
<path d="M169.462 153.188C169.938 153.188 170.324 152.802 170.324 152.327C170.324 151.851 169.938 151.465 169.462 151.465C168.987 151.465 168.601 151.851 168.601 152.327C168.601 152.802 168.987 153.188 169.462 153.188Z" fill="#18181B"/>
<path d="M173.756 153.188C174.232 153.188 174.618 152.802 174.618 152.327C174.618 151.851 174.232 151.465 173.756 151.465C173.28 151.465 172.895 151.851 172.895 152.327C172.895 152.802 173.28 153.188 173.756 153.188Z" fill="#18181B"/>
<path d="M178.047 153.188C178.523 153.188 178.909 152.802 178.909 152.327C178.909 151.851 178.523 151.465 178.047 151.465C177.572 151.465 177.186 151.851 177.186 152.327C177.186 152.802 177.572 153.188 178.047 153.188Z" fill="#18181B"/>
<path d="M182.341 153.188C182.817 153.188 183.203 152.802 183.203 152.327C183.203 151.851 182.817 151.465 182.341 151.465C181.865 151.465 181.48 151.851 181.48 152.327C181.48 152.802 181.865 153.188 182.341 153.188Z" fill="#18181B"/>
<path d="M186.635 153.188C187.111 153.188 187.496 152.802 187.496 152.327C187.496 151.851 187.111 151.465 186.635 151.465C186.159 151.465 185.773 151.851 185.773 152.327C185.773 152.802 186.159 153.188 186.635 153.188Z" fill="#18181B"/>
<path d="M190.929 153.188C191.404 153.188 191.79 152.802 191.79 152.327C191.79 151.851 191.404 151.465 190.929 151.465C190.453 151.465 190.067 151.851 190.067 152.327C190.067 152.802 190.453 153.188 190.929 153.188Z" fill="#18181B"/>
<path d="M195.22 153.188C195.696 153.188 196.081 152.802 196.081 152.327C196.081 151.851 195.696 151.465 195.22 151.465C194.744 151.465 194.358 151.851 194.358 152.327C194.358 152.802 194.744 153.188 195.22 153.188Z" fill="#18181B"/>
<path d="M199.514 153.188C199.989 153.188 200.375 152.802 200.375 152.327C200.375 151.851 199.989 151.465 199.514 151.465C199.038 151.465 198.652 151.851 198.652 152.327C198.652 152.802 199.038 153.188 199.514 153.188Z" fill="#18181B"/>
<path d="M203.807 153.188C204.283 153.188 204.669 152.802 204.669 152.327C204.669 151.851 204.283 151.465 203.807 151.465C203.331 151.465 202.946 151.851 202.946 152.327C202.946 152.802 203.331 153.188 203.807 153.188Z" fill="#18181B"/>
<path d="M208.101 153.188C208.577 153.188 208.962 152.802 208.962 152.327C208.962 151.851 208.577 151.465 208.101 151.465C207.625 151.465 207.239 151.851 207.239 152.327C207.239 152.802 207.625 153.188 208.101 153.188Z" fill="#18181B"/>
<path d="M212.392 153.188C212.868 153.188 213.254 152.802 213.254 152.327C213.254 151.851 212.868 151.465 212.392 151.465C211.917 151.465 211.531 151.851 211.531 152.327C211.531 152.802 211.917 153.188 212.392 153.188Z" fill="#18181B"/>
<path d="M216.686 153.188C217.162 153.188 217.548 152.802 217.548 152.327C217.548 151.851 217.162 151.465 216.686 151.465C216.21 151.465 215.825 151.851 215.825 152.327C215.825 152.802 216.21 153.188 216.686 153.188Z" fill="#18181B"/>
<path d="M171.61 154.737C171.135 154.737 170.747 155.123 170.747 155.598C170.747 156.074 171.137 156.46 171.61 156.46C172.081 156.46 172.467 156.074 172.467 155.598C172.467 155.123 172.081 154.737 171.61 154.737Z" fill="#18181B"/>
<path d="M176.766 155.596C176.766 155.12 176.375 154.734 175.902 154.734C175.431 154.734 175.045 155.12 175.045 155.596C175.045 156.071 175.431 156.457 175.902 156.457C176.375 156.457 176.766 156.071 176.766 155.596Z" fill="#18181B"/>
<path d="M180.198 154.737C179.722 154.737 179.334 155.123 179.334 155.598C179.334 156.074 179.725 156.46 180.198 156.46C180.669 156.46 181.055 156.074 181.055 155.598C181.055 155.123 180.669 154.737 180.198 154.737Z" fill="#18181B"/>
<path d="M184.487 156.457C184.962 156.457 185.351 156.071 185.351 155.596C185.351 155.12 184.96 154.737 184.487 154.737C184.016 154.737 183.63 155.123 183.63 155.598C183.63 156.074 184.016 156.457 184.487 156.457Z" fill="#18181B"/>
<path d="M188.783 154.737C188.307 154.737 187.921 155.123 187.921 155.598C187.921 156.074 188.307 156.46 188.783 156.46C189.254 156.46 189.64 156.074 189.64 155.598C189.64 155.123 189.254 154.737 188.783 154.737Z" fill="#18181B"/>
<path d="M193.077 156.457C193.552 156.457 193.938 156.072 193.938 155.596C193.938 155.12 193.552 154.734 193.077 154.734C192.601 154.734 192.215 155.12 192.215 155.596C192.215 156.072 192.601 156.457 193.077 156.457Z" fill="#18181B"/>
<path d="M197.368 156.457C197.844 156.457 198.229 156.072 198.229 155.596C198.229 155.12 197.844 154.734 197.368 154.734C196.892 154.734 196.506 155.12 196.506 155.596C196.506 156.072 196.892 156.457 197.368 156.457Z" fill="#18181B"/>
<path d="M201.662 156.457C202.137 156.457 202.523 156.072 202.523 155.596C202.523 155.12 202.137 154.734 201.662 154.734C201.186 154.734 200.8 155.12 200.8 155.596C200.8 156.072 201.186 156.457 201.662 156.457Z" fill="#18181B"/>
<path d="M205.955 156.457C206.431 156.457 206.817 156.072 206.817 155.596C206.817 155.12 206.431 154.734 205.955 154.734C205.479 154.734 205.094 155.12 205.094 155.596C205.094 156.072 205.479 156.457 205.955 156.457Z" fill="#18181B"/>
<path d="M210.249 156.457C210.725 156.457 211.11 156.072 211.11 155.596C211.11 155.12 210.725 154.734 210.249 154.734C209.773 154.734 209.387 155.12 209.387 155.596C209.387 156.072 209.773 156.457 210.249 156.457Z" fill="#18181B"/>
<path d="M214.54 156.457C215.016 156.457 215.402 156.072 215.402 155.596C215.402 155.12 215.016 154.734 214.54 154.734C214.065 154.734 213.679 155.12 213.679 155.596C213.679 156.072 214.065 156.457 214.54 156.457Z" fill="#18181B"/>
<path d="M178.047 159.729C178.523 159.729 178.909 159.343 178.909 158.867C178.909 158.391 178.523 158.006 178.047 158.006C177.572 158.006 177.186 158.391 177.186 158.867C177.186 159.343 177.572 159.729 178.047 159.729Z" fill="#18181B"/>
<path d="M182.341 159.729C182.817 159.729 183.203 159.343 183.203 158.867C183.203 158.391 182.817 158.006 182.341 158.006C181.865 158.006 181.48 158.391 181.48 158.867C181.48 159.343 181.865 159.729 182.341 159.729Z" fill="#18181B"/>
<path d="M186.635 159.729C187.111 159.729 187.496 159.343 187.496 158.867C187.496 158.391 187.111 158.006 186.635 158.006C186.159 158.006 185.773 158.391 185.773 158.867C185.773 159.343 186.159 159.729 186.635 159.729Z" fill="#18181B"/>
<path d="M190.929 159.729C191.404 159.729 191.79 159.343 191.79 158.867C191.79 158.391 191.404 158.006 190.929 158.006C190.453 158.006 190.067 158.391 190.067 158.867C190.067 159.343 190.453 159.729 190.929 159.729Z" fill="#18181B"/>
<path d="M195.22 159.729C195.696 159.729 196.081 159.343 196.081 158.867C196.081 158.391 195.696 158.006 195.22 158.006C194.744 158.006 194.358 158.391 194.358 158.867C194.358 159.343 194.744 159.729 195.22 159.729Z" fill="#18181B"/>
<path d="M199.514 159.729C199.989 159.729 200.375 159.343 200.375 158.867C200.375 158.391 199.989 158.006 199.514 158.006C199.038 158.006 198.652 158.391 198.652 158.867C198.652 159.343 199.038 159.729 199.514 159.729Z" fill="#18181B"/>
<path d="M203.807 159.729C204.283 159.729 204.669 159.343 204.669 158.867C204.669 158.391 204.283 158.006 203.807 158.006C203.331 158.006 202.946 158.391 202.946 158.867C202.946 159.343 203.331 159.729 203.807 159.729Z" fill="#18181B"/>
<path d="M208.101 159.729C208.577 159.729 208.962 159.343 208.962 158.867C208.962 158.391 208.577 158.006 208.101 158.006C207.625 158.006 207.239 158.391 207.239 158.867C207.239 159.343 207.625 159.729 208.101 159.729Z" fill="#18181B"/>
<path d="M212.392 159.729C212.868 159.729 213.254 159.343 213.254 158.867C213.254 158.391 212.868 158.006 212.392 158.006C211.917 158.006 211.531 158.391 211.531 158.867C211.531 159.343 211.917 159.729 212.392 159.729Z" fill="#18181B"/>
<path d="M185.351 162.136C185.351 161.661 184.96 161.275 184.487 161.275C184.016 161.275 183.63 161.661 183.63 162.136C183.63 162.612 184.016 162.998 184.487 162.998C184.96 162.998 185.351 162.612 185.351 162.136Z" fill="#18181B"/>
<path d="M188.783 161.277C188.307 161.277 187.921 161.663 187.921 162.139C187.921 162.614 188.307 163 188.783 163C189.254 163 189.64 162.614 189.64 162.139C189.64 161.663 189.254 161.277 188.783 161.277Z" fill="#18181B"/>
<path d="M193.077 162.998C193.552 162.998 193.938 162.612 193.938 162.136C193.938 161.66 193.552 161.275 193.077 161.275C192.601 161.275 192.215 161.66 192.215 162.136C192.215 162.612 192.601 162.998 193.077 162.998Z" fill="#18181B"/>
<path d="M197.368 162.998C197.844 162.998 198.229 162.612 198.229 162.136C198.229 161.66 197.844 161.275 197.368 161.275C196.892 161.275 196.506 161.66 196.506 162.136C196.506 162.612 196.892 162.998 197.368 162.998Z" fill="#18181B"/>
<path d="M201.662 162.998C202.137 162.998 202.523 162.612 202.523 162.136C202.523 161.66 202.137 161.275 201.662 161.275C201.186 161.275 200.8 161.66 200.8 162.136C200.8 162.612 201.186 162.998 201.662 162.998Z" fill="#18181B"/>
<path d="M205.955 162.998C206.431 162.998 206.817 162.612 206.817 162.136C206.817 161.66 206.431 161.275 205.955 161.275C205.479 161.275 205.094 161.66 205.094 162.136C205.094 162.612 205.479 162.998 205.955 162.998Z" fill="#18181B"/>
<path d="M156.51 29.9807L146.361 35.8389L155.686 41.1962L161.771 37.6836V35.7056L163.46 33.9712L156.51 29.9807Z" fill="#F4F4F5"/>
<path d="M156.17 110.876C145.915 100.377 138.715 85.886 138.715 73.9859C138.715 68.022 140.491 63.2505 143.854 60.1859C146.565 57.7186 150.2 56.54 154.367 56.6319V43.4775L144.002 37.5251L120.746 64.3808L143.935 117.94L156.17 110.876Z" fill="white"/>
<path d="M215.714 120.52L191.705 65.07L181.14 58.9775V71.2314C184.156 74.3833 186.803 77.8684 189.1 81.4866C189.102 81.4889 189.105 81.4912 189.107 81.4958C189.109 81.4981 189.109 81.5004 189.109 81.5027C194.499 89.9959 197.745 99.2932 197.745 107.288C197.745 109.631 197.437 111.772 196.897 113.718C196.918 114.003 196.831 114.26 196.693 114.488C195.5 118.186 193.32 121.044 190.26 122.79C184.469 126.101 176.196 125.064 167.563 119.969C164.259 118.019 161.098 115.563 158.141 112.785L145.343 120.173L192.461 147.376L215.714 120.52Z" fill="white"/>
<path d="M88.1307 82.3665L73.1223 74.2156C70.5471 72.8142 67.3653 72.8556 64.8221 74.3259C63.6643 74.9921 62.982 76.1913 63.0004 77.526V88.8265C63.0187 90.1659 63.7309 91.3421 64.9048 91.9785L66.003 92.5758V104.942C66.003 105.67 66.5934 106.259 67.3216 106.259H69.7889V110.21C69.7889 110.692 70.0531 111.138 70.4781 111.368L77.7767 115.331C78.1695 115.544 78.6405 115.544 79.0356 115.331L83.3959 112.962C84.5653 113.316 85.7897 113.603 87.0464 113.824V116.376C87.0464 117.104 87.6368 117.692 88.365 117.692H92.1441V122.505C92.1441 128.428 95.2064 133.737 100.339 136.698C102.902 138.177 105.717 138.917 108.529 138.917C111.343 138.917 114.159 138.177 116.723 136.696L142.816 121.63C142.901 121.717 142.949 121.839 143.057 121.899L192.082 150.204C192.284 150.321 192.512 150.381 192.741 150.381C192.95 150.381 193.153 150.317 193.343 150.22C193.362 150.211 193.382 150.215 193.401 150.204L206.192 142.818C206.321 142.745 206.436 142.653 206.53 142.542L231.042 114.237C231.051 114.226 231.051 114.212 231.058 114.2C231.196 114.03 231.283 113.835 231.325 113.624C231.334 113.573 231.332 113.527 231.336 113.477C231.35 113.302 231.329 113.13 231.27 112.958C231.258 112.923 231.272 112.886 231.256 112.852L212.489 69.513L224.672 62.4465L232.63 67.0572L232.62 67.0618L232.871 67.1973L234.486 68.1323C234.16 68.4402 233.895 68.7687 233.725 69.1202H231.217V71.174H233.725C233.891 71.514 234.13 71.8379 234.442 72.1365L232.62 73.1267L235.324 74.5947L237.123 73.6183C237.709 73.8067 238.343 73.9514 239.016 74.0479V75.4102H242.795V74.0479C243.468 73.9514 244.105 73.8067 244.688 73.6183L246.487 74.5947L249.191 73.1267L247.369 72.1365C247.682 71.8379 247.923 71.514 248.086 71.174H250.595V69.1202H248.086C247.909 68.7549 247.643 68.4103 247.296 68.091L249.191 67.0618L246.487 65.5938L244.569 66.6368C244.017 66.4668 243.422 66.3358 242.798 66.2462V64.8839H239.018V66.2462C238.391 66.3358 237.796 66.4668 237.247 66.6368L235.867 65.8878L225.333 59.7862C224.924 59.5518 224.424 59.5518 224.01 59.7862L211.435 67.0801L206.743 56.2483C206.737 56.2322 206.716 56.2253 206.707 56.2069C206.691 56.1748 206.693 56.1426 206.675 56.1105C206.564 55.9198 206.406 55.7796 206.231 55.6694C206.213 55.6579 206.208 55.6349 206.192 55.6234L193.27 48.1732C193.065 48.0584 192.838 48.0009 192.61 48.0009C192.383 48.0009 192.156 48.0584 191.953 48.1755L187.483 50.7577V34.2745C187.483 34.2515 187.467 34.2331 187.467 34.2101C187.457 34.008 187.416 33.8081 187.31 33.622C187.308 33.6174 187.306 33.6151 187.304 33.6105C187.196 33.4244 187.042 33.2866 186.872 33.1786C186.853 33.1671 186.844 33.1442 186.826 33.1327L176.545 27.1757C176.136 26.9414 175.631 26.9414 175.227 27.1757L166.104 32.4435L157.17 27.3113C156.758 27.077 156.26 27.0793 155.856 27.3159L143.06 34.7018C143.034 34.7155 143.018 34.7408 142.993 34.7569C142.94 34.7936 142.894 34.835 142.844 34.8786C142.805 34.9131 142.754 34.9384 142.72 34.9797L118.209 63.2804C117.879 63.664 117.796 64.2039 117.996 64.668L141.635 119.268L115.407 134.412C111.102 136.898 105.96 136.898 101.657 134.412C97.3521 131.927 94.7814 127.474 94.7814 122.505V117.692H98.5605C99.2888 117.692 99.8792 117.104 99.8792 116.376V113.824C101.138 113.603 102.36 113.316 103.53 112.962L107.89 115.331C108.283 115.544 108.754 115.544 109.149 115.331L116.445 111.368C116.87 111.136 117.134 110.69 117.134 110.21L117.109 106.259H119.604C120.332 106.259 120.923 105.67 120.923 104.942V88.1006C120.923 87.3723 120.332 86.7842 119.604 86.7842H117.107L117.134 82.5503C117.134 82.0678 116.87 81.6222 116.445 81.3924L109.149 77.4273C108.758 77.2136 108.28 77.2136 107.89 77.4273L103.192 79.9796C102.147 79.6786 101.037 79.4282 99.8769 79.2215V76.6714C99.8769 75.9432 99.2865 75.3551 98.5582 75.3551H94.7791V56.6963C94.7791 55.968 94.1887 55.3799 93.4605 55.3799C92.7322 55.3799 92.1418 55.968 92.1418 56.6963V75.3551H89.4448C88.7165 75.3551 88.1261 75.9432 88.1261 76.6714V82.3665H88.1307ZM240.907 68.3735C242.715 68.3735 244.181 69.1638 244.181 70.1425C244.181 71.1188 242.715 71.9114 240.907 71.9114C239.099 71.9114 237.633 71.1188 237.633 70.1425C237.635 69.1661 239.101 68.3735 240.907 68.3735ZM76.0606 86.7842H67.3193C67.1539 86.7842 66.9954 86.8141 66.8507 86.8692V81.7439L76.0606 86.7842ZM72.4263 101.124L77.0875 103.656V111.958L72.4263 109.427V101.124ZM89.6837 106.392H97.2442V115.06H89.6837V106.392ZM68.638 89.4192H80.4416C80.2831 89.9017 80.159 90.3864 80.159 90.8734C80.159 95.2429 86.0034 98.6659 93.4628 98.6659C94.1818 98.6659 94.8802 98.6292 95.5556 98.5603C96.2288 98.4936 96.8858 98.3949 97.5244 98.28C98.0712 98.1766 98.4962 97.747 98.5881 97.198C98.68 96.6535 98.4181 96.1044 97.938 95.8334L95.087 94.2229C97.3521 94.0116 99.3761 93.3408 100.231 92.153L104.06 94.2321C104.655 94.5492 105.407 94.3677 105.783 93.8094C106.433 92.8377 106.767 91.8475 106.767 90.8734C106.767 86.7727 101.591 83.5427 94.7837 83.1614V77.9901H97.2442V80.3471C97.2442 81.0019 97.7266 81.5578 98.3744 81.652C100.019 81.8863 101.559 82.2263 102.953 82.6559C103.291 82.7662 103.661 82.7249 103.973 82.5572L108.524 80.0852L113.059 82.5503L110.077 84.1699C109.703 84.372 109.45 84.7442 109.399 85.1669C109.346 85.5896 109.503 86.0123 109.817 86.2995C110.638 87.0507 111.256 87.8525 111.658 88.6749C111.878 89.1321 112.338 89.417 112.843 89.417H118.292V92.3231H112.843C112.338 92.3231 111.878 92.6102 111.658 93.0651C111.281 93.8416 110.72 94.5882 109.997 95.2843C109.691 95.5761 109.544 95.9942 109.601 96.41C109.657 96.8304 109.909 97.1934 110.279 97.3955L113.061 98.9072L108.526 101.368L104.304 99.0749C103.989 98.9026 103.617 98.8681 103.27 98.9784C101.74 99.4723 100.093 99.8422 98.379 100.086C97.7289 100.178 97.2465 100.734 97.2465 101.391V103.752H89.686V101.391C89.686 100.731 89.2013 100.178 88.5511 100.086C86.8396 99.8422 85.1947 99.4723 83.6624 98.9784C83.3201 98.8635 82.9457 98.9003 82.6286 99.0749L78.4062 101.368L75.9802 100.051L73.8713 98.9072L76.6533 97.3955C77.0232 97.1934 77.2759 96.8281 77.331 96.41C77.3862 95.9942 77.2391 95.5761 76.9336 95.2843C76.2099 94.5928 75.6517 93.8462 75.2726 93.0651C75.0521 92.6079 74.5926 92.3231 74.0872 92.3231H68.638V89.4192ZM99.3554 88.6726C99.2842 88.6336 99.2015 88.6221 99.128 88.5853C98.0253 87.9214 96.4608 87.5102 94.7814 87.3723V85.7895C100.339 86.141 104.127 88.6152 104.127 90.8734C104.127 90.9952 104.113 91.1193 104.088 91.2479L99.3554 88.6726ZM94.7814 92.9272C94.3564 92.9617 93.9176 92.9847 93.4628 92.9847C93.0079 92.9847 92.5714 92.9617 92.1464 92.9272V87.37C93.0148 87.2988 93.9108 87.2988 94.7814 87.37V92.9272ZM90.768 77.9878H92.1464V83.1912C91.6847 83.2326 91.2413 83.2464 90.768 83.3038V77.9878ZM66.1408 76.6048C67.039 76.0856 68.0522 75.826 69.0676 75.826C70.0324 75.826 70.9973 76.0603 71.8634 76.5313L89.1232 85.9044C89.385 86.0468 89.6906 86.1065 89.98 86.0445C90.7565 85.9066 91.4388 85.8929 92.1464 85.84V87.37C89.0244 87.625 86.24 88.7898 86.24 90.8688C86.24 91.7809 86.7822 92.4954 87.646 93.0329C87.6552 93.0375 87.6575 93.049 87.6667 93.0536L92.9114 96.0194C86.9223 95.8655 82.7963 93.2351 82.7963 90.8688C82.7963 90.3979 82.9778 89.9017 83.3546 89.3595C83.5682 89.0494 83.6395 88.668 83.5522 88.3028C83.4649 87.9375 83.2282 87.6296 82.8997 87.4481L66.1592 78.3554C65.6928 78.1027 65.6377 77.6639 65.6354 77.487C65.6331 77.3147 65.6767 76.8736 66.1408 76.6048ZM156.173 110.876L171.944 101.77C172.633 102.401 173.338 103.003 174.053 103.594L158.141 112.781C157.475 112.158 156.814 111.533 156.173 110.876ZM195.105 107.285C195.105 109.174 194.882 110.899 194.494 112.477C190.306 112.576 185.519 111.152 180.49 108.181C178.271 106.87 176.12 105.31 174.053 103.594L184.308 97.6712C184.717 97.4369 184.967 97.0027 184.967 96.5317C184.967 96.0608 184.717 95.6266 184.308 95.3923L175.998 90.5794L187.524 83.9241C192.273 91.7074 195.105 100.077 195.105 107.285ZM172.711 89.4376C172.302 89.672 172.052 90.1061 172.052 90.5771C172.052 91.048 172.302 91.4822 172.711 91.7166L181.02 96.5294L171.948 101.767C160.933 91.6706 152.947 76.6301 152.947 64.4727C152.947 63.3493 153.018 62.2719 153.156 61.245C153.834 60.6408 154.709 60.0481 155.977 59.3175L155.821 59.2578C155.991 59.2394 156.15 59.1957 156.294 59.1199C156.31 59.1107 156.333 59.1176 156.35 59.1085L161.776 55.9795V78.2956C161.776 78.7666 162.029 79.2054 162.437 79.4397L172.718 85.3438C172.739 85.3553 172.764 85.3507 172.785 85.3622C172.964 85.4541 173.159 85.5184 173.375 85.5184C173.593 85.5184 173.791 85.4518 173.972 85.3576C173.991 85.3484 174.014 85.353 174.032 85.3415L184.443 79.3317C185.02 80.1128 185.59 80.8939 186.125 81.6957L172.711 89.4376ZM172.052 42.4207V81.9231L164.409 77.5352V37.9915L172.052 42.4207ZM202.895 56.7652L192.741 62.6256L182.459 56.6963L192.61 50.8358L202.895 56.7652ZM173.373 40.1395L165.723 35.708L175.879 29.8406L183.529 34.2745L173.373 40.1395ZM144.001 37.5252L154.367 43.4775V56.6342C150.202 56.5423 146.568 57.7209 143.854 60.1882C140.491 63.2528 138.715 68.0243 138.715 73.9882C138.715 85.8883 145.915 100.38 156.17 110.878L143.935 117.943L120.746 64.3808L144.001 37.5252ZM158.139 112.783C161.096 115.56 164.259 118.016 167.56 119.967C176.194 125.062 184.466 126.098 190.258 122.788C193.318 121.042 195.498 118.182 196.69 114.485C196.828 114.258 196.916 114.001 196.895 113.716C197.435 111.77 197.743 109.631 197.743 107.285C197.743 99.2931 194.496 89.9936 189.107 81.5004C189.105 81.4981 189.105 81.4958 189.105 81.4935C189.102 81.4912 189.1 81.4889 189.098 81.4843C186.8 77.866 184.154 74.381 181.138 71.2291V58.9752L191.703 65.0677L215.714 120.518L192.456 147.374L145.341 120.173L158.139 112.783ZM156.51 29.9808L163.46 33.9712L162.433 34.5639C162.414 34.5754 162.408 34.5961 162.389 34.6076C162.217 34.7178 162.061 34.8534 161.95 35.0418C161.95 35.0441 161.95 35.0441 161.948 35.0464V35.0487C161.84 35.237 161.799 35.4392 161.79 35.6414C161.787 35.6643 161.771 35.6827 161.771 35.7057V37.6837L155.688 41.1963L146.361 35.8389L156.51 29.9808Z" fill="#18181B"/>
<path d="M192.741 62.6255L202.895 56.7651L192.61 50.8357L182.459 56.6962L192.741 62.6255Z" fill="#F4F4F5"/>
<path d="M174.053 103.596C173.341 103.006 172.635 102.404 171.944 101.772L156.173 110.879C156.814 111.536 157.475 112.16 158.139 112.783L174.053 103.596Z" fill="white"/>
<path d="M164.408 77.5352L172.052 81.923V42.4207L164.408 37.9915V77.5352Z" fill="white"/>
<path d="M165.723 35.7079L173.373 40.1394L183.527 34.2744L175.879 29.8406L165.723 35.7079Z" fill="#F4F4F5"/>
<path d="M273.915 73.7584V72.1273H271.923C271.783 71.8355 271.569 71.5621 271.293 71.3117L272.798 70.4939L270.65 69.3269L269.127 70.1539C268.691 70.0184 268.217 69.915 267.721 69.8438V68.7617H264.721V69.8438C264.222 69.915 263.751 70.0184 263.313 70.1539L261.789 69.3269L259.641 70.4939L261.146 71.3117C260.871 71.5644 260.659 71.8378 260.517 72.1273H258.525V73.7584H260.517C260.648 74.0295 260.838 74.2845 261.086 74.5234L259.639 75.3091L261.787 76.4761L263.214 75.6996C263.678 75.8489 264.183 75.9638 264.719 76.0419V77.124H267.719V76.0419C268.254 75.9661 268.757 75.8512 269.224 75.6996L270.65 76.4761L272.798 75.3091L271.351 74.5234C271.599 74.2868 271.79 74.0295 271.921 73.7584H273.915Z" fill="#18181B"/>
<path d="M258.146 89.0104L261.321 87.2851L256.793 84.8247L253.579 86.5706C252.658 86.2858 251.661 86.0675 250.611 85.9182V83.637H244.282V85.9182C243.232 86.0675 242.237 86.2858 241.313 86.5706L238.1 84.8247L233.571 87.2851L236.746 89.0104C236.165 89.5434 235.717 90.12 235.421 90.7334H231.221V94.1725H235.421C235.697 94.7422 236.099 95.2844 236.622 95.7852L233.571 97.4415L238.1 99.902L241.111 98.2663C242.09 98.581 243.154 98.8245 244.282 98.9853V101.267H250.611V98.9853C251.739 98.8245 252.802 98.581 253.781 98.2663L256.793 99.902L261.321 97.4415L258.27 95.7852C258.794 95.2844 259.196 94.7445 259.471 94.1725H263.671V90.7334H259.471C259.175 90.12 258.727 89.5411 258.146 89.0104Z" fill="#18181B"/>
<path d="M237.635 70.1425C237.635 71.1188 239.101 71.9114 240.909 71.9114C242.717 71.9114 244.183 71.1188 244.183 70.1425C244.183 69.1661 242.717 68.3735 240.909 68.3735C239.101 68.3735 237.635 69.1661 237.635 70.1425Z" fill="#F4F4F5"/>
<path d="M214.375 47.2497L211.51 48.805L215.763 51.1161L218.591 49.5792C219.51 49.8755 220.509 50.103 221.568 50.2546V52.398H227.511V50.2546C228.57 50.103 229.57 49.8755 230.489 49.5792L233.317 51.1161L237.569 48.805L234.704 47.2497C235.196 46.7787 235.575 46.271 235.832 45.7358H239.777V42.508H235.832C235.554 41.9314 235.134 41.3892 234.587 40.8907L237.569 39.2711L233.317 36.96L230.298 38.6003C229.432 38.3338 228.497 38.127 227.511 37.9869V35.8435H221.568V37.9869C220.583 38.127 219.648 38.3338 218.781 38.6003L215.763 36.96L211.51 39.2711L214.492 40.8907C213.948 41.3892 213.525 41.9337 213.247 42.508H209.303V45.7358H213.247C213.505 46.271 213.884 46.7787 214.375 47.2497ZM224.541 41.3387C227.385 41.3387 229.689 42.5838 229.689 44.1184C229.689 45.653 227.385 46.8982 224.541 46.8982C221.697 46.8982 219.393 45.653 219.393 44.1184C219.393 42.5838 221.697 41.3387 224.541 41.3387Z" fill="#18181B"/>
<path d="M224.541 46.9006C227.385 46.9006 229.689 45.6554 229.689 44.1208C229.689 42.5839 227.385 41.3411 224.541 41.3411C221.697 41.3411 219.393 42.5862 219.393 44.1208C219.393 45.6554 221.697 46.9006 224.541 46.9006Z" fill="#F4F4F5"/>
<path d="M90.768 83.306C91.239 83.2463 91.6846 83.2348 92.1464 83.1934V77.99H90.768V83.306Z" fill="#F4F4F5"/>
<path d="M68.6379 92.3254H74.0872C74.5926 92.3254 75.052 92.6126 75.2726 93.0674C75.6516 93.8462 76.2099 94.5951 76.9335 95.2866C77.2391 95.5784 77.3861 95.9965 77.331 96.4123C77.2736 96.8327 77.0208 97.1957 76.6533 97.3979L73.8712 98.9095L75.9802 100.054L78.4061 101.37L82.6286 99.0772C82.9456 98.9049 83.3201 98.8681 83.6624 98.9807C85.1947 99.4746 86.8419 99.8445 88.5511 100.088C89.2012 100.18 89.686 100.736 89.686 101.393V103.755H97.2464V101.393C97.2464 100.734 97.7312 100.18 98.379 100.088C100.093 99.8445 101.74 99.4746 103.27 98.9807C103.617 98.8704 103.989 98.9026 104.304 99.0772L108.526 101.37L113.061 98.9095L110.279 97.3979C109.909 97.1957 109.657 96.8304 109.601 96.4123C109.544 95.9965 109.691 95.5784 109.997 95.2866C110.72 94.5905 111.281 93.8439 111.657 93.0674C111.878 92.6103 112.337 92.3254 112.843 92.3254H118.292V89.4193H112.843C112.337 89.4193 111.878 89.1321 111.657 88.6773C111.255 87.8525 110.637 87.0507 109.817 86.3018C109.503 86.0147 109.346 85.592 109.399 85.1692C109.45 84.7465 109.702 84.3744 110.077 84.1722L113.059 82.5526L108.524 80.0876L103.973 82.5595C103.663 82.7295 103.291 82.7686 102.953 82.6583C101.558 82.2287 100.019 81.8887 98.3744 81.6544C97.7243 81.5579 97.2441 81.0042 97.2441 80.3495V77.9924H94.7837V83.1637C101.591 83.545 106.767 86.7751 106.767 90.8758C106.767 91.8498 106.436 92.84 105.783 93.8118C105.406 94.37 104.655 94.5515 104.06 94.2345L100.231 92.1554C99.3737 93.3431 97.3521 94.0139 95.0869 94.2253L97.9379 95.8357C98.4204 96.1068 98.6799 96.6558 98.5881 97.2003C98.4962 97.7494 98.0712 98.179 97.5244 98.2823C96.8857 98.3972 96.2287 98.496 95.5556 98.5626C94.8802 98.6315 94.1818 98.6683 93.4627 98.6683C86.0034 98.6683 80.159 95.2476 80.159 90.8758C80.159 90.3887 80.283 89.9063 80.4416 89.4216H68.6379V92.3254Z" fill="#F4F4F5"/>
<path d="M104.129 90.8711C104.129 88.6128 100.341 86.1409 94.7838 85.7871V87.37C96.4631 87.5078 98.0276 87.9167 99.1303 88.5829C99.2038 88.6197 99.2842 88.6312 99.3577 88.6702L104.092 91.2455C104.115 91.1169 104.129 90.9928 104.129 90.8711Z" fill="#F4F4F5"/>
<path d="M82.8998 87.4551C83.2283 87.6343 83.4672 87.9445 83.5522 88.3097C83.6395 88.675 83.566 89.0564 83.3547 89.3665C82.9802 89.9064 82.7964 90.4049 82.7964 90.8758C82.7964 93.2421 86.9224 95.8725 92.9115 96.0264L87.6667 93.0606C87.6575 93.056 87.6552 93.0445 87.646 93.0399C86.7822 92.5023 86.2401 91.7879 86.2401 90.8758C86.2401 88.7968 89.0221 87.6297 92.1465 87.377V85.847C91.4389 85.8976 90.7566 85.9136 89.9801 86.0515C89.6907 86.1135 89.3851 86.0561 89.1232 85.9113L71.8635 76.5383C70.9974 76.0673 70.0325 75.833 69.0676 75.833C68.0522 75.833 67.0391 76.0949 66.1409 76.6118C65.6768 76.8806 65.6332 77.3217 65.6377 77.4986C65.64 77.6755 65.6952 78.1119 66.1615 78.3669L82.8998 87.4551Z" fill="#F4F4F5"/>
<path d="M66.8507 86.8692C66.9954 86.8141 67.154 86.7842 67.3194 86.7842H76.0606L66.8507 81.7439V86.8692Z" fill="white"/>
<path d="M77.0852 103.656L72.4263 101.124V109.427L77.0852 111.958V103.656Z" fill="white"/>
<path d="M97.2441 106.392H89.6837V115.06H97.2441V106.392Z" fill="white"/>
<path d="M94.7814 87.3701C93.9131 87.2988 93.0171 87.2988 92.1464 87.3701V92.9273C92.5714 92.9617 93.0079 92.9847 93.4628 92.9847C93.9177 92.9847 94.3564 92.9617 94.7814 92.9273V87.3701Z" fill="white"/>
</svg>
