<svg width="376" height="213" viewBox="0 0 376 213" fill="none" xmlns="http://www.w3.org/2000/svg">
<rect width="376" height="212.07" fill="#E2E7E9"/>
<g clip-path="url(#clip0_2473_109549)">
<path d="M113.146 134.981C112.692 134.981 112.326 135.347 112.326 135.801C112.326 136.255 112.692 136.62 113.146 136.62C113.6 136.62 113.965 136.255 113.965 135.801C113.965 135.347 113.6 134.981 113.146 134.981Z" fill="#191E1E"/>
<path d="M115.2 131.854C114.747 131.854 114.381 132.22 114.381 132.674C114.381 133.128 114.747 133.493 115.2 133.493C115.654 133.493 116.02 133.128 116.02 132.674C116.02 132.22 115.654 131.854 115.2 131.854Z" fill="#191E1E"/>
<path d="M119.311 131.854C118.857 131.854 118.491 132.22 118.491 132.674C118.491 133.128 118.857 133.493 119.311 133.493C119.764 133.493 120.13 133.128 120.13 132.674C120.13 132.22 119.764 131.854 119.311 131.854Z" fill="#191E1E"/>
<path d="M123.42 131.854C122.966 131.854 122.601 132.22 122.601 132.674C122.601 133.128 122.966 133.493 123.42 133.493C123.874 133.493 124.239 133.128 124.239 132.674C124.239 132.22 123.874 131.854 123.42 131.854Z" fill="#191E1E"/>
<path d="M103.01 131.854C102.556 131.854 102.19 132.22 102.19 132.674C102.19 133.128 102.556 133.493 103.01 133.493C103.464 133.493 103.829 133.128 103.829 132.674C103.829 132.22 103.464 131.854 103.01 131.854Z" fill="#191E1E"/>
<path d="M107.119 131.854C106.666 131.854 106.3 132.22 106.3 132.674C106.3 133.128 106.666 133.493 107.119 133.493C107.573 133.493 107.939 133.128 107.939 132.674C107.939 132.22 107.573 131.854 107.119 131.854Z" fill="#191E1E"/>
<path d="M111.229 131.854C110.776 131.854 110.41 132.22 110.41 132.674C110.41 133.128 110.776 133.493 111.229 133.493C111.683 133.493 112.049 133.128 112.049 132.674C112.049 132.22 111.683 131.854 111.229 131.854Z" fill="#191E1E"/>
<path d="M113.221 128.284C112.768 128.284 112.402 128.65 112.402 129.104C112.402 129.557 112.768 129.923 113.221 129.923C113.675 129.923 114.041 129.557 114.041 129.104C114.041 128.65 113.675 128.284 113.221 128.284Z" fill="#191E1E"/>
<path d="M105.14 128.284C104.687 128.284 104.321 128.65 104.321 129.104C104.321 129.557 104.687 129.923 105.14 129.923C105.594 129.923 105.96 129.557 105.96 129.104C105.96 128.65 105.594 128.284 105.14 128.284Z" fill="#191E1E"/>
<path d="M109.25 128.284C108.797 128.284 108.431 128.65 108.431 129.104C108.431 129.557 108.797 129.923 109.25 129.923C109.704 129.923 110.07 129.557 110.07 129.104C110.07 128.65 109.704 128.284 109.25 128.284Z" fill="#191E1E"/>
<path d="M111.229 124.517C110.776 124.517 110.41 124.883 110.41 125.337C110.41 125.79 110.776 126.156 111.229 126.156C111.683 126.156 112.049 125.79 112.049 125.337C112.049 124.883 111.683 124.517 111.229 124.517Z" fill="#191E1E"/>
<path d="M107.258 124.517C106.804 124.517 106.439 124.883 106.439 125.337C106.439 125.79 106.804 126.156 107.258 126.156C107.712 126.156 108.078 125.79 108.078 125.337C108.078 124.883 107.712 124.517 107.258 124.517Z" fill="#191E1E"/>
<path d="M117.255 134.981C116.801 134.981 116.436 135.347 116.436 135.801C116.436 136.255 116.801 136.62 117.255 136.62C117.709 136.62 118.075 136.255 118.075 135.801C118.075 135.347 117.709 134.981 117.255 134.981Z" fill="#191E1E"/>
<path d="M117.255 128.284C116.801 128.284 116.436 128.65 116.436 129.104C116.436 129.557 116.801 129.923 117.255 129.923C117.709 129.923 118.075 129.557 118.075 129.104C118.075 128.65 117.709 128.284 117.255 128.284Z" fill="#191E1E"/>
<path d="M121.365 134.981C120.911 134.981 120.546 135.347 120.546 135.801C120.546 136.255 120.911 136.62 121.365 136.62C121.819 136.62 122.185 136.255 122.185 135.801C122.185 135.347 121.819 134.981 121.365 134.981Z" fill="#191E1E"/>
<path d="M125.475 134.981C125.021 134.981 124.655 135.347 124.655 135.801C124.655 136.255 125.021 136.62 125.475 136.62C125.929 136.62 126.294 136.255 126.294 135.801C126.294 135.347 125.929 134.981 125.475 134.981Z" fill="#191E1E"/>
<path d="M105.204 134.981C104.75 134.981 104.384 135.347 104.384 135.801C104.384 136.255 104.75 136.62 105.204 136.62C105.658 136.62 106.023 136.255 106.023 135.801C106.023 135.347 105.658 134.981 105.204 134.981Z" fill="#191E1E"/>
<path d="M109.326 134.981C108.872 134.981 108.506 135.347 108.506 135.801C108.506 136.255 108.872 136.62 109.326 136.62C109.779 136.62 110.145 136.255 110.145 135.801C110.145 135.347 109.779 134.981 109.326 134.981Z" fill="#191E1E"/>
<path d="M129.585 134.981C129.131 134.981 128.766 135.347 128.766 135.801C128.766 136.255 129.131 136.62 129.585 136.62C130.039 136.62 130.404 136.255 130.404 135.801C130.404 135.347 130.039 134.981 129.585 134.981Z" fill="#191E1E"/>
<path d="M115.2 139.747C115.654 139.747 116.02 139.382 116.02 138.928C116.02 138.474 115.654 138.108 115.2 138.108C114.747 138.108 114.381 138.474 114.381 138.928C114.381 139.382 114.747 139.747 115.2 139.747Z" fill="#191E1E"/>
<path d="M119.311 138.108C118.857 138.108 118.491 138.474 118.491 138.928C118.491 139.382 118.857 139.747 119.311 139.747C119.764 139.747 120.13 139.382 120.13 138.928C120.13 138.474 119.764 138.108 119.311 138.108Z" fill="#191E1E"/>
<path d="M123.42 138.108C122.966 138.108 122.601 138.474 122.601 138.928C122.601 139.382 122.966 139.747 123.42 139.747C123.874 139.747 124.239 139.382 124.239 138.928C124.239 138.474 123.874 138.108 123.42 138.108Z" fill="#191E1E"/>
<path d="M110.965 138.108C110.511 138.108 110.145 138.474 110.145 138.928C110.145 139.382 110.511 139.747 110.965 139.747C111.419 139.747 111.784 139.382 111.784 138.928C111.784 138.474 111.419 138.108 110.965 138.108Z" fill="#191E1E"/>
<path d="M113.02 141.236C112.566 141.236 112.2 141.601 112.2 142.055C112.2 142.509 112.566 142.875 113.02 142.875C113.473 142.875 113.839 142.509 113.839 142.055C113.839 141.601 113.473 141.236 113.02 141.236Z" fill="#191E1E"/>
<path d="M127.53 138.108C127.076 138.108 126.711 138.474 126.711 138.928C126.711 139.382 127.076 139.747 127.53 139.747C127.984 139.747 128.35 139.382 128.35 138.928C128.35 138.474 127.984 138.108 127.53 138.108Z" fill="#191E1E"/>
<path d="M131.64 138.108C131.186 138.108 130.82 138.474 130.82 138.928C130.82 139.382 131.186 139.747 131.64 139.747C132.093 139.747 132.459 139.382 132.459 138.928C132.459 138.474 132.093 138.108 131.64 138.108Z" fill="#191E1E"/>
<path d="M135.75 138.108C135.296 138.108 134.93 138.474 134.93 138.928C134.93 139.382 135.296 139.747 135.75 139.747C136.204 139.747 136.569 139.382 136.569 138.928C136.569 138.474 136.204 138.108 135.75 138.108Z" fill="#191E1E"/>
<path d="M117.255 141.236C116.801 141.236 116.436 141.601 116.436 142.055C116.436 142.509 116.801 142.875 117.255 142.875C117.709 142.875 118.075 142.509 118.075 142.055C118.075 141.601 117.709 141.236 117.255 141.236Z" fill="#191E1E"/>
<path d="M121.365 141.236C120.911 141.236 120.546 141.601 120.546 142.055C120.546 142.509 120.911 142.875 121.365 142.875C121.819 142.875 122.185 142.509 122.185 142.055C122.185 141.601 121.819 141.236 121.365 141.236Z" fill="#191E1E"/>
<path d="M125.475 141.236C125.021 141.236 124.655 141.601 124.655 142.055C124.655 142.509 125.021 142.875 125.475 142.875C125.929 142.875 126.294 142.509 126.294 142.055C126.294 141.601 125.929 141.236 125.475 141.236Z" fill="#191E1E"/>
<path d="M129.585 141.236C129.131 141.236 128.766 141.601 128.766 142.055C128.766 142.509 129.131 142.875 129.585 142.875C130.039 142.875 130.404 142.509 130.404 142.055C130.404 141.601 130.039 141.236 129.585 141.236Z" fill="#191E1E"/>
<path d="M133.694 141.236C133.241 141.236 132.875 141.601 132.875 142.055C132.875 142.509 133.241 142.875 133.694 142.875C134.148 142.875 134.514 142.509 134.514 142.055C134.514 141.601 134.148 141.236 133.694 141.236Z" fill="#191E1E"/>
<path d="M137.805 141.236C137.351 141.236 136.985 141.601 136.985 142.055C136.985 142.509 137.351 142.875 137.805 142.875C138.258 142.875 138.624 142.509 138.624 142.055C138.624 141.601 138.258 141.236 137.805 141.236Z" fill="#191E1E"/>
<path d="M141.914 141.236C141.46 141.236 141.095 141.601 141.095 142.055C141.095 142.509 141.46 142.875 141.914 142.875C142.368 142.875 142.733 142.509 142.733 142.055C142.733 141.601 142.368 141.236 141.914 141.236Z" fill="#191E1E"/>
<path d="M119.311 144.358C118.857 144.358 118.491 144.723 118.491 145.177C118.491 145.631 118.857 145.997 119.311 145.997C119.764 145.997 120.13 145.631 120.13 145.177C120.13 144.723 119.764 144.358 119.311 144.358Z" fill="#191E1E"/>
<path d="M123.42 144.358C122.966 144.358 122.601 144.723 122.601 145.177C122.601 145.631 122.966 145.997 123.42 145.997C123.874 145.997 124.239 145.631 124.239 145.177C124.239 144.723 123.874 144.358 123.42 144.358Z" fill="#191E1E"/>
<path d="M127.53 144.358C127.076 144.358 126.711 144.723 126.711 145.177C126.711 145.631 127.076 145.997 127.53 145.997C127.984 145.997 128.35 145.631 128.35 145.177C128.35 144.723 127.984 144.358 127.53 144.358Z" fill="#191E1E"/>
<path d="M131.64 144.358C131.186 144.358 130.82 144.723 130.82 145.177C130.82 145.631 131.186 145.997 131.64 145.997C132.093 145.997 132.459 145.631 132.459 145.177C132.459 144.723 132.093 144.358 131.64 144.358Z" fill="#191E1E"/>
<path d="M135.75 144.358C135.296 144.358 134.93 144.723 134.93 145.177C134.93 145.631 135.296 145.997 135.75 145.997C136.204 145.997 136.569 145.631 136.569 145.177C136.569 144.723 136.204 144.358 135.75 144.358Z" fill="#191E1E"/>
<path d="M139.859 144.358C139.405 144.358 139.04 144.723 139.04 145.177C139.04 145.631 139.405 145.997 139.859 145.997C140.313 145.997 140.679 145.631 140.679 145.177C140.679 144.723 140.313 144.358 139.859 144.358Z" fill="#191E1E"/>
<path d="M143.969 144.358C143.515 144.358 143.15 144.723 143.15 145.177C143.15 145.631 143.515 145.997 143.969 145.997C144.423 145.997 144.789 145.631 144.789 145.177C144.789 144.723 144.423 144.358 143.969 144.358Z" fill="#191E1E"/>
<path d="M148.079 144.358C147.625 144.358 147.259 144.723 147.259 145.177C147.259 145.631 147.625 145.997 148.079 145.997C148.533 145.997 148.898 145.631 148.898 145.177C148.898 144.723 148.533 144.358 148.079 144.358Z" fill="#191E1E"/>
<path d="M125.475 149.124C125.929 149.124 126.294 148.758 126.294 148.304C126.294 147.85 125.929 147.485 125.475 147.485C125.021 147.485 124.655 147.85 124.655 148.304C124.655 148.758 125.021 149.124 125.475 149.124Z" fill="#191E1E"/>
<path d="M129.585 147.485C129.131 147.485 128.766 147.85 128.766 148.304C128.766 148.758 129.131 149.124 129.585 149.124C130.039 149.124 130.404 148.758 130.404 148.304C130.404 147.85 130.039 147.485 129.585 147.485Z" fill="#191E1E"/>
<path d="M133.694 147.485C133.241 147.485 132.875 147.85 132.875 148.304C132.875 148.758 133.241 149.124 133.694 149.124C134.148 149.124 134.514 148.758 134.514 148.304C134.514 147.85 134.148 147.485 133.694 147.485Z" fill="#191E1E"/>
<path d="M137.805 147.485C137.351 147.485 136.985 147.85 136.985 148.304C136.985 148.758 137.351 149.124 137.805 149.124C138.258 149.124 138.624 148.758 138.624 148.304C138.624 147.85 138.258 147.485 137.805 147.485Z" fill="#191E1E"/>
<path d="M141.914 147.485C141.46 147.485 141.095 147.85 141.095 148.304C141.095 148.758 141.46 149.124 141.914 149.124C142.368 149.124 142.733 148.758 142.733 148.304C142.733 147.85 142.368 147.485 141.914 147.485Z" fill="#191E1E"/>
<path d="M146.024 149.124C146.478 149.124 146.844 148.758 146.844 148.304C146.844 147.85 146.478 147.485 146.024 147.485C145.57 147.485 145.205 147.85 145.205 148.304C145.205 148.758 145.57 149.124 146.024 149.124Z" fill="#191E1E"/>
<path d="M150.134 147.485C149.68 147.485 149.314 147.85 149.314 148.304C149.314 148.758 149.68 149.124 150.134 149.124C150.587 149.124 150.953 148.758 150.953 148.304C150.953 147.85 150.587 147.485 150.134 147.485Z" fill="#191E1E"/>
<path d="M131.64 150.612C131.186 150.612 130.82 150.977 130.82 151.431C130.82 151.885 131.186 152.251 131.64 152.251C132.093 152.251 132.459 151.885 132.459 151.431C132.459 150.977 132.093 150.612 131.64 150.612Z" fill="#191E1E"/>
<path d="M135.75 150.612C135.296 150.612 134.93 150.977 134.93 151.431C134.93 151.885 135.296 152.251 135.75 152.251C136.204 152.251 136.569 151.885 136.569 151.431C136.569 150.977 136.204 150.612 135.75 150.612Z" fill="#191E1E"/>
<path d="M139.859 150.612C139.405 150.612 139.04 150.977 139.04 151.431C139.04 151.885 139.405 152.251 139.859 152.251C140.313 152.251 140.679 151.885 140.679 151.431C140.679 150.977 140.313 150.612 139.859 150.612Z" fill="#191E1E"/>
<path d="M143.969 150.612C143.515 150.612 143.15 150.977 143.15 151.431C143.15 151.885 143.515 152.251 143.969 152.251C144.423 152.251 144.789 151.885 144.789 151.431C144.789 150.977 144.423 150.612 143.969 150.612Z" fill="#191E1E"/>
<path d="M148.079 150.612C147.625 150.612 147.259 150.977 147.259 151.431C147.259 151.885 147.625 152.251 148.079 152.251C148.533 152.251 148.898 151.885 148.898 151.431C148.898 150.977 148.533 150.612 148.079 150.612Z" fill="#191E1E"/>
<path d="M152.189 150.612C151.735 150.612 151.357 150.977 151.357 151.431C151.357 151.885 151.722 152.251 152.189 152.251C152.655 152.251 153.008 151.885 153.008 151.431C153.008 150.977 152.642 150.612 152.189 150.612Z" fill="#191E1E"/>
<path d="M156.298 150.612C155.845 150.612 155.479 150.977 155.479 151.431C155.479 151.885 155.845 152.251 156.298 152.251C156.752 152.251 157.13 151.885 157.13 151.431C157.13 150.977 156.765 150.612 156.298 150.612Z" fill="#191E1E"/>
<path d="M133.694 153.739C133.241 153.739 132.875 154.104 132.875 154.558C132.875 155.012 133.241 155.378 133.694 155.378C134.148 155.378 134.514 155.012 134.514 154.558C134.514 154.104 134.148 153.739 133.694 153.739Z" fill="#191E1E"/>
<path d="M137.805 153.739C137.351 153.739 136.985 154.104 136.985 154.558C136.985 155.012 137.351 155.378 137.805 155.378C138.258 155.378 138.624 155.012 138.624 154.558C138.624 154.104 138.258 153.739 137.805 153.739Z" fill="#191E1E"/>
<path d="M141.914 153.739C141.46 153.739 141.095 154.104 141.095 154.558C141.095 155.012 141.46 155.378 141.914 155.378C142.368 155.378 142.733 155.012 142.733 154.558C142.733 154.104 142.368 153.739 141.914 153.739Z" fill="#191E1E"/>
<path d="M146.024 153.739C145.57 153.739 145.205 154.104 145.205 154.558C145.205 155.012 145.57 155.378 146.024 155.378C146.478 155.378 146.844 155.012 146.844 154.558C146.844 154.104 146.478 153.739 146.024 153.739Z" fill="#191E1E"/>
<path d="M150.134 153.739C149.68 153.739 149.314 154.104 149.314 154.558C149.314 155.012 149.68 155.378 150.134 155.378C150.587 155.378 150.953 155.012 150.953 154.558C150.953 154.104 150.587 153.739 150.134 153.739Z" fill="#191E1E"/>
<path d="M154.244 153.739C153.79 153.739 153.424 154.104 153.424 154.558C153.424 155.012 153.79 155.378 154.244 155.378C154.698 155.378 155.063 155.012 155.063 154.558C155.063 154.104 154.698 153.739 154.244 153.739Z" fill="#191E1E"/>
<path d="M158.353 153.739C157.899 153.739 157.534 154.104 157.534 154.558C157.534 155.012 157.899 155.378 158.353 155.378C158.807 155.378 159.173 155.012 159.173 154.558C159.173 154.104 158.807 153.739 158.353 153.739Z" fill="#191E1E"/>
<path d="M162.463 153.739C162.01 153.739 161.644 154.104 161.644 154.558C161.644 155.012 162.01 155.378 162.463 155.378C162.917 155.378 163.283 155.012 163.283 154.558C163.283 154.104 162.917 153.739 162.463 153.739Z" fill="#191E1E"/>
<path d="M139.859 156.851C139.405 156.851 139.04 157.217 139.04 157.683C139.04 158.15 139.405 158.503 139.859 158.503C140.313 158.503 140.679 158.137 140.679 157.683C140.679 157.229 140.313 156.851 139.859 156.851Z" fill="#191E1E"/>
<path d="M143.969 156.851C143.515 156.851 143.15 157.217 143.15 157.683C143.15 158.15 143.515 158.503 143.969 158.503C144.423 158.503 144.789 158.137 144.789 157.683C144.789 157.229 144.423 156.851 143.969 156.851Z" fill="#191E1E"/>
<path d="M148.079 156.851C147.625 156.851 147.259 157.217 147.259 157.683C147.259 158.15 147.625 158.503 148.079 158.503C148.533 158.503 148.898 158.137 148.898 157.683C148.898 157.229 148.533 156.851 148.079 156.851Z" fill="#191E1E"/>
<path d="M152.189 156.851C151.735 156.851 151.357 157.217 151.357 157.683C151.357 158.15 151.722 158.503 152.189 158.503C152.655 158.503 153.008 158.137 153.008 157.683C153.008 157.229 152.642 156.851 152.189 156.851Z" fill="#191E1E"/>
<path d="M156.298 156.851C155.845 156.851 155.479 157.217 155.479 157.683C155.479 158.15 155.845 158.503 156.298 158.503C156.752 158.503 157.13 158.137 157.13 157.683C157.13 157.229 156.765 156.851 156.298 156.851Z" fill="#191E1E"/>
<path d="M160.408 156.851C159.954 156.851 159.576 157.217 159.576 157.683C159.576 158.15 159.942 158.503 160.408 158.503C160.875 158.503 161.228 158.137 161.228 157.683C161.228 157.229 160.862 156.851 160.408 156.851Z" fill="#191E1E"/>
<path d="M164.518 156.851C164.064 156.851 163.699 157.217 163.699 157.683C163.699 158.15 164.064 158.503 164.518 158.503C164.972 158.503 165.35 158.137 165.35 157.683C165.35 157.229 164.972 156.851 164.518 156.851Z" fill="#191E1E"/>
<path d="M168.615 156.851C168.161 156.851 167.796 157.217 167.796 157.683C167.796 158.15 168.161 158.503 168.615 158.503C169.069 158.503 169.447 158.137 169.447 157.683C169.447 157.229 169.069 156.851 168.615 156.851Z" fill="#191E1E"/>
<path d="M197.384 156.851C196.93 156.851 196.564 157.217 196.564 157.683C196.564 158.15 196.93 158.503 197.384 158.503C197.837 158.503 198.203 158.137 198.203 157.683C198.203 157.229 197.837 156.851 197.384 156.851Z" fill="#191E1E"/>
<path d="M197.384 150.661C196.93 150.661 196.564 151.027 196.564 151.493C196.564 151.96 196.93 152.313 197.384 152.313C197.837 152.313 198.203 151.947 198.203 151.493C198.203 151.039 197.837 150.661 197.384 150.661Z" fill="#191E1E"/>
<path d="M193.286 156.851C192.833 156.851 192.467 157.217 192.467 157.683C192.467 158.15 192.833 158.503 193.286 158.503C193.74 158.503 194.106 158.137 194.106 157.683C194.106 157.229 193.74 156.851 193.286 156.851Z" fill="#191E1E"/>
<path d="M201.494 156.851C201.04 156.851 200.674 157.217 200.674 157.683C200.674 158.15 201.04 158.503 201.494 158.503C201.947 158.503 202.313 158.137 202.313 157.683C202.313 157.229 201.947 156.851 201.494 156.851Z" fill="#191E1E"/>
<path d="M146.024 159.993C145.57 159.993 145.205 160.358 145.205 160.812C145.205 161.266 145.57 161.632 146.024 161.632C146.478 161.632 146.844 161.266 146.844 160.812C146.844 160.358 146.478 159.993 146.024 159.993Z" fill="#191E1E"/>
<path d="M150.134 159.993C149.68 159.993 149.314 160.358 149.314 160.812C149.314 161.266 149.68 161.632 150.134 161.632C150.587 161.632 150.953 161.266 150.953 160.812C150.953 160.358 150.587 159.993 150.134 159.993Z" fill="#191E1E"/>
<path d="M154.244 159.993C153.79 159.993 153.424 160.358 153.424 160.812C153.424 161.266 153.79 161.632 154.244 161.632C154.698 161.632 155.063 161.266 155.063 160.812C155.063 160.358 154.698 159.993 154.244 159.993Z" fill="#191E1E"/>
<path d="M158.353 159.993C157.899 159.993 157.534 160.358 157.534 160.812C157.534 161.266 157.899 161.632 158.353 161.632C158.807 161.632 159.173 161.266 159.173 160.812C159.173 160.358 158.807 159.993 158.353 159.993Z" fill="#191E1E"/>
<path d="M162.463 159.993C162.01 159.993 161.644 160.358 161.644 160.812C161.644 161.266 162.01 161.632 162.463 161.632C162.917 161.632 163.283 161.266 163.283 160.812C163.283 160.358 162.917 159.993 162.463 159.993Z" fill="#191E1E"/>
<path d="M166.573 159.993C166.119 159.993 165.753 160.358 165.753 160.812C165.753 161.266 166.119 161.632 166.573 161.632C167.027 161.632 167.392 161.266 167.392 160.812C167.392 160.358 167.027 159.993 166.573 159.993Z" fill="#191E1E"/>
<path d="M170.683 159.993C170.229 159.993 169.864 160.358 169.864 160.812C169.864 161.266 170.229 161.632 170.683 161.632C171.137 161.632 171.502 161.266 171.502 160.812C171.502 160.358 171.137 159.993 170.683 159.993Z" fill="#191E1E"/>
<path d="M191.232 159.993C190.778 159.993 190.412 160.358 190.412 160.812C190.412 161.266 190.778 161.632 191.232 161.632C191.685 161.632 192.051 161.266 192.051 160.812C192.051 160.358 191.673 159.993 191.232 159.993Z" fill="#191E1E"/>
<path d="M187.122 159.993C186.668 159.993 186.303 160.358 186.303 160.812C186.303 161.266 186.668 161.632 187.122 161.632C187.576 161.632 187.942 161.266 187.942 160.812C187.942 160.358 187.563 159.993 187.122 159.993Z" fill="#191E1E"/>
<path d="M195.329 159.993C194.875 159.993 194.509 160.358 194.509 160.812C194.509 161.266 194.875 161.632 195.329 161.632C195.783 161.632 196.148 161.266 196.148 160.812C196.148 160.358 195.783 159.993 195.329 159.993Z" fill="#191E1E"/>
<path d="M152.189 163.12C151.735 163.12 151.357 163.486 151.357 163.94C151.357 164.393 151.722 164.759 152.189 164.759C152.655 164.759 153.008 164.393 153.008 163.94C153.008 163.486 152.642 163.12 152.189 163.12Z" fill="#191E1E"/>
<path d="M156.298 163.12C155.845 163.12 155.479 163.486 155.479 163.94C155.479 164.393 155.845 164.759 156.298 164.759C156.752 164.759 157.13 164.393 157.13 163.94C157.13 163.486 156.765 163.12 156.298 163.12Z" fill="#191E1E"/>
<path d="M160.408 163.12C159.954 163.12 159.576 163.486 159.576 163.94C159.576 164.393 159.942 164.759 160.408 164.759C160.875 164.759 161.228 164.393 161.228 163.94C161.228 163.486 160.862 163.12 160.408 163.12Z" fill="#191E1E"/>
<path d="M164.518 163.12C164.064 163.12 163.699 163.486 163.699 163.94C163.699 164.393 164.064 164.759 164.518 164.759C164.972 164.759 165.35 164.393 165.35 163.94C165.35 163.486 164.972 163.12 164.518 163.12Z" fill="#191E1E"/>
<path d="M168.628 163.12C168.174 163.12 167.808 163.486 167.808 163.94C167.808 164.393 168.174 164.759 168.628 164.759C169.081 164.759 169.447 164.393 169.447 163.94C169.447 163.486 169.081 163.12 168.628 163.12Z" fill="#191E1E"/>
<path d="M172.738 163.12C172.284 163.12 171.918 163.486 171.918 163.94C171.918 164.393 172.284 164.759 172.738 164.759C173.191 164.759 173.557 164.393 173.557 163.94C173.557 163.486 173.191 163.12 172.738 163.12Z" fill="#191E1E"/>
<path d="M176.847 163.12C176.393 163.12 176.028 163.486 176.028 163.94C176.028 164.393 176.393 164.759 176.847 164.759C177.301 164.759 177.667 164.393 177.667 163.94C177.667 163.486 177.301 163.12 176.847 163.12Z" fill="#191E1E"/>
<path d="M185.067 163.12C184.613 163.12 184.247 163.486 184.247 163.94C184.247 164.393 184.613 164.759 185.067 164.759C185.521 164.759 185.886 164.393 185.886 163.94C185.886 163.486 185.521 163.12 185.067 163.12Z" fill="#191E1E"/>
<path d="M180.957 163.12C180.503 163.12 180.138 163.486 180.138 163.94C180.138 164.393 180.503 164.759 180.957 164.759C181.411 164.759 181.777 164.393 181.777 163.94C181.777 163.486 181.411 163.12 180.957 163.12Z" fill="#191E1E"/>
<path d="M189.177 163.12C188.723 163.12 188.357 163.486 188.357 163.94C188.357 164.393 188.723 164.759 189.177 164.759C189.631 164.759 189.996 164.393 189.996 163.94C189.996 163.486 189.631 163.12 189.177 163.12Z" fill="#191E1E"/>
<path d="M193.286 163.12C192.833 163.12 192.467 163.486 192.467 163.94C192.467 164.393 192.833 164.759 193.286 164.759C193.74 164.759 194.106 164.393 194.106 163.94C194.106 163.486 193.74 163.12 193.286 163.12Z" fill="#191E1E"/>
<path d="M199.439 159.993C198.985 159.993 198.62 160.358 198.62 160.812C198.62 161.266 198.985 161.632 199.439 161.632C199.893 161.632 200.258 161.266 200.258 160.812C200.258 160.358 199.893 159.993 199.439 159.993Z" fill="#191E1E"/>
<path d="M197.384 163.12C196.93 163.12 196.564 163.486 196.564 163.94C196.564 164.393 196.93 164.759 197.384 164.759C197.837 164.759 198.203 164.393 198.203 163.94C198.203 163.486 197.837 163.12 197.384 163.12Z" fill="#191E1E"/>
<path d="M158.353 166.247C157.899 166.247 157.534 166.613 157.534 167.066C157.534 167.52 157.899 167.886 158.353 167.886C158.807 167.886 159.173 167.52 159.173 167.066C159.173 166.613 158.807 166.247 158.353 166.247Z" fill="#191E1E"/>
<path d="M162.463 166.247C162.01 166.247 161.644 166.613 161.644 167.066C161.644 167.52 162.01 167.886 162.463 167.886C162.917 167.886 163.283 167.52 163.283 167.066C163.283 166.613 162.917 166.247 162.463 166.247Z" fill="#191E1E"/>
<path d="M166.573 167.896C167.027 167.896 167.392 167.53 167.392 167.076C167.392 166.622 167.027 166.257 166.573 166.257C166.119 166.257 165.753 166.622 165.753 167.076C165.753 167.53 166.119 167.896 166.573 167.896Z" fill="#191E1E"/>
<path d="M170.683 166.247C170.229 166.247 169.864 166.613 169.864 167.066C169.864 167.52 170.229 167.886 170.683 167.886C171.137 167.886 171.502 167.52 171.502 167.066C171.502 166.613 171.137 166.247 170.683 166.247Z" fill="#191E1E"/>
<path d="M174.792 166.247C174.339 166.247 173.973 166.613 173.973 167.066C173.973 167.52 174.339 167.886 174.792 167.886C175.246 167.886 175.612 167.52 175.612 167.066C175.612 166.613 175.246 166.247 174.792 166.247Z" fill="#191E1E"/>
<path d="M178.903 166.247C178.449 166.247 178.083 166.613 178.083 167.066C178.083 167.52 178.449 167.886 178.903 167.886C179.356 167.886 179.722 167.52 179.722 167.066C179.722 166.613 179.356 166.247 178.903 166.247Z" fill="#191E1E"/>
<path d="M183 166.247C182.546 166.247 182.18 166.613 182.18 167.066C182.18 167.52 182.546 167.886 183 167.886C183.454 167.886 183.819 167.52 183.819 167.066C183.819 166.613 183.454 166.247 183 166.247Z" fill="#191E1E"/>
<path d="M187.122 167.896C187.576 167.896 187.942 167.53 187.942 167.076C187.942 166.622 187.576 166.257 187.122 166.257C186.668 166.257 186.303 166.622 186.303 167.076C186.303 167.53 186.668 167.896 187.122 167.896Z" fill="#191E1E"/>
<path d="M191.232 166.247C190.778 166.247 190.412 166.613 190.412 167.066C190.412 167.52 190.778 167.886 191.232 167.886C191.685 167.886 192.051 167.52 192.051 167.066C192.051 166.613 191.673 166.247 191.232 166.247Z" fill="#191E1E"/>
<path d="M170.683 172.348C170.229 172.348 169.864 172.714 169.864 173.168C169.864 173.621 170.229 173.987 170.683 173.987C171.137 173.987 171.502 173.621 171.502 173.168C171.502 172.714 171.137 172.348 170.683 172.348Z" fill="#191E1E"/>
<path d="M174.78 172.348C174.326 172.348 173.961 172.714 173.961 173.168C173.961 173.621 174.326 173.987 174.78 173.987C175.234 173.987 175.6 173.621 175.6 173.168C175.6 172.714 175.234 172.348 174.78 172.348Z" fill="#191E1E"/>
<path d="M178.903 172.348C178.449 172.348 178.083 172.714 178.083 173.168C178.083 173.621 178.449 173.987 178.903 173.987C179.356 173.987 179.722 173.621 179.722 173.168C179.722 172.714 179.356 172.348 178.903 172.348Z" fill="#191E1E"/>
<path d="M164.518 169.369C164.064 169.369 163.699 169.735 163.699 170.189C163.699 170.642 164.064 171.008 164.518 171.008C164.972 171.008 165.35 170.642 165.35 170.189C165.35 169.735 164.972 169.369 164.518 169.369Z" fill="#191E1E"/>
<path d="M168.628 169.369C168.174 169.369 167.808 169.735 167.808 170.189C167.808 170.642 168.174 171.008 168.628 171.008C169.081 171.008 169.447 170.642 169.447 170.189C169.447 169.735 169.081 169.369 168.628 169.369Z" fill="#191E1E"/>
<path d="M172.738 169.369C172.284 169.369 171.918 169.735 171.918 170.189C171.918 170.642 172.284 171.008 172.738 171.008C173.191 171.008 173.557 170.642 173.557 170.189C173.557 169.735 173.191 169.369 172.738 169.369Z" fill="#191E1E"/>
<path d="M176.847 169.369C176.393 169.369 176.028 169.735 176.028 170.189C176.028 170.642 176.393 171.008 176.847 171.008C177.301 171.008 177.667 170.642 177.667 170.189C177.667 169.735 177.301 169.369 176.847 169.369Z" fill="#191E1E"/>
<path d="M180.957 169.369C180.503 169.369 180.138 169.735 180.138 170.189C180.138 170.642 180.503 171.008 180.957 171.008C181.411 171.008 181.777 170.642 181.777 170.189C181.777 169.735 181.411 169.369 180.957 169.369Z" fill="#191E1E"/>
<path d="M185.067 169.369C184.613 169.369 184.247 169.735 184.247 170.189C184.247 170.642 184.613 171.008 185.067 171.008C185.521 171.008 185.886 170.642 185.886 170.189C185.886 169.735 185.521 169.369 185.067 169.369Z" fill="#191E1E"/>
<path d="M217.529 144.358C217.075 144.358 216.71 144.723 216.71 145.19C216.71 145.656 217.075 146.009 217.529 146.009C217.983 146.009 218.348 145.644 218.348 145.19C218.348 144.736 217.983 144.358 217.529 144.358Z" fill="#191E1E"/>
<path d="M213.42 144.358C212.966 144.358 212.6 144.723 212.6 145.19C212.6 145.656 212.966 146.009 213.42 146.009C213.873 146.009 214.239 145.644 214.239 145.19C214.239 144.736 213.873 144.358 213.42 144.358Z" fill="#191E1E"/>
<path d="M203.145 159.993C202.691 159.993 202.326 160.358 202.326 160.825C202.326 161.291 202.691 161.644 203.145 161.644C203.599 161.644 203.965 161.279 203.965 160.825C203.965 160.371 203.599 159.993 203.145 159.993Z" fill="#191E1E"/>
<path d="M211.365 147.485C210.911 147.485 210.545 147.85 210.545 148.304C210.545 148.758 210.911 149.124 211.365 149.124C211.819 149.124 212.184 148.758 212.184 148.304C212.184 147.85 211.806 147.485 211.365 147.485Z" fill="#191E1E"/>
<path d="M207.255 147.485C206.801 147.485 206.435 147.85 206.435 148.304C206.435 148.758 206.801 149.124 207.255 149.124C207.709 149.124 208.074 148.758 208.074 148.304C208.074 147.85 207.696 147.485 207.255 147.485Z" fill="#191E1E"/>
<path d="M215.474 147.485C215.02 147.485 214.655 147.85 214.655 148.304C214.655 148.758 215.02 149.124 215.474 149.124C215.928 149.124 216.294 148.758 216.294 148.304C216.294 147.85 215.928 147.485 215.474 147.485Z" fill="#191E1E"/>
<path d="M205.2 150.612C204.746 150.612 204.38 150.977 204.38 151.431C204.38 151.885 204.746 152.251 205.2 152.251C205.654 152.251 206.019 151.885 206.019 151.431C206.019 150.977 205.654 150.612 205.2 150.612Z" fill="#191E1E"/>
<path d="M201.494 150.612C201.04 150.612 200.674 150.977 200.674 151.431C200.674 151.885 201.04 152.251 201.494 152.251C201.947 152.251 202.313 151.885 202.313 151.431C202.313 150.977 201.947 150.612 201.494 150.612Z" fill="#191E1E"/>
<path d="M209.309 150.612C208.856 150.612 208.49 150.977 208.49 151.431C208.49 151.885 208.856 152.251 209.309 152.251C209.763 152.251 210.129 151.885 210.129 151.431C210.129 150.977 209.763 150.612 209.309 150.612Z" fill="#191E1E"/>
<path d="M213.42 150.612C212.966 150.612 212.6 150.977 212.6 151.431C212.6 151.885 212.966 152.251 213.42 152.251C213.873 152.251 214.239 151.885 214.239 151.431C214.239 150.977 213.873 150.612 213.42 150.612Z" fill="#191E1E"/>
<path d="M219.584 147.485C219.13 147.485 218.765 147.85 218.765 148.304C218.765 148.758 219.13 149.124 219.584 149.124C220.038 149.124 220.404 148.758 220.404 148.304C220.404 147.85 220.038 147.485 219.584 147.485Z" fill="#191E1E"/>
<path d="M217.529 150.612C217.075 150.612 216.71 150.977 216.71 151.431C216.71 151.885 217.075 152.251 217.529 152.251C217.983 152.251 218.348 151.885 218.348 151.431C218.348 150.977 217.983 150.612 217.529 150.612Z" fill="#191E1E"/>
<path d="M203.145 153.753C202.691 153.753 202.326 154.119 202.326 154.573C202.326 155.027 202.691 155.392 203.145 155.392C203.599 155.392 203.965 155.027 203.965 154.573C203.965 154.119 203.599 153.753 203.145 153.753Z" fill="#191E1E"/>
<path d="M199.439 153.739C198.985 153.739 198.62 154.104 198.62 154.558C198.62 155.012 198.985 155.378 199.439 155.378C199.893 155.378 200.258 155.012 200.258 154.558C200.258 154.104 199.893 153.739 199.439 153.739Z" fill="#191E1E"/>
<path d="M199.439 147.485C198.985 147.485 198.62 147.85 198.62 148.304C198.62 148.758 198.985 149.124 199.439 149.124C199.893 149.124 200.258 148.758 200.258 148.304C200.258 147.85 199.893 147.485 199.439 147.485Z" fill="#191E1E"/>
<path d="M195.329 153.739C194.875 153.739 194.509 154.104 194.509 154.558C194.509 155.012 194.875 155.378 195.329 155.378C195.783 155.378 196.148 155.012 196.148 154.558C196.148 154.104 195.783 153.739 195.329 153.739Z" fill="#191E1E"/>
<path d="M195.329 147.485C194.875 147.485 194.509 147.85 194.509 148.304C194.509 148.758 194.875 149.124 195.329 149.124C195.783 149.124 196.148 148.758 196.148 148.304C196.148 147.85 195.783 147.485 195.329 147.485Z" fill="#191E1E"/>
<path d="M207.255 155.392C207.709 155.392 208.074 155.027 208.074 154.573C208.074 154.119 207.709 153.753 207.255 153.753C206.801 153.753 206.435 154.119 206.435 154.573C206.435 155.027 206.801 155.392 207.255 155.392Z" fill="#191E1E"/>
<path d="M209.309 158.519C209.763 158.519 210.129 158.154 210.129 157.7C210.129 157.246 209.763 156.88 209.309 156.88C208.856 156.88 208.49 157.246 208.49 157.7C208.49 158.154 208.856 158.519 209.309 158.519Z" fill="#191E1E"/>
<path d="M211.365 153.753C210.911 153.753 210.545 154.119 210.545 154.573C210.545 155.027 210.911 155.392 211.365 155.392C211.819 155.392 212.184 155.027 212.184 154.573C212.184 154.119 211.806 153.753 211.365 153.753Z" fill="#191E1E"/>
<path d="M205.2 156.88C204.746 156.88 204.38 157.246 204.38 157.7C204.38 158.154 204.746 158.519 205.2 158.519C205.654 158.519 206.019 158.154 206.019 157.7C206.019 157.246 205.654 156.88 205.2 156.88Z" fill="#191E1E"/>
<path d="M260.934 81.5548C260.934 81.5548 260.972 81.5548 260.985 81.5548C261.149 81.5548 261.313 81.5169 261.464 81.4287L270.755 76.0709C271.612 76.4617 272.608 76.6634 273.566 76.6634C274.524 76.6634 275.47 76.4617 276.176 76.0457C277.021 75.5666 277.5 74.8102 277.5 73.9908C277.5 73.0453 276.869 72.1502 275.785 71.5199C274.008 70.4988 271.398 70.3979 269.847 71.293C269.003 71.772 268.524 72.5284 268.524 73.3479C268.524 73.8773 268.738 74.3816 269.091 74.8354L260.758 79.6386L253.383 79.2225L258.06 76.5247C258.514 76.26 258.665 75.6801 258.4 75.2389C258.136 74.785 257.556 74.6337 257.115 74.8985L142.028 141.335C141.574 141.6 141.423 142.18 141.688 142.621C141.864 142.924 142.179 143.1 142.507 143.1C142.671 143.1 142.835 143.062 142.973 142.974L250.395 80.9622L260.934 81.5548ZM270.78 72.9444C271.196 72.7049 271.801 72.5789 272.432 72.5789C273.264 72.5789 274.159 72.7806 274.827 73.1714C275.356 73.4739 275.596 73.8143 275.596 74.0034C275.596 74.1295 275.457 74.2807 275.218 74.4194C274.247 74.9867 272.356 74.8733 271.171 74.1925C270.642 73.8899 270.402 73.5496 270.402 73.3605C270.402 73.2344 270.541 73.0831 270.78 72.9444Z" fill="black"/>
<path d="M258.867 66.0618C259.283 65.8223 259.888 65.6962 260.519 65.6962C261.351 65.6962 262.246 65.898 262.914 66.2888C263.443 66.5913 263.683 66.9317 263.683 67.1208C263.683 67.2469 263.544 67.3981 263.305 67.5368C262.334 68.0915 260.443 67.9906 259.258 67.3099C258.728 67.0073 258.489 66.667 258.489 66.4779C258.489 66.3518 258.628 66.2005 258.867 66.0618ZM263.859 64.6499C262.082 63.6162 259.485 63.5153 257.922 64.423C257.09 64.902 256.598 65.6458 256.598 66.4652C256.598 66.9947 256.812 67.499 257.178 67.9528L190.324 106.554L188.421 107.651L190.324 108.748L192.215 107.651L258.829 69.1883C259.699 69.5665 260.682 69.7808 261.641 69.7808C262.599 69.7808 263.544 69.5791 264.263 69.1631C265.095 68.684 265.574 67.9402 265.574 67.1208C265.574 66.1753 264.956 65.2802 263.859 64.6499ZM176.129 114.749L136.04 137.894C135.599 138.159 135.435 138.739 135.7 139.18C135.876 139.483 136.191 139.659 136.519 139.659C136.683 139.659 136.847 139.621 136.998 139.533L178.02 115.845L179.911 114.749L178.02 113.652L176.129 114.749Z" fill="black"/>
<path d="M287.661 78.3895C285.883 77.3684 283.273 77.2675 281.723 78.1626C280.878 78.6417 280.399 79.3981 280.399 80.2175C280.399 80.747 280.613 81.2512 280.966 81.7051L257.417 95.3076L239.213 94.2865L249.412 88.3992L259.875 89.0421C259.875 89.0421 259.913 89.0421 259.938 89.0421C260.102 89.0421 260.266 89.0043 260.417 88.916L269.948 83.4196C270.402 83.1548 270.553 82.5749 270.288 82.1337C270.024 81.6925 269.444 81.5286 269.003 81.7933L259.724 87.1511L249.26 86.5082C249.26 86.5082 249.197 86.5208 249.16 86.5208C249.097 86.5208 249.046 86.5334 248.996 86.546C248.933 86.5586 248.882 86.5712 248.832 86.5964C248.794 86.609 248.769 86.609 248.731 86.6343L235.633 94.1982C235.633 94.1982 235.57 94.2234 235.532 94.2486L147.991 144.801C147.537 145.066 147.386 145.646 147.65 146.087C147.827 146.39 148.142 146.566 148.47 146.566C148.634 146.566 148.798 146.528 148.936 146.44L236.238 96.0262L257.619 97.2238C257.619 97.2238 257.657 97.2238 257.669 97.2238C257.833 97.2238 257.997 97.186 258.148 97.0977L282.656 82.9531C283.513 83.3439 284.509 83.5456 285.467 83.5456C286.425 83.5456 287.371 83.3439 288.077 82.9279C288.921 82.4489 289.4 81.6925 289.4 80.873C289.4 79.9275 288.77 79.0325 287.686 78.4021L287.661 78.3895ZM287.106 81.2764C286.135 81.8437 284.244 81.7303 283.059 81.0495C282.53 80.747 282.29 80.4066 282.29 80.2175C282.29 80.0914 282.429 79.9401 282.668 79.8015C283.084 79.5619 283.689 79.4359 284.32 79.4359C285.152 79.4359 286.047 79.6376 286.715 80.0284C287.245 80.3309 287.484 80.6713 287.484 80.8604C287.484 80.9865 287.345 81.1378 287.106 81.2764Z" fill="black"/>
<path d="M153.538 99.5198L151.634 100.617L111.558 123.762C111.104 124.027 110.94 124.607 111.205 125.048C111.381 125.351 111.696 125.527 112.024 125.527C112.188 125.527 112.352 125.489 112.503 125.401L153.525 101.713L155.416 100.617L153.538 99.5198ZM159.476 102.961L157.585 104.046L117.495 127.191C117.054 127.456 116.89 128.036 117.155 128.477C117.332 128.792 117.647 128.956 117.975 128.956C118.138 128.956 118.302 128.918 118.441 128.83L159.476 105.142L161.367 104.058L159.476 102.961ZM166.624 107.084L165.451 106.403L163.56 107.5L123.471 130.645C123.03 130.91 122.866 131.49 123.131 131.931C123.307 132.234 123.622 132.41 123.95 132.41C124.114 132.41 124.278 132.373 124.429 132.284L165.451 108.597L167.355 107.5L166.624 107.084ZM171.629 109.971L169.738 111.067L129.648 134.213C129.207 134.478 129.043 135.058 129.308 135.499C129.484 135.802 129.8 135.978 130.127 135.978C130.291 135.978 130.455 135.94 130.594 135.852L171.641 112.152L173.52 111.067L171.629 109.971ZM251.29 57.3885C249.513 56.3674 246.903 56.2666 245.34 57.1616C244.508 57.6533 244.029 58.3971 244.029 59.2165C244.029 59.746 244.243 60.2502 244.596 60.7041L227.313 70.6885L226.632 66.377L233.528 62.3934C233.981 62.1286 234.145 61.5487 233.881 61.0949C233.616 60.641 233.036 60.4898 232.582 60.7545L226.304 64.3852L225.623 60.0864L234.347 55.0563C235.204 55.4345 236.188 55.6488 237.146 55.6488C238.104 55.6488 239.049 55.4471 239.768 55.0311C240.6 54.5521 241.092 53.7957 241.092 52.9762C241.092 52.0433 240.461 51.1483 239.365 50.5179C237.6 49.4842 234.99 49.3833 233.427 50.291C232.595 50.7701 232.116 51.5139 232.116 52.3333C232.116 52.8628 232.317 53.367 232.683 53.8335L224.11 58.7753C223.77 58.977 223.594 59.3552 223.657 59.746L224.552 65.3937L214.466 71.218L213.975 68.3311L213.647 66.3392L207.482 69.9447L204.683 71.5836L203.297 70.7894L201.406 71.8735L198.998 73.2729L198.128 69.9825L197.119 66.1501L196.287 62.9859L222.446 48.1857C223.316 48.5765 224.299 48.7782 225.258 48.7782C226.216 48.7782 227.161 48.5765 227.88 48.1731C228.712 47.6815 229.204 46.9377 229.204 46.1182C229.204 45.1727 228.573 44.2777 227.489 43.6473C225.711 42.6262 223.102 42.5254 221.539 43.4204C220.707 43.9121 220.228 44.6559 220.228 45.4753C220.228 45.9922 220.429 46.4964 220.795 46.9503L194.724 61.6874C194.346 61.9017 194.169 62.3429 194.27 62.759L195.455 67.2343L195.821 68.6462L197.296 74.2562L165.83 92.4223L163.939 93.5191L165.83 94.6032L167.721 93.5065L197.788 76.1472L198.859 80.2191L171.78 95.8513L169.876 96.9481L171.78 98.0448L173.671 96.9481L199.363 82.1227L200.435 86.2072L177.756 99.3055L175.852 100.402L177.756 101.499L179.647 100.402L225.888 73.7015L226.607 78.2272L183.933 102.873L182.029 103.97L183.92 105.067L185.811 103.97L228.119 79.5383C228.119 79.5383 228.132 79.5257 228.145 79.5257L245.68 69.4026C246.122 69.1379 246.286 68.558 246.021 68.1041C245.756 67.6629 245.176 67.499 244.722 67.7638L228.346 77.2187L227.628 72.6803L246.248 61.9269C247.105 62.3177 248.088 62.5194 249.046 62.5194C250.005 62.5194 250.95 62.3177 251.669 61.9143C252.501 61.4227 252.992 60.6789 252.992 59.8594C252.992 58.9139 252.362 58.0189 251.278 57.3885H251.29ZM234.372 51.9173C234.801 51.6777 235.393 51.5643 236.024 51.5643C236.856 51.5643 237.751 51.766 238.419 52.1442C238.949 52.4594 239.201 52.7997 239.201 52.9762C239.201 53.1023 239.049 53.2536 238.822 53.3922C237.852 53.9595 235.961 53.8461 234.776 53.1653C234.246 52.8628 234.007 52.5224 234.007 52.3333C234.007 52.2072 234.145 52.0559 234.372 51.9173ZM222.484 45.0593C222.913 44.8198 223.505 44.6937 224.136 44.6937C224.968 44.6937 225.863 44.8954 226.544 45.2862C227.06 45.5888 227.313 45.9291 227.313 46.1182C227.313 46.2443 227.161 46.3956 226.934 46.5343C225.964 47.0889 224.073 46.9881 222.888 46.3073C222.358 46.0048 222.119 45.6644 222.119 45.4753C222.119 45.3492 222.257 45.198 222.484 45.0593ZM199.49 75.1765L203.309 72.9703L211.995 67.9529L212.235 69.3648L212.714 72.2265L200.561 79.2484L199.49 75.1765ZM202.137 85.2239L201.053 81.1394L224.879 67.3856L225.56 71.697L202.137 85.2239ZM250.736 60.2755C249.765 60.8427 247.874 60.7293 246.689 60.0485C246.16 59.746 245.92 59.4056 245.92 59.2165C245.92 59.0904 246.059 58.9392 246.286 58.8005C246.714 58.561 247.307 58.4349 247.937 58.4349C248.769 58.4349 249.664 58.6366 250.345 59.0274C250.862 59.33 251.114 59.6703 251.114 59.8594C251.114 59.9855 250.963 60.1368 250.736 60.2755ZM221.992 54.2369C221.728 53.7831 221.148 53.6192 220.694 53.8839L211.176 59.3804C210.836 59.5821 210.646 59.9729 210.709 60.3637L210.798 60.9058L211.214 63.3262L213.344 64.5617L212.928 62.1412L212.689 60.6915L221.639 55.5228C222.093 55.258 222.245 54.6907 221.992 54.2369Z" fill="black"/>
<path d="M183.933 105.062L160.939 91.7743L159.691 88.8621L149.971 66.2585C149.82 65.9307 149.883 65.5525 150.122 65.2752L163.284 49.8573L164.532 48.395L169.751 51.4079L177.63 46.7939L177.832 46.6679L179.622 45.6215L179.773 45.5333L180.088 45.3442L179.029 44.739L172.865 41.184L168.503 43.7305L172.146 39.4695C172.234 39.3686 172.348 39.2804 172.474 39.23H172.487C172.487 39.23 172.6 39.1795 172.663 39.1669C172.89 39.1165 173.13 39.1417 173.331 39.2678L180.895 43.6423L182.433 44.5247C182.547 44.5878 182.635 44.676 182.711 44.7769L180.454 46.1006L181.513 46.7057L182.912 47.5125V63.5103C182.912 64.0019 182.534 64.4179 182.042 64.4558C181.753 64.481 181.463 64.5062 181.185 64.5566C180.605 64.6449 180.051 64.7709 179.521 64.9222C178.853 65.1365 178.223 65.4139 177.63 65.7416C176.168 66.5611 174.958 67.7461 174.05 69.2463C172.726 71.402 172.02 74.2133 172.02 77.5666C172.02 81.2856 172.89 85.2819 174.39 89.2782L174.541 89.5429L174.504 89.5681C175.121 91.1691 175.84 92.7702 176.659 94.3586L177.038 95.0016L177 95.0268C177.63 96.2118 178.311 97.3842 179.042 98.5314H179.067L179.256 98.8466C179.735 99.5778 180.227 100.309 180.744 101.028C181.74 102.427 182.811 103.776 183.933 105.062Z" fill="black"/>
<path d="M239.642 117.368L217.631 143.161C217.442 143.388 217.177 143.502 216.9 143.502C216.749 143.502 216.585 143.451 216.434 143.376L172.386 117.948C172.209 117.835 172.071 117.683 171.995 117.494L169.058 110.674L167.809 107.762L168.503 108.165L180.29 114.973L188.812 109.981C189.317 110.422 189.833 110.851 190.35 111.267C191.951 112.565 193.628 113.712 195.343 114.708C201.885 118.49 208.063 119.247 212.273 116.814C215.803 114.784 217.745 110.611 217.745 105.064C217.745 97.3363 213.988 87.894 207.684 79.8131C207.558 79.6493 207.483 79.4349 207.483 79.2332V69.9422L215.022 65.5299L208.428 61.7227L207.483 62.2774V60.6259C207.483 60.2855 207.659 59.9703 207.949 59.8065C208.025 59.756 208.1 59.7308 208.189 59.7056C208.34 59.6678 208.504 59.6678 208.668 59.7056C208.743 59.7308 208.832 59.7686 208.895 59.8065L217.379 64.6978C217.492 64.7609 217.593 64.8491 217.656 64.9626C217.694 65.013 217.732 65.0634 217.745 65.1138C217.757 65.1265 217.77 65.1391 217.77 65.1517L239.794 116.372C239.945 116.713 239.882 117.091 239.642 117.368Z" fill="black"/>
<path d="M200.549 44.0337V66.3348L198.091 67.7719L200.549 69.1965V84.69C200.549 85.0177 200.373 85.3329 200.083 85.4968H200.057C199.919 85.5976 199.755 85.6355 199.604 85.6355C199.427 85.6355 199.251 85.585 199.099 85.4842L190.275 79.9373C190.01 79.7608 189.833 79.4582 189.833 79.1305V48.6603L197.713 44.0463L190.791 40.0374L189.833 40.6047V38.9406C189.833 38.6128 190.01 38.3229 190.275 38.1464H190.3C190.3 38.1464 190.3 38.1338 190.3 38.1212C190.438 38.0329 190.615 37.9951 190.766 37.9951H190.804C190.968 37.9951 191.107 38.0455 191.245 38.1212L200.057 43.2142C200.347 43.3907 200.536 43.6933 200.536 44.0337H200.549Z" fill="black"/>
<path d="M181.198 46.5314V64.5211C181.198 64.5211 181.198 64.5463 181.185 64.5589C181.185 64.8866 180.996 65.1766 180.719 65.3405L174.05 69.2485L170.23 71.4799C170.079 71.5681 169.915 71.6186 169.751 71.6186C169.587 71.6186 169.423 71.5681 169.284 71.4925C168.982 71.316 168.805 71.0135 168.805 70.6731V52.507C168.805 52.1666 168.982 51.8514 169.272 51.6875L169.751 51.4102L177.832 46.6701L179.773 45.5355C180.063 45.3716 180.429 45.3716 180.719 45.5355C180.832 45.5985 180.92 45.6868 180.996 45.7876L180.454 46.1028L181.198 46.5314Z" fill="black"/>
<path d="M200.549 44.0356V66.3367L198.091 67.7738L200.549 69.1984V84.6919C200.549 85.0197 200.373 85.3348 200.083 85.4987H200.058L187.867 92.6593C187.716 92.7475 187.552 92.7853 187.388 92.7853C187.224 92.7853 187.06 92.7475 186.921 92.6719C186.619 92.4954 186.442 92.1802 186.442 91.8398V51.1962C186.442 50.8558 186.619 50.5532 186.909 50.3767L187.388 50.0994L189.834 48.6622L197.713 44.0482L199.125 43.2162C199.415 43.0523 199.78 43.0523 200.07 43.2162C200.36 43.3927 200.549 43.6952 200.549 44.0356Z" fill="black"/>
<path d="M158.481 90.3656L143.328 81.6166L141.979 80.835L140.718 77.9228L138.625 73.0441L160.649 47.251L169.751 52.5079V70.674C163.196 71.2035 158.859 76.1957 158.859 84.7304C158.859 85.9785 158.947 87.2517 159.136 88.5502C159.237 89.357 159.388 90.1765 159.565 90.9959L158.481 90.3656Z" fill="white"/>
<path d="M226.721 123.911L204.697 149.704L160.649 124.276L150.097 99.7313L148.849 96.8191L150.211 97.6007L164.872 106.072L166.625 107.081C167.469 108.367 168.377 109.615 169.335 110.825C173.13 115.653 177.718 119.839 182.66 122.688C195.809 130.277 206.474 125.587 206.474 112.224C206.474 103.967 202.415 94.3356 196.213 86.3809V67.7861L204.697 72.6775L226.721 123.911Z" fill="white"/>
<path d="M227.591 123.533L205.567 72.3001C205.479 72.111 205.34 71.9597 205.163 71.8588L196.692 66.9675C196.389 66.791 196.036 66.791 195.746 66.9675C195.444 67.1313 195.267 67.4465 195.267 67.7869V86.3816C195.267 86.5959 195.343 86.7976 195.469 86.9615C201.772 95.0424 205.529 104.485 205.529 112.225C205.529 117.759 203.588 121.932 200.07 123.975C195.847 126.408 189.67 125.639 183.14 121.869C178.979 119.474 175.059 116.095 171.693 112.187C170.558 110.901 169.499 109.553 168.503 108.166L167.81 107.762L166.625 107.082L164.872 106.073C165.616 107.296 166.423 108.481 167.268 109.641C171.377 115.314 176.571 120.268 182.194 123.508C189.329 127.63 196.187 128.387 201.016 125.601C205.138 123.218 207.42 118.465 207.42 112.225C207.42 104.17 203.588 94.412 197.158 86.0665V69.4131L203.953 73.3338L225.612 123.748L204.483 148.494L161.393 123.622L151.459 100.514L150.211 97.6015L148.849 96.8199L147.475 96.0257L148.723 98.9378L159.779 124.655C159.855 124.844 159.994 124.996 160.17 125.096L204.218 150.524C204.369 150.612 204.533 150.663 204.697 150.663C204.962 150.663 205.226 150.537 205.416 150.322L227.439 124.517C227.666 124.252 227.729 123.861 227.591 123.533ZM139.722 73.2203L160.851 48.461L168.806 53.0498V69.8292C162.061 70.7873 157.913 76.4224 157.913 84.7302C157.913 85.7891 157.977 86.8607 158.115 87.9575C158.191 88.7517 158.317 89.5585 158.481 90.3653L159.565 90.9956L160.674 91.626C160.473 90.7939 160.309 89.9745 160.183 89.1551C159.931 87.6423 159.804 86.1673 159.804 84.7302C159.804 77.0275 163.549 72.1236 169.827 71.6067C170.318 71.5689 170.697 71.1655 170.697 70.6738V52.5077C170.697 52.1673 170.52 51.8521 170.23 51.6883L161.116 46.4313C160.725 46.2044 160.221 46.2926 159.931 46.633L137.907 72.4387C137.667 72.7035 137.617 73.0943 137.755 73.422L139.344 77.1284L140.604 80.0405L141.979 80.8347L143.328 81.6163L142.079 78.7042L139.722 73.2203Z" fill="black"/>
<path d="M169.751 51.4089L164.532 48.3959L162.528 47.2361L168.503 43.7315L172.865 41.185L180.089 45.3451L179.773 45.5342L169.751 51.4089ZM182.711 44.7778C182.635 44.677 182.547 44.5887 182.434 44.5257L180.896 43.6432L173.331 39.2688C173.13 39.1427 172.89 39.1175 172.663 39.1679C172.6 39.1805 172.537 39.1931 172.487 39.2309H172.474C172.474 39.2309 172.411 39.2562 172.386 39.2688L160.17 46.4293C159.88 46.5932 159.704 46.9084 159.704 47.2487C159.704 47.5891 159.88 47.8917 160.17 48.0682L163.284 49.8583L168.806 53.0478L169.285 53.3251C169.423 53.4008 169.587 53.4512 169.751 53.4512C169.915 53.4512 170.079 53.4008 170.23 53.3125L177.63 48.9884L179.521 47.8791L179.635 47.816L181.198 46.8958L181.513 46.7067L180.454 46.1015L182.711 44.7778Z" fill="black"/>
<path d="M217.745 65.1153C217.745 65.1153 217.694 65.0145 217.657 64.964C217.594 64.8506 217.493 64.7623 217.379 64.6993L212.929 62.1402L210.799 60.9047L208.895 59.8079C208.832 59.7701 208.744 59.7323 208.668 59.7071C208.504 59.6693 208.34 59.6693 208.189 59.7071C208.101 59.7323 208.025 59.7575 207.949 59.8079L200.549 64.1446L197.12 66.149L195.734 66.9685C195.62 67.0315 195.519 67.1198 195.456 67.2332C195.33 67.3845 195.267 67.5862 195.267 67.7879C195.267 68.1283 195.456 68.4308 195.746 68.6073L195.822 68.6452L198.129 69.9815L200.549 71.3808L201.407 71.8724L203.31 72.9692L204.218 73.4987C204.369 73.5869 204.533 73.6248 204.697 73.6248C204.861 73.6248 205.025 73.5743 205.176 73.4987L207.483 72.1498L212.236 69.3637L213.975 68.33L217.379 66.3381C217.669 66.1617 217.858 65.8591 217.846 65.5187C217.846 65.3674 217.808 65.2414 217.745 65.1153ZM213.648 66.3381L207.483 69.9436L204.684 71.5825L203.298 70.7883L200.549 69.1998L198.091 67.7753L200.549 66.3381L207.483 62.2788L208.428 61.7241L211.215 63.3252L213.345 64.5606L215.022 65.5313L213.648 66.3381Z" fill="black"/>
<path d="M239.655 116.147C239.365 115.794 238.849 115.706 238.458 115.933L226.242 123.093C226.154 123.144 226.065 123.219 226.002 123.295L203.978 149.101C203.676 149.454 203.676 149.97 203.978 150.323C204.167 150.55 204.432 150.664 204.71 150.664C204.873 150.664 205.037 150.626 205.189 150.538L217.405 143.377C217.493 143.327 217.581 143.251 217.644 143.175L239.668 117.37C239.971 117.017 239.971 116.5 239.668 116.147H239.655Z" fill="black"/>
<path d="M239.807 116.374L217.783 65.1409C217.682 64.8888 217.468 64.6997 217.203 64.6114C216.951 64.5232 216.661 64.561 216.434 64.6997L204.218 71.8602C203.802 72.0998 203.638 72.6166 203.827 73.0452L225.851 124.278C225.952 124.531 226.166 124.72 226.431 124.808C226.532 124.846 226.633 124.858 226.721 124.858C226.885 124.858 227.049 124.821 227.2 124.732L239.416 117.572C239.832 117.332 239.996 116.815 239.807 116.387V116.374Z" fill="black"/>
<path d="M200.07 43.2157L191.258 38.1226C191.12 38.047 190.956 37.9966 190.817 37.9966H190.779C190.615 37.9966 190.451 38.047 190.313 38.1226C190.313 38.1353 190.313 38.1353 190.313 38.1353H190.287L180.908 43.6443L179.042 44.7411L178.109 45.2832C177.819 45.4597 177.643 45.7622 177.643 46.1026C177.643 46.3169 177.706 46.5186 177.845 46.6699C177.908 46.7708 177.996 46.859 178.109 46.9221L179.534 47.7415L179.647 47.8045L181.211 48.7122L182.925 49.6955L186.455 51.7378L186.921 52.0151C187.073 52.1034 187.237 52.1412 187.401 52.1412C187.564 52.1412 187.728 52.0908 187.88 52.0151L188.346 51.7378L189.846 50.8553L200.095 44.8546C200.385 44.6781 200.562 44.3755 200.562 44.0351C200.562 43.6948 200.373 43.3922 200.083 43.2157H200.07ZM189.834 48.6618L187.388 50.0989L182.913 47.5146L181.513 46.7077L181.198 46.5313L180.454 46.1026L180.996 45.7875L182.711 44.7789L189.834 40.6061L190.792 40.0389L197.713 44.0478L189.834 48.6618Z" fill="black"/>
<path d="M187.388 51.1946V91.8383L178.575 86.7579V46.1016L187.388 51.1946Z" fill="white"/>
<path d="M187.854 50.3771L187.387 50.0998L182.912 47.5154L181.513 46.7086L180.454 46.1035L179.622 45.6244L179.042 45.284C178.752 45.1202 178.386 45.1202 178.096 45.284C177.806 45.4605 177.63 45.7631 177.63 46.1035V86.7598C177.63 87.0875 177.806 87.4027 178.096 87.5792L186.908 92.6597C187.06 92.7479 187.224 92.7857 187.387 92.7857C187.551 92.7857 187.715 92.7479 187.854 92.6597C188.156 92.4958 188.333 92.1806 188.333 91.8402V51.1965C188.333 50.8562 188.156 50.541 187.854 50.3771ZM186.442 90.214L179.521 86.2051V47.7423L179.634 47.8054L182.912 49.6964L186.442 51.7386V90.214Z" fill="black"/>
<path d="M174.73 89.345L167.671 93.48L165.78 94.5767L163.939 93.5178L163.901 93.4926L165.78 92.3958L173.785 87.7188L174.73 89.345Z" fill="white"/>
<path d="M176.937 95.1682L173.785 97.0087L171.894 98.1055L171.781 98.0425L170.003 97.0213L171.894 95.9119L175.979 93.5293L176.937 95.1682Z" fill="white"/>
<path d="M180.013 100.26L179.71 100.437L177.832 101.534L177.756 101.496L175.941 100.45L177.832 99.3402L179.067 98.6216L180.013 100.26Z" fill="white"/>
<path d="M110.071 123.449L122.274 116.288L192.493 156.831L180.303 163.991L110.071 123.449Z" fill="black" stroke="black" stroke-width="1.891" stroke-linecap="round" stroke-linejoin="round"/>
<path d="M193.439 108.913V156.831C193.439 157.171 193.262 157.486 192.972 157.65C192.821 157.738 192.657 157.776 192.493 157.776C192.329 157.776 192.166 157.738 192.027 157.65L121.795 117.107C121.505 116.943 121.328 116.628 121.328 116.288V80.9389L180.29 114.977L190.615 108.926L122.287 69.4669L121.328 70.0215V68.3701C121.328 68.0423 121.492 67.7524 121.757 67.5759L121.808 67.5506C122.098 67.3868 122.463 67.3868 122.753 67.5506L192.972 108.093C193.262 108.27 193.439 108.573 193.439 108.913Z" fill="black"/>
<path d="M110.071 75.5283V123.446L180.29 163.989V116.071L110.071 75.5283ZM144.361 136.153C140.314 133.821 137.037 128.161 137.037 123.522C137.037 118.882 140.314 117.017 144.361 119.349C148.408 121.681 151.686 127.341 151.686 131.968C151.686 136.595 148.408 138.486 144.361 136.141V136.153Z" fill="white" stroke="black" stroke-width="1.891" stroke-linecap="round" stroke-linejoin="round"/>
<path d="M192.972 108.093L192.203 107.652L190.312 106.555L185.824 103.971L183.933 102.874L180.744 101.034L179.71 100.441L179.647 100.403L177.832 99.3445L177.756 99.3067L173.785 97.0123L173.672 96.9492L171.894 95.9155L171.781 95.8525L167.721 93.5076L167.671 93.4824L165.83 92.4235L165.78 92.3983L160.182 89.1584L159.691 88.8684L159.136 88.5532L158.115 87.9607L142.079 78.7075L140.718 77.9259L139.344 77.1317L122.753 67.5506C122.463 67.3868 122.098 67.3868 121.808 67.5506L121.757 67.5759L109.592 74.7112C109.302 74.8877 109.125 75.1902 109.125 75.5306C109.125 75.871 109.302 76.1736 109.592 76.3501L121.329 83.1198L148.723 98.9411L150.097 99.7353L151.459 100.517L151.635 100.618L153.526 101.715L157.585 104.047L159.476 105.144L163.561 107.501L165.452 108.598L167.267 109.644L169.058 110.678L169.335 110.829L169.738 111.069L171.642 112.153L171.692 112.191L176.117 114.75L178.008 115.847L179.824 116.893C179.962 116.981 180.126 117.019 180.29 117.019C180.454 117.019 180.631 116.981 180.769 116.893L190.35 111.27L192.972 109.732C193.262 109.556 193.439 109.253 193.439 108.913C193.439 108.573 193.262 108.27 192.972 108.093ZM188.812 109.984L180.29 114.977L179.899 114.75L178.008 113.653L173.52 111.069L171.629 109.972L168.503 108.169L167.809 107.766L167.356 107.501L166.624 107.085L165.452 106.404L164.872 106.076L161.367 104.059L159.476 102.963L155.417 100.618L153.539 99.521L150.211 97.6048L148.849 96.8232L147.475 96.029L121.329 80.9389L111.949 75.518L121.329 70.0215L122.287 69.4669L140.604 80.0438L141.978 80.838L143.327 81.6196L158.481 90.3686L159.565 90.9989L160.674 91.6293L160.939 91.7805L163.901 93.495L163.939 93.5202L165.78 94.5792L165.83 94.6044L169.877 96.9492L170.003 97.0249L171.781 98.046L171.894 98.109L175.853 100.403L175.941 100.454L177.756 101.5L177.832 101.538L182.03 103.971L183.921 105.068L188.396 107.652L190.3 108.749L190.602 108.926L188.8 109.984H188.812Z" fill="black"/>
<path d="M126.9 97.7685L130.166 99.6469V103.126C129.422 103.58 128.287 103.454 127.178 102.824C125.047 101.588 123.232 98.5375 123.232 96.1549C123.232 93.7722 125.047 92.8267 127.178 94.0622C128.287 94.7051 129.422 95.8901 130.166 97.2012L129.018 97.7181C128.577 96.8861 127.859 96.1045 127.178 95.7136C125.917 94.9825 124.858 95.6254 124.858 97.1004C124.858 98.5754 125.917 100.441 127.178 101.172C127.682 101.462 128.199 101.563 128.615 101.462V100.164L126.9 99.1679V97.7559V97.7685Z" fill="black"/>
<path d="M134.918 100.644V102.157C133.759 101.489 133.015 101.817 133.015 103.014V106.052L131.452 105.145V98.7783L133.015 99.686V100.871C133.38 100.253 134.061 100.152 134.918 100.644Z" fill="black"/>
<path d="M140.743 106.707V110.514L139.23 109.645V109.002C138.839 109.292 138.196 109.191 137.604 108.85C136.419 108.17 135.511 106.833 135.511 105.611C135.511 104.35 136.532 104.085 137.818 104.829C138.272 105.094 138.764 105.484 139.23 105.963V105.837C139.23 105.157 138.865 104.362 137.957 103.833C137.44 103.53 136.961 103.455 136.52 103.455L135.99 101.955C136.772 101.955 137.541 102.144 138.31 102.598C139.76 103.43 140.743 105.056 140.743 106.707ZM139.23 107.628V107.035C138.877 106.682 138.474 106.367 138.033 106.115C137.465 105.787 137.011 105.913 137.011 106.43C137.011 106.947 137.415 107.501 137.944 107.804C138.549 108.157 139.117 108.157 139.218 107.628H139.23Z" fill="black"/>
<path d="M146.983 110.312V114.119L145.47 113.25V112.607C145.067 112.897 144.436 112.796 143.844 112.455C142.659 111.775 141.751 110.438 141.751 109.215C141.751 107.955 142.772 107.69 144.058 108.434C144.512 108.699 145.004 109.089 145.47 109.568V109.442C145.47 108.762 145.105 107.967 144.197 107.438C143.68 107.135 143.201 107.06 142.76 107.06L142.23 105.56C143.012 105.56 143.781 105.749 144.55 106.203C146 107.035 146.983 108.661 146.983 110.312ZM145.47 111.233V110.64C145.117 110.287 144.714 109.972 144.273 109.72C143.705 109.392 143.251 109.518 143.251 110.035C143.251 110.552 143.655 111.106 144.184 111.409C144.789 111.762 145.357 111.762 145.458 111.233H145.47Z" fill="black"/>
<path d="M148.307 106.278L149.87 107.186V115.784L148.307 114.876V106.278Z" fill="black"/>
<path d="M158.48 112.303L155.48 119.022L153.702 118.001L150.702 107.815L152.48 108.849L154.598 116.022L156.715 111.282L158.493 112.303H158.48Z" fill="black"/>
<path d="M159.413 112.848L160.989 113.755L163.271 119.857L165.553 116.39L167.141 117.31V125.769L165.553 124.849V119.58L163.271 123.046L160.989 116.945V122.214L159.413 121.307V112.848Z" fill="black"/>
<path d="M180.303 163.989L192.493 156.829V108.911L180.303 116.072V163.989Z" fill="black" stroke="black" stroke-width="1.891" stroke-linecap="round" stroke-linejoin="round"/>
<path d="M148.836 125.25L109.919 147.98" stroke="black" stroke-width="1.891" stroke-linecap="round" stroke-linejoin="round"/>
<path d="M150.016 123.47L137.978 130.505L138.932 132.138L150.97 125.103L150.016 123.47Z" fill="white"/>
<path d="M114.601 154.775C115.154 150.635 109.644 146.482 102.294 145.5C94.9446 144.518 88.538 147.079 87.9847 151.219C87.4315 155.36 92.9412 159.513 100.291 160.495C107.641 161.477 114.047 158.916 114.601 154.775Z" fill="black" stroke="black" stroke-width="1.891" stroke-linecap="round" stroke-linejoin="round"/>
<path d="M105.971 153.622C106.165 152.167 104.228 150.707 101.645 150.362C99.0608 150.016 96.8086 150.917 96.6141 152.372C96.4196 153.828 98.3565 155.288 100.94 155.633C103.524 155.978 105.776 155.078 105.971 153.622Z" fill="black" stroke="white" stroke-width="1.22818" stroke-linecap="round" stroke-linejoin="round"/>
</g>
<defs>
<clipPath id="clip0_2473_109549">
<rect width="202.376" height="136" fill="white" transform="translate(87 38)"/>
</clipPath>
</defs>
</svg>
