<svg width="743" height="431" viewBox="0 0 743 431" fill="none" xmlns="http://www.w3.org/2000/svg">
<g clip-path="url(#clip0_402_627944)">
<rect width="743" height="431" fill="#F4F4F5"/>
<path d="M610 476L309.559 -13H0V476H610Z" fill="white"/>
<circle cx="8.64224" cy="220.949" r="2.94888" fill="#F4F4F5"/>
<circle cx="8.64224" cy="235.847" r="2.94888" fill="#F4F4F5"/>
<circle cx="8.64224" cy="250.744" r="2.94888" fill="#F4F4F5"/>
<circle cx="8.64224" cy="265.642" r="2.94888" fill="#F4F4F5"/>
<circle cx="8.64224" cy="280.54" r="2.94888" fill="#F4F4F5"/>
<circle cx="8.64224" cy="295.438" r="2.94888" fill="#F4F4F5"/>
<circle cx="8.64224" cy="310.335" r="2.94888" fill="#F4F4F5"/>
<circle cx="8.64224" cy="325.233" r="2.94888" fill="#F4F4F5"/>
<circle cx="8.64224" cy="340.131" r="2.94888" fill="#F4F4F5"/>
<circle cx="8.64224" cy="355.029" r="2.94888" fill="#F4F4F5"/>
<circle cx="8.64224" cy="369.927" r="2.94888" fill="#F4F4F5"/>
<circle cx="8.64224" cy="384.824" r="2.94888" fill="#F4F4F5"/>
<circle cx="23.5399" cy="220.949" r="2.94888" fill="#F4F4F5"/>
<circle cx="23.5399" cy="235.847" r="2.94888" fill="#F4F4F5"/>
<circle cx="23.5399" cy="250.744" r="2.94888" fill="#F4F4F5"/>
<circle cx="23.5399" cy="265.642" r="2.94888" fill="#F4F4F5"/>
<circle cx="23.5399" cy="280.54" r="2.94888" fill="#F4F4F5"/>
<circle cx="23.5399" cy="295.438" r="2.94888" fill="#F4F4F5"/>
<circle cx="23.5399" cy="310.335" r="2.94888" fill="#F4F4F5"/>
<circle cx="23.5399" cy="325.233" r="2.94888" fill="#F4F4F5"/>
<circle cx="23.5399" cy="340.131" r="2.94888" fill="#F4F4F5"/>
<circle cx="23.5399" cy="355.029" r="2.94888" fill="#F4F4F5"/>
<circle cx="23.5399" cy="369.927" r="2.94888" fill="#F4F4F5"/>
<circle cx="23.5399" cy="384.824" r="2.94888" fill="#F4F4F5"/>
<circle cx="38.4377" cy="220.949" r="2.94888" fill="#F4F4F5"/>
<circle cx="38.4377" cy="235.847" r="2.94888" fill="#F4F4F5"/>
<circle cx="38.4377" cy="250.744" r="2.94888" fill="#F4F4F5"/>
<circle cx="38.4377" cy="265.642" r="2.94888" fill="#F4F4F5"/>
<circle cx="38.4377" cy="280.54" r="2.94888" fill="#F4F4F5"/>
<circle cx="38.4377" cy="295.438" r="2.94888" fill="#F4F4F5"/>
<circle cx="38.4377" cy="310.335" r="2.94888" fill="#F4F4F5"/>
<circle cx="38.4377" cy="325.233" r="2.94888" fill="#F4F4F5"/>
<circle cx="38.4377" cy="340.131" r="2.94888" fill="#F4F4F5"/>
<circle cx="38.4377" cy="355.029" r="2.94888" fill="#F4F4F5"/>
<circle cx="38.4377" cy="369.927" r="2.94888" fill="#F4F4F5"/>
<circle cx="38.4377" cy="384.824" r="2.94888" fill="#F4F4F5"/>
<circle cx="53.3356" cy="220.949" r="2.94888" fill="#F4F4F5"/>
<circle cx="53.3356" cy="235.847" r="2.94888" fill="#F4F4F5"/>
<circle cx="53.3356" cy="250.744" r="2.94888" fill="#F4F4F5"/>
<circle cx="53.3356" cy="265.642" r="2.94888" fill="#F4F4F5"/>
<circle cx="53.3356" cy="280.54" r="2.94888" fill="#F4F4F5"/>
<circle cx="53.3356" cy="295.438" r="2.94888" fill="#F4F4F5"/>
<circle cx="53.3356" cy="310.335" r="2.94888" fill="#F4F4F5"/>
<circle cx="53.3356" cy="325.233" r="2.94888" fill="#F4F4F5"/>
<circle cx="53.3356" cy="340.131" r="2.94888" fill="#F4F4F5"/>
<circle cx="53.3356" cy="355.029" r="2.94888" fill="#F4F4F5"/>
<circle cx="53.3356" cy="369.927" r="2.94888" fill="#F4F4F5"/>
<circle cx="53.3356" cy="384.824" r="2.94888" fill="#F4F4F5"/>
<circle cx="68.2333" cy="220.949" r="2.94888" fill="#F4F4F5"/>
<circle cx="68.2333" cy="235.847" r="2.94888" fill="#F4F4F5"/>
<circle cx="68.2333" cy="250.744" r="2.94888" fill="#F4F4F5"/>
<circle cx="68.2333" cy="265.642" r="2.94888" fill="#F4F4F5"/>
<circle cx="68.2333" cy="280.54" r="2.94888" fill="#F4F4F5"/>
<circle cx="68.2333" cy="295.438" r="2.94888" fill="#F4F4F5"/>
<circle cx="68.2333" cy="310.335" r="2.94888" fill="#F4F4F5"/>
<circle cx="68.2333" cy="325.233" r="2.94888" fill="#F4F4F5"/>
<circle cx="68.2333" cy="340.131" r="2.94888" fill="#F4F4F5"/>
<circle cx="68.2333" cy="355.029" r="2.94888" fill="#F4F4F5"/>
<circle cx="68.2333" cy="369.927" r="2.94888" fill="#F4F4F5"/>
<circle cx="68.2333" cy="384.824" r="2.94888" fill="#F4F4F5"/>
<circle cx="83.131" cy="220.949" r="2.94888" fill="#F4F4F5"/>
<circle cx="83.131" cy="235.847" r="2.94888" fill="#F4F4F5"/>
<circle cx="83.131" cy="250.744" r="2.94888" fill="#F4F4F5"/>
<circle cx="83.131" cy="265.642" r="2.94888" fill="#F4F4F5"/>
<circle cx="83.131" cy="280.54" r="2.94888" fill="#F4F4F5"/>
<circle cx="83.131" cy="295.438" r="2.94888" fill="#F4F4F5"/>
<circle cx="83.131" cy="310.335" r="2.94888" fill="#F4F4F5"/>
<circle cx="83.131" cy="325.233" r="2.94888" fill="#F4F4F5"/>
<circle cx="83.131" cy="340.131" r="2.94888" fill="#F4F4F5"/>
<circle cx="83.131" cy="355.029" r="2.94888" fill="#F4F4F5"/>
<circle cx="83.131" cy="369.927" r="2.94888" fill="#F4F4F5"/>
<circle cx="83.131" cy="384.824" r="2.94888" fill="#F4F4F5"/>
<circle cx="98.0287" cy="220.949" r="2.94888" fill="#F4F4F5"/>
<circle cx="98.0287" cy="235.847" r="2.94888" fill="#F4F4F5"/>
<circle cx="98.0287" cy="250.744" r="2.94888" fill="#F4F4F5"/>
<circle cx="98.0287" cy="265.642" r="2.94888" fill="#F4F4F5"/>
<circle cx="98.0287" cy="280.54" r="2.94888" fill="#F4F4F5"/>
<circle cx="98.0287" cy="295.438" r="2.94888" fill="#F4F4F5"/>
<circle cx="98.0287" cy="310.335" r="2.94888" fill="#F4F4F5"/>
<circle cx="98.0287" cy="325.233" r="2.94888" fill="#F4F4F5"/>
<circle cx="98.0287" cy="340.131" r="2.94888" fill="#F4F4F5"/>
<circle cx="98.0287" cy="355.029" r="2.94888" fill="#F4F4F5"/>
<circle cx="98.0287" cy="369.927" r="2.94888" fill="#F4F4F5"/>
<circle cx="98.0287" cy="384.824" r="2.94888" fill="#F4F4F5"/>
<circle cx="112.927" cy="220.949" r="2.94888" fill="#F4F4F5"/>
<circle cx="112.927" cy="235.847" r="2.94888" fill="#F4F4F5"/>
<circle cx="112.927" cy="250.744" r="2.94888" fill="#F4F4F5"/>
<circle cx="112.927" cy="265.642" r="2.94888" fill="#F4F4F5"/>
<circle cx="112.927" cy="280.54" r="2.94888" fill="#F4F4F5"/>
<circle cx="112.927" cy="295.438" r="2.94888" fill="#F4F4F5"/>
<circle cx="112.927" cy="310.335" r="2.94888" fill="#F4F4F5"/>
<circle cx="112.927" cy="325.233" r="2.94888" fill="#F4F4F5"/>
<circle cx="112.927" cy="340.131" r="2.94888" fill="#F4F4F5"/>
<circle cx="112.927" cy="355.029" r="2.94888" fill="#F4F4F5"/>
<circle cx="112.927" cy="369.927" r="2.94888" fill="#F4F4F5"/>
<circle cx="112.927" cy="384.824" r="2.94888" fill="#F4F4F5"/>
<circle cx="127.824" cy="220.949" r="2.94888" fill="#F4F4F5"/>
<circle cx="127.824" cy="235.847" r="2.94888" fill="#F4F4F5"/>
<circle cx="127.824" cy="250.744" r="2.94888" fill="#F4F4F5"/>
<circle cx="127.824" cy="265.642" r="2.94888" fill="#F4F4F5"/>
<circle cx="127.824" cy="280.54" r="2.94888" fill="#F4F4F5"/>
<circle cx="127.824" cy="295.438" r="2.94888" fill="#F4F4F5"/>
<circle cx="127.824" cy="310.335" r="2.94888" fill="#F4F4F5"/>
<circle cx="127.824" cy="325.233" r="2.94888" fill="#F4F4F5"/>
<circle cx="127.824" cy="340.131" r="2.94888" fill="#F4F4F5"/>
<circle cx="127.824" cy="355.029" r="2.94888" fill="#F4F4F5"/>
<circle cx="127.824" cy="369.927" r="2.94888" fill="#F4F4F5"/>
<circle cx="127.824" cy="384.824" r="2.94888" fill="#F4F4F5"/>
<path d="M229.094 284.168C226.392 284.168 224.096 281.886 224.096 279.184C224.096 276.482 226.392 274.214 229.094 274.214C230.466 274.214 231.726 274.788 232.636 275.726L231.642 276.678C230.998 275.978 230.088 275.516 229.094 275.516C227.176 275.516 225.552 277.196 225.552 279.184C225.552 281.186 227.176 282.866 229.094 282.866C230.088 282.866 230.998 282.404 231.642 281.704L232.636 282.656C231.726 283.58 230.466 284.168 229.094 284.168ZM237.446 284.168C235.374 284.168 233.624 282.432 233.624 280.374C233.624 278.316 235.374 276.594 237.446 276.594C239.504 276.594 241.24 278.316 241.24 280.374C241.24 282.432 239.504 284.168 237.446 284.168ZM237.446 282.964C238.748 282.964 239.854 281.788 239.854 280.374C239.854 278.974 238.748 277.798 237.446 277.798C236.116 277.798 235.01 278.974 235.01 280.374C235.01 281.788 236.116 282.964 237.446 282.964ZM250.954 276.594C252.466 276.594 253.558 277.756 253.558 279.394V284H252.2V279.604C252.2 278.54 251.57 277.798 250.66 277.798C249.624 277.798 248.896 278.484 248.896 279.478V284H247.538V279.604C247.538 278.54 246.908 277.798 245.998 277.798C244.962 277.798 244.234 278.484 244.234 279.478V284H242.848V276.762H244.234V277.77C244.598 277.056 245.354 276.594 246.278 276.594C247.328 276.594 248.182 277.154 248.602 278.05C248.938 277.154 249.862 276.594 250.954 276.594ZM259.567 276.594C261.471 276.594 262.899 278.162 262.899 280.374C262.899 282.6 261.471 284.168 259.567 284.168C258.447 284.168 257.551 283.636 256.991 282.74V286.408H255.619V276.762H256.991V278.008C257.551 277.126 258.447 276.594 259.567 276.594ZM259.231 282.964C260.561 282.964 261.499 281.886 261.499 280.374C261.499 278.862 260.561 277.798 259.231 277.798C257.929 277.798 256.991 278.862 256.991 280.374C256.991 281.886 257.929 282.964 259.231 282.964ZM265.258 275.558C264.782 275.558 264.418 275.166 264.418 274.718C264.418 274.284 264.782 273.892 265.258 273.892C265.706 273.892 266.084 274.284 266.084 274.718C266.084 275.166 265.706 275.558 265.258 275.558ZM264.558 284V276.762H265.944V284H264.558ZM267.949 284V274.214H269.321V284H267.949ZM274.658 282.936C275.414 282.936 276.296 282.6 276.73 282.152L277.598 283.048C276.954 283.734 275.694 284.168 274.672 284.168C272.656 284.168 270.948 282.586 270.948 280.36C270.948 278.19 272.558 276.594 274.56 276.594C276.772 276.594 278.046 278.274 278.046 280.864H272.348C272.53 282.068 273.412 282.936 274.658 282.936ZM274.616 277.826C273.496 277.826 272.586 278.582 272.362 279.758H276.702C276.548 278.638 275.862 277.826 274.616 277.826ZM286.458 286.38C284.554 284.854 283.462 282.726 283.462 280.29C283.462 277.84 284.554 275.726 286.458 274.2L287.186 274.956C285.674 276.496 284.89 278.078 284.89 280.29C284.89 282.488 285.674 284.084 287.186 285.61L286.458 286.38ZM289.471 275.558C288.995 275.558 288.631 275.166 288.631 274.718C288.631 274.284 288.995 273.892 289.471 273.892C289.919 273.892 290.297 274.284 290.297 274.718C290.297 275.166 289.919 275.558 289.471 275.558ZM288.225 286.492C287.791 286.492 287.287 286.38 286.993 286.24L287.175 285.162C287.385 285.246 287.735 285.302 288.015 285.302C288.463 285.302 288.771 284.938 288.771 284.434V276.762H290.157V284.504C290.157 285.666 289.359 286.492 288.225 286.492ZM295.2 276.594C297.146 276.594 298.224 277.826 298.224 279.618V284H296.866V283.006C296.334 283.762 295.34 284.168 294.458 284.168C292.918 284.168 291.784 283.272 291.784 281.858C291.784 280.416 293.086 279.45 294.682 279.45C295.396 279.45 296.166 279.604 296.866 279.842V279.618C296.866 278.708 296.446 277.742 295.004 277.742C294.29 277.742 293.59 278.022 292.96 278.344L292.456 277.322C293.492 276.804 294.402 276.594 295.2 276.594ZM294.724 283.076C295.62 283.076 296.628 282.628 296.866 281.732V280.766C296.278 280.584 295.606 280.486 294.892 280.486C293.926 280.486 293.114 281.032 293.114 281.816C293.114 282.6 293.814 283.076 294.724 283.076ZM302.637 284L299.529 276.762H301.027L303.281 282.39L305.493 276.762H306.991L303.939 284H302.637ZM310.814 276.594C312.76 276.594 313.838 277.826 313.838 279.618V284H312.48V283.006C311.948 283.762 310.954 284.168 310.072 284.168C308.532 284.168 307.398 283.272 307.398 281.858C307.398 280.416 308.7 279.45 310.296 279.45C311.01 279.45 311.78 279.604 312.48 279.842V279.618C312.48 278.708 312.06 277.742 310.618 277.742C309.904 277.742 309.204 278.022 308.574 278.344L308.07 277.322C309.106 276.804 310.016 276.594 310.814 276.594ZM310.338 283.076C311.234 283.076 312.242 282.628 312.48 281.732V280.766C311.892 280.584 311.22 280.486 310.506 280.486C309.54 280.486 308.728 281.032 308.728 281.816C308.728 282.6 309.428 283.076 310.338 283.076ZM319.258 284.168C317.2 284.168 315.45 282.432 315.45 280.374C315.45 278.316 317.2 276.594 319.272 276.594C320.308 276.594 321.246 277.028 321.932 277.714L320.994 278.582C320.56 278.092 319.93 277.798 319.258 277.798C317.942 277.798 316.85 278.974 316.85 280.374C316.85 281.788 317.942 282.964 319.272 282.964C319.944 282.964 320.588 282.656 321.036 282.152L321.974 283.006C321.274 283.72 320.336 284.168 319.258 284.168ZM323.765 286.38L323.037 285.61C324.535 284.084 325.333 282.488 325.333 280.29C325.333 278.078 324.535 276.496 323.037 274.956L323.765 274.2C325.669 275.726 326.761 277.84 326.761 280.29C326.761 282.726 325.669 284.854 323.765 286.38Z" fill="#18181B"/>
<path d="M386.934 284V274.382H390.98C393.01 274.382 394.55 275.684 394.55 277.518C394.55 279.352 393.01 280.654 390.98 280.654H388.348V284H386.934ZM388.348 279.338H390.784C392.17 279.338 393.108 278.652 393.108 277.518C393.108 276.384 392.17 275.698 390.784 275.698H388.348V279.338ZM399.022 276.594C400.968 276.594 402.046 277.826 402.046 279.618V284H400.688V283.006C400.156 283.762 399.162 284.168 398.28 284.168C396.74 284.168 395.606 283.272 395.606 281.858C395.606 280.416 396.908 279.45 398.504 279.45C399.218 279.45 399.988 279.604 400.688 279.842V279.618C400.688 278.708 400.268 277.742 398.826 277.742C398.112 277.742 397.412 278.022 396.782 278.344L396.278 277.322C397.314 276.804 398.224 276.594 399.022 276.594ZM398.546 283.076C399.442 283.076 400.45 282.628 400.688 281.732V280.766C400.1 280.584 399.428 280.486 398.714 280.486C397.748 280.486 396.936 281.032 396.936 281.816C396.936 282.6 397.636 283.076 398.546 283.076ZM407.466 284.168C405.408 284.168 403.658 282.432 403.658 280.374C403.658 278.316 405.408 276.594 407.48 276.594C408.516 276.594 409.454 277.028 410.14 277.714L409.202 278.582C408.768 278.092 408.138 277.798 407.466 277.798C406.15 277.798 405.058 278.974 405.058 280.374C405.058 281.788 406.15 282.964 407.48 282.964C408.152 282.964 408.796 282.656 409.244 282.152L410.182 283.006C409.482 283.72 408.544 284.168 407.466 284.168ZM418.245 276.762L415.123 280.038L418.105 284H416.453L414.185 280.962L413.023 282.138V284H411.651V274.214H413.023V280.458L416.565 276.762H418.245ZM422.428 276.594C424.374 276.594 425.452 277.826 425.452 279.618V284H424.094V283.006C423.562 283.762 422.568 284.168 421.686 284.168C420.146 284.168 419.012 283.272 419.012 281.858C419.012 280.416 420.314 279.45 421.91 279.45C422.624 279.45 423.394 279.604 424.094 279.842V279.618C424.094 278.708 423.674 277.742 422.232 277.742C421.518 277.742 420.818 278.022 420.188 278.344L419.684 277.322C420.72 276.804 421.63 276.594 422.428 276.594ZM421.952 283.076C422.848 283.076 423.856 282.628 424.094 281.732V280.766C423.506 280.584 422.834 280.486 422.12 280.486C421.154 280.486 420.342 281.032 420.342 281.816C420.342 282.6 421.042 283.076 421.952 283.076ZM432.958 276.762H434.344V283.23C434.344 285.092 432.818 286.408 430.676 286.408C429.458 286.408 428.338 286.002 427.652 285.442L428.198 284.406C428.73 284.91 429.598 285.204 430.466 285.204C432.02 285.204 432.958 284.462 432.958 283.202V282.152C432.384 282.978 431.488 283.468 430.396 283.468C428.492 283.468 427.106 282.04 427.106 280.024C427.106 278.008 428.492 276.594 430.396 276.594C431.488 276.594 432.412 277.112 432.958 277.924V276.762ZM430.746 282.264C432.034 282.264 432.958 281.34 432.958 280.024C432.958 278.722 432.034 277.798 430.746 277.798C429.458 277.798 428.548 278.722 428.548 280.024C428.548 281.34 429.458 282.264 430.746 282.264ZM437.097 275.558C436.621 275.558 436.257 275.166 436.257 274.718C436.257 274.284 436.621 273.892 437.097 273.892C437.545 273.892 437.923 274.284 437.923 274.718C437.923 275.166 437.545 275.558 437.097 275.558ZM436.397 284V276.762H437.783V284H436.397ZM443.47 276.594C445.066 276.594 446.186 277.756 446.186 279.394V284H444.828V279.632C444.828 278.554 444.142 277.798 443.162 277.798C442.154 277.798 441.286 278.456 441.174 279.31V284H439.788V276.762H441.174V277.812C441.608 277.098 442.49 276.594 443.47 276.594ZM453.671 276.762H455.057V283.23C455.057 285.092 453.531 286.408 451.389 286.408C450.171 286.408 449.051 286.002 448.365 285.442L448.911 284.406C449.443 284.91 450.311 285.204 451.179 285.204C452.733 285.204 453.671 284.462 453.671 283.202V282.152C453.097 282.978 452.201 283.468 451.109 283.468C449.205 283.468 447.819 282.04 447.819 280.024C447.819 278.008 449.205 276.594 451.109 276.594C452.201 276.594 453.125 277.112 453.671 277.924V276.762ZM451.459 282.264C452.747 282.264 453.671 281.34 453.671 280.024C453.671 278.722 452.747 277.798 451.459 277.798C450.171 277.798 449.261 278.722 449.261 280.024C449.261 281.34 450.171 282.264 451.459 282.264ZM379.531 298L376.423 290.762H377.921L380.175 296.39L382.387 290.762H383.885L380.833 298H379.531ZM385.889 289.558C385.413 289.558 385.049 289.166 385.049 288.718C385.049 288.284 385.413 287.892 385.889 287.892C386.337 287.892 386.715 288.284 386.715 288.718C386.715 289.166 386.337 289.558 385.889 289.558ZM385.189 298V290.762H386.575V298H385.189ZM391.618 290.594C393.564 290.594 394.642 291.826 394.642 293.618V298H393.284V297.006C392.752 297.762 391.758 298.168 390.876 298.168C389.336 298.168 388.202 297.272 388.202 295.858C388.202 294.416 389.504 293.45 391.1 293.45C391.814 293.45 392.584 293.604 393.284 293.842V293.618C393.284 292.708 392.864 291.742 391.422 291.742C390.708 291.742 390.008 292.022 389.378 292.344L388.874 291.322C389.91 290.804 390.82 290.594 391.618 290.594ZM391.142 297.076C392.038 297.076 393.046 296.628 393.284 295.732V294.766C392.696 294.584 392.024 294.486 391.31 294.486C390.344 294.486 389.532 295.032 389.532 295.816C389.532 296.6 390.232 297.076 391.142 297.076ZM400.863 298V288.382H405.427C407.037 288.382 408.171 289.376 408.171 290.776C408.171 291.784 407.667 292.414 406.799 292.904C407.919 293.45 408.563 294.318 408.563 295.382C408.563 296.922 407.331 298 405.609 298H400.863ZM402.277 292.386H405.077C406.043 292.386 406.729 291.812 406.729 291.014C406.729 290.216 406.043 289.628 405.077 289.628H402.277V292.386ZM402.277 296.754H405.287C406.365 296.754 407.121 296.096 407.121 295.172C407.121 294.248 406.365 293.59 405.287 293.59H402.277V296.754ZM415.275 290.762H416.661V298H415.275V296.95C414.841 297.664 413.959 298.168 412.979 298.168C411.383 298.168 410.263 297.006 410.263 295.368V290.762H411.621V295.13C411.621 296.208 412.307 296.964 413.287 296.964C414.295 296.964 415.163 296.306 415.275 295.452V290.762ZM419.358 289.558C418.882 289.558 418.518 289.166 418.518 288.718C418.518 288.284 418.882 287.892 419.358 287.892C419.806 287.892 420.184 288.284 420.184 288.718C420.184 289.166 419.806 289.558 419.358 289.558ZM418.658 298V290.762H420.044V298H418.658ZM422.049 298V288.214H423.421V298H422.049ZM431.012 288.214H432.384V298H431.012V296.74C430.452 297.636 429.556 298.168 428.436 298.168C426.532 298.168 425.104 296.6 425.104 294.374C425.104 292.162 426.532 290.594 428.436 290.594C429.556 290.594 430.452 291.126 431.012 292.008V288.214ZM428.772 296.964C430.074 296.964 431.012 295.886 431.012 294.374C431.012 292.862 430.074 291.798 428.772 291.798C427.442 291.798 426.504 292.862 426.504 294.374C426.504 295.886 427.442 296.964 428.772 296.964ZM438.481 290.594C440.385 290.594 441.813 292.162 441.813 294.374C441.813 296.6 440.385 298.168 438.481 298.168C437.361 298.168 436.465 297.636 435.905 296.74V300.408H434.533V290.762H435.905V292.008C436.465 291.126 437.361 290.594 438.481 290.594ZM438.145 296.964C439.475 296.964 440.413 295.886 440.413 294.374C440.413 292.862 439.475 291.798 438.145 291.798C436.843 291.798 435.905 292.862 435.905 294.374C435.905 295.886 436.843 296.964 438.145 296.964ZM446.525 290.594C448.471 290.594 449.549 291.826 449.549 293.618V298H448.191V297.006C447.659 297.762 446.665 298.168 445.783 298.168C444.243 298.168 443.109 297.272 443.109 295.858C443.109 294.416 444.411 293.45 446.007 293.45C446.721 293.45 447.491 293.604 448.191 293.842V293.618C448.191 292.708 447.771 291.742 446.329 291.742C445.615 291.742 444.915 292.022 444.285 292.344L443.781 291.322C444.817 290.804 445.727 290.594 446.525 290.594ZM446.049 297.076C446.945 297.076 447.953 296.628 448.191 295.732V294.766C447.603 294.584 446.931 294.486 446.217 294.486C445.251 294.486 444.439 295.032 444.439 295.816C444.439 296.6 445.139 297.076 446.049 297.076ZM454.969 298.168C452.911 298.168 451.161 296.432 451.161 294.374C451.161 292.316 452.911 290.594 454.983 290.594C456.019 290.594 456.957 291.028 457.643 291.714L456.705 292.582C456.271 292.092 455.641 291.798 454.969 291.798C453.653 291.798 452.561 292.974 452.561 294.374C452.561 295.788 453.653 296.964 454.983 296.964C455.655 296.964 456.299 296.656 456.747 296.152L457.685 297.006C456.985 297.72 456.047 298.168 454.969 298.168ZM465.748 290.762L462.626 294.038L465.608 298H463.956L461.688 294.962L460.526 296.138V298H459.154V288.214H460.526V294.458L464.068 290.762H465.748Z" fill="#18181B"/>
<rect x="519" y="142" width="186" height="168" rx="7" fill="#E4E4E7"/>
<path d="M580.91 169.192C577.822 169.192 575.198 166.584 575.198 163.496C575.198 160.408 577.822 157.816 580.91 157.816C582.478 157.816 583.918 158.472 584.958 159.544L583.822 160.632C583.086 159.832 582.046 159.304 580.91 159.304C578.718 159.304 576.862 161.224 576.862 163.496C576.862 165.784 578.718 167.704 580.91 167.704C582.046 167.704 583.086 167.176 583.822 166.376L584.958 167.464C583.918 168.52 582.478 169.192 580.91 169.192ZM590.455 169.192C588.087 169.192 586.087 167.208 586.087 164.856C586.087 162.504 588.087 160.536 590.455 160.536C592.807 160.536 594.791 162.504 594.791 164.856C594.791 167.208 592.807 169.192 590.455 169.192ZM590.455 167.816C591.943 167.816 593.207 166.472 593.207 164.856C593.207 163.256 591.943 161.912 590.455 161.912C588.935 161.912 587.671 163.256 587.671 164.856C587.671 166.472 588.935 167.816 590.455 167.816ZM600.852 160.536C602.676 160.536 603.956 161.864 603.956 163.736V169H602.404V164.008C602.404 162.776 601.62 161.912 600.5 161.912C599.348 161.912 598.356 162.664 598.228 163.64V169H596.644V160.728H598.228V161.928C598.724 161.112 599.732 160.536 600.852 160.536ZM610.094 167.512L610.67 168.6C610.222 168.968 609.614 169.192 609.022 169.192C607.742 169.192 606.846 168.264 606.846 166.936V162.072H605.598V160.728H606.846V158.456H608.398V160.728H610.35V162.072H608.398V166.824C608.398 167.4 608.782 167.816 609.246 167.816C609.598 167.816 609.918 167.688 610.094 167.512ZM615.757 160.536C617.981 160.536 619.213 161.944 619.213 163.992V169H617.661V167.864C617.053 168.728 615.917 169.192 614.909 169.192C613.149 169.192 611.853 168.168 611.853 166.552C611.853 164.904 613.341 163.8 615.165 163.8C615.981 163.8 616.861 163.976 617.661 164.248V163.992C617.661 162.952 617.181 161.848 615.533 161.848C614.717 161.848 613.917 162.168 613.197 162.536L612.621 161.368C613.805 160.776 614.845 160.536 615.757 160.536ZM615.213 167.944C616.237 167.944 617.389 167.432 617.661 166.408V165.304C616.989 165.096 616.221 164.984 615.405 164.984C614.301 164.984 613.373 165.608 613.373 166.504C613.373 167.4 614.173 167.944 615.213 167.944ZM622.288 159.352C621.744 159.352 621.328 158.904 621.328 158.392C621.328 157.896 621.744 157.448 622.288 157.448C622.8 157.448 623.232 157.896 623.232 158.392C623.232 158.904 622.8 159.352 622.288 159.352ZM621.488 169V160.728H623.072V169H621.488ZM629.571 160.536C631.395 160.536 632.675 161.864 632.675 163.736V169H631.123V164.008C631.123 162.776 630.339 161.912 629.219 161.912C628.067 161.912 627.075 162.664 626.947 163.64V169H625.363V160.728H626.947V161.928C627.443 161.112 628.451 160.536 629.571 160.536ZM638.733 167.784C639.597 167.784 640.605 167.4 641.101 166.888L642.093 167.912C641.357 168.696 639.917 169.192 638.749 169.192C636.445 169.192 634.493 167.384 634.493 164.84C634.493 162.36 636.333 160.536 638.621 160.536C641.149 160.536 642.605 162.456 642.605 165.416H636.093C636.301 166.792 637.309 167.784 638.733 167.784ZM638.685 161.944C637.405 161.944 636.365 162.808 636.109 164.152H641.069C640.893 162.872 640.109 161.944 638.685 161.944ZM646.105 162.312C646.633 161.224 647.753 160.536 649.177 160.536V161.912C647.465 161.912 646.249 162.856 646.105 164.296V169H644.521V160.728H646.105V162.312Z" fill="#18181B"/>
<path d="M527 195C527 191.134 530.134 188 534 188H690C693.866 188 697 191.134 697 195V226H527V195Z" fill="white"/>
<path d="M562.272 203.536C564.496 203.536 565.728 204.944 565.728 206.992V212H564.176V210.864C563.568 211.728 562.432 212.192 561.424 212.192C559.664 212.192 558.368 211.168 558.368 209.552C558.368 207.904 559.856 206.8 561.68 206.8C562.496 206.8 563.376 206.976 564.176 207.248V206.992C564.176 205.952 563.696 204.848 562.048 204.848C561.232 204.848 560.432 205.168 559.712 205.536L559.136 204.368C560.32 203.776 561.36 203.536 562.272 203.536ZM561.728 210.944C562.752 210.944 563.904 210.432 564.176 209.408V208.304C563.504 208.096 562.736 207.984 561.92 207.984C560.816 207.984 559.888 208.608 559.888 209.504C559.888 210.4 560.688 210.944 561.728 210.944ZM572.611 203.536C574.787 203.536 576.419 205.328 576.419 207.856C576.419 210.4 574.787 212.192 572.611 212.192C571.331 212.192 570.307 211.584 569.667 210.56V214.752H568.099V203.728H569.667V205.152C570.307 204.144 571.331 203.536 572.611 203.536ZM572.227 210.816C573.747 210.816 574.819 209.584 574.819 207.856C574.819 206.128 573.747 204.912 572.227 204.912C570.739 204.912 569.667 206.128 569.667 207.856C569.667 209.584 570.739 210.816 572.227 210.816ZM582.924 203.536C585.1 203.536 586.732 205.328 586.732 207.856C586.732 210.4 585.1 212.192 582.924 212.192C581.644 212.192 580.62 211.584 579.98 210.56V214.752H578.412V203.728H579.98V205.152C580.62 204.144 581.644 203.536 582.924 203.536ZM582.54 210.816C584.06 210.816 585.132 209.584 585.132 207.856C585.132 206.128 584.06 204.912 582.54 204.912C581.052 204.912 579.98 206.128 579.98 207.856C579.98 209.584 581.052 210.816 582.54 210.816ZM588.644 212V200.816H590.212V212H588.644ZM593.303 202.352C592.759 202.352 592.343 201.904 592.343 201.392C592.343 200.896 592.759 200.448 593.303 200.448C593.815 200.448 594.247 200.896 594.247 201.392C594.247 201.904 593.815 202.352 593.303 202.352ZM592.503 212V203.728H594.087V212H592.503ZM600.283 212.192C597.931 212.192 595.931 210.208 595.931 207.856C595.931 205.504 597.931 203.536 600.299 203.536C601.483 203.536 602.555 204.032 603.339 204.816L602.267 205.808C601.771 205.248 601.051 204.912 600.283 204.912C598.779 204.912 597.531 206.256 597.531 207.856C597.531 209.472 598.779 210.816 600.299 210.816C601.067 210.816 601.803 210.464 602.315 209.888L603.387 210.864C602.587 211.68 601.515 212.192 600.283 212.192ZM608.554 203.536C610.778 203.536 612.01 204.944 612.01 206.992V212H610.458V210.864C609.85 211.728 608.714 212.192 607.706 212.192C605.946 212.192 604.65 211.168 604.65 209.552C604.65 207.904 606.138 206.8 607.962 206.8C608.778 206.8 609.658 206.976 610.458 207.248V206.992C610.458 205.952 609.978 204.848 608.33 204.848C607.514 204.848 606.714 205.168 605.994 205.536L605.418 204.368C606.602 203.776 607.642 203.536 608.554 203.536ZM608.01 210.944C609.034 210.944 610.186 210.432 610.458 209.408V208.304C609.786 208.096 609.018 207.984 608.202 207.984C607.098 207.984 606.17 208.608 606.17 209.504C606.17 210.4 606.97 210.944 608.01 210.944ZM618.172 210.512L618.748 211.6C618.3 211.968 617.692 212.192 617.1 212.192C615.82 212.192 614.924 211.264 614.924 209.936V205.072H613.676V203.728H614.924V201.456H616.476V203.728H618.428V205.072H616.476V209.824C616.476 210.4 616.86 210.816 617.324 210.816C617.676 210.816 617.996 210.688 618.172 210.512ZM621.147 202.352C620.603 202.352 620.187 201.904 620.187 201.392C620.187 200.896 620.603 200.448 621.147 200.448C621.659 200.448 622.091 200.896 622.091 201.392C622.091 201.904 621.659 202.352 621.147 202.352ZM620.347 212V203.728H621.931V212H620.347ZM628.142 212.192C625.774 212.192 623.774 210.208 623.774 207.856C623.774 205.504 625.774 203.536 628.142 203.536C630.494 203.536 632.478 205.504 632.478 207.856C632.478 210.208 630.494 212.192 628.142 212.192ZM628.142 210.816C629.63 210.816 630.894 209.472 630.894 207.856C630.894 206.256 629.63 204.912 628.142 204.912C626.622 204.912 625.358 206.256 625.358 207.856C625.358 209.472 626.622 210.816 628.142 210.816ZM638.54 203.536C640.364 203.536 641.644 204.864 641.644 206.736V212H640.092V207.008C640.092 205.776 639.308 204.912 638.188 204.912C637.036 204.912 636.044 205.664 635.916 206.64V212H634.332V203.728H635.916V204.928C636.412 204.112 637.42 203.536 638.54 203.536ZM644.902 212.192C644.294 212.192 643.83 211.696 643.83 211.104C643.83 210.56 644.294 210.064 644.902 210.064C645.478 210.064 645.942 210.56 645.942 211.104C645.942 211.696 645.478 212.192 644.902 212.192ZM648.928 202.352C648.384 202.352 647.968 201.904 647.968 201.392C647.968 200.896 648.384 200.448 648.928 200.448C649.44 200.448 649.872 200.896 649.872 201.392C649.872 201.904 649.44 202.352 648.928 202.352ZM647.504 214.848C647.008 214.848 646.432 214.72 646.096 214.56L646.304 213.328C646.544 213.424 646.944 213.488 647.264 213.488C647.776 213.488 648.128 213.072 648.128 212.496V203.728H649.712V212.576C649.712 213.904 648.8 214.848 647.504 214.848ZM655.476 203.536C657.7 203.536 658.932 204.944 658.932 206.992V212H657.38V210.864C656.772 211.728 655.636 212.192 654.628 212.192C652.868 212.192 651.572 211.168 651.572 209.552C651.572 207.904 653.06 206.8 654.884 206.8C655.7 206.8 656.58 206.976 657.38 207.248V206.992C657.38 205.952 656.9 204.848 655.252 204.848C654.436 204.848 653.636 205.168 652.916 205.536L652.34 204.368C653.524 203.776 654.564 203.536 655.476 203.536ZM654.932 210.944C655.956 210.944 657.108 210.432 657.38 209.408V208.304C656.708 208.096 655.94 207.984 655.124 207.984C654.02 207.984 653.092 208.608 653.092 209.504C653.092 210.4 653.892 210.944 654.932 210.944ZM662.886 205.312C663.414 204.224 664.534 203.536 665.958 203.536V204.912C664.246 204.912 663.03 205.856 662.886 207.296V212H661.302V203.728H662.886V205.312Z" fill="#18181B"/>
<path d="M527 195C527 191.134 530.134 188 534 188H690C693.866 188 697 191.134 697 195V226H527V195Z" stroke="#18181B" stroke-width="2"/>
<rect x="527" y="226" width="170" height="38" fill="white"/>
<path d="M598.59 250.192C597.246 250.192 595.806 249.44 595.102 248.368L596.238 247.264C596.638 248.112 597.582 248.72 598.51 248.72C599.694 248.72 600.542 247.744 600.542 246.352V239.008H602.158V246.416C602.158 248.624 600.686 250.192 598.59 250.192ZM613.294 239.008H615.086L610.366 250H608.574L603.854 239.008H605.646L609.47 247.92L613.294 239.008ZM616.892 250V239.008H618.508L622.364 246.192L626.22 239.008H627.836V250H626.22V242.176L622.364 249.36L618.508 242.176V250H616.892Z" fill="#18181B"/>
<rect x="527" y="226" width="170" height="38" stroke="#18181B" stroke-width="2"/>
<path d="M527 264H697V295C697 298.866 693.866 302 690 302H534C530.134 302 527 298.866 527 295V264Z" fill="white"/>
<path d="M548.457 288.192C545.369 288.192 542.745 285.584 542.745 282.496C542.745 279.408 545.369 276.816 548.457 276.816C551.545 276.816 554.137 279.408 554.137 282.496C554.137 285.584 551.545 288.192 548.457 288.192ZM548.457 286.704C550.649 286.704 552.489 284.784 552.489 282.496C552.489 280.224 550.649 278.304 548.457 278.304C546.265 278.304 544.409 280.224 544.409 282.496C544.409 284.784 546.265 286.704 548.457 286.704ZM560.658 279.536C562.834 279.536 564.466 281.328 564.466 283.856C564.466 286.4 562.834 288.192 560.658 288.192C559.378 288.192 558.354 287.584 557.714 286.56V290.752H556.146V279.728H557.714V281.152C558.354 280.144 559.378 279.536 560.658 279.536ZM560.274 286.816C561.794 286.816 562.866 285.584 562.866 283.856C562.866 282.128 561.794 280.912 560.274 280.912C558.786 280.912 557.714 282.128 557.714 283.856C557.714 285.584 558.786 286.816 560.274 286.816ZM570.171 286.784C571.035 286.784 572.043 286.4 572.539 285.888L573.531 286.912C572.795 287.696 571.355 288.192 570.187 288.192C567.883 288.192 565.931 286.384 565.931 283.84C565.931 281.36 567.771 279.536 570.059 279.536C572.587 279.536 574.043 281.456 574.043 284.416H567.531C567.739 285.792 568.747 286.784 570.171 286.784ZM570.123 280.944C568.843 280.944 567.803 281.808 567.547 283.152H572.507C572.331 281.872 571.547 280.944 570.123 280.944ZM577.543 281.312C578.071 280.224 579.191 279.536 580.615 279.536V280.912C578.903 280.912 577.687 281.856 577.543 283.296V288H575.959V279.728H577.543V281.312ZM585.632 279.536C587.856 279.536 589.088 280.944 589.088 282.992V288H587.536V286.864C586.928 287.728 585.792 288.192 584.784 288.192C583.024 288.192 581.728 287.168 581.728 285.552C581.728 283.904 583.216 282.8 585.04 282.8C585.856 282.8 586.736 282.976 587.536 283.248V282.992C587.536 281.952 587.056 280.848 585.408 280.848C584.592 280.848 583.792 281.168 583.072 281.536L582.496 280.368C583.68 279.776 584.72 279.536 585.632 279.536ZM585.088 286.944C586.112 286.944 587.264 286.432 587.536 285.408V284.304C586.864 284.096 586.096 283.984 585.28 283.984C584.176 283.984 583.248 284.608 583.248 285.504C583.248 286.4 584.048 286.944 585.088 286.944ZM595.251 286.512L595.827 287.6C595.379 287.968 594.771 288.192 594.179 288.192C592.899 288.192 592.003 287.264 592.003 285.936V281.072H590.755V279.728H592.003V277.456H593.555V279.728H595.507V281.072H593.555V285.824C593.555 286.4 593.939 286.816 594.403 286.816C594.755 286.816 595.075 286.688 595.251 286.512ZM598.225 278.352C597.681 278.352 597.265 277.904 597.265 277.392C597.265 276.896 597.681 276.448 598.225 276.448C598.737 276.448 599.169 276.896 599.169 277.392C599.169 277.904 598.737 278.352 598.225 278.352ZM597.425 288V279.728H599.009V288H597.425ZM605.508 279.536C607.332 279.536 608.612 280.864 608.612 282.736V288H607.06V283.008C607.06 281.776 606.276 280.912 605.156 280.912C604.004 280.912 603.012 281.664 602.884 282.64V288H601.3V279.728H602.884V280.928C603.38 280.112 604.388 279.536 605.508 279.536ZM617.167 279.728H618.751V287.12C618.751 289.248 617.007 290.752 614.559 290.752C613.167 290.752 611.887 290.288 611.103 289.648L611.727 288.464C612.335 289.04 613.327 289.376 614.319 289.376C616.095 289.376 617.167 288.528 617.167 287.088V285.888C616.511 286.832 615.487 287.392 614.239 287.392C612.063 287.392 610.479 285.76 610.479 283.456C610.479 281.152 612.063 279.536 614.239 279.536C615.487 279.536 616.543 280.128 617.167 281.056V279.728ZM614.639 286.016C616.111 286.016 617.167 284.96 617.167 283.456C617.167 281.968 616.111 280.912 614.639 280.912C613.167 280.912 612.127 281.968 612.127 283.456C612.127 284.96 613.167 286.016 614.639 286.016ZM629.675 288.176C627.835 288.176 626.315 287.536 625.147 286.416L626.123 285.216C627.099 286.144 628.251 286.752 629.739 286.752C631.259 286.752 632.043 285.952 632.043 285.072C632.043 284.032 631.131 283.632 629.291 283.216C627.051 282.688 625.563 282.016 625.563 280.032C625.563 278.192 627.163 276.8 629.371 276.8C631.067 276.8 632.331 277.424 633.387 278.352L632.459 279.568C631.531 278.72 630.427 278.224 629.307 278.224C628.075 278.224 627.211 279.008 627.211 279.888C627.211 280.912 628.155 281.264 629.963 281.696C632.155 282.208 633.675 282.944 633.675 284.912C633.675 286.768 632.267 288.176 629.675 288.176ZM637.069 290.88C636.509 290.88 635.933 290.752 635.501 290.528L635.853 289.312C636.173 289.488 636.541 289.568 636.861 289.568C637.373 289.568 637.725 289.408 637.997 288.928L638.413 288.048L634.861 279.728H636.557L639.213 286.256L641.725 279.728H643.373L639.725 288.752C639.133 290.24 638.253 290.864 637.069 290.88ZM648.136 288.192C646.92 288.192 645.592 287.76 644.6 286.96L645.352 285.824C646.232 286.464 647.176 286.832 648.152 286.832C649.08 286.832 649.72 286.4 649.72 285.76C649.72 284.992 648.872 284.752 647.848 284.464C645.944 283.936 645 283.392 645 282.048C644.984 280.528 646.248 279.536 648.008 279.536C649.08 279.536 650.168 279.904 651.064 280.496L650.36 281.664C649.56 281.168 648.728 280.896 648.008 280.896C647.192 280.896 646.552 281.248 646.552 281.872C646.552 282.512 647.064 282.704 648.456 283.136C649.816 283.536 651.272 283.984 651.272 285.632C651.272 287.2 649.944 288.192 648.136 288.192ZM656.985 286.512L657.561 287.6C657.113 287.968 656.505 288.192 655.913 288.192C654.633 288.192 653.737 287.264 653.737 285.936V281.072H652.489V279.728H653.737V277.456H655.289V279.728H657.241V281.072H655.289V285.824C655.289 286.4 655.673 286.816 656.137 286.816C656.489 286.816 656.809 286.688 656.985 286.512ZM662.967 286.784C663.831 286.784 664.839 286.4 665.335 285.888L666.327 286.912C665.591 287.696 664.151 288.192 662.983 288.192C660.679 288.192 658.727 286.384 658.727 283.84C658.727 281.36 660.567 279.536 662.855 279.536C665.383 279.536 666.839 281.456 666.839 284.416H660.327C660.535 285.792 661.543 286.784 662.967 286.784ZM662.919 280.944C661.639 280.944 660.599 281.808 660.343 283.152H665.303C665.127 281.872 664.343 280.944 662.919 280.944ZM677.923 279.536C679.651 279.536 680.899 280.864 680.899 282.736V288H679.347V282.976C679.347 281.76 678.627 280.912 677.587 280.912C676.403 280.912 675.571 281.696 675.571 282.832V288H674.019V282.976C674.019 281.76 673.299 280.912 672.259 280.912C671.075 280.912 670.243 281.696 670.243 282.832V288H668.659V279.728H670.243V280.88C670.659 280.064 671.523 279.536 672.579 279.536C673.779 279.536 674.755 280.176 675.235 281.2C675.619 280.176 676.675 279.536 677.923 279.536Z" fill="#18181B"/>
<path d="M527 264H697V295C697 298.866 693.866 302 690 302H534C530.134 302 527 298.866 527 295V264Z" stroke="#18181B" stroke-width="2"/>
<rect x="519" y="142" width="186" height="168" rx="7" stroke="#18181B" stroke-width="2"/>
<rect x="37" y="179" width="149" height="93" rx="7" fill="white"/>
<path d="M70.8106 225.5L70.0186 223.556H64.5106L63.7186 225.5H60.7486L65.7886 213.134H68.7586L73.7986 225.5H70.8106ZM65.4286 221.306H69.1006L67.2646 216.788L65.4286 221.306ZM80.9262 215.978C83.4102 215.978 85.2102 217.994 85.2102 220.838C85.2102 223.7 83.4102 225.716 80.9262 225.716C79.6302 225.716 78.5502 225.158 77.8122 224.186V228.596H75.1842V216.194H77.8122V217.49C78.5502 216.536 79.6302 215.978 80.9262 215.978ZM80.1702 223.502C81.6282 223.502 82.6542 222.404 82.6542 220.838C82.6542 219.29 81.6282 218.192 80.1702 218.192C78.8922 218.192 77.9562 219.128 77.8122 220.478V221.198C77.9562 222.566 78.8922 223.502 80.1702 223.502ZM92.809 215.978C95.293 215.978 97.093 217.994 97.093 220.838C97.093 223.7 95.293 225.716 92.809 225.716C91.513 225.716 90.433 225.158 89.695 224.186V228.596H87.067V216.194H89.695V217.49C90.433 216.536 91.513 215.978 92.809 215.978ZM92.053 223.502C93.511 223.502 94.537 222.404 94.537 220.838C94.537 219.29 93.511 218.192 92.053 218.192C90.775 218.192 89.839 219.128 89.695 220.478V221.198C89.839 222.566 90.775 223.502 92.053 223.502ZM98.9499 225.5V212.918H101.578V225.5H98.9499ZM105.186 214.916C104.376 214.916 103.746 214.268 103.746 213.476C103.746 212.738 104.376 212.072 105.186 212.072C105.96 212.072 106.59 212.738 106.59 213.476C106.59 214.268 105.96 214.916 105.186 214.916ZM103.854 225.5V216.194H106.482V225.5H103.854ZM113.33 225.716C110.576 225.716 108.254 223.484 108.254 220.838C108.254 218.192 110.594 215.978 113.348 215.978C114.86 215.978 116.102 216.59 117.002 217.562L115.256 219.056C114.788 218.534 114.05 218.192 113.33 218.192C111.962 218.192 110.81 219.398 110.81 220.82C110.81 222.278 111.962 223.502 113.348 223.502C114.068 223.502 114.824 223.142 115.31 222.602L117.056 224.078C116.138 225.086 114.878 225.716 113.33 225.716ZM122.795 215.978C125.225 215.978 126.881 217.508 126.881 219.938V225.5H124.343V224.564C123.677 225.32 122.615 225.716 121.607 225.716C119.627 225.716 118.097 224.528 118.097 222.746C118.097 220.91 119.807 219.65 121.967 219.65C122.723 219.65 123.551 219.812 124.343 220.118V219.938C124.343 218.948 123.731 218.084 122.201 218.084C121.337 218.084 120.527 218.372 119.789 218.75L118.907 217.004C120.221 216.338 121.499 215.978 122.795 215.978ZM122.201 223.898C123.209 223.898 124.163 223.43 124.343 222.566V221.702C123.749 221.486 123.065 221.36 122.345 221.36C121.391 221.36 120.635 221.918 120.635 222.674C120.635 223.43 121.301 223.898 122.201 223.898ZM133.992 223.196L134.622 224.906C134.082 225.392 133.236 225.716 132.48 225.716C130.842 225.716 129.69 224.546 129.69 222.872V218.318H128.412V216.194H129.69V213.638H132.21V216.194H134.226V218.318H132.21V222.458C132.21 223.07 132.606 223.502 133.092 223.502C133.452 223.502 133.812 223.376 133.992 223.196ZM137.582 214.916C136.772 214.916 136.142 214.268 136.142 213.476C136.142 212.738 136.772 212.072 137.582 212.072C138.356 212.072 138.986 212.738 138.986 213.476C138.986 214.268 138.356 214.916 137.582 214.916ZM136.25 225.5V216.194H138.878V225.5H136.25ZM145.745 225.716C142.973 225.716 140.651 223.484 140.651 220.838C140.651 218.192 142.973 215.978 145.745 215.978C148.499 215.978 150.803 218.192 150.803 220.838C150.803 223.484 148.499 225.716 145.745 225.716ZM145.745 223.502C147.131 223.502 148.301 222.278 148.301 220.838C148.301 219.398 147.131 218.192 145.745 218.192C144.341 218.192 143.171 219.398 143.171 220.838C143.171 222.278 144.341 223.502 145.745 223.502ZM157.963 215.978C159.979 215.978 161.419 217.472 161.419 219.578V225.5H158.881V220.136C158.881 218.984 158.161 218.192 157.117 218.192C156.019 218.192 155.173 218.984 155.173 219.992L155.155 219.938V225.5H152.527V216.194H155.155V217.364C155.713 216.518 156.757 215.978 157.963 215.978ZM95.3915 243.716C92.6375 243.716 90.3155 241.484 90.3155 238.838C90.3155 236.192 92.6555 233.978 95.4095 233.978C96.9215 233.978 98.1635 234.59 99.0635 235.562L97.3175 237.056C96.8495 236.534 96.1115 236.192 95.3915 236.192C94.0235 236.192 92.8715 237.398 92.8715 238.82C92.8715 240.278 94.0235 241.502 95.4095 241.502C96.1295 241.502 96.8855 241.142 97.3715 240.602L99.1175 242.078C98.1995 243.086 96.9395 243.716 95.3915 243.716ZM105.078 243.716C102.306 243.716 99.9835 241.484 99.9835 238.838C99.9835 236.192 102.306 233.978 105.078 233.978C107.832 233.978 110.136 236.192 110.136 238.838C110.136 241.484 107.832 243.716 105.078 243.716ZM105.078 241.502C106.464 241.502 107.634 240.278 107.634 238.838C107.634 237.398 106.464 236.192 105.078 236.192C103.674 236.192 102.504 237.398 102.504 238.838C102.504 240.278 103.674 241.502 105.078 241.502ZM118.862 230.918H121.49V243.5H118.862V242.168C118.124 243.14 117.044 243.716 115.73 243.716C113.246 243.716 111.446 241.7 111.446 238.838C111.446 235.994 113.246 233.978 115.73 233.978C117.044 233.978 118.124 234.554 118.862 235.526V230.918ZM116.486 241.502C117.872 241.502 118.862 240.404 118.862 238.838C118.862 237.29 117.872 236.192 116.486 236.192C115.028 236.192 114.002 237.29 114.002 238.838C114.002 240.404 115.028 241.502 116.486 241.502ZM128.189 241.394C128.927 241.394 129.827 241.052 130.331 240.566L132.005 242.276C131.177 243.14 129.575 243.716 128.207 243.716C125.435 243.716 123.275 241.682 123.275 238.82C123.275 236.012 125.345 233.978 128.063 233.978C130.979 233.978 132.689 236.192 132.689 239.702H125.975C126.281 240.71 127.091 241.394 128.189 241.394ZM128.171 236.3C127.181 236.3 126.353 236.876 126.011 237.812H130.169C129.917 236.894 129.233 236.3 128.171 236.3Z" fill="#18181B"/>
<rect x="37" y="179" width="149" height="93" rx="7" stroke="#18181B" stroke-width="2"/>
<circle cx="111" cy="178.1" r="14.4" fill="white"/>
<path d="M130.483 176.338L122.606 162.66C121.92 161.473 120.243 160.5 118.876 160.5H103.122C101.752 160.5 100.075 161.473 99.389 162.66L91.5145 176.338C90.8285 177.526 90.8285 179.469 91.5145 180.659L99.3916 194.34C100.075 195.527 101.755 196.5 103.124 196.5H118.878C120.245 196.5 121.925 195.527 122.608 194.34L130.486 180.659C131.171 179.472 131.171 177.528 130.486 176.338H130.483ZM109.298 168.064C109.298 167.164 110.026 166.434 110.92 166.434C111.815 166.434 112.545 167.164 112.545 168.064V177.793C112.545 178.692 111.818 179.422 110.92 179.422C110.023 179.422 109.298 178.692 109.298 177.793V168.064ZM110.92 188.832C104.848 188.832 99.9107 183.878 99.9107 177.793C99.9107 174.319 101.572 171.006 104.355 168.932C104.994 168.453 105.899 168.587 106.377 169.23C106.851 169.871 106.718 170.778 106.079 171.257C103.995 172.81 102.801 175.196 102.801 177.795C102.801 182.286 106.445 185.939 110.923 185.939C115.402 185.939 119.045 182.286 119.045 177.795C119.045 175.219 117.809 172.769 115.738 171.236C115.096 170.763 114.961 169.855 115.433 169.212C115.908 168.568 116.81 168.432 117.452 168.906C120.258 170.98 121.933 174.304 121.933 177.795C121.933 183.884 116.993 188.834 110.923 188.834L110.92 188.832Z" fill="#4C7C2C"/>
<rect width="159" height="52" transform="translate(325 119)" fill="#E1EFD8"/>
<path d="M374.107 142.182C372.371 142.182 371.055 141.496 370.243 140.558L371.461 139.186C372.133 139.914 373.043 140.32 374.009 140.32C375.073 140.32 375.689 139.83 375.689 139.144C375.689 138.402 375.115 138.024 373.813 138.038H372.707V136.274L373.813 136.288C374.863 136.288 375.493 135.896 375.493 135.21C375.493 134.51 374.835 134.062 373.883 134.062C372.973 134.062 372.259 134.51 371.615 135.182L370.425 133.922C371.223 132.956 372.371 132.214 374.079 132.214C376.249 132.214 377.607 133.32 377.607 134.846C377.607 135.952 376.851 136.75 375.801 137.058C376.851 137.296 377.817 138.038 377.817 139.312C377.817 140.978 376.347 142.182 374.107 142.182ZM383.175 142V132.214H385.219V142H383.175ZM390.237 134.594C392.127 134.594 393.415 135.784 393.415 137.674V142H391.441V141.272C390.923 141.86 390.097 142.168 389.313 142.168C387.773 142.168 386.583 141.244 386.583 139.858C386.583 138.43 387.913 137.45 389.593 137.45C390.181 137.45 390.825 137.576 391.441 137.814V137.674C391.441 136.904 390.965 136.232 389.775 136.232C389.103 136.232 388.473 136.456 387.899 136.75L387.213 135.392C388.235 134.874 389.229 134.594 390.237 134.594ZM389.775 140.754C390.559 140.754 391.301 140.39 391.441 139.718V139.046C390.979 138.878 390.447 138.78 389.887 138.78C389.145 138.78 388.557 139.214 388.557 139.802C388.557 140.39 389.075 140.754 389.775 140.754ZM396.79 144.52C396.188 144.52 395.46 144.338 394.97 144.072L395.404 142.672C395.754 142.868 396.118 142.994 396.356 142.994C396.748 142.994 397.056 142.868 397.21 142.602L397.462 142.07L394.452 134.762H396.566L398.47 139.844L400.276 134.762H402.362L399.394 142.364C398.848 143.778 397.924 144.52 396.79 144.52ZM406.634 140.362C407.208 140.362 407.908 140.096 408.3 139.718L409.602 141.048C408.958 141.72 407.712 142.168 406.648 142.168C404.492 142.168 402.812 140.586 402.812 138.36C402.812 136.176 404.422 134.594 406.536 134.594C408.804 134.594 410.134 136.316 410.134 139.046H404.912C405.15 139.83 405.78 140.362 406.634 140.362ZM406.62 136.4C405.85 136.4 405.206 136.848 404.94 137.576H408.174C407.978 136.862 407.446 136.4 406.62 136.4ZM413.561 136.106C414.037 135.168 414.933 134.594 416.039 134.594V136.316C414.527 136.316 413.561 137.184 413.561 138.542V142H411.517V134.762H413.561V136.106ZM419.934 142.168C418.772 142.168 417.54 141.776 416.672 141.076L417.554 139.662C418.198 140.124 419.01 140.474 419.976 140.474C420.522 140.474 420.914 140.25 420.914 139.928C420.914 139.48 420.382 139.34 419.64 139.144C418.156 138.78 417.008 138.374 416.994 136.946C416.98 135.574 418.114 134.594 419.822 134.594C420.858 134.594 421.88 134.958 422.678 135.49L421.852 136.946C421.194 136.54 420.438 136.302 419.822 136.302C419.318 136.302 418.968 136.484 418.968 136.736C418.968 137.128 419.262 137.24 420.242 137.506C421.488 137.828 422.874 138.248 422.874 139.83C422.874 141.258 421.712 142.168 419.934 142.168ZM431.793 142.168C429.721 142.168 427.971 140.432 427.971 138.374C427.971 136.316 429.721 134.594 431.793 134.594C433.851 134.594 435.587 136.316 435.587 138.374C435.587 140.432 433.851 142.168 431.793 142.168ZM431.793 140.964C433.095 140.964 434.201 139.788 434.201 138.374C434.201 136.974 433.095 135.798 431.793 135.798C430.463 135.798 429.357 136.974 429.357 138.374C429.357 139.788 430.463 140.964 431.793 140.964ZM439.113 133.964V134.762H440.821V135.938H439.113V142H437.755V135.938H436.663V134.762H437.755V133.894C437.755 132.732 438.539 131.92 439.659 131.92C440.177 131.92 440.709 132.116 441.101 132.438L440.597 133.362C440.443 133.208 440.163 133.096 439.855 133.096C439.449 133.096 439.113 133.46 439.113 133.964ZM447.534 144.52C447.044 144.52 446.54 144.408 446.162 144.212L446.47 143.148C446.75 143.302 447.072 143.372 447.352 143.372C447.8 143.372 448.108 143.232 448.346 142.812L448.71 142.042L445.602 134.762H447.086L449.41 140.474L451.608 134.762H453.05L449.858 142.658C449.34 143.96 448.57 144.506 447.534 144.52ZM457.715 142.168C455.643 142.168 453.893 140.432 453.893 138.374C453.893 136.316 455.643 134.594 457.715 134.594C459.773 134.594 461.509 136.316 461.509 138.374C461.509 140.432 459.773 142.168 457.715 142.168ZM457.715 140.964C459.017 140.964 460.123 139.788 460.123 138.374C460.123 136.974 459.017 135.798 457.715 135.798C456.385 135.798 455.279 136.974 455.279 138.374C455.279 139.788 456.385 140.964 457.715 140.964ZM468.115 134.762H469.501V142H468.115V140.95C467.681 141.664 466.799 142.168 465.819 142.168C464.223 142.168 463.103 141.006 463.103 139.368V134.762H464.461V139.13C464.461 140.208 465.147 140.964 466.127 140.964C467.135 140.964 468.003 140.306 468.115 139.452V134.762ZM472.968 136.148C473.43 135.196 474.41 134.594 475.656 134.594V135.798C474.158 135.798 473.094 136.624 472.968 137.884V142H471.582V134.762H472.968V136.148ZM340.379 146.214H341.751V156H340.379V154.74C339.819 155.636 338.923 156.168 337.803 156.168C335.899 156.168 334.471 154.6 334.471 152.374C334.471 150.162 335.899 148.594 337.803 148.594C338.923 148.594 339.819 149.126 340.379 150.008V146.214ZM338.139 154.964C339.441 154.964 340.379 153.886 340.379 152.374C340.379 150.862 339.441 149.798 338.139 149.798C336.809 149.798 335.871 150.862 335.871 152.374C335.871 153.886 336.809 154.964 338.139 154.964ZM347.148 154.936C347.904 154.936 348.786 154.6 349.22 154.152L350.088 155.048C349.444 155.734 348.184 156.168 347.162 156.168C345.146 156.168 343.438 154.586 343.438 152.36C343.438 150.19 345.048 148.594 347.05 148.594C349.262 148.594 350.536 150.274 350.536 152.864H344.838C345.02 154.068 345.902 154.936 347.148 154.936ZM347.106 149.826C345.986 149.826 345.076 150.582 344.852 151.758H349.192C349.038 150.638 348.352 149.826 347.106 149.826ZM356.161 148.594C358.065 148.594 359.493 150.162 359.493 152.374C359.493 154.6 358.065 156.168 356.161 156.168C355.041 156.168 354.145 155.636 353.585 154.74V158.408H352.213V148.762H353.585V150.008C354.145 149.126 355.041 148.594 356.161 148.594ZM355.825 154.964C357.155 154.964 358.093 153.886 358.093 152.374C358.093 150.862 357.155 149.798 355.825 149.798C354.523 149.798 353.585 150.862 353.585 152.374C353.585 153.886 354.523 154.964 355.825 154.964ZM361.166 156V146.214H362.538V156H361.166ZM367.987 156.168C365.915 156.168 364.165 154.432 364.165 152.374C364.165 150.316 365.915 148.594 367.987 148.594C370.045 148.594 371.781 150.316 371.781 152.374C371.781 154.432 370.045 156.168 367.987 156.168ZM367.987 154.964C369.289 154.964 370.395 153.788 370.395 152.374C370.395 150.974 369.289 149.798 367.987 149.798C366.657 149.798 365.551 150.974 365.551 152.374C365.551 153.788 366.657 154.964 367.987 154.964ZM374.458 158.52C373.968 158.52 373.464 158.408 373.086 158.212L373.394 157.148C373.674 157.302 373.996 157.372 374.276 157.372C374.724 157.372 375.032 157.232 375.27 156.812L375.634 156.042L372.526 148.762H374.01L376.334 154.474L378.532 148.762H379.974L376.782 156.658C376.264 157.96 375.494 158.506 374.458 158.52ZM384.514 154.936C385.27 154.936 386.152 154.6 386.586 154.152L387.454 155.048C386.81 155.734 385.55 156.168 384.528 156.168C382.512 156.168 380.804 154.586 380.804 152.36C380.804 150.19 382.414 148.594 384.416 148.594C386.628 148.594 387.901 150.274 387.901 152.864H382.204C382.386 154.068 383.268 154.936 384.514 154.936ZM384.472 149.826C383.352 149.826 382.442 150.582 382.218 151.758H386.558C386.404 150.638 385.718 149.826 384.472 149.826ZM395.08 146.214H396.452V156H395.08V154.74C394.52 155.636 393.624 156.168 392.504 156.168C390.6 156.168 389.172 154.6 389.172 152.374C389.172 150.162 390.6 148.594 392.504 148.594C393.624 148.594 394.52 149.126 395.08 150.008V146.214ZM392.84 154.964C394.142 154.964 395.08 153.886 395.08 152.374C395.08 150.862 394.142 149.798 392.84 149.798C391.51 149.798 390.572 150.862 390.572 152.374C390.572 153.886 391.51 154.964 392.84 154.964ZM405.575 148.594C407.521 148.594 408.599 149.826 408.599 151.618V156H407.241V155.006C406.709 155.762 405.715 156.168 404.833 156.168C403.293 156.168 402.159 155.272 402.159 153.858C402.159 152.416 403.461 151.45 405.057 151.45C405.771 151.45 406.541 151.604 407.241 151.842V151.618C407.241 150.708 406.821 149.742 405.379 149.742C404.665 149.742 403.965 150.022 403.335 150.344L402.831 149.322C403.867 148.804 404.777 148.594 405.575 148.594ZM405.099 155.076C405.995 155.076 407.003 154.628 407.241 153.732V152.766C406.653 152.584 405.981 152.486 405.267 152.486C404.301 152.486 403.489 153.032 403.489 153.816C403.489 154.6 404.189 155.076 405.099 155.076ZM414.622 148.594C416.526 148.594 417.954 150.162 417.954 152.374C417.954 154.6 416.526 156.168 414.622 156.168C413.502 156.168 412.606 155.636 412.046 154.74V158.408H410.674V148.762H412.046V150.008C412.606 149.126 413.502 148.594 414.622 148.594ZM414.286 154.964C415.616 154.964 416.554 153.886 416.554 152.374C416.554 150.862 415.616 149.798 414.286 149.798C412.984 149.798 412.046 150.862 412.046 152.374C412.046 153.886 412.984 154.964 414.286 154.964ZM423.645 148.594C425.549 148.594 426.977 150.162 426.977 152.374C426.977 154.6 425.549 156.168 423.645 156.168C422.525 156.168 421.629 155.636 421.069 154.74V158.408H419.697V148.762H421.069V150.008C421.629 149.126 422.525 148.594 423.645 148.594ZM423.309 154.964C424.639 154.964 425.577 153.886 425.577 152.374C425.577 150.862 424.639 149.798 423.309 149.798C422.007 149.798 421.069 150.862 421.069 152.374C421.069 153.886 422.007 154.964 423.309 154.964ZM428.651 156V146.214H430.023V156H428.651ZM432.727 147.558C432.251 147.558 431.887 147.166 431.887 146.718C431.887 146.284 432.251 145.892 432.727 145.892C433.175 145.892 433.553 146.284 433.553 146.718C433.553 147.166 433.175 147.558 432.727 147.558ZM432.027 156V148.762H433.413V156H432.027ZM438.834 156.168C436.776 156.168 435.026 154.432 435.026 152.374C435.026 150.316 436.776 148.594 438.848 148.594C439.884 148.594 440.822 149.028 441.508 149.714L440.57 150.582C440.136 150.092 439.506 149.798 438.834 149.798C437.518 149.798 436.426 150.974 436.426 152.374C436.426 153.788 437.518 154.964 438.848 154.964C439.52 154.964 440.164 154.656 440.612 154.152L441.55 155.006C440.85 155.72 439.912 156.168 438.834 156.168ZM446.071 148.594C448.017 148.594 449.095 149.826 449.095 151.618V156H447.737V155.006C447.205 155.762 446.211 156.168 445.329 156.168C443.789 156.168 442.655 155.272 442.655 153.858C442.655 152.416 443.957 151.45 445.553 151.45C446.267 151.45 447.037 151.604 447.737 151.842V151.618C447.737 150.708 447.317 149.742 445.875 149.742C445.161 149.742 444.461 150.022 443.831 150.344L443.327 149.322C444.363 148.804 445.273 148.594 446.071 148.594ZM445.595 155.076C446.491 155.076 447.499 154.628 447.737 153.732V152.766C447.149 152.584 446.477 152.486 445.763 152.486C444.797 152.486 443.985 153.032 443.985 153.816C443.985 154.6 444.685 155.076 445.595 155.076ZM454.488 154.698L454.992 155.65C454.6 155.972 454.068 156.168 453.55 156.168C452.43 156.168 451.646 155.356 451.646 154.194V149.938H450.554V148.762H451.646V146.774H453.004V148.762H454.712V149.938H453.004V154.096C453.004 154.6 453.34 154.964 453.746 154.964C454.054 154.964 454.334 154.852 454.488 154.698ZM457.09 147.558C456.614 147.558 456.25 147.166 456.25 146.718C456.25 146.284 456.614 145.892 457.09 145.892C457.538 145.892 457.916 146.284 457.916 146.718C457.916 147.166 457.538 147.558 457.09 147.558ZM456.39 156V148.762H457.776V156H456.39ZM463.211 156.168C461.139 156.168 459.389 154.432 459.389 152.374C459.389 150.316 461.139 148.594 463.211 148.594C465.269 148.594 467.005 150.316 467.005 152.374C467.005 154.432 465.269 156.168 463.211 156.168ZM463.211 154.964C464.513 154.964 465.619 153.788 465.619 152.374C465.619 150.974 464.513 149.798 463.211 149.798C461.881 149.798 460.775 150.974 460.775 152.374C460.775 153.788 461.881 154.964 463.211 154.964ZM472.309 148.594C473.905 148.594 475.025 149.756 475.025 151.394V156H473.667V151.632C473.667 150.554 472.981 149.798 472.001 149.798C470.993 149.798 470.125 150.456 470.013 151.31V156H468.627V148.762H470.013V149.812C470.447 149.098 471.329 148.594 472.309 148.594Z" fill="#18181B"/>
<path d="M483 119L483 171" stroke="#4C7C2C" stroke-width="3"/>
<path d="M523.167 189C523.167 191.946 525.554 194.333 528.5 194.333C531.446 194.333 533.833 191.946 533.833 189C533.833 186.054 531.446 183.667 528.5 183.667C525.554 183.667 523.167 186.054 523.167 189ZM482.793 144.707L484.199 146.113L485.613 144.699L484.207 143.293L482.793 144.707ZM487.012 148.926L489.824 151.738L491.238 150.324L488.426 147.512L487.012 148.926ZM492.637 154.551L495.449 157.363L496.863 155.949L494.051 153.137L492.637 154.551ZM498.262 160.176L501.074 162.988L502.488 161.574L499.676 158.762L498.262 160.176ZM503.887 165.801L506.699 168.613L508.113 167.199L505.301 164.387L503.887 165.801ZM509.512 171.426L512.324 174.238L513.738 172.824L510.926 170.012L509.512 171.426ZM515.137 177.051L517.949 179.863L519.363 178.449L516.551 175.637L515.137 177.051ZM520.762 182.676L523.574 185.488L524.988 184.074L522.176 181.262L520.762 182.676ZM526.387 188.301L527.793 189.707L529.207 188.293L527.801 186.887L526.387 188.301Z" fill="#4C7C2C"/>
<path d="M236 241C234.895 241 234 241.895 234 243C234 244.105 234.895 245 236 245L236 241ZM236 245L309 245L309 241L236 241L236 245Z" fill="#18181B"/>
<rect x="261" y="232" width="22" height="22" rx="11" fill="white"/>
<path d="M281.336 240.023C281.492 240.375 281.375 240.727 281.102 241L279.422 242.523C279.461 242.836 279.5 243.188 279.5 243.5C279.5 243.852 279.461 244.203 279.422 244.516L281.102 246.039C281.375 246.312 281.492 246.664 281.336 247.016C281.18 247.484 280.984 247.914 280.75 248.344L280.555 248.656C280.281 249.086 280.008 249.516 279.695 249.906C279.461 250.18 279.07 250.258 278.719 250.141L276.57 249.477C276.023 249.867 275.438 250.18 274.852 250.453L274.344 252.68C274.266 253.031 273.992 253.305 273.641 253.383C273.094 253.461 272.547 253.5 271.961 253.5C271.414 253.5 270.867 253.461 270.32 253.383C269.969 253.305 269.695 253.031 269.617 252.68L269.109 250.453C268.523 250.18 267.938 249.867 267.391 249.477L265.242 250.141C264.891 250.258 264.5 250.18 264.266 249.906C263.953 249.516 263.68 249.086 263.406 248.656L263.211 248.344C262.977 247.914 262.781 247.484 262.625 247.016C262.469 246.664 262.586 246.312 262.859 246.039L264.539 244.516C264.5 244.203 264.5 243.852 264.5 243.5C264.5 243.188 264.5 242.836 264.539 242.523L262.859 241C262.586 240.727 262.469 240.375 262.625 240.023C262.781 239.555 262.977 239.125 263.211 238.695L263.406 238.383C263.68 237.953 263.953 237.523 264.266 237.133C264.5 236.859 264.891 236.781 265.242 236.898L267.391 237.562C267.938 237.172 268.523 236.82 269.109 236.586L269.617 234.359C269.695 234.008 269.969 233.734 270.32 233.656C270.867 233.578 271.414 233.5 272 233.5C272.547 233.5 273.094 233.578 273.641 233.656C273.992 233.734 274.266 234.008 274.344 234.359L274.852 236.586C275.438 236.82 276.023 237.172 276.57 237.562L278.719 236.898C279.07 236.781 279.461 236.859 279.695 237.133C280.008 237.523 280.281 237.953 280.555 238.383L280.75 238.695C280.984 239.125 281.18 239.555 281.336 240.023ZM272 246.625C273.719 246.625 275.125 245.258 275.125 243.5C275.125 241.781 273.719 240.375 272 240.375C270.242 240.375 268.875 241.781 268.875 243.5C268.875 245.258 270.242 246.625 272 246.625Z" fill="#15230C"/>
<path d="M318.416 241.525C319.411 242.325 319.411 243.842 318.416 244.642L310.592 250.932C309.283 251.985 307.339 251.053 307.339 249.374L307.339 236.793C307.339 235.114 309.283 234.182 310.592 235.234L318.416 241.525Z" fill="#15230C"/>
<path d="M379 241C377.895 241 377 241.895 377 243C377 244.105 377.895 245 379 245L379 241ZM379 245L452 245L452 241L379 241L379 245Z" fill="#18181B"/>
<rect x="404" y="232" width="22" height="22" rx="11" fill="white"/>
<path d="M424.336 240.023C424.492 240.375 424.375 240.727 424.102 241L422.422 242.523C422.461 242.836 422.5 243.188 422.5 243.5C422.5 243.852 422.461 244.203 422.422 244.516L424.102 246.039C424.375 246.312 424.492 246.664 424.336 247.016C424.18 247.484 423.984 247.914 423.75 248.344L423.555 248.656C423.281 249.086 423.008 249.516 422.695 249.906C422.461 250.18 422.07 250.258 421.719 250.141L419.57 249.477C419.023 249.867 418.438 250.18 417.852 250.453L417.344 252.68C417.266 253.031 416.992 253.305 416.641 253.383C416.094 253.461 415.547 253.5 414.961 253.5C414.414 253.5 413.867 253.461 413.32 253.383C412.969 253.305 412.695 253.031 412.617 252.68L412.109 250.453C411.523 250.18 410.938 249.867 410.391 249.477L408.242 250.141C407.891 250.258 407.5 250.18 407.266 249.906C406.953 249.516 406.68 249.086 406.406 248.656L406.211 248.344C405.977 247.914 405.781 247.484 405.625 247.016C405.469 246.664 405.586 246.312 405.859 246.039L407.539 244.516C407.5 244.203 407.5 243.852 407.5 243.5C407.5 243.188 407.5 242.836 407.539 242.523L405.859 241C405.586 240.727 405.469 240.375 405.625 240.023C405.781 239.555 405.977 239.125 406.211 238.695L406.406 238.383C406.68 237.953 406.953 237.523 407.266 237.133C407.5 236.859 407.891 236.781 408.242 236.898L410.391 237.562C410.938 237.172 411.523 236.82 412.109 236.586L412.617 234.359C412.695 234.008 412.969 233.734 413.32 233.656C413.867 233.578 414.414 233.5 415 233.5C415.547 233.5 416.094 233.578 416.641 233.656C416.992 233.734 417.266 234.008 417.344 234.359L417.852 236.586C418.438 236.82 419.023 237.172 419.57 237.562L421.719 236.898C422.07 236.781 422.461 236.859 422.695 237.133C423.008 237.523 423.281 237.953 423.555 238.383L423.75 238.695C423.984 239.125 424.18 239.555 424.336 240.023ZM415 246.625C416.719 246.625 418.125 245.258 418.125 243.5C418.125 241.781 416.719 240.375 415 240.375C413.242 240.375 411.875 241.781 411.875 243.5C411.875 245.258 413.242 246.625 415 246.625Z" fill="#15230C"/>
<path d="M461.416 241.525C462.411 242.325 462.411 243.842 461.416 244.642L453.592 250.932C452.283 251.985 450.339 251.053 450.339 249.374L450.339 236.793C450.339 235.114 452.283 234.182 453.592 235.234L461.416 241.525Z" fill="#15230C"/>
</g>
<defs>
<clipPath id="clip0_402_627944">
<rect width="743" height="431" fill="white"/>
</clipPath>
</defs>
</svg>
