<svg width="743" height="431" viewBox="0 0 743 431" fill="none" xmlns="http://www.w3.org/2000/svg">
<g clip-path="url(#clip0_420_189)">
<rect width="743" height="431" fill="#F4F4F5"/>
<path d="M610 476L309.559 -13H0V476H610Z" fill="white"/>
<circle cx="8.64224" cy="220.949" r="2.94888" fill="#F4F4F5"/>
<circle cx="8.64224" cy="235.847" r="2.94888" fill="#F4F4F5"/>
<circle cx="8.64224" cy="250.744" r="2.94888" fill="#F4F4F5"/>
<circle cx="8.64224" cy="265.642" r="2.94888" fill="#F4F4F5"/>
<circle cx="8.64224" cy="280.54" r="2.94888" fill="#F4F4F5"/>
<circle cx="8.64224" cy="295.438" r="2.94888" fill="#F4F4F5"/>
<circle cx="8.64224" cy="310.335" r="2.94888" fill="#F4F4F5"/>
<circle cx="8.64224" cy="325.233" r="2.94888" fill="#F4F4F5"/>
<circle cx="8.64224" cy="340.131" r="2.94888" fill="#F4F4F5"/>
<circle cx="8.64224" cy="355.029" r="2.94888" fill="#F4F4F5"/>
<circle cx="8.64224" cy="369.927" r="2.94888" fill="#F4F4F5"/>
<circle cx="8.64224" cy="384.824" r="2.94888" fill="#F4F4F5"/>
<circle cx="23.5399" cy="220.949" r="2.94888" fill="#F4F4F5"/>
<circle cx="23.5399" cy="235.847" r="2.94888" fill="#F4F4F5"/>
<circle cx="23.5399" cy="250.744" r="2.94888" fill="#F4F4F5"/>
<circle cx="23.5399" cy="265.642" r="2.94888" fill="#F4F4F5"/>
<circle cx="23.5399" cy="280.54" r="2.94888" fill="#F4F4F5"/>
<circle cx="23.5399" cy="295.438" r="2.94888" fill="#F4F4F5"/>
<circle cx="23.5399" cy="310.335" r="2.94888" fill="#F4F4F5"/>
<circle cx="23.5399" cy="325.233" r="2.94888" fill="#F4F4F5"/>
<circle cx="23.5399" cy="340.131" r="2.94888" fill="#F4F4F5"/>
<circle cx="23.5399" cy="355.029" r="2.94888" fill="#F4F4F5"/>
<circle cx="23.5399" cy="369.927" r="2.94888" fill="#F4F4F5"/>
<circle cx="23.5399" cy="384.824" r="2.94888" fill="#F4F4F5"/>
<circle cx="38.4377" cy="220.949" r="2.94888" fill="#F4F4F5"/>
<circle cx="38.4377" cy="235.847" r="2.94888" fill="#F4F4F5"/>
<circle cx="38.4377" cy="250.744" r="2.94888" fill="#F4F4F5"/>
<circle cx="38.4377" cy="265.642" r="2.94888" fill="#F4F4F5"/>
<circle cx="38.4377" cy="280.54" r="2.94888" fill="#F4F4F5"/>
<circle cx="38.4377" cy="295.438" r="2.94888" fill="#F4F4F5"/>
<circle cx="38.4377" cy="310.335" r="2.94888" fill="#F4F4F5"/>
<circle cx="38.4377" cy="325.233" r="2.94888" fill="#F4F4F5"/>
<circle cx="38.4377" cy="340.131" r="2.94888" fill="#F4F4F5"/>
<circle cx="38.4377" cy="355.029" r="2.94888" fill="#F4F4F5"/>
<circle cx="38.4377" cy="369.927" r="2.94888" fill="#F4F4F5"/>
<circle cx="38.4377" cy="384.824" r="2.94888" fill="#F4F4F5"/>
<circle cx="53.3355" cy="220.949" r="2.94888" fill="#F4F4F5"/>
<circle cx="53.3355" cy="235.847" r="2.94888" fill="#F4F4F5"/>
<circle cx="53.3355" cy="250.744" r="2.94888" fill="#F4F4F5"/>
<circle cx="53.3355" cy="265.642" r="2.94888" fill="#F4F4F5"/>
<circle cx="53.3355" cy="280.54" r="2.94888" fill="#F4F4F5"/>
<circle cx="53.3355" cy="295.438" r="2.94888" fill="#F4F4F5"/>
<circle cx="53.3355" cy="310.335" r="2.94888" fill="#F4F4F5"/>
<circle cx="53.3355" cy="325.233" r="2.94888" fill="#F4F4F5"/>
<circle cx="53.3355" cy="340.131" r="2.94888" fill="#F4F4F5"/>
<circle cx="53.3355" cy="355.029" r="2.94888" fill="#F4F4F5"/>
<circle cx="53.3355" cy="369.927" r="2.94888" fill="#F4F4F5"/>
<circle cx="53.3355" cy="384.824" r="2.94888" fill="#F4F4F5"/>
<circle cx="68.2332" cy="220.949" r="2.94888" fill="#F4F4F5"/>
<circle cx="68.2332" cy="235.847" r="2.94888" fill="#F4F4F5"/>
<circle cx="68.2332" cy="250.744" r="2.94888" fill="#F4F4F5"/>
<circle cx="68.2332" cy="265.642" r="2.94888" fill="#F4F4F5"/>
<circle cx="68.2332" cy="280.54" r="2.94888" fill="#F4F4F5"/>
<circle cx="68.2332" cy="295.438" r="2.94888" fill="#F4F4F5"/>
<circle cx="68.2332" cy="310.335" r="2.94888" fill="#F4F4F5"/>
<circle cx="68.2332" cy="325.233" r="2.94888" fill="#F4F4F5"/>
<circle cx="68.2332" cy="340.131" r="2.94888" fill="#F4F4F5"/>
<circle cx="68.2332" cy="355.029" r="2.94888" fill="#F4F4F5"/>
<circle cx="68.2332" cy="369.927" r="2.94888" fill="#F4F4F5"/>
<circle cx="68.2332" cy="384.824" r="2.94888" fill="#F4F4F5"/>
<circle cx="83.131" cy="220.949" r="2.94888" fill="#F4F4F5"/>
<circle cx="83.131" cy="235.847" r="2.94888" fill="#F4F4F5"/>
<circle cx="83.131" cy="250.744" r="2.94888" fill="#F4F4F5"/>
<circle cx="83.131" cy="265.642" r="2.94888" fill="#F4F4F5"/>
<circle cx="83.131" cy="280.54" r="2.94888" fill="#F4F4F5"/>
<circle cx="83.131" cy="295.438" r="2.94888" fill="#F4F4F5"/>
<circle cx="83.131" cy="310.335" r="2.94888" fill="#F4F4F5"/>
<circle cx="83.131" cy="325.233" r="2.94888" fill="#F4F4F5"/>
<circle cx="83.131" cy="340.131" r="2.94888" fill="#F4F4F5"/>
<circle cx="83.131" cy="355.029" r="2.94888" fill="#F4F4F5"/>
<circle cx="83.131" cy="369.927" r="2.94888" fill="#F4F4F5"/>
<circle cx="83.131" cy="384.824" r="2.94888" fill="#F4F4F5"/>
<circle cx="98.0288" cy="220.949" r="2.94888" fill="#F4F4F5"/>
<circle cx="98.0288" cy="235.847" r="2.94888" fill="#F4F4F5"/>
<circle cx="98.0288" cy="250.744" r="2.94888" fill="#F4F4F5"/>
<circle cx="98.0288" cy="265.642" r="2.94888" fill="#F4F4F5"/>
<circle cx="98.0288" cy="280.54" r="2.94888" fill="#F4F4F5"/>
<circle cx="98.0288" cy="295.438" r="2.94888" fill="#F4F4F5"/>
<circle cx="98.0288" cy="310.335" r="2.94888" fill="#F4F4F5"/>
<circle cx="98.0288" cy="325.233" r="2.94888" fill="#F4F4F5"/>
<circle cx="98.0288" cy="340.131" r="2.94888" fill="#F4F4F5"/>
<circle cx="98.0288" cy="355.029" r="2.94888" fill="#F4F4F5"/>
<circle cx="98.0288" cy="369.927" r="2.94888" fill="#F4F4F5"/>
<circle cx="98.0288" cy="384.824" r="2.94888" fill="#F4F4F5"/>
<circle cx="112.927" cy="220.949" r="2.94888" fill="#F4F4F5"/>
<circle cx="112.927" cy="235.847" r="2.94888" fill="#F4F4F5"/>
<circle cx="112.927" cy="250.744" r="2.94888" fill="#F4F4F5"/>
<circle cx="112.927" cy="265.642" r="2.94888" fill="#F4F4F5"/>
<circle cx="112.927" cy="280.54" r="2.94888" fill="#F4F4F5"/>
<circle cx="112.927" cy="295.438" r="2.94888" fill="#F4F4F5"/>
<circle cx="112.927" cy="310.335" r="2.94888" fill="#F4F4F5"/>
<circle cx="112.927" cy="325.233" r="2.94888" fill="#F4F4F5"/>
<circle cx="112.927" cy="340.131" r="2.94888" fill="#F4F4F5"/>
<circle cx="112.927" cy="355.029" r="2.94888" fill="#F4F4F5"/>
<circle cx="112.927" cy="369.927" r="2.94888" fill="#F4F4F5"/>
<circle cx="112.927" cy="384.824" r="2.94888" fill="#F4F4F5"/>
<circle cx="127.824" cy="220.949" r="2.94888" fill="#F4F4F5"/>
<circle cx="127.824" cy="235.847" r="2.94888" fill="#F4F4F5"/>
<circle cx="127.824" cy="250.744" r="2.94888" fill="#F4F4F5"/>
<circle cx="127.824" cy="265.642" r="2.94888" fill="#F4F4F5"/>
<circle cx="127.824" cy="280.54" r="2.94888" fill="#F4F4F5"/>
<circle cx="127.824" cy="295.438" r="2.94888" fill="#F4F4F5"/>
<circle cx="127.824" cy="310.335" r="2.94888" fill="#F4F4F5"/>
<circle cx="127.824" cy="325.233" r="2.94888" fill="#F4F4F5"/>
<circle cx="127.824" cy="340.131" r="2.94888" fill="#F4F4F5"/>
<circle cx="127.824" cy="355.029" r="2.94888" fill="#F4F4F5"/>
<circle cx="127.824" cy="369.927" r="2.94888" fill="#F4F4F5"/>
<circle cx="127.824" cy="384.824" r="2.94888" fill="#F4F4F5"/>
<path d="M256.194 247.144C253.878 247.144 251.91 245.188 251.91 242.872C251.91 240.556 253.878 238.612 256.194 238.612C257.37 238.612 258.45 239.104 259.23 239.908L258.378 240.724C257.826 240.124 257.046 239.728 256.194 239.728C254.55 239.728 253.158 241.168 253.158 242.872C253.158 244.588 254.55 246.028 256.194 246.028C257.046 246.028 257.826 245.632 258.378 245.032L259.23 245.848C258.45 246.64 257.37 247.144 256.194 247.144ZM263.353 247.144C261.577 247.144 260.077 245.656 260.077 243.892C260.077 242.128 261.577 240.652 263.353 240.652C265.117 240.652 266.605 242.128 266.605 243.892C266.605 245.656 265.117 247.144 263.353 247.144ZM263.353 246.112C264.469 246.112 265.417 245.104 265.417 243.892C265.417 242.692 264.469 241.684 263.353 241.684C262.213 241.684 261.265 242.692 261.265 243.892C261.265 245.104 262.213 246.112 263.353 246.112ZM274.931 240.652C276.227 240.652 277.163 241.648 277.163 243.052V247H275.999V243.232C275.999 242.32 275.459 241.684 274.679 241.684C273.791 241.684 273.167 242.272 273.167 243.124V247H272.003V243.232C272.003 242.32 271.463 241.684 270.683 241.684C269.795 241.684 269.171 242.272 269.171 243.124V247H267.983V240.796H269.171V241.66C269.483 241.048 270.131 240.652 270.923 240.652C271.823 240.652 272.555 241.132 272.915 241.9C273.203 241.132 273.995 240.652 274.931 240.652ZM282.314 240.652C283.946 240.652 285.17 241.996 285.17 243.892C285.17 245.8 283.946 247.144 282.314 247.144C281.354 247.144 280.586 246.688 280.106 245.92V249.064H278.93V240.796H280.106V241.864C280.586 241.108 281.354 240.652 282.314 240.652ZM282.026 246.112C283.166 246.112 283.97 245.188 283.97 243.892C283.97 242.596 283.166 241.684 282.026 241.684C280.91 241.684 280.106 242.596 280.106 243.892C280.106 245.188 280.91 246.112 282.026 246.112ZM287.192 239.764C286.784 239.764 286.472 239.428 286.472 239.044C286.472 238.672 286.784 238.336 287.192 238.336C287.576 238.336 287.9 238.672 287.9 239.044C287.9 239.428 287.576 239.764 287.192 239.764ZM286.592 247V240.796H287.78V247H286.592ZM289.499 247V238.612H290.675V247H289.499ZM295.249 246.088C295.897 246.088 296.653 245.8 297.025 245.416L297.769 246.184C297.217 246.772 296.137 247.144 295.261 247.144C293.533 247.144 292.069 245.788 292.069 243.88C292.069 242.02 293.449 240.652 295.165 240.652C297.061 240.652 298.153 242.092 298.153 244.312H293.269C293.425 245.344 294.181 246.088 295.249 246.088ZM295.213 241.708C294.253 241.708 293.473 242.356 293.281 243.364H297.001C296.869 242.404 296.281 241.708 295.213 241.708ZM259.01 263.04C257.378 261.732 256.442 259.908 256.442 257.82C256.442 255.72 257.378 253.908 259.01 252.6L259.634 253.248C258.338 254.568 257.666 255.924 257.666 257.82C257.666 259.704 258.338 261.072 259.634 262.38L259.01 263.04ZM261.593 253.764C261.185 253.764 260.873 253.428 260.873 253.044C260.873 252.672 261.185 252.336 261.593 252.336C261.977 252.336 262.301 252.672 262.301 253.044C262.301 253.428 261.977 253.764 261.593 253.764ZM260.525 263.136C260.153 263.136 259.721 263.04 259.469 262.92L259.625 261.996C259.805 262.068 260.105 262.116 260.345 262.116C260.729 262.116 260.993 261.804 260.993 261.372V254.796H262.181V261.432C262.181 262.428 261.497 263.136 260.525 263.136ZM266.503 254.652C268.171 254.652 269.095 255.708 269.095 257.244V261H267.931V260.148C267.475 260.796 266.623 261.144 265.867 261.144C264.547 261.144 263.575 260.376 263.575 259.164C263.575 257.928 264.691 257.1 266.059 257.1C266.671 257.1 267.331 257.232 267.931 257.436V257.244C267.931 256.464 267.571 255.636 266.335 255.636C265.723 255.636 265.123 255.876 264.583 256.152L264.151 255.276C265.039 254.832 265.819 254.652 266.503 254.652ZM266.095 260.208C266.863 260.208 267.727 259.824 267.931 259.056V258.228C267.427 258.072 266.851 257.988 266.239 257.988C265.411 257.988 264.715 258.456 264.715 259.128C264.715 259.8 265.315 260.208 266.095 260.208ZM272.877 261L270.213 254.796H271.497L273.429 259.62L275.325 254.796H276.609L273.993 261H272.877ZM279.886 254.652C281.554 254.652 282.478 255.708 282.478 257.244V261H281.314V260.148C280.858 260.796 280.006 261.144 279.25 261.144C277.93 261.144 276.958 260.376 276.958 259.164C276.958 257.928 278.074 257.1 279.442 257.1C280.054 257.1 280.714 257.232 281.314 257.436V257.244C281.314 256.464 280.954 255.636 279.718 255.636C279.106 255.636 278.506 255.876 277.966 256.152L277.534 255.276C278.422 254.832 279.202 254.652 279.886 254.652ZM279.478 260.208C280.246 260.208 281.11 259.824 281.314 259.056V258.228C280.81 258.072 280.234 257.988 279.622 257.988C278.794 257.988 278.098 258.456 278.098 259.128C278.098 259.8 278.698 260.208 279.478 260.208ZM287.124 261.144C285.36 261.144 283.86 259.656 283.86 257.892C283.86 256.128 285.36 254.652 287.136 254.652C288.024 254.652 288.828 255.024 289.416 255.612L288.612 256.356C288.24 255.936 287.7 255.684 287.124 255.684C285.996 255.684 285.06 256.692 285.06 257.892C285.06 259.104 285.996 260.112 287.136 260.112C287.712 260.112 288.264 259.848 288.648 259.416L289.452 260.148C288.852 260.76 288.048 261.144 287.124 261.144ZM290.987 263.04L290.363 262.38C291.647 261.072 292.331 259.704 292.331 257.82C292.331 255.924 291.647 254.568 290.363 253.248L290.987 252.6C292.619 253.908 293.555 255.72 293.555 257.82C293.555 259.908 292.619 261.732 290.987 263.04Z" fill="#18181B"/>
<path d="M159.018 247.144C157.59 247.144 156.318 246.664 155.358 245.776L156.378 244.564C157.158 245.236 158.046 245.644 159.09 245.644C159.978 245.644 160.434 245.236 160.434 244.72C160.434 244.132 159.954 243.952 158.694 243.664C156.954 243.268 155.718 242.776 155.718 241.18C155.718 239.656 156.966 238.612 158.766 238.612C160.11 238.612 161.154 239.032 161.994 239.752L161.07 241.024C160.338 240.436 159.51 240.112 158.718 240.112C157.962 240.112 157.506 240.508 157.506 241C157.506 241.6 157.998 241.792 159.27 242.08C161.046 242.476 162.222 243.004 162.222 244.528C162.222 246.1 161.034 247.144 159.018 247.144ZM167.272 240.652C168.928 240.652 170.128 241.996 170.128 243.892C170.128 245.8 168.928 247.144 167.272 247.144C166.408 247.144 165.688 246.772 165.196 246.124V249.064H163.444V240.796H165.196V241.66C165.688 241.024 166.408 240.652 167.272 240.652ZM166.768 245.668C167.74 245.668 168.424 244.936 168.424 243.892C168.424 242.86 167.74 242.128 166.768 242.128C165.916 242.128 165.292 242.752 165.196 243.652V244.132C165.292 245.044 165.916 245.668 166.768 245.668ZM173.118 241.948C173.526 241.144 174.294 240.652 175.242 240.652V242.128C173.946 242.128 173.118 242.872 173.118 244.036V247H171.366V240.796H173.118V241.948ZM177.128 239.944C176.588 239.944 176.168 239.512 176.168 238.984C176.168 238.492 176.588 238.048 177.128 238.048C177.644 238.048 178.064 238.492 178.064 238.984C178.064 239.512 177.644 239.944 177.128 239.944ZM176.24 247V240.796H177.992V247H176.24ZM183.11 240.652C184.454 240.652 185.414 241.648 185.414 243.052V247H183.722V243.424C183.722 242.656 183.242 242.128 182.546 242.128C181.814 242.128 181.25 242.656 181.25 243.328L181.238 243.292V247H179.486V240.796H181.238V241.576C181.61 241.012 182.306 240.652 183.11 240.652ZM191.381 240.796H193.145V246.34C193.145 247.936 191.765 249.064 189.809 249.064C188.717 249.064 187.685 248.716 187.073 248.236L187.685 247C188.093 247.36 188.813 247.588 189.533 247.588C190.661 247.588 191.381 247.072 191.381 246.268V245.584C190.889 246.184 190.145 246.544 189.329 246.544C187.769 246.544 186.581 245.32 186.581 243.592C186.581 241.864 187.769 240.652 189.329 240.652C190.169 240.652 190.961 241.048 191.381 241.636V240.796ZM189.881 245.068C190.757 245.068 191.381 244.456 191.381 243.592C191.381 242.728 190.757 242.128 189.881 242.128C189.005 242.128 188.381 242.728 188.381 243.592C188.381 244.456 189.005 245.068 189.881 245.068ZM137.126 261L136.598 259.704H132.926L132.398 261H130.418L133.778 252.756H135.758L139.118 261H137.126ZM133.538 258.204H135.986L134.762 255.192L133.538 258.204ZM143.629 254.652C144.973 254.652 145.933 255.648 145.933 257.052V261H144.241V257.424C144.241 256.656 143.761 256.128 143.065 256.128C142.333 256.128 141.769 256.656 141.769 257.328V261H140.017V252.612H141.769V255.552C142.153 255.012 142.837 254.652 143.629 254.652ZM150.341 259.596C150.833 259.596 151.433 259.368 151.769 259.044L152.885 260.184C152.333 260.76 151.265 261.144 150.353 261.144C148.505 261.144 147.065 259.788 147.065 257.88C147.065 256.008 148.445 254.652 150.257 254.652C152.201 254.652 153.341 256.128 153.341 258.468H148.865C149.069 259.14 149.609 259.596 150.341 259.596ZM150.329 256.2C149.669 256.2 149.117 256.584 148.889 257.208H151.661C151.493 256.596 151.037 256.2 150.329 256.2ZM157.298 254.652C158.918 254.652 160.022 255.672 160.022 257.292V261H158.33V260.376C157.886 260.88 157.178 261.144 156.506 261.144C155.186 261.144 154.166 260.352 154.166 259.164C154.166 257.94 155.306 257.1 156.746 257.1C157.25 257.1 157.802 257.208 158.33 257.412V257.292C158.33 256.632 157.922 256.056 156.902 256.056C156.326 256.056 155.786 256.248 155.294 256.5L154.706 255.336C155.582 254.892 156.434 254.652 157.298 254.652ZM156.902 259.932C157.574 259.932 158.21 259.62 158.33 259.044V258.468C157.934 258.324 157.478 258.24 156.998 258.24C156.362 258.24 155.858 258.612 155.858 259.116C155.858 259.62 156.302 259.932 156.902 259.932ZM166.13 252.612H167.882V261H166.13V260.112C165.638 260.76 164.918 261.144 164.042 261.144C162.386 261.144 161.186 259.8 161.186 257.892C161.186 255.996 162.386 254.652 164.042 254.652C164.918 254.652 165.638 255.036 166.13 255.684V252.612ZM164.546 259.668C165.47 259.668 166.13 258.936 166.13 257.892C166.13 256.86 165.47 256.128 164.546 256.128C163.574 256.128 162.89 256.86 162.89 257.892C162.89 258.936 163.574 259.668 164.546 259.668ZM169.192 258.444V256.956H172.48V258.444H169.192ZM176.839 261.144C174.991 261.144 173.443 259.656 173.443 257.892C173.443 256.128 174.991 254.652 176.839 254.652C178.675 254.652 180.211 256.128 180.211 257.892C180.211 259.656 178.675 261.144 176.839 261.144ZM176.839 259.668C177.763 259.668 178.543 258.852 178.543 257.892C178.543 256.932 177.763 256.128 176.839 256.128C175.903 256.128 175.123 256.932 175.123 257.892C175.123 258.852 175.903 259.668 176.839 259.668ZM183.473 254.46V254.796H184.817V256.212H183.473V261H181.793V256.212H180.941V254.796H181.793V254.256C181.793 253.14 182.561 252.36 183.653 252.36C184.157 252.36 184.721 252.576 185.081 252.9L184.661 253.968C184.541 253.848 184.301 253.764 184.061 253.764C183.737 253.764 183.473 254.052 183.473 254.46ZM185.716 258.444V256.956H189.004V258.444H185.716ZM192.499 261V254.352H189.931V252.756H196.843V254.352H194.275V261H192.499ZM198.855 253.944C198.315 253.944 197.895 253.512 197.895 252.984C197.895 252.492 198.315 252.048 198.855 252.048C199.371 252.048 199.791 252.492 199.791 252.984C199.791 253.512 199.371 253.944 198.855 253.944ZM197.967 261V254.796H199.719V261H197.967ZM208.628 254.652C209.924 254.652 210.92 255.648 210.92 257.052V261.012H209.24V257.352C209.24 256.632 208.784 256.128 208.136 256.128C207.44 256.128 206.936 256.596 206.936 257.256V261.012H205.256V257.352C205.256 256.632 204.8 256.128 204.164 256.128C203.456 256.128 202.964 256.596 202.964 257.256V261H201.212V254.796H202.964V255.612C203.264 255.024 203.876 254.652 204.644 254.652C205.496 254.652 206.228 255.084 206.612 255.78C206.936 255.096 207.704 254.652 208.628 254.652ZM215.321 259.596C215.813 259.596 216.413 259.368 216.749 259.044L217.865 260.184C217.313 260.76 216.245 261.144 215.333 261.144C213.485 261.144 212.045 259.788 212.045 257.88C212.045 256.008 213.425 254.652 215.237 254.652C217.181 254.652 218.321 256.128 218.321 258.468H213.845C214.049 259.14 214.589 259.596 215.321 259.596ZM215.309 256.2C214.649 256.2 214.097 256.584 213.869 257.208H216.641C216.473 256.596 216.017 256.2 215.309 256.2ZM138.115 275.144C136.267 275.144 134.719 273.656 134.719 271.892C134.719 270.128 136.267 268.652 138.115 268.652C139.951 268.652 141.487 270.128 141.487 271.892C141.487 273.656 139.951 275.144 138.115 275.144ZM138.115 273.668C139.039 273.668 139.819 272.852 139.819 271.892C139.819 270.932 139.039 270.128 138.115 270.128C137.179 270.128 136.399 270.932 136.399 271.892C136.399 272.852 137.179 273.668 138.115 273.668ZM146.5 268.652C148.156 268.652 149.356 269.996 149.356 271.892C149.356 273.8 148.156 275.144 146.5 275.144C145.636 275.144 144.916 274.772 144.424 274.124V277.064H142.672V268.796H144.424V269.66C144.916 269.024 145.636 268.652 146.5 268.652ZM145.996 273.668C146.968 273.668 147.652 272.936 147.652 271.892C147.652 270.86 146.968 270.128 145.996 270.128C145.144 270.128 144.52 270.752 144.424 271.652V272.132C144.52 273.044 145.144 273.668 145.996 273.668ZM153.858 273.464L154.278 274.604C153.918 274.928 153.354 275.144 152.85 275.144C151.758 275.144 150.99 274.364 150.99 273.248V270.212H150.138V268.796H150.99V267.092H152.67V268.796H154.014V270.212H152.67V272.972C152.67 273.38 152.934 273.668 153.258 273.668C153.498 273.668 153.738 273.584 153.858 273.464ZM156.251 267.944C155.711 267.944 155.291 267.512 155.291 266.984C155.291 266.492 155.711 266.048 156.251 266.048C156.767 266.048 157.187 266.492 157.187 266.984C157.187 267.512 156.767 267.944 156.251 267.944ZM155.363 275V268.796H157.115V275H155.363ZM166.025 268.652C167.321 268.652 168.317 269.648 168.317 271.052V275.012H166.637V271.352C166.637 270.632 166.181 270.128 165.533 270.128C164.837 270.128 164.333 270.596 164.333 271.256V275.012H162.653V271.352C162.653 270.632 162.197 270.128 161.561 270.128C160.853 270.128 160.361 270.596 160.361 271.256V275H158.609V268.796H160.361V269.612C160.661 269.024 161.273 268.652 162.041 268.652C162.893 268.652 163.625 269.084 164.009 269.78C164.333 269.096 165.101 268.652 166.025 268.652ZM170.665 267.944C170.125 267.944 169.705 267.512 169.705 266.984C169.705 266.492 170.125 266.048 170.665 266.048C171.181 266.048 171.601 266.492 171.601 266.984C171.601 267.512 171.181 267.944 170.665 267.944ZM169.777 275V268.796H171.529V275H169.777ZM172.783 275V273.764L175.903 270.284H172.867V268.796H178.183V270.032L175.063 273.512H178.207V275H172.783ZM182.218 268.652C183.838 268.652 184.942 269.672 184.942 271.292V275H183.25V274.376C182.806 274.88 182.098 275.144 181.426 275.144C180.106 275.144 179.086 274.352 179.086 273.164C179.086 271.94 180.226 271.1 181.666 271.1C182.17 271.1 182.722 271.208 183.25 271.412V271.292C183.25 270.632 182.842 270.056 181.822 270.056C181.246 270.056 180.706 270.248 180.214 270.5L179.626 269.336C180.502 268.892 181.354 268.652 182.218 268.652ZM181.822 273.932C182.494 273.932 183.13 273.62 183.25 273.044V272.468C182.854 272.324 182.398 272.24 181.918 272.24C181.282 272.24 180.778 272.612 180.778 273.116C180.778 273.62 181.222 273.932 181.822 273.932ZM189.682 273.464L190.102 274.604C189.742 274.928 189.178 275.144 188.674 275.144C187.582 275.144 186.814 274.364 186.814 273.248V270.212H185.962V268.796H186.814V267.092H188.494V268.796H189.838V270.212H188.494V272.972C188.494 273.38 188.758 273.668 189.082 273.668C189.322 273.668 189.562 273.584 189.682 273.464ZM192.076 267.944C191.536 267.944 191.116 267.512 191.116 266.984C191.116 266.492 191.536 266.048 192.076 266.048C192.592 266.048 193.012 266.492 193.012 266.984C193.012 267.512 192.592 267.944 192.076 267.944ZM191.188 275V268.796H192.94V275H191.188ZM197.517 275.144C195.669 275.144 194.121 273.656 194.121 271.892C194.121 270.128 195.669 268.652 197.517 268.652C199.353 268.652 200.889 270.128 200.889 271.892C200.889 273.656 199.353 275.144 197.517 275.144ZM197.517 273.668C198.441 273.668 199.221 272.852 199.221 271.892C199.221 270.932 198.441 270.128 197.517 270.128C196.581 270.128 195.801 270.932 195.801 271.892C195.801 272.852 196.581 273.668 197.517 273.668ZM205.663 268.652C207.007 268.652 207.967 269.648 207.967 271.052V275H206.275V271.424C206.275 270.656 205.795 270.128 205.099 270.128C204.367 270.128 203.803 270.656 203.803 271.328L203.791 271.292V275H202.039V268.796H203.791V269.576C204.163 269.012 204.859 268.652 205.663 268.652ZM211.774 275.144C210.778 275.144 209.722 274.808 208.978 274.208L209.734 272.996C210.286 273.392 210.982 273.692 211.81 273.692C212.278 273.692 212.614 273.5 212.614 273.224C212.614 272.84 212.158 272.72 211.522 272.552C210.25 272.24 209.266 271.892 209.254 270.668C209.242 269.492 210.214 268.652 211.678 268.652C212.566 268.652 213.442 268.964 214.126 269.42L213.418 270.668C212.854 270.32 212.206 270.116 211.678 270.116C211.246 270.116 210.946 270.272 210.946 270.488C210.946 270.824 211.198 270.92 212.038 271.148C213.106 271.424 214.294 271.784 214.294 273.14C214.294 274.364 213.298 275.144 211.774 275.144Z" fill="#18181B"/>
<path d="M448.3 247V238.756H451.768C453.508 238.756 454.828 239.872 454.828 241.444C454.828 243.016 453.508 244.132 451.768 244.132H449.512V247H448.3ZM449.512 243.004H451.6C452.788 243.004 453.592 242.416 453.592 241.444C453.592 240.472 452.788 239.884 451.6 239.884H449.512V243.004ZM458.661 240.652C460.329 240.652 461.253 241.708 461.253 243.244V247H460.089V246.148C459.633 246.796 458.781 247.144 458.025 247.144C456.705 247.144 455.733 246.376 455.733 245.164C455.733 243.928 456.849 243.1 458.217 243.1C458.829 243.1 459.489 243.232 460.089 243.436V243.244C460.089 242.464 459.729 241.636 458.493 241.636C457.881 241.636 457.281 241.876 456.741 242.152L456.309 241.276C457.197 240.832 457.977 240.652 458.661 240.652ZM458.253 246.208C459.021 246.208 459.885 245.824 460.089 245.056V244.228C459.585 244.072 459.009 243.988 458.397 243.988C457.569 243.988 456.873 244.456 456.873 245.128C456.873 245.8 457.473 246.208 458.253 246.208ZM465.899 247.144C464.135 247.144 462.635 245.656 462.635 243.892C462.635 242.128 464.135 240.652 465.911 240.652C466.799 240.652 467.603 241.024 468.191 241.612L467.387 242.356C467.015 241.936 466.475 241.684 465.899 241.684C464.771 241.684 463.835 242.692 463.835 243.892C463.835 245.104 464.771 246.112 465.911 246.112C466.487 246.112 467.039 245.848 467.423 245.416L468.227 246.148C467.627 246.76 466.823 247.144 465.899 247.144ZM475.139 240.796L472.463 243.604L475.019 247H473.603L471.659 244.396L470.663 245.404V247H469.487V238.612H470.663V243.964L473.699 240.796H475.139ZM478.724 240.652C480.392 240.652 481.316 241.708 481.316 243.244V247H480.152V246.148C479.696 246.796 478.844 247.144 478.088 247.144C476.768 247.144 475.796 246.376 475.796 245.164C475.796 243.928 476.912 243.1 478.28 243.1C478.892 243.1 479.552 243.232 480.152 243.436V243.244C480.152 242.464 479.792 241.636 478.556 241.636C477.944 241.636 477.344 241.876 476.804 242.152L476.372 241.276C477.26 240.832 478.04 240.652 478.724 240.652ZM478.316 246.208C479.084 246.208 479.948 245.824 480.152 245.056V244.228C479.648 244.072 479.072 243.988 478.46 243.988C477.632 243.988 476.936 244.456 476.936 245.128C476.936 245.8 477.536 246.208 478.316 246.208ZM487.75 240.796H488.938V246.34C488.938 247.936 487.63 249.064 485.794 249.064C484.75 249.064 483.79 248.716 483.202 248.236L483.67 247.348C484.126 247.78 484.87 248.032 485.614 248.032C486.946 248.032 487.75 247.396 487.75 246.316V245.416C487.258 246.124 486.49 246.544 485.554 246.544C483.922 246.544 482.734 245.32 482.734 243.592C482.734 241.864 483.922 240.652 485.554 240.652C486.49 240.652 487.282 241.096 487.75 241.792V240.796ZM485.854 245.512C486.958 245.512 487.75 244.72 487.75 243.592C487.75 242.476 486.958 241.684 485.854 241.684C484.75 241.684 483.97 242.476 483.97 243.592C483.97 244.72 484.75 245.512 485.854 245.512ZM491.298 239.764C490.89 239.764 490.578 239.428 490.578 239.044C490.578 238.672 490.89 238.336 491.298 238.336C491.682 238.336 492.006 238.672 492.006 239.044C492.006 239.428 491.682 239.764 491.298 239.764ZM490.698 247V240.796H491.886V247H490.698ZM496.76 240.652C498.128 240.652 499.088 241.648 499.088 243.052V247H497.924V243.256C497.924 242.332 497.336 241.684 496.496 241.684C495.632 241.684 494.888 242.248 494.792 242.98V247H493.604V240.796H494.792V241.696C495.164 241.084 495.92 240.652 496.76 240.652ZM505.504 240.796H506.692V246.34C506.692 247.936 505.384 249.064 503.548 249.064C502.504 249.064 501.544 248.716 500.956 248.236L501.424 247.348C501.88 247.78 502.624 248.032 503.368 248.032C504.7 248.032 505.504 247.396 505.504 246.316V245.416C505.012 246.124 504.244 246.544 503.308 246.544C501.676 246.544 500.488 245.32 500.488 243.592C500.488 241.864 501.676 240.652 503.308 240.652C504.244 240.652 505.036 241.096 505.504 241.792V240.796ZM503.608 245.512C504.712 245.512 505.504 244.72 505.504 243.592C505.504 242.476 504.712 241.684 503.608 241.684C502.504 241.684 501.724 242.476 501.724 243.592C501.724 244.72 502.504 245.512 503.608 245.512ZM441.955 261L439.291 254.796H440.575L442.507 259.62L444.403 254.796H445.687L443.071 261H441.955ZM447.405 253.764C446.997 253.764 446.685 253.428 446.685 253.044C446.685 252.672 446.997 252.336 447.405 252.336C447.789 252.336 448.113 252.672 448.113 253.044C448.113 253.428 447.789 253.764 447.405 253.764ZM446.805 261V254.796H447.993V261H446.805ZM452.316 254.652C453.984 254.652 454.908 255.708 454.908 257.244V261H453.744V260.148C453.288 260.796 452.436 261.144 451.68 261.144C450.36 261.144 449.388 260.376 449.388 259.164C449.388 257.928 450.504 257.1 451.872 257.1C452.484 257.1 453.144 257.232 453.744 257.436V257.244C453.744 256.464 453.384 255.636 452.148 255.636C451.536 255.636 450.936 255.876 450.396 256.152L449.964 255.276C450.852 254.832 451.632 254.652 452.316 254.652ZM451.908 260.208C452.676 260.208 453.54 259.824 453.744 259.056V258.228C453.24 258.072 452.664 257.988 452.052 257.988C451.224 257.988 450.528 258.456 450.528 259.128C450.528 259.8 451.128 260.208 451.908 260.208ZM460.239 261V252.756H464.151C465.531 252.756 466.503 253.608 466.503 254.808C466.503 255.672 466.071 256.212 465.327 256.632C466.287 257.1 466.839 257.844 466.839 258.756C466.839 260.076 465.783 261 464.307 261H460.239ZM461.451 256.188H463.851C464.679 256.188 465.267 255.696 465.267 255.012C465.267 254.328 464.679 253.824 463.851 253.824H461.451V256.188ZM461.451 259.932H464.031C464.955 259.932 465.603 259.368 465.603 258.576C465.603 257.784 464.955 257.22 464.031 257.22H461.451V259.932ZM472.593 254.796H473.781V261H472.593V260.1C472.221 260.712 471.465 261.144 470.625 261.144C469.257 261.144 468.297 260.148 468.297 258.744V254.796H469.461V258.54C469.461 259.464 470.049 260.112 470.889 260.112C471.753 260.112 472.497 259.548 472.593 258.816V254.796ZM476.093 253.764C475.685 253.764 475.373 253.428 475.373 253.044C475.373 252.672 475.685 252.336 476.093 252.336C476.477 252.336 476.801 252.672 476.801 253.044C476.801 253.428 476.477 253.764 476.093 253.764ZM475.493 261V254.796H476.681V261H475.493ZM478.399 261V252.612H479.575V261H478.399ZM486.081 252.612H487.257V261H486.081V259.92C485.601 260.688 484.833 261.144 483.873 261.144C482.241 261.144 481.017 259.8 481.017 257.892C481.017 255.996 482.241 254.652 483.873 254.652C484.833 254.652 485.601 255.108 486.081 255.864V252.612ZM484.161 260.112C485.277 260.112 486.081 259.188 486.081 257.892C486.081 256.596 485.277 255.684 484.161 255.684C483.021 255.684 482.217 256.596 482.217 257.892C482.217 259.188 483.021 260.112 484.161 260.112ZM492.484 254.652C494.116 254.652 495.34 255.996 495.34 257.892C495.34 259.8 494.116 261.144 492.484 261.144C491.524 261.144 490.756 260.688 490.276 259.92V263.064H489.1V254.796H490.276V255.864C490.756 255.108 491.524 254.652 492.484 254.652ZM492.196 260.112C493.336 260.112 494.14 259.188 494.14 257.892C494.14 256.596 493.336 255.684 492.196 255.684C491.08 255.684 490.276 256.596 490.276 257.892C490.276 259.188 491.08 260.112 492.196 260.112ZM499.378 254.652C501.046 254.652 501.97 255.708 501.97 257.244V261H500.806V260.148C500.35 260.796 499.498 261.144 498.742 261.144C497.422 261.144 496.45 260.376 496.45 259.164C496.45 257.928 497.566 257.1 498.934 257.1C499.546 257.1 500.206 257.232 500.806 257.436V257.244C500.806 256.464 500.446 255.636 499.21 255.636C498.598 255.636 497.998 255.876 497.458 256.152L497.026 255.276C497.914 254.832 498.694 254.652 499.378 254.652ZM498.97 260.208C499.738 260.208 500.602 259.824 500.806 259.056V258.228C500.302 258.072 499.726 257.988 499.114 257.988C498.286 257.988 497.59 258.456 497.59 259.128C497.59 259.8 498.19 260.208 498.97 260.208ZM506.616 261.144C504.852 261.144 503.352 259.656 503.352 257.892C503.352 256.128 504.852 254.652 506.628 254.652C507.516 254.652 508.32 255.024 508.908 255.612L508.104 256.356C507.732 255.936 507.192 255.684 506.616 255.684C505.488 255.684 504.552 256.692 504.552 257.892C504.552 259.104 505.488 260.112 506.628 260.112C507.204 260.112 507.756 259.848 508.14 259.416L508.944 260.148C508.344 260.76 507.54 261.144 506.616 261.144ZM515.856 254.796L513.18 257.604L515.736 261H514.32L512.376 258.396L511.38 259.404V261H510.204V252.612H511.38V257.964L514.416 254.796H515.856Z" fill="#18181B"/>
<path d="M356.526 247.144C354.162 247.144 352.146 245.188 352.146 242.872C352.146 240.556 354.162 238.612 356.526 238.612C357.774 238.612 358.926 239.14 359.73 239.992L358.446 241.144C357.966 240.592 357.282 240.22 356.526 240.22C355.146 240.22 353.97 241.444 353.97 242.872C353.97 244.312 355.146 245.536 356.526 245.536C357.282 245.536 357.966 245.164 358.446 244.612L359.73 245.764C358.926 246.604 357.774 247.144 356.526 247.144ZM363.826 247.144C361.978 247.144 360.43 245.656 360.43 243.892C360.43 242.128 361.978 240.652 363.826 240.652C365.662 240.652 367.198 242.128 367.198 243.892C367.198 245.656 365.662 247.144 363.826 247.144ZM363.826 245.668C364.75 245.668 365.53 244.852 365.53 243.892C365.53 242.932 364.75 242.128 363.826 242.128C362.89 242.128 362.11 242.932 362.11 243.892C362.11 244.852 362.89 245.668 363.826 245.668ZM375.763 240.652C377.059 240.652 378.055 241.648 378.055 243.052V247.012H376.375V243.352C376.375 242.632 375.919 242.128 375.271 242.128C374.575 242.128 374.071 242.596 374.071 243.256V247.012H372.391V243.352C372.391 242.632 371.935 242.128 371.299 242.128C370.591 242.128 370.099 242.596 370.099 243.256V247H368.347V240.796H370.099V241.612C370.399 241.024 371.011 240.652 371.779 240.652C372.631 240.652 373.363 241.084 373.747 241.78C374.071 241.096 374.839 240.652 375.763 240.652ZM383.356 240.652C385.012 240.652 386.212 241.996 386.212 243.892C386.212 245.8 385.012 247.144 383.356 247.144C382.492 247.144 381.772 246.772 381.28 246.124V249.064H379.528V240.796H381.28V241.66C381.772 241.024 382.492 240.652 383.356 240.652ZM382.852 245.668C383.824 245.668 384.508 244.936 384.508 243.892C384.508 242.86 383.824 242.128 382.852 242.128C382 242.128 381.376 242.752 381.28 243.652V244.132C381.376 245.044 382 245.668 382.852 245.668ZM388.326 239.944C387.786 239.944 387.366 239.512 387.366 238.984C387.366 238.492 387.786 238.048 388.326 238.048C388.842 238.048 389.262 238.492 389.262 238.984C389.262 239.512 388.842 239.944 388.326 239.944ZM387.438 247V240.796H389.19V247H387.438ZM390.719 247V238.612H392.471V247H390.719ZM396.928 245.596C397.42 245.596 398.02 245.368 398.356 245.044L399.472 246.184C398.92 246.76 397.852 247.144 396.94 247.144C395.092 247.144 393.652 245.788 393.652 243.88C393.652 242.008 395.032 240.652 396.844 240.652C398.788 240.652 399.928 242.128 399.928 244.468H395.452C395.656 245.14 396.196 245.596 396.928 245.596ZM396.916 242.2C396.256 242.2 395.704 242.584 395.476 243.208H398.248C398.08 242.596 397.624 242.2 396.916 242.2ZM336.685 263.04C334.981 261.816 333.997 259.944 333.997 257.82C333.997 255.684 334.981 253.824 336.685 252.6L337.573 253.536C336.325 254.82 335.737 256.08 335.737 257.82C335.737 259.548 336.325 260.82 337.573 262.092L336.685 263.04ZM342.335 254.652C343.679 254.652 344.639 255.648 344.639 257.052V261H342.947V257.424C342.947 256.656 342.467 256.128 341.771 256.128C341.039 256.128 340.475 256.656 340.475 257.328L340.463 257.292V261H338.711V254.796H340.463V255.576C340.835 255.012 341.531 254.652 342.335 254.652ZM348.89 254.652C350.51 254.652 351.614 255.672 351.614 257.292V261H349.922V260.376C349.478 260.88 348.77 261.144 348.098 261.144C346.778 261.144 345.758 260.352 345.758 259.164C345.758 257.94 346.898 257.1 348.338 257.1C348.842 257.1 349.394 257.208 349.922 257.412V257.292C349.922 256.632 349.514 256.056 348.494 256.056C347.918 256.056 347.378 256.248 346.886 256.5L346.298 255.336C347.174 254.892 348.026 254.652 348.89 254.652ZM348.494 259.932C349.166 259.932 349.802 259.62 349.922 259.044V258.468C349.526 258.324 349.07 258.24 348.59 258.24C347.954 258.24 347.45 258.612 347.45 259.116C347.45 259.62 347.894 259.932 348.494 259.932ZM356.354 259.464L356.774 260.604C356.414 260.928 355.85 261.144 355.346 261.144C354.254 261.144 353.486 260.364 353.486 259.248V256.212H352.634V254.796H353.486V253.092H355.166V254.796H356.51V256.212H355.166V258.972C355.166 259.38 355.43 259.668 355.754 259.668C355.994 259.668 356.234 259.584 356.354 259.464ZM358.748 253.944C358.208 253.944 357.788 253.512 357.788 252.984C357.788 252.492 358.208 252.048 358.748 252.048C359.264 252.048 359.684 252.492 359.684 252.984C359.684 253.512 359.264 253.944 358.748 253.944ZM357.86 261V254.796H359.612V261H357.86ZM363.217 261L360.529 254.796H362.365L364.033 258.984L365.665 254.796H367.489L364.837 261H363.217ZM370.96 259.596C371.452 259.596 372.052 259.368 372.388 259.044L373.504 260.184C372.952 260.76 371.884 261.144 370.972 261.144C369.124 261.144 367.684 259.788 367.684 257.88C367.684 256.008 369.064 254.652 370.876 254.652C372.82 254.652 373.96 256.128 373.96 258.468H369.484C369.688 259.14 370.228 259.596 370.96 259.596ZM370.948 256.2C370.288 256.2 369.736 256.584 369.508 257.208H372.28C372.112 256.596 371.656 256.2 370.948 256.2ZM379.373 253.944C378.833 253.944 378.413 253.512 378.413 252.984C378.413 252.492 378.833 252.048 379.373 252.048C379.889 252.048 380.309 252.492 380.309 252.984C380.309 253.512 379.889 253.944 379.373 253.944ZM378.485 261V254.796H380.237V261H378.485ZM389.146 254.652C390.442 254.652 391.438 255.648 391.438 257.052V261.012H389.758V257.352C389.758 256.632 389.302 256.128 388.654 256.128C387.958 256.128 387.454 256.596 387.454 257.256V261.012H385.774V257.352C385.774 256.632 385.318 256.128 384.682 256.128C383.974 256.128 383.482 256.596 383.482 257.256V261H381.73V254.796H383.482V255.612C383.782 255.024 384.394 254.652 385.162 254.652C386.014 254.652 386.746 255.084 387.13 255.78C387.454 255.096 388.222 254.652 389.146 254.652ZM395.683 254.652C397.303 254.652 398.407 255.672 398.407 257.292V261H396.715V260.376C396.271 260.88 395.563 261.144 394.891 261.144C393.571 261.144 392.551 260.352 392.551 259.164C392.551 257.94 393.691 257.1 395.131 257.1C395.635 257.1 396.187 257.208 396.715 257.412V257.292C396.715 256.632 396.307 256.056 395.287 256.056C394.711 256.056 394.171 256.248 393.679 256.5L393.091 255.336C393.967 254.892 394.819 254.652 395.683 254.652ZM395.287 259.932C395.959 259.932 396.595 259.62 396.715 259.044V258.468C396.319 258.324 395.863 258.24 395.383 258.24C394.747 258.24 394.243 258.612 394.243 259.116C394.243 259.62 394.687 259.932 395.287 259.932ZM404.371 254.796H406.135V260.34C406.135 261.936 404.755 263.064 402.799 263.064C401.707 263.064 400.675 262.716 400.063 262.236L400.675 261C401.083 261.36 401.803 261.588 402.523 261.588C403.651 261.588 404.371 261.072 404.371 260.268V259.584C403.879 260.184 403.135 260.544 402.319 260.544C400.759 260.544 399.571 259.32 399.571 257.592C399.571 255.864 400.759 254.652 402.319 254.652C403.159 254.652 403.951 255.048 404.371 255.636V254.796ZM402.871 259.068C403.747 259.068 404.371 258.456 404.371 257.592C404.371 256.728 403.747 256.128 402.871 256.128C401.995 256.128 401.371 256.728 401.371 257.592C401.371 258.456 401.995 259.068 402.871 259.068ZM410.604 259.596C411.096 259.596 411.696 259.368 412.032 259.044L413.148 260.184C412.596 260.76 411.528 261.144 410.616 261.144C408.768 261.144 407.328 259.788 407.328 257.88C407.328 256.008 408.708 254.652 410.52 254.652C412.464 254.652 413.604 256.128 413.604 258.468H409.128C409.332 259.14 409.872 259.596 410.604 259.596ZM410.592 256.2C409.932 256.2 409.38 256.584 409.152 257.208H411.924C411.756 256.596 411.3 256.2 410.592 256.2ZM415.329 263.04L414.441 262.092C415.677 260.82 416.265 259.548 416.265 257.82C416.265 256.08 415.677 254.82 414.441 253.536L415.329 252.6C417.021 253.824 418.017 255.684 418.017 257.82C418.017 259.944 417.021 261.816 415.329 263.04Z" fill="#18181B"/>
<rect x="530" y="147" width="186" height="138" rx="7" fill="#E4E4E7"/>
<path d="M591.91 174.192C588.822 174.192 586.198 171.584 586.198 168.496C586.198 165.408 588.822 162.816 591.91 162.816C593.478 162.816 594.918 163.472 595.958 164.544L594.822 165.632C594.086 164.832 593.046 164.304 591.91 164.304C589.718 164.304 587.862 166.224 587.862 168.496C587.862 170.784 589.718 172.704 591.91 172.704C593.046 172.704 594.086 172.176 594.822 171.376L595.958 172.464C594.918 173.52 593.478 174.192 591.91 174.192ZM601.455 174.192C599.087 174.192 597.087 172.208 597.087 169.856C597.087 167.504 599.087 165.536 601.455 165.536C603.807 165.536 605.791 167.504 605.791 169.856C605.791 172.208 603.807 174.192 601.455 174.192ZM601.455 172.816C602.943 172.816 604.207 171.472 604.207 169.856C604.207 168.256 602.943 166.912 601.455 166.912C599.935 166.912 598.671 168.256 598.671 169.856C598.671 171.472 599.935 172.816 601.455 172.816ZM611.852 165.536C613.676 165.536 614.956 166.864 614.956 168.736V174H613.404V169.008C613.404 167.776 612.62 166.912 611.5 166.912C610.348 166.912 609.356 167.664 609.228 168.64V174H607.644V165.728H609.228V166.928C609.724 166.112 610.732 165.536 611.852 165.536ZM621.094 172.512L621.67 173.6C621.222 173.968 620.614 174.192 620.022 174.192C618.742 174.192 617.846 173.264 617.846 171.936V167.072H616.598V165.728H617.846V163.456H619.398V165.728H621.35V167.072H619.398V171.824C619.398 172.4 619.782 172.816 620.246 172.816C620.598 172.816 620.918 172.688 621.094 172.512ZM626.757 165.536C628.981 165.536 630.213 166.944 630.213 168.992V174H628.661V172.864C628.053 173.728 626.917 174.192 625.909 174.192C624.149 174.192 622.853 173.168 622.853 171.552C622.853 169.904 624.341 168.8 626.165 168.8C626.981 168.8 627.861 168.976 628.661 169.248V168.992C628.661 167.952 628.181 166.848 626.533 166.848C625.717 166.848 624.917 167.168 624.197 167.536L623.621 166.368C624.805 165.776 625.845 165.536 626.757 165.536ZM626.213 172.944C627.237 172.944 628.389 172.432 628.661 171.408V170.304C627.989 170.096 627.221 169.984 626.405 169.984C625.301 169.984 624.373 170.608 624.373 171.504C624.373 172.4 625.173 172.944 626.213 172.944ZM633.288 164.352C632.744 164.352 632.328 163.904 632.328 163.392C632.328 162.896 632.744 162.448 633.288 162.448C633.8 162.448 634.232 162.896 634.232 163.392C634.232 163.904 633.8 164.352 633.288 164.352ZM632.488 174V165.728H634.072V174H632.488ZM640.571 165.536C642.395 165.536 643.675 166.864 643.675 168.736V174H642.123V169.008C642.123 167.776 641.339 166.912 640.219 166.912C639.067 166.912 638.075 167.664 637.947 168.64V174H636.363V165.728H637.947V166.928C638.443 166.112 639.451 165.536 640.571 165.536ZM649.733 172.784C650.597 172.784 651.605 172.4 652.101 171.888L653.093 172.912C652.357 173.696 650.917 174.192 649.749 174.192C647.445 174.192 645.493 172.384 645.493 169.84C645.493 167.36 647.333 165.536 649.621 165.536C652.149 165.536 653.605 167.456 653.605 170.416H647.093C647.301 171.792 648.309 172.784 649.733 172.784ZM649.685 166.944C648.405 166.944 647.365 167.808 647.109 169.152H652.069C651.893 167.872 651.109 166.944 649.685 166.944ZM657.105 167.312C657.633 166.224 658.753 165.536 660.177 165.536V166.912C658.465 166.912 657.249 167.856 657.105 169.296V174H655.521V165.728H657.105V167.312Z" fill="#18181B"/>
<path d="M538 200C538 196.134 541.134 193 545 193H701C704.866 193 708 196.134 708 200V235H538V200Z" fill="white"/>
<path d="M585.069 203.536C587.293 203.536 588.525 204.944 588.525 206.992V212H586.973V210.864C586.365 211.728 585.229 212.192 584.221 212.192C582.461 212.192 581.165 211.168 581.165 209.552C581.165 207.904 582.653 206.8 584.477 206.8C585.293 206.8 586.173 206.976 586.973 207.248V206.992C586.973 205.952 586.493 204.848 584.845 204.848C584.029 204.848 583.229 205.168 582.509 205.536L581.933 204.368C583.117 203.776 584.157 203.536 585.069 203.536ZM584.525 210.944C585.549 210.944 586.701 210.432 586.973 209.408V208.304C586.301 208.096 585.533 207.984 584.717 207.984C583.613 207.984 582.685 208.608 582.685 209.504C582.685 210.4 583.485 210.944 584.525 210.944ZM595.408 203.536C597.584 203.536 599.216 205.328 599.216 207.856C599.216 210.4 597.584 212.192 595.408 212.192C594.128 212.192 593.104 211.584 592.464 210.56V214.752H590.896V203.728H592.464V205.152C593.104 204.144 594.128 203.536 595.408 203.536ZM595.024 210.816C596.544 210.816 597.616 209.584 597.616 207.856C597.616 206.128 596.544 204.912 595.024 204.912C593.536 204.912 592.464 206.128 592.464 207.856C592.464 209.584 593.536 210.816 595.024 210.816ZM605.721 203.536C607.897 203.536 609.529 205.328 609.529 207.856C609.529 210.4 607.897 212.192 605.721 212.192C604.441 212.192 603.417 211.584 602.777 210.56V214.752H601.209V203.728H602.777V205.152C603.417 204.144 604.441 203.536 605.721 203.536ZM605.337 210.816C606.857 210.816 607.929 209.584 607.929 207.856C607.929 206.128 606.857 204.912 605.337 204.912C603.849 204.912 602.777 206.128 602.777 207.856C602.777 209.584 603.849 210.816 605.337 210.816ZM611.441 212V200.816H613.009V212H611.441ZM616.1 202.352C615.556 202.352 615.14 201.904 615.14 201.392C615.14 200.896 615.556 200.448 616.1 200.448C616.612 200.448 617.044 200.896 617.044 201.392C617.044 201.904 616.612 202.352 616.1 202.352ZM615.3 212V203.728H616.884V212H615.3ZM623.079 212.192C620.727 212.192 618.727 210.208 618.727 207.856C618.727 205.504 620.727 203.536 623.095 203.536C624.279 203.536 625.351 204.032 626.135 204.816L625.063 205.808C624.567 205.248 623.847 204.912 623.079 204.912C621.575 204.912 620.327 206.256 620.327 207.856C620.327 209.472 621.575 210.816 623.095 210.816C623.863 210.816 624.599 210.464 625.111 209.888L626.183 210.864C625.383 211.68 624.311 212.192 623.079 212.192ZM631.351 203.536C633.575 203.536 634.807 204.944 634.807 206.992V212H633.255V210.864C632.647 211.728 631.511 212.192 630.503 212.192C628.743 212.192 627.447 211.168 627.447 209.552C627.447 207.904 628.935 206.8 630.759 206.8C631.575 206.8 632.455 206.976 633.255 207.248V206.992C633.255 205.952 632.775 204.848 631.127 204.848C630.311 204.848 629.511 205.168 628.791 205.536L628.215 204.368C629.399 203.776 630.439 203.536 631.351 203.536ZM630.807 210.944C631.831 210.944 632.983 210.432 633.255 209.408V208.304C632.583 208.096 631.815 207.984 630.999 207.984C629.895 207.984 628.967 208.608 628.967 209.504C628.967 210.4 629.767 210.944 630.807 210.944ZM640.969 210.512L641.545 211.6C641.097 211.968 640.489 212.192 639.897 212.192C638.617 212.192 637.721 211.264 637.721 209.936V205.072H636.473V203.728H637.721V201.456H639.273V203.728H641.225V205.072H639.273V209.824C639.273 210.4 639.657 210.816 640.121 210.816C640.473 210.816 640.793 210.688 640.969 210.512ZM643.944 202.352C643.4 202.352 642.984 201.904 642.984 201.392C642.984 200.896 643.4 200.448 643.944 200.448C644.456 200.448 644.888 200.896 644.888 201.392C644.888 201.904 644.456 202.352 643.944 202.352ZM643.144 212V203.728H644.728V212H643.144ZM650.939 212.192C648.571 212.192 646.571 210.208 646.571 207.856C646.571 205.504 648.571 203.536 650.939 203.536C653.291 203.536 655.275 205.504 655.275 207.856C655.275 210.208 653.291 212.192 650.939 212.192ZM650.939 210.816C652.427 210.816 653.691 209.472 653.691 207.856C653.691 206.256 652.427 204.912 650.939 204.912C649.419 204.912 648.155 206.256 648.155 207.856C648.155 209.472 649.419 210.816 650.939 210.816ZM661.337 203.536C663.161 203.536 664.441 204.864 664.441 206.736V212H662.889V207.008C662.889 205.776 662.105 204.912 660.985 204.912C659.833 204.912 658.841 205.664 658.713 206.64V212H657.129V203.728H658.713V204.928C659.209 204.112 660.217 203.536 661.337 203.536ZM585.374 224.784C586.238 224.784 587.246 224.4 587.742 223.888L588.734 224.912C587.998 225.696 586.558 226.192 585.39 226.192C583.086 226.192 581.134 224.384 581.134 221.84C581.134 219.36 582.974 217.536 585.262 217.536C587.79 217.536 589.246 219.456 589.246 222.416H582.734C582.942 223.792 583.95 224.784 585.374 224.784ZM585.326 218.944C584.046 218.944 583.006 219.808 582.75 221.152H587.71C587.534 219.872 586.75 218.944 585.326 218.944ZM598.41 226H596.634L594.378 222.96L592.106 226H590.346L593.498 221.776L590.474 217.728H592.266L594.378 220.576L596.506 217.728H598.266L595.258 221.76L598.41 226ZM603.764 224.784C604.628 224.784 605.636 224.4 606.132 223.888L607.124 224.912C606.388 225.696 604.948 226.192 603.78 226.192C601.476 226.192 599.524 224.384 599.524 221.84C599.524 219.36 601.364 217.536 603.652 217.536C606.18 217.536 607.636 219.456 607.636 222.416H601.124C601.332 223.792 602.34 224.784 603.764 224.784ZM603.716 218.944C602.436 218.944 601.396 219.808 601.14 221.152H606.1C605.924 219.872 605.14 218.944 603.716 218.944ZM613.376 226.192C611.024 226.192 609.024 224.208 609.024 221.856C609.024 219.504 611.024 217.536 613.392 217.536C614.576 217.536 615.648 218.032 616.432 218.816L615.36 219.808C614.864 219.248 614.144 218.912 613.376 218.912C611.872 218.912 610.624 220.256 610.624 221.856C610.624 223.472 611.872 224.816 613.392 224.816C614.16 224.816 614.896 224.464 615.408 223.888L616.48 224.864C615.68 225.68 614.608 226.192 613.376 226.192ZM623.871 217.728H625.455V226H623.871V224.8C623.375 225.616 622.367 226.192 621.247 226.192C619.423 226.192 618.143 224.864 618.143 222.992V217.728H619.695V222.72C619.695 223.952 620.479 224.816 621.599 224.816C622.751 224.816 623.743 224.064 623.871 223.088V217.728ZM631.626 224.512L632.202 225.6C631.754 225.968 631.146 226.192 630.554 226.192C629.274 226.192 628.378 225.264 628.378 223.936V219.072H627.13V217.728H628.378V215.456H629.93V217.728H631.882V219.072H629.93V223.824C629.93 224.4 630.314 224.816 630.778 224.816C631.13 224.816 631.45 224.688 631.626 224.512ZM637.288 217.536C639.512 217.536 640.744 218.944 640.744 220.992V226H639.192V224.864C638.584 225.728 637.448 226.192 636.44 226.192C634.68 226.192 633.384 225.168 633.384 223.552C633.384 221.904 634.872 220.8 636.696 220.8C637.512 220.8 638.392 220.976 639.192 221.248V220.992C639.192 219.952 638.712 218.848 637.064 218.848C636.248 218.848 635.448 219.168 634.728 219.536L634.152 218.368C635.336 217.776 636.376 217.536 637.288 217.536ZM636.744 224.944C637.768 224.944 638.92 224.432 639.192 223.408V222.304C638.52 222.096 637.752 221.984 636.936 221.984C635.832 221.984 634.904 222.608 634.904 223.504C634.904 224.4 635.704 224.944 636.744 224.944ZM647.627 217.536C649.803 217.536 651.435 219.328 651.435 221.856C651.435 224.4 649.803 226.192 647.627 226.192C646.347 226.192 645.323 225.584 644.683 224.56V226H643.115V214.816H644.683V219.152C645.323 218.144 646.347 217.536 647.627 217.536ZM647.243 224.816C648.763 224.816 649.835 223.584 649.835 221.856C649.835 220.128 648.763 218.912 647.243 218.912C645.755 218.912 644.683 220.128 644.683 221.856C644.683 223.584 645.755 224.816 647.243 224.816ZM653.347 226V214.816H654.915V226H653.347ZM661.014 224.784C661.878 224.784 662.886 224.4 663.382 223.888L664.374 224.912C663.638 225.696 662.198 226.192 661.03 226.192C658.726 226.192 656.774 224.384 656.774 221.84C656.774 219.36 658.614 217.536 660.902 217.536C663.43 217.536 664.886 219.456 664.886 222.416H658.374C658.582 223.792 659.59 224.784 661.014 224.784ZM660.966 218.944C659.686 218.944 658.646 219.808 658.39 221.152H663.35C663.174 219.872 662.39 218.944 660.966 218.944Z" fill="#18181B"/>
<path d="M538 200C538 196.134 541.134 193 545 193H701C704.866 193 708 196.134 708 200V235H538V200Z" stroke="#18181B" stroke-width="2"/>
<path d="M538 235H708V270C708 273.866 704.866 277 701 277H545C541.134 277 538 273.866 538 270V235Z" fill="white"/>
<path d="M595.08 254V243.008H596.696L600.552 250.192L604.408 243.008H606.024V254H604.408V246.176L600.552 253.36L596.696 246.176V254H595.08ZM609.358 244.352C608.814 244.352 608.398 243.904 608.398 243.392C608.398 242.896 608.814 242.448 609.358 242.448C609.87 242.448 610.302 242.896 610.302 243.392C610.302 243.904 609.87 244.352 609.358 244.352ZM608.558 254V245.728H610.142V254H608.558ZM616.641 245.536C618.465 245.536 619.745 246.864 619.745 248.736V254H618.193V249.008C618.193 247.776 617.409 246.912 616.289 246.912C615.137 246.912 614.145 247.664 614.017 248.64V254H612.433V245.728H614.017V246.928C614.513 246.112 615.521 245.536 616.641 245.536ZM622.795 244.352C622.251 244.352 621.835 243.904 621.835 243.392C621.835 242.896 622.251 242.448 622.795 242.448C623.307 242.448 623.739 242.896 623.739 243.392C623.739 243.904 623.307 244.352 622.795 244.352ZM621.995 254V245.728H623.579V254H621.995ZM635.119 245.536C636.847 245.536 638.095 246.864 638.095 248.736V254H636.543V248.976C636.543 247.76 635.823 246.912 634.783 246.912C633.599 246.912 632.767 247.696 632.767 248.832V254H631.215V248.976C631.215 247.76 630.495 246.912 629.455 246.912C628.271 246.912 627.439 247.696 627.439 248.832V254H625.855V245.728H627.439V246.88C627.855 246.064 628.719 245.536 629.775 245.536C630.975 245.536 631.951 246.176 632.431 247.2C632.815 246.176 633.871 245.536 635.119 245.536ZM643.843 245.536C646.067 245.536 647.299 246.944 647.299 248.992V254H645.747V252.864C645.139 253.728 644.003 254.192 642.995 254.192C641.235 254.192 639.939 253.168 639.939 251.552C639.939 249.904 641.427 248.8 643.251 248.8C644.067 248.8 644.947 248.976 645.747 249.248V248.992C645.747 247.952 645.267 246.848 643.619 246.848C642.803 246.848 642.003 247.168 641.283 247.536L640.707 246.368C641.891 245.776 642.931 245.536 643.843 245.536ZM643.299 252.944C644.323 252.944 645.475 252.432 645.747 251.408V250.304C645.075 250.096 644.307 249.984 643.491 249.984C642.387 249.984 641.459 250.608 641.459 251.504C641.459 252.4 642.259 252.944 643.299 252.944ZM649.59 254V242.816H651.158V254H649.59ZM559.457 268.192C556.369 268.192 553.745 265.584 553.745 262.496C553.745 259.408 556.369 256.816 559.457 256.816C562.545 256.816 565.137 259.408 565.137 262.496C565.137 265.584 562.545 268.192 559.457 268.192ZM559.457 266.704C561.649 266.704 563.489 264.784 563.489 262.496C563.489 260.224 561.649 258.304 559.457 258.304C557.265 258.304 555.409 260.224 555.409 262.496C555.409 264.784 557.265 266.704 559.457 266.704ZM571.658 259.536C573.834 259.536 575.466 261.328 575.466 263.856C575.466 266.4 573.834 268.192 571.658 268.192C570.378 268.192 569.354 267.584 568.714 266.56V270.752H567.146V259.728H568.714V261.152C569.354 260.144 570.378 259.536 571.658 259.536ZM571.274 266.816C572.794 266.816 573.866 265.584 573.866 263.856C573.866 262.128 572.794 260.912 571.274 260.912C569.786 260.912 568.714 262.128 568.714 263.856C568.714 265.584 569.786 266.816 571.274 266.816ZM581.171 266.784C582.035 266.784 583.043 266.4 583.539 265.888L584.531 266.912C583.795 267.696 582.355 268.192 581.187 268.192C578.883 268.192 576.931 266.384 576.931 263.84C576.931 261.36 578.771 259.536 581.059 259.536C583.587 259.536 585.043 261.456 585.043 264.416H578.531C578.739 265.792 579.747 266.784 581.171 266.784ZM581.123 260.944C579.843 260.944 578.803 261.808 578.547 263.152H583.507C583.331 261.872 582.547 260.944 581.123 260.944ZM588.543 261.312C589.071 260.224 590.191 259.536 591.615 259.536V260.912C589.903 260.912 588.687 261.856 588.543 263.296V268H586.959V259.728H588.543V261.312ZM596.632 259.536C598.856 259.536 600.088 260.944 600.088 262.992V268H598.536V266.864C597.928 267.728 596.792 268.192 595.784 268.192C594.024 268.192 592.728 267.168 592.728 265.552C592.728 263.904 594.216 262.8 596.04 262.8C596.856 262.8 597.736 262.976 598.536 263.248V262.992C598.536 261.952 598.056 260.848 596.408 260.848C595.592 260.848 594.792 261.168 594.072 261.536L593.496 260.368C594.68 259.776 595.72 259.536 596.632 259.536ZM596.088 266.944C597.112 266.944 598.264 266.432 598.536 265.408V264.304C597.864 264.096 597.096 263.984 596.28 263.984C595.176 263.984 594.248 264.608 594.248 265.504C594.248 266.4 595.048 266.944 596.088 266.944ZM606.251 266.512L606.827 267.6C606.379 267.968 605.771 268.192 605.179 268.192C603.899 268.192 603.003 267.264 603.003 265.936V261.072H601.755V259.728H603.003V257.456H604.555V259.728H606.507V261.072H604.555V265.824C604.555 266.4 604.939 266.816 605.403 266.816C605.755 266.816 606.075 266.688 606.251 266.512ZM609.225 258.352C608.681 258.352 608.265 257.904 608.265 257.392C608.265 256.896 608.681 256.448 609.225 256.448C609.737 256.448 610.169 256.896 610.169 257.392C610.169 257.904 609.737 258.352 609.225 258.352ZM608.425 268V259.728H610.009V268H608.425ZM616.508 259.536C618.332 259.536 619.612 260.864 619.612 262.736V268H618.06V263.008C618.06 261.776 617.276 260.912 616.156 260.912C615.004 260.912 614.012 261.664 613.884 262.64V268H612.3V259.728H613.884V260.928C614.38 260.112 615.388 259.536 616.508 259.536ZM628.167 259.728H629.751V267.12C629.751 269.248 628.007 270.752 625.559 270.752C624.167 270.752 622.887 270.288 622.103 269.648L622.727 268.464C623.335 269.04 624.327 269.376 625.319 269.376C627.095 269.376 628.167 268.528 628.167 267.088V265.888C627.511 266.832 626.487 267.392 625.239 267.392C623.063 267.392 621.479 265.76 621.479 263.456C621.479 261.152 623.063 259.536 625.239 259.536C626.487 259.536 627.543 260.128 628.167 261.056V259.728ZM625.639 266.016C627.111 266.016 628.167 264.96 628.167 263.456C628.167 261.968 627.111 260.912 625.639 260.912C624.167 260.912 623.127 261.968 623.127 263.456C623.127 264.96 624.167 266.016 625.639 266.016ZM640.675 268.176C638.835 268.176 637.315 267.536 636.147 266.416L637.123 265.216C638.099 266.144 639.251 266.752 640.739 266.752C642.259 266.752 643.043 265.952 643.043 265.072C643.043 264.032 642.131 263.632 640.291 263.216C638.051 262.688 636.563 262.016 636.563 260.032C636.563 258.192 638.163 256.8 640.371 256.8C642.067 256.8 643.331 257.424 644.387 258.352L643.459 259.568C642.531 258.72 641.427 258.224 640.307 258.224C639.075 258.224 638.211 259.008 638.211 259.888C638.211 260.912 639.155 261.264 640.963 261.696C643.155 262.208 644.675 262.944 644.675 264.912C644.675 266.768 643.267 268.176 640.675 268.176ZM648.069 270.88C647.509 270.88 646.933 270.752 646.501 270.528L646.853 269.312C647.173 269.488 647.541 269.568 647.861 269.568C648.373 269.568 648.725 269.408 648.997 268.928L649.413 268.048L645.861 259.728H647.557L650.213 266.256L652.725 259.728H654.373L650.725 268.752C650.133 270.24 649.253 270.864 648.069 270.88ZM659.136 268.192C657.92 268.192 656.592 267.76 655.6 266.96L656.352 265.824C657.232 266.464 658.176 266.832 659.152 266.832C660.08 266.832 660.72 266.4 660.72 265.76C660.72 264.992 659.872 264.752 658.848 264.464C656.944 263.936 656 263.392 656 262.048C655.984 260.528 657.248 259.536 659.008 259.536C660.08 259.536 661.168 259.904 662.064 260.496L661.36 261.664C660.56 261.168 659.728 260.896 659.008 260.896C658.192 260.896 657.552 261.248 657.552 261.872C657.552 262.512 658.064 262.704 659.456 263.136C660.816 263.536 662.272 263.984 662.272 265.632C662.272 267.2 660.944 268.192 659.136 268.192ZM667.985 266.512L668.561 267.6C668.113 267.968 667.505 268.192 666.913 268.192C665.633 268.192 664.737 267.264 664.737 265.936V261.072H663.489V259.728H664.737V257.456H666.289V259.728H668.241V261.072H666.289V265.824C666.289 266.4 666.673 266.816 667.137 266.816C667.489 266.816 667.809 266.688 667.985 266.512ZM673.967 266.784C674.831 266.784 675.839 266.4 676.335 265.888L677.327 266.912C676.591 267.696 675.151 268.192 673.983 268.192C671.679 268.192 669.727 266.384 669.727 263.84C669.727 261.36 671.567 259.536 673.855 259.536C676.383 259.536 677.839 261.456 677.839 264.416H671.327C671.535 265.792 672.543 266.784 673.967 266.784ZM673.919 260.944C672.639 260.944 671.599 261.808 671.343 263.152H676.303C676.127 261.872 675.343 260.944 673.919 260.944ZM688.923 259.536C690.651 259.536 691.899 260.864 691.899 262.736V268H690.347V262.976C690.347 261.76 689.627 260.912 688.587 260.912C687.403 260.912 686.571 261.696 686.571 262.832V268H685.019V262.976C685.019 261.76 684.299 260.912 683.259 260.912C682.075 260.912 681.243 261.696 681.243 262.832V268H679.659V259.728H681.243V260.88C681.659 260.064 682.523 259.536 683.579 259.536C684.779 259.536 685.755 260.176 686.235 261.2C686.619 260.176 687.675 259.536 688.923 259.536Z" fill="#18181B"/>
<path d="M538 235H708V270C708 273.866 704.866 277 701 277H545C541.134 277 538 273.866 538 270V235Z" stroke="#18181B" stroke-width="2"/>
<rect x="530" y="147" width="186" height="138" rx="7" stroke="#18181B" stroke-width="2"/>
<path d="M445 204C443.895 204 443 204.895 443 206C443 207.105 443.895 208 445 208L445 204ZM445 208L505 208L505 204L445 204L445 208Z" fill="#18181B"/>
<rect x="466" y="195" width="22" height="22" rx="11" fill="white"/>
<path d="M486.336 203.023C486.492 203.375 486.375 203.727 486.102 204L484.422 205.523C484.461 205.836 484.5 206.188 484.5 206.5C484.5 206.852 484.461 207.203 484.422 207.516L486.102 209.039C486.375 209.312 486.492 209.664 486.336 210.016C486.18 210.484 485.984 210.914 485.75 211.344L485.555 211.656C485.281 212.086 485.008 212.516 484.695 212.906C484.461 213.18 484.07 213.258 483.719 213.141L481.57 212.477C481.023 212.867 480.438 213.18 479.852 213.453L479.344 215.68C479.266 216.031 478.992 216.305 478.641 216.383C478.094 216.461 477.547 216.5 476.961 216.5C476.414 216.5 475.867 216.461 475.32 216.383C474.969 216.305 474.695 216.031 474.617 215.68L474.109 213.453C473.523 213.18 472.938 212.867 472.391 212.477L470.242 213.141C469.891 213.258 469.5 213.18 469.266 212.906C468.953 212.516 468.68 212.086 468.406 211.656L468.211 211.344C467.977 210.914 467.781 210.484 467.625 210.016C467.469 209.664 467.586 209.312 467.859 209.039L469.539 207.516C469.5 207.203 469.5 206.852 469.5 206.5C469.5 206.188 469.5 205.836 469.539 205.523L467.859 204C467.586 203.727 467.469 203.375 467.625 203.023C467.781 202.555 467.977 202.125 468.211 201.695L468.406 201.383C468.68 200.953 468.953 200.523 469.266 200.133C469.5 199.859 469.891 199.781 470.242 199.898L472.391 200.562C472.938 200.172 473.523 199.82 474.109 199.586L474.617 197.359C474.695 197.008 474.969 196.734 475.32 196.656C475.867 196.578 476.414 196.5 477 196.5C477.547 196.5 478.094 196.578 478.641 196.656C478.992 196.734 479.266 197.008 479.344 197.359L479.852 199.586C480.438 199.82 481.023 200.172 481.57 200.562L483.719 199.898C484.07 199.781 484.461 199.859 484.695 200.133C485.008 200.523 485.281 200.953 485.555 201.383L485.75 201.695C485.984 202.125 486.18 202.555 486.336 203.023ZM477 209.625C478.719 209.625 480.125 208.258 480.125 206.5C480.125 204.781 478.719 203.375 477 203.375C475.242 203.375 473.875 204.781 473.875 206.5C473.875 208.258 475.242 209.625 477 209.625Z" fill="#15230C"/>
<path d="M514.416 204.525C515.411 205.325 515.411 206.842 514.416 207.642L506.592 213.932C505.283 214.985 503.339 214.053 503.339 212.374L503.339 199.793C503.339 198.114 505.283 197.182 506.592 198.234L514.416 204.525Z" fill="#15230C"/>
<path d="M344 204C342.895 204 342 204.895 342 206C342 207.105 342.895 208 344 208L344 204ZM344 208L404 208L404 204L344 204L344 208Z" fill="#18181B"/>
<rect x="365" y="195" width="22" height="22" rx="11" fill="white"/>
<path d="M385.336 203.023C385.492 203.375 385.375 203.727 385.102 204L383.422 205.523C383.461 205.836 383.5 206.188 383.5 206.5C383.5 206.852 383.461 207.203 383.422 207.516L385.102 209.039C385.375 209.312 385.492 209.664 385.336 210.016C385.18 210.484 384.984 210.914 384.75 211.344L384.555 211.656C384.281 212.086 384.008 212.516 383.695 212.906C383.461 213.18 383.07 213.258 382.719 213.141L380.57 212.477C380.023 212.867 379.438 213.18 378.852 213.453L378.344 215.68C378.266 216.031 377.992 216.305 377.641 216.383C377.094 216.461 376.547 216.5 375.961 216.5C375.414 216.5 374.867 216.461 374.32 216.383C373.969 216.305 373.695 216.031 373.617 215.68L373.109 213.453C372.523 213.18 371.938 212.867 371.391 212.477L369.242 213.141C368.891 213.258 368.5 213.18 368.266 212.906C367.953 212.516 367.68 212.086 367.406 211.656L367.211 211.344C366.977 210.914 366.781 210.484 366.625 210.016C366.469 209.664 366.586 209.312 366.859 209.039L368.539 207.516C368.5 207.203 368.5 206.852 368.5 206.5C368.5 206.188 368.5 205.836 368.539 205.523L366.859 204C366.586 203.727 366.469 203.375 366.625 203.023C366.781 202.555 366.977 202.125 367.211 201.695L367.406 201.383C367.68 200.953 367.953 200.523 368.266 200.133C368.5 199.859 368.891 199.781 369.242 199.898L371.391 200.562C371.938 200.172 372.523 199.82 373.109 199.586L373.617 197.359C373.695 197.008 373.969 196.734 374.32 196.656C374.867 196.578 375.414 196.5 376 196.5C376.547 196.5 377.094 196.578 377.641 196.656C377.992 196.734 378.266 197.008 378.344 197.359L378.852 199.586C379.438 199.82 380.023 200.172 380.57 200.562L382.719 199.898C383.07 199.781 383.461 199.859 383.695 200.133C384.008 200.523 384.281 200.953 384.555 201.383L384.75 201.695C384.984 202.125 385.18 202.555 385.336 203.023ZM376 209.625C377.719 209.625 379.125 208.258 379.125 206.5C379.125 204.781 377.719 203.375 376 203.375C374.242 203.375 372.875 204.781 372.875 206.5C372.875 208.258 374.242 209.625 376 209.625Z" fill="#18181B"/>
<path d="M413.416 204.525C414.411 205.325 414.411 206.842 413.416 207.642L405.592 213.932C404.283 214.985 402.339 214.053 402.339 212.374L402.339 199.793C402.339 198.114 404.283 197.182 405.592 198.234L413.416 204.525Z" fill="#18181B"/>
<path d="M243 204C241.895 204 241 204.895 241 206C241 207.105 241.895 208 243 208L243 204ZM243 208L303 208L303 204L243 204L243 208Z" fill="#18181B"/>
<rect x="264" y="195" width="22" height="22" rx="11" fill="white"/>
<path d="M284.336 203.023C284.492 203.375 284.375 203.727 284.102 204L282.422 205.523C282.461 205.836 282.5 206.188 282.5 206.5C282.5 206.852 282.461 207.203 282.422 207.516L284.102 209.039C284.375 209.312 284.492 209.664 284.336 210.016C284.18 210.484 283.984 210.914 283.75 211.344L283.555 211.656C283.281 212.086 283.008 212.516 282.695 212.906C282.461 213.18 282.07 213.258 281.719 213.141L279.57 212.477C279.023 212.867 278.438 213.18 277.852 213.453L277.344 215.68C277.266 216.031 276.992 216.305 276.641 216.383C276.094 216.461 275.547 216.5 274.961 216.5C274.414 216.5 273.867 216.461 273.32 216.383C272.969 216.305 272.695 216.031 272.617 215.68L272.109 213.453C271.523 213.18 270.938 212.867 270.391 212.477L268.242 213.141C267.891 213.258 267.5 213.18 267.266 212.906C266.953 212.516 266.68 212.086 266.406 211.656L266.211 211.344C265.977 210.914 265.781 210.484 265.625 210.016C265.469 209.664 265.586 209.312 265.859 209.039L267.539 207.516C267.5 207.203 267.5 206.852 267.5 206.5C267.5 206.188 267.5 205.836 267.539 205.523L265.859 204C265.586 203.727 265.469 203.375 265.625 203.023C265.781 202.555 265.977 202.125 266.211 201.695L266.406 201.383C266.68 200.953 266.953 200.523 267.266 200.133C267.5 199.859 267.891 199.781 268.242 199.898L270.391 200.562C270.938 200.172 271.523 199.82 272.109 199.586L272.617 197.359C272.695 197.008 272.969 196.734 273.32 196.656C273.867 196.578 274.414 196.5 275 196.5C275.547 196.5 276.094 196.578 276.641 196.656C276.992 196.734 277.266 197.008 277.344 197.359L277.852 199.586C278.438 199.82 279.023 200.172 279.57 200.562L281.719 199.898C282.07 199.781 282.461 199.859 282.695 200.133C283.008 200.523 283.281 200.953 283.555 201.383L283.75 201.695C283.984 202.125 284.18 202.555 284.336 203.023ZM275 209.625C276.719 209.625 278.125 208.258 278.125 206.5C278.125 204.781 276.719 203.375 275 203.375C273.242 203.375 271.875 204.781 271.875 206.5C271.875 208.258 273.242 209.625 275 209.625Z" fill="#15230C"/>
<path d="M312.416 204.525C313.411 205.325 313.411 206.842 312.416 207.642L304.592 213.932C303.283 214.985 301.339 214.053 301.339 212.374L301.339 199.793C301.339 198.114 303.283 197.182 304.592 198.234L312.416 204.525Z" fill="#15230C"/>
<path d="M142 204C140.895 204 140 204.895 140 206C140 207.105 140.895 208 142 208L142 204ZM142 208L202 208L202 204L142 204L142 208Z" fill="#18181B"/>
<rect x="163" y="195" width="22" height="22" rx="11" fill="white"/>
<path d="M183.336 203.023C183.492 203.375 183.375 203.727 183.102 204L181.422 205.523C181.461 205.836 181.5 206.188 181.5 206.5C181.5 206.852 181.461 207.203 181.422 207.516L183.102 209.039C183.375 209.312 183.492 209.664 183.336 210.016C183.18 210.484 182.984 210.914 182.75 211.344L182.555 211.656C182.281 212.086 182.008 212.516 181.695 212.906C181.461 213.18 181.07 213.258 180.719 213.141L178.57 212.477C178.023 212.867 177.438 213.18 176.852 213.453L176.344 215.68C176.266 216.031 175.992 216.305 175.641 216.383C175.094 216.461 174.547 216.5 173.961 216.5C173.414 216.5 172.867 216.461 172.32 216.383C171.969 216.305 171.695 216.031 171.617 215.68L171.109 213.453C170.523 213.18 169.938 212.867 169.391 212.477L167.242 213.141C166.891 213.258 166.5 213.18 166.266 212.906C165.953 212.516 165.68 212.086 165.406 211.656L165.211 211.344C164.977 210.914 164.781 210.484 164.625 210.016C164.469 209.664 164.586 209.312 164.859 209.039L166.539 207.516C166.5 207.203 166.5 206.852 166.5 206.5C166.5 206.188 166.5 205.836 166.539 205.523L164.859 204C164.586 203.727 164.469 203.375 164.625 203.023C164.781 202.555 164.977 202.125 165.211 201.695L165.406 201.383C165.68 200.953 165.953 200.523 166.266 200.133C166.5 199.859 166.891 199.781 167.242 199.898L169.391 200.562C169.938 200.172 170.523 199.82 171.109 199.586L171.617 197.359C171.695 197.008 171.969 196.734 172.32 196.656C172.867 196.578 173.414 196.5 174 196.5C174.547 196.5 175.094 196.578 175.641 196.656C175.992 196.734 176.266 197.008 176.344 197.359L176.852 199.586C177.438 199.82 178.023 200.172 178.57 200.562L180.719 199.898C181.07 199.781 181.461 199.859 181.695 200.133C182.008 200.523 182.281 200.953 182.555 201.383L182.75 201.695C182.984 202.125 183.18 202.555 183.336 203.023ZM174 209.625C175.719 209.625 177.125 208.258 177.125 206.5C177.125 204.781 175.719 203.375 174 203.375C172.242 203.375 170.875 204.781 170.875 206.5C170.875 208.258 172.242 209.625 174 209.625Z" fill="#18181B"/>
<path d="M211.416 204.525C212.411 205.325 212.411 206.842 211.416 207.642L203.592 213.932C202.283 214.985 200.339 214.053 200.339 212.374L200.339 199.793C200.339 198.114 202.283 197.182 203.592 198.234L211.416 204.525Z" fill="#18181B"/>
<rect x="27" y="170" width="91" height="71" rx="7" fill="white"/>
<path d="M40.8527 206.5L40.2367 204.988H35.9527L35.3367 206.5H33.0267L36.9467 196.882H39.2567L43.1767 206.5H40.8527ZM36.6667 203.238H39.5227L38.0947 199.724L36.6667 203.238ZM48.7204 199.094C50.6524 199.094 52.0524 200.662 52.0524 202.874C52.0524 205.1 50.6524 206.668 48.7204 206.668C47.7124 206.668 46.8724 206.234 46.2984 205.478V208.908H44.2544V199.262H46.2984V200.27C46.8724 199.528 47.7124 199.094 48.7204 199.094ZM48.1324 204.946C49.2664 204.946 50.0644 204.092 50.0644 202.874C50.0644 201.67 49.2664 200.816 48.1324 200.816C47.1384 200.816 46.4104 201.544 46.2984 202.594V203.154C46.4104 204.218 47.1384 204.946 48.1324 204.946ZM57.9626 199.094C59.8946 199.094 61.2946 200.662 61.2946 202.874C61.2946 205.1 59.8946 206.668 57.9626 206.668C56.9546 206.668 56.1146 206.234 55.5406 205.478V208.908H53.4966V199.262H55.5406V200.27C56.1146 199.528 56.9546 199.094 57.9626 199.094ZM57.3746 204.946C58.5086 204.946 59.3066 204.092 59.3066 202.874C59.3066 201.67 58.5086 200.816 57.3746 200.816C56.3806 200.816 55.6526 201.544 55.5406 202.594V203.154C55.6526 204.218 56.3806 204.946 57.3746 204.946ZM62.7388 206.5V196.714H64.7828V206.5H62.7388ZM67.5889 198.268C66.9589 198.268 66.4689 197.764 66.4689 197.148C66.4689 196.574 66.9589 196.056 67.5889 196.056C68.1909 196.056 68.6809 196.574 68.6809 197.148C68.6809 197.764 68.1909 198.268 67.5889 198.268ZM66.5529 206.5V199.262H68.5969V206.5H66.5529ZM73.9234 206.668C71.7814 206.668 69.9754 204.932 69.9754 202.874C69.9754 200.816 71.7954 199.094 73.9374 199.094C75.1134 199.094 76.0794 199.57 76.7794 200.326L75.4214 201.488C75.0574 201.082 74.4834 200.816 73.9234 200.816C72.8594 200.816 71.9634 201.754 71.9634 202.86C71.9634 203.994 72.8594 204.946 73.9374 204.946C74.4974 204.946 75.0854 204.666 75.4634 204.246L76.8214 205.394C76.1074 206.178 75.1274 206.668 73.9234 206.668ZM81.2853 199.094C83.1753 199.094 84.4633 200.284 84.4633 202.174V206.5H82.4893V205.772C81.9713 206.36 81.1453 206.668 80.3613 206.668C78.8213 206.668 77.6313 205.744 77.6313 204.358C77.6313 202.93 78.9613 201.95 80.6413 201.95C81.2293 201.95 81.8733 202.076 82.4893 202.314V202.174C82.4893 201.404 82.0133 200.732 80.8233 200.732C80.1513 200.732 79.5213 200.956 78.9473 201.25L78.2613 199.892C79.2833 199.374 80.2773 199.094 81.2853 199.094ZM80.8233 205.254C81.6073 205.254 82.3493 204.89 82.4893 204.218V203.546C82.0273 203.378 81.4953 203.28 80.9353 203.28C80.1933 203.28 79.6053 203.714 79.6053 204.302C79.6053 204.89 80.1233 205.254 80.8233 205.254ZM89.994 204.708L90.484 206.038C90.064 206.416 89.406 206.668 88.818 206.668C87.544 206.668 86.648 205.758 86.648 204.456V200.914H85.654V199.262H86.648V197.274H88.608V199.262H90.176V200.914H88.608V204.134C88.608 204.61 88.916 204.946 89.294 204.946C89.574 204.946 89.854 204.848 89.994 204.708ZM92.7862 198.268C92.1562 198.268 91.6662 197.764 91.6662 197.148C91.6662 196.574 92.1562 196.056 92.7862 196.056C93.3882 196.056 93.8782 196.574 93.8782 197.148C93.8782 197.764 93.3882 198.268 92.7862 198.268ZM91.7502 206.5V199.262H93.7942V206.5H91.7502ZM99.1346 206.668C96.9786 206.668 95.1726 204.932 95.1726 202.874C95.1726 200.816 96.9786 199.094 99.1346 199.094C101.277 199.094 103.069 200.816 103.069 202.874C103.069 204.932 101.277 206.668 99.1346 206.668ZM99.1346 204.946C100.213 204.946 101.123 203.994 101.123 202.874C101.123 201.754 100.213 200.816 99.1346 200.816C98.0426 200.816 97.1326 201.754 97.1326 202.874C97.1326 203.994 98.0426 204.946 99.1346 204.946ZM108.638 199.094C110.206 199.094 111.326 200.256 111.326 201.894V206.5H109.352V202.328C109.352 201.432 108.792 200.816 107.98 200.816C107.126 200.816 106.468 201.432 106.468 202.216L106.454 202.174V206.5H104.41V199.262H106.454V200.172C106.888 199.514 107.7 199.094 108.638 199.094ZM59.9712 220.668C57.8292 220.668 56.0232 218.932 56.0232 216.874C56.0232 214.816 57.8432 213.094 59.9852 213.094C61.1612 213.094 62.1272 213.57 62.8272 214.326L61.4692 215.488C61.1052 215.082 60.5312 214.816 59.9712 214.816C58.9072 214.816 58.0112 215.754 58.0112 216.86C58.0112 217.994 58.9072 218.946 59.9852 218.946C60.5452 218.946 61.1332 218.666 61.5112 218.246L62.8692 219.394C62.1552 220.178 61.1752 220.668 59.9712 220.668ZM67.5047 220.668C65.3487 220.668 63.5427 218.932 63.5427 216.874C63.5427 214.816 65.3487 213.094 67.5047 213.094C69.6467 213.094 71.4387 214.816 71.4387 216.874C71.4387 218.932 69.6467 220.668 67.5047 220.668ZM67.5047 218.946C68.5827 218.946 69.4927 217.994 69.4927 216.874C69.4927 215.754 68.5827 214.816 67.5047 214.816C66.4127 214.816 65.5027 215.754 65.5027 216.874C65.5027 217.994 66.4127 218.946 67.5047 218.946ZM78.2258 210.714H80.2698V220.5H78.2258V219.464C77.6518 220.22 76.8118 220.668 75.7898 220.668C73.8578 220.668 72.4578 219.1 72.4578 216.874C72.4578 214.662 73.8578 213.094 75.7898 213.094C76.8118 213.094 77.6518 213.542 78.2258 214.298V210.714ZM76.3778 218.946C77.4558 218.946 78.2258 218.092 78.2258 216.874C78.2258 215.67 77.4558 214.816 76.3778 214.816C75.2438 214.816 74.4458 215.67 74.4458 216.874C74.4458 218.092 75.2438 218.946 76.3778 218.946ZM85.48 218.862C86.054 218.862 86.754 218.596 87.146 218.218L88.448 219.548C87.804 220.22 86.558 220.668 85.494 220.668C83.338 220.668 81.658 219.086 81.658 216.86C81.658 214.676 83.268 213.094 85.382 213.094C87.65 213.094 88.98 214.816 88.98 217.546H83.758C83.996 218.33 84.626 218.862 85.48 218.862ZM85.466 214.9C84.696 214.9 84.052 215.348 83.786 216.076H87.02C86.824 215.362 86.292 214.9 85.466 214.9Z" fill="#18181B"/>
<rect x="27" y="170" width="91" height="71" rx="7" stroke="#18181B" stroke-width="2"/>
<circle cx="72" cy="169" r="14" fill="white"/>
<path d="M92.457 167.278L84.186 153.22C83.4657 152 81.7047 151 80.2696 151H63.7276C62.2898 151 60.5288 152 59.8085 153.22L51.5402 167.278C50.8199 168.499 50.8199 170.496 51.5402 171.719L59.8112 185.78C60.5288 187 62.2925 188 63.7304 188H80.2724C81.7075 188 83.4712 187 84.1888 185.78L92.4598 171.719C93.1801 170.499 93.1801 168.501 92.4598 167.278H92.457ZM70.213 158.774C70.213 157.849 70.9771 157.099 71.9165 157.099C72.8559 157.099 73.6227 157.849 73.6227 158.774V168.773C73.6227 169.698 72.8586 170.448 71.9165 170.448C70.9743 170.448 70.213 169.698 70.213 168.773V158.774ZM71.9165 180.119C65.5407 180.119 60.3562 175.028 60.3562 168.773C60.3562 165.203 62.1008 161.798 65.023 159.666C65.694 159.174 66.6444 159.311 67.1456 159.972C67.644 160.631 67.5044 161.564 66.8334 162.056C64.6451 163.652 63.3908 166.104 63.3908 168.776C63.3908 173.391 67.2168 177.146 71.9192 177.146C76.6216 177.146 80.4477 173.391 80.4477 168.776C80.4477 166.128 79.1495 163.609 76.9749 162.034C76.3012 161.548 76.1588 160.615 76.6545 159.954C77.1529 159.292 78.1005 159.153 78.7743 159.639C81.7212 161.771 83.4794 165.187 83.4794 168.776C83.4794 175.033 78.2923 180.122 71.9192 180.122L71.9165 180.119Z" fill="#4C7C2C"/>
</g>
<defs>
<clipPath id="clip0_420_189">
<rect width="743" height="431" fill="white"/>
</clipPath>
</defs>
</svg>
