<svg width="743" height="431" viewBox="0 0 743 431" fill="none" xmlns="http://www.w3.org/2000/svg">
<g clip-path="url(#clip0_420_189)">
<rect width="743" height="431" fill="#F4F4F5"/>
<path d="M610 476L309.559 -13H0V476H610Z" fill="white"/>
<circle cx="8.64224" cy="220.949" r="2.94888" fill="#F4F4F5"/>
<circle cx="8.64224" cy="235.847" r="2.94888" fill="#F4F4F5"/>
<circle cx="8.64224" cy="250.744" r="2.94888" fill="#F4F4F5"/>
<circle cx="8.64224" cy="265.642" r="2.94888" fill="#F4F4F5"/>
<circle cx="8.64224" cy="280.54" r="2.94888" fill="#F4F4F5"/>
<circle cx="8.64224" cy="295.438" r="2.94888" fill="#F4F4F5"/>
<circle cx="8.64224" cy="310.335" r="2.94888" fill="#F4F4F5"/>
<circle cx="8.64224" cy="325.233" r="2.94888" fill="#F4F4F5"/>
<circle cx="8.64224" cy="340.131" r="2.94888" fill="#F4F4F5"/>
<circle cx="8.64224" cy="355.029" r="2.94888" fill="#F4F4F5"/>
<circle cx="8.64224" cy="369.927" r="2.94888" fill="#F4F4F5"/>
<circle cx="8.64224" cy="384.824" r="2.94888" fill="#F4F4F5"/>
<circle cx="23.5399" cy="220.949" r="2.94888" fill="#F4F4F5"/>
<circle cx="23.5399" cy="235.847" r="2.94888" fill="#F4F4F5"/>
<circle cx="23.5399" cy="250.744" r="2.94888" fill="#F4F4F5"/>
<circle cx="23.5399" cy="265.642" r="2.94888" fill="#F4F4F5"/>
<circle cx="23.5399" cy="280.54" r="2.94888" fill="#F4F4F5"/>
<circle cx="23.5399" cy="295.438" r="2.94888" fill="#F4F4F5"/>
<circle cx="23.5399" cy="310.335" r="2.94888" fill="#F4F4F5"/>
<circle cx="23.5399" cy="325.233" r="2.94888" fill="#F4F4F5"/>
<circle cx="23.5399" cy="340.131" r="2.94888" fill="#F4F4F5"/>
<circle cx="23.5399" cy="355.029" r="2.94888" fill="#F4F4F5"/>
<circle cx="23.5399" cy="369.927" r="2.94888" fill="#F4F4F5"/>
<circle cx="23.5399" cy="384.824" r="2.94888" fill="#F4F4F5"/>
<circle cx="38.4377" cy="220.949" r="2.94888" fill="#F4F4F5"/>
<circle cx="38.4377" cy="235.847" r="2.94888" fill="#F4F4F5"/>
<circle cx="38.4377" cy="250.744" r="2.94888" fill="#F4F4F5"/>
<circle cx="38.4377" cy="265.642" r="2.94888" fill="#F4F4F5"/>
<circle cx="38.4377" cy="280.54" r="2.94888" fill="#F4F4F5"/>
<circle cx="38.4377" cy="295.438" r="2.94888" fill="#F4F4F5"/>
<circle cx="38.4377" cy="310.335" r="2.94888" fill="#F4F4F5"/>
<circle cx="38.4377" cy="325.233" r="2.94888" fill="#F4F4F5"/>
<circle cx="38.4377" cy="340.131" r="2.94888" fill="#F4F4F5"/>
<circle cx="38.4377" cy="355.029" r="2.94888" fill="#F4F4F5"/>
<circle cx="38.4377" cy="369.927" r="2.94888" fill="#F4F4F5"/>
<circle cx="38.4377" cy="384.824" r="2.94888" fill="#F4F4F5"/>
<circle cx="53.3355" cy="220.949" r="2.94888" fill="#F4F4F5"/>
<circle cx="53.3355" cy="235.847" r="2.94888" fill="#F4F4F5"/>
<circle cx="53.3355" cy="250.744" r="2.94888" fill="#F4F4F5"/>
<circle cx="53.3355" cy="265.642" r="2.94888" fill="#F4F4F5"/>
<circle cx="53.3355" cy="280.54" r="2.94888" fill="#F4F4F5"/>
<circle cx="53.3355" cy="295.438" r="2.94888" fill="#F4F4F5"/>
<circle cx="53.3355" cy="310.335" r="2.94888" fill="#F4F4F5"/>
<circle cx="53.3355" cy="325.233" r="2.94888" fill="#F4F4F5"/>
<circle cx="53.3355" cy="340.131" r="2.94888" fill="#F4F4F5"/>
<circle cx="53.3355" cy="355.029" r="2.94888" fill="#F4F4F5"/>
<circle cx="53.3355" cy="369.927" r="2.94888" fill="#F4F4F5"/>
<circle cx="53.3355" cy="384.824" r="2.94888" fill="#F4F4F5"/>
<circle cx="68.2332" cy="220.949" r="2.94888" fill="#F4F4F5"/>
<circle cx="68.2332" cy="235.847" r="2.94888" fill="#F4F4F5"/>
<circle cx="68.2332" cy="250.744" r="2.94888" fill="#F4F4F5"/>
<circle cx="68.2332" cy="265.642" r="2.94888" fill="#F4F4F5"/>
<circle cx="68.2332" cy="280.54" r="2.94888" fill="#F4F4F5"/>
<circle cx="68.2332" cy="295.438" r="2.94888" fill="#F4F4F5"/>
<circle cx="68.2332" cy="310.335" r="2.94888" fill="#F4F4F5"/>
<circle cx="68.2332" cy="325.233" r="2.94888" fill="#F4F4F5"/>
<circle cx="68.2332" cy="340.131" r="2.94888" fill="#F4F4F5"/>
<circle cx="68.2332" cy="355.029" r="2.94888" fill="#F4F4F5"/>
<circle cx="68.2332" cy="369.927" r="2.94888" fill="#F4F4F5"/>
<circle cx="68.2332" cy="384.824" r="2.94888" fill="#F4F4F5"/>
<circle cx="83.131" cy="220.949" r="2.94888" fill="#F4F4F5"/>
<circle cx="83.131" cy="235.847" r="2.94888" fill="#F4F4F5"/>
<circle cx="83.131" cy="250.744" r="2.94888" fill="#F4F4F5"/>
<circle cx="83.131" cy="265.642" r="2.94888" fill="#F4F4F5"/>
<circle cx="83.131" cy="280.54" r="2.94888" fill="#F4F4F5"/>
<circle cx="83.131" cy="295.438" r="2.94888" fill="#F4F4F5"/>
<circle cx="83.131" cy="310.335" r="2.94888" fill="#F4F4F5"/>
<circle cx="83.131" cy="325.233" r="2.94888" fill="#F4F4F5"/>
<circle cx="83.131" cy="340.131" r="2.94888" fill="#F4F4F5"/>
<circle cx="83.131" cy="355.029" r="2.94888" fill="#F4F4F5"/>
<circle cx="83.131" cy="369.927" r="2.94888" fill="#F4F4F5"/>
<circle cx="83.131" cy="384.824" r="2.94888" fill="#F4F4F5"/>
<circle cx="98.0288" cy="220.949" r="2.94888" fill="#F4F4F5"/>
<circle cx="98.0288" cy="235.847" r="2.94888" fill="#F4F4F5"/>
<circle cx="98.0288" cy="250.744" r="2.94888" fill="#F4F4F5"/>
<circle cx="98.0288" cy="265.642" r="2.94888" fill="#F4F4F5"/>
<circle cx="98.0288" cy="280.54" r="2.94888" fill="#F4F4F5"/>
<circle cx="98.0288" cy="295.438" r="2.94888" fill="#F4F4F5"/>
<circle cx="98.0288" cy="310.335" r="2.94888" fill="#F4F4F5"/>
<circle cx="98.0288" cy="325.233" r="2.94888" fill="#F4F4F5"/>
<circle cx="98.0288" cy="340.131" r="2.94888" fill="#F4F4F5"/>
<circle cx="98.0288" cy="355.029" r="2.94888" fill="#F4F4F5"/>
<circle cx="98.0288" cy="369.927" r="2.94888" fill="#F4F4F5"/>
<circle cx="98.0288" cy="384.824" r="2.94888" fill="#F4F4F5"/>
<circle cx="112.927" cy="220.949" r="2.94888" fill="#F4F4F5"/>
<circle cx="112.927" cy="235.847" r="2.94888" fill="#F4F4F5"/>
<circle cx="112.927" cy="250.744" r="2.94888" fill="#F4F4F5"/>
<circle cx="112.927" cy="265.642" r="2.94888" fill="#F4F4F5"/>
<circle cx="112.927" cy="280.54" r="2.94888" fill="#F4F4F5"/>
<circle cx="112.927" cy="295.438" r="2.94888" fill="#F4F4F5"/>
<circle cx="112.927" cy="310.335" r="2.94888" fill="#F4F4F5"/>
<circle cx="112.927" cy="325.233" r="2.94888" fill="#F4F4F5"/>
<circle cx="112.927" cy="340.131" r="2.94888" fill="#F4F4F5"/>
<circle cx="112.927" cy="355.029" r="2.94888" fill="#F4F4F5"/>
<circle cx="112.927" cy="369.927" r="2.94888" fill="#F4F4F5"/>
<circle cx="112.927" cy="384.824" r="2.94888" fill="#F4F4F5"/>
<circle cx="127.824" cy="220.949" r="2.94888" fill="#F4F4F5"/>
<circle cx="127.824" cy="235.847" r="2.94888" fill="#F4F4F5"/>
<circle cx="127.824" cy="250.744" r="2.94888" fill="#F4F4F5"/>
<circle cx="127.824" cy="265.642" r="2.94888" fill="#F4F4F5"/>
<circle cx="127.824" cy="280.54" r="2.94888" fill="#F4F4F5"/>
<circle cx="127.824" cy="295.438" r="2.94888" fill="#F4F4F5"/>
<circle cx="127.824" cy="310.335" r="2.94888" fill="#F4F4F5"/>
<circle cx="127.824" cy="325.233" r="2.94888" fill="#F4F4F5"/>
<circle cx="127.824" cy="340.131" r="2.94888" fill="#F4F4F5"/>
<circle cx="127.824" cy="355.029" r="2.94888" fill="#F4F4F5"/>
<circle cx="127.824" cy="369.927" r="2.94888" fill="#F4F4F5"/>
<circle cx="127.824" cy="384.824" r="2.94888" fill="#F4F4F5"/>
<path d="M255.194 253.144C252.878 253.144 250.91 251.188 250.91 248.872C250.91 246.556 252.878 244.612 255.194 244.612C256.37 244.612 257.45 245.104 258.23 245.908L257.378 246.724C256.826 246.124 256.046 245.728 255.194 245.728C253.55 245.728 252.158 247.168 252.158 248.872C252.158 250.588 253.55 252.028 255.194 252.028C256.046 252.028 256.826 251.632 257.378 251.032L258.23 251.848C257.45 252.64 256.37 253.144 255.194 253.144ZM262.353 253.144C260.577 253.144 259.077 251.656 259.077 249.892C259.077 248.128 260.577 246.652 262.353 246.652C264.117 246.652 265.605 248.128 265.605 249.892C265.605 251.656 264.117 253.144 262.353 253.144ZM262.353 252.112C263.469 252.112 264.417 251.104 264.417 249.892C264.417 248.692 263.469 247.684 262.353 247.684C261.213 247.684 260.265 248.692 260.265 249.892C260.265 251.104 261.213 252.112 262.353 252.112ZM273.931 246.652C275.227 246.652 276.163 247.648 276.163 249.052V253H274.999V249.232C274.999 248.32 274.459 247.684 273.679 247.684C272.791 247.684 272.167 248.272 272.167 249.124V253H271.003V249.232C271.003 248.32 270.463 247.684 269.683 247.684C268.795 247.684 268.171 248.272 268.171 249.124V253H266.983V246.796H268.171V247.66C268.483 247.048 269.131 246.652 269.923 246.652C270.823 246.652 271.555 247.132 271.915 247.9C272.203 247.132 272.995 246.652 273.931 246.652ZM281.314 246.652C282.946 246.652 284.17 247.996 284.17 249.892C284.17 251.8 282.946 253.144 281.314 253.144C280.354 253.144 279.586 252.688 279.106 251.92V255.064H277.93V246.796H279.106V247.864C279.586 247.108 280.354 246.652 281.314 246.652ZM281.026 252.112C282.166 252.112 282.97 251.188 282.97 249.892C282.97 248.596 282.166 247.684 281.026 247.684C279.91 247.684 279.106 248.596 279.106 249.892C279.106 251.188 279.91 252.112 281.026 252.112ZM286.192 245.764C285.784 245.764 285.472 245.428 285.472 245.044C285.472 244.672 285.784 244.336 286.192 244.336C286.576 244.336 286.9 244.672 286.9 245.044C286.9 245.428 286.576 245.764 286.192 245.764ZM285.592 253V246.796H286.78V253H285.592ZM288.499 253V244.612H289.675V253H288.499ZM294.249 252.088C294.897 252.088 295.653 251.8 296.025 251.416L296.769 252.184C296.217 252.772 295.137 253.144 294.261 253.144C292.533 253.144 291.069 251.788 291.069 249.88C291.069 248.02 292.449 246.652 294.165 246.652C296.061 246.652 297.153 248.092 297.153 250.312H292.269C292.425 251.344 293.181 252.088 294.249 252.088ZM294.213 247.708C293.253 247.708 292.473 248.356 292.281 249.364H296.001C295.869 248.404 295.281 247.708 294.213 247.708ZM258.01 269.04C256.378 267.732 255.442 265.908 255.442 263.82C255.442 261.72 256.378 259.908 258.01 258.6L258.634 259.248C257.338 260.568 256.666 261.924 256.666 263.82C256.666 265.704 257.338 267.072 258.634 268.38L258.01 269.04ZM260.593 259.764C260.185 259.764 259.873 259.428 259.873 259.044C259.873 258.672 260.185 258.336 260.593 258.336C260.977 258.336 261.301 258.672 261.301 259.044C261.301 259.428 260.977 259.764 260.593 259.764ZM259.525 269.136C259.153 269.136 258.721 269.04 258.469 268.92L258.625 267.996C258.805 268.068 259.105 268.116 259.345 268.116C259.729 268.116 259.993 267.804 259.993 267.372V260.796H261.181V267.432C261.181 268.428 260.497 269.136 259.525 269.136ZM265.503 260.652C267.171 260.652 268.095 261.708 268.095 263.244V267H266.931V266.148C266.475 266.796 265.623 267.144 264.867 267.144C263.547 267.144 262.575 266.376 262.575 265.164C262.575 263.928 263.691 263.1 265.059 263.1C265.671 263.1 266.331 263.232 266.931 263.436V263.244C266.931 262.464 266.571 261.636 265.335 261.636C264.723 261.636 264.123 261.876 263.583 262.152L263.151 261.276C264.039 260.832 264.819 260.652 265.503 260.652ZM265.095 266.208C265.863 266.208 266.727 265.824 266.931 265.056V264.228C266.427 264.072 265.851 263.988 265.239 263.988C264.411 263.988 263.715 264.456 263.715 265.128C263.715 265.8 264.315 266.208 265.095 266.208ZM271.877 267L269.213 260.796H270.497L272.429 265.62L274.325 260.796H275.609L272.993 267H271.877ZM278.886 260.652C280.554 260.652 281.478 261.708 281.478 263.244V267H280.314V266.148C279.858 266.796 279.006 267.144 278.25 267.144C276.93 267.144 275.958 266.376 275.958 265.164C275.958 263.928 277.074 263.1 278.442 263.1C279.054 263.1 279.714 263.232 280.314 263.436V263.244C280.314 262.464 279.954 261.636 278.718 261.636C278.106 261.636 277.506 261.876 276.966 262.152L276.534 261.276C277.422 260.832 278.202 260.652 278.886 260.652ZM278.478 266.208C279.246 266.208 280.11 265.824 280.314 265.056V264.228C279.81 264.072 279.234 263.988 278.622 263.988C277.794 263.988 277.098 264.456 277.098 265.128C277.098 265.8 277.698 266.208 278.478 266.208ZM286.124 267.144C284.36 267.144 282.86 265.656 282.86 263.892C282.86 262.128 284.36 260.652 286.136 260.652C287.024 260.652 287.828 261.024 288.416 261.612L287.612 262.356C287.24 261.936 286.7 261.684 286.124 261.684C284.996 261.684 284.06 262.692 284.06 263.892C284.06 265.104 284.996 266.112 286.136 266.112C286.712 266.112 287.264 265.848 287.648 265.416L288.452 266.148C287.852 266.76 287.048 267.144 286.124 267.144ZM289.987 269.04L289.363 268.38C290.647 267.072 291.331 265.704 291.331 263.82C291.331 261.924 290.647 260.568 289.363 259.248L289.987 258.6C291.619 259.908 292.555 261.72 292.555 263.82C292.555 265.908 291.619 267.732 289.987 269.04Z" fill="#18181B"/>
<path d="M158.018 253.144C156.59 253.144 155.318 252.664 154.358 251.776L155.378 250.564C156.158 251.236 157.046 251.644 158.09 251.644C158.978 251.644 159.434 251.236 159.434 250.72C159.434 250.132 158.954 249.952 157.694 249.664C155.954 249.268 154.718 248.776 154.718 247.18C154.718 245.656 155.966 244.612 157.766 244.612C159.11 244.612 160.154 245.032 160.994 245.752L160.07 247.024C159.338 246.436 158.51 246.112 157.718 246.112C156.962 246.112 156.506 246.508 156.506 247C156.506 247.6 156.998 247.792 158.27 248.08C160.046 248.476 161.222 249.004 161.222 250.528C161.222 252.1 160.034 253.144 158.018 253.144ZM166.272 246.652C167.928 246.652 169.128 247.996 169.128 249.892C169.128 251.8 167.928 253.144 166.272 253.144C165.408 253.144 164.688 252.772 164.196 252.124V255.064H162.444V246.796H164.196V247.66C164.688 247.024 165.408 246.652 166.272 246.652ZM165.768 251.668C166.74 251.668 167.424 250.936 167.424 249.892C167.424 248.86 166.74 248.128 165.768 248.128C164.916 248.128 164.292 248.752 164.196 249.652V250.132C164.292 251.044 164.916 251.668 165.768 251.668ZM172.118 247.948C172.526 247.144 173.294 246.652 174.242 246.652V248.128C172.946 248.128 172.118 248.872 172.118 250.036V253H170.366V246.796H172.118V247.948ZM176.128 245.944C175.588 245.944 175.168 245.512 175.168 244.984C175.168 244.492 175.588 244.048 176.128 244.048C176.644 244.048 177.064 244.492 177.064 244.984C177.064 245.512 176.644 245.944 176.128 245.944ZM175.24 253V246.796H176.992V253H175.24ZM182.11 246.652C183.454 246.652 184.414 247.648 184.414 249.052V253H182.722V249.424C182.722 248.656 182.242 248.128 181.546 248.128C180.814 248.128 180.25 248.656 180.25 249.328L180.238 249.292V253H178.486V246.796H180.238V247.576C180.61 247.012 181.306 246.652 182.11 246.652ZM190.381 246.796H192.145V252.34C192.145 253.936 190.765 255.064 188.809 255.064C187.717 255.064 186.685 254.716 186.073 254.236L186.685 253C187.093 253.36 187.813 253.588 188.533 253.588C189.661 253.588 190.381 253.072 190.381 252.268V251.584C189.889 252.184 189.145 252.544 188.329 252.544C186.769 252.544 185.581 251.32 185.581 249.592C185.581 247.864 186.769 246.652 188.329 246.652C189.169 246.652 189.961 247.048 190.381 247.636V246.796ZM188.881 251.068C189.757 251.068 190.381 250.456 190.381 249.592C190.381 248.728 189.757 248.128 188.881 248.128C188.005 248.128 187.381 248.728 187.381 249.592C187.381 250.456 188.005 251.068 188.881 251.068ZM136.126 267L135.598 265.704H131.926L131.398 267H129.418L132.778 258.756H134.758L138.118 267H136.126ZM132.538 264.204H134.986L133.762 261.192L132.538 264.204ZM142.629 260.652C143.973 260.652 144.933 261.648 144.933 263.052V267H143.241V263.424C143.241 262.656 142.761 262.128 142.065 262.128C141.333 262.128 140.769 262.656 140.769 263.328V267H139.017V258.612H140.769V261.552C141.153 261.012 141.837 260.652 142.629 260.652ZM149.341 265.596C149.833 265.596 150.433 265.368 150.769 265.044L151.885 266.184C151.333 266.76 150.265 267.144 149.353 267.144C147.505 267.144 146.065 265.788 146.065 263.88C146.065 262.008 147.445 260.652 149.257 260.652C151.201 260.652 152.341 262.128 152.341 264.468H147.865C148.069 265.14 148.609 265.596 149.341 265.596ZM149.329 262.2C148.669 262.2 148.117 262.584 147.889 263.208H150.661C150.493 262.596 150.037 262.2 149.329 262.2ZM156.298 260.652C157.918 260.652 159.022 261.672 159.022 263.292V267H157.33V266.376C156.886 266.88 156.178 267.144 155.506 267.144C154.186 267.144 153.166 266.352 153.166 265.164C153.166 263.94 154.306 263.1 155.746 263.1C156.25 263.1 156.802 263.208 157.33 263.412V263.292C157.33 262.632 156.922 262.056 155.902 262.056C155.326 262.056 154.786 262.248 154.294 262.5L153.706 261.336C154.582 260.892 155.434 260.652 156.298 260.652ZM155.902 265.932C156.574 265.932 157.21 265.62 157.33 265.044V264.468C156.934 264.324 156.478 264.24 155.998 264.24C155.362 264.24 154.858 264.612 154.858 265.116C154.858 265.62 155.302 265.932 155.902 265.932ZM165.13 258.612H166.882V267H165.13V266.112C164.638 266.76 163.918 267.144 163.042 267.144C161.386 267.144 160.186 265.8 160.186 263.892C160.186 261.996 161.386 260.652 163.042 260.652C163.918 260.652 164.638 261.036 165.13 261.684V258.612ZM163.546 265.668C164.47 265.668 165.13 264.936 165.13 263.892C165.13 262.86 164.47 262.128 163.546 262.128C162.574 262.128 161.89 262.86 161.89 263.892C161.89 264.936 162.574 265.668 163.546 265.668ZM168.192 264.444V262.956H171.48V264.444H168.192ZM175.839 267.144C173.991 267.144 172.443 265.656 172.443 263.892C172.443 262.128 173.991 260.652 175.839 260.652C177.675 260.652 179.211 262.128 179.211 263.892C179.211 265.656 177.675 267.144 175.839 267.144ZM175.839 265.668C176.763 265.668 177.543 264.852 177.543 263.892C177.543 262.932 176.763 262.128 175.839 262.128C174.903 262.128 174.123 262.932 174.123 263.892C174.123 264.852 174.903 265.668 175.839 265.668ZM182.473 260.46V260.796H183.817V262.212H182.473V267H180.793V262.212H179.941V260.796H180.793V260.256C180.793 259.14 181.561 258.36 182.653 258.36C183.157 258.36 183.721 258.576 184.081 258.9L183.661 259.968C183.541 259.848 183.301 259.764 183.061 259.764C182.737 259.764 182.473 260.052 182.473 260.46ZM184.716 264.444V262.956H188.004V264.444H184.716ZM191.499 267V260.352H188.931V258.756H195.843V260.352H193.275V267H191.499ZM197.855 259.944C197.315 259.944 196.895 259.512 196.895 258.984C196.895 258.492 197.315 258.048 197.855 258.048C198.371 258.048 198.791 258.492 198.791 258.984C198.791 259.512 198.371 259.944 197.855 259.944ZM196.967 267V260.796H198.719V267H196.967ZM207.628 260.652C208.924 260.652 209.92 261.648 209.92 263.052V267.012H208.24V263.352C208.24 262.632 207.784 262.128 207.136 262.128C206.44 262.128 205.936 262.596 205.936 263.256V267.012H204.256V263.352C204.256 262.632 203.8 262.128 203.164 262.128C202.456 262.128 201.964 262.596 201.964 263.256V267H200.212V260.796H201.964V261.612C202.264 261.024 202.876 260.652 203.644 260.652C204.496 260.652 205.228 261.084 205.612 261.78C205.936 261.096 206.704 260.652 207.628 260.652ZM214.321 265.596C214.813 265.596 215.413 265.368 215.749 265.044L216.865 266.184C216.313 266.76 215.245 267.144 214.333 267.144C212.485 267.144 211.045 265.788 211.045 263.88C211.045 262.008 212.425 260.652 214.237 260.652C216.181 260.652 217.321 262.128 217.321 264.468H212.845C213.049 265.14 213.589 265.596 214.321 265.596ZM214.309 262.2C213.649 262.2 213.097 262.584 212.869 263.208H215.641C215.473 262.596 215.017 262.2 214.309 262.2ZM137.115 281.144C135.267 281.144 133.719 279.656 133.719 277.892C133.719 276.128 135.267 274.652 137.115 274.652C138.951 274.652 140.487 276.128 140.487 277.892C140.487 279.656 138.951 281.144 137.115 281.144ZM137.115 279.668C138.039 279.668 138.819 278.852 138.819 277.892C138.819 276.932 138.039 276.128 137.115 276.128C136.179 276.128 135.399 276.932 135.399 277.892C135.399 278.852 136.179 279.668 137.115 279.668ZM145.5 274.652C147.156 274.652 148.356 275.996 148.356 277.892C148.356 279.8 147.156 281.144 145.5 281.144C144.636 281.144 143.916 280.772 143.424 280.124V283.064H141.672V274.796H143.424V275.66C143.916 275.024 144.636 274.652 145.5 274.652ZM144.996 279.668C145.968 279.668 146.652 278.936 146.652 277.892C146.652 276.86 145.968 276.128 144.996 276.128C144.144 276.128 143.52 276.752 143.424 277.652V278.132C143.52 279.044 144.144 279.668 144.996 279.668ZM152.858 279.464L153.278 280.604C152.918 280.928 152.354 281.144 151.85 281.144C150.758 281.144 149.99 280.364 149.99 279.248V276.212H149.138V274.796H149.99V273.092H151.67V274.796H153.014V276.212H151.67V278.972C151.67 279.38 151.934 279.668 152.258 279.668C152.498 279.668 152.738 279.584 152.858 279.464ZM155.251 273.944C154.711 273.944 154.291 273.512 154.291 272.984C154.291 272.492 154.711 272.048 155.251 272.048C155.767 272.048 156.187 272.492 156.187 272.984C156.187 273.512 155.767 273.944 155.251 273.944ZM154.363 281V274.796H156.115V281H154.363ZM165.025 274.652C166.321 274.652 167.317 275.648 167.317 277.052V281.012H165.637V277.352C165.637 276.632 165.181 276.128 164.533 276.128C163.837 276.128 163.333 276.596 163.333 277.256V281.012H161.653V277.352C161.653 276.632 161.197 276.128 160.561 276.128C159.853 276.128 159.361 276.596 159.361 277.256V281H157.609V274.796H159.361V275.612C159.661 275.024 160.273 274.652 161.041 274.652C161.893 274.652 162.625 275.084 163.009 275.78C163.333 275.096 164.101 274.652 165.025 274.652ZM169.665 273.944C169.125 273.944 168.705 273.512 168.705 272.984C168.705 272.492 169.125 272.048 169.665 272.048C170.181 272.048 170.601 272.492 170.601 272.984C170.601 273.512 170.181 273.944 169.665 273.944ZM168.777 281V274.796H170.529V281H168.777ZM171.783 281V279.764L174.903 276.284H171.867V274.796H177.183V276.032L174.063 279.512H177.207V281H171.783ZM181.218 274.652C182.838 274.652 183.942 275.672 183.942 277.292V281H182.25V280.376C181.806 280.88 181.098 281.144 180.426 281.144C179.106 281.144 178.086 280.352 178.086 279.164C178.086 277.94 179.226 277.1 180.666 277.1C181.17 277.1 181.722 277.208 182.25 277.412V277.292C182.25 276.632 181.842 276.056 180.822 276.056C180.246 276.056 179.706 276.248 179.214 276.5L178.626 275.336C179.502 274.892 180.354 274.652 181.218 274.652ZM180.822 279.932C181.494 279.932 182.13 279.62 182.25 279.044V278.468C181.854 278.324 181.398 278.24 180.918 278.24C180.282 278.24 179.778 278.612 179.778 279.116C179.778 279.62 180.222 279.932 180.822 279.932ZM188.682 279.464L189.102 280.604C188.742 280.928 188.178 281.144 187.674 281.144C186.582 281.144 185.814 280.364 185.814 279.248V276.212H184.962V274.796H185.814V273.092H187.494V274.796H188.838V276.212H187.494V278.972C187.494 279.38 187.758 279.668 188.082 279.668C188.322 279.668 188.562 279.584 188.682 279.464ZM191.076 273.944C190.536 273.944 190.116 273.512 190.116 272.984C190.116 272.492 190.536 272.048 191.076 272.048C191.592 272.048 192.012 272.492 192.012 272.984C192.012 273.512 191.592 273.944 191.076 273.944ZM190.188 281V274.796H191.94V281H190.188ZM196.517 281.144C194.669 281.144 193.121 279.656 193.121 277.892C193.121 276.128 194.669 274.652 196.517 274.652C198.353 274.652 199.889 276.128 199.889 277.892C199.889 279.656 198.353 281.144 196.517 281.144ZM196.517 279.668C197.441 279.668 198.221 278.852 198.221 277.892C198.221 276.932 197.441 276.128 196.517 276.128C195.581 276.128 194.801 276.932 194.801 277.892C194.801 278.852 195.581 279.668 196.517 279.668ZM204.663 274.652C206.007 274.652 206.967 275.648 206.967 277.052V281H205.275V277.424C205.275 276.656 204.795 276.128 204.099 276.128C203.367 276.128 202.803 276.656 202.803 277.328L202.791 277.292V281H201.039V274.796H202.791V275.576C203.163 275.012 203.859 274.652 204.663 274.652ZM210.774 281.144C209.778 281.144 208.722 280.808 207.978 280.208L208.734 278.996C209.286 279.392 209.982 279.692 210.81 279.692C211.278 279.692 211.614 279.5 211.614 279.224C211.614 278.84 211.158 278.72 210.522 278.552C209.25 278.24 208.266 277.892 208.254 276.668C208.242 275.492 209.214 274.652 210.678 274.652C211.566 274.652 212.442 274.964 213.126 275.42L212.418 276.668C211.854 276.32 211.206 276.116 210.678 276.116C210.246 276.116 209.946 276.272 209.946 276.488C209.946 276.824 210.198 276.92 211.038 277.148C212.106 277.424 213.294 277.784 213.294 279.14C213.294 280.364 212.298 281.144 210.774 281.144Z" fill="#18181B"/>
<path d="M447.3 253V244.756H450.768C452.508 244.756 453.828 245.872 453.828 247.444C453.828 249.016 452.508 250.132 450.768 250.132H448.512V253H447.3ZM448.512 249.004H450.6C451.788 249.004 452.592 248.416 452.592 247.444C452.592 246.472 451.788 245.884 450.6 245.884H448.512V249.004ZM457.661 246.652C459.329 246.652 460.253 247.708 460.253 249.244V253H459.089V252.148C458.633 252.796 457.781 253.144 457.025 253.144C455.705 253.144 454.733 252.376 454.733 251.164C454.733 249.928 455.849 249.1 457.217 249.1C457.829 249.1 458.489 249.232 459.089 249.436V249.244C459.089 248.464 458.729 247.636 457.493 247.636C456.881 247.636 456.281 247.876 455.741 248.152L455.309 247.276C456.197 246.832 456.977 246.652 457.661 246.652ZM457.253 252.208C458.021 252.208 458.885 251.824 459.089 251.056V250.228C458.585 250.072 458.009 249.988 457.397 249.988C456.569 249.988 455.873 250.456 455.873 251.128C455.873 251.8 456.473 252.208 457.253 252.208ZM464.899 253.144C463.135 253.144 461.635 251.656 461.635 249.892C461.635 248.128 463.135 246.652 464.911 246.652C465.799 246.652 466.603 247.024 467.191 247.612L466.387 248.356C466.015 247.936 465.475 247.684 464.899 247.684C463.771 247.684 462.835 248.692 462.835 249.892C462.835 251.104 463.771 252.112 464.911 252.112C465.487 252.112 466.039 251.848 466.423 251.416L467.227 252.148C466.627 252.76 465.823 253.144 464.899 253.144ZM474.139 246.796L471.463 249.604L474.019 253H472.603L470.659 250.396L469.663 251.404V253H468.487V244.612H469.663V249.964L472.699 246.796H474.139ZM477.724 246.652C479.392 246.652 480.316 247.708 480.316 249.244V253H479.152V252.148C478.696 252.796 477.844 253.144 477.088 253.144C475.768 253.144 474.796 252.376 474.796 251.164C474.796 249.928 475.912 249.1 477.28 249.1C477.892 249.1 478.552 249.232 479.152 249.436V249.244C479.152 248.464 478.792 247.636 477.556 247.636C476.944 247.636 476.344 247.876 475.804 248.152L475.372 247.276C476.26 246.832 477.04 246.652 477.724 246.652ZM477.316 252.208C478.084 252.208 478.948 251.824 479.152 251.056V250.228C478.648 250.072 478.072 249.988 477.46 249.988C476.632 249.988 475.936 250.456 475.936 251.128C475.936 251.8 476.536 252.208 477.316 252.208ZM486.75 246.796H487.938V252.34C487.938 253.936 486.63 255.064 484.794 255.064C483.75 255.064 482.79 254.716 482.202 254.236L482.67 253.348C483.126 253.78 483.87 254.032 484.614 254.032C485.946 254.032 486.75 253.396 486.75 252.316V251.416C486.258 252.124 485.49 252.544 484.554 252.544C482.922 252.544 481.734 251.32 481.734 249.592C481.734 247.864 482.922 246.652 484.554 246.652C485.49 246.652 486.282 247.096 486.75 247.792V246.796ZM484.854 251.512C485.958 251.512 486.75 250.72 486.75 249.592C486.75 248.476 485.958 247.684 484.854 247.684C483.75 247.684 482.97 248.476 482.97 249.592C482.97 250.72 483.75 251.512 484.854 251.512ZM490.298 245.764C489.89 245.764 489.578 245.428 489.578 245.044C489.578 244.672 489.89 244.336 490.298 244.336C490.682 244.336 491.006 244.672 491.006 245.044C491.006 245.428 490.682 245.764 490.298 245.764ZM489.698 253V246.796H490.886V253H489.698ZM495.76 246.652C497.128 246.652 498.088 247.648 498.088 249.052V253H496.924V249.256C496.924 248.332 496.336 247.684 495.496 247.684C494.632 247.684 493.888 248.248 493.792 248.98V253H492.604V246.796H493.792V247.696C494.164 247.084 494.92 246.652 495.76 246.652ZM504.504 246.796H505.692V252.34C505.692 253.936 504.384 255.064 502.548 255.064C501.504 255.064 500.544 254.716 499.956 254.236L500.424 253.348C500.88 253.78 501.624 254.032 502.368 254.032C503.7 254.032 504.504 253.396 504.504 252.316V251.416C504.012 252.124 503.244 252.544 502.308 252.544C500.676 252.544 499.488 251.32 499.488 249.592C499.488 247.864 500.676 246.652 502.308 246.652C503.244 246.652 504.036 247.096 504.504 247.792V246.796ZM502.608 251.512C503.712 251.512 504.504 250.72 504.504 249.592C504.504 248.476 503.712 247.684 502.608 247.684C501.504 247.684 500.724 248.476 500.724 249.592C500.724 250.72 501.504 251.512 502.608 251.512ZM440.955 267L438.291 260.796H439.575L441.507 265.62L443.403 260.796H444.687L442.071 267H440.955ZM446.405 259.764C445.997 259.764 445.685 259.428 445.685 259.044C445.685 258.672 445.997 258.336 446.405 258.336C446.789 258.336 447.113 258.672 447.113 259.044C447.113 259.428 446.789 259.764 446.405 259.764ZM445.805 267V260.796H446.993V267H445.805ZM451.316 260.652C452.984 260.652 453.908 261.708 453.908 263.244V267H452.744V266.148C452.288 266.796 451.436 267.144 450.68 267.144C449.36 267.144 448.388 266.376 448.388 265.164C448.388 263.928 449.504 263.1 450.872 263.1C451.484 263.1 452.144 263.232 452.744 263.436V263.244C452.744 262.464 452.384 261.636 451.148 261.636C450.536 261.636 449.936 261.876 449.396 262.152L448.964 261.276C449.852 260.832 450.632 260.652 451.316 260.652ZM450.908 266.208C451.676 266.208 452.54 265.824 452.744 265.056V264.228C452.24 264.072 451.664 263.988 451.052 263.988C450.224 263.988 449.528 264.456 449.528 265.128C449.528 265.8 450.128 266.208 450.908 266.208ZM459.239 267V258.756H463.151C464.531 258.756 465.503 259.608 465.503 260.808C465.503 261.672 465.071 262.212 464.327 262.632C465.287 263.1 465.839 263.844 465.839 264.756C465.839 266.076 464.783 267 463.307 267H459.239ZM460.451 262.188H462.851C463.679 262.188 464.267 261.696 464.267 261.012C464.267 260.328 463.679 259.824 462.851 259.824H460.451V262.188ZM460.451 265.932H463.031C463.955 265.932 464.603 265.368 464.603 264.576C464.603 263.784 463.955 263.22 463.031 263.22H460.451V265.932ZM471.593 260.796H472.781V267H471.593V266.1C471.221 266.712 470.465 267.144 469.625 267.144C468.257 267.144 467.297 266.148 467.297 264.744V260.796H468.461V264.54C468.461 265.464 469.049 266.112 469.889 266.112C470.753 266.112 471.497 265.548 471.593 264.816V260.796ZM475.093 259.764C474.685 259.764 474.373 259.428 474.373 259.044C474.373 258.672 474.685 258.336 475.093 258.336C475.477 258.336 475.801 258.672 475.801 259.044C475.801 259.428 475.477 259.764 475.093 259.764ZM474.493 267V260.796H475.681V267H474.493ZM477.399 267V258.612H478.575V267H477.399ZM485.081 258.612H486.257V267H485.081V265.92C484.601 266.688 483.833 267.144 482.873 267.144C481.241 267.144 480.017 265.8 480.017 263.892C480.017 261.996 481.241 260.652 482.873 260.652C483.833 260.652 484.601 261.108 485.081 261.864V258.612ZM483.161 266.112C484.277 266.112 485.081 265.188 485.081 263.892C485.081 262.596 484.277 261.684 483.161 261.684C482.021 261.684 481.217 262.596 481.217 263.892C481.217 265.188 482.021 266.112 483.161 266.112ZM491.484 260.652C493.116 260.652 494.34 261.996 494.34 263.892C494.34 265.8 493.116 267.144 491.484 267.144C490.524 267.144 489.756 266.688 489.276 265.92V269.064H488.1V260.796H489.276V261.864C489.756 261.108 490.524 260.652 491.484 260.652ZM491.196 266.112C492.336 266.112 493.14 265.188 493.14 263.892C493.14 262.596 492.336 261.684 491.196 261.684C490.08 261.684 489.276 262.596 489.276 263.892C489.276 265.188 490.08 266.112 491.196 266.112ZM498.378 260.652C500.046 260.652 500.97 261.708 500.97 263.244V267H499.806V266.148C499.35 266.796 498.498 267.144 497.742 267.144C496.422 267.144 495.45 266.376 495.45 265.164C495.45 263.928 496.566 263.1 497.934 263.1C498.546 263.1 499.206 263.232 499.806 263.436V263.244C499.806 262.464 499.446 261.636 498.21 261.636C497.598 261.636 496.998 261.876 496.458 262.152L496.026 261.276C496.914 260.832 497.694 260.652 498.378 260.652ZM497.97 266.208C498.738 266.208 499.602 265.824 499.806 265.056V264.228C499.302 264.072 498.726 263.988 498.114 263.988C497.286 263.988 496.59 264.456 496.59 265.128C496.59 265.8 497.19 266.208 497.97 266.208ZM505.616 267.144C503.852 267.144 502.352 265.656 502.352 263.892C502.352 262.128 503.852 260.652 505.628 260.652C506.516 260.652 507.32 261.024 507.908 261.612L507.104 262.356C506.732 261.936 506.192 261.684 505.616 261.684C504.488 261.684 503.552 262.692 503.552 263.892C503.552 265.104 504.488 266.112 505.628 266.112C506.204 266.112 506.756 265.848 507.14 265.416L507.944 266.148C507.344 266.76 506.54 267.144 505.616 267.144ZM514.856 260.796L512.18 263.604L514.736 267H513.32L511.376 264.396L510.38 265.404V267H509.204V258.612H510.38V263.964L513.416 260.796H514.856Z" fill="#18181B"/>
<path d="M355.526 253.144C353.162 253.144 351.146 251.188 351.146 248.872C351.146 246.556 353.162 244.612 355.526 244.612C356.774 244.612 357.926 245.14 358.73 245.992L357.446 247.144C356.966 246.592 356.282 246.22 355.526 246.22C354.146 246.22 352.97 247.444 352.97 248.872C352.97 250.312 354.146 251.536 355.526 251.536C356.282 251.536 356.966 251.164 357.446 250.612L358.73 251.764C357.926 252.604 356.774 253.144 355.526 253.144ZM362.826 253.144C360.978 253.144 359.43 251.656 359.43 249.892C359.43 248.128 360.978 246.652 362.826 246.652C364.662 246.652 366.198 248.128 366.198 249.892C366.198 251.656 364.662 253.144 362.826 253.144ZM362.826 251.668C363.75 251.668 364.53 250.852 364.53 249.892C364.53 248.932 363.75 248.128 362.826 248.128C361.89 248.128 361.11 248.932 361.11 249.892C361.11 250.852 361.89 251.668 362.826 251.668ZM374.763 246.652C376.059 246.652 377.055 247.648 377.055 249.052V253.012H375.375V249.352C375.375 248.632 374.919 248.128 374.271 248.128C373.575 248.128 373.071 248.596 373.071 249.256V253.012H371.391V249.352C371.391 248.632 370.935 248.128 370.299 248.128C369.591 248.128 369.099 248.596 369.099 249.256V253H367.347V246.796H369.099V247.612C369.399 247.024 370.011 246.652 370.779 246.652C371.631 246.652 372.363 247.084 372.747 247.78C373.071 247.096 373.839 246.652 374.763 246.652ZM382.356 246.652C384.012 246.652 385.212 247.996 385.212 249.892C385.212 251.8 384.012 253.144 382.356 253.144C381.492 253.144 380.772 252.772 380.28 252.124V255.064H378.528V246.796H380.28V247.66C380.772 247.024 381.492 246.652 382.356 246.652ZM381.852 251.668C382.824 251.668 383.508 250.936 383.508 249.892C383.508 248.86 382.824 248.128 381.852 248.128C381 248.128 380.376 248.752 380.28 249.652V250.132C380.376 251.044 381 251.668 381.852 251.668ZM387.326 245.944C386.786 245.944 386.366 245.512 386.366 244.984C386.366 244.492 386.786 244.048 387.326 244.048C387.842 244.048 388.262 244.492 388.262 244.984C388.262 245.512 387.842 245.944 387.326 245.944ZM386.438 253V246.796H388.19V253H386.438ZM389.719 253V244.612H391.471V253H389.719ZM395.928 251.596C396.42 251.596 397.02 251.368 397.356 251.044L398.472 252.184C397.92 252.76 396.852 253.144 395.94 253.144C394.092 253.144 392.652 251.788 392.652 249.88C392.652 248.008 394.032 246.652 395.844 246.652C397.788 246.652 398.928 248.128 398.928 250.468H394.452C394.656 251.14 395.196 251.596 395.928 251.596ZM395.916 248.2C395.256 248.2 394.704 248.584 394.476 249.208H397.248C397.08 248.596 396.624 248.2 395.916 248.2ZM335.685 269.04C333.981 267.816 332.997 265.944 332.997 263.82C332.997 261.684 333.981 259.824 335.685 258.6L336.573 259.536C335.325 260.82 334.737 262.08 334.737 263.82C334.737 265.548 335.325 266.82 336.573 268.092L335.685 269.04ZM341.335 260.652C342.679 260.652 343.639 261.648 343.639 263.052V267H341.947V263.424C341.947 262.656 341.467 262.128 340.771 262.128C340.039 262.128 339.475 262.656 339.475 263.328L339.463 263.292V267H337.711V260.796H339.463V261.576C339.835 261.012 340.531 260.652 341.335 260.652ZM347.89 260.652C349.51 260.652 350.614 261.672 350.614 263.292V267H348.922V266.376C348.478 266.88 347.77 267.144 347.098 267.144C345.778 267.144 344.758 266.352 344.758 265.164C344.758 263.94 345.898 263.1 347.338 263.1C347.842 263.1 348.394 263.208 348.922 263.412V263.292C348.922 262.632 348.514 262.056 347.494 262.056C346.918 262.056 346.378 262.248 345.886 262.5L345.298 261.336C346.174 260.892 347.026 260.652 347.89 260.652ZM347.494 265.932C348.166 265.932 348.802 265.62 348.922 265.044V264.468C348.526 264.324 348.07 264.24 347.59 264.24C346.954 264.24 346.45 264.612 346.45 265.116C346.45 265.62 346.894 265.932 347.494 265.932ZM355.354 265.464L355.774 266.604C355.414 266.928 354.85 267.144 354.346 267.144C353.254 267.144 352.486 266.364 352.486 265.248V262.212H351.634V260.796H352.486V259.092H354.166V260.796H355.51V262.212H354.166V264.972C354.166 265.38 354.43 265.668 354.754 265.668C354.994 265.668 355.234 265.584 355.354 265.464ZM357.748 259.944C357.208 259.944 356.788 259.512 356.788 258.984C356.788 258.492 357.208 258.048 357.748 258.048C358.264 258.048 358.684 258.492 358.684 258.984C358.684 259.512 358.264 259.944 357.748 259.944ZM356.86 267V260.796H358.612V267H356.86ZM362.217 267L359.529 260.796H361.365L363.033 264.984L364.665 260.796H366.489L363.837 267H362.217ZM369.96 265.596C370.452 265.596 371.052 265.368 371.388 265.044L372.504 266.184C371.952 266.76 370.884 267.144 369.972 267.144C368.124 267.144 366.684 265.788 366.684 263.88C366.684 262.008 368.064 260.652 369.876 260.652C371.82 260.652 372.96 262.128 372.96 264.468H368.484C368.688 265.14 369.228 265.596 369.96 265.596ZM369.948 262.2C369.288 262.2 368.736 262.584 368.508 263.208H371.28C371.112 262.596 370.656 262.2 369.948 262.2ZM378.373 259.944C377.833 259.944 377.413 259.512 377.413 258.984C377.413 258.492 377.833 258.048 378.373 258.048C378.889 258.048 379.309 258.492 379.309 258.984C379.309 259.512 378.889 259.944 378.373 259.944ZM377.485 267V260.796H379.237V267H377.485ZM388.146 260.652C389.442 260.652 390.438 261.648 390.438 263.052V267.012H388.758V263.352C388.758 262.632 388.302 262.128 387.654 262.128C386.958 262.128 386.454 262.596 386.454 263.256V267.012H384.774V263.352C384.774 262.632 384.318 262.128 383.682 262.128C382.974 262.128 382.482 262.596 382.482 263.256V267H380.73V260.796H382.482V261.612C382.782 261.024 383.394 260.652 384.162 260.652C385.014 260.652 385.746 261.084 386.13 261.78C386.454 261.096 387.222 260.652 388.146 260.652ZM394.683 260.652C396.303 260.652 397.407 261.672 397.407 263.292V267H395.715V266.376C395.271 266.88 394.563 267.144 393.891 267.144C392.571 267.144 391.551 266.352 391.551 265.164C391.551 263.94 392.691 263.1 394.131 263.1C394.635 263.1 395.187 263.208 395.715 263.412V263.292C395.715 262.632 395.307 262.056 394.287 262.056C393.711 262.056 393.171 262.248 392.679 262.5L392.091 261.336C392.967 260.892 393.819 260.652 394.683 260.652ZM394.287 265.932C394.959 265.932 395.595 265.62 395.715 265.044V264.468C395.319 264.324 394.863 264.24 394.383 264.24C393.747 264.24 393.243 264.612 393.243 265.116C393.243 265.62 393.687 265.932 394.287 265.932ZM403.371 260.796H405.135V266.34C405.135 267.936 403.755 269.064 401.799 269.064C400.707 269.064 399.675 268.716 399.063 268.236L399.675 267C400.083 267.36 400.803 267.588 401.523 267.588C402.651 267.588 403.371 267.072 403.371 266.268V265.584C402.879 266.184 402.135 266.544 401.319 266.544C399.759 266.544 398.571 265.32 398.571 263.592C398.571 261.864 399.759 260.652 401.319 260.652C402.159 260.652 402.951 261.048 403.371 261.636V260.796ZM401.871 265.068C402.747 265.068 403.371 264.456 403.371 263.592C403.371 262.728 402.747 262.128 401.871 262.128C400.995 262.128 400.371 262.728 400.371 263.592C400.371 264.456 400.995 265.068 401.871 265.068ZM409.604 265.596C410.096 265.596 410.696 265.368 411.032 265.044L412.148 266.184C411.596 266.76 410.528 267.144 409.616 267.144C407.768 267.144 406.328 265.788 406.328 263.88C406.328 262.008 407.708 260.652 409.52 260.652C411.464 260.652 412.604 262.128 412.604 264.468H408.128C408.332 265.14 408.872 265.596 409.604 265.596ZM409.592 262.2C408.932 262.2 408.38 262.584 408.152 263.208H410.924C410.756 262.596 410.3 262.2 409.592 262.2ZM414.329 269.04L413.441 268.092C414.677 266.82 415.265 265.548 415.265 263.82C415.265 262.08 414.677 260.82 413.441 259.536L414.329 258.6C416.021 259.824 417.017 261.684 417.017 263.82C417.017 265.944 416.021 267.816 414.329 269.04Z" fill="#18181B"/>
<rect x="529" y="153" width="186" height="138" rx="7" fill="#E4E4E7"/>
<path d="M590.91 180.192C587.822 180.192 585.198 177.584 585.198 174.496C585.198 171.408 587.822 168.816 590.91 168.816C592.478 168.816 593.918 169.472 594.958 170.544L593.822 171.632C593.086 170.832 592.046 170.304 590.91 170.304C588.718 170.304 586.862 172.224 586.862 174.496C586.862 176.784 588.718 178.704 590.91 178.704C592.046 178.704 593.086 178.176 593.822 177.376L594.958 178.464C593.918 179.52 592.478 180.192 590.91 180.192ZM600.455 180.192C598.087 180.192 596.087 178.208 596.087 175.856C596.087 173.504 598.087 171.536 600.455 171.536C602.807 171.536 604.791 173.504 604.791 175.856C604.791 178.208 602.807 180.192 600.455 180.192ZM600.455 178.816C601.943 178.816 603.207 177.472 603.207 175.856C603.207 174.256 601.943 172.912 600.455 172.912C598.935 172.912 597.671 174.256 597.671 175.856C597.671 177.472 598.935 178.816 600.455 178.816ZM610.852 171.536C612.676 171.536 613.956 172.864 613.956 174.736V180H612.404V175.008C612.404 173.776 611.62 172.912 610.5 172.912C609.348 172.912 608.356 173.664 608.228 174.64V180H606.644V171.728H608.228V172.928C608.724 172.112 609.732 171.536 610.852 171.536ZM620.094 178.512L620.67 179.6C620.222 179.968 619.614 180.192 619.022 180.192C617.742 180.192 616.846 179.264 616.846 177.936V173.072H615.598V171.728H616.846V169.456H618.398V171.728H620.35V173.072H618.398V177.824C618.398 178.4 618.782 178.816 619.246 178.816C619.598 178.816 619.918 178.688 620.094 178.512ZM625.757 171.536C627.981 171.536 629.213 172.944 629.213 174.992V180H627.661V178.864C627.053 179.728 625.917 180.192 624.909 180.192C623.149 180.192 621.853 179.168 621.853 177.552C621.853 175.904 623.341 174.8 625.165 174.8C625.981 174.8 626.861 174.976 627.661 175.248V174.992C627.661 173.952 627.181 172.848 625.533 172.848C624.717 172.848 623.917 173.168 623.197 173.536L622.621 172.368C623.805 171.776 624.845 171.536 625.757 171.536ZM625.213 178.944C626.237 178.944 627.389 178.432 627.661 177.408V176.304C626.989 176.096 626.221 175.984 625.405 175.984C624.301 175.984 623.373 176.608 623.373 177.504C623.373 178.4 624.173 178.944 625.213 178.944ZM632.288 170.352C631.744 170.352 631.328 169.904 631.328 169.392C631.328 168.896 631.744 168.448 632.288 168.448C632.8 168.448 633.232 168.896 633.232 169.392C633.232 169.904 632.8 170.352 632.288 170.352ZM631.488 180V171.728H633.072V180H631.488ZM639.571 171.536C641.395 171.536 642.675 172.864 642.675 174.736V180H641.123V175.008C641.123 173.776 640.339 172.912 639.219 172.912C638.067 172.912 637.075 173.664 636.947 174.64V180H635.363V171.728H636.947V172.928C637.443 172.112 638.451 171.536 639.571 171.536ZM648.733 178.784C649.597 178.784 650.605 178.4 651.101 177.888L652.093 178.912C651.357 179.696 649.917 180.192 648.749 180.192C646.445 180.192 644.493 178.384 644.493 175.84C644.493 173.36 646.333 171.536 648.621 171.536C651.149 171.536 652.605 173.456 652.605 176.416H646.093C646.301 177.792 647.309 178.784 648.733 178.784ZM648.685 172.944C647.405 172.944 646.365 173.808 646.109 175.152H651.069C650.893 173.872 650.109 172.944 648.685 172.944ZM656.105 173.312C656.633 172.224 657.753 171.536 659.177 171.536V172.912C657.465 172.912 656.249 173.856 656.105 175.296V180H654.521V171.728H656.105V173.312Z" fill="#18181B"/>
<path d="M544 199H700C703.866 199 707 202.134 707 206V241H537V206C537 202.134 540.134 199 544 199Z" fill="white"/>
<path d="M584.069 209.536C586.293 209.536 587.525 210.944 587.525 212.992V218H585.973V216.864C585.365 217.728 584.229 218.192 583.221 218.192C581.461 218.192 580.165 217.168 580.165 215.552C580.165 213.904 581.653 212.8 583.477 212.8C584.293 212.8 585.173 212.976 585.973 213.248V212.992C585.973 211.952 585.493 210.848 583.845 210.848C583.029 210.848 582.229 211.168 581.509 211.536L580.933 210.368C582.117 209.776 583.157 209.536 584.069 209.536ZM583.525 216.944C584.549 216.944 585.701 216.432 585.973 215.408V214.304C585.301 214.096 584.533 213.984 583.717 213.984C582.613 213.984 581.685 214.608 581.685 215.504C581.685 216.4 582.485 216.944 583.525 216.944ZM594.408 209.536C596.584 209.536 598.216 211.328 598.216 213.856C598.216 216.4 596.584 218.192 594.408 218.192C593.128 218.192 592.104 217.584 591.464 216.56V220.752H589.896V209.728H591.464V211.152C592.104 210.144 593.128 209.536 594.408 209.536ZM594.024 216.816C595.544 216.816 596.616 215.584 596.616 213.856C596.616 212.128 595.544 210.912 594.024 210.912C592.536 210.912 591.464 212.128 591.464 213.856C591.464 215.584 592.536 216.816 594.024 216.816ZM604.721 209.536C606.897 209.536 608.529 211.328 608.529 213.856C608.529 216.4 606.897 218.192 604.721 218.192C603.441 218.192 602.417 217.584 601.777 216.56V220.752H600.209V209.728H601.777V211.152C602.417 210.144 603.441 209.536 604.721 209.536ZM604.337 216.816C605.857 216.816 606.929 215.584 606.929 213.856C606.929 212.128 605.857 210.912 604.337 210.912C602.849 210.912 601.777 212.128 601.777 213.856C601.777 215.584 602.849 216.816 604.337 216.816ZM610.441 218V206.816H612.009V218H610.441ZM615.1 208.352C614.556 208.352 614.14 207.904 614.14 207.392C614.14 206.896 614.556 206.448 615.1 206.448C615.612 206.448 616.044 206.896 616.044 207.392C616.044 207.904 615.612 208.352 615.1 208.352ZM614.3 218V209.728H615.884V218H614.3ZM622.079 218.192C619.727 218.192 617.727 216.208 617.727 213.856C617.727 211.504 619.727 209.536 622.095 209.536C623.279 209.536 624.351 210.032 625.135 210.816L624.063 211.808C623.567 211.248 622.847 210.912 622.079 210.912C620.575 210.912 619.327 212.256 619.327 213.856C619.327 215.472 620.575 216.816 622.095 216.816C622.863 216.816 623.599 216.464 624.111 215.888L625.183 216.864C624.383 217.68 623.311 218.192 622.079 218.192ZM630.351 209.536C632.575 209.536 633.807 210.944 633.807 212.992V218H632.255V216.864C631.647 217.728 630.511 218.192 629.503 218.192C627.743 218.192 626.447 217.168 626.447 215.552C626.447 213.904 627.935 212.8 629.759 212.8C630.575 212.8 631.455 212.976 632.255 213.248V212.992C632.255 211.952 631.775 210.848 630.127 210.848C629.311 210.848 628.511 211.168 627.791 211.536L627.215 210.368C628.399 209.776 629.439 209.536 630.351 209.536ZM629.807 216.944C630.831 216.944 631.983 216.432 632.255 215.408V214.304C631.583 214.096 630.815 213.984 629.999 213.984C628.895 213.984 627.967 214.608 627.967 215.504C627.967 216.4 628.767 216.944 629.807 216.944ZM639.969 216.512L640.545 217.6C640.097 217.968 639.489 218.192 638.897 218.192C637.617 218.192 636.721 217.264 636.721 215.936V211.072H635.473V209.728H636.721V207.456H638.273V209.728H640.225V211.072H638.273V215.824C638.273 216.4 638.657 216.816 639.121 216.816C639.473 216.816 639.793 216.688 639.969 216.512ZM642.944 208.352C642.4 208.352 641.984 207.904 641.984 207.392C641.984 206.896 642.4 206.448 642.944 206.448C643.456 206.448 643.888 206.896 643.888 207.392C643.888 207.904 643.456 208.352 642.944 208.352ZM642.144 218V209.728H643.728V218H642.144ZM649.939 218.192C647.571 218.192 645.571 216.208 645.571 213.856C645.571 211.504 647.571 209.536 649.939 209.536C652.291 209.536 654.275 211.504 654.275 213.856C654.275 216.208 652.291 218.192 649.939 218.192ZM649.939 216.816C651.427 216.816 652.691 215.472 652.691 213.856C652.691 212.256 651.427 210.912 649.939 210.912C648.419 210.912 647.155 212.256 647.155 213.856C647.155 215.472 648.419 216.816 649.939 216.816ZM660.337 209.536C662.161 209.536 663.441 210.864 663.441 212.736V218H661.889V213.008C661.889 211.776 661.105 210.912 659.985 210.912C658.833 210.912 657.841 211.664 657.713 212.64V218H656.129V209.728H657.713V210.928C658.209 210.112 659.217 209.536 660.337 209.536ZM584.374 230.784C585.238 230.784 586.246 230.4 586.742 229.888L587.734 230.912C586.998 231.696 585.558 232.192 584.39 232.192C582.086 232.192 580.134 230.384 580.134 227.84C580.134 225.36 581.974 223.536 584.262 223.536C586.79 223.536 588.246 225.456 588.246 228.416H581.734C581.942 229.792 582.95 230.784 584.374 230.784ZM584.326 224.944C583.046 224.944 582.006 225.808 581.75 227.152H586.71C586.534 225.872 585.75 224.944 584.326 224.944ZM597.41 232H595.634L593.378 228.96L591.106 232H589.346L592.498 227.776L589.474 223.728H591.266L593.378 226.576L595.506 223.728H597.266L594.258 227.76L597.41 232ZM602.764 230.784C603.628 230.784 604.636 230.4 605.132 229.888L606.124 230.912C605.388 231.696 603.948 232.192 602.78 232.192C600.476 232.192 598.524 230.384 598.524 227.84C598.524 225.36 600.364 223.536 602.652 223.536C605.18 223.536 606.636 225.456 606.636 228.416H600.124C600.332 229.792 601.34 230.784 602.764 230.784ZM602.716 224.944C601.436 224.944 600.396 225.808 600.14 227.152H605.1C604.924 225.872 604.14 224.944 602.716 224.944ZM612.376 232.192C610.024 232.192 608.024 230.208 608.024 227.856C608.024 225.504 610.024 223.536 612.392 223.536C613.576 223.536 614.648 224.032 615.432 224.816L614.36 225.808C613.864 225.248 613.144 224.912 612.376 224.912C610.872 224.912 609.624 226.256 609.624 227.856C609.624 229.472 610.872 230.816 612.392 230.816C613.16 230.816 613.896 230.464 614.408 229.888L615.48 230.864C614.68 231.68 613.608 232.192 612.376 232.192ZM622.871 223.728H624.455V232H622.871V230.8C622.375 231.616 621.367 232.192 620.247 232.192C618.423 232.192 617.143 230.864 617.143 228.992V223.728H618.695V228.72C618.695 229.952 619.479 230.816 620.599 230.816C621.751 230.816 622.743 230.064 622.871 229.088V223.728ZM630.626 230.512L631.202 231.6C630.754 231.968 630.146 232.192 629.554 232.192C628.274 232.192 627.378 231.264 627.378 229.936V225.072H626.13V223.728H627.378V221.456H628.93V223.728H630.882V225.072H628.93V229.824C628.93 230.4 629.314 230.816 629.778 230.816C630.13 230.816 630.45 230.688 630.626 230.512ZM636.288 223.536C638.512 223.536 639.744 224.944 639.744 226.992V232H638.192V230.864C637.584 231.728 636.448 232.192 635.44 232.192C633.68 232.192 632.384 231.168 632.384 229.552C632.384 227.904 633.872 226.8 635.696 226.8C636.512 226.8 637.392 226.976 638.192 227.248V226.992C638.192 225.952 637.712 224.848 636.064 224.848C635.248 224.848 634.448 225.168 633.728 225.536L633.152 224.368C634.336 223.776 635.376 223.536 636.288 223.536ZM635.744 230.944C636.768 230.944 637.92 230.432 638.192 229.408V228.304C637.52 228.096 636.752 227.984 635.936 227.984C634.832 227.984 633.904 228.608 633.904 229.504C633.904 230.4 634.704 230.944 635.744 230.944ZM646.627 223.536C648.803 223.536 650.435 225.328 650.435 227.856C650.435 230.4 648.803 232.192 646.627 232.192C645.347 232.192 644.323 231.584 643.683 230.56V232H642.115V220.816H643.683V225.152C644.323 224.144 645.347 223.536 646.627 223.536ZM646.243 230.816C647.763 230.816 648.835 229.584 648.835 227.856C648.835 226.128 647.763 224.912 646.243 224.912C644.755 224.912 643.683 226.128 643.683 227.856C643.683 229.584 644.755 230.816 646.243 230.816ZM652.347 232V220.816H653.915V232H652.347ZM660.014 230.784C660.878 230.784 661.886 230.4 662.382 229.888L663.374 230.912C662.638 231.696 661.198 232.192 660.03 232.192C657.726 232.192 655.774 230.384 655.774 227.84C655.774 225.36 657.614 223.536 659.902 223.536C662.43 223.536 663.886 225.456 663.886 228.416H657.374C657.582 229.792 658.59 230.784 660.014 230.784ZM659.966 224.944C658.686 224.944 657.646 225.808 657.39 227.152H662.35C662.174 225.872 661.39 224.944 659.966 224.944Z" fill="#18181B"/>
<path d="M544 199H700C703.866 199 707 202.134 707 206V241H537V206C537 202.134 540.134 199 544 199Z" stroke="#18181B" stroke-width="2"/>
<path d="M537 241H707V276C707 279.866 703.866 283 700 283H544C540.134 283 537 279.866 537 276V241Z" fill="white"/>
<path d="M594.08 260V249.008H595.696L599.552 256.192L603.408 249.008H605.024V260H603.408V252.176L599.552 259.36L595.696 252.176V260H594.08ZM608.358 250.352C607.814 250.352 607.398 249.904 607.398 249.392C607.398 248.896 607.814 248.448 608.358 248.448C608.87 248.448 609.302 248.896 609.302 249.392C609.302 249.904 608.87 250.352 608.358 250.352ZM607.558 260V251.728H609.142V260H607.558ZM615.641 251.536C617.465 251.536 618.745 252.864 618.745 254.736V260H617.193V255.008C617.193 253.776 616.409 252.912 615.289 252.912C614.137 252.912 613.145 253.664 613.017 254.64V260H611.433V251.728H613.017V252.928C613.513 252.112 614.521 251.536 615.641 251.536ZM621.795 250.352C621.251 250.352 620.835 249.904 620.835 249.392C620.835 248.896 621.251 248.448 621.795 248.448C622.307 248.448 622.739 248.896 622.739 249.392C622.739 249.904 622.307 250.352 621.795 250.352ZM620.995 260V251.728H622.579V260H620.995ZM634.119 251.536C635.847 251.536 637.095 252.864 637.095 254.736V260H635.543V254.976C635.543 253.76 634.823 252.912 633.783 252.912C632.599 252.912 631.767 253.696 631.767 254.832V260H630.215V254.976C630.215 253.76 629.495 252.912 628.455 252.912C627.271 252.912 626.439 253.696 626.439 254.832V260H624.855V251.728H626.439V252.88C626.855 252.064 627.719 251.536 628.775 251.536C629.975 251.536 630.951 252.176 631.431 253.2C631.815 252.176 632.871 251.536 634.119 251.536ZM642.843 251.536C645.067 251.536 646.299 252.944 646.299 254.992V260H644.747V258.864C644.139 259.728 643.003 260.192 641.995 260.192C640.235 260.192 638.939 259.168 638.939 257.552C638.939 255.904 640.427 254.8 642.251 254.8C643.067 254.8 643.947 254.976 644.747 255.248V254.992C644.747 253.952 644.267 252.848 642.619 252.848C641.803 252.848 641.003 253.168 640.283 253.536L639.707 252.368C640.891 251.776 641.931 251.536 642.843 251.536ZM642.299 258.944C643.323 258.944 644.475 258.432 644.747 257.408V256.304C644.075 256.096 643.307 255.984 642.491 255.984C641.387 255.984 640.459 256.608 640.459 257.504C640.459 258.4 641.259 258.944 642.299 258.944ZM648.59 260V248.816H650.158V260H648.59ZM558.457 274.192C555.369 274.192 552.745 271.584 552.745 268.496C552.745 265.408 555.369 262.816 558.457 262.816C561.545 262.816 564.137 265.408 564.137 268.496C564.137 271.584 561.545 274.192 558.457 274.192ZM558.457 272.704C560.649 272.704 562.489 270.784 562.489 268.496C562.489 266.224 560.649 264.304 558.457 264.304C556.265 264.304 554.409 266.224 554.409 268.496C554.409 270.784 556.265 272.704 558.457 272.704ZM570.658 265.536C572.834 265.536 574.466 267.328 574.466 269.856C574.466 272.4 572.834 274.192 570.658 274.192C569.378 274.192 568.354 273.584 567.714 272.56V276.752H566.146V265.728H567.714V267.152C568.354 266.144 569.378 265.536 570.658 265.536ZM570.274 272.816C571.794 272.816 572.866 271.584 572.866 269.856C572.866 268.128 571.794 266.912 570.274 266.912C568.786 266.912 567.714 268.128 567.714 269.856C567.714 271.584 568.786 272.816 570.274 272.816ZM580.171 272.784C581.035 272.784 582.043 272.4 582.539 271.888L583.531 272.912C582.795 273.696 581.355 274.192 580.187 274.192C577.883 274.192 575.931 272.384 575.931 269.84C575.931 267.36 577.771 265.536 580.059 265.536C582.587 265.536 584.043 267.456 584.043 270.416H577.531C577.739 271.792 578.747 272.784 580.171 272.784ZM580.123 266.944C578.843 266.944 577.803 267.808 577.547 269.152H582.507C582.331 267.872 581.547 266.944 580.123 266.944ZM587.543 267.312C588.071 266.224 589.191 265.536 590.615 265.536V266.912C588.903 266.912 587.687 267.856 587.543 269.296V274H585.959V265.728H587.543V267.312ZM595.632 265.536C597.856 265.536 599.088 266.944 599.088 268.992V274H597.536V272.864C596.928 273.728 595.792 274.192 594.784 274.192C593.024 274.192 591.728 273.168 591.728 271.552C591.728 269.904 593.216 268.8 595.04 268.8C595.856 268.8 596.736 268.976 597.536 269.248V268.992C597.536 267.952 597.056 266.848 595.408 266.848C594.592 266.848 593.792 267.168 593.072 267.536L592.496 266.368C593.68 265.776 594.72 265.536 595.632 265.536ZM595.088 272.944C596.112 272.944 597.264 272.432 597.536 271.408V270.304C596.864 270.096 596.096 269.984 595.28 269.984C594.176 269.984 593.248 270.608 593.248 271.504C593.248 272.4 594.048 272.944 595.088 272.944ZM605.251 272.512L605.827 273.6C605.379 273.968 604.771 274.192 604.179 274.192C602.899 274.192 602.003 273.264 602.003 271.936V267.072H600.755V265.728H602.003V263.456H603.555V265.728H605.507V267.072H603.555V271.824C603.555 272.4 603.939 272.816 604.403 272.816C604.755 272.816 605.075 272.688 605.251 272.512ZM608.225 264.352C607.681 264.352 607.265 263.904 607.265 263.392C607.265 262.896 607.681 262.448 608.225 262.448C608.737 262.448 609.169 262.896 609.169 263.392C609.169 263.904 608.737 264.352 608.225 264.352ZM607.425 274V265.728H609.009V274H607.425ZM615.508 265.536C617.332 265.536 618.612 266.864 618.612 268.736V274H617.06V269.008C617.06 267.776 616.276 266.912 615.156 266.912C614.004 266.912 613.012 267.664 612.884 268.64V274H611.3V265.728H612.884V266.928C613.38 266.112 614.388 265.536 615.508 265.536ZM627.167 265.728H628.751V273.12C628.751 275.248 627.007 276.752 624.559 276.752C623.167 276.752 621.887 276.288 621.103 275.648L621.727 274.464C622.335 275.04 623.327 275.376 624.319 275.376C626.095 275.376 627.167 274.528 627.167 273.088V271.888C626.511 272.832 625.487 273.392 624.239 273.392C622.063 273.392 620.479 271.76 620.479 269.456C620.479 267.152 622.063 265.536 624.239 265.536C625.487 265.536 626.543 266.128 627.167 267.056V265.728ZM624.639 272.016C626.111 272.016 627.167 270.96 627.167 269.456C627.167 267.968 626.111 266.912 624.639 266.912C623.167 266.912 622.127 267.968 622.127 269.456C622.127 270.96 623.167 272.016 624.639 272.016ZM639.675 274.176C637.835 274.176 636.315 273.536 635.147 272.416L636.123 271.216C637.099 272.144 638.251 272.752 639.739 272.752C641.259 272.752 642.043 271.952 642.043 271.072C642.043 270.032 641.131 269.632 639.291 269.216C637.051 268.688 635.563 268.016 635.563 266.032C635.563 264.192 637.163 262.8 639.371 262.8C641.067 262.8 642.331 263.424 643.387 264.352L642.459 265.568C641.531 264.72 640.427 264.224 639.307 264.224C638.075 264.224 637.211 265.008 637.211 265.888C637.211 266.912 638.155 267.264 639.963 267.696C642.155 268.208 643.675 268.944 643.675 270.912C643.675 272.768 642.267 274.176 639.675 274.176ZM647.069 276.88C646.509 276.88 645.933 276.752 645.501 276.528L645.853 275.312C646.173 275.488 646.541 275.568 646.861 275.568C647.373 275.568 647.725 275.408 647.997 274.928L648.413 274.048L644.861 265.728H646.557L649.213 272.256L651.725 265.728H653.373L649.725 274.752C649.133 276.24 648.253 276.864 647.069 276.88ZM658.136 274.192C656.92 274.192 655.592 273.76 654.6 272.96L655.352 271.824C656.232 272.464 657.176 272.832 658.152 272.832C659.08 272.832 659.72 272.4 659.72 271.76C659.72 270.992 658.872 270.752 657.848 270.464C655.944 269.936 655 269.392 655 268.048C654.984 266.528 656.248 265.536 658.008 265.536C659.08 265.536 660.168 265.904 661.064 266.496L660.36 267.664C659.56 267.168 658.728 266.896 658.008 266.896C657.192 266.896 656.552 267.248 656.552 267.872C656.552 268.512 657.064 268.704 658.456 269.136C659.816 269.536 661.272 269.984 661.272 271.632C661.272 273.2 659.944 274.192 658.136 274.192ZM666.985 272.512L667.561 273.6C667.113 273.968 666.505 274.192 665.913 274.192C664.633 274.192 663.737 273.264 663.737 271.936V267.072H662.489V265.728H663.737V263.456H665.289V265.728H667.241V267.072H665.289V271.824C665.289 272.4 665.673 272.816 666.137 272.816C666.489 272.816 666.809 272.688 666.985 272.512ZM672.967 272.784C673.831 272.784 674.839 272.4 675.335 271.888L676.327 272.912C675.591 273.696 674.151 274.192 672.983 274.192C670.679 274.192 668.727 272.384 668.727 269.84C668.727 267.36 670.567 265.536 672.855 265.536C675.383 265.536 676.839 267.456 676.839 270.416H670.327C670.535 271.792 671.543 272.784 672.967 272.784ZM672.919 266.944C671.639 266.944 670.599 267.808 670.343 269.152H675.303C675.127 267.872 674.343 266.944 672.919 266.944ZM687.923 265.536C689.651 265.536 690.899 266.864 690.899 268.736V274H689.347V268.976C689.347 267.76 688.627 266.912 687.587 266.912C686.403 266.912 685.571 267.696 685.571 268.832V274H684.019V268.976C684.019 267.76 683.299 266.912 682.259 266.912C681.075 266.912 680.243 267.696 680.243 268.832V274H678.659V265.728H680.243V266.88C680.659 266.064 681.523 265.536 682.579 265.536C683.779 265.536 684.755 266.176 685.235 267.2C685.619 266.176 686.675 265.536 687.923 265.536Z" fill="#18181B"/>
<path d="M537 241H707V276C707 279.866 703.866 283 700 283H544C540.134 283 537 279.866 537 276V241Z" stroke="#18181B" stroke-width="2"/>
<rect x="529" y="153" width="186" height="138" rx="7" stroke="#18181B" stroke-width="2"/>
<path d="M528 367L716 367" stroke="#71717A"/>
<path d="M46 367L524 367" stroke="#71717A"/>
<rect width="70" height="22" transform="translate(587 356)" fill="#F4F4F5"/>
<path d="M599.008 371H596.992L595.108 368.324H593.8V371H592.036V362.756H595.744C597.532 362.756 598.852 363.908 598.852 365.54C598.852 366.764 598.108 367.724 596.98 368.12L599.008 371ZM593.8 364.376V366.704H595.552C596.428 366.704 597.028 366.248 597.028 365.54C597.028 364.832 596.428 364.376 595.552 364.376H593.8ZM604.249 371.144C602.053 371.144 600.517 369.608 600.517 367.436V362.756H602.281V367.364C602.281 368.636 603.097 369.536 604.249 369.536C605.389 369.536 606.205 368.636 606.205 367.364V362.756H607.981V367.436C607.981 369.608 606.433 371.144 604.249 371.144ZM610.02 371V362.756H611.784L615.756 368.084V362.756H617.532V371H615.756L611.784 365.672V371H610.02ZM625.448 371V364.352H622.88V362.756H629.792V364.352H627.224V371H625.448ZM631.36 371V362.756H633.136V371H631.36ZM635.214 371V362.756H636.978L639.534 367.412L642.078 362.756H643.854V371H642.078V365.864L639.534 370.52L636.978 365.864V371H635.214ZM652.256 364.352H647.684V365.996H651.824V367.592H647.684V369.404H652.256V371H645.908V362.756H652.256V364.352Z" fill="#71717A"/>
<rect width="140" height="22" transform="translate(215 356)" fill="white"/>
<path d="M220.317 371V362.756H223.269C226.041 362.756 228.009 364.46 228.009 366.872C228.009 369.284 226.041 371 223.269 371H220.317ZM222.081 369.392H223.497C225.069 369.392 226.185 368.348 226.185 366.872C226.185 365.408 225.069 364.364 223.497 364.364H222.081V369.392ZM236.082 364.352H231.51V365.996H235.65V367.592H231.51V369.404H236.082V371H229.734V362.756H236.082V364.352ZM243.841 362.756H245.821L242.461 371H240.481L237.121 362.756H239.113L241.477 368.564L243.841 362.756ZM253.501 364.352H248.929V365.996H253.069V367.592H248.929V369.404H253.501V371H247.153V362.756H253.501V364.352ZM256.917 369.404H261.021V371H255.141V362.756H256.917V369.404ZM266.577 371.144C264.213 371.144 262.197 369.188 262.197 366.872C262.197 364.556 264.213 362.612 266.577 362.612C268.965 362.612 270.957 364.556 270.957 366.872C270.957 369.188 268.965 371.144 266.577 371.144ZM266.577 369.536C267.969 369.536 269.145 368.312 269.145 366.872C269.145 365.444 267.969 364.22 266.577 364.22C265.197 364.22 264.021 365.444 264.021 366.872C264.021 368.312 265.197 369.536 266.577 369.536ZM272.62 371V362.756H276.328C278.116 362.756 279.436 363.908 279.436 365.54C279.436 367.172 278.116 368.324 276.328 368.324H274.384V371H272.62ZM274.384 366.704H276.136C277.012 366.704 277.612 366.248 277.612 365.54C277.612 364.832 277.012 364.376 276.136 364.376H274.384V366.704ZM280.974 371V362.756H282.738L285.294 367.412L287.838 362.756H289.614V371H287.838V365.864L285.294 370.52L282.738 365.864V371H280.974ZM298.016 364.352H293.444V365.996H297.584V367.592H293.444V369.404H298.016V371H291.668V362.756H298.016V364.352ZM299.787 371V362.756H301.551L305.523 368.084V362.756H307.299V371H305.523L301.551 365.672V371H299.787ZM311.504 371V364.352H308.936V362.756H315.848V364.352H313.28V371H311.504ZM323.24 371V364.352H320.672V362.756H327.584V364.352H325.016V371H323.24ZM329.152 371V362.756H330.928V371H329.152ZM333.005 371V362.756H334.769L337.325 367.412L339.869 362.756H341.645V371H339.869V365.864L337.325 370.52L334.769 365.864V371H333.005ZM350.048 364.352H345.476V365.996H349.616V367.592H345.476V369.404H350.048V371H343.7V362.756H350.048V364.352Z" fill="#71717A"/>
<path d="M528 360V373.5" stroke="#71717A"/>
<path d="M524 360V373.5" stroke="#71717A"/>
<path d="M46 360V373.5" stroke="#71717A"/>
<path d="M716 360V373.5" stroke="#71717A"/>
<path d="M444 210C442.895 210 442 210.895 442 212C442 213.105 442.895 214 444 214L444 210ZM444 214L504 214L504 210L444 210L444 214Z" fill="#18181B"/>
<rect x="465" y="201" width="22" height="22" rx="11" fill="white"/>
<path d="M485.336 209.023C485.492 209.375 485.375 209.727 485.102 210L483.422 211.523C483.461 211.836 483.5 212.188 483.5 212.5C483.5 212.852 483.461 213.203 483.422 213.516L485.102 215.039C485.375 215.312 485.492 215.664 485.336 216.016C485.18 216.484 484.984 216.914 484.75 217.344L484.555 217.656C484.281 218.086 484.008 218.516 483.695 218.906C483.461 219.18 483.07 219.258 482.719 219.141L480.57 218.477C480.023 218.867 479.438 219.18 478.852 219.453L478.344 221.68C478.266 222.031 477.992 222.305 477.641 222.383C477.094 222.461 476.547 222.5 475.961 222.5C475.414 222.5 474.867 222.461 474.32 222.383C473.969 222.305 473.695 222.031 473.617 221.68L473.109 219.453C472.523 219.18 471.938 218.867 471.391 218.477L469.242 219.141C468.891 219.258 468.5 219.18 468.266 218.906C467.953 218.516 467.68 218.086 467.406 217.656L467.211 217.344C466.977 216.914 466.781 216.484 466.625 216.016C466.469 215.664 466.586 215.312 466.859 215.039L468.539 213.516C468.5 213.203 468.5 212.852 468.5 212.5C468.5 212.188 468.5 211.836 468.539 211.523L466.859 210C466.586 209.727 466.469 209.375 466.625 209.023C466.781 208.555 466.977 208.125 467.211 207.695L467.406 207.383C467.68 206.953 467.953 206.523 468.266 206.133C468.5 205.859 468.891 205.781 469.242 205.898L471.391 206.562C471.938 206.172 472.523 205.82 473.109 205.586L473.617 203.359C473.695 203.008 473.969 202.734 474.32 202.656C474.867 202.578 475.414 202.5 476 202.5C476.547 202.5 477.094 202.578 477.641 202.656C477.992 202.734 478.266 203.008 478.344 203.359L478.852 205.586C479.438 205.82 480.023 206.172 480.57 206.562L482.719 205.898C483.07 205.781 483.461 205.859 483.695 206.133C484.008 206.523 484.281 206.953 484.555 207.383L484.75 207.695C484.984 208.125 485.18 208.555 485.336 209.023ZM476 215.625C477.719 215.625 479.125 214.258 479.125 212.5C479.125 210.781 477.719 209.375 476 209.375C474.242 209.375 472.875 210.781 472.875 212.5C472.875 214.258 474.242 215.625 476 215.625Z" fill="#15230C"/>
<path d="M513.416 210.525C514.411 211.325 514.411 212.842 513.416 213.642L505.592 219.932C504.283 220.985 502.339 220.053 502.339 218.374L502.339 205.793C502.339 204.114 504.283 203.182 505.592 204.234L513.416 210.525Z" fill="#15230C"/>
<path d="M343 210C341.895 210 341 210.895 341 212C341 213.105 341.895 214 343 214L343 210ZM343 214L403 214L403 210L343 210L343 214Z" fill="#18181B"/>
<rect x="364" y="201" width="22" height="22" rx="11" fill="white"/>
<path d="M384.336 209.023C384.492 209.375 384.375 209.727 384.102 210L382.422 211.523C382.461 211.836 382.5 212.188 382.5 212.5C382.5 212.852 382.461 213.203 382.422 213.516L384.102 215.039C384.375 215.312 384.492 215.664 384.336 216.016C384.18 216.484 383.984 216.914 383.75 217.344L383.555 217.656C383.281 218.086 383.008 218.516 382.695 218.906C382.461 219.18 382.07 219.258 381.719 219.141L379.57 218.477C379.023 218.867 378.438 219.18 377.852 219.453L377.344 221.68C377.266 222.031 376.992 222.305 376.641 222.383C376.094 222.461 375.547 222.5 374.961 222.5C374.414 222.5 373.867 222.461 373.32 222.383C372.969 222.305 372.695 222.031 372.617 221.68L372.109 219.453C371.523 219.18 370.938 218.867 370.391 218.477L368.242 219.141C367.891 219.258 367.5 219.18 367.266 218.906C366.953 218.516 366.68 218.086 366.406 217.656L366.211 217.344C365.977 216.914 365.781 216.484 365.625 216.016C365.469 215.664 365.586 215.312 365.859 215.039L367.539 213.516C367.5 213.203 367.5 212.852 367.5 212.5C367.5 212.188 367.5 211.836 367.539 211.523L365.859 210C365.586 209.727 365.469 209.375 365.625 209.023C365.781 208.555 365.977 208.125 366.211 207.695L366.406 207.383C366.68 206.953 366.953 206.523 367.266 206.133C367.5 205.859 367.891 205.781 368.242 205.898L370.391 206.562C370.938 206.172 371.523 205.82 372.109 205.586L372.617 203.359C372.695 203.008 372.969 202.734 373.32 202.656C373.867 202.578 374.414 202.5 375 202.5C375.547 202.5 376.094 202.578 376.641 202.656C376.992 202.734 377.266 203.008 377.344 203.359L377.852 205.586C378.438 205.82 379.023 206.172 379.57 206.562L381.719 205.898C382.07 205.781 382.461 205.859 382.695 206.133C383.008 206.523 383.281 206.953 383.555 207.383L383.75 207.695C383.984 208.125 384.18 208.555 384.336 209.023ZM375 215.625C376.719 215.625 378.125 214.258 378.125 212.5C378.125 210.781 376.719 209.375 375 209.375C373.242 209.375 371.875 210.781 371.875 212.5C371.875 214.258 373.242 215.625 375 215.625Z" fill="#18181B"/>
<path d="M412.416 210.525C413.411 211.325 413.411 212.842 412.416 213.642L404.592 219.932C403.283 220.985 401.339 220.053 401.339 218.374L401.339 205.793C401.339 204.114 403.283 203.182 404.592 204.234L412.416 210.525Z" fill="#18181B"/>
<path d="M242 210C240.895 210 240 210.895 240 212C240 213.105 240.895 214 242 214L242 210ZM242 214L302 214L302 210L242 210L242 214Z" fill="#18181B"/>
<rect x="263" y="201" width="22" height="22" rx="11" fill="white"/>
<path d="M283.336 209.023C283.492 209.375 283.375 209.727 283.102 210L281.422 211.523C281.461 211.836 281.5 212.188 281.5 212.5C281.5 212.852 281.461 213.203 281.422 213.516L283.102 215.039C283.375 215.312 283.492 215.664 283.336 216.016C283.18 216.484 282.984 216.914 282.75 217.344L282.555 217.656C282.281 218.086 282.008 218.516 281.695 218.906C281.461 219.18 281.07 219.258 280.719 219.141L278.57 218.477C278.023 218.867 277.438 219.18 276.852 219.453L276.344 221.68C276.266 222.031 275.992 222.305 275.641 222.383C275.094 222.461 274.547 222.5 273.961 222.5C273.414 222.5 272.867 222.461 272.32 222.383C271.969 222.305 271.695 222.031 271.617 221.68L271.109 219.453C270.523 219.18 269.938 218.867 269.391 218.477L267.242 219.141C266.891 219.258 266.5 219.18 266.266 218.906C265.953 218.516 265.68 218.086 265.406 217.656L265.211 217.344C264.977 216.914 264.781 216.484 264.625 216.016C264.469 215.664 264.586 215.312 264.859 215.039L266.539 213.516C266.5 213.203 266.5 212.852 266.5 212.5C266.5 212.188 266.5 211.836 266.539 211.523L264.859 210C264.586 209.727 264.469 209.375 264.625 209.023C264.781 208.555 264.977 208.125 265.211 207.695L265.406 207.383C265.68 206.953 265.953 206.523 266.266 206.133C266.5 205.859 266.891 205.781 267.242 205.898L269.391 206.562C269.938 206.172 270.523 205.82 271.109 205.586L271.617 203.359C271.695 203.008 271.969 202.734 272.32 202.656C272.867 202.578 273.414 202.5 274 202.5C274.547 202.5 275.094 202.578 275.641 202.656C275.992 202.734 276.266 203.008 276.344 203.359L276.852 205.586C277.438 205.82 278.023 206.172 278.57 206.562L280.719 205.898C281.07 205.781 281.461 205.859 281.695 206.133C282.008 206.523 282.281 206.953 282.555 207.383L282.75 207.695C282.984 208.125 283.18 208.555 283.336 209.023ZM274 215.625C275.719 215.625 277.125 214.258 277.125 212.5C277.125 210.781 275.719 209.375 274 209.375C272.242 209.375 270.875 210.781 270.875 212.5C270.875 214.258 272.242 215.625 274 215.625Z" fill="#15230C"/>
<path d="M311.416 210.525C312.411 211.325 312.411 212.842 311.416 213.642L303.592 219.932C302.283 220.985 300.339 220.053 300.339 218.374L300.339 205.793C300.339 204.114 302.283 203.182 303.592 204.234L311.416 210.525Z" fill="#15230C"/>
<path d="M141 210C139.895 210 139 210.895 139 212C139 213.105 139.895 214 141 214L141 210ZM141 214L201 214L201 210L141 210L141 214Z" fill="#18181B"/>
<rect x="162" y="201" width="22" height="22" rx="11" fill="white"/>
<path d="M182.336 209.023C182.492 209.375 182.375 209.727 182.102 210L180.422 211.523C180.461 211.836 180.5 212.188 180.5 212.5C180.5 212.852 180.461 213.203 180.422 213.516L182.102 215.039C182.375 215.312 182.492 215.664 182.336 216.016C182.18 216.484 181.984 216.914 181.75 217.344L181.555 217.656C181.281 218.086 181.008 218.516 180.695 218.906C180.461 219.18 180.07 219.258 179.719 219.141L177.57 218.477C177.023 218.867 176.438 219.18 175.852 219.453L175.344 221.68C175.266 222.031 174.992 222.305 174.641 222.383C174.094 222.461 173.547 222.5 172.961 222.5C172.414 222.5 171.867 222.461 171.32 222.383C170.969 222.305 170.695 222.031 170.617 221.68L170.109 219.453C169.523 219.18 168.938 218.867 168.391 218.477L166.242 219.141C165.891 219.258 165.5 219.18 165.266 218.906C164.953 218.516 164.68 218.086 164.406 217.656L164.211 217.344C163.977 216.914 163.781 216.484 163.625 216.016C163.469 215.664 163.586 215.312 163.859 215.039L165.539 213.516C165.5 213.203 165.5 212.852 165.5 212.5C165.5 212.188 165.5 211.836 165.539 211.523L163.859 210C163.586 209.727 163.469 209.375 163.625 209.023C163.781 208.555 163.977 208.125 164.211 207.695L164.406 207.383C164.68 206.953 164.953 206.523 165.266 206.133C165.5 205.859 165.891 205.781 166.242 205.898L168.391 206.562C168.938 206.172 169.523 205.82 170.109 205.586L170.617 203.359C170.695 203.008 170.969 202.734 171.32 202.656C171.867 202.578 172.414 202.5 173 202.5C173.547 202.5 174.094 202.578 174.641 202.656C174.992 202.734 175.266 203.008 175.344 203.359L175.852 205.586C176.438 205.82 177.023 206.172 177.57 206.562L179.719 205.898C180.07 205.781 180.461 205.859 180.695 206.133C181.008 206.523 181.281 206.953 181.555 207.383L181.75 207.695C181.984 208.125 182.18 208.555 182.336 209.023ZM173 215.625C174.719 215.625 176.125 214.258 176.125 212.5C176.125 210.781 174.719 209.375 173 209.375C171.242 209.375 169.875 210.781 169.875 212.5C169.875 214.258 171.242 215.625 173 215.625Z" fill="#18181B"/>
<path d="M210.416 210.525C211.411 211.325 211.411 212.842 210.416 213.642L202.592 219.932C201.283 220.985 199.339 220.053 199.339 218.374L199.339 205.793C199.339 204.114 201.283 203.182 202.592 204.234L210.416 210.525Z" fill="#18181B"/>
<rect x="26" y="176" width="91" height="71" rx="7" fill="white"/>
<path d="M39.8527 212.5L39.2367 210.988H34.9527L34.3367 212.5H32.0267L35.9467 202.882H38.2567L42.1767 212.5H39.8527ZM35.6667 209.238H38.5227L37.0947 205.724L35.6667 209.238ZM47.7204 205.094C49.6524 205.094 51.0524 206.662 51.0524 208.874C51.0524 211.1 49.6524 212.668 47.7204 212.668C46.7124 212.668 45.8724 212.234 45.2984 211.478V214.908H43.2544V205.262H45.2984V206.27C45.8724 205.528 46.7124 205.094 47.7204 205.094ZM47.1324 210.946C48.2664 210.946 49.0644 210.092 49.0644 208.874C49.0644 207.67 48.2664 206.816 47.1324 206.816C46.1384 206.816 45.4104 207.544 45.2984 208.594V209.154C45.4104 210.218 46.1384 210.946 47.1324 210.946ZM56.9626 205.094C58.8946 205.094 60.2946 206.662 60.2946 208.874C60.2946 211.1 58.8946 212.668 56.9626 212.668C55.9546 212.668 55.1146 212.234 54.5406 211.478V214.908H52.4966V205.262H54.5406V206.27C55.1146 205.528 55.9546 205.094 56.9626 205.094ZM56.3746 210.946C57.5086 210.946 58.3066 210.092 58.3066 208.874C58.3066 207.67 57.5086 206.816 56.3746 206.816C55.3806 206.816 54.6526 207.544 54.5406 208.594V209.154C54.6526 210.218 55.3806 210.946 56.3746 210.946ZM61.7388 212.5V202.714H63.7828V212.5H61.7388ZM66.5889 204.268C65.9589 204.268 65.4689 203.764 65.4689 203.148C65.4689 202.574 65.9589 202.056 66.5889 202.056C67.1909 202.056 67.6809 202.574 67.6809 203.148C67.6809 203.764 67.1909 204.268 66.5889 204.268ZM65.5529 212.5V205.262H67.5969V212.5H65.5529ZM72.9234 212.668C70.7814 212.668 68.9754 210.932 68.9754 208.874C68.9754 206.816 70.7954 205.094 72.9374 205.094C74.1134 205.094 75.0794 205.57 75.7794 206.326L74.4214 207.488C74.0574 207.082 73.4834 206.816 72.9234 206.816C71.8594 206.816 70.9634 207.754 70.9634 208.86C70.9634 209.994 71.8594 210.946 72.9374 210.946C73.4974 210.946 74.0854 210.666 74.4634 210.246L75.8214 211.394C75.1074 212.178 74.1274 212.668 72.9234 212.668ZM80.2853 205.094C82.1753 205.094 83.4633 206.284 83.4633 208.174V212.5H81.4893V211.772C80.9713 212.36 80.1453 212.668 79.3613 212.668C77.8213 212.668 76.6313 211.744 76.6313 210.358C76.6313 208.93 77.9613 207.95 79.6413 207.95C80.2293 207.95 80.8733 208.076 81.4893 208.314V208.174C81.4893 207.404 81.0133 206.732 79.8233 206.732C79.1513 206.732 78.5213 206.956 77.9473 207.25L77.2613 205.892C78.2833 205.374 79.2773 205.094 80.2853 205.094ZM79.8233 211.254C80.6073 211.254 81.3493 210.89 81.4893 210.218V209.546C81.0273 209.378 80.4953 209.28 79.9353 209.28C79.1933 209.28 78.6053 209.714 78.6053 210.302C78.6053 210.89 79.1233 211.254 79.8233 211.254ZM88.994 210.708L89.484 212.038C89.064 212.416 88.406 212.668 87.818 212.668C86.544 212.668 85.648 211.758 85.648 210.456V206.914H84.654V205.262H85.648V203.274H87.608V205.262H89.176V206.914H87.608V210.134C87.608 210.61 87.916 210.946 88.294 210.946C88.574 210.946 88.854 210.848 88.994 210.708ZM91.7862 204.268C91.1562 204.268 90.6662 203.764 90.6662 203.148C90.6662 202.574 91.1562 202.056 91.7862 202.056C92.3882 202.056 92.8782 202.574 92.8782 203.148C92.8782 203.764 92.3882 204.268 91.7862 204.268ZM90.7502 212.5V205.262H92.7942V212.5H90.7502ZM98.1346 212.668C95.9786 212.668 94.1726 210.932 94.1726 208.874C94.1726 206.816 95.9786 205.094 98.1346 205.094C100.277 205.094 102.069 206.816 102.069 208.874C102.069 210.932 100.277 212.668 98.1346 212.668ZM98.1346 210.946C99.2126 210.946 100.123 209.994 100.123 208.874C100.123 207.754 99.2126 206.816 98.1346 206.816C97.0426 206.816 96.1326 207.754 96.1326 208.874C96.1326 209.994 97.0426 210.946 98.1346 210.946ZM107.638 205.094C109.206 205.094 110.326 206.256 110.326 207.894V212.5H108.352V208.328C108.352 207.432 107.792 206.816 106.98 206.816C106.126 206.816 105.468 207.432 105.468 208.216L105.454 208.174V212.5H103.41V205.262H105.454V206.172C105.888 205.514 106.7 205.094 107.638 205.094ZM58.9712 226.668C56.8292 226.668 55.0232 224.932 55.0232 222.874C55.0232 220.816 56.8432 219.094 58.9852 219.094C60.1612 219.094 61.1272 219.57 61.8272 220.326L60.4692 221.488C60.1052 221.082 59.5312 220.816 58.9712 220.816C57.9072 220.816 57.0112 221.754 57.0112 222.86C57.0112 223.994 57.9072 224.946 58.9852 224.946C59.5452 224.946 60.1332 224.666 60.5112 224.246L61.8692 225.394C61.1552 226.178 60.1752 226.668 58.9712 226.668ZM66.5047 226.668C64.3487 226.668 62.5427 224.932 62.5427 222.874C62.5427 220.816 64.3487 219.094 66.5047 219.094C68.6467 219.094 70.4387 220.816 70.4387 222.874C70.4387 224.932 68.6467 226.668 66.5047 226.668ZM66.5047 224.946C67.5827 224.946 68.4927 223.994 68.4927 222.874C68.4927 221.754 67.5827 220.816 66.5047 220.816C65.4127 220.816 64.5027 221.754 64.5027 222.874C64.5027 223.994 65.4127 224.946 66.5047 224.946ZM77.2258 216.714H79.2698V226.5H77.2258V225.464C76.6518 226.22 75.8118 226.668 74.7898 226.668C72.8578 226.668 71.4578 225.1 71.4578 222.874C71.4578 220.662 72.8578 219.094 74.7898 219.094C75.8118 219.094 76.6518 219.542 77.2258 220.298V216.714ZM75.3778 224.946C76.4558 224.946 77.2258 224.092 77.2258 222.874C77.2258 221.67 76.4558 220.816 75.3778 220.816C74.2438 220.816 73.4458 221.67 73.4458 222.874C73.4458 224.092 74.2438 224.946 75.3778 224.946ZM84.48 224.862C85.054 224.862 85.754 224.596 86.146 224.218L87.448 225.548C86.804 226.22 85.558 226.668 84.494 226.668C82.338 226.668 80.658 225.086 80.658 222.86C80.658 220.676 82.268 219.094 84.382 219.094C86.65 219.094 87.98 220.816 87.98 223.546H82.758C82.996 224.33 83.626 224.862 84.48 224.862ZM84.466 220.9C83.696 220.9 83.052 221.348 82.786 222.076H86.02C85.824 221.362 85.292 220.9 84.466 220.9Z" fill="#18181B"/>
<rect x="26" y="176" width="91" height="71" rx="7" stroke="#18181B" stroke-width="2"/>
<circle cx="71" cy="175" r="14" fill="white"/>
<path d="M91.457 173.278L83.186 159.22C82.4657 158 80.7047 157 79.2696 157H62.7276C61.2898 157 59.5288 158 58.8085 159.22L50.5402 173.278C49.8199 174.499 49.8199 176.496 50.5402 177.719L58.8112 191.78C59.5288 193 61.2925 194 62.7304 194H79.2724C80.7075 194 82.4712 193 83.1888 191.78L91.4598 177.719C92.1801 176.499 92.1801 174.501 91.4598 173.278H91.457ZM69.213 164.774C69.213 163.849 69.9771 163.099 70.9165 163.099C71.8559 163.099 72.6227 163.849 72.6227 164.774V174.773C72.6227 175.698 71.8586 176.448 70.9165 176.448C69.9743 176.448 69.213 175.698 69.213 174.773V164.774ZM70.9165 186.119C64.5407 186.119 59.3562 181.028 59.3562 174.773C59.3562 171.203 61.1008 167.798 64.023 165.666C64.694 165.174 65.6444 165.311 66.1456 165.972C66.644 166.631 66.5044 167.564 65.8334 168.056C63.6451 169.652 62.3908 172.104 62.3908 174.776C62.3908 179.391 66.2168 183.146 70.9192 183.146C75.6216 183.146 79.4477 179.391 79.4477 174.776C79.4477 172.128 78.1495 169.609 75.9749 168.034C75.3012 167.548 75.1588 166.615 75.6545 165.954C76.1529 165.292 77.1005 165.153 77.7743 165.639C80.7212 167.771 82.4794 171.187 82.4794 174.776C82.4794 181.033 77.2923 186.122 70.9192 186.122L70.9165 186.119Z" fill="#4C7C2C"/>
<circle cx="90" cy="164" r="8.5" fill="white" stroke="#4C7C2C"/>
<path d="M89.9853 168.156C88.4973 168.156 87.3693 167.568 86.6733 166.764L87.7173 165.588C88.2933 166.212 89.0733 166.56 89.9013 166.56C90.8133 166.56 91.3413 166.14 91.3413 165.552C91.3413 164.916 90.8493 164.592 89.7333 164.604H88.7853V163.092L89.7333 163.104C90.6333 163.104 91.1733 162.768 91.1733 162.18C91.1733 161.58 90.6093 161.196 89.7933 161.196C89.0133 161.196 88.4013 161.58 87.8493 162.156L86.8293 161.076C87.5133 160.248 88.4973 159.612 89.9613 159.612C91.8213 159.612 92.9853 160.56 92.9853 161.868C92.9853 162.816 92.3373 163.5 91.4373 163.764C92.3373 163.968 93.1653 164.604 93.1653 165.696C93.1653 167.124 91.9053 168.156 89.9853 168.156Z" fill="#4C7C2C"/>
<path fill-rule="evenodd" clip-rule="evenodd" d="M577.857 128C577.857 125.791 579.648 124 581.857 124H662.18C664.389 124 666.18 125.791 666.18 128V152.756H577.857V128ZM625.732 145.507C624.512 145.507 623.912 145.147 623.912 143.528V131.189H625.971V142.727C625.971 143.887 626.112 144.067 626.692 144.067C626.787 144.067 626.894 144.061 626.994 144.056H626.994C627.083 144.051 627.166 144.047 627.232 144.047L627.331 145.287C626.911 145.427 626.352 145.507 625.732 145.507ZM619.452 140.727H618.592C616.292 140.727 615.692 141.487 615.692 142.527C615.692 143.467 616.232 144.067 617.232 144.067C617.932 144.067 618.712 143.707 619.452 143.067V140.727ZM619.892 145.367L619.732 144.287C618.852 145.047 617.912 145.567 616.652 145.567C614.692 145.567 613.653 144.567 613.653 142.807C613.653 140.768 615.232 139.408 618.732 139.408H619.452V138.508C619.452 137.308 618.832 136.728 617.392 136.728C616.352 136.728 615.292 137.008 614.472 137.308L614.172 136.048C615.213 135.588 616.472 135.229 617.932 135.229C620.412 135.229 621.491 136.429 621.491 138.248V145.367H619.892ZM609.733 140.727H608.873C606.573 140.727 605.973 141.487 605.973 142.527C605.973 143.467 606.513 144.067 607.513 144.067C608.213 144.067 608.993 143.707 609.733 143.067V140.727ZM610.172 145.367L610.013 144.287C609.133 145.047 608.193 145.567 606.933 145.567C604.973 145.567 603.934 144.567 603.934 142.807C603.934 140.768 605.514 139.408 609.013 139.408H609.733V138.508C609.733 137.308 609.113 136.728 607.673 136.728C606.633 136.728 605.573 137.008 604.753 137.308L604.453 136.048C605.493 135.588 606.753 135.229 608.213 135.229C610.692 135.229 611.772 136.429 611.772 138.248V145.367H610.172ZM602.913 137.288C602.534 137.188 602.274 137.148 602.073 137.148C601.494 137.148 600.954 137.588 599.974 138.808V145.367H597.914V135.408H599.614L599.794 137.088C600.874 135.688 601.554 135.229 602.274 135.229C602.534 135.229 602.834 135.289 603.153 135.448L602.913 137.288ZM591.195 145.567C588.195 145.567 586.416 143.427 586.416 138.828C586.416 134.109 588.715 131.669 591.715 131.669C593.294 131.669 594.574 132.489 595.374 133.509L594.434 134.428C593.654 133.829 592.815 133.389 591.835 133.389C589.915 133.389 588.675 135.089 588.675 138.448C588.675 142.328 589.815 143.827 591.575 143.827C592.415 143.827 593.034 143.528 593.374 143.247V139.428H591.595V137.828H595.494V144.007C594.494 144.887 593.074 145.567 591.195 145.567ZM656.599 143.719H656.022V145.367H656.353V143.954L656.792 145.367H657.084L657.533 143.954V145.367H657.884V143.719H657.323L656.947 144.918L656.599 143.719ZM654.341 143.993H654.831V145.367H655.186V143.993H655.676V143.719H654.341V143.993ZM650.389 134.609C650.669 137.388 650.949 141.448 651.029 145.367H653.288C653.168 140.987 652.768 136.269 652.248 131.869H649.529L646.29 141.787H646.27L643.03 131.869H640.19C639.65 136.269 639.33 140.987 639.211 145.367H641.27C641.33 141.448 641.51 137.588 641.77 134.609H641.79L645.19 145.367H646.97L650.369 134.609H650.389ZM631.971 145.367H634.53C636.191 140.848 637.37 136.368 638.25 131.869H636.111C635.411 135.789 634.551 139.508 633.43 143.147C633.393 143.022 633.356 142.896 633.319 142.771C632.218 139.04 631.128 135.351 630.451 131.869H628.092C629.071 136.428 630.331 140.747 631.971 145.367Z" fill="#18181B"/>
</g>
<defs>
<clipPath id="clip0_420_189">
<rect width="743" height="431" fill="white"/>
</clipPath>
</defs>
</svg>
