<svg width="743" height="431" viewBox="0 0 743 431" fill="none" xmlns="http://www.w3.org/2000/svg">
<g clip-path="url(#clip0_402_627944)">
<rect width="743" height="431" fill="#F4F4F5"/>
<path d="M610 476L309.559 -13H0V476H610Z" fill="white"/>
<circle cx="8.64224" cy="220.949" r="2.94888" fill="#F4F4F5"/>
<circle cx="8.64224" cy="235.847" r="2.94888" fill="#F4F4F5"/>
<circle cx="8.64224" cy="250.744" r="2.94888" fill="#F4F4F5"/>
<circle cx="8.64224" cy="265.642" r="2.94888" fill="#F4F4F5"/>
<circle cx="8.64224" cy="280.54" r="2.94888" fill="#F4F4F5"/>
<circle cx="8.64224" cy="295.438" r="2.94888" fill="#F4F4F5"/>
<circle cx="8.64224" cy="310.335" r="2.94888" fill="#F4F4F5"/>
<circle cx="8.64224" cy="325.233" r="2.94888" fill="#F4F4F5"/>
<circle cx="8.64224" cy="340.131" r="2.94888" fill="#F4F4F5"/>
<circle cx="8.64224" cy="355.029" r="2.94888" fill="#F4F4F5"/>
<circle cx="8.64224" cy="369.927" r="2.94888" fill="#F4F4F5"/>
<circle cx="8.64224" cy="384.824" r="2.94888" fill="#F4F4F5"/>
<circle cx="23.5399" cy="220.949" r="2.94888" fill="#F4F4F5"/>
<circle cx="23.5399" cy="235.847" r="2.94888" fill="#F4F4F5"/>
<circle cx="23.5399" cy="250.744" r="2.94888" fill="#F4F4F5"/>
<circle cx="23.5399" cy="265.642" r="2.94888" fill="#F4F4F5"/>
<circle cx="23.5399" cy="280.54" r="2.94888" fill="#F4F4F5"/>
<circle cx="23.5399" cy="295.438" r="2.94888" fill="#F4F4F5"/>
<circle cx="23.5399" cy="310.335" r="2.94888" fill="#F4F4F5"/>
<circle cx="23.5399" cy="325.233" r="2.94888" fill="#F4F4F5"/>
<circle cx="23.5399" cy="340.131" r="2.94888" fill="#F4F4F5"/>
<circle cx="23.5399" cy="355.029" r="2.94888" fill="#F4F4F5"/>
<circle cx="23.5399" cy="369.927" r="2.94888" fill="#F4F4F5"/>
<circle cx="23.5399" cy="384.824" r="2.94888" fill="#F4F4F5"/>
<circle cx="38.4377" cy="220.949" r="2.94888" fill="#F4F4F5"/>
<circle cx="38.4377" cy="235.847" r="2.94888" fill="#F4F4F5"/>
<circle cx="38.4377" cy="250.744" r="2.94888" fill="#F4F4F5"/>
<circle cx="38.4377" cy="265.642" r="2.94888" fill="#F4F4F5"/>
<circle cx="38.4377" cy="280.54" r="2.94888" fill="#F4F4F5"/>
<circle cx="38.4377" cy="295.438" r="2.94888" fill="#F4F4F5"/>
<circle cx="38.4377" cy="310.335" r="2.94888" fill="#F4F4F5"/>
<circle cx="38.4377" cy="325.233" r="2.94888" fill="#F4F4F5"/>
<circle cx="38.4377" cy="340.131" r="2.94888" fill="#F4F4F5"/>
<circle cx="38.4377" cy="355.029" r="2.94888" fill="#F4F4F5"/>
<circle cx="38.4377" cy="369.927" r="2.94888" fill="#F4F4F5"/>
<circle cx="38.4377" cy="384.824" r="2.94888" fill="#F4F4F5"/>
<circle cx="53.3356" cy="220.949" r="2.94888" fill="#F4F4F5"/>
<circle cx="53.3356" cy="235.847" r="2.94888" fill="#F4F4F5"/>
<circle cx="53.3356" cy="250.744" r="2.94888" fill="#F4F4F5"/>
<circle cx="53.3356" cy="265.642" r="2.94888" fill="#F4F4F5"/>
<circle cx="53.3356" cy="280.54" r="2.94888" fill="#F4F4F5"/>
<circle cx="53.3356" cy="295.438" r="2.94888" fill="#F4F4F5"/>
<circle cx="53.3356" cy="310.335" r="2.94888" fill="#F4F4F5"/>
<circle cx="53.3356" cy="325.233" r="2.94888" fill="#F4F4F5"/>
<circle cx="53.3356" cy="340.131" r="2.94888" fill="#F4F4F5"/>
<circle cx="53.3356" cy="355.029" r="2.94888" fill="#F4F4F5"/>
<circle cx="53.3356" cy="369.927" r="2.94888" fill="#F4F4F5"/>
<circle cx="53.3356" cy="384.824" r="2.94888" fill="#F4F4F5"/>
<circle cx="68.2333" cy="220.949" r="2.94888" fill="#F4F4F5"/>
<circle cx="68.2333" cy="235.847" r="2.94888" fill="#F4F4F5"/>
<circle cx="68.2333" cy="250.744" r="2.94888" fill="#F4F4F5"/>
<circle cx="68.2333" cy="265.642" r="2.94888" fill="#F4F4F5"/>
<circle cx="68.2333" cy="280.54" r="2.94888" fill="#F4F4F5"/>
<circle cx="68.2333" cy="295.438" r="2.94888" fill="#F4F4F5"/>
<circle cx="68.2333" cy="310.335" r="2.94888" fill="#F4F4F5"/>
<circle cx="68.2333" cy="325.233" r="2.94888" fill="#F4F4F5"/>
<circle cx="68.2333" cy="340.131" r="2.94888" fill="#F4F4F5"/>
<circle cx="68.2333" cy="355.029" r="2.94888" fill="#F4F4F5"/>
<circle cx="68.2333" cy="369.927" r="2.94888" fill="#F4F4F5"/>
<circle cx="68.2333" cy="384.824" r="2.94888" fill="#F4F4F5"/>
<circle cx="83.131" cy="220.949" r="2.94888" fill="#F4F4F5"/>
<circle cx="83.131" cy="235.847" r="2.94888" fill="#F4F4F5"/>
<circle cx="83.131" cy="250.744" r="2.94888" fill="#F4F4F5"/>
<circle cx="83.131" cy="265.642" r="2.94888" fill="#F4F4F5"/>
<circle cx="83.131" cy="280.54" r="2.94888" fill="#F4F4F5"/>
<circle cx="83.131" cy="295.438" r="2.94888" fill="#F4F4F5"/>
<circle cx="83.131" cy="310.335" r="2.94888" fill="#F4F4F5"/>
<circle cx="83.131" cy="325.233" r="2.94888" fill="#F4F4F5"/>
<circle cx="83.131" cy="340.131" r="2.94888" fill="#F4F4F5"/>
<circle cx="83.131" cy="355.029" r="2.94888" fill="#F4F4F5"/>
<circle cx="83.131" cy="369.927" r="2.94888" fill="#F4F4F5"/>
<circle cx="83.131" cy="384.824" r="2.94888" fill="#F4F4F5"/>
<circle cx="98.0287" cy="220.949" r="2.94888" fill="#F4F4F5"/>
<circle cx="98.0287" cy="235.847" r="2.94888" fill="#F4F4F5"/>
<circle cx="98.0287" cy="250.744" r="2.94888" fill="#F4F4F5"/>
<circle cx="98.0287" cy="265.642" r="2.94888" fill="#F4F4F5"/>
<circle cx="98.0287" cy="280.54" r="2.94888" fill="#F4F4F5"/>
<circle cx="98.0287" cy="295.438" r="2.94888" fill="#F4F4F5"/>
<circle cx="98.0287" cy="310.335" r="2.94888" fill="#F4F4F5"/>
<circle cx="98.0287" cy="325.233" r="2.94888" fill="#F4F4F5"/>
<circle cx="98.0287" cy="340.131" r="2.94888" fill="#F4F4F5"/>
<circle cx="98.0287" cy="355.029" r="2.94888" fill="#F4F4F5"/>
<circle cx="98.0287" cy="369.927" r="2.94888" fill="#F4F4F5"/>
<circle cx="98.0287" cy="384.824" r="2.94888" fill="#F4F4F5"/>
<circle cx="112.927" cy="220.949" r="2.94888" fill="#F4F4F5"/>
<circle cx="112.927" cy="235.847" r="2.94888" fill="#F4F4F5"/>
<circle cx="112.927" cy="250.744" r="2.94888" fill="#F4F4F5"/>
<circle cx="112.927" cy="265.642" r="2.94888" fill="#F4F4F5"/>
<circle cx="112.927" cy="280.54" r="2.94888" fill="#F4F4F5"/>
<circle cx="112.927" cy="295.438" r="2.94888" fill="#F4F4F5"/>
<circle cx="112.927" cy="310.335" r="2.94888" fill="#F4F4F5"/>
<circle cx="112.927" cy="325.233" r="2.94888" fill="#F4F4F5"/>
<circle cx="112.927" cy="340.131" r="2.94888" fill="#F4F4F5"/>
<circle cx="112.927" cy="355.029" r="2.94888" fill="#F4F4F5"/>
<circle cx="112.927" cy="369.927" r="2.94888" fill="#F4F4F5"/>
<circle cx="112.927" cy="384.824" r="2.94888" fill="#F4F4F5"/>
<circle cx="127.824" cy="220.949" r="2.94888" fill="#F4F4F5"/>
<circle cx="127.824" cy="235.847" r="2.94888" fill="#F4F4F5"/>
<circle cx="127.824" cy="250.744" r="2.94888" fill="#F4F4F5"/>
<circle cx="127.824" cy="265.642" r="2.94888" fill="#F4F4F5"/>
<circle cx="127.824" cy="280.54" r="2.94888" fill="#F4F4F5"/>
<circle cx="127.824" cy="295.438" r="2.94888" fill="#F4F4F5"/>
<circle cx="127.824" cy="310.335" r="2.94888" fill="#F4F4F5"/>
<circle cx="127.824" cy="325.233" r="2.94888" fill="#F4F4F5"/>
<circle cx="127.824" cy="340.131" r="2.94888" fill="#F4F4F5"/>
<circle cx="127.824" cy="355.029" r="2.94888" fill="#F4F4F5"/>
<circle cx="127.824" cy="369.927" r="2.94888" fill="#F4F4F5"/>
<circle cx="127.824" cy="384.824" r="2.94888" fill="#F4F4F5"/>
<path d="M239.094 284.168C236.392 284.168 234.096 281.886 234.096 279.184C234.096 276.482 236.392 274.214 239.094 274.214C240.466 274.214 241.726 274.788 242.636 275.726L241.642 276.678C240.998 275.978 240.088 275.516 239.094 275.516C237.176 275.516 235.552 277.196 235.552 279.184C235.552 281.186 237.176 282.866 239.094 282.866C240.088 282.866 240.998 282.404 241.642 281.704L242.636 282.656C241.726 283.58 240.466 284.168 239.094 284.168ZM247.446 284.168C245.374 284.168 243.624 282.432 243.624 280.374C243.624 278.316 245.374 276.594 247.446 276.594C249.504 276.594 251.24 278.316 251.24 280.374C251.24 282.432 249.504 284.168 247.446 284.168ZM247.446 282.964C248.748 282.964 249.854 281.788 249.854 280.374C249.854 278.974 248.748 277.798 247.446 277.798C246.116 277.798 245.01 278.974 245.01 280.374C245.01 281.788 246.116 282.964 247.446 282.964ZM260.954 276.594C262.466 276.594 263.558 277.756 263.558 279.394V284H262.2V279.604C262.2 278.54 261.57 277.798 260.66 277.798C259.624 277.798 258.896 278.484 258.896 279.478V284H257.538V279.604C257.538 278.54 256.908 277.798 255.998 277.798C254.962 277.798 254.234 278.484 254.234 279.478V284H252.848V276.762H254.234V277.77C254.598 277.056 255.354 276.594 256.278 276.594C257.328 276.594 258.182 277.154 258.602 278.05C258.938 277.154 259.862 276.594 260.954 276.594ZM269.567 276.594C271.471 276.594 272.899 278.162 272.899 280.374C272.899 282.6 271.471 284.168 269.567 284.168C268.447 284.168 267.551 283.636 266.991 282.74V286.408H265.619V276.762H266.991V278.008C267.551 277.126 268.447 276.594 269.567 276.594ZM269.231 282.964C270.561 282.964 271.499 281.886 271.499 280.374C271.499 278.862 270.561 277.798 269.231 277.798C267.929 277.798 266.991 278.862 266.991 280.374C266.991 281.886 267.929 282.964 269.231 282.964ZM275.258 275.558C274.782 275.558 274.418 275.166 274.418 274.718C274.418 274.284 274.782 273.892 275.258 273.892C275.706 273.892 276.084 274.284 276.084 274.718C276.084 275.166 275.706 275.558 275.258 275.558ZM274.558 284V276.762H275.944V284H274.558ZM277.949 284V274.214H279.321V284H277.949ZM284.658 282.936C285.414 282.936 286.296 282.6 286.73 282.152L287.598 283.048C286.954 283.734 285.694 284.168 284.672 284.168C282.656 284.168 280.948 282.586 280.948 280.36C280.948 278.19 282.558 276.594 284.56 276.594C286.772 276.594 288.046 278.274 288.046 280.864H282.348C282.53 282.068 283.412 282.936 284.658 282.936ZM284.616 277.826C283.496 277.826 282.586 278.582 282.362 279.758H286.702C286.548 278.638 285.862 277.826 284.616 277.826ZM296.458 286.38C294.554 284.854 293.462 282.726 293.462 280.29C293.462 277.84 294.554 275.726 296.458 274.2L297.186 274.956C295.674 276.496 294.89 278.078 294.89 280.29C294.89 282.488 295.674 284.084 297.186 285.61L296.458 286.38ZM299.471 275.558C298.995 275.558 298.631 275.166 298.631 274.718C298.631 274.284 298.995 273.892 299.471 273.892C299.919 273.892 300.297 274.284 300.297 274.718C300.297 275.166 299.919 275.558 299.471 275.558ZM298.225 286.492C297.791 286.492 297.287 286.38 296.993 286.24L297.175 285.162C297.385 285.246 297.735 285.302 298.015 285.302C298.463 285.302 298.771 284.938 298.771 284.434V276.762H300.157V284.504C300.157 285.666 299.359 286.492 298.225 286.492ZM305.2 276.594C307.146 276.594 308.224 277.826 308.224 279.618V284H306.866V283.006C306.334 283.762 305.34 284.168 304.458 284.168C302.918 284.168 301.784 283.272 301.784 281.858C301.784 280.416 303.086 279.45 304.682 279.45C305.396 279.45 306.166 279.604 306.866 279.842V279.618C306.866 278.708 306.446 277.742 305.004 277.742C304.29 277.742 303.59 278.022 302.96 278.344L302.456 277.322C303.492 276.804 304.402 276.594 305.2 276.594ZM304.724 283.076C305.62 283.076 306.628 282.628 306.866 281.732V280.766C306.278 280.584 305.606 280.486 304.892 280.486C303.926 280.486 303.114 281.032 303.114 281.816C303.114 282.6 303.814 283.076 304.724 283.076ZM312.637 284L309.529 276.762H311.027L313.281 282.39L315.493 276.762H316.991L313.939 284H312.637ZM320.814 276.594C322.76 276.594 323.838 277.826 323.838 279.618V284H322.48V283.006C321.948 283.762 320.954 284.168 320.072 284.168C318.532 284.168 317.398 283.272 317.398 281.858C317.398 280.416 318.7 279.45 320.296 279.45C321.01 279.45 321.78 279.604 322.48 279.842V279.618C322.48 278.708 322.06 277.742 320.618 277.742C319.904 277.742 319.204 278.022 318.574 278.344L318.07 277.322C319.106 276.804 320.016 276.594 320.814 276.594ZM320.338 283.076C321.234 283.076 322.242 282.628 322.48 281.732V280.766C321.892 280.584 321.22 280.486 320.506 280.486C319.54 280.486 318.728 281.032 318.728 281.816C318.728 282.6 319.428 283.076 320.338 283.076ZM329.258 284.168C327.2 284.168 325.45 282.432 325.45 280.374C325.45 278.316 327.2 276.594 329.272 276.594C330.308 276.594 331.246 277.028 331.932 277.714L330.994 278.582C330.56 278.092 329.93 277.798 329.258 277.798C327.942 277.798 326.85 278.974 326.85 280.374C326.85 281.788 327.942 282.964 329.272 282.964C329.944 282.964 330.588 282.656 331.036 282.152L331.974 283.006C331.274 283.72 330.336 284.168 329.258 284.168ZM333.765 286.38L333.037 285.61C334.535 284.084 335.333 282.488 335.333 280.29C335.333 278.078 334.535 276.496 333.037 274.956L333.765 274.2C335.669 275.726 336.761 277.84 336.761 280.29C336.761 282.726 335.669 284.854 333.765 286.38Z" fill="#18181B"/>
<path d="M396.934 284V274.382H400.98C403.01 274.382 404.55 275.684 404.55 277.518C404.55 279.352 403.01 280.654 400.98 280.654H398.348V284H396.934ZM398.348 279.338H400.784C402.17 279.338 403.108 278.652 403.108 277.518C403.108 276.384 402.17 275.698 400.784 275.698H398.348V279.338ZM409.022 276.594C410.968 276.594 412.046 277.826 412.046 279.618V284H410.688V283.006C410.156 283.762 409.162 284.168 408.28 284.168C406.74 284.168 405.606 283.272 405.606 281.858C405.606 280.416 406.908 279.45 408.504 279.45C409.218 279.45 409.988 279.604 410.688 279.842V279.618C410.688 278.708 410.268 277.742 408.826 277.742C408.112 277.742 407.412 278.022 406.782 278.344L406.278 277.322C407.314 276.804 408.224 276.594 409.022 276.594ZM408.546 283.076C409.442 283.076 410.45 282.628 410.688 281.732V280.766C410.1 280.584 409.428 280.486 408.714 280.486C407.748 280.486 406.936 281.032 406.936 281.816C406.936 282.6 407.636 283.076 408.546 283.076ZM417.466 284.168C415.408 284.168 413.658 282.432 413.658 280.374C413.658 278.316 415.408 276.594 417.48 276.594C418.516 276.594 419.454 277.028 420.14 277.714L419.202 278.582C418.768 278.092 418.138 277.798 417.466 277.798C416.15 277.798 415.058 278.974 415.058 280.374C415.058 281.788 416.15 282.964 417.48 282.964C418.152 282.964 418.796 282.656 419.244 282.152L420.182 283.006C419.482 283.72 418.544 284.168 417.466 284.168ZM428.245 276.762L425.123 280.038L428.105 284H426.453L424.185 280.962L423.023 282.138V284H421.651V274.214H423.023V280.458L426.565 276.762H428.245ZM432.428 276.594C434.374 276.594 435.452 277.826 435.452 279.618V284H434.094V283.006C433.562 283.762 432.568 284.168 431.686 284.168C430.146 284.168 429.012 283.272 429.012 281.858C429.012 280.416 430.314 279.45 431.91 279.45C432.624 279.45 433.394 279.604 434.094 279.842V279.618C434.094 278.708 433.674 277.742 432.232 277.742C431.518 277.742 430.818 278.022 430.188 278.344L429.684 277.322C430.72 276.804 431.63 276.594 432.428 276.594ZM431.952 283.076C432.848 283.076 433.856 282.628 434.094 281.732V280.766C433.506 280.584 432.834 280.486 432.12 280.486C431.154 280.486 430.342 281.032 430.342 281.816C430.342 282.6 431.042 283.076 431.952 283.076ZM442.958 276.762H444.344V283.23C444.344 285.092 442.818 286.408 440.676 286.408C439.458 286.408 438.338 286.002 437.652 285.442L438.198 284.406C438.73 284.91 439.598 285.204 440.466 285.204C442.02 285.204 442.958 284.462 442.958 283.202V282.152C442.384 282.978 441.488 283.468 440.396 283.468C438.492 283.468 437.106 282.04 437.106 280.024C437.106 278.008 438.492 276.594 440.396 276.594C441.488 276.594 442.412 277.112 442.958 277.924V276.762ZM440.746 282.264C442.034 282.264 442.958 281.34 442.958 280.024C442.958 278.722 442.034 277.798 440.746 277.798C439.458 277.798 438.548 278.722 438.548 280.024C438.548 281.34 439.458 282.264 440.746 282.264ZM447.097 275.558C446.621 275.558 446.257 275.166 446.257 274.718C446.257 274.284 446.621 273.892 447.097 273.892C447.545 273.892 447.923 274.284 447.923 274.718C447.923 275.166 447.545 275.558 447.097 275.558ZM446.397 284V276.762H447.783V284H446.397ZM453.47 276.594C455.066 276.594 456.186 277.756 456.186 279.394V284H454.828V279.632C454.828 278.554 454.142 277.798 453.162 277.798C452.154 277.798 451.286 278.456 451.174 279.31V284H449.788V276.762H451.174V277.812C451.608 277.098 452.49 276.594 453.47 276.594ZM463.671 276.762H465.057V283.23C465.057 285.092 463.531 286.408 461.389 286.408C460.171 286.408 459.051 286.002 458.365 285.442L458.911 284.406C459.443 284.91 460.311 285.204 461.179 285.204C462.733 285.204 463.671 284.462 463.671 283.202V282.152C463.097 282.978 462.201 283.468 461.109 283.468C459.205 283.468 457.819 282.04 457.819 280.024C457.819 278.008 459.205 276.594 461.109 276.594C462.201 276.594 463.125 277.112 463.671 277.924V276.762ZM461.459 282.264C462.747 282.264 463.671 281.34 463.671 280.024C463.671 278.722 462.747 277.798 461.459 277.798C460.171 277.798 459.261 278.722 459.261 280.024C459.261 281.34 460.171 282.264 461.459 282.264ZM389.531 298L386.423 290.762H387.921L390.175 296.39L392.387 290.762H393.885L390.833 298H389.531ZM395.889 289.558C395.413 289.558 395.049 289.166 395.049 288.718C395.049 288.284 395.413 287.892 395.889 287.892C396.337 287.892 396.715 288.284 396.715 288.718C396.715 289.166 396.337 289.558 395.889 289.558ZM395.189 298V290.762H396.575V298H395.189ZM401.618 290.594C403.564 290.594 404.642 291.826 404.642 293.618V298H403.284V297.006C402.752 297.762 401.758 298.168 400.876 298.168C399.336 298.168 398.202 297.272 398.202 295.858C398.202 294.416 399.504 293.45 401.1 293.45C401.814 293.45 402.584 293.604 403.284 293.842V293.618C403.284 292.708 402.864 291.742 401.422 291.742C400.708 291.742 400.008 292.022 399.378 292.344L398.874 291.322C399.91 290.804 400.82 290.594 401.618 290.594ZM401.142 297.076C402.038 297.076 403.046 296.628 403.284 295.732V294.766C402.696 294.584 402.024 294.486 401.31 294.486C400.344 294.486 399.532 295.032 399.532 295.816C399.532 296.6 400.232 297.076 401.142 297.076ZM410.863 298V288.382H415.427C417.037 288.382 418.171 289.376 418.171 290.776C418.171 291.784 417.667 292.414 416.799 292.904C417.919 293.45 418.563 294.318 418.563 295.382C418.563 296.922 417.331 298 415.609 298H410.863ZM412.277 292.386H415.077C416.043 292.386 416.729 291.812 416.729 291.014C416.729 290.216 416.043 289.628 415.077 289.628H412.277V292.386ZM412.277 296.754H415.287C416.365 296.754 417.121 296.096 417.121 295.172C417.121 294.248 416.365 293.59 415.287 293.59H412.277V296.754ZM425.275 290.762H426.661V298H425.275V296.95C424.841 297.664 423.959 298.168 422.979 298.168C421.383 298.168 420.263 297.006 420.263 295.368V290.762H421.621V295.13C421.621 296.208 422.307 296.964 423.287 296.964C424.295 296.964 425.163 296.306 425.275 295.452V290.762ZM429.358 289.558C428.882 289.558 428.518 289.166 428.518 288.718C428.518 288.284 428.882 287.892 429.358 287.892C429.806 287.892 430.184 288.284 430.184 288.718C430.184 289.166 429.806 289.558 429.358 289.558ZM428.658 298V290.762H430.044V298H428.658ZM432.049 298V288.214H433.421V298H432.049ZM441.012 288.214H442.384V298H441.012V296.74C440.452 297.636 439.556 298.168 438.436 298.168C436.532 298.168 435.104 296.6 435.104 294.374C435.104 292.162 436.532 290.594 438.436 290.594C439.556 290.594 440.452 291.126 441.012 292.008V288.214ZM438.772 296.964C440.074 296.964 441.012 295.886 441.012 294.374C441.012 292.862 440.074 291.798 438.772 291.798C437.442 291.798 436.504 292.862 436.504 294.374C436.504 295.886 437.442 296.964 438.772 296.964ZM448.481 290.594C450.385 290.594 451.813 292.162 451.813 294.374C451.813 296.6 450.385 298.168 448.481 298.168C447.361 298.168 446.465 297.636 445.905 296.74V300.408H444.533V290.762H445.905V292.008C446.465 291.126 447.361 290.594 448.481 290.594ZM448.145 296.964C449.475 296.964 450.413 295.886 450.413 294.374C450.413 292.862 449.475 291.798 448.145 291.798C446.843 291.798 445.905 292.862 445.905 294.374C445.905 295.886 446.843 296.964 448.145 296.964ZM456.525 290.594C458.471 290.594 459.549 291.826 459.549 293.618V298H458.191V297.006C457.659 297.762 456.665 298.168 455.783 298.168C454.243 298.168 453.109 297.272 453.109 295.858C453.109 294.416 454.411 293.45 456.007 293.45C456.721 293.45 457.491 293.604 458.191 293.842V293.618C458.191 292.708 457.771 291.742 456.329 291.742C455.615 291.742 454.915 292.022 454.285 292.344L453.781 291.322C454.817 290.804 455.727 290.594 456.525 290.594ZM456.049 297.076C456.945 297.076 457.953 296.628 458.191 295.732V294.766C457.603 294.584 456.931 294.486 456.217 294.486C455.251 294.486 454.439 295.032 454.439 295.816C454.439 296.6 455.139 297.076 456.049 297.076ZM464.969 298.168C462.911 298.168 461.161 296.432 461.161 294.374C461.161 292.316 462.911 290.594 464.983 290.594C466.019 290.594 466.957 291.028 467.643 291.714L466.705 292.582C466.271 292.092 465.641 291.798 464.969 291.798C463.653 291.798 462.561 292.974 462.561 294.374C462.561 295.788 463.653 296.964 464.983 296.964C465.655 296.964 466.299 296.656 466.747 296.152L467.685 297.006C466.985 297.72 466.047 298.168 464.969 298.168ZM475.748 290.762L472.626 294.038L475.608 298H473.956L471.688 294.962L470.526 296.138V298H469.154V288.214H470.526V294.458L474.068 290.762H475.748Z" fill="#18181B"/>
<rect x="529" y="142" width="186" height="168" rx="7" fill="#E4E4E7"/>
<path d="M590.91 169.192C587.822 169.192 585.198 166.584 585.198 163.496C585.198 160.408 587.822 157.816 590.91 157.816C592.478 157.816 593.918 158.472 594.958 159.544L593.822 160.632C593.086 159.832 592.046 159.304 590.91 159.304C588.718 159.304 586.862 161.224 586.862 163.496C586.862 165.784 588.718 167.704 590.91 167.704C592.046 167.704 593.086 167.176 593.822 166.376L594.958 167.464C593.918 168.52 592.478 169.192 590.91 169.192ZM600.455 169.192C598.087 169.192 596.087 167.208 596.087 164.856C596.087 162.504 598.087 160.536 600.455 160.536C602.807 160.536 604.791 162.504 604.791 164.856C604.791 167.208 602.807 169.192 600.455 169.192ZM600.455 167.816C601.943 167.816 603.207 166.472 603.207 164.856C603.207 163.256 601.943 161.912 600.455 161.912C598.935 161.912 597.671 163.256 597.671 164.856C597.671 166.472 598.935 167.816 600.455 167.816ZM610.852 160.536C612.676 160.536 613.956 161.864 613.956 163.736V169H612.404V164.008C612.404 162.776 611.62 161.912 610.5 161.912C609.348 161.912 608.356 162.664 608.228 163.64V169H606.644V160.728H608.228V161.928C608.724 161.112 609.732 160.536 610.852 160.536ZM620.094 167.512L620.67 168.6C620.222 168.968 619.614 169.192 619.022 169.192C617.742 169.192 616.846 168.264 616.846 166.936V162.072H615.598V160.728H616.846V158.456H618.398V160.728H620.35V162.072H618.398V166.824C618.398 167.4 618.782 167.816 619.246 167.816C619.598 167.816 619.918 167.688 620.094 167.512ZM625.757 160.536C627.981 160.536 629.213 161.944 629.213 163.992V169H627.661V167.864C627.053 168.728 625.917 169.192 624.909 169.192C623.149 169.192 621.853 168.168 621.853 166.552C621.853 164.904 623.341 163.8 625.165 163.8C625.981 163.8 626.861 163.976 627.661 164.248V163.992C627.661 162.952 627.181 161.848 625.533 161.848C624.717 161.848 623.917 162.168 623.197 162.536L622.621 161.368C623.805 160.776 624.845 160.536 625.757 160.536ZM625.213 167.944C626.237 167.944 627.389 167.432 627.661 166.408V165.304C626.989 165.096 626.221 164.984 625.405 164.984C624.301 164.984 623.373 165.608 623.373 166.504C623.373 167.4 624.173 167.944 625.213 167.944ZM632.288 159.352C631.744 159.352 631.328 158.904 631.328 158.392C631.328 157.896 631.744 157.448 632.288 157.448C632.8 157.448 633.232 157.896 633.232 158.392C633.232 158.904 632.8 159.352 632.288 159.352ZM631.488 169V160.728H633.072V169H631.488ZM639.571 160.536C641.395 160.536 642.675 161.864 642.675 163.736V169H641.123V164.008C641.123 162.776 640.339 161.912 639.219 161.912C638.067 161.912 637.075 162.664 636.947 163.64V169H635.363V160.728H636.947V161.928C637.443 161.112 638.451 160.536 639.571 160.536ZM648.733 167.784C649.597 167.784 650.605 167.4 651.101 166.888L652.093 167.912C651.357 168.696 649.917 169.192 648.749 169.192C646.445 169.192 644.493 167.384 644.493 164.84C644.493 162.36 646.333 160.536 648.621 160.536C651.149 160.536 652.605 162.456 652.605 165.416H646.093C646.301 166.792 647.309 167.784 648.733 167.784ZM648.685 161.944C647.405 161.944 646.365 162.808 646.109 164.152H651.069C650.893 162.872 650.109 161.944 648.685 161.944ZM656.105 162.312C656.633 161.224 657.753 160.536 659.177 160.536V161.912C657.465 161.912 656.249 162.856 656.105 164.296V169H654.521V160.728H656.105V162.312Z" fill="#18181B"/>
<path d="M537 195C537 191.134 540.134 188 544 188H700C703.866 188 707 191.134 707 195V226H537V195Z" fill="white"/>
<path d="M572.272 203.536C574.496 203.536 575.728 204.944 575.728 206.992V212H574.176V210.864C573.568 211.728 572.432 212.192 571.424 212.192C569.664 212.192 568.368 211.168 568.368 209.552C568.368 207.904 569.856 206.8 571.68 206.8C572.496 206.8 573.376 206.976 574.176 207.248V206.992C574.176 205.952 573.696 204.848 572.048 204.848C571.232 204.848 570.432 205.168 569.712 205.536L569.136 204.368C570.32 203.776 571.36 203.536 572.272 203.536ZM571.728 210.944C572.752 210.944 573.904 210.432 574.176 209.408V208.304C573.504 208.096 572.736 207.984 571.92 207.984C570.816 207.984 569.888 208.608 569.888 209.504C569.888 210.4 570.688 210.944 571.728 210.944ZM582.611 203.536C584.787 203.536 586.419 205.328 586.419 207.856C586.419 210.4 584.787 212.192 582.611 212.192C581.331 212.192 580.307 211.584 579.667 210.56V214.752H578.099V203.728H579.667V205.152C580.307 204.144 581.331 203.536 582.611 203.536ZM582.227 210.816C583.747 210.816 584.819 209.584 584.819 207.856C584.819 206.128 583.747 204.912 582.227 204.912C580.739 204.912 579.667 206.128 579.667 207.856C579.667 209.584 580.739 210.816 582.227 210.816ZM592.924 203.536C595.1 203.536 596.732 205.328 596.732 207.856C596.732 210.4 595.1 212.192 592.924 212.192C591.644 212.192 590.62 211.584 589.98 210.56V214.752H588.412V203.728H589.98V205.152C590.62 204.144 591.644 203.536 592.924 203.536ZM592.54 210.816C594.06 210.816 595.132 209.584 595.132 207.856C595.132 206.128 594.06 204.912 592.54 204.912C591.052 204.912 589.98 206.128 589.98 207.856C589.98 209.584 591.052 210.816 592.54 210.816ZM598.644 212V200.816H600.212V212H598.644ZM603.303 202.352C602.759 202.352 602.343 201.904 602.343 201.392C602.343 200.896 602.759 200.448 603.303 200.448C603.815 200.448 604.247 200.896 604.247 201.392C604.247 201.904 603.815 202.352 603.303 202.352ZM602.503 212V203.728H604.087V212H602.503ZM610.283 212.192C607.931 212.192 605.931 210.208 605.931 207.856C605.931 205.504 607.931 203.536 610.299 203.536C611.483 203.536 612.555 204.032 613.339 204.816L612.267 205.808C611.771 205.248 611.051 204.912 610.283 204.912C608.779 204.912 607.531 206.256 607.531 207.856C607.531 209.472 608.779 210.816 610.299 210.816C611.067 210.816 611.803 210.464 612.315 209.888L613.387 210.864C612.587 211.68 611.515 212.192 610.283 212.192ZM618.554 203.536C620.778 203.536 622.01 204.944 622.01 206.992V212H620.458V210.864C619.85 211.728 618.714 212.192 617.706 212.192C615.946 212.192 614.65 211.168 614.65 209.552C614.65 207.904 616.138 206.8 617.962 206.8C618.778 206.8 619.658 206.976 620.458 207.248V206.992C620.458 205.952 619.978 204.848 618.33 204.848C617.514 204.848 616.714 205.168 615.994 205.536L615.418 204.368C616.602 203.776 617.642 203.536 618.554 203.536ZM618.01 210.944C619.034 210.944 620.186 210.432 620.458 209.408V208.304C619.786 208.096 619.018 207.984 618.202 207.984C617.098 207.984 616.17 208.608 616.17 209.504C616.17 210.4 616.97 210.944 618.01 210.944ZM628.172 210.512L628.748 211.6C628.3 211.968 627.692 212.192 627.1 212.192C625.82 212.192 624.924 211.264 624.924 209.936V205.072H623.676V203.728H624.924V201.456H626.476V203.728H628.428V205.072H626.476V209.824C626.476 210.4 626.86 210.816 627.324 210.816C627.676 210.816 627.996 210.688 628.172 210.512ZM631.147 202.352C630.603 202.352 630.187 201.904 630.187 201.392C630.187 200.896 630.603 200.448 631.147 200.448C631.659 200.448 632.091 200.896 632.091 201.392C632.091 201.904 631.659 202.352 631.147 202.352ZM630.347 212V203.728H631.931V212H630.347ZM638.142 212.192C635.774 212.192 633.774 210.208 633.774 207.856C633.774 205.504 635.774 203.536 638.142 203.536C640.494 203.536 642.478 205.504 642.478 207.856C642.478 210.208 640.494 212.192 638.142 212.192ZM638.142 210.816C639.63 210.816 640.894 209.472 640.894 207.856C640.894 206.256 639.63 204.912 638.142 204.912C636.622 204.912 635.358 206.256 635.358 207.856C635.358 209.472 636.622 210.816 638.142 210.816ZM648.54 203.536C650.364 203.536 651.644 204.864 651.644 206.736V212H650.092V207.008C650.092 205.776 649.308 204.912 648.188 204.912C647.036 204.912 646.044 205.664 645.916 206.64V212H644.332V203.728H645.916V204.928C646.412 204.112 647.42 203.536 648.54 203.536ZM654.902 212.192C654.294 212.192 653.83 211.696 653.83 211.104C653.83 210.56 654.294 210.064 654.902 210.064C655.478 210.064 655.942 210.56 655.942 211.104C655.942 211.696 655.478 212.192 654.902 212.192ZM658.928 202.352C658.384 202.352 657.968 201.904 657.968 201.392C657.968 200.896 658.384 200.448 658.928 200.448C659.44 200.448 659.872 200.896 659.872 201.392C659.872 201.904 659.44 202.352 658.928 202.352ZM657.504 214.848C657.008 214.848 656.432 214.72 656.096 214.56L656.304 213.328C656.544 213.424 656.944 213.488 657.264 213.488C657.776 213.488 658.128 213.072 658.128 212.496V203.728H659.712V212.576C659.712 213.904 658.8 214.848 657.504 214.848ZM665.476 203.536C667.7 203.536 668.932 204.944 668.932 206.992V212H667.38V210.864C666.772 211.728 665.636 212.192 664.628 212.192C662.868 212.192 661.572 211.168 661.572 209.552C661.572 207.904 663.06 206.8 664.884 206.8C665.7 206.8 666.58 206.976 667.38 207.248V206.992C667.38 205.952 666.9 204.848 665.252 204.848C664.436 204.848 663.636 205.168 662.916 205.536L662.34 204.368C663.524 203.776 664.564 203.536 665.476 203.536ZM664.932 210.944C665.956 210.944 667.108 210.432 667.38 209.408V208.304C666.708 208.096 665.94 207.984 665.124 207.984C664.02 207.984 663.092 208.608 663.092 209.504C663.092 210.4 663.892 210.944 664.932 210.944ZM672.886 205.312C673.414 204.224 674.534 203.536 675.958 203.536V204.912C674.246 204.912 673.03 205.856 672.886 207.296V212H671.302V203.728H672.886V205.312Z" fill="#18181B"/>
<path d="M537 195C537 191.134 540.134 188 544 188H700C703.866 188 707 191.134 707 195V226H537V195Z" stroke="#18181B" stroke-width="2"/>
<rect x="537" y="226" width="170" height="38" fill="white"/>
<path d="M608.59 250.192C607.246 250.192 605.806 249.44 605.102 248.368L606.238 247.264C606.638 248.112 607.582 248.72 608.51 248.72C609.694 248.72 610.542 247.744 610.542 246.352V239.008H612.158V246.416C612.158 248.624 610.686 250.192 608.59 250.192ZM623.294 239.008H625.086L620.366 250H618.574L613.854 239.008H615.646L619.47 247.92L623.294 239.008ZM626.892 250V239.008H628.508L632.364 246.192L636.22 239.008H637.836V250H636.22V242.176L632.364 249.36L628.508 242.176V250H626.892Z" fill="#18181B"/>
<rect x="537" y="226" width="170" height="38" stroke="#18181B" stroke-width="2"/>
<path d="M537 264H707V295C707 298.866 703.866 302 700 302H544C540.134 302 537 298.866 537 295V264Z" fill="white"/>
<path d="M558.457 288.192C555.369 288.192 552.745 285.584 552.745 282.496C552.745 279.408 555.369 276.816 558.457 276.816C561.545 276.816 564.137 279.408 564.137 282.496C564.137 285.584 561.545 288.192 558.457 288.192ZM558.457 286.704C560.649 286.704 562.489 284.784 562.489 282.496C562.489 280.224 560.649 278.304 558.457 278.304C556.265 278.304 554.409 280.224 554.409 282.496C554.409 284.784 556.265 286.704 558.457 286.704ZM570.658 279.536C572.834 279.536 574.466 281.328 574.466 283.856C574.466 286.4 572.834 288.192 570.658 288.192C569.378 288.192 568.354 287.584 567.714 286.56V290.752H566.146V279.728H567.714V281.152C568.354 280.144 569.378 279.536 570.658 279.536ZM570.274 286.816C571.794 286.816 572.866 285.584 572.866 283.856C572.866 282.128 571.794 280.912 570.274 280.912C568.786 280.912 567.714 282.128 567.714 283.856C567.714 285.584 568.786 286.816 570.274 286.816ZM580.171 286.784C581.035 286.784 582.043 286.4 582.539 285.888L583.531 286.912C582.795 287.696 581.355 288.192 580.187 288.192C577.883 288.192 575.931 286.384 575.931 283.84C575.931 281.36 577.771 279.536 580.059 279.536C582.587 279.536 584.043 281.456 584.043 284.416H577.531C577.739 285.792 578.747 286.784 580.171 286.784ZM580.123 280.944C578.843 280.944 577.803 281.808 577.547 283.152H582.507C582.331 281.872 581.547 280.944 580.123 280.944ZM587.543 281.312C588.071 280.224 589.191 279.536 590.615 279.536V280.912C588.903 280.912 587.687 281.856 587.543 283.296V288H585.959V279.728H587.543V281.312ZM595.632 279.536C597.856 279.536 599.088 280.944 599.088 282.992V288H597.536V286.864C596.928 287.728 595.792 288.192 594.784 288.192C593.024 288.192 591.728 287.168 591.728 285.552C591.728 283.904 593.216 282.8 595.04 282.8C595.856 282.8 596.736 282.976 597.536 283.248V282.992C597.536 281.952 597.056 280.848 595.408 280.848C594.592 280.848 593.792 281.168 593.072 281.536L592.496 280.368C593.68 279.776 594.72 279.536 595.632 279.536ZM595.088 286.944C596.112 286.944 597.264 286.432 597.536 285.408V284.304C596.864 284.096 596.096 283.984 595.28 283.984C594.176 283.984 593.248 284.608 593.248 285.504C593.248 286.4 594.048 286.944 595.088 286.944ZM605.251 286.512L605.827 287.6C605.379 287.968 604.771 288.192 604.179 288.192C602.899 288.192 602.003 287.264 602.003 285.936V281.072H600.755V279.728H602.003V277.456H603.555V279.728H605.507V281.072H603.555V285.824C603.555 286.4 603.939 286.816 604.403 286.816C604.755 286.816 605.075 286.688 605.251 286.512ZM608.225 278.352C607.681 278.352 607.265 277.904 607.265 277.392C607.265 276.896 607.681 276.448 608.225 276.448C608.737 276.448 609.169 276.896 609.169 277.392C609.169 277.904 608.737 278.352 608.225 278.352ZM607.425 288V279.728H609.009V288H607.425ZM615.508 279.536C617.332 279.536 618.612 280.864 618.612 282.736V288H617.06V283.008C617.06 281.776 616.276 280.912 615.156 280.912C614.004 280.912 613.012 281.664 612.884 282.64V288H611.3V279.728H612.884V280.928C613.38 280.112 614.388 279.536 615.508 279.536ZM627.167 279.728H628.751V287.12C628.751 289.248 627.007 290.752 624.559 290.752C623.167 290.752 621.887 290.288 621.103 289.648L621.727 288.464C622.335 289.04 623.327 289.376 624.319 289.376C626.095 289.376 627.167 288.528 627.167 287.088V285.888C626.511 286.832 625.487 287.392 624.239 287.392C622.063 287.392 620.479 285.76 620.479 283.456C620.479 281.152 622.063 279.536 624.239 279.536C625.487 279.536 626.543 280.128 627.167 281.056V279.728ZM624.639 286.016C626.111 286.016 627.167 284.96 627.167 283.456C627.167 281.968 626.111 280.912 624.639 280.912C623.167 280.912 622.127 281.968 622.127 283.456C622.127 284.96 623.167 286.016 624.639 286.016ZM639.675 288.176C637.835 288.176 636.315 287.536 635.147 286.416L636.123 285.216C637.099 286.144 638.251 286.752 639.739 286.752C641.259 286.752 642.043 285.952 642.043 285.072C642.043 284.032 641.131 283.632 639.291 283.216C637.051 282.688 635.563 282.016 635.563 280.032C635.563 278.192 637.163 276.8 639.371 276.8C641.067 276.8 642.331 277.424 643.387 278.352L642.459 279.568C641.531 278.72 640.427 278.224 639.307 278.224C638.075 278.224 637.211 279.008 637.211 279.888C637.211 280.912 638.155 281.264 639.963 281.696C642.155 282.208 643.675 282.944 643.675 284.912C643.675 286.768 642.267 288.176 639.675 288.176ZM647.069 290.88C646.509 290.88 645.933 290.752 645.501 290.528L645.853 289.312C646.173 289.488 646.541 289.568 646.861 289.568C647.373 289.568 647.725 289.408 647.997 288.928L648.413 288.048L644.861 279.728H646.557L649.213 286.256L651.725 279.728H653.373L649.725 288.752C649.133 290.24 648.253 290.864 647.069 290.88ZM658.136 288.192C656.92 288.192 655.592 287.76 654.6 286.96L655.352 285.824C656.232 286.464 657.176 286.832 658.152 286.832C659.08 286.832 659.72 286.4 659.72 285.76C659.72 284.992 658.872 284.752 657.848 284.464C655.944 283.936 655 283.392 655 282.048C654.984 280.528 656.248 279.536 658.008 279.536C659.08 279.536 660.168 279.904 661.064 280.496L660.36 281.664C659.56 281.168 658.728 280.896 658.008 280.896C657.192 280.896 656.552 281.248 656.552 281.872C656.552 282.512 657.064 282.704 658.456 283.136C659.816 283.536 661.272 283.984 661.272 285.632C661.272 287.2 659.944 288.192 658.136 288.192ZM666.985 286.512L667.561 287.6C667.113 287.968 666.505 288.192 665.913 288.192C664.633 288.192 663.737 287.264 663.737 285.936V281.072H662.489V279.728H663.737V277.456H665.289V279.728H667.241V281.072H665.289V285.824C665.289 286.4 665.673 286.816 666.137 286.816C666.489 286.816 666.809 286.688 666.985 286.512ZM672.967 286.784C673.831 286.784 674.839 286.4 675.335 285.888L676.327 286.912C675.591 287.696 674.151 288.192 672.983 288.192C670.679 288.192 668.727 286.384 668.727 283.84C668.727 281.36 670.567 279.536 672.855 279.536C675.383 279.536 676.839 281.456 676.839 284.416H670.327C670.535 285.792 671.543 286.784 672.967 286.784ZM672.919 280.944C671.639 280.944 670.599 281.808 670.343 283.152H675.303C675.127 281.872 674.343 280.944 672.919 280.944ZM687.923 279.536C689.651 279.536 690.899 280.864 690.899 282.736V288H689.347V282.976C689.347 281.76 688.627 280.912 687.587 280.912C686.403 280.912 685.571 281.696 685.571 282.832V288H684.019V282.976C684.019 281.76 683.299 280.912 682.259 280.912C681.075 280.912 680.243 281.696 680.243 282.832V288H678.659V279.728H680.243V280.88C680.659 280.064 681.523 279.536 682.579 279.536C683.779 279.536 684.755 280.176 685.235 281.2C685.619 280.176 686.675 279.536 687.923 279.536Z" fill="#18181B"/>
<path d="M537 264H707V295C707 298.866 703.866 302 700 302H544C540.134 302 537 298.866 537 295V264Z" stroke="#18181B" stroke-width="2"/>
<rect x="529" y="142" width="186" height="168" rx="7" stroke="#18181B" stroke-width="2"/>
<rect x="47" y="179" width="149" height="93" rx="7" fill="white"/>
<path d="M80.8106 225.5L80.0186 223.556H74.5106L73.7186 225.5H70.7486L75.7886 213.134H78.7586L83.7986 225.5H80.8106ZM75.4286 221.306H79.1006L77.2646 216.788L75.4286 221.306ZM90.9262 215.978C93.4102 215.978 95.2102 217.994 95.2102 220.838C95.2102 223.7 93.4102 225.716 90.9262 225.716C89.6302 225.716 88.5502 225.158 87.8122 224.186V228.596H85.1842V216.194H87.8122V217.49C88.5502 216.536 89.6302 215.978 90.9262 215.978ZM90.1702 223.502C91.6282 223.502 92.6542 222.404 92.6542 220.838C92.6542 219.29 91.6282 218.192 90.1702 218.192C88.8922 218.192 87.9562 219.128 87.8122 220.478V221.198C87.9562 222.566 88.8922 223.502 90.1702 223.502ZM102.809 215.978C105.293 215.978 107.093 217.994 107.093 220.838C107.093 223.7 105.293 225.716 102.809 225.716C101.513 225.716 100.433 225.158 99.695 224.186V228.596H97.067V216.194H99.695V217.49C100.433 216.536 101.513 215.978 102.809 215.978ZM102.053 223.502C103.511 223.502 104.537 222.404 104.537 220.838C104.537 219.29 103.511 218.192 102.053 218.192C100.775 218.192 99.839 219.128 99.695 220.478V221.198C99.839 222.566 100.775 223.502 102.053 223.502ZM108.95 225.5V212.918H111.578V225.5H108.95ZM115.186 214.916C114.376 214.916 113.746 214.268 113.746 213.476C113.746 212.738 114.376 212.072 115.186 212.072C115.96 212.072 116.59 212.738 116.59 213.476C116.59 214.268 115.96 214.916 115.186 214.916ZM113.854 225.5V216.194H116.482V225.5H113.854ZM123.33 225.716C120.576 225.716 118.254 223.484 118.254 220.838C118.254 218.192 120.594 215.978 123.348 215.978C124.86 215.978 126.102 216.59 127.002 217.562L125.256 219.056C124.788 218.534 124.05 218.192 123.33 218.192C121.962 218.192 120.81 219.398 120.81 220.82C120.81 222.278 121.962 223.502 123.348 223.502C124.068 223.502 124.824 223.142 125.31 222.602L127.056 224.078C126.138 225.086 124.878 225.716 123.33 225.716ZM132.795 215.978C135.225 215.978 136.881 217.508 136.881 219.938V225.5H134.343V224.564C133.677 225.32 132.615 225.716 131.607 225.716C129.627 225.716 128.097 224.528 128.097 222.746C128.097 220.91 129.807 219.65 131.967 219.65C132.723 219.65 133.551 219.812 134.343 220.118V219.938C134.343 218.948 133.731 218.084 132.201 218.084C131.337 218.084 130.527 218.372 129.789 218.75L128.907 217.004C130.221 216.338 131.499 215.978 132.795 215.978ZM132.201 223.898C133.209 223.898 134.163 223.43 134.343 222.566V221.702C133.749 221.486 133.065 221.36 132.345 221.36C131.391 221.36 130.635 221.918 130.635 222.674C130.635 223.43 131.301 223.898 132.201 223.898ZM143.992 223.196L144.622 224.906C144.082 225.392 143.236 225.716 142.48 225.716C140.842 225.716 139.69 224.546 139.69 222.872V218.318H138.412V216.194H139.69V213.638H142.21V216.194H144.226V218.318H142.21V222.458C142.21 223.07 142.606 223.502 143.092 223.502C143.452 223.502 143.812 223.376 143.992 223.196ZM147.582 214.916C146.772 214.916 146.142 214.268 146.142 213.476C146.142 212.738 146.772 212.072 147.582 212.072C148.356 212.072 148.986 212.738 148.986 213.476C148.986 214.268 148.356 214.916 147.582 214.916ZM146.25 225.5V216.194H148.878V225.5H146.25ZM155.745 225.716C152.973 225.716 150.651 223.484 150.651 220.838C150.651 218.192 152.973 215.978 155.745 215.978C158.499 215.978 160.803 218.192 160.803 220.838C160.803 223.484 158.499 225.716 155.745 225.716ZM155.745 223.502C157.131 223.502 158.301 222.278 158.301 220.838C158.301 219.398 157.131 218.192 155.745 218.192C154.341 218.192 153.171 219.398 153.171 220.838C153.171 222.278 154.341 223.502 155.745 223.502ZM167.963 215.978C169.979 215.978 171.419 217.472 171.419 219.578V225.5H168.881V220.136C168.881 218.984 168.161 218.192 167.117 218.192C166.019 218.192 165.173 218.984 165.173 219.992L165.155 219.938V225.5H162.527V216.194H165.155V217.364C165.713 216.518 166.757 215.978 167.963 215.978ZM105.392 243.716C102.638 243.716 100.316 241.484 100.316 238.838C100.316 236.192 102.656 233.978 105.41 233.978C106.922 233.978 108.164 234.59 109.064 235.562L107.318 237.056C106.85 236.534 106.112 236.192 105.392 236.192C104.024 236.192 102.872 237.398 102.872 238.82C102.872 240.278 104.024 241.502 105.41 241.502C106.13 241.502 106.886 241.142 107.372 240.602L109.118 242.078C108.2 243.086 106.94 243.716 105.392 243.716ZM115.078 243.716C112.306 243.716 109.984 241.484 109.984 238.838C109.984 236.192 112.306 233.978 115.078 233.978C117.832 233.978 120.136 236.192 120.136 238.838C120.136 241.484 117.832 243.716 115.078 243.716ZM115.078 241.502C116.464 241.502 117.634 240.278 117.634 238.838C117.634 237.398 116.464 236.192 115.078 236.192C113.674 236.192 112.504 237.398 112.504 238.838C112.504 240.278 113.674 241.502 115.078 241.502ZM128.862 230.918H131.49V243.5H128.862V242.168C128.124 243.14 127.044 243.716 125.73 243.716C123.246 243.716 121.446 241.7 121.446 238.838C121.446 235.994 123.246 233.978 125.73 233.978C127.044 233.978 128.124 234.554 128.862 235.526V230.918ZM126.486 241.502C127.872 241.502 128.862 240.404 128.862 238.838C128.862 237.29 127.872 236.192 126.486 236.192C125.028 236.192 124.002 237.29 124.002 238.838C124.002 240.404 125.028 241.502 126.486 241.502ZM138.189 241.394C138.927 241.394 139.827 241.052 140.331 240.566L142.005 242.276C141.177 243.14 139.575 243.716 138.207 243.716C135.435 243.716 133.275 241.682 133.275 238.82C133.275 236.012 135.345 233.978 138.063 233.978C140.979 233.978 142.689 236.192 142.689 239.702H135.975C136.281 240.71 137.091 241.394 138.189 241.394ZM138.171 236.3C137.181 236.3 136.353 236.876 136.011 237.812H140.169C139.917 236.894 139.233 236.3 138.171 236.3Z" fill="#18181B"/>
<rect x="47" y="179" width="149" height="93" rx="7" stroke="#18181B" stroke-width="2"/>
<circle cx="121" cy="178.1" r="14.4" fill="white"/>
<path d="M140.483 176.338L132.606 162.66C131.92 161.473 130.243 160.5 128.876 160.5H113.122C111.752 160.5 110.075 161.473 109.389 162.66L101.514 176.338C100.829 177.526 100.829 179.469 101.514 180.659L109.392 194.34C110.075 195.527 111.755 196.5 113.124 196.5H128.878C130.245 196.5 131.925 195.527 132.608 194.34L140.486 180.659C141.171 179.472 141.171 177.528 140.486 176.338H140.483ZM119.298 168.064C119.298 167.164 120.026 166.434 120.92 166.434C121.815 166.434 122.545 167.164 122.545 168.064V177.793C122.545 178.692 121.818 179.422 120.92 179.422C120.023 179.422 119.298 178.692 119.298 177.793V168.064ZM120.92 188.832C114.848 188.832 109.911 183.878 109.911 177.793C109.911 174.319 111.572 171.006 114.355 168.932C114.994 168.453 115.899 168.587 116.377 169.23C116.851 169.871 116.718 170.778 116.079 171.257C113.995 172.81 112.801 175.196 112.801 177.795C112.801 182.286 116.445 185.939 120.923 185.939C125.402 185.939 129.045 182.286 129.045 177.795C129.045 175.219 127.809 172.769 125.738 171.236C125.096 170.763 124.961 169.855 125.433 169.212C125.908 168.568 126.81 168.432 127.452 168.906C130.258 170.98 131.933 174.304 131.933 177.795C131.933 183.884 126.993 188.834 120.923 188.834L120.92 188.832Z" fill="#4C7C2C"/>
<path d="M528 351L716 351" stroke="#71717A"/>
<path d="M46 351L524 351" stroke="#71717A"/>
<rect width="70" height="22" transform="translate(587 340)" fill="#F4F4F5"/>
<path d="M599.008 355H596.992L595.108 352.324H593.8V355H592.036V346.756H595.744C597.532 346.756 598.852 347.908 598.852 349.54C598.852 350.764 598.108 351.724 596.98 352.12L599.008 355ZM593.8 348.376V350.704H595.552C596.428 350.704 597.028 350.248 597.028 349.54C597.028 348.832 596.428 348.376 595.552 348.376H593.8ZM604.249 355.144C602.053 355.144 600.517 353.608 600.517 351.436V346.756H602.281V351.364C602.281 352.636 603.097 353.536 604.249 353.536C605.389 353.536 606.205 352.636 606.205 351.364V346.756H607.981V351.436C607.981 353.608 606.433 355.144 604.249 355.144ZM610.02 355V346.756H611.784L615.756 352.084V346.756H617.532V355H615.756L611.784 349.672V355H610.02ZM625.448 355V348.352H622.88V346.756H629.792V348.352H627.224V355H625.448ZM631.36 355V346.756H633.136V355H631.36ZM635.214 355V346.756H636.978L639.534 351.412L642.078 346.756H643.854V355H642.078V349.864L639.534 354.52L636.978 349.864V355H635.214ZM652.256 348.352H647.684V349.996H651.824V351.592H647.684V353.404H652.256V355H645.908V346.756H652.256V348.352Z" fill="#71717A"/>
<rect width="140" height="22" transform="translate(215 340)" fill="white"/>
<path d="M220.317 355V346.756H223.269C226.041 346.756 228.009 348.46 228.009 350.872C228.009 353.284 226.041 355 223.269 355H220.317ZM222.081 353.392H223.497C225.069 353.392 226.185 352.348 226.185 350.872C226.185 349.408 225.069 348.364 223.497 348.364H222.081V353.392ZM236.082 348.352H231.51V349.996H235.65V351.592H231.51V353.404H236.082V355H229.734V346.756H236.082V348.352ZM243.841 346.756H245.821L242.461 355H240.481L237.121 346.756H239.113L241.477 352.564L243.841 346.756ZM253.501 348.352H248.929V349.996H253.069V351.592H248.929V353.404H253.501V355H247.153V346.756H253.501V348.352ZM256.917 353.404H261.021V355H255.141V346.756H256.917V353.404ZM266.577 355.144C264.213 355.144 262.197 353.188 262.197 350.872C262.197 348.556 264.213 346.612 266.577 346.612C268.965 346.612 270.957 348.556 270.957 350.872C270.957 353.188 268.965 355.144 266.577 355.144ZM266.577 353.536C267.969 353.536 269.145 352.312 269.145 350.872C269.145 349.444 267.969 348.22 266.577 348.22C265.197 348.22 264.021 349.444 264.021 350.872C264.021 352.312 265.197 353.536 266.577 353.536ZM272.62 355V346.756H276.328C278.116 346.756 279.436 347.908 279.436 349.54C279.436 351.172 278.116 352.324 276.328 352.324H274.384V355H272.62ZM274.384 350.704H276.136C277.012 350.704 277.612 350.248 277.612 349.54C277.612 348.832 277.012 348.376 276.136 348.376H274.384V350.704ZM280.974 355V346.756H282.738L285.294 351.412L287.838 346.756H289.614V355H287.838V349.864L285.294 354.52L282.738 349.864V355H280.974ZM298.016 348.352H293.444V349.996H297.584V351.592H293.444V353.404H298.016V355H291.668V346.756H298.016V348.352ZM299.787 355V346.756H301.551L305.523 352.084V346.756H307.299V355H305.523L301.551 349.672V355H299.787ZM311.504 355V348.352H308.936V346.756H315.848V348.352H313.28V355H311.504ZM323.24 355V348.352H320.672V346.756H327.584V348.352H325.016V355H323.24ZM329.152 355V346.756H330.928V355H329.152ZM333.005 355V346.756H334.769L337.325 351.412L339.869 346.756H341.645V355H339.869V349.864L337.325 354.52L334.769 349.864V355H333.005ZM350.048 348.352H345.476V349.996H349.616V351.592H345.476V353.404H350.048V355H343.7V346.756H350.048V348.352Z" fill="#71717A"/>
<path d="M528 344V357.5" stroke="#71717A"/>
<path d="M524 344V357.5" stroke="#71717A"/>
<path d="M46 344V357.5" stroke="#71717A"/>
<path d="M716 344V357.5" stroke="#71717A"/>
<rect width="159" height="52" transform="translate(335 119)" fill="#E1EFD8"/>
<path d="M384.107 142.182C382.371 142.182 381.055 141.496 380.243 140.558L381.461 139.186C382.133 139.914 383.043 140.32 384.009 140.32C385.073 140.32 385.689 139.83 385.689 139.144C385.689 138.402 385.115 138.024 383.813 138.038H382.707V136.274L383.813 136.288C384.863 136.288 385.493 135.896 385.493 135.21C385.493 134.51 384.835 134.062 383.883 134.062C382.973 134.062 382.259 134.51 381.615 135.182L380.425 133.922C381.223 132.956 382.371 132.214 384.079 132.214C386.249 132.214 387.607 133.32 387.607 134.846C387.607 135.952 386.851 136.75 385.801 137.058C386.851 137.296 387.817 138.038 387.817 139.312C387.817 140.978 386.347 142.182 384.107 142.182ZM393.175 142V132.214H395.219V142H393.175ZM400.237 134.594C402.127 134.594 403.415 135.784 403.415 137.674V142H401.441V141.272C400.923 141.86 400.097 142.168 399.313 142.168C397.773 142.168 396.583 141.244 396.583 139.858C396.583 138.43 397.913 137.45 399.593 137.45C400.181 137.45 400.825 137.576 401.441 137.814V137.674C401.441 136.904 400.965 136.232 399.775 136.232C399.103 136.232 398.473 136.456 397.899 136.75L397.213 135.392C398.235 134.874 399.229 134.594 400.237 134.594ZM399.775 140.754C400.559 140.754 401.301 140.39 401.441 139.718V139.046C400.979 138.878 400.447 138.78 399.887 138.78C399.145 138.78 398.557 139.214 398.557 139.802C398.557 140.39 399.075 140.754 399.775 140.754ZM406.79 144.52C406.188 144.52 405.46 144.338 404.97 144.072L405.404 142.672C405.754 142.868 406.118 142.994 406.356 142.994C406.748 142.994 407.056 142.868 407.21 142.602L407.462 142.07L404.452 134.762H406.566L408.47 139.844L410.276 134.762H412.362L409.394 142.364C408.848 143.778 407.924 144.52 406.79 144.52ZM416.634 140.362C417.208 140.362 417.908 140.096 418.3 139.718L419.602 141.048C418.958 141.72 417.712 142.168 416.648 142.168C414.492 142.168 412.812 140.586 412.812 138.36C412.812 136.176 414.422 134.594 416.536 134.594C418.804 134.594 420.134 136.316 420.134 139.046H414.912C415.15 139.83 415.78 140.362 416.634 140.362ZM416.62 136.4C415.85 136.4 415.206 136.848 414.94 137.576H418.174C417.978 136.862 417.446 136.4 416.62 136.4ZM423.561 136.106C424.037 135.168 424.933 134.594 426.039 134.594V136.316C424.527 136.316 423.561 137.184 423.561 138.542V142H421.517V134.762H423.561V136.106ZM429.934 142.168C428.772 142.168 427.54 141.776 426.672 141.076L427.554 139.662C428.198 140.124 429.01 140.474 429.976 140.474C430.522 140.474 430.914 140.25 430.914 139.928C430.914 139.48 430.382 139.34 429.64 139.144C428.156 138.78 427.008 138.374 426.994 136.946C426.98 135.574 428.114 134.594 429.822 134.594C430.858 134.594 431.88 134.958 432.678 135.49L431.852 136.946C431.194 136.54 430.438 136.302 429.822 136.302C429.318 136.302 428.968 136.484 428.968 136.736C428.968 137.128 429.262 137.24 430.242 137.506C431.488 137.828 432.874 138.248 432.874 139.83C432.874 141.258 431.712 142.168 429.934 142.168ZM441.793 142.168C439.721 142.168 437.971 140.432 437.971 138.374C437.971 136.316 439.721 134.594 441.793 134.594C443.851 134.594 445.587 136.316 445.587 138.374C445.587 140.432 443.851 142.168 441.793 142.168ZM441.793 140.964C443.095 140.964 444.201 139.788 444.201 138.374C444.201 136.974 443.095 135.798 441.793 135.798C440.463 135.798 439.357 136.974 439.357 138.374C439.357 139.788 440.463 140.964 441.793 140.964ZM449.113 133.964V134.762H450.821V135.938H449.113V142H447.755V135.938H446.663V134.762H447.755V133.894C447.755 132.732 448.539 131.92 449.659 131.92C450.177 131.92 450.709 132.116 451.101 132.438L450.597 133.362C450.443 133.208 450.163 133.096 449.855 133.096C449.449 133.096 449.113 133.46 449.113 133.964ZM457.534 144.52C457.044 144.52 456.54 144.408 456.162 144.212L456.47 143.148C456.75 143.302 457.072 143.372 457.352 143.372C457.8 143.372 458.108 143.232 458.346 142.812L458.71 142.042L455.602 134.762H457.086L459.41 140.474L461.608 134.762H463.05L459.858 142.658C459.34 143.96 458.57 144.506 457.534 144.52ZM467.715 142.168C465.643 142.168 463.893 140.432 463.893 138.374C463.893 136.316 465.643 134.594 467.715 134.594C469.773 134.594 471.509 136.316 471.509 138.374C471.509 140.432 469.773 142.168 467.715 142.168ZM467.715 140.964C469.017 140.964 470.123 139.788 470.123 138.374C470.123 136.974 469.017 135.798 467.715 135.798C466.385 135.798 465.279 136.974 465.279 138.374C465.279 139.788 466.385 140.964 467.715 140.964ZM478.115 134.762H479.501V142H478.115V140.95C477.681 141.664 476.799 142.168 475.819 142.168C474.223 142.168 473.103 141.006 473.103 139.368V134.762H474.461V139.13C474.461 140.208 475.147 140.964 476.127 140.964C477.135 140.964 478.003 140.306 478.115 139.452V134.762ZM482.968 136.148C483.43 135.196 484.41 134.594 485.656 134.594V135.798C484.158 135.798 483.094 136.624 482.968 137.884V142H481.582V134.762H482.968V136.148ZM350.379 146.214H351.751V156H350.379V154.74C349.819 155.636 348.923 156.168 347.803 156.168C345.899 156.168 344.471 154.6 344.471 152.374C344.471 150.162 345.899 148.594 347.803 148.594C348.923 148.594 349.819 149.126 350.379 150.008V146.214ZM348.139 154.964C349.441 154.964 350.379 153.886 350.379 152.374C350.379 150.862 349.441 149.798 348.139 149.798C346.809 149.798 345.871 150.862 345.871 152.374C345.871 153.886 346.809 154.964 348.139 154.964ZM357.148 154.936C357.904 154.936 358.786 154.6 359.22 154.152L360.088 155.048C359.444 155.734 358.184 156.168 357.162 156.168C355.146 156.168 353.438 154.586 353.438 152.36C353.438 150.19 355.048 148.594 357.05 148.594C359.262 148.594 360.536 150.274 360.536 152.864H354.838C355.02 154.068 355.902 154.936 357.148 154.936ZM357.106 149.826C355.986 149.826 355.076 150.582 354.852 151.758H359.192C359.038 150.638 358.352 149.826 357.106 149.826ZM366.161 148.594C368.065 148.594 369.493 150.162 369.493 152.374C369.493 154.6 368.065 156.168 366.161 156.168C365.041 156.168 364.145 155.636 363.585 154.74V158.408H362.213V148.762H363.585V150.008C364.145 149.126 365.041 148.594 366.161 148.594ZM365.825 154.964C367.155 154.964 368.093 153.886 368.093 152.374C368.093 150.862 367.155 149.798 365.825 149.798C364.523 149.798 363.585 150.862 363.585 152.374C363.585 153.886 364.523 154.964 365.825 154.964ZM371.166 156V146.214H372.538V156H371.166ZM377.987 156.168C375.915 156.168 374.165 154.432 374.165 152.374C374.165 150.316 375.915 148.594 377.987 148.594C380.045 148.594 381.781 150.316 381.781 152.374C381.781 154.432 380.045 156.168 377.987 156.168ZM377.987 154.964C379.289 154.964 380.395 153.788 380.395 152.374C380.395 150.974 379.289 149.798 377.987 149.798C376.657 149.798 375.551 150.974 375.551 152.374C375.551 153.788 376.657 154.964 377.987 154.964ZM384.458 158.52C383.968 158.52 383.464 158.408 383.086 158.212L383.394 157.148C383.674 157.302 383.996 157.372 384.276 157.372C384.724 157.372 385.032 157.232 385.27 156.812L385.634 156.042L382.526 148.762H384.01L386.334 154.474L388.532 148.762H389.974L386.782 156.658C386.264 157.96 385.494 158.506 384.458 158.52ZM394.514 154.936C395.27 154.936 396.152 154.6 396.586 154.152L397.454 155.048C396.81 155.734 395.55 156.168 394.528 156.168C392.512 156.168 390.804 154.586 390.804 152.36C390.804 150.19 392.414 148.594 394.416 148.594C396.628 148.594 397.901 150.274 397.901 152.864H392.204C392.386 154.068 393.268 154.936 394.514 154.936ZM394.472 149.826C393.352 149.826 392.442 150.582 392.218 151.758H396.558C396.404 150.638 395.718 149.826 394.472 149.826ZM405.08 146.214H406.452V156H405.08V154.74C404.52 155.636 403.624 156.168 402.504 156.168C400.6 156.168 399.172 154.6 399.172 152.374C399.172 150.162 400.6 148.594 402.504 148.594C403.624 148.594 404.52 149.126 405.08 150.008V146.214ZM402.84 154.964C404.142 154.964 405.08 153.886 405.08 152.374C405.08 150.862 404.142 149.798 402.84 149.798C401.51 149.798 400.572 150.862 400.572 152.374C400.572 153.886 401.51 154.964 402.84 154.964ZM415.575 148.594C417.521 148.594 418.599 149.826 418.599 151.618V156H417.241V155.006C416.709 155.762 415.715 156.168 414.833 156.168C413.293 156.168 412.159 155.272 412.159 153.858C412.159 152.416 413.461 151.45 415.057 151.45C415.771 151.45 416.541 151.604 417.241 151.842V151.618C417.241 150.708 416.821 149.742 415.379 149.742C414.665 149.742 413.965 150.022 413.335 150.344L412.831 149.322C413.867 148.804 414.777 148.594 415.575 148.594ZM415.099 155.076C415.995 155.076 417.003 154.628 417.241 153.732V152.766C416.653 152.584 415.981 152.486 415.267 152.486C414.301 152.486 413.489 153.032 413.489 153.816C413.489 154.6 414.189 155.076 415.099 155.076ZM424.622 148.594C426.526 148.594 427.954 150.162 427.954 152.374C427.954 154.6 426.526 156.168 424.622 156.168C423.502 156.168 422.606 155.636 422.046 154.74V158.408H420.674V148.762H422.046V150.008C422.606 149.126 423.502 148.594 424.622 148.594ZM424.286 154.964C425.616 154.964 426.554 153.886 426.554 152.374C426.554 150.862 425.616 149.798 424.286 149.798C422.984 149.798 422.046 150.862 422.046 152.374C422.046 153.886 422.984 154.964 424.286 154.964ZM433.645 148.594C435.549 148.594 436.977 150.162 436.977 152.374C436.977 154.6 435.549 156.168 433.645 156.168C432.525 156.168 431.629 155.636 431.069 154.74V158.408H429.697V148.762H431.069V150.008C431.629 149.126 432.525 148.594 433.645 148.594ZM433.309 154.964C434.639 154.964 435.577 153.886 435.577 152.374C435.577 150.862 434.639 149.798 433.309 149.798C432.007 149.798 431.069 150.862 431.069 152.374C431.069 153.886 432.007 154.964 433.309 154.964ZM438.651 156V146.214H440.023V156H438.651ZM442.727 147.558C442.251 147.558 441.887 147.166 441.887 146.718C441.887 146.284 442.251 145.892 442.727 145.892C443.175 145.892 443.553 146.284 443.553 146.718C443.553 147.166 443.175 147.558 442.727 147.558ZM442.027 156V148.762H443.413V156H442.027ZM448.834 156.168C446.776 156.168 445.026 154.432 445.026 152.374C445.026 150.316 446.776 148.594 448.848 148.594C449.884 148.594 450.822 149.028 451.508 149.714L450.57 150.582C450.136 150.092 449.506 149.798 448.834 149.798C447.518 149.798 446.426 150.974 446.426 152.374C446.426 153.788 447.518 154.964 448.848 154.964C449.52 154.964 450.164 154.656 450.612 154.152L451.55 155.006C450.85 155.72 449.912 156.168 448.834 156.168ZM456.071 148.594C458.017 148.594 459.095 149.826 459.095 151.618V156H457.737V155.006C457.205 155.762 456.211 156.168 455.329 156.168C453.789 156.168 452.655 155.272 452.655 153.858C452.655 152.416 453.957 151.45 455.553 151.45C456.267 151.45 457.037 151.604 457.737 151.842V151.618C457.737 150.708 457.317 149.742 455.875 149.742C455.161 149.742 454.461 150.022 453.831 150.344L453.327 149.322C454.363 148.804 455.273 148.594 456.071 148.594ZM455.595 155.076C456.491 155.076 457.499 154.628 457.737 153.732V152.766C457.149 152.584 456.477 152.486 455.763 152.486C454.797 152.486 453.985 153.032 453.985 153.816C453.985 154.6 454.685 155.076 455.595 155.076ZM464.488 154.698L464.992 155.65C464.6 155.972 464.068 156.168 463.55 156.168C462.43 156.168 461.646 155.356 461.646 154.194V149.938H460.554V148.762H461.646V146.774H463.004V148.762H464.712V149.938H463.004V154.096C463.004 154.6 463.34 154.964 463.746 154.964C464.054 154.964 464.334 154.852 464.488 154.698ZM467.09 147.558C466.614 147.558 466.25 147.166 466.25 146.718C466.25 146.284 466.614 145.892 467.09 145.892C467.538 145.892 467.916 146.284 467.916 146.718C467.916 147.166 467.538 147.558 467.09 147.558ZM466.39 156V148.762H467.776V156H466.39ZM473.211 156.168C471.139 156.168 469.389 154.432 469.389 152.374C469.389 150.316 471.139 148.594 473.211 148.594C475.269 148.594 477.005 150.316 477.005 152.374C477.005 154.432 475.269 156.168 473.211 156.168ZM473.211 154.964C474.513 154.964 475.619 153.788 475.619 152.374C475.619 150.974 474.513 149.798 473.211 149.798C471.881 149.798 470.775 150.974 470.775 152.374C470.775 153.788 471.881 154.964 473.211 154.964ZM482.309 148.594C483.905 148.594 485.025 149.756 485.025 151.394V156H483.667V151.632C483.667 150.554 482.981 149.798 482.001 149.798C480.993 149.798 480.125 150.456 480.013 151.31V156H478.627V148.762H480.013V149.812C480.447 149.098 481.329 148.594 482.309 148.594Z" fill="#18181B"/>
<path d="M493 119L493 171" stroke="#4C7C2C" stroke-width="3"/>
<path d="M533.167 189C533.167 191.946 535.554 194.333 538.5 194.333C541.446 194.333 543.833 191.946 543.833 189C543.833 186.054 541.446 183.667 538.5 183.667C535.554 183.667 533.167 186.054 533.167 189ZM492.793 144.707L537.793 189.707L539.207 188.293L494.207 143.293L492.793 144.707Z" fill="#4C7C2C"/>
<path d="M246 241C244.895 241 244 241.895 244 243C244 244.105 244.895 245 246 245L246 241ZM246 245L319 245L319 241L246 241L246 245Z" fill="#18181B"/>
<rect x="271" y="232" width="22" height="22" rx="11" fill="white"/>
<path d="M291.336 240.023C291.492 240.375 291.375 240.727 291.102 241L289.422 242.523C289.461 242.836 289.5 243.188 289.5 243.5C289.5 243.852 289.461 244.203 289.422 244.516L291.102 246.039C291.375 246.312 291.492 246.664 291.336 247.016C291.18 247.484 290.984 247.914 290.75 248.344L290.555 248.656C290.281 249.086 290.008 249.516 289.695 249.906C289.461 250.18 289.07 250.258 288.719 250.141L286.57 249.477C286.023 249.867 285.438 250.18 284.852 250.453L284.344 252.68C284.266 253.031 283.992 253.305 283.641 253.383C283.094 253.461 282.547 253.5 281.961 253.5C281.414 253.5 280.867 253.461 280.32 253.383C279.969 253.305 279.695 253.031 279.617 252.68L279.109 250.453C278.523 250.18 277.938 249.867 277.391 249.477L275.242 250.141C274.891 250.258 274.5 250.18 274.266 249.906C273.953 249.516 273.68 249.086 273.406 248.656L273.211 248.344C272.977 247.914 272.781 247.484 272.625 247.016C272.469 246.664 272.586 246.312 272.859 246.039L274.539 244.516C274.5 244.203 274.5 243.852 274.5 243.5C274.5 243.188 274.5 242.836 274.539 242.523L272.859 241C272.586 240.727 272.469 240.375 272.625 240.023C272.781 239.555 272.977 239.125 273.211 238.695L273.406 238.383C273.68 237.953 273.953 237.523 274.266 237.133C274.5 236.859 274.891 236.781 275.242 236.898L277.391 237.562C277.938 237.172 278.523 236.82 279.109 236.586L279.617 234.359C279.695 234.008 279.969 233.734 280.32 233.656C280.867 233.578 281.414 233.5 282 233.5C282.547 233.5 283.094 233.578 283.641 233.656C283.992 233.734 284.266 234.008 284.344 234.359L284.852 236.586C285.438 236.82 286.023 237.172 286.57 237.562L288.719 236.898C289.07 236.781 289.461 236.859 289.695 237.133C290.008 237.523 290.281 237.953 290.555 238.383L290.75 238.695C290.984 239.125 291.18 239.555 291.336 240.023ZM282 246.625C283.719 246.625 285.125 245.258 285.125 243.5C285.125 241.781 283.719 240.375 282 240.375C280.242 240.375 278.875 241.781 278.875 243.5C278.875 245.258 280.242 246.625 282 246.625Z" fill="#15230C"/>
<path d="M328.416 241.525C329.411 242.325 329.411 243.842 328.416 244.642L320.592 250.932C319.283 251.985 317.339 251.053 317.339 249.374L317.339 236.793C317.339 235.114 319.283 234.182 320.592 235.234L328.416 241.525Z" fill="#15230C"/>
<path d="M389 241C387.895 241 387 241.895 387 243C387 244.105 387.895 245 389 245L389 241ZM389 245L462 245L462 241L389 241L389 245Z" fill="#18181B"/>
<rect x="414" y="232" width="22" height="22" rx="11" fill="white"/>
<path d="M434.336 240.023C434.492 240.375 434.375 240.727 434.102 241L432.422 242.523C432.461 242.836 432.5 243.188 432.5 243.5C432.5 243.852 432.461 244.203 432.422 244.516L434.102 246.039C434.375 246.312 434.492 246.664 434.336 247.016C434.18 247.484 433.984 247.914 433.75 248.344L433.555 248.656C433.281 249.086 433.008 249.516 432.695 249.906C432.461 250.18 432.07 250.258 431.719 250.141L429.57 249.477C429.023 249.867 428.438 250.18 427.852 250.453L427.344 252.68C427.266 253.031 426.992 253.305 426.641 253.383C426.094 253.461 425.547 253.5 424.961 253.5C424.414 253.5 423.867 253.461 423.32 253.383C422.969 253.305 422.695 253.031 422.617 252.68L422.109 250.453C421.523 250.18 420.938 249.867 420.391 249.477L418.242 250.141C417.891 250.258 417.5 250.18 417.266 249.906C416.953 249.516 416.68 249.086 416.406 248.656L416.211 248.344C415.977 247.914 415.781 247.484 415.625 247.016C415.469 246.664 415.586 246.312 415.859 246.039L417.539 244.516C417.5 244.203 417.5 243.852 417.5 243.5C417.5 243.188 417.5 242.836 417.539 242.523L415.859 241C415.586 240.727 415.469 240.375 415.625 240.023C415.781 239.555 415.977 239.125 416.211 238.695L416.406 238.383C416.68 237.953 416.953 237.523 417.266 237.133C417.5 236.859 417.891 236.781 418.242 236.898L420.391 237.562C420.938 237.172 421.523 236.82 422.109 236.586L422.617 234.359C422.695 234.008 422.969 233.734 423.32 233.656C423.867 233.578 424.414 233.5 425 233.5C425.547 233.5 426.094 233.578 426.641 233.656C426.992 233.734 427.266 234.008 427.344 234.359L427.852 236.586C428.438 236.82 429.023 237.172 429.57 237.562L431.719 236.898C432.07 236.781 432.461 236.859 432.695 237.133C433.008 237.523 433.281 237.953 433.555 238.383L433.75 238.695C433.984 239.125 434.18 239.555 434.336 240.023ZM425 246.625C426.719 246.625 428.125 245.258 428.125 243.5C428.125 241.781 426.719 240.375 425 240.375C423.242 240.375 421.875 241.781 421.875 243.5C421.875 245.258 423.242 246.625 425 246.625Z" fill="#15230C"/>
<path d="M471.416 241.525C472.411 242.325 472.411 243.842 471.416 244.642L463.592 250.932C462.283 251.985 460.339 251.053 460.339 249.374L460.339 236.793C460.339 235.114 462.283 234.182 463.592 235.234L471.416 241.525Z" fill="#15230C"/>
</g>
<defs>
<clipPath id="clip0_402_627944">
<rect width="743" height="431" fill="white"/>
</clipPath>
</defs>
</svg>
