<svg width="336" height="190" viewBox="0 0 336 190" fill="none" xmlns="http://www.w3.org/2000/svg">
<path d="M0 4.00001C0 1.79087 1.79086 0 4 0H332C334.209 0 336 1.79086 336 4V186C336 188.209 334.209 190 332 190H4C1.79087 190 0 188.209 0 186V4.00001Z" fill="#E4E4E7"/>
<path d="M128.914 110.679C129.39 110.679 129.775 110.294 129.775 109.818C129.775 109.343 129.39 108.957 128.914 108.957C128.438 108.957 128.053 109.343 128.053 109.818C128.053 110.294 128.438 110.679 128.914 110.679Z" fill="#18181B"/>
<path d="M126.77 113.95C127.246 113.95 127.631 113.565 127.631 113.089C127.631 112.613 127.246 112.228 126.77 112.228C126.295 112.228 125.909 112.613 125.909 113.089C125.909 113.565 126.295 113.95 126.77 113.95Z" fill="#18181B"/>
<path d="M131.063 113.95C131.538 113.95 131.924 113.565 131.924 113.089C131.924 112.613 131.538 112.228 131.063 112.228C130.587 112.228 130.201 112.613 130.201 113.089C130.201 113.565 130.587 113.95 131.063 113.95Z" fill="#18181B"/>
<path d="M124.622 117.221C125.097 117.221 125.483 116.835 125.483 116.36C125.483 115.884 125.097 115.499 124.622 115.499C124.146 115.499 123.761 115.884 123.761 116.36C123.761 116.835 124.146 117.221 124.622 117.221Z" fill="#18181B"/>
<path d="M128.914 117.221C129.39 117.221 129.775 116.835 129.775 116.36C129.775 115.884 129.39 115.499 128.914 115.499C128.438 115.499 128.053 115.884 128.053 116.36C128.053 116.835 128.438 117.221 128.914 117.221Z" fill="#18181B"/>
<path d="M134.496 106.548C134.496 107.022 134.883 107.411 135.357 107.411C135.831 107.411 136.219 107.022 136.219 106.548C136.219 106.076 135.831 105.691 135.357 105.691C134.881 105.691 134.496 106.078 134.496 106.548Z" fill="#18181B"/>
<path d="M133.209 110.679C133.685 110.679 134.07 110.294 134.07 109.818C134.07 109.343 133.685 108.957 133.209 108.957C132.733 108.957 132.348 109.343 132.348 109.818C132.348 110.294 132.733 110.679 133.209 110.679Z" fill="#18181B"/>
<path d="M137.501 110.679C137.977 110.679 138.362 110.294 138.362 109.818C138.362 109.343 137.977 108.957 137.501 108.957C137.025 108.957 136.64 109.343 136.64 109.818C136.64 110.294 137.025 110.679 137.501 110.679Z" fill="#18181B"/>
<path d="M135.357 113.95C135.833 113.95 136.219 113.565 136.219 113.089C136.219 112.613 135.833 112.228 135.357 112.228C134.882 112.228 134.496 112.613 134.496 113.089C134.496 113.565 134.882 113.95 135.357 113.95Z" fill="#18181B"/>
<path d="M139.65 113.95C140.125 113.95 140.511 113.565 140.511 113.089C140.511 112.613 140.125 112.228 139.65 112.228C139.174 112.228 138.788 112.613 138.788 113.089C138.788 113.565 139.174 113.95 139.65 113.95Z" fill="#18181B"/>
<path d="M133.209 117.221C133.685 117.221 134.07 116.835 134.07 116.36C134.07 115.884 133.685 115.499 133.209 115.499C132.733 115.499 132.348 115.884 132.348 116.36C132.348 116.835 132.733 117.221 133.209 117.221Z" fill="#18181B"/>
<path d="M137.501 117.221C137.977 117.221 138.362 116.835 138.362 116.36C138.362 115.884 137.977 115.499 137.501 115.499C137.025 115.499 136.64 115.884 136.64 116.36C136.64 116.835 137.025 117.221 137.501 117.221Z" fill="#18181B"/>
<path d="M141.793 117.221C142.269 117.221 142.655 116.835 142.655 116.36C142.655 115.884 142.269 115.499 141.793 115.499C141.318 115.499 140.932 115.884 140.932 116.36C140.932 116.835 141.318 117.221 141.793 117.221Z" fill="#18181B"/>
<path d="M126.77 120.492C127.246 120.492 127.631 120.106 127.631 119.63C127.631 119.155 127.246 118.769 126.77 118.769C126.295 118.769 125.909 119.155 125.909 119.63C125.909 120.106 126.295 120.492 126.77 120.492Z" fill="#18181B"/>
<path d="M131.063 120.492C131.538 120.492 131.924 120.106 131.924 119.63C131.924 119.155 131.538 118.769 131.063 118.769C130.587 118.769 130.201 119.155 130.201 119.63C130.201 120.106 130.587 120.492 131.063 120.492Z" fill="#18181B"/>
<path d="M124.622 123.762C125.097 123.762 125.483 123.377 125.483 122.901C125.483 122.426 125.097 122.04 124.622 122.04C124.146 122.04 123.761 122.426 123.761 122.901C123.761 123.377 124.146 123.762 124.622 123.762Z" fill="#18181B"/>
<path d="M128.914 123.762C129.39 123.762 129.775 123.377 129.775 122.901C129.775 122.426 129.39 122.04 128.914 122.04C128.438 122.04 128.053 122.426 128.053 122.901C128.053 123.377 128.438 123.762 128.914 123.762Z" fill="#18181B"/>
<path d="M126.77 127.033C127.246 127.033 127.631 126.648 127.631 126.172C127.631 125.696 127.246 125.311 126.77 125.311C126.295 125.311 125.909 125.696 125.909 126.172C125.909 126.648 126.295 127.033 126.77 127.033Z" fill="#18181B"/>
<path d="M131.063 127.033C131.538 127.033 131.924 126.648 131.924 126.172C131.924 125.696 131.538 125.311 131.063 125.311C130.587 125.311 130.201 125.696 130.201 126.172C130.201 126.648 130.587 127.033 131.063 127.033Z" fill="#18181B"/>
<path d="M128.914 130.299C129.39 130.299 129.775 129.914 129.775 129.438C129.775 128.962 129.39 128.577 128.914 128.577C128.438 128.577 128.053 128.962 128.053 129.438C128.053 129.914 128.438 130.299 128.914 130.299Z" fill="#18181B"/>
<path d="M131.063 133.57C131.538 133.57 131.924 133.184 131.924 132.709C131.924 132.233 131.538 131.848 131.063 131.848C130.587 131.848 130.201 132.233 130.201 132.709C130.201 133.184 130.587 133.57 131.063 133.57Z" fill="#18181B"/>
<path d="M135.357 120.492C135.833 120.492 136.219 120.106 136.219 119.63C136.219 119.155 135.833 118.769 135.357 118.769C134.882 118.769 134.496 119.155 134.496 119.63C134.496 120.106 134.882 120.492 135.357 120.492Z" fill="#18181B"/>
<path d="M139.65 120.492C140.125 120.492 140.511 120.106 140.511 119.63C140.511 119.155 140.125 118.769 139.65 118.769C139.174 118.769 138.788 119.155 138.788 119.63C138.788 120.106 139.174 120.492 139.65 120.492Z" fill="#18181B"/>
<path d="M143.942 120.492C144.417 120.492 144.803 120.106 144.803 119.63C144.803 119.155 144.417 118.769 143.942 118.769C143.466 118.769 143.081 119.155 143.081 119.63C143.081 120.106 143.466 120.492 143.942 120.492Z" fill="#18181B"/>
<path d="M133.209 123.762C133.685 123.762 134.07 123.377 134.07 122.901C134.07 122.426 133.685 122.04 133.209 122.04C132.733 122.04 132.348 122.426 132.348 122.901C132.348 123.377 132.733 123.762 133.209 123.762Z" fill="#18181B"/>
<path d="M137.501 123.762C137.977 123.762 138.362 123.377 138.362 122.901C138.362 122.426 137.977 122.04 137.501 122.04C137.025 122.04 136.64 122.426 136.64 122.901C136.64 123.377 137.025 123.762 137.501 123.762Z" fill="#18181B"/>
<path d="M141.793 123.762C142.269 123.762 142.655 123.377 142.655 122.901C142.655 122.426 142.269 122.04 141.793 122.04C141.318 122.04 140.932 122.426 140.932 122.901C140.932 123.377 141.318 123.762 141.793 123.762Z" fill="#18181B"/>
<path d="M146.088 123.762C146.564 123.762 146.949 123.377 146.949 122.901C146.949 122.426 146.564 122.04 146.088 122.04C145.613 122.04 145.227 122.426 145.227 122.901C145.227 123.377 145.613 123.762 146.088 123.762Z" fill="#18181B"/>
<path d="M135.357 127.033C135.833 127.033 136.219 126.648 136.219 126.172C136.219 125.696 135.833 125.311 135.357 125.311C134.882 125.311 134.496 125.696 134.496 126.172C134.496 126.648 134.882 127.033 135.357 127.033Z" fill="#18181B"/>
<path d="M139.65 127.033C140.125 127.033 140.511 126.648 140.511 126.172C140.511 125.696 140.125 125.311 139.65 125.311C139.174 125.311 138.788 125.696 138.788 126.172C138.788 126.648 139.174 127.033 139.65 127.033Z" fill="#18181B"/>
<path d="M143.942 127.033C144.417 127.033 144.803 126.648 144.803 126.172C144.803 125.696 144.417 125.311 143.942 125.311C143.466 125.311 143.081 125.696 143.081 126.172C143.081 126.648 143.466 127.033 143.942 127.033Z" fill="#18181B"/>
<path d="M148.236 127.033C148.712 127.033 149.097 126.648 149.097 126.172C149.097 125.696 148.712 125.311 148.236 125.311C147.761 125.311 147.375 125.696 147.375 126.172C147.375 126.648 147.761 127.033 148.236 127.033Z" fill="#18181B"/>
<path d="M152.528 127.033C153.004 127.033 153.39 126.648 153.39 126.172C153.39 125.696 153.004 125.311 152.528 125.311C152.053 125.311 151.667 125.696 151.667 126.172C151.667 126.648 152.053 127.033 152.528 127.033Z" fill="#18181B"/>
<path d="M133.209 130.299C133.685 130.299 134.07 129.914 134.07 129.438C134.07 128.962 133.685 128.577 133.209 128.577C132.733 128.577 132.348 128.962 132.348 129.438C132.348 129.914 132.733 130.299 133.209 130.299Z" fill="#18181B"/>
<path d="M137.501 130.299C137.977 130.299 138.362 129.914 138.362 129.438C138.362 128.962 137.977 128.577 137.501 128.577C137.025 128.577 136.64 128.962 136.64 129.438C136.64 129.914 137.025 130.299 137.501 130.299Z" fill="#18181B"/>
<path d="M141.793 130.299C142.269 130.299 142.655 129.914 142.655 129.438C142.655 128.962 142.269 128.577 141.793 128.577C141.318 128.577 140.932 128.962 140.932 129.438C140.932 129.914 141.318 130.299 141.793 130.299Z" fill="#18181B"/>
<path d="M146.088 130.299C146.564 130.299 146.949 129.914 146.949 129.438C146.949 128.962 146.564 128.577 146.088 128.577C145.613 128.577 145.227 128.962 145.227 129.438C145.227 129.914 145.613 130.299 146.088 130.299Z" fill="#18181B"/>
<path d="M150.38 130.299C150.856 130.299 151.242 129.914 151.242 129.438C151.242 128.962 150.856 128.577 150.38 128.577C149.905 128.577 149.519 128.962 149.519 129.438C149.519 129.914 149.905 130.299 150.38 130.299Z" fill="#18181B"/>
<path d="M154.673 130.299C155.148 130.299 155.534 129.914 155.534 129.438C155.534 128.962 155.148 128.577 154.673 128.577C154.197 128.577 153.811 128.962 153.811 129.438C153.811 129.914 154.197 130.299 154.673 130.299Z" fill="#18181B"/>
<path d="M158.967 130.299C159.443 130.299 159.828 129.914 159.828 129.438C159.828 128.962 159.443 128.577 158.967 128.577C158.491 128.577 158.106 128.962 158.106 129.438C158.106 129.914 158.491 130.299 158.967 130.299Z" fill="#18181B"/>
<path d="M135.357 133.57C135.833 133.57 136.219 133.184 136.219 132.709C136.219 132.233 135.833 131.848 135.357 131.848C134.882 131.848 134.496 132.233 134.496 132.709C134.496 133.184 134.882 133.57 135.357 133.57Z" fill="#18181B"/>
<path d="M139.65 133.57C140.125 133.57 140.511 133.184 140.511 132.709C140.511 132.233 140.125 131.848 139.65 131.848C139.174 131.848 138.788 132.233 138.788 132.709C138.788 133.184 139.174 133.57 139.65 133.57Z" fill="#18181B"/>
<path d="M143.942 133.57C144.417 133.57 144.803 133.184 144.803 132.709C144.803 132.233 144.417 131.848 143.942 131.848C143.466 131.848 143.081 132.233 143.081 132.709C143.081 133.184 143.466 133.57 143.942 133.57Z" fill="#18181B"/>
<path d="M148.236 133.57C148.712 133.57 149.097 133.184 149.097 132.709C149.097 132.233 148.712 131.848 148.236 131.848C147.761 131.848 147.375 132.233 147.375 132.709C147.375 133.184 147.761 133.57 148.236 133.57Z" fill="#18181B"/>
<path d="M152.528 133.57C153.004 133.57 153.39 133.184 153.39 132.709C153.39 132.233 153.004 131.848 152.528 131.848C152.053 131.848 151.667 132.233 151.667 132.709C151.667 133.184 152.053 133.57 152.528 133.57Z" fill="#18181B"/>
<path d="M156.821 133.57C157.297 133.57 157.682 133.184 157.682 132.709C157.682 132.233 157.297 131.848 156.821 131.848C156.345 131.848 155.96 132.233 155.96 132.709C155.96 133.184 156.345 133.57 156.821 133.57Z" fill="#18181B"/>
<path d="M161.115 133.57C161.591 133.57 161.977 133.184 161.977 132.709C161.977 132.233 161.591 131.848 161.115 131.848C160.64 131.848 160.254 132.233 160.254 132.709C160.254 133.184 160.64 133.57 161.115 133.57Z" fill="#18181B"/>
<path d="M165.408 133.57C165.883 133.57 166.269 133.184 166.269 132.709C166.269 132.233 165.883 131.848 165.408 131.848C164.932 131.848 164.547 132.233 164.547 132.709C164.547 133.184 164.932 133.57 165.408 133.57Z" fill="#18181B"/>
<path d="M216.924 133.57C217.4 133.57 217.786 133.184 217.786 132.709C217.786 132.233 217.4 131.848 216.924 131.848C216.449 131.848 216.063 132.233 216.063 132.709C216.063 133.184 216.449 133.57 216.924 133.57Z" fill="#18181B"/>
<path d="M137.501 136.839C137.977 136.839 138.362 136.453 138.362 135.977C138.362 135.502 137.977 135.116 137.501 135.116C137.025 135.116 136.64 135.502 136.64 135.977C136.64 136.453 137.025 136.839 137.501 136.839Z" fill="#18181B"/>
<path d="M141.793 136.839C142.269 136.839 142.655 136.453 142.655 135.977C142.655 135.502 142.269 135.116 141.793 135.116C141.318 135.116 140.932 135.502 140.932 135.977C140.932 136.453 141.318 136.839 141.793 136.839Z" fill="#18181B"/>
<path d="M146.088 136.839C146.564 136.839 146.949 136.453 146.949 135.977C146.949 135.502 146.564 135.116 146.088 135.116C145.613 135.116 145.227 135.502 145.227 135.977C145.227 136.453 145.613 136.839 146.088 136.839Z" fill="#18181B"/>
<path d="M150.38 136.839C150.856 136.839 151.242 136.453 151.242 135.977C151.242 135.502 150.856 135.116 150.38 135.116C149.905 135.116 149.519 135.502 149.519 135.977C149.519 136.453 149.905 136.839 150.38 136.839Z" fill="#18181B"/>
<path d="M154.673 136.839C155.148 136.839 155.534 136.453 155.534 135.977C155.534 135.502 155.148 135.116 154.673 135.116C154.197 135.116 153.811 135.502 153.811 135.977C153.811 136.453 154.197 136.839 154.673 136.839Z" fill="#18181B"/>
<path d="M158.967 136.839C159.443 136.839 159.828 136.453 159.828 135.977C159.828 135.502 159.443 135.116 158.967 135.116C158.491 135.116 158.106 135.502 158.106 135.977C158.106 136.453 158.491 136.839 158.967 136.839Z" fill="#18181B"/>
<path d="M163.259 136.839C163.735 136.839 164.12 136.453 164.12 135.977C164.12 135.502 163.735 135.116 163.259 135.116C162.784 135.116 162.398 135.502 162.398 135.977C162.398 136.453 162.784 136.839 163.259 136.839Z" fill="#18181B"/>
<path d="M167.552 136.839C168.026 136.839 168.413 136.452 168.413 135.977C168.413 135.503 168.026 135.116 167.552 135.116C167.08 135.116 166.695 135.503 166.695 135.977C166.695 136.452 167.082 136.839 167.552 136.839Z" fill="#18181B"/>
<path d="M210.488 136.839C210.964 136.839 211.349 136.453 211.349 135.977C211.349 135.502 210.964 135.116 210.488 135.116C210.012 135.116 209.627 135.502 209.627 135.977C209.627 136.453 210.012 136.839 210.488 136.839Z" fill="#18181B"/>
<path d="M214.78 136.839C215.256 136.839 215.641 136.453 215.641 135.977C215.641 135.502 215.256 135.116 214.78 135.116C214.305 135.116 213.919 135.502 213.919 135.977C213.919 136.453 214.305 136.839 214.78 136.839Z" fill="#18181B"/>
<path d="M219.073 136.839C219.549 136.839 219.934 136.453 219.934 135.977C219.934 135.502 219.549 135.116 219.073 135.116C218.597 135.116 218.212 135.502 218.212 135.977C218.212 136.453 218.597 136.839 219.073 136.839Z" fill="#18181B"/>
<path d="M143.942 140.109C144.417 140.109 144.803 139.724 144.803 139.248C144.803 138.773 144.417 138.387 143.942 138.387C143.466 138.387 143.081 138.773 143.081 139.248C143.081 139.724 143.466 140.109 143.942 140.109Z" fill="#18181B"/>
<path d="M148.236 140.109C148.712 140.109 149.097 139.724 149.097 139.248C149.097 138.773 148.712 138.387 148.236 138.387C147.761 138.387 147.375 138.773 147.375 139.248C147.375 139.724 147.761 140.109 148.236 140.109Z" fill="#18181B"/>
<path d="M152.528 140.109C153.004 140.109 153.39 139.724 153.39 139.248C153.39 138.773 153.004 138.387 152.528 138.387C152.053 138.387 151.667 138.773 151.667 139.248C151.667 139.724 152.053 140.109 152.528 140.109Z" fill="#18181B"/>
<path d="M156.821 140.109C157.297 140.109 157.682 139.724 157.682 139.248C157.682 138.773 157.297 138.387 156.821 138.387C156.345 138.387 155.96 138.773 155.96 139.248C155.96 139.724 156.345 140.109 156.821 140.109Z" fill="#18181B"/>
<path d="M161.115 140.109C161.591 140.109 161.977 139.724 161.977 139.248C161.977 138.773 161.591 138.387 161.115 138.387C160.64 138.387 160.254 138.773 160.254 139.248C160.254 139.724 160.64 140.109 161.115 140.109Z" fill="#18181B"/>
<path d="M165.408 140.109C165.883 140.109 166.269 139.724 166.269 139.248C166.269 138.773 165.883 138.387 165.408 138.387C164.932 138.387 164.547 138.773 164.547 139.248C164.547 139.724 164.932 140.109 165.408 140.109Z" fill="#18181B"/>
<path d="M169.7 140.109C170.176 140.109 170.561 139.724 170.561 139.248C170.561 138.773 170.176 138.387 169.7 138.387C169.224 138.387 168.839 138.773 168.839 139.248C168.839 139.724 169.224 140.109 169.7 140.109Z" fill="#18181B"/>
<path d="M173.995 140.109C174.47 140.109 174.856 139.724 174.856 139.248C174.856 138.773 174.47 138.387 173.995 138.387C173.519 138.387 173.134 138.773 173.134 139.248C173.134 139.724 173.519 140.109 173.995 140.109Z" fill="#18181B"/>
<path d="M208.34 140.109C208.816 140.109 209.201 139.724 209.201 139.248C209.201 138.773 208.816 138.387 208.34 138.387C207.864 138.387 207.479 138.773 207.479 139.248C207.479 139.724 207.864 140.109 208.34 140.109Z" fill="#18181B"/>
<path d="M212.632 140.109C213.108 140.109 213.493 139.724 213.493 139.248C213.493 138.773 213.108 138.387 212.632 138.387C212.157 138.387 211.771 138.773 211.771 139.248C211.771 139.724 212.157 140.109 212.632 140.109Z" fill="#18181B"/>
<path d="M216.924 140.109C217.4 140.109 217.786 139.724 217.786 139.248C217.786 138.773 217.4 138.387 216.924 138.387C216.449 138.387 216.063 138.773 216.063 139.248C216.063 139.724 216.449 140.109 216.924 140.109Z" fill="#18181B"/>
<path d="M221.219 140.109C221.694 140.109 222.08 139.724 222.08 139.248C222.08 138.773 221.694 138.387 221.219 138.387C220.743 138.387 220.358 138.773 220.358 139.248C220.358 139.724 220.743 140.109 221.219 140.109Z" fill="#18181B"/>
<path d="M150.38 143.38C150.856 143.38 151.242 142.995 151.242 142.519C151.242 142.043 150.856 141.658 150.38 141.658C149.905 141.658 149.519 142.043 149.519 142.519C149.519 142.995 149.905 143.38 150.38 143.38Z" fill="#18181B"/>
<path d="M154.673 143.38C155.148 143.38 155.534 142.995 155.534 142.519C155.534 142.043 155.148 141.658 154.673 141.658C154.197 141.658 153.811 142.043 153.811 142.519C153.811 142.995 154.197 143.38 154.673 143.38Z" fill="#18181B"/>
<path d="M158.967 143.38C159.443 143.38 159.828 142.995 159.828 142.519C159.828 142.043 159.443 141.658 158.967 141.658C158.491 141.658 158.106 142.043 158.106 142.519C158.106 142.995 158.491 143.38 158.967 143.38Z" fill="#18181B"/>
<path d="M163.259 143.38C163.735 143.38 164.12 142.995 164.12 142.519C164.12 142.043 163.735 141.658 163.259 141.658C162.784 141.658 162.398 142.043 162.398 142.519C162.398 142.995 162.784 143.38 163.259 143.38Z" fill="#18181B"/>
<path d="M167.552 143.38C168.026 143.38 168.413 142.993 168.413 142.519C168.413 142.045 168.026 141.658 167.552 141.658C167.08 141.658 166.695 142.045 166.695 142.519C166.695 142.993 167.082 143.38 167.552 143.38Z" fill="#18181B"/>
<path d="M170.985 142.519C170.985 142.993 171.374 143.38 171.849 143.38C172.32 143.38 172.705 142.993 172.705 142.519C172.705 142.045 172.318 141.658 171.849 141.658C171.374 141.658 170.985 142.045 170.985 142.519Z" fill="#18181B"/>
<path d="M176.139 143.38C176.613 143.38 177.002 142.993 177.002 142.519C177.002 142.045 176.613 141.658 176.139 141.658C175.667 141.658 175.282 142.045 175.282 142.519C175.282 142.993 175.669 143.38 176.139 143.38Z" fill="#18181B"/>
<path d="M179.572 142.519C179.572 142.993 179.961 143.38 180.435 143.38C180.907 143.38 181.292 142.993 181.292 142.519C181.292 142.045 180.905 141.658 180.435 141.658C179.961 141.658 179.572 142.045 179.572 142.519Z" fill="#18181B"/>
<path d="M206.194 143.38C206.669 143.38 207.055 142.995 207.055 142.519C207.055 142.043 206.669 141.658 206.194 141.658C205.718 141.658 205.332 142.043 205.332 142.519C205.332 142.995 205.718 143.38 206.194 143.38Z" fill="#18181B"/>
<path d="M210.488 143.38C210.964 143.38 211.349 142.995 211.349 142.519C211.349 142.043 210.964 141.658 210.488 141.658C210.012 141.658 209.627 142.043 209.627 142.519C209.627 142.995 210.012 143.38 210.488 143.38Z" fill="#18181B"/>
<path d="M214.78 143.38C215.256 143.38 215.641 142.995 215.641 142.519C215.641 142.043 215.256 141.658 214.78 141.658C214.305 141.658 213.919 142.043 213.919 142.519C213.919 142.995 214.305 143.38 214.78 143.38Z" fill="#18181B"/>
<path d="M219.073 143.38C219.549 143.38 219.934 142.995 219.934 142.519C219.934 142.043 219.549 141.658 219.073 141.658C218.597 141.658 218.212 142.043 218.212 142.519C218.212 142.995 218.597 143.38 219.073 143.38Z" fill="#18181B"/>
<path d="M223.367 143.38C223.843 143.38 224.229 142.995 224.229 142.519C224.229 142.043 223.843 141.658 223.367 141.658C222.892 141.658 222.506 142.043 222.506 142.519C222.506 142.995 222.892 143.38 223.367 143.38Z" fill="#18181B"/>
<path d="M152.528 146.651C153.004 146.651 153.39 146.265 153.39 145.79C153.39 145.314 153.004 144.928 152.528 144.928C152.053 144.928 151.667 145.314 151.667 145.79C151.667 146.265 152.053 146.651 152.528 146.651Z" fill="#18181B"/>
<path d="M156.821 146.651C157.297 146.651 157.682 146.265 157.682 145.79C157.682 145.314 157.297 144.928 156.821 144.928C156.345 144.928 155.96 145.314 155.96 145.79C155.96 146.265 156.345 146.651 156.821 146.651Z" fill="#18181B"/>
<path d="M161.115 146.651C161.591 146.651 161.977 146.265 161.977 145.79C161.977 145.314 161.591 144.928 161.115 144.928C160.64 144.928 160.254 145.314 160.254 145.79C160.254 146.265 160.64 146.651 161.115 146.651Z" fill="#18181B"/>
<path d="M165.408 146.651C165.883 146.651 166.269 146.265 166.269 145.79C166.269 145.314 165.883 144.928 165.408 144.928C164.932 144.928 164.547 145.314 164.547 145.79C164.547 146.265 164.932 146.651 165.408 146.651Z" fill="#18181B"/>
<path d="M169.7 146.651C170.176 146.651 170.561 146.265 170.561 145.79C170.561 145.314 170.176 144.928 169.7 144.928C169.224 144.928 168.839 145.314 168.839 145.79C168.839 146.265 169.224 146.651 169.7 146.651Z" fill="#18181B"/>
<path d="M173.995 146.651C174.47 146.651 174.856 146.265 174.856 145.79C174.856 145.314 174.47 144.928 173.995 144.928C173.519 144.928 173.134 145.314 173.134 145.79C173.134 146.265 173.519 146.651 173.995 146.651Z" fill="#18181B"/>
<path d="M178.287 146.651C178.763 146.651 179.148 146.265 179.148 145.79C179.148 145.314 178.763 144.928 178.287 144.928C177.811 144.928 177.426 145.314 177.426 145.79C177.426 146.265 177.811 146.651 178.287 146.651Z" fill="#18181B"/>
<path d="M182.579 146.651C183.055 146.651 183.44 146.265 183.44 145.79C183.44 145.314 183.055 144.928 182.579 144.928C182.104 144.928 181.718 145.314 181.718 145.79C181.718 146.265 182.104 146.651 182.579 146.651Z" fill="#18181B"/>
<path d="M199.753 146.651C200.229 146.651 200.614 146.265 200.614 145.79C200.614 145.314 200.229 144.928 199.753 144.928C199.277 144.928 198.892 145.314 198.892 145.79C198.892 146.265 199.277 146.651 199.753 146.651Z" fill="#18181B"/>
<path d="M204.045 146.651C204.521 146.651 204.906 146.265 204.906 145.79C204.906 145.314 204.521 144.928 204.045 144.928C203.57 144.928 203.184 145.314 203.184 145.79C203.184 146.265 203.57 146.651 204.045 146.651Z" fill="#18181B"/>
<path d="M208.34 146.651C208.816 146.651 209.201 146.265 209.201 145.79C209.201 145.314 208.816 144.928 208.34 144.928C207.864 144.928 207.479 145.314 207.479 145.79C207.479 146.265 207.864 146.651 208.34 146.651Z" fill="#18181B"/>
<path d="M212.632 146.651C213.108 146.651 213.493 146.265 213.493 145.79C213.493 145.314 213.108 144.928 212.632 144.928C212.157 144.928 211.771 145.314 211.771 145.79C211.771 146.265 212.157 146.651 212.632 146.651Z" fill="#18181B"/>
<path d="M216.924 146.651C217.4 146.651 217.786 146.265 217.786 145.79C217.786 145.314 217.4 144.928 216.924 144.928C216.449 144.928 216.063 145.314 216.063 145.79C216.063 146.265 216.449 146.651 216.924 146.651Z" fill="#18181B"/>
<path d="M221.219 146.651C221.694 146.651 222.08 146.265 222.08 145.79C222.08 145.314 221.694 144.928 221.219 144.928C220.743 144.928 220.358 145.314 220.358 145.79C220.358 146.265 220.743 146.651 221.219 146.651Z" fill="#18181B"/>
<path d="M159.828 149.06C159.828 148.586 159.441 148.197 158.967 148.197C158.493 148.197 158.106 148.586 158.106 149.06C158.106 149.532 158.493 149.917 158.967 149.917C159.441 149.917 159.828 149.53 159.828 149.06Z" fill="#18181B"/>
<path d="M164.12 149.06C164.12 148.586 163.733 148.197 163.259 148.197C162.785 148.197 162.398 148.586 162.398 149.06C162.398 149.532 162.785 149.917 163.259 149.917C163.733 149.917 164.12 149.53 164.12 149.06Z" fill="#18181B"/>
<path d="M168.413 149.06C168.413 148.586 168.026 148.197 167.552 148.197C167.08 148.197 166.695 148.586 166.695 149.06C166.695 149.532 167.082 149.917 167.552 149.917C168.028 149.917 168.413 149.53 168.413 149.06Z" fill="#18181B"/>
<path d="M170.985 149.06C170.985 149.532 171.374 149.917 171.849 149.917C172.32 149.917 172.705 149.53 172.705 149.06C172.705 148.586 172.318 148.197 171.849 148.197C171.374 148.194 170.985 148.586 170.985 149.06Z" fill="#18181B"/>
<path d="M176.139 149.917C176.613 149.917 177.002 149.53 177.002 149.06C177.002 148.586 176.613 148.197 176.139 148.197C175.667 148.197 175.282 148.586 175.282 149.06C175.282 149.53 175.669 149.917 176.139 149.917Z" fill="#18181B"/>
<path d="M179.572 149.06C179.572 149.532 179.961 149.917 180.435 149.917C180.907 149.917 181.292 149.53 181.292 149.06C181.292 148.586 180.905 148.197 180.435 148.197C179.961 148.194 179.572 148.586 179.572 149.06Z" fill="#18181B"/>
<path d="M184.725 149.917C185.199 149.917 185.589 149.53 185.589 149.06C185.589 148.586 185.199 148.197 184.725 148.197C184.253 148.197 183.869 148.586 183.869 149.06C183.869 149.53 184.253 149.917 184.725 149.917Z" fill="#18181B"/>
<path d="M188.161 149.06C188.161 149.532 188.548 149.917 189.022 149.917C189.494 149.917 189.879 149.53 189.879 149.06C189.879 148.586 189.492 148.197 189.022 148.197C188.548 148.194 188.161 148.586 188.161 149.06Z" fill="#18181B"/>
<path d="M192.453 149.06C192.453 149.532 192.84 149.917 193.314 149.917C193.788 149.917 194.176 149.53 194.176 149.06C194.176 148.586 193.788 148.197 193.314 148.197C192.84 148.194 192.453 148.586 192.453 149.06Z" fill="#18181B"/>
<path d="M196.748 149.06C196.748 149.532 197.135 149.917 197.609 149.917C198.083 149.917 198.47 149.53 198.47 149.06C198.47 148.586 198.083 148.197 197.609 148.197C197.133 148.194 196.748 148.586 196.748 149.06Z" fill="#18181B"/>
<path d="M201.04 149.06C201.04 149.532 201.427 149.917 201.901 149.917C202.376 149.917 202.763 149.53 202.763 149.06C202.763 148.586 202.376 148.197 201.901 148.197C201.427 148.194 201.04 148.586 201.04 149.06Z" fill="#18181B"/>
<path d="M206.194 148.195C205.72 148.195 205.332 148.584 205.332 149.058C205.332 149.53 205.72 149.915 206.194 149.915C206.668 149.915 207.055 149.528 207.055 149.058C207.055 148.586 206.668 148.195 206.194 148.195Z" fill="#18181B"/>
<path d="M209.627 149.06C209.627 149.532 210.014 149.917 210.488 149.917C210.962 149.917 211.349 149.53 211.349 149.06C211.349 148.586 210.962 148.197 210.488 148.197C210.014 148.197 209.627 148.586 209.627 149.06Z" fill="#18181B"/>
<path d="M213.919 149.06C213.919 149.532 214.306 149.917 214.78 149.917C215.254 149.917 215.641 149.53 215.641 149.06C215.641 148.586 215.254 148.197 214.78 148.197C214.306 148.197 213.919 148.586 213.919 149.06Z" fill="#18181B"/>
<path d="M219.073 148.195C218.599 148.195 218.212 148.584 218.212 149.058C218.212 149.53 218.599 149.915 219.073 149.915C219.547 149.915 219.934 149.528 219.934 149.058C219.934 148.586 219.549 148.195 219.073 148.195Z" fill="#18181B"/>
<path d="M165.408 153.188C165.883 153.188 166.269 152.802 166.269 152.327C166.269 151.851 165.883 151.465 165.408 151.465C164.932 151.465 164.547 151.851 164.547 152.327C164.547 152.802 164.932 153.188 165.408 153.188Z" fill="#18181B"/>
<path d="M169.7 153.188C170.176 153.188 170.561 152.802 170.561 152.327C170.561 151.851 170.176 151.465 169.7 151.465C169.224 151.465 168.839 151.851 168.839 152.327C168.839 152.802 169.224 153.188 169.7 153.188Z" fill="#18181B"/>
<path d="M173.995 153.188C174.47 153.188 174.856 152.802 174.856 152.327C174.856 151.851 174.47 151.465 173.995 151.465C173.519 151.465 173.134 151.851 173.134 152.327C173.134 152.802 173.519 153.188 173.995 153.188Z" fill="#18181B"/>
<path d="M178.287 153.188C178.763 153.188 179.148 152.802 179.148 152.327C179.148 151.851 178.763 151.465 178.287 151.465C177.811 151.465 177.426 151.851 177.426 152.327C177.426 152.802 177.811 153.188 178.287 153.188Z" fill="#18181B"/>
<path d="M182.579 153.188C183.055 153.188 183.44 152.802 183.44 152.327C183.44 151.851 183.055 151.465 182.579 151.465C182.104 151.465 181.718 151.851 181.718 152.327C181.718 152.802 182.104 153.188 182.579 153.188Z" fill="#18181B"/>
<path d="M186.874 153.188C187.349 153.188 187.735 152.802 187.735 152.327C187.735 151.851 187.349 151.465 186.874 151.465C186.398 151.465 186.012 151.851 186.012 152.327C186.012 152.802 186.398 153.188 186.874 153.188Z" fill="#18181B"/>
<path d="M191.166 153.188C191.642 153.188 192.027 152.802 192.027 152.327C192.027 151.851 191.642 151.465 191.166 151.465C190.69 151.465 190.305 151.851 190.305 152.327C190.305 152.802 190.69 153.188 191.166 153.188Z" fill="#18181B"/>
<path d="M195.461 153.188C195.936 153.188 196.322 152.802 196.322 152.327C196.322 151.851 195.936 151.465 195.461 151.465C194.985 151.465 194.599 151.851 194.599 152.327C194.599 152.802 194.985 153.188 195.461 153.188Z" fill="#18181B"/>
<path d="M199.753 153.188C200.229 153.188 200.614 152.802 200.614 152.327C200.614 151.851 200.229 151.465 199.753 151.465C199.277 151.465 198.892 151.851 198.892 152.327C198.892 152.802 199.277 153.188 199.753 153.188Z" fill="#18181B"/>
<path d="M204.045 153.188C204.521 153.188 204.906 152.802 204.906 152.327C204.906 151.851 204.521 151.465 204.045 151.465C203.57 151.465 203.184 151.851 203.184 152.327C203.184 152.802 203.57 153.188 204.045 153.188Z" fill="#18181B"/>
<path d="M208.34 153.188C208.816 153.188 209.201 152.802 209.201 152.327C209.201 151.851 208.816 151.465 208.34 151.465C207.864 151.465 207.479 151.851 207.479 152.327C207.479 152.802 207.864 153.188 208.34 153.188Z" fill="#18181B"/>
<path d="M212.632 153.188C213.108 153.188 213.493 152.802 213.493 152.327C213.493 151.851 213.108 151.465 212.632 151.465C212.157 151.465 211.771 151.851 211.771 152.327C211.771 152.802 212.157 153.188 212.632 153.188Z" fill="#18181B"/>
<path d="M216.924 153.188C217.4 153.188 217.786 152.802 217.786 152.327C217.786 151.851 217.4 151.465 216.924 151.465C216.449 151.465 216.063 151.851 216.063 152.327C216.063 152.802 216.449 153.188 216.924 153.188Z" fill="#18181B"/>
<path d="M171.849 154.736C171.374 154.736 170.985 155.123 170.985 155.597C170.985 156.071 171.374 156.458 171.849 156.458C172.32 156.458 172.705 156.071 172.705 155.597C172.705 155.123 172.32 154.736 171.849 154.736Z" fill="#18181B"/>
<path d="M177.004 155.597C177.004 155.123 176.615 154.736 176.141 154.736C175.669 154.736 175.284 155.123 175.284 155.597C175.284 156.071 175.671 156.458 176.141 156.458C176.613 156.458 177.004 156.071 177.004 155.597Z" fill="#18181B"/>
<path d="M180.435 154.736C179.961 154.736 179.572 155.123 179.572 155.597C179.572 156.071 179.961 156.458 180.435 156.458C180.907 156.458 181.292 156.071 181.292 155.597C181.292 155.123 180.907 154.736 180.435 154.736Z" fill="#18181B"/>
<path d="M184.725 156.458C185.199 156.458 185.589 156.071 185.589 155.597C185.589 155.123 185.199 154.736 184.725 154.736C184.253 154.736 183.869 155.123 183.869 155.597C183.869 156.071 184.253 156.458 184.725 156.458Z" fill="#18181B"/>
<path d="M189.022 154.736C188.548 154.736 188.161 155.123 188.161 155.597C188.161 156.071 188.548 156.458 189.022 156.458C189.494 156.458 189.879 156.071 189.879 155.597C189.879 155.123 189.492 154.736 189.022 154.736Z" fill="#18181B"/>
<path d="M193.314 156.458C193.79 156.458 194.176 156.073 194.176 155.597C194.176 155.122 193.79 154.736 193.314 154.736C192.839 154.736 192.453 155.122 192.453 155.597C192.453 156.073 192.839 156.458 193.314 156.458Z" fill="#18181B"/>
<path d="M197.609 156.458C198.085 156.458 198.47 156.073 198.47 155.597C198.47 155.122 198.085 154.736 197.609 154.736C197.134 154.736 196.748 155.122 196.748 155.597C196.748 156.073 197.134 156.458 197.609 156.458Z" fill="#18181B"/>
<path d="M201.901 156.458C202.377 156.458 202.763 156.073 202.763 155.597C202.763 155.122 202.377 154.736 201.901 154.736C201.426 154.736 201.04 155.122 201.04 155.597C201.04 156.073 201.426 156.458 201.901 156.458Z" fill="#18181B"/>
<path d="M206.194 156.458C206.669 156.458 207.055 156.073 207.055 155.597C207.055 155.122 206.669 154.736 206.194 154.736C205.718 154.736 205.332 155.122 205.332 155.597C205.332 156.073 205.718 156.458 206.194 156.458Z" fill="#18181B"/>
<path d="M210.488 156.458C210.964 156.458 211.349 156.073 211.349 155.597C211.349 155.122 210.964 154.736 210.488 154.736C210.012 154.736 209.627 155.122 209.627 155.597C209.627 156.073 210.012 156.458 210.488 156.458Z" fill="#18181B"/>
<path d="M214.78 156.458C215.256 156.458 215.641 156.073 215.641 155.597C215.641 155.122 215.256 154.736 214.78 154.736C214.305 154.736 213.919 155.122 213.919 155.597C213.919 156.073 214.305 156.458 214.78 156.458Z" fill="#18181B"/>
<path d="M178.287 159.729C178.763 159.729 179.148 159.344 179.148 158.868C179.148 158.392 178.763 158.007 178.287 158.007C177.811 158.007 177.426 158.392 177.426 158.868C177.426 159.344 177.811 159.729 178.287 159.729Z" fill="#18181B"/>
<path d="M182.579 159.729C183.055 159.729 183.44 159.344 183.44 158.868C183.44 158.392 183.055 158.007 182.579 158.007C182.104 158.007 181.718 158.392 181.718 158.868C181.718 159.344 182.104 159.729 182.579 159.729Z" fill="#18181B"/>
<path d="M186.874 159.729C187.349 159.729 187.735 159.344 187.735 158.868C187.735 158.392 187.349 158.007 186.874 158.007C186.398 158.007 186.012 158.392 186.012 158.868C186.012 159.344 186.398 159.729 186.874 159.729Z" fill="#18181B"/>
<path d="M191.166 159.729C191.642 159.729 192.027 159.344 192.027 158.868C192.027 158.392 191.642 158.007 191.166 158.007C190.69 158.007 190.305 158.392 190.305 158.868C190.305 159.344 190.69 159.729 191.166 159.729Z" fill="#18181B"/>
<path d="M195.461 159.729C195.936 159.729 196.322 159.344 196.322 158.868C196.322 158.392 195.936 158.007 195.461 158.007C194.985 158.007 194.599 158.392 194.599 158.868C194.599 159.344 194.985 159.729 195.461 159.729Z" fill="#18181B"/>
<path d="M199.753 159.729C200.229 159.729 200.614 159.344 200.614 158.868C200.614 158.392 200.229 158.007 199.753 158.007C199.277 158.007 198.892 158.392 198.892 158.868C198.892 159.344 199.277 159.729 199.753 159.729Z" fill="#18181B"/>
<path d="M204.045 159.729C204.521 159.729 204.906 159.344 204.906 158.868C204.906 158.392 204.521 158.007 204.045 158.007C203.57 158.007 203.184 158.392 203.184 158.868C203.184 159.344 203.57 159.729 204.045 159.729Z" fill="#18181B"/>
<path d="M208.34 159.729C208.816 159.729 209.201 159.344 209.201 158.868C209.201 158.392 208.816 158.007 208.34 158.007C207.864 158.007 207.479 158.392 207.479 158.868C207.479 159.344 207.864 159.729 208.34 159.729Z" fill="#18181B"/>
<path d="M212.632 159.729C213.108 159.729 213.493 159.344 213.493 158.868C213.493 158.392 213.108 158.007 212.632 158.007C212.157 158.007 211.771 158.392 211.771 158.868C211.771 159.344 212.157 159.729 212.632 159.729Z" fill="#18181B"/>
<path d="M185.589 162.139C185.589 161.665 185.199 161.278 184.725 161.278C184.253 161.278 183.869 161.665 183.869 162.139C183.869 162.613 184.256 163 184.725 163C185.199 163 185.589 162.613 185.589 162.139Z" fill="#18181B"/>
<path d="M189.022 161.278C188.548 161.278 188.161 161.665 188.161 162.139C188.161 162.613 188.548 163 189.022 163C189.494 163 189.879 162.613 189.879 162.139C189.879 161.665 189.492 161.278 189.022 161.278Z" fill="#18181B"/>
<path d="M193.314 163C193.79 163 194.176 162.614 194.176 162.139C194.176 161.663 193.79 161.278 193.314 161.278C192.839 161.278 192.453 161.663 192.453 162.139C192.453 162.614 192.839 163 193.314 163Z" fill="#18181B"/>
<path d="M197.609 163C198.085 163 198.47 162.614 198.47 162.139C198.47 161.663 198.085 161.278 197.609 161.278C197.134 161.278 196.748 161.663 196.748 162.139C196.748 162.614 197.134 163 197.609 163Z" fill="#18181B"/>
<path d="M201.901 163C202.377 163 202.763 162.614 202.763 162.139C202.763 161.663 202.377 161.278 201.901 161.278C201.426 161.278 201.04 161.663 201.04 162.139C201.04 162.614 201.426 163 201.901 163Z" fill="#18181B"/>
<path d="M206.194 163C206.669 163 207.055 162.614 207.055 162.139C207.055 161.663 206.669 161.278 206.194 161.278C205.718 161.278 205.332 161.663 205.332 162.139C205.332 162.614 205.718 163 206.194 163Z" fill="#18181B"/>
<path d="M72.3241 139.848C72.7982 139.837 73.1899 140.21 73.2013 140.682C73.2128 141.156 72.8394 141.548 72.3676 141.562C71.8935 141.573 71.5018 141.2 71.4881 140.728C71.4766 140.254 71.85 139.86 72.3241 139.848Z" fill="#18181B"/>
<path d="M76.0966 139.752C76.5707 139.741 76.9624 140.114 76.9762 140.586C76.9876 141.06 76.6143 141.451 76.1424 141.465C75.6683 141.477 75.2766 141.103 75.2652 140.631C75.2492 140.157 75.6225 139.763 76.0966 139.752Z" fill="#18181B"/>
<path d="M68.5519 139.944C69.026 139.933 69.4177 140.306 69.4292 140.778C69.4406 141.252 69.0673 141.644 68.5954 141.658C68.1213 141.669 67.7297 141.296 67.7159 140.824C67.7045 140.35 68.0778 139.956 68.5519 139.944Z" fill="#18181B"/>
<path d="M79.8208 139.656C80.2949 139.644 80.6866 140.018 80.6981 140.489C80.7095 140.964 80.3362 141.355 79.8643 141.369C79.3902 141.38 78.9986 141.007 78.9848 140.535C78.9734 140.061 79.3467 139.667 79.8208 139.656Z" fill="#18181B"/>
<path d="M77.9195 138.158C77.4568 138.169 77.072 137.803 77.0606 137.34C77.0491 136.877 77.4156 136.493 77.8783 136.481C78.3409 136.47 78.7257 136.836 78.7372 137.299C78.7486 137.762 78.3821 138.146 77.9195 138.158Z" fill="#18181B"/>
<path d="M78.0845 144.608C77.6219 144.619 77.2371 144.253 77.2256 143.79C77.2142 143.328 77.5784 142.943 78.0433 142.929C78.506 142.918 78.8908 143.284 78.9022 143.747C78.9137 144.209 78.5472 144.594 78.0845 144.608Z" fill="#18181B"/>
<path d="M83.5475 139.562C84.0216 139.551 84.4133 139.924 84.427 140.396C84.4385 140.87 84.0651 141.262 83.5933 141.275C83.1192 141.287 82.7275 140.913 82.716 140.442C82.7 139.965 83.0734 139.573 83.5475 139.562Z" fill="#18181B"/>
<path d="M81.6463 138.064C81.1837 138.076 80.7989 137.709 80.7851 137.246C80.7737 136.784 81.1402 136.399 81.6028 136.387C82.0655 136.376 82.4503 136.742 82.4617 137.205C82.4755 137.666 82.109 138.053 81.6463 138.064Z" fill="#18181B"/>
<path d="M81.811 144.511C81.3483 144.523 80.9635 144.156 80.9498 143.694C80.9383 143.231 81.3048 142.846 81.7675 142.833C82.2301 142.821 82.6149 143.188 82.6264 143.65C82.6401 144.115 82.2759 144.5 81.811 144.511Z" fill="#18181B"/>
<path d="M74.3578 144.702C73.8952 144.713 73.5104 144.347 73.4989 143.884C73.4875 143.421 73.8516 143.036 74.3166 143.023C74.7793 143.011 75.1641 143.378 75.1755 143.84C75.187 144.305 74.8205 144.69 74.3578 144.702Z" fill="#18181B"/>
<path d="M70.6316 144.798C70.1689 144.809 69.7841 144.443 69.7726 143.98C69.7612 143.517 70.1254 143.133 70.5903 143.119C71.053 143.107 71.4378 143.474 71.4492 143.937C71.4584 144.402 71.0942 144.786 70.6316 144.798Z" fill="#18181B"/>
<path d="M87.2717 139.466C87.7458 139.454 88.1375 139.828 88.1489 140.3C88.1604 140.774 87.787 141.165 87.3152 141.179C86.8411 141.191 86.4494 140.817 86.4357 140.345C86.4242 139.871 86.7976 139.477 87.2717 139.466Z" fill="#18181B"/>
<path d="M85.3661 137.968C84.9034 137.979 84.5186 137.613 84.5071 137.15C84.4957 136.687 84.8622 136.302 85.3248 136.291C85.7875 136.28 86.1723 136.644 86.186 137.109C86.1952 137.571 85.831 137.956 85.3661 137.968Z" fill="#18181B"/>
<path d="M85.5307 144.415C85.068 144.427 84.6832 144.06 84.6718 143.598C84.6603 143.135 85.0245 142.75 85.4895 142.736C85.9521 142.725 86.3369 143.089 86.3507 143.554C86.3598 144.019 85.9957 144.404 85.5307 144.415Z" fill="#18181B"/>
<path d="M91.0027 139.369C91.4768 139.358 91.8685 139.731 91.8799 140.203C91.8914 140.677 91.518 141.069 91.0462 141.083C90.5721 141.094 90.1804 140.721 90.1667 140.249C90.1552 139.775 90.5286 139.383 91.0027 139.369Z" fill="#18181B"/>
<path d="M89.1018 137.872C88.6391 137.883 88.2543 137.517 88.2429 137.054C88.2314 136.591 88.5979 136.207 89.0605 136.195C89.5232 136.184 89.908 136.55 89.9195 137.013C89.9309 137.475 89.5644 137.86 89.1018 137.872Z" fill="#18181B"/>
<path d="M89.2664 144.321C88.8037 144.333 88.419 143.966 88.4075 143.504C88.3961 143.041 88.7625 142.656 89.2252 142.642C89.6879 142.629 90.0727 142.997 90.0841 143.46C90.0956 143.923 89.7291 144.308 89.2664 144.321Z" fill="#18181B"/>
<path d="M94.7245 139.276C95.1986 139.264 95.5903 139.638 95.604 140.109C95.6155 140.583 95.2421 140.975 94.7703 140.989C94.2962 141 93.9045 140.627 93.8931 140.155C93.8793 139.679 94.2527 139.287 94.7245 139.276Z" fill="#18181B"/>
<path d="M92.8259 137.778C92.3632 137.789 91.9784 137.423 91.967 136.96C91.9555 136.497 92.322 136.113 92.7847 136.101C93.2473 136.09 93.6321 136.454 93.6436 136.919C93.6528 137.381 93.2886 137.766 92.8259 137.778Z" fill="#18181B"/>
<path d="M92.9906 144.225C92.5279 144.237 92.1431 143.87 92.1316 143.408C92.1202 142.945 92.4867 142.56 92.9493 142.546C93.412 142.535 93.7968 142.901 93.8082 143.364C93.8174 143.829 93.4532 144.214 92.9906 144.225Z" fill="#18181B"/>
<path d="M96.7126 144.129C96.2499 144.141 95.8651 143.774 95.8536 143.311C95.8422 142.849 96.2087 142.464 96.6713 142.45C97.134 142.439 97.5188 142.805 97.5302 143.268C97.5417 143.733 97.1752 144.118 96.7126 144.129Z" fill="#18181B"/>
<path d="M76.3211 147.863C75.8584 147.874 75.4736 147.507 75.4622 147.045C75.4507 146.582 75.8149 146.197 76.2799 146.184C76.7425 146.172 77.1273 146.539 77.1388 147.001C77.1479 147.466 76.7838 147.851 76.3211 147.863Z" fill="#18181B"/>
<path d="M80.0475 147.766C79.5849 147.778 79.2001 147.411 79.1863 146.949C79.1749 146.486 79.5413 146.101 80.004 146.087C80.4667 146.076 80.8515 146.442 80.8629 146.905C80.8767 147.37 80.5102 147.755 80.0475 147.766Z" fill="#18181B"/>
<path d="M72.5922 147.959C72.1296 147.97 71.7448 147.604 71.7333 147.141C71.7219 146.678 72.0861 146.294 72.551 146.28C73.0137 146.268 73.3985 146.635 73.4099 147.097C73.4214 147.56 73.0572 147.945 72.5922 147.959Z" fill="#18181B"/>
<path d="M83.7672 147.672C83.3046 147.684 82.9198 147.317 82.9083 146.855C82.8969 146.392 83.2611 146.007 83.726 145.993C84.1887 145.982 84.5735 146.348 84.5872 146.811C84.5964 147.274 84.2299 147.659 83.7672 147.672Z" fill="#18181B"/>
<path d="M87.503 147.576C87.0403 147.588 86.6555 147.221 86.644 146.758C86.6326 146.296 86.9991 145.911 87.4617 145.897C87.9244 145.886 88.3092 146.252 88.3206 146.715C88.3298 147.18 87.9656 147.565 87.503 147.576Z" fill="#18181B"/>
<path d="M91.225 147.48C90.7623 147.492 90.3775 147.125 90.366 146.662C90.3546 146.2 90.7211 145.815 91.1837 145.801C91.6464 145.787 92.0312 146.156 92.0426 146.619C92.0541 147.084 91.6876 147.469 91.225 147.48Z" fill="#18181B"/>
<path d="M94.9491 147.386C94.4864 147.397 94.1016 147.031 94.0902 146.568C94.0787 146.106 94.4452 145.721 94.9079 145.707C95.3705 145.693 95.7553 146.062 95.7668 146.525C95.7782 146.988 95.4118 147.372 94.9491 147.386Z" fill="#18181B"/>
<path d="M98.4535 139.179C98.9277 139.168 99.3193 139.541 99.3308 140.013C99.3422 140.487 98.9689 140.879 98.497 140.893C98.0229 140.904 97.6313 140.531 97.6175 140.059C97.6061 139.585 97.9794 139.191 98.4535 139.179Z" fill="#18181B"/>
<path d="M96.5479 137.681C96.0852 137.693 95.7004 137.326 95.689 136.864C95.6775 136.401 96.044 136.016 96.5067 136.005C96.9693 135.993 97.3541 136.358 97.3656 136.823C97.377 137.285 97.0129 137.67 96.5479 137.681Z" fill="#18181B"/>
<path d="M100.276 137.585C99.8138 137.597 99.429 137.233 99.4153 136.768C99.4038 136.305 99.7703 135.92 100.233 135.909C100.696 135.897 101.08 136.261 101.092 136.726C101.106 137.189 100.739 137.574 100.276 137.585Z" fill="#18181B"/>
<path d="M98.4786 140.874C98.0159 140.886 97.6311 140.519 97.6197 140.057C97.6082 139.594 97.9747 139.209 98.4374 139.198C98.9 139.186 99.2848 139.551 99.2963 140.015C99.3054 140.478 98.9413 140.863 98.4786 140.874Z" fill="#18181B"/>
<path d="M102.075 134.298C101.612 134.31 101.227 133.943 101.213 133.481C101.202 133.018 101.568 132.633 102.031 132.622C102.494 132.61 102.879 132.977 102.89 133.44C102.904 133.902 102.537 134.287 102.075 134.298Z" fill="#18181B"/>
<path d="M104.008 137.491C103.545 137.503 103.16 137.136 103.149 136.674C103.137 136.211 103.504 135.826 103.967 135.815C104.429 135.803 104.814 136.167 104.825 136.632C104.837 137.095 104.47 137.48 104.008 137.491Z" fill="#18181B"/>
<path d="M100.378 142.372C100.852 142.361 101.243 142.734 101.257 143.206C101.269 143.68 100.895 144.072 100.423 144.086C99.9493 144.097 99.5576 143.724 99.5462 143.252C99.5324 142.778 99.9058 142.384 100.378 142.372Z" fill="#18181B"/>
<path d="M102.201 140.78C101.738 140.792 101.353 140.425 101.342 139.963C101.33 139.5 101.697 139.115 102.159 139.104C102.622 139.092 103.007 139.459 103.018 139.921C103.03 140.382 102.666 140.767 102.201 140.78Z" fill="#18181B"/>
<path d="M105.93 140.684C105.467 140.696 105.082 140.329 105.068 139.867C105.057 139.404 105.423 139.019 105.886 139.008C106.349 138.996 106.734 139.36 106.745 139.825C106.759 140.288 106.392 140.673 105.93 140.684Z" fill="#18181B"/>
<path d="M58.9067 124.044C59.3808 124.033 59.7725 124.406 59.784 124.878C59.7954 125.352 59.4221 125.744 58.9502 125.757C58.4761 125.769 58.0844 125.396 58.0707 124.924C58.0593 124.45 58.4326 124.056 58.9067 124.044Z" fill="#18181B"/>
<path d="M62.6377 123.948C63.1118 123.937 63.5035 124.31 63.515 124.782C63.5264 125.256 63.1531 125.648 62.6812 125.661C62.2071 125.673 61.8155 125.299 61.8017 124.828C61.7903 124.353 62.1636 123.959 62.6377 123.948Z" fill="#18181B"/>
<path d="M60.7368 122.45C60.2741 122.462 59.8894 122.095 59.8779 121.632C59.8664 121.17 60.2329 120.785 60.6956 120.771C61.1583 120.76 61.543 121.126 61.5545 121.589C61.566 122.054 61.1995 122.439 60.7368 122.45Z" fill="#18181B"/>
<path d="M64.4428 120.661C64.9169 120.65 65.3085 121.023 65.32 121.495C65.3314 121.969 64.9581 122.361 64.4863 122.374C64.0122 122.386 63.6205 122.013 63.6067 121.541C63.5953 121.064 63.9686 120.673 64.4428 120.661Z" fill="#18181B"/>
<path d="M72.159 133.396C72.6331 133.385 73.0248 133.758 73.0363 134.23C73.0477 134.704 72.6744 135.096 72.2025 135.109C71.7284 135.121 71.3368 134.747 71.323 134.276C71.3116 133.801 71.6849 133.407 72.159 133.396Z" fill="#18181B"/>
<path d="M75.9316 133.3C76.4057 133.288 76.7973 133.662 76.8111 134.134C76.8225 134.608 76.4492 134.999 75.9774 135.013C75.5032 135.025 75.1116 134.651 75.1001 134.179C75.0841 133.705 75.4574 133.311 75.9316 133.3Z" fill="#18181B"/>
<path d="M74.1906 138.25C73.728 138.261 73.3432 137.895 73.3317 137.432C73.3203 136.969 73.6867 136.584 74.1494 136.573C74.6121 136.562 74.9969 136.928 75.0083 137.391C75.0198 137.853 74.6556 138.238 74.1906 138.25Z" fill="#18181B"/>
<path d="M62.6951 130.421C63.1692 130.409 63.5609 130.783 63.5723 131.254C63.5838 131.728 63.2104 132.12 62.7386 132.134C62.2645 132.145 61.8728 131.772 61.8591 131.3C61.8499 130.826 62.2232 130.432 62.6951 130.421Z" fill="#18181B"/>
<path d="M62.8624 136.877C63.3365 136.866 63.7282 137.239 63.7396 137.711C63.7511 138.185 63.3777 138.577 62.9059 138.591C62.4318 138.602 62.0401 138.229 62.0264 137.757C62.0149 137.281 62.3883 136.889 62.8624 136.877Z" fill="#18181B"/>
<path d="M66.3025 123.877C66.7766 123.866 67.1683 124.239 67.182 124.711C67.1935 125.185 66.8201 125.576 66.3483 125.59C65.8742 125.602 65.4825 125.228 65.4711 124.757C65.4573 124.282 65.8307 123.888 66.3025 123.877Z" fill="#18181B"/>
<path d="M62.5828 117.443C63.057 117.432 63.4486 117.805 63.4601 118.277C63.4715 118.751 63.0982 119.143 62.6264 119.156C62.1522 119.168 61.7606 118.794 61.7468 118.323C61.7354 117.849 62.1087 117.457 62.5828 117.443Z" fill="#18181B"/>
<path d="M66.4676 130.325C66.9417 130.313 67.3334 130.687 67.3471 131.158C67.3586 131.633 66.9852 132.024 66.5134 132.038C66.0393 132.049 65.6476 131.676 65.6361 131.204C65.6224 130.73 65.9957 130.336 66.4676 130.325Z" fill="#18181B"/>
<path d="M64.5643 128.827C64.1016 128.838 63.7168 128.472 63.7054 128.009C63.6939 127.546 64.0604 127.161 64.5231 127.148C64.9857 127.136 65.3705 127.503 65.382 127.965C65.3934 128.43 65.027 128.815 64.5643 128.827Z" fill="#18181B"/>
<path d="M66.6322 136.779C67.1063 136.768 67.498 137.141 67.5117 137.613C67.5232 138.087 67.1498 138.479 66.678 138.492C66.2039 138.504 65.8122 138.13 65.8008 137.659C65.787 137.184 66.1604 136.793 66.6322 136.779Z" fill="#18181B"/>
<path d="M64.7289 135.281C64.2663 135.293 63.8815 134.926 63.87 134.463C63.8586 134.001 64.225 133.616 64.6877 133.605C65.1504 133.593 65.5352 133.96 65.5466 134.422C65.5581 134.885 65.1916 135.27 64.7289 135.281Z" fill="#18181B"/>
<path d="M60.6886 127.255C61.1627 127.244 61.5544 127.617 61.5658 128.089C61.5773 128.563 61.204 128.955 60.7321 128.969C60.258 128.98 59.8663 128.607 59.8526 128.135C59.8411 127.661 60.2145 127.267 60.6886 127.255Z" fill="#18181B"/>
<path d="M56.8362 127.377C57.3103 127.365 57.702 127.739 57.7134 128.21C57.7249 128.685 57.3515 129.076 56.8797 129.09C56.4056 129.101 56.0139 128.728 56.0002 128.256C55.991 127.782 56.3621 127.39 56.8362 127.377Z" fill="#18181B"/>
<path d="M64.894 141.731C64.4313 141.743 64.0465 141.376 64.0351 140.913C64.0236 140.451 64.3901 140.066 64.8528 140.054C65.3154 140.043 65.7002 140.409 65.7117 140.872C65.7231 141.333 65.3567 141.72 64.894 141.731Z" fill="#18181B"/>
<path d="M70.1919 130.228C70.666 130.217 71.0577 130.59 71.0691 131.062C71.0806 131.536 70.7073 131.928 70.2354 131.942C69.7613 131.953 69.3696 131.58 69.3559 131.108C69.3444 130.634 69.7201 130.242 70.1919 130.228Z" fill="#18181B"/>
<path d="M68.2906 128.73C67.8279 128.742 67.4431 128.375 67.4317 127.913C67.4202 127.45 67.7844 127.065 68.2493 127.052C68.712 127.04 69.0968 127.407 69.1083 127.869C69.1197 128.334 68.7555 128.719 68.2906 128.73Z" fill="#18181B"/>
<path d="M70.3565 136.685C70.8306 136.674 71.2222 137.047 71.2337 137.519C71.2451 137.993 70.8718 138.385 70.4 138.398C69.9259 138.41 69.5342 138.036 69.5204 137.565C69.5113 137.09 69.8846 136.697 70.3565 136.685Z" fill="#18181B"/>
<path d="M68.4578 135.187C67.9951 135.199 67.6103 134.832 67.5989 134.369C67.5874 133.907 67.9539 133.522 68.4166 133.511C68.8792 133.499 69.264 133.866 69.2755 134.328C69.2846 134.789 68.9204 135.173 68.4578 135.187Z" fill="#18181B"/>
<path d="M59.0143 130.515C59.4884 130.503 59.8801 130.877 59.8938 131.348C59.9053 131.823 59.5319 132.214 59.0601 132.228C58.586 132.239 58.1943 131.866 58.1828 131.394C58.1668 130.92 58.5401 130.528 59.0143 130.515Z" fill="#18181B"/>
<path d="M61.0026 135.37C60.54 135.382 60.1552 135.015 60.1437 134.553C60.1323 134.09 60.4965 133.705 60.9614 133.691C61.4241 133.68 61.8089 134.046 61.8203 134.509C61.8318 134.974 61.4653 135.359 61.0026 135.37Z" fill="#18181B"/>
<path d="M59.1335 136.965C59.6076 136.953 59.9993 137.327 60.0108 137.798C60.0222 138.272 59.6489 138.664 59.177 138.678C58.7029 138.689 58.3113 138.316 58.2975 137.844C58.2861 137.37 58.6594 136.976 59.1335 136.965Z" fill="#18181B"/>
<path d="M61.1673 141.825C60.7046 141.836 60.3198 141.47 60.3084 141.007C60.2969 140.544 60.6634 140.16 61.1261 140.148C61.5887 140.137 61.9735 140.503 61.985 140.966C61.9964 141.429 61.63 141.813 61.1673 141.825Z" fill="#18181B"/>
<path d="M57.1247 133.799C57.5988 133.788 57.9905 134.161 58.002 134.633C58.0134 135.107 57.6401 135.499 57.1682 135.513C56.6941 135.524 56.3025 135.151 56.2887 134.679C56.2795 134.202 56.6529 133.811 57.1247 133.799Z" fill="#18181B"/>
<path d="M66.7949 143.229C67.269 143.217 67.6607 143.591 67.6721 144.062C67.6836 144.537 67.3103 144.928 66.8384 144.942C66.3643 144.953 65.9726 144.58 65.9589 144.108C65.9474 143.632 66.3208 143.24 66.7949 143.229Z" fill="#18181B"/>
<path d="M107.739 137.384C107.276 137.395 106.891 137.029 106.88 136.566C106.868 136.103 107.235 135.719 107.698 135.707C108.16 135.696 108.545 136.06 108.556 136.525C108.566 136.987 108.201 137.372 107.739 137.384Z" fill="#18181B"/>
<path d="M267.9 56.6961L272.593 55.6379L276.638 57.9627L276.16 60.5876L271.464 61.6481L267.422 59.3278L267.9 56.6961Z" fill="#F4F4F5"/>
<path d="M156.747 29.9805L146.598 35.8394L155.925 41.1968L162.008 37.6855L163.696 33.9727L156.747 29.9805Z" fill="#F4F4F5"/>
<path d="M192.696 147.375L215.953 120.519L191.942 65.0677L181.377 58.9751V71.2289C185.973 76.032 189.773 81.5794 192.607 87.262C192.613 87.2735 192.625 87.2781 192.629 87.2895C192.639 87.3055 192.639 87.3239 192.645 87.3399C196.012 94.1196 197.98 101.094 197.98 107.283C197.98 109.626 197.673 111.765 197.132 113.712C197.153 113.996 197.066 114.255 196.929 114.482C195.738 118.181 193.557 121.039 190.497 122.784C184.705 126.096 176.434 125.059 167.799 119.963C160.025 115.37 152.97 108.087 147.778 99.9831L138.596 105.056L144.991 119.827L192.696 147.375Z" fill="white"/>
<path d="M146.406 97.7316C141.791 89.8731 138.955 81.426 138.955 73.9867C138.955 68.0223 140.733 63.2514 144.095 60.1868C146.807 57.7199 150.442 56.5427 154.608 56.6343V43.478L144.244 37.5251L120.985 64.3806L137.545 102.629L146.406 97.7316Z" fill="white"/>
<path d="M192.98 62.6261L203.133 56.7648L192.847 50.8372L182.696 56.6961L192.98 62.6261Z" fill="#F4F4F5"/>
<path d="M164.647 77.5367L172.29 81.9229V42.4197L164.647 37.9923V77.5367Z" fill="white"/>
<path d="M165.962 35.7088L173.61 40.1385L183.766 34.275L176.118 29.8407L165.962 35.7088Z" fill="#F4F4F5"/>
<path d="M213.573 61.7741C212.62 62.2986 209.821 64.0554 207.423 65.5762C207.989 65.7915 208.562 66.0503 209.134 66.4008C211.409 67.7888 213.44 70.1021 215.041 72.8163L223.088 68.1598C221.64 65.6037 219.792 63.5263 217.902 62.3742C216.246 61.3641 214.707 61.1488 213.573 61.7741Z" fill="#F4F4F5"/>
<path d="M213.39 90.0953C214.805 89.3006 215.618 87.2369 215.618 84.4311C215.618 78.5973 211.974 71.4443 207.664 68.8149C206.647 68.1942 205.676 67.8804 204.821 67.8804C204.304 67.8804 203.827 67.9949 203.406 68.2308C201.99 69.0256 201.177 71.0893 201.177 73.8951C201.177 79.7288 204.821 86.8819 209.132 89.5113C210.77 90.5122 212.284 90.7206 213.39 90.0953ZM213.433 78.7829L211.115 80.3633C212.726 81.8383 213.66 83.1324 213.66 84.6395C213.66 86.4352 212.345 87.2094 208.365 84.7769C205.664 83.1278 203.122 80.5167 203.138 77.9652L206.461 79.9945C206.477 80.8305 207.343 81.7788 208.417 82.4338C209.386 83.0271 210.199 83.1897 210.199 82.3078C210.199 81.4833 209.576 80.6679 208.607 80.0747L207.707 79.525L207.222 78.4187L208.907 77.4292L204.395 74.6692V71.9299C207.414 73.7737 210.385 75.59 213.433 77.4521V78.7829Z" fill="white"/>
<path d="M204.395 71.9275V74.6669L208.908 77.4268L207.222 78.4163L207.707 79.5226L208.608 80.0723C209.576 80.6655 210.199 81.4786 210.199 82.3055C210.199 83.1873 209.386 83.0247 208.417 82.4314C207.346 81.7764 206.48 80.8281 206.461 79.9921L203.138 77.9628C203.12 80.5143 205.664 83.1254 208.365 84.7746C212.346 87.207 213.66 86.4328 213.66 84.6371C213.66 83.1323 212.726 81.8382 211.116 80.3609L213.434 78.7805V77.4497C210.385 75.5876 207.414 73.7736 204.395 71.9275Z" fill="#18181B"/>
<path d="M278.759 56.1442L273.489 53.0979C273.203 52.933 272.866 52.878 272.541 52.9513L266.469 54.3118C265.951 54.4286 265.555 54.8409 265.461 55.3631L264.662 59.7676C264.563 60.315 264.817 60.867 265.301 61.1442L270.571 64.1859C270.773 64.3027 270.999 64.3623 271.228 64.3623C271.325 64.3623 271.421 64.3554 271.517 64.3325L277.587 62.972C278.104 62.8551 278.501 62.4429 278.594 61.9206L279.394 57.5207C279.495 56.9733 279.243 56.4213 278.759 56.1442ZM276.16 60.5876L271.444 61.6481L267.422 59.3279L267.9 56.6984L272.616 55.638L276.638 57.9628L276.16 60.5876Z" fill="#18181B"/>
<path d="M244.764 74.8752L242.843 85.4594L255.511 92.775L270.106 89.5043L272.027 78.9202L259.359 71.6045L244.764 74.8752Z" fill="#18181B"/>
<path d="M89.1909 127.372L115.391 120.553L118.314 109.03H118.328L118.38 108.82C118.387 108.767 118.373 108.714 118.387 108.662C118.774 107.127 119.493 104.328 119.876 102.853L115.313 100.224L110.497 102.993C110.732 103.249 110.959 103.515 111.168 103.776C111.191 103.801 111.209 103.826 111.227 103.854C112.093 104.976 112.725 106.165 113.105 107.386C113.277 107.938 113.399 108.497 113.47 109.067C113.474 109.108 113.458 109.143 113.46 109.181H113.47C113.744 111.772 112.904 114.262 111.005 116.389C107.778 120.008 101.878 122.157 95.201 122.161C95.1506 122.166 95.0888 122.166 95.0292 122.166C95.0269 122.166 95.0246 122.166 95.0224 122.166C83.9321 122.104 74.1977 116.158 73.3227 108.911C72.9998 106.245 73.8701 103.687 75.8331 101.518C79.1794 97.814 85.2811 95.661 92.1937 95.8145C93.6504 95.8419 95.0819 96.0046 96.4882 96.2267L102.237 92.6674L99.0077 90.803L72.3012 97.1681L67.4867 115.373L89.1909 127.372Z" fill="#F4F4F5"/>
<path d="M92.1524 102.986L96.3599 105.258L106.713 98.7852C106.715 98.7829 106.717 98.7852 106.72 98.7829L117.024 92.3399L112.956 90.0815L92.1524 102.986Z" fill="#F4F4F5"/>
<path d="M106.094 110.547V102.283L97.7296 107.509L97.7411 115.817L106.094 110.547Z" fill="white"/>
<path d="M163.159 91.4832C162.648 90.7595 162.167 90.0242 161.69 89.2844L146.406 97.7316C146.851 98.4874 147.3 99.241 147.776 99.9854L163.159 91.4832Z" fill="#F4F4F5"/>
<path d="M90.0338 87.2117L91.4745 86.0756L87.3792 83.8745C88.0503 83.3592 88.7672 83.6524 89.2482 83.9066C90.966 84.8136 92.7777 85.1205 94.239 83.9661C95.4782 82.9904 94.6376 81.8337 92.993 81.0481C91.4126 80.2923 89.5253 80.0587 88.2106 81.0458L90.0956 81.9941C90.5766 81.6872 91.1286 81.7444 91.7173 82.0376C92.2097 82.2804 92.5487 82.6377 92.1456 82.9515C91.6738 83.318 90.9362 83.1118 90.5377 82.9103C89.1016 82.1773 87.2234 81.6505 85.5285 82.9377L84.184 83.957L90.0338 87.2117Z" fill="#F4F4F5"/>
<path d="M203.5 32.5297L212.879 30.4271L220.946 35.0882L219.853 41.0983L210.476 43.1986L202.409 38.5422L203.5 32.5297Z" fill="#F4F4F5"/>
<path d="M243.874 51.6663L236.043 53.4208L235.01 59.1011L236.876 60.1776L225.353 66.8474C223.734 63.998 221.634 61.561 219.274 60.1226C217.234 58.8789 214.513 58.249 212.302 59.4653C211.727 59.7813 210.539 60.5097 209.192 61.348C209.192 61.348 206.982 56.2426 206.913 56.1052C206.803 55.9128 206.643 55.7754 206.43 55.6196L195.486 49.3117L205.639 43.4505L209.604 45.7387C209.806 45.8555 210.032 45.915 210.261 45.915C210.358 45.915 210.454 45.9082 210.55 45.8852L221.281 43.4826C221.798 43.3658 222.195 42.9535 222.289 42.4313L223.704 34.6461C223.803 34.0986 223.551 33.5466 223.067 33.2695L213.752 27.8893C213.466 27.7244 213.131 27.6717 212.804 27.7427L202.071 30.1476C201.553 30.2644 201.157 30.6767 201.063 31.1989L199.648 38.9842C199.549 39.5316 199.801 40.0836 200.287 40.3607L203.008 41.9297L192.19 48.1734L187.719 50.7547C187.719 50.7547 187.719 34.275 187.703 34.2109C187.694 34.0093 187.653 33.8101 187.54 33.6108C187.433 33.4253 187.277 33.2878 187.062 33.1321L176.782 27.1769C176.374 26.941 175.868 26.941 175.463 27.1769L166.34 32.4449L157.405 27.3121C156.995 27.0762 156.496 27.0807 156.09 27.3167C156.09 27.3167 143.298 34.701 143.232 34.7537C143.179 34.7904 143.131 34.8316 143.083 34.8751C143.044 34.9095 142.994 34.9369 142.959 34.9759L118.447 63.2811C118.115 63.6636 118.032 64.2042 118.234 64.6691L135.224 103.911L122.677 110.844C122.677 110.844 122.723 102.26 122.723 102.221C122.725 101.811 122.439 101.261 122.064 101.073L120.898 100.4C120.898 100.4 120.941 92.2827 120.941 92.2415C120.941 91.8292 120.634 91.3092 120.261 91.1214L113.564 87.4018C113.149 87.1704 112.636 87.1887 112.228 87.4315L105.579 91.5543L100.675 88.7233L101.983 81.5314C102.082 80.9839 101.83 80.4319 101.344 80.1548L91.6419 74.5524C91.3579 74.3875 91.0235 74.3325 90.6937 74.4058L79.5186 76.9115C79.001 77.0284 78.6047 77.4406 78.5108 77.9629L77.0381 86.0664L75.6592 93.657L70.9249 94.7861C70.453 94.9007 70.0797 95.2648 69.956 95.7321C69.956 95.7321 64.6857 115.654 64.6743 115.693L64.6308 116.025L64.5712 126.903C64.5689 127.384 64.83 127.83 65.2515 128.066C65.2515 128.066 88.2841 140.794 88.3162 140.813C88.5865 140.961 88.9713 141.019 89.2828 140.934C89.2828 140.934 116.754 133.838 116.757 133.838C117.148 133.737 117.604 133.279 117.705 132.885L122.439 113.994L136.276 106.348L142.742 121.284C142.854 121.545 143.046 121.763 143.294 121.903L192.318 150.208C192.52 150.325 192.749 150.384 192.978 150.384C193.186 150.384 193.39 150.32 193.637 150.208L206.43 142.821C206.558 142.748 206.672 142.656 206.769 142.546C206.769 142.546 231.281 114.241 231.297 114.207C231.437 114.037 231.521 113.84 231.563 113.63C231.572 113.579 231.569 113.533 231.574 113.483C231.588 113.309 231.567 113.135 231.508 112.963C231.496 112.929 231.51 112.89 231.494 112.858L220.981 88.5768C222.321 87.8117 223.571 86.8704 224.918 86.1283C227.22 84.8365 228.541 81.9024 228.541 78.0797C228.541 75.1525 227.776 72.065 226.535 69.2202L239.513 61.7099L241.81 63.0361L249.641 61.2816L250.674 55.6013L243.874 51.6663ZM202.41 38.5421L203.5 32.532L212.879 30.4271L220.946 35.0881L219.854 41.0982L210.477 43.1986L202.41 38.5421ZM112.959 90.0816L117.027 92.3399L106.722 98.7829C106.72 98.7852 106.718 98.783 106.715 98.7852L96.3625 105.258L92.155 102.986L112.959 90.0816ZM106.179 113.611C106.949 114.163 107.62 114.77 108.229 115.407C105.618 117.748 101.452 119.166 96.6717 119.456C96.8183 119.427 96.9718 119.418 97.1046 119.34C97.1115 119.335 97.1138 119.328 97.1206 119.324C97.1229 119.321 97.1275 119.321 97.1321 119.321L106.179 113.611ZM97.7299 107.51L106.095 102.283V110.544L97.7413 115.815L97.7299 107.51ZM96.2365 119.475C95.838 119.493 95.444 119.523 95.0363 119.525C95.0249 119.555 94.947 119.525 94.9012 119.53C88.1604 119.459 81.9396 116.951 78.5566 113.449C80.8104 111.419 84.2438 110.029 88.2154 109.537L88.2223 114.491C88.2246 114.972 88.488 115.418 88.914 115.645L95.7876 119.358C95.7899 119.358 95.7899 119.36 95.7899 119.36C95.7922 119.36 95.7922 119.36 95.7945 119.363L95.799 119.365C95.9365 119.438 96.0876 119.452 96.2365 119.475ZM85.531 82.9308C87.2259 81.6459 89.1018 82.1704 90.5402 82.9033C90.9364 83.1049 91.6763 83.311 92.1481 82.9446C92.5512 82.6308 92.2122 82.2735 91.7198 82.0307C91.1311 81.7398 90.5791 81.6825 90.0982 81.9872L88.2131 81.0389C89.5278 80.0517 91.4152 80.2854 92.9956 81.0412C94.6378 81.8268 95.4784 82.9835 94.2416 83.9592C92.7803 85.1136 90.9685 84.8044 89.2507 83.8997C88.7697 83.6454 88.0528 83.3523 87.3817 83.8676L91.477 86.0687L90.0363 87.2048L84.1888 83.9455L85.531 82.9308ZM87.6657 137.313L67.267 126.039L67.3083 118.185L87.7069 129.459L87.6657 137.313ZM118.39 108.662C118.376 108.714 118.39 108.767 118.383 108.82L118.33 109.03H118.316L115.394 120.554L89.1934 127.372L67.4892 115.373L72.3037 97.1682L99.0102 90.8031L102.24 92.6675L96.4908 96.2268C95.0821 96.0024 93.6506 95.842 92.1962 95.8145C85.2836 95.6611 79.1796 97.8118 75.8356 101.518C73.8704 103.689 73.0023 106.245 73.3253 108.911C74.2002 116.158 83.9346 122.104 95.0249 122.166C95.0272 122.166 95.0295 122.166 95.0318 122.166C95.0913 122.166 95.1509 122.166 95.2035 122.161C101.88 122.157 107.78 120.008 111.008 116.39C112.904 114.259 113.747 111.77 113.472 109.182H113.463C113.461 109.143 113.477 109.106 113.472 109.067C113.401 108.497 113.28 107.938 113.108 107.386C112.728 106.165 112.096 104.976 111.23 103.854C111.211 103.829 111.193 103.804 111.17 103.776C110.959 103.515 110.735 103.249 110.499 102.993L115.316 100.224L119.878 102.853C119.498 104.328 118.779 107.129 118.39 108.662ZM204.822 67.8803C205.676 67.8803 206.647 68.1941 207.664 68.8148C211.975 71.4443 215.619 78.5973 215.619 84.4311C215.619 87.2368 214.806 89.3028 213.39 90.0953C212.284 90.7206 210.77 90.5099 209.135 89.5113C204.824 86.8818 201.18 79.7288 201.18 73.895C201.18 71.0892 201.991 69.0233 203.408 68.2308C203.825 67.9949 204.302 67.8803 204.822 67.8803ZM192.847 50.8372L203.134 56.7648L192.98 62.6261L182.696 56.6984L192.847 50.8372ZM176.118 29.8407L183.768 34.2727L173.612 40.1385L165.962 35.7065L176.118 29.8407ZM180.307 92.7431L168.754 86.1099C168.681 86.0687 168.598 86.0596 168.521 86.0321C168.479 86.0183 168.45 86.0046 168.406 85.9954C168.101 85.9198 167.799 85.9588 167.524 86.0916C167.501 86.1031 167.478 86.087 167.458 86.0985L161.688 89.2868C156.457 81.1992 153.179 72.2482 153.179 64.4745C153.179 63.3498 153.25 62.2733 153.388 61.2472L162.009 55.9815V78.2995C162.009 78.7714 162.261 79.2089 162.671 79.4448L172.95 85.3495C172.971 85.361 172.996 85.3564 173.017 85.3678C173.195 85.4595 173.392 85.5236 173.608 85.5236C173.827 85.5236 174.024 85.4572 174.205 85.3633C174.224 85.3541 174.247 85.3587 174.265 85.3472L184.677 79.3371C186.594 81.9436 188.285 84.6532 189.732 87.4178L180.307 92.7431ZM190.953 89.754C193.761 95.7596 195.344 101.857 195.344 107.285C195.344 109.172 195.122 110.899 194.735 112.477C190.548 112.576 185.758 111.151 180.731 108.183C174.059 104.243 167.934 98.2493 163.163 91.4856L168.085 88.7646L179.645 95.4046C179.854 95.5214 180.078 95.5763 180.3 95.5763H180.303H180.305C180.525 95.5763 180.747 95.5214 180.953 95.4068L190.953 89.754ZM163.159 91.4833L147.776 99.9854C147.3 99.241 146.851 98.4898 146.406 97.7316L161.69 89.2845C162.169 90.0243 162.65 90.7618 163.159 91.4833ZM164.647 37.9924L172.291 42.4198V81.923L164.647 77.5368V37.9924ZM156.748 29.9804L163.697 33.9704L162.668 34.5636C162.65 34.5751 162.643 34.5957 162.625 34.6071C162.453 34.7171 162.297 34.8545 162.187 35.0423C162.187 35.0446 162.187 35.0446 162.185 35.0469V35.0492C162.078 35.237 162.036 35.4386 162.025 35.6424C162.023 35.6653 162.006 35.6836 162.006 35.7065V37.6855L155.923 41.1967L146.596 35.8394L156.748 29.9804ZM120.985 64.3806L144.242 37.5251L154.606 43.478V56.6343C150.44 56.5427 146.805 57.7199 144.093 60.1868C140.731 63.2514 138.953 68.0223 138.953 73.9867C138.953 81.426 141.789 89.8731 146.404 97.7316L137.542 102.629L120.985 64.3806ZM192.696 147.375L144.993 119.834L138.598 105.063L147.781 99.99C152.973 108.094 160.025 115.375 167.801 119.97C176.436 125.063 184.707 126.101 190.5 122.791C193.56 121.044 195.74 118.185 196.931 114.488C197.069 114.262 197.158 114.003 197.135 113.719C197.676 111.772 197.982 109.633 197.982 107.29C197.982 101.101 196.015 94.1265 192.648 87.3468C192.639 87.3308 192.641 87.3124 192.632 87.2964C192.625 87.2849 192.614 87.2804 192.609 87.2689C189.776 81.5863 185.976 76.0389 181.379 71.2358V58.982L191.945 65.0746L215.956 120.526L192.696 147.375ZM215.042 72.8162C213.441 70.1044 211.409 67.791 209.135 66.4007C208.562 66.0503 207.989 65.7892 207.424 65.5762C209.822 64.0553 212.618 62.2985 213.573 61.774C214.707 61.1487 216.249 61.3663 217.902 62.3741C219.792 63.5285 221.64 65.6036 223.088 68.1598L215.042 72.8162Z" fill="#18181B"/>
<path d="M67.2668 126.039L87.6654 137.313L87.7089 129.459L67.3103 118.185L67.2668 126.039Z" fill="white"/>
<path d="M85.5309 82.9307C87.2259 81.6457 89.1017 82.1702 90.5401 82.9032C90.9364 83.1047 91.6762 83.3109 92.148 82.9444C92.5511 82.6306 92.2122 82.2733 91.7197 82.0305C91.1311 81.7396 90.5791 81.6824 90.0981 81.987L88.2131 81.0388C89.5278 80.0516 91.4151 80.2852 92.9955 81.041C94.6377 81.8267 95.4783 82.9833 94.2415 83.9591C92.7802 85.1134 90.9684 84.8042 89.2506 83.8995C88.7696 83.6453 88.0527 83.3521 87.3816 83.8674L91.4769 86.0686L90.0362 87.2046L84.1888 83.9453L85.5309 82.9307Z" fill="#F4F4F5"/>
</svg>
